<?xml version="1.0" encoding="iso-8859-1"?>
<!-- Generator: Adobe Illustrator 19.0.0, SVG Export Plug-In . SVG Version: 6.00 Build 0)  -->
<svg version="1.1" id="Capa_1" xmlns="http://www.w3.org/2000/svg" xmlns:xlink="http://www.w3.org/1999/xlink" x="0px" y="0px"
	 viewBox="0 0 512 512" style="enable-background:new 0 0 512 512;" xml:space="preserve">
<g>
	<g>
		<path d="M287.52,224.48c-3.36-3.36-8-5.088-12.736-4.64l-124.448,11.296c-6.176,0.576-11.52,4.672-13.6,10.496
			c-2.112,5.856-0.672,12.384,3.712,16.768l33.952,33.952L4.704,462.048c-6.24,6.24-6.24,16.384,0,22.624l22.624,22.624
			c6.24,6.272,16.352,6.272,22.624,0L219.648,337.6l33.952,33.952c4.384,4.384,10.912,5.824,16.768,3.744
			c2.24-0.832,4.224-2.112,5.856-3.744c2.592-2.592,4.288-6.048,4.608-9.888l11.328-124.448
			C292.608,232.48,290.88,227.84,287.52,224.48z"/>
	</g>
</g>
<g>
	<g>
		<path d="M480,0H32C14.336,0,0,14.336,0,32v320h64V64h384v384H160v64h320c17.696,0,32-14.304,32-32V32C512,14.336,497.696,0,480,0z
			"/>
	</g>
</g>
<g>
</g>
<g>
</g>
<g>
</g>
<g>
</g>
<g>
</g>
<g>
</g>
<g>
</g>
<g>
</g>
<g>
</g>
<g>
</g>
<g>
</g>
<g>
</g>
<g>
</g>
<g>
</g>
<g>
</g>
</svg>
