<?xml version="1.0" ?><!DOCTYPE svg  PUBLIC '-//W3C//DTD SVG 1.1//EN'  'http://www.w3.org/Graphics/SVG/1.1/DTD/svg11.dtd'><svg enable-background="new 0 0 166 132" height="132px" id="Layer_1" version="1.1" viewBox="0 0 166 132" width="166px" xml:space="preserve" xmlns="http://www.w3.org/2000/svg" xmlns:xlink="http://www.w3.org/1999/xlink"><g><path d="M132.658-0.18l-24.321,24.321c-7.915-2.71-16.342-4.392-25.087-4.392c-45.84,0-83,46-83,46   s14.1,17.44,35.635,30.844L12.32,120.158l12.021,12.021L144.68,11.841L132.658-0.18z M52.033,80.445   c-2.104-4.458-3.283-9.438-3.283-14.695c0-19.054,15.446-34.5,34.5-34.5c5.258,0,10.237,1.179,14.695,3.284L52.033,80.445z" fill="#231F20"/><path d="M134.865,37.656l-18.482,18.482c0.884,3.052,1.367,6.275,1.367,9.612c0,19.055-15.446,34.5-34.5,34.5   c-3.337,0-6.56-0.483-9.611-1.367l-10.124,10.124c6.326,1.725,12.934,2.743,19.735,2.743c45.84,0,83-46,83-46   S153.987,50.575,134.865,37.656z" fill="#231F20"/></g></svg>