<?xml version="1.0" encoding="UTF-8"?>
<svg xmlns="http://www.w3.org/2000/svg" xmlns:xlink="http://www.w3.org/1999/xlink" width="56.693pt" height="113.386pt" viewBox="0 0 56.693 113.386" version="1.1">
<defs>
<clipPath id="clip1">
  <path d="M 28 28 L 56.691406 28 L 56.691406 29 L 28 29 Z M 28 28 "/>
</clipPath>
<clipPath id="clip2">
  <path d="M 16.441406 20.410156 L 32.316406 20.410156 L 32.316406 26.757812 L 16.441406 26.757812 Z M 16.441406 26.757812 L 22.792969 26.757812 L 22.792969 29.933594 L 16.441406 29.933594 Z M 16.441406 29.933594 L 32.316406 29.933594 L 32.316406 36.28125 L 16.441406 36.28125 Z M 16.441406 29.933594 "/>
</clipPath>
</defs>
<g id="surface1">
<g clip-path="url(#clip1)" clip-rule="nonzero">
<path style="fill:none;stroke-width:0.3985;stroke-linecap:butt;stroke-linejoin:miter;stroke:rgb(0%,0%,0%);stroke-opacity:1;stroke-miterlimit:10;" d="M 28.347656 85.04225 L 56.695312 85.04225 " transform="matrix(1,0,0,-1,0,113.386)"/>
</g>
<g clip-path="url(#clip2)" clip-rule="nonzero">
<path style="fill:none;stroke-width:0.797;stroke-linecap:butt;stroke-linejoin:miter;stroke:rgb(0%,0%,0%);stroke-opacity:1;stroke-miterlimit:10;" d="M 28.347656 85.04225 C 28.347656 87.233656 26.570312 89.007094 24.378906 89.007094 C 22.1875 89.007094 20.410156 87.233656 20.410156 85.04225 C 20.410156 82.850844 22.1875 81.0735 24.378906 81.0735 C 26.570312 81.0735 28.347656 82.850844 28.347656 85.04225 Z M 28.347656 85.04225 " transform="matrix(1,0,0,-1,0,113.386)"/>
</g>
<path style="fill:none;stroke-width:0.797;stroke-linecap:butt;stroke-linejoin:miter;stroke:rgb(0%,0%,0%);stroke-opacity:1;stroke-miterlimit:10;" d="M 25.964844 85.04225 C 25.964844 85.91725 25.253906 86.628187 24.378906 86.628187 C 23.503906 86.628187 22.792969 85.91725 22.792969 85.04225 C 22.792969 84.163344 23.503906 83.452406 24.378906 83.452406 C 25.253906 83.452406 25.964844 84.163344 25.964844 85.04225 Z M 25.964844 85.04225 " transform="matrix(1,0,0,-1,0,113.386)"/>
<path style="fill:none;stroke-width:0.3985;stroke-linecap:butt;stroke-linejoin:miter;stroke:rgb(0%,0%,0%);stroke-opacity:1;stroke-miterlimit:10;" d="M 25.964844 85.04225 L 28.347656 85.04225 " transform="matrix(1,0,0,-1,0,113.386)"/>
<path style="fill:none;stroke-width:0.3985;stroke-linecap:butt;stroke-linejoin:miter;stroke:rgb(0%,0%,0%);stroke-opacity:1;stroke-miterlimit:10;" d="M 24.378906 81.0735 L 24.378906 24.378187 " transform="matrix(1,0,0,-1,0,113.386)"/>
<path style="fill:none;stroke-width:0.3985;stroke-linecap:butt;stroke-linejoin:miter;stroke:rgb(0%,0%,0%);stroke-opacity:1;stroke-miterlimit:10;" d="M 24.378906 24.378187 L 24.378906 12.471937 " transform="matrix(1,0,0,-1,0,113.386)"/>
<path style="fill:none;stroke-width:0.797;stroke-linecap:butt;stroke-linejoin:miter;stroke:rgb(0%,0%,0%);stroke-opacity:1;stroke-miterlimit:10;" d="M 18.425781 12.471937 L 30.332031 12.471937 M 20.410156 10.487562 L 28.347656 10.487562 M 21.898438 8.503187 L 26.859375 8.503187 " transform="matrix(1,0,0,-1,0,113.386)"/>
</g>
</svg>
