<?xml version="1.0" encoding="iso-8859-1"?>
<!-- Generator: Adobe Illustrator 18.0.0, SVG Export Plug-In . SVG Version: 6.00 Build 0)  -->
<!DOCTYPE svg PUBLIC "-//W3C//DTD SVG 1.1//EN" "http://www.w3.org/Graphics/SVG/1.1/DTD/svg11.dtd">
<svg version="1.1" id="Capa_1" xmlns="http://www.w3.org/2000/svg" xmlns:xlink="http://www.w3.org/1999/xlink" x="0px" y="0px"
	 viewBox="0 0 365.368 365.368" style="enable-background:new 0 0 365.368 365.368;" xml:space="preserve">
<g>
	<path style="fill:#231F20;" d="M295.684,116.434h-95.5V63.891l15.125,15.126c1.464,1.465,3.384,2.197,5.303,2.197
		c1.919,0,3.839-0.732,5.303-2.196l14.143-14.142c1.406-1.407,2.197-3.314,2.197-5.304c0-1.989-0.79-3.896-2.197-5.303
		L187.987,2.197C186.581,0.79,184.673,0,182.684,0s-3.897,0.79-5.303,2.197L125.31,54.269c-1.407,1.407-2.197,3.314-2.197,5.303
		c0,1.989,0.791,3.897,2.197,5.304l14.143,14.142c2.929,2.929,7.678,2.928,10.606-0.001l15.126-15.126v52.543h-95.5
		c-4.142,0-7.5,3.358-7.5,7.5v20c0,4.142,3.358,7.5,7.5,7.5h226c4.142,0,7.5-3.358,7.5-7.5v-20
		C303.184,119.792,299.826,116.434,295.684,116.434z"/>
	<path style="fill:#231F20;" d="M295.684,213.934h-226c-4.142,0-7.5,3.358-7.5,7.5v20c0,4.142,3.358,7.5,7.5,7.5h95.5v52.543
		l-15.126-15.126c-2.928-2.929-7.677-2.929-10.606-0.001l-14.143,14.142c-1.406,1.407-2.197,3.315-2.197,5.304
		c0,1.989,0.79,3.897,2.197,5.303l52.071,52.072c1.406,1.407,3.314,2.197,5.303,2.197s3.897-0.79,5.303-2.197l52.071-52.072
		c1.407-1.407,2.197-3.314,2.197-5.303c0-1.989-0.79-3.897-2.197-5.304l-14.143-14.142c-2.929-2.929-7.678-2.928-10.606,0.001
		l-15.125,15.126v-52.543h95.5c4.142,0,7.5-3.358,7.5-7.5v-20C303.184,217.292,299.826,213.934,295.684,213.934z"/>
</g>
<g>
</g>
<g>
</g>
<g>
</g>
<g>
</g>
<g>
</g>
<g>
</g>
<g>
</g>
<g>
</g>
<g>
</g>
<g>
</g>
<g>
</g>
<g>
</g>
<g>
</g>
<g>
</g>
<g>
</g>
</svg>
