M48
; DRILL file {KiCad 8.0.1} date 2024-03-25T21:57:40-0400
; FORMAT={-:-/ absolute / metric / decimal}
; #@! TF.CreationDate,2024-03-25T21:57:40-04:00
; #@! TF.GenerationSoftware,Kicad,Pcbnew,8.0.1
; #@! TF.FileFunction,Plated,1,6,PTH
FMAT,2
METRIC
; #@! TA.AperFunction,Plated,PTH,ViaDrill
T1C0.250
; #@! TA.AperFunction,Plated,PTH,ViaDrill
T2C0.300
; #@! TA.AperFunction,Plated,PTH,ComponentDrill
T3C0.600
; #@! TA.AperFunction,Plated,PTH,ComponentDrill
T4C0.800
; #@! TA.AperFunction,Plated,PTH,ComponentDrill
T5C1.000
; #@! TA.AperFunction,Plated,PTH,ViaDrill
T6C3.200
%
G90
G05
T1
X1.0Y91.0
X1.0Y90.0
X1.0Y89.0
X1.0Y88.0
X1.0Y87.0
X1.0Y86.0
X1.0Y85.0
X1.0Y84.0
X1.0Y83.0
X1.0Y82.0
X1.0Y81.0
X1.0Y80.0
X1.0Y79.0
X1.0Y78.0
X1.0Y77.0
X1.0Y76.0
X1.0Y75.0
X1.0Y74.0
X1.0Y73.0
X1.0Y72.0
X1.0Y71.0
X1.0Y70.0
X1.0Y69.0
X1.0Y68.0
X1.0Y67.0
X1.0Y66.0
X1.0Y65.0
X1.0Y64.0
X1.0Y63.0
X1.0Y62.0
X1.0Y61.0
X1.0Y60.0
X1.0Y55.0
X1.0Y54.0
X1.0Y53.0
X1.0Y52.0
X1.0Y51.0
X1.0Y50.0
X1.0Y49.0
X1.0Y48.0
X1.0Y47.0
X1.0Y46.0
X1.0Y45.0
X1.0Y44.0
X1.0Y43.0
X1.0Y42.0
X1.0Y41.0
X1.0Y40.0
X1.0Y39.0
X1.0Y38.0
X1.0Y37.0
X1.0Y36.0
X1.0Y35.0
X1.0Y34.0
X1.0Y33.0
X1.0Y32.0
X1.0Y31.0
X1.0Y26.0
X1.0Y25.0
X1.0Y24.0
X1.0Y23.0
X1.0Y22.0
X1.0Y21.0
X1.0Y20.0
X1.0Y19.0
X1.0Y18.0
X1.0Y17.0
X1.0Y16.0
X1.0Y15.0
X1.0Y14.0
X1.0Y13.0
X1.0Y12.0
X1.0Y11.0
X1.0Y10.0
X1.0Y9.0
X1.0Y8.0
X1.0Y7.0
X1.0Y6.0
X1.0Y5.0
X1.0Y4.0
X1.0Y3.0
X2.0Y90.0
X2.0Y89.0
X2.0Y88.0
X2.0Y87.0
X2.0Y86.0
X2.0Y85.0
X2.0Y84.0
X2.0Y83.0
X2.0Y82.0
X2.0Y81.0
X2.0Y80.0
X2.0Y79.0
X2.0Y78.0
X2.0Y77.0
X2.0Y76.0
X2.0Y75.0
X2.0Y74.0
X2.0Y73.0
X2.0Y72.0
X2.0Y71.0
X2.0Y70.0
X2.0Y69.0
X2.0Y68.0
X2.0Y67.0
X2.0Y66.0
X2.0Y65.0
X2.0Y64.0
X2.0Y63.0
X2.0Y62.0
X2.0Y61.0
X2.0Y54.0
X2.0Y53.0
X2.0Y52.0
X2.0Y51.0
X2.0Y50.0
X2.0Y49.0
X2.0Y48.0
X2.0Y47.0
X2.0Y46.0
X2.0Y45.0
X2.0Y44.0
X2.0Y43.0
X2.0Y42.0
X2.0Y41.0
X2.0Y40.0
X2.0Y39.0
X2.0Y38.0
X2.0Y37.0
X2.0Y36.0
X2.0Y35.0
X2.0Y34.0
X2.0Y33.0
X2.0Y32.0
X2.0Y25.0
X2.0Y24.0
X2.0Y23.0
X2.0Y22.0
X2.0Y21.0
X2.0Y20.0
X2.0Y19.0
X2.0Y18.0
X2.0Y17.0
X2.0Y16.0
X2.0Y15.0
X2.0Y14.0
X2.0Y13.0
X2.0Y12.0
X2.0Y11.0
X2.0Y10.0
X2.0Y9.0
X2.0Y8.0
X2.0Y7.0
X2.0Y6.0
X2.0Y5.0
X2.0Y4.0
X3.0Y32.0
X3.0Y25.0
X3.0Y4.0
X3.6Y22.1
X3.6Y20.1
X3.6Y18.3
X3.6Y16.3
X4.0Y31.0
X4.0Y26.0
X4.0Y3.0
X4.2Y14.0
X4.3Y13.0
X4.3Y12.0
X4.325Y11.125
X4.5Y59.5
X4.55Y10.125
X4.975Y9.35
X5.0Y95.0
X5.0Y54.0
X5.0Y30.0
X5.0Y27.0
X5.0Y3.0
X5.0Y2.0
X5.0Y-1.0
X5.1Y13.7
X5.4Y44.6
X5.5Y8.5
X5.9Y13.0
X5.9Y12.0
X5.95Y11.15
X6.0Y95.0
X6.0Y94.0
X6.0Y58.0
X6.0Y14.0
X6.0Y2.0
X6.0Y1.0
X6.0Y0.0
X6.2Y10.3
X6.2Y7.8
X6.6Y25.0
X6.6Y23.8
X6.6Y22.6
X6.6Y20.0
X6.6Y18.7
X6.6Y16.3
X6.6Y9.6
X6.9Y7.1
X6.95Y38.2
X7.0Y95.0
X7.0Y94.0
X7.0Y59.0
X7.0Y47.0
X7.2Y9.0
X7.6Y53.0
X7.6Y6.4
X7.7Y28.4
X7.8Y40.5
X7.8Y38.1
X7.8Y8.4
X7.9Y55.6
X7.9Y38.925
X8.0Y95.0
X8.0Y94.0
X8.0Y58.0
X8.0Y48.0
X8.0Y35.5
X8.3Y5.7
X8.4Y53.0
X8.4Y7.8
X8.5Y48.7
X9.0Y95.0
X9.0Y94.0
X9.0Y59.0
X9.0Y35.5
X9.0Y7.2
X9.05Y5.225
X9.7Y25.0
X9.7Y23.8
X9.75Y6.525
X9.8Y22.535
X9.8Y17.5
X9.825Y4.8
X10.0Y95.0
X10.0Y94.0
X10.0Y59.0
X10.0Y58.0
X10.0Y54.7
X10.0Y39.6
X10.0Y35.0
X10.0Y34.0
X10.0Y33.0
X10.0Y32.0
X10.0Y31.0
X10.0Y30.0
X10.0Y29.0
X10.0Y28.0
X10.0Y27.0
X10.0Y26.0
X10.425Y6.125
X10.5Y10.7
X10.5Y10.0
X10.5Y9.3
X10.575Y4.45
X10.6Y84.5
X10.6Y8.5
X10.7Y18.665
X11.0Y95.0
X11.0Y94.0
X11.0Y59.0
X11.0Y58.0
X11.0Y7.0
X11.139Y69.244
X11.15Y47.15
X11.175Y5.825
X11.2Y8.0
X11.2Y4.0
X11.2Y3.0
X11.2Y2.0
X11.2Y1.0
X11.3Y11.5
X11.449Y61.314
X11.6Y38.0
X11.6Y37.0
X11.6Y21.5
X11.6Y20.6
X11.6Y19.7
X11.6Y12.4
X11.7Y44.3
X11.7Y43.4
X12.0Y95.0
X12.0Y94.0
X12.0Y59.0
X12.0Y58.0
X12.1Y81.2
X12.1Y54.4
X12.1Y35.15
X12.1Y13.2
X12.2Y17.85
X12.5Y37.5
X12.5Y21.5
X12.5Y20.6
X12.5Y19.7
X12.8Y13.9
X12.8Y10.6
X12.8Y9.7
X12.8Y8.7
X12.8Y4.0
X12.8Y3.0
X12.8Y2.0
X12.8Y1.0
X12.9Y54.4
X12.9Y7.9
X13.0Y95.0
X13.0Y94.0
X13.0Y59.0
X13.0Y58.0
X13.0Y11.4
X13.0Y7.0
X13.0Y6.0
X13.169Y65.734
X13.4Y38.0
X13.4Y37.0
X13.4Y21.5
X13.4Y20.6
X13.4Y19.7
X13.4Y12.2
X13.5Y44.5
X13.5Y4.2
X13.6Y84.5
X13.6Y14.4
X13.659Y60.814
X13.7Y54.4
X13.9Y52.5
X14.0Y95.0
X14.0Y94.0
X14.0Y59.0
X14.0Y58.0
X14.0Y5.8
X14.1Y12.8
X14.2Y51.7
X14.2Y50.9
X14.2Y47.3
X14.5Y14.7
X14.5Y4.2
X14.6Y54.3
X14.892Y18.892
X15.0Y95.0
X15.0Y94.0
X15.0Y59.0
X15.0Y37.0
X15.0Y13.1
X15.0Y5.8
X15.05Y22.6
X15.1Y81.2
X15.5Y14.8
X15.5Y4.2
X15.7Y39.4
X15.8Y42.0
X15.875Y5.925
X16.0Y95.0
X16.0Y94.0
X16.0Y35.0
X16.0Y34.0
X16.0Y33.0
X16.0Y32.0
X16.0Y31.0
X16.0Y30.0
X16.0Y29.0
X16.0Y28.0
X16.0Y27.0
X16.0Y26.0
X16.0Y13.1
X16.1Y12.1
X16.3Y24.8
X16.4Y4.2
X16.5Y6.4
X16.6Y84.5
X16.6Y54.5
X16.6Y11.3
X16.7Y51.1
X16.8Y48.4
X16.869Y69.004
X17.0Y95.0
X17.0Y94.0
X17.1Y10.5
X17.1Y4.7
X17.4Y61.9
X17.4Y60.7
X17.5Y27.1
X17.5Y6.4
X17.9Y9.9
X18.0Y95.0
X18.0Y94.0
X18.0Y53.0
X18.0Y50.1
X18.0Y49.3
X18.0Y4.8
X18.0Y1.0
X18.0Y-1.0
X18.1Y81.2
X18.3Y9.0
X18.5Y6.4
X18.579Y65.604
X18.6Y8.2
X18.8Y25.8
X19.0Y95.0
X19.0Y94.0
X19.0Y56.0
X19.0Y55.0
X19.0Y47.0
X19.0Y46.0
X19.0Y38.0
X19.0Y37.0
X19.0Y24.0
X19.0Y23.0
X19.0Y22.0
X19.0Y7.3
X19.0Y4.8
X19.0Y0.0
X19.5Y10.3
X19.5Y6.4
X19.6Y84.5
X19.9Y68.6
X19.9Y66.6
X19.9Y9.4
X20.0Y95.0
X20.0Y94.0
X20.0Y81.0
X20.0Y57.0
X20.0Y56.0
X20.0Y55.0
X20.0Y54.0
X20.0Y21.5
X20.0Y4.8
X20.0Y1.0
X20.0Y-1.0
X20.1Y33.2
X20.2Y44.4
X20.2Y43.4
X20.3Y8.5
X20.7Y7.6
X20.8Y59.8
X21.0Y95.0
X21.0Y94.0
X21.0Y59.0
X21.0Y56.0
X21.0Y55.0
X21.0Y53.0
X21.0Y21.0
X21.0Y15.5
X21.0Y4.8
X21.0Y2.0
X21.0Y0.0
X21.1Y81.2
X21.1Y6.9
X21.3Y60.4
X21.5Y20.0
X21.6Y50.6
X21.6Y33.9
X21.8Y49.3
X21.8Y48.6
X21.8Y47.9
X21.8Y44.4
X21.8Y43.4
X21.8Y6.5
X21.96Y69.304
X22.0Y95.0
X22.0Y94.0
X22.0Y67.7
X22.0Y58.0
X22.0Y54.0
X22.0Y53.0
X22.0Y52.0
X22.0Y30.0
X22.0Y27.0
X22.0Y19.0
X22.0Y18.0
X22.0Y17.0
X22.0Y15.5
X22.0Y4.8
X22.0Y1.0
X22.0Y-1.0
X22.45Y7.05
X22.5Y12.9
X22.6Y84.5
X23.0Y95.0
X23.0Y94.0
X23.0Y54.0
X23.0Y53.0
X23.0Y52.0
X23.0Y51.0
X23.0Y44.4
X23.0Y31.0
X23.0Y26.0
X23.0Y4.8
X23.0Y2.0
X23.0Y0.0
X23.25Y7.05
X24.0Y95.0
X24.0Y94.0
X24.0Y53.0
X24.0Y52.0
X24.0Y51.0
X24.0Y50.0
X24.0Y49.0
X24.0Y48.0
X24.0Y47.0
X24.0Y46.0
X24.0Y31.0
X24.0Y26.0
X24.0Y4.8
X24.0Y1.0
X24.0Y-1.0
X24.05Y7.05
X24.1Y81.2
X24.2Y84.7
X24.7Y6.4
X24.9Y54.4
X25.0Y95.0
X25.0Y94.0
X25.0Y51.0
X25.0Y50.0
X25.0Y45.0
X25.0Y44.0
X25.0Y43.0
X25.0Y42.0
X25.0Y41.0
X25.0Y40.0
X25.0Y39.0
X25.0Y38.0
X25.0Y37.0
X25.0Y36.0
X25.0Y34.0
X25.0Y32.0
X25.0Y26.0
X25.0Y25.0
X25.0Y22.0
X25.0Y21.0
X25.0Y20.0
X25.0Y19.0
X25.0Y18.0
X25.0Y17.0
X25.0Y16.0
X25.0Y15.0
X25.0Y4.8
X25.0Y2.0
X25.0Y0.0
X25.5Y73.7
X25.5Y6.5
X25.6Y84.5
X25.6Y70.1
X25.6Y69.3
X25.6Y68.5
X25.6Y67.7
X25.6Y66.9
X25.6Y61.0
X25.669Y63.174
X25.7Y65.4
X25.7Y52.2
X25.999Y61.704
X26.0Y95.0
X26.0Y94.0
X26.0Y45.0
X26.0Y44.0
X26.0Y43.0
X26.0Y42.0
X26.0Y41.0
X26.0Y40.0
X26.0Y39.0
X26.0Y38.0
X26.0Y37.0
X26.0Y36.0
X26.0Y35.0
X26.0Y33.0
X26.0Y31.0
X26.0Y26.0
X26.0Y25.0
X26.0Y24.0
X26.0Y21.0
X26.0Y20.0
X26.0Y19.0
X26.0Y18.0
X26.0Y17.0
X26.0Y16.0
X26.0Y15.0
X26.0Y14.0
X26.0Y12.0
X26.0Y4.6
X26.0Y1.0
X26.0Y-1.0
X26.029Y62.454
X26.209Y57.474
X26.3Y6.6
X26.699Y58.044
X26.9Y80.8
X27.0Y95.0
X27.0Y94.0
X27.0Y84.9
X27.0Y65.0
X27.0Y51.1
X27.0Y16.0
X27.0Y15.0
X27.0Y14.0
X27.0Y13.0
X27.0Y7.5
X27.0Y4.6
X27.0Y2.0
X27.0Y0.0
X27.2Y6.6
X27.289Y72.354
X27.4Y39.4
X27.5Y81.4
X27.5Y10.5
X27.509Y58.084
X27.619Y69.844
X27.969Y57.474
X28.0Y95.0
X28.0Y94.0
X28.0Y50.0
X28.0Y38.1
X28.0Y26.3
X28.0Y15.0
X28.0Y14.0
X28.0Y13.0
X28.0Y4.7
X28.0Y1.0
X28.0Y-1.0
X28.039Y74.064
X28.2Y35.8
X28.2Y34.2
X28.4Y45.2
X28.6Y84.5
X28.729Y57.384
X29.0Y95.0
X29.0Y94.0
X29.0Y49.0
X29.0Y48.0
X29.0Y47.0
X29.0Y27.6
X29.0Y23.8
X29.0Y22.8
X29.0Y15.0
X29.0Y14.0
X29.0Y13.0
X29.0Y8.0
X29.0Y2.0
X29.0Y0.0
X29.025Y4.675
X29.1Y66.1
X29.2Y54.6
X29.246Y52.246
X29.5Y44.4
X29.5Y43.3
X29.5Y42.5
X29.5Y41.7
X29.75Y57.482
X29.9Y4.4
X29.999Y7.068
X30.0Y95.0
X30.0Y94.0
X30.0Y15.0
X30.0Y14.0
X30.0Y13.0
X30.0Y8.9
X30.0Y8.0
X30.0Y1.0
X30.0Y-1.0
X30.2Y79.8
X30.2Y54.6
X30.3Y36.8
X30.4Y86.6
X30.4Y33.2
X30.5Y39.4
X30.7Y27.3
X30.729Y57.404
X30.8Y23.8
X30.8Y22.8
X30.8Y4.2
X30.969Y60.194
X31.0Y95.0
X31.0Y94.0
X31.0Y8.0
X31.0Y2.0
X31.0Y0.0
X31.009Y73.734
X31.1Y27.9
X31.2Y54.6
X31.2Y40.2
X31.6Y84.5
X31.7Y27.3
X31.769Y57.394
X31.8Y4.2
X32.0Y95.0
X32.0Y94.0
X32.0Y17.2
X32.0Y1.0
X32.0Y-1.0
X32.2Y76.7
X32.2Y31.6
X32.2Y30.6
X32.2Y5.9
X32.399Y43.034
X32.5Y20.8
X32.6Y35.5
X32.6Y6.6
X32.7Y17.2
X32.749Y57.404
X32.8Y4.2
X33.0Y95.0
X33.0Y94.0
X33.0Y53.0
X33.0Y11.0
X33.0Y2.0
X33.0Y0.0
X33.2Y54.6
X33.204Y42.996
X33.3Y20.8
X33.3Y6.2
X33.6Y24.0
X33.709Y57.414
X33.8Y35.5
X33.8Y4.2
X34.0Y95.0
X34.0Y94.0
X34.0Y43.278
X34.0Y32.0
X34.0Y11.0
X34.0Y10.0
X34.0Y5.9
X34.0Y1.0
X34.0Y-1.0
X34.1Y19.975
X34.2Y20.8
X34.3Y54.6
X34.6Y41.2
X34.699Y57.444
X34.7Y40.2
X34.8Y5.8
X34.8Y4.2
X35.0Y95.0
X35.0Y94.0
X35.0Y50.0
X35.0Y49.0
X35.0Y48.0
X35.0Y11.0
X35.0Y10.0
X35.0Y9.0
X35.0Y2.0
X35.0Y0.0
X35.1Y84.5
X35.149Y76.544
X35.2Y60.8
X35.2Y26.3
X35.2Y24.5
X35.5Y39.5
X35.7Y74.0
X35.7Y25.4
X35.7Y14.6
X35.8Y5.8
X35.8Y4.2
X35.891Y57.991
X36.0Y95.0
X36.0Y94.0
X36.0Y50.0
X36.0Y49.0
X36.0Y48.0
X36.0Y47.0
X36.0Y21.5
X36.0Y10.0
X36.0Y9.0
X36.0Y8.0
X36.0Y1.0
X36.0Y-1.0
X36.2Y26.3
X36.2Y24.5
X36.25Y13.975
X36.4Y76.6
X36.4Y33.2
X36.4Y28.7
X36.519Y57.574
X36.7Y54.6
X36.8Y8.0
X36.8Y5.8
X36.8Y4.2
X36.986Y79.286
X37.0Y95.0
X37.0Y94.0
X37.0Y50.0
X37.0Y49.0
X37.0Y48.0
X37.0Y47.0
X37.0Y10.0
X37.0Y9.0
X37.0Y2.0
X37.0Y0.0
X37.269Y76.514
X37.369Y57.384
X37.6Y84.5
X37.7Y54.6
X37.7Y20.8
X37.8Y79.4
X37.8Y5.8
X37.8Y4.2
X38.0Y95.0
X38.0Y94.0
X38.0Y80.8
X38.0Y57.8
X38.0Y49.0
X38.0Y48.0
X38.0Y47.0
X38.0Y24.0
X38.0Y10.0
X38.0Y9.0
X38.0Y8.0
X38.0Y1.0
X38.0Y-1.0
X38.2Y76.7
X38.5Y39.5
X38.5Y28.0
X38.6Y44.8
X38.7Y79.4
X38.7Y63.1
X38.7Y38.4
X38.7Y36.7
X38.739Y59.774
X38.799Y57.404
X38.8Y43.8
X38.8Y22.6
X38.8Y5.8
X38.8Y4.2
X38.9Y24.0
X38.9Y19.2
X38.9Y12.8
X39.0Y95.0
X39.0Y94.0
X39.0Y50.0
X39.0Y49.0
X39.0Y48.0
X39.0Y47.0
X39.0Y10.0
X39.0Y9.0
X39.0Y8.0
X39.0Y2.0
X39.0Y0.0
X39.011Y17.989
X39.2Y54.6
X39.3Y80.8
X39.3Y76.7
X39.3Y14.0
X39.6Y29.1
X39.8Y5.8
X39.8Y4.2
X39.9Y84.6
X40.0Y95.0
X40.0Y94.0
X40.0Y49.0
X40.0Y48.0
X40.0Y47.0
X40.0Y46.0
X40.0Y12.5
X40.0Y10.0
X40.0Y9.0
X40.0Y8.0
X40.0Y1.0
X40.0Y-1.0
X40.2Y54.6
X40.4Y16.9
X40.4Y16.0
X40.4Y15.1
X40.5Y86.4
X40.5Y31.2
X40.5Y30.0
X40.5Y28.8
X40.629Y57.404
X40.8Y5.8
X40.8Y4.2
X40.879Y76.524
X41.0Y95.0
X41.0Y94.0
X41.0Y83.0
X41.0Y65.8
X41.0Y48.0
X41.0Y47.0
X41.0Y46.0
X41.0Y45.0
X41.0Y44.0
X41.0Y43.0
X41.0Y42.0
X41.0Y41.0
X41.0Y40.0
X41.0Y39.0
X41.0Y38.0
X41.0Y10.0
X41.0Y9.0
X41.0Y8.0
X41.0Y2.0
X41.0Y0.0
X41.039Y60.604
X41.1Y49.5
X41.2Y57.9
X41.3Y16.9
X41.3Y16.0
X41.3Y15.1
X41.669Y62.324
X41.7Y76.6
X41.8Y5.8
X41.8Y4.2
X41.849Y57.404
X42.0Y95.0
X42.0Y94.0
X42.0Y50.4
X42.0Y48.7
X42.0Y47.0
X42.0Y46.0
X42.0Y45.0
X42.0Y44.0
X42.0Y43.0
X42.0Y42.0
X42.0Y41.0
X42.0Y40.0
X42.0Y39.0
X42.0Y38.0
X42.0Y37.0
X42.0Y10.0
X42.0Y9.0
X42.0Y8.0
X42.1Y36.0
X42.2Y54.6
X42.2Y16.9
X42.2Y16.0
X42.2Y15.1
X42.4Y80.8
X42.419Y60.234
X42.619Y76.444
X42.7Y49.6
X42.7Y35.0
X42.759Y57.364
X42.8Y5.8
X42.8Y4.2
X42.9Y47.7
X43.0Y95.0
X43.0Y94.0
X43.0Y83.0
X43.0Y51.5
X43.0Y38.0
X43.0Y36.0
X43.0Y34.0
X43.0Y10.0
X43.0Y9.0
X43.0Y8.0
X43.2Y54.6
X43.379Y76.624
X43.4Y37.0
X43.4Y18.15
X43.5Y31.2
X43.5Y30.0
X43.5Y28.8
X43.6Y80.8
X43.6Y48.8
X43.7Y57.7
X43.7Y13.4
X43.8Y5.8
X43.8Y4.2
X43.9Y34.0
X44.0Y95.0
X44.0Y94.0
X44.0Y52.0
X44.0Y51.0
X44.0Y43.0
X44.0Y42.0
X44.0Y41.0
X44.0Y40.0
X44.0Y35.9
X44.0Y35.0
X44.0Y33.0
X44.0Y10.0
X44.0Y9.0
X44.0Y8.0
X44.1Y43.9
X44.1Y38.7
X44.2Y17.7
X44.225Y44.7
X44.419Y64.284
X44.499Y69.904
X44.499Y68.2
X44.499Y66.514
X44.499Y63.484
X44.499Y62.574
X44.5Y69.1
X44.5Y58.8
X44.5Y55.9
X44.5Y49.9
X44.5Y37.5
X44.509Y61.7
X44.513Y71.287
X44.559Y60.824
X44.569Y67.284
X44.569Y65.144
X44.7Y73.7
X44.75Y45.825
X44.8Y34.9
X44.8Y23.9
X44.8Y5.8
X44.8Y4.2
X45.0Y95.0
X45.0Y94.0
X45.0Y53.0
X45.0Y52.0
X45.0Y51.0
X45.0Y34.0
X45.0Y22.6
X45.0Y10.0
X45.0Y9.0
X45.0Y8.0
X45.1Y32.6
X45.3Y36.5
X45.525Y46.75
X45.675Y43.05
X45.7Y42.05
X45.7Y39.9
X45.725Y41.0
X45.8Y5.8
X45.8Y4.2
X45.9Y51.1
X45.9Y34.1
X45.925Y38.675
X46.0Y95.0
X46.0Y94.0
X46.0Y53.0
X46.0Y52.0
X46.0Y33.0
X46.0Y27.4
X46.0Y10.0
X46.0Y9.0
X46.0Y8.0
X46.1Y31.9
X46.3Y44.1
X46.4Y35.8
X46.475Y42.625
X46.475Y41.475
X46.6Y47.525
X46.625Y40.325
X46.7Y45.1
X46.7Y39.0
X46.7Y37.95
X46.8Y5.8
X46.8Y4.2
X47.0Y95.0
X47.0Y94.0
X47.0Y57.6
X47.0Y54.0
X47.0Y53.0
X47.0Y52.0
X47.0Y33.4
X47.0Y32.0
X47.0Y29.5
X47.0Y27.4
X47.0Y26.0
X47.0Y24.4
X47.0Y13.4
X47.0Y12.2
X47.0Y10.0
X47.0Y9.0
X47.0Y8.0
X47.0Y2.0
X47.0Y0.0
X47.1Y21.6
X47.1Y20.4
X47.1Y19.4
X47.2Y31.2
X47.35Y46.125
X47.4Y67.7
X47.4Y66.9
X47.4Y63.2
X47.4Y62.225
X47.4Y59.7
X47.5Y55.9
X47.5Y35.5
X47.5Y11.0
X47.6Y69.1
X47.725Y37.325
X47.8Y5.8
X47.8Y4.2
X47.85Y48.1
X48.0Y95.0
X48.0Y94.0
X48.0Y77.0
X48.0Y54.0
X48.0Y53.0
X48.0Y52.0
X48.0Y43.825
X48.0Y33.0
X48.0Y31.8
X48.0Y8.0
X48.0Y1.0
X48.0Y-1.0
X48.1Y30.8
X48.125Y40.45
X48.15Y39.575
X48.3Y21.6
X48.35Y44.925
X48.5Y28.4
X48.5Y26.8
X48.5Y25.2
X48.525Y38.775
X48.6Y35.5
X48.7Y42.5
X48.7Y41.4
X48.725Y45.5
X48.8Y48.275
X48.8Y5.8
X48.8Y4.2
X49.0Y95.0
X49.0Y94.0
X49.0Y54.0
X49.0Y53.0
X49.0Y32.0
X49.0Y31.0
X49.0Y2.0
X49.0Y0.0
X49.3Y32.8
X49.35Y38.225
X49.7Y35.5
X49.8Y5.8
X49.8Y4.2
X49.875Y48.325
X50.0Y95.0
X50.0Y94.0
X50.0Y54.0
X50.0Y53.0
X50.0Y32.0
X50.0Y31.0
X50.0Y13.0
X50.0Y1.0
X50.0Y-1.0
X50.1Y59.1
X50.3Y38.5
X50.5Y55.9
X50.5Y34.5
X50.6Y69.2
X50.6Y66.8
X50.6Y65.6
X50.6Y42.5
X50.6Y41.5
X50.8Y5.8
X50.8Y4.2
X50.899Y94.074
X50.9Y29.2
X50.9Y27.6
X50.9Y26.0
X50.9Y24.4
X51.0Y95.0
X51.0Y54.0
X51.0Y53.0
X51.0Y32.0
X51.0Y31.0
X51.0Y12.5
X51.0Y2.0
X51.0Y0.0
X51.2Y46.8
X51.2Y37.2
X51.3Y65.3
X51.3Y60.3
X51.3Y55.9
X51.4Y21.6
X51.5Y34.0
X51.7Y70.9
X51.7Y57.0
X51.8Y42.5
X51.8Y41.5
X51.8Y5.8
X51.8Y4.2
X52.0Y95.0
X52.0Y73.5
X52.0Y72.75
X52.0Y54.0
X52.0Y53.0
X52.0Y32.0
X52.0Y31.0
X52.0Y12.0
X52.0Y8.0
X52.0Y1.0
X52.0Y-1.0
X52.059Y94.094
X52.1Y45.6
X52.3Y57.6
X52.3Y48.325
X52.4Y71.4
X52.4Y70.1
X52.4Y68.9
X52.4Y30.3
X52.4Y28.4
X52.4Y26.8
X52.4Y25.2
X52.5Y34.0
X52.6Y22.7
X52.6Y20.1
X52.8Y4.2
X52.825Y38.2
X52.9Y5.8
X52.989Y15.834
X53.0Y95.0
X53.0Y94.0
X53.0Y54.0
X53.0Y53.0
X53.0Y32.0
X53.0Y21.7
X53.0Y11.5
X53.0Y10.0
X53.0Y9.0
X53.0Y8.0
X53.0Y2.0
X53.0Y0.0
X53.1Y58.3
X53.425Y35.95
X53.5Y34.0
X53.579Y16.414
X53.675Y45.5
X53.675Y38.525
X53.8Y48.275
X53.8Y5.9
X53.8Y4.2
X53.9Y59.1
X54.0Y95.0
X54.0Y94.0
X54.0Y54.0
X54.0Y53.0
X54.0Y19.6
X54.0Y15.5
X54.0Y11.0
X54.0Y10.0
X54.0Y9.0
X54.0Y8.0
X54.0Y1.0
X54.0Y-1.0
X54.15Y42.775
X54.15Y39.325
X54.225Y44.725
X54.275Y41.25
X54.3Y60.3
X54.3Y55.9
X54.325Y40.3
X54.35Y43.625
X54.4Y67.1
X54.4Y16.4
X54.5Y34.0
X54.6Y4.0
X54.7Y48.025
X54.7Y6.1
X54.725Y36.1
X54.975Y46.225
X55.0Y95.0
X55.0Y94.0
X55.0Y54.0
X55.0Y53.0
X55.0Y15.0
X55.0Y11.0
X55.0Y10.0
X55.0Y9.0
X55.0Y8.0
X55.0Y2.0
X55.0Y0.0
X55.325Y38.125
X55.4Y71.3
X55.4Y70.1
X55.4Y68.9
X55.4Y6.6
X55.4Y3.5
X55.5Y34.0
X55.65Y45.525
X55.675Y47.575
X55.7Y57.3
X55.825Y36.425
X55.9Y5.0
X55.925Y39.0
X56.0Y95.0
X56.0Y94.0
X56.0Y67.2
X56.0Y54.0
X56.0Y53.0
X56.0Y27.0
X56.0Y26.0
X56.0Y25.0
X56.0Y23.0
X56.0Y22.0
X56.0Y21.0
X56.0Y20.0
X56.0Y17.0
X56.0Y16.0
X56.0Y14.5
X56.0Y11.0
X56.0Y10.0
X56.0Y9.0
X56.0Y8.0
X56.0Y1.0
X56.0Y-1.0
X56.05Y40.75
X56.075Y43.675
X56.1Y44.725
X56.1Y7.1
X56.2Y2.9
X56.3Y39.85
X56.475Y46.95
X56.5Y34.0
X56.5Y5.4
X56.675Y37.1
X56.7Y4.5
X56.75Y41.6
X56.825Y42.4
X56.85Y43.425
X56.875Y40.725
X56.9Y59.1
X56.9Y7.7
X57.0Y95.0
X57.0Y94.0
X57.0Y54.0
X57.0Y53.0
X57.0Y27.0
X57.0Y26.0
X57.0Y25.0
X57.0Y23.0
X57.0Y22.0
X57.0Y21.0
X57.0Y20.0
X57.0Y17.0
X57.0Y16.0
X57.0Y14.5
X57.0Y11.0
X57.0Y9.0
X57.0Y2.0
X57.0Y0.0
X57.1Y5.8
X57.125Y46.275
X57.325Y37.875
X57.475Y4.0
X57.5Y34.0
X57.5Y6.9
X57.6Y56.1
X57.6Y36.7
X57.65Y45.5
X57.7Y2.4
X57.8Y7.8
X57.85Y38.75
X57.875Y6.15
X58.0Y95.0
X58.0Y94.0
X58.0Y54.0
X58.0Y53.0
X58.0Y14.5
X58.0Y11.0
X58.0Y1.0
X58.0Y-1.0
X58.1Y44.625
X58.225Y39.625
X58.371Y72.171
X58.375Y43.675
X58.4Y68.9
X58.425Y40.55
X58.45Y3.725
X58.471Y70.871
X58.5Y76.4
X58.8Y57.6
X58.9Y80.0
X58.9Y78.1
X58.9Y72.8
X59.0Y95.0
X59.0Y55.0
X59.0Y54.0
X59.0Y53.0
X59.0Y41.5
X59.0Y23.0
X59.0Y22.0
X59.0Y21.0
X59.0Y19.6
X59.0Y17.0
X59.0Y16.0
X59.0Y15.0
X59.0Y2.0
X59.0Y0.0
X59.1Y75.8
X59.1Y69.5
X59.19Y4.31
X59.2Y5.2
X59.625Y3.675
X59.7Y67.2
X59.7Y65.8
X60.0Y95.0
X60.0Y57.0
X60.0Y56.0
X60.0Y55.0
X60.0Y54.0
X60.0Y53.0
X60.0Y47.0
X60.0Y46.0
X60.0Y45.0
X60.0Y32.0
X60.0Y31.0
X60.0Y2.2
X60.0Y1.0
X60.0Y-1.0
X60.05Y20.6
X60.1Y78.1
X60.1Y72.0
X60.1Y36.0
X60.1Y34.6
X60.3Y7.8
X60.3Y6.2
X60.5Y85.0
X60.625Y3.675
X60.65Y20.6
X60.7Y28.4
X60.7Y27.5
X60.7Y26.6
X60.8Y35.3
X61.0Y95.0
X61.0Y94.0
X61.0Y59.0
X61.0Y58.0
X61.0Y57.0
X61.0Y56.0
X61.0Y55.0
X61.0Y54.0
X61.0Y53.0
X61.0Y47.0
X61.0Y46.0
X61.0Y45.0
X61.0Y7.0
X61.0Y2.0
X61.0Y0.0
X61.2Y82.0
X61.2Y72.0
X61.25Y20.6
X61.5Y36.0
X61.5Y34.6
X61.5Y26.6
X61.6Y32.0
X61.6Y31.0
X61.6Y28.4
X61.6Y27.5
X61.7Y7.8
X61.7Y6.2
X62.0Y95.0
X62.0Y94.0
X62.0Y60.0
X62.0Y59.0
X62.0Y58.0
X62.0Y57.0
X62.0Y56.0
X62.0Y55.0
X62.0Y2.2
X62.0Y1.0
X62.0Y-1.0
X62.059Y73.004
X62.2Y24.5
X62.219Y70.504
X62.4Y87.6
X62.5Y28.4
X62.5Y27.5
X62.7Y80.2
X62.7Y79.0
X62.7Y77.8
X62.7Y76.6
X62.7Y75.4
X63.0Y95.0
X63.0Y94.0
X63.0Y61.0
X63.0Y60.0
X63.0Y59.0
X63.0Y58.0
X63.0Y2.0
X63.0Y0.0
X63.1Y55.2
X63.1Y45.3
X63.1Y30.7
X63.1Y5.0
X63.179Y71.494
X63.35Y22.9
X63.5Y33.6
X63.9Y80.2
X63.9Y79.0
X63.9Y77.8
X63.9Y76.6
X63.9Y75.4
X64.0Y95.0
X64.0Y94.0
X64.0Y61.0
X64.0Y60.0
X64.0Y59.0
X64.0Y52.5
X64.0Y41.0
X64.0Y7.8
X64.0Y2.2
X64.0Y1.0
X64.0Y-1.0
X64.1Y30.3
X64.149Y72.134
X64.15Y22.9
X64.2Y29.5
X64.3Y54.0
X64.3Y45.3
X64.3Y33.6
X64.3Y6.1
X64.4Y82.7
X64.429Y56.994
X64.6Y51.5
X64.7Y28.8
X64.7Y25.6
X64.8Y28.0
X64.8Y27.2
X64.8Y26.4
X64.95Y22.9
X65.0Y95.0
X65.0Y94.0
X65.0Y83.5
X65.0Y62.0
X65.0Y61.0
X65.0Y60.0
X65.0Y42.0
X65.0Y41.0
X65.0Y39.0
X65.0Y7.6
X65.0Y2.0
X65.0Y0.0
X65.025Y3.65
X65.1Y80.2
X65.1Y79.0
X65.1Y77.8
X65.1Y76.6
X65.1Y75.4
X65.1Y6.8
X65.139Y70.504
X65.2Y33.6
X65.2Y5.9
X65.4Y4.8
X65.5Y34.5
X65.508Y73.592
X65.563Y47.7
X65.563Y47.0
X65.7Y82.7
X65.7Y44.0
X66.0Y95.0
X66.0Y94.0
X66.0Y62.0
X66.0Y61.0
X66.0Y60.0
X66.0Y42.0
X66.0Y7.3
X66.0Y5.6
X66.0Y2.2
X66.0Y1.0
X66.0Y-1.0
X66.119Y71.154
X66.129Y73.034
X66.15Y3.725
X66.2Y57.0
X66.3Y80.2
X66.3Y79.0
X66.3Y77.8
X66.3Y76.6
X66.3Y75.4
X66.4Y82.1
X66.6Y19.4
X66.789Y72.614
X66.85Y51.45
X66.85Y50.25
X66.85Y49.05
X66.9Y44.0
X66.9Y7.0
X67.0Y95.0
X67.0Y94.0
X67.0Y62.0
X67.0Y61.0
X67.0Y41.0
X67.0Y2.0
X67.0Y0.0
X67.125Y5.1
X67.2Y82.1
X67.225Y4.05
X67.3Y82.9
X67.3Y53.7
X67.35Y73.284
X67.45Y50.85
X67.45Y49.65
X67.5Y80.2
X67.5Y79.0
X67.5Y77.8
X67.5Y76.6
X67.5Y75.4
X67.6Y32.7
X67.7Y70.5
X67.7Y6.5
X67.8Y46.8
X67.8Y2.7
X68.0Y95.0
X68.0Y62.0
X68.0Y61.0
X68.0Y42.0
X68.0Y41.0
X68.0Y1.0
X68.0Y-1.0
X68.05Y51.45
X68.05Y50.25
X68.05Y49.05
X68.2Y4.625
X68.3Y39.2
X68.3Y38.0
X68.339Y54.304
X68.6Y71.8
X68.6Y6.1
X68.65Y50.85
X68.65Y49.65
X68.7Y44.0
X68.7Y3.2
X68.9Y53.7
X69.0Y95.0
X69.0Y62.0
X69.0Y61.0
X69.0Y42.0
X69.0Y41.0
X69.0Y30.0
X69.0Y29.0
X69.0Y28.0
X69.0Y27.0
X69.0Y26.0
X69.0Y25.0
X69.0Y23.0
X69.0Y22.0
X69.0Y21.0
X69.0Y20.0
X69.0Y17.0
X69.0Y16.0
X69.0Y15.0
X69.0Y14.0
X69.0Y13.0
X69.0Y2.0
X69.0Y0.0
X69.25Y51.45
X69.25Y50.25
X69.25Y49.05
X69.5Y5.9
X69.5Y3.7
X69.9Y44.0
X70.0Y95.0
X70.0Y94.0
X70.0Y82.0
X70.0Y76.4
X70.0Y62.0
X70.0Y61.0
X70.0Y42.0
X70.0Y41.0
X70.0Y29.0
X70.0Y28.0
X70.0Y27.0
X70.0Y26.0
X70.0Y25.0
X70.0Y23.0
X70.0Y22.0
X70.0Y21.0
X70.0Y20.0
X70.0Y17.0
X70.0Y16.0
X70.0Y15.0
X70.0Y14.0
X70.0Y13.0
X70.0Y1.0
X70.0Y-1.0
X70.2Y57.1
X70.2Y53.7
X70.3Y4.1
X70.5Y52.7
X70.5Y5.8
X71.0Y95.0
X71.0Y94.0
X71.0Y80.3
X71.0Y62.0
X71.0Y61.0
X71.0Y47.5
X71.0Y42.0
X71.0Y41.0
X71.0Y14.0
X71.0Y13.0
X71.0Y2.0
X71.0Y0.0
X71.1Y44.0
X71.1Y4.2
X71.5Y51.1
X71.5Y48.6
X71.5Y39.1
X71.5Y5.8
X71.8Y80.0
X72.0Y95.0
X72.0Y94.0
X72.0Y62.0
X72.0Y61.0
X72.0Y42.0
X72.0Y41.0
X72.0Y14.0
X72.0Y13.0
X72.0Y1.0
X72.0Y-1.0
X72.1Y74.9
X72.1Y4.2
X72.2Y69.2
X72.2Y56.2
X72.2Y15.2
X72.5Y5.8
X72.8Y52.7
X72.8Y48.3
X73.0Y95.0
X73.0Y94.0
X73.0Y75.6
X73.0Y74.8
X73.0Y69.2
X73.0Y61.0
X73.0Y56.2
X73.0Y42.0
X73.0Y41.0
X73.0Y34.0
X73.0Y15.2
X73.0Y14.0
X73.0Y13.0
X73.0Y12.0
X73.0Y11.0
X73.0Y10.0
X73.0Y9.0
X73.0Y8.0
X73.0Y2.0
X73.0Y0.0
X73.1Y29.8
X73.1Y29.0
X73.1Y28.2
X73.1Y4.2
X73.5Y5.8
X73.8Y75.6
X73.8Y74.8
X73.8Y69.2
X73.8Y15.2
X74.0Y95.0
X74.0Y94.0
X74.0Y62.0
X74.0Y42.0
X74.0Y41.0
X74.0Y34.0
X74.0Y33.0
X74.0Y14.0
X74.0Y13.0
X74.0Y12.0
X74.0Y11.0
X74.0Y10.0
X74.0Y9.0
X74.0Y8.0
X74.0Y1.0
X74.0Y-1.0
X74.1Y4.2
X74.125Y37.375
X74.2Y77.8
X74.2Y77.0
X74.4Y88.9
X74.4Y86.9
X74.4Y51.7
X74.4Y49.3
X74.4Y44.9
X74.5Y5.8
X74.6Y75.6
X74.6Y74.8
X74.6Y69.2
X75.0Y95.0
X75.0Y94.0
X75.0Y62.0
X75.0Y61.0
X75.0Y59.8
X75.0Y53.8
X75.0Y42.0
X75.0Y41.0
X75.0Y34.0
X75.0Y33.0
X75.0Y14.0
X75.0Y13.0
X75.0Y12.0
X75.0Y11.0
X75.0Y10.0
X75.0Y9.0
X75.0Y8.0
X75.0Y2.0
X75.0Y0.0
X75.1Y4.2
X75.2Y88.9
X75.2Y86.9
X75.3Y75.1
X75.4Y69.2
X75.5Y17.3
X75.5Y16.5
X75.5Y5.8
X75.7Y88.3
X75.7Y87.5
X76.0Y95.0
X76.0Y94.0
X76.0Y62.0
X76.0Y61.0
X76.0Y59.8
X76.0Y42.0
X76.0Y41.0
X76.0Y34.0
X76.0Y33.0
X76.0Y14.0
X76.0Y13.0
X76.0Y12.0
X76.0Y11.0
X76.0Y10.0
X76.0Y9.0
X76.0Y8.0
X76.1Y4.2
X76.2Y69.2
X76.5Y5.8
X76.725Y37.5
X77.0Y95.0
X77.0Y94.0
X77.0Y62.0
X77.0Y61.0
X77.0Y43.0
X77.0Y42.0
X77.0Y41.0
X77.0Y34.0
X77.0Y33.0
X77.0Y14.0
X77.0Y13.0
X77.0Y12.0
X77.0Y11.0
X77.0Y10.0
X77.0Y9.0
X77.0Y8.0
X77.1Y4.2
X77.5Y5.8
X77.6Y53.0
X78.0Y95.0
X78.0Y94.0
X78.0Y62.0
X78.0Y61.0
X78.0Y47.0
X78.0Y46.0
X78.0Y45.0
X78.0Y44.0
X78.0Y43.0
X78.0Y42.0
X78.0Y41.0
X78.0Y34.0
X78.0Y33.0
X78.0Y14.0
X78.0Y13.0
X78.0Y12.0
X78.0Y11.0
X78.0Y10.0
X78.0Y9.0
X78.0Y8.0
X78.1Y4.2
X78.4Y53.0
X78.5Y5.8
X78.8Y20.2
X79.0Y95.0
X79.0Y94.0
X79.0Y62.0
X79.0Y61.0
X79.0Y48.0
X79.0Y47.0
X79.0Y46.0
X79.0Y45.0
X79.0Y44.0
X79.0Y43.0
X79.0Y42.0
X79.0Y34.0
X79.0Y33.0
X79.0Y14.0
X79.0Y13.0
X79.0Y12.0
X79.0Y11.0
X79.0Y10.0
X79.0Y9.0
X79.0Y8.0
X79.1Y55.7
X79.1Y54.9
X79.1Y54.1
X79.1Y4.2
X79.5Y5.8
X80.0Y95.0
X80.0Y94.0
X80.0Y62.0
X80.0Y61.0
X80.0Y59.8
X80.0Y48.0
X80.0Y46.0
X80.0Y14.0
X80.0Y13.0
X80.0Y12.0
X80.0Y11.0
X80.0Y10.0
X80.0Y9.0
X80.0Y8.0
X80.1Y4.2
X80.2Y27.6
X80.375Y5.975
X80.45Y44.9
X80.8Y27.6
X81.0Y95.0
X81.0Y94.0
X81.0Y62.0
X81.0Y61.0
X81.0Y59.8
X81.0Y49.0
X81.0Y47.0
X81.0Y15.0
X81.0Y14.0
X81.0Y13.0
X81.0Y12.0
X81.0Y11.0
X81.0Y10.0
X81.0Y9.0
X81.0Y8.0
X81.0Y2.0
X81.0Y0.0
X81.1Y4.2
X81.2Y44.8
X81.2Y40.5
X81.2Y6.375
X81.4Y27.6
X81.439Y41.934
X81.5Y29.0
X81.6Y15.9
X81.825Y41.0
X81.9Y78.0
X81.9Y76.8
X81.9Y19.7
X81.9Y6.9
X82.0Y95.0
X82.0Y94.0
X82.0Y88.6
X82.0Y87.3
X82.0Y86.1
X82.0Y85.0
X82.0Y83.6
X82.0Y82.5
X82.0Y81.1
X82.0Y62.0
X82.0Y61.0
X82.0Y48.0
X82.0Y34.0
X82.0Y33.0
X82.0Y15.0
X82.0Y14.0
X82.0Y13.0
X82.0Y12.0
X82.0Y11.0
X82.0Y10.0
X82.0Y9.0
X82.0Y8.0
X82.0Y1.0
X82.0Y-1.0
X82.1Y4.2
X82.149Y22.044
X82.2Y38.3
X82.2Y37.4
X82.2Y29.0
X82.5Y7.5
X82.7Y19.7
X82.8Y16.1
X83.0Y95.0
X83.0Y94.0
X83.0Y62.0
X83.0Y61.0
X83.0Y49.0
X83.0Y34.0
X83.0Y33.0
X83.0Y15.0
X83.0Y14.0
X83.0Y13.0
X83.0Y5.8
X83.0Y2.0
X83.0Y0.0
X83.1Y8.1
X83.1Y4.2
X83.3Y37.4
X83.4Y21.1
X83.6Y19.4
X83.7Y5.8
X83.8Y30.2
X83.9Y80.6
X83.9Y79.8
X83.9Y79.0
X83.9Y78.2
X83.9Y77.4
X83.9Y20.3
X83.9Y6.6
X84.0Y95.0
X84.0Y94.0
X84.0Y66.4
X84.0Y62.0
X84.0Y61.0
X84.0Y48.0
X84.0Y34.0
X84.0Y33.0
X84.0Y15.0
X84.0Y14.0
X84.0Y11.2
X84.0Y5.0
X84.0Y1.0
X84.0Y-1.0
X84.1Y21.5
X84.1Y4.2
X84.3Y38.3
X84.4Y19.4
X84.5Y24.9
X84.5Y23.5
X84.5Y22.65
X84.5Y5.8
X84.6Y26.264
X84.7Y75.6
X84.7Y74.0
X84.7Y72.4
X84.7Y70.8
X84.7Y69.2
X84.8Y80.6
X84.8Y79.8
X84.8Y79.0
X84.8Y78.2
X84.8Y77.4
X84.8Y21.9
X85.0Y95.0
X85.0Y94.0
X85.0Y62.0
X85.0Y61.0
X85.0Y49.0
X85.0Y48.0
X85.0Y34.0
X85.0Y33.0
X85.0Y2.0
X85.0Y0.0
X85.1Y27.0
X85.1Y4.3
X85.199Y41.994
X85.4Y12.3
X85.4Y6.9
X85.4Y6.1
X85.6Y76.35
X85.7Y81.65
X85.7Y80.6
X85.7Y79.8
X85.7Y79.0
X85.7Y78.2
X85.7Y77.4
X86.0Y95.0
X86.0Y94.0
X86.0Y62.0
X86.0Y61.0
X86.0Y49.0
X86.0Y48.0
X86.0Y34.0
X86.0Y33.0
X86.0Y17.3
X86.0Y15.0
X86.0Y14.0
X86.0Y4.5
X86.0Y1.0
X86.0Y-1.0
X86.2Y6.6
X86.3Y76.35
X86.339Y81.434
X86.6Y38.3
X86.6Y37.4
X86.7Y4.9
X86.8Y25.6
X86.8Y24.4
X86.8Y23.2
X86.9Y81.65
X87.0Y95.0
X87.0Y94.0
X87.0Y76.35
X87.0Y62.0
X87.0Y61.0
X87.0Y49.0
X87.0Y48.0
X87.0Y34.0
X87.0Y33.0
X87.0Y15.0
X87.0Y14.0
X87.0Y2.0
X87.0Y0.0
X87.4Y25.0
X87.4Y23.8
X87.4Y5.3
X87.5Y86.4
X87.5Y85.5
X87.6Y72.6
X88.0Y95.0
X88.0Y94.0
X88.0Y79.5
X88.0Y78.75
X88.0Y62.0
X88.0Y61.0
X88.0Y49.0
X88.0Y48.0
X88.0Y34.0
X88.0Y33.0
X88.0Y25.6
X88.0Y24.4
X88.0Y23.2
X88.0Y15.0
X88.0Y14.0
X88.0Y13.0
X88.0Y1.0
X88.0Y-1.0
X88.1Y8.0
X88.2Y38.3
X88.2Y37.4
X88.2Y29.65
X88.2Y27.9
X88.4Y86.4
X88.5Y13.5
X88.6Y25.0
X88.6Y23.8
X88.75Y20.9
X89.0Y95.0
X89.0Y94.0
X89.0Y61.0
X89.0Y49.0
X89.0Y48.0
X89.0Y34.0
X89.0Y33.0
X89.0Y15.0
X89.0Y14.0
X89.0Y8.9
X89.0Y8.0
X89.0Y7.1
X89.0Y2.0
X89.0Y0.0
X89.019Y42.084
X89.2Y25.6
X89.2Y24.4
X89.2Y23.2
X89.3Y86.4
X89.5Y14.5
X89.6Y12.3
X89.849Y17.544
X89.9Y8.0
X89.979Y43.244
X90.0Y62.0
X90.0Y49.0
X90.0Y48.0
X90.0Y46.544
X90.0Y45.644
X90.0Y34.0
X90.0Y33.0
X90.0Y15.0
X90.0Y1.0
X90.0Y-1.0
X90.019Y44.824
X90.1Y12.9
X90.2Y86.4
X90.2Y38.2
X90.2Y37.4
X90.487Y27.6
X90.487Y26.9
X90.5Y21.3
X90.5Y5.35
X90.6Y15.6
X90.6Y13.4
X91.0Y62.0
X91.0Y61.0
X91.0Y51.9
X91.0Y48.0
X91.0Y34.0
X91.0Y33.0
X91.0Y12.0
X91.0Y2.0
X91.0Y0.0
X91.1Y13.9
X91.1Y4.85
X91.3Y29.65
X91.5Y79.0
X91.6Y14.4
X91.775Y25.75
X91.849Y17.414
X91.9Y24.375
X92.0Y62.0
X92.0Y61.0
X92.0Y51.9
X92.0Y51.0
X92.0Y49.0
X92.0Y34.0
X92.0Y33.0
X92.0Y20.5
X92.0Y13.0
X92.0Y12.0
X92.0Y11.0
X92.0Y6.55
X92.0Y4.65
X92.0Y1.0
X92.0Y-1.0
X92.1Y22.95
X92.1Y14.9
X92.25Y25.1
X92.421Y23.648
X92.45Y19.0
X92.7Y68.0
X92.7Y66.4
X92.7Y15.5
X93.0Y62.0
X93.0Y61.0
X93.0Y51.9
X93.0Y51.0
X93.0Y48.525
X93.0Y41.0
X93.0Y36.8
X93.0Y34.0
X93.0Y33.0
X93.0Y14.0
X93.0Y13.0
X93.0Y12.0
X93.0Y11.0
X93.0Y6.65
X93.0Y4.55
X93.0Y2.0
X93.0Y0.0
X93.025Y47.575
X93.029Y44.764
X93.1Y45.8
X93.1Y43.3
X93.4Y16.2
X93.5Y68.0
X93.5Y66.4
X93.86Y21.9
X94.0Y89.0
X94.0Y63.0
X94.0Y62.0
X94.0Y61.0
X94.0Y51.0
X94.0Y34.0
X94.0Y31.4
X94.0Y21.0
X94.0Y20.0
X94.0Y19.0
X94.0Y18.0
X94.0Y17.0
X94.0Y15.0
X94.0Y10.0
X94.0Y7.9
X94.0Y6.65
X94.0Y4.55
X94.0Y1.0
X94.0Y-1.0
X94.05Y36.7
X94.1Y55.5
X94.1Y54.5
X94.1Y49.0
X94.2Y38.9
X94.225Y45.875
X94.25Y47.9
X94.525Y37.825
X94.55Y30.75
X94.7Y22.05
X94.8Y74.2
X94.8Y72.8
X94.8Y71.5
X94.8Y70.2
X94.8Y51.0
X94.8Y37.025
X95.0Y88.9
X95.0Y55.0
X95.0Y49.0
X95.0Y48.0
X95.0Y46.1
X95.0Y43.0
X95.0Y42.0
X95.0Y41.0
X95.0Y33.0
X95.0Y15.0
X95.0Y10.0
X95.0Y6.55
X95.0Y4.75
X95.0Y2.0
X95.0Y0.0
X95.025Y32.0
X95.125Y27.375
X95.225Y22.45
X95.3Y29.35
X95.7Y7.05
X95.9Y60.3
X95.9Y55.5
X95.9Y54.5
X96.0Y89.0
X96.0Y49.0
X96.0Y48.0
X96.0Y43.0
X96.0Y42.0
X96.0Y41.0
X96.0Y34.0
X96.0Y33.0
X96.0Y32.0
X96.0Y16.0
X96.0Y15.0
X96.0Y10.0
X96.0Y4.75
X96.0Y1.0
X96.0Y-1.0
X96.1Y81.3
X96.1Y80.5
X96.1Y79.7
X96.2Y38.9
X96.3Y36.325
X96.5Y7.05
X96.8Y82.4
X97.0Y60.0
X97.0Y49.0
X97.0Y48.0
X97.0Y43.0
X97.0Y42.0
X97.0Y41.0
X97.0Y34.0
X97.0Y33.0
X97.0Y32.0
X97.0Y31.0
X97.0Y30.0
X97.0Y29.0
X97.0Y28.0
X97.0Y25.0
X97.0Y24.0
X97.0Y23.0
X97.0Y22.0
X97.0Y21.0
X97.0Y20.0
X97.0Y19.0
X97.0Y18.0
X97.0Y17.0
X97.0Y16.0
X97.0Y15.0
X97.0Y10.0
X97.0Y4.75
X97.0Y2.0
X97.0Y0.0
X97.3Y7.05
X97.5Y82.4
X97.5Y79.3
X97.5Y36.325
X97.6Y77.5
X97.6Y76.5
X98.0Y70.2
X98.0Y60.0
X98.0Y58.9
X98.0Y58.0
X98.0Y57.0
X98.0Y56.0
X98.0Y55.0
X98.0Y54.0
X98.0Y53.0
X98.0Y52.0
X98.0Y49.0
X98.0Y48.0
X98.0Y47.0
X98.0Y34.0
X98.0Y33.0
X98.0Y32.0
X98.0Y31.0
X98.0Y30.0
X98.0Y29.0
X98.0Y28.0
X98.0Y25.0
X98.0Y24.0
X98.0Y23.0
X98.0Y22.0
X98.0Y21.0
X98.0Y20.0
X98.0Y19.0
X98.0Y18.0
X98.0Y17.0
X98.0Y16.0
X98.0Y15.0
X98.0Y14.0
X98.0Y13.0
X98.0Y12.0
X98.0Y11.0
X98.0Y6.4
X98.0Y4.75
X98.0Y1.0
X98.0Y-1.0
X98.2Y82.4
X98.5Y77.0
X98.7Y39.9
X98.848Y44.752
X98.899Y79.3
X98.9Y43.2
X98.9Y42.3
X98.9Y6.6
X99.0Y60.0
X99.0Y59.0
X99.0Y58.0
X99.0Y57.0
X99.0Y56.0
X99.0Y55.0
X99.0Y54.0
X99.0Y53.0
X99.0Y52.0
X99.0Y49.0
X99.0Y48.0
X99.0Y47.0
X99.0Y45.5
X99.0Y34.0
X99.0Y33.0
X99.0Y32.0
X99.0Y4.95
X99.0Y2.0
X99.0Y0.0
X99.4Y77.5
X99.4Y76.5
X99.7Y7.0
X99.8Y23.2
X100.0Y65.0
X100.0Y48.0
X100.0Y47.0
X100.0Y46.0
X100.0Y34.0
X100.0Y33.0
X100.0Y16.3
X100.0Y14.2
X100.0Y5.35
X100.0Y1.0
X100.0Y-1.0
X100.3Y7.6
X100.4Y44.3
X100.5Y38.85
X100.65Y31.1
X100.8Y49.7
X100.9Y8.3
X100.9Y5.95
X100.95Y65.0
X100.975Y64.0
X101.0Y95.0
X101.0Y94.0
X101.0Y47.0
X101.0Y34.0
X101.0Y33.0
X101.0Y14.2
X101.0Y2.0
X101.0Y0.0
X101.1Y54.3
X101.1Y53.3
X101.5Y9.0
X101.6Y49.7
X101.6Y6.65
X101.7Y21.4
X102.0Y95.0
X102.0Y94.0
X102.0Y53.8
X102.0Y34.0
X102.0Y33.0
X102.0Y26.5
X102.0Y20.0
X102.0Y14.2
X102.0Y9.7
X102.0Y1.0
X102.0Y-1.0
X102.025Y64.975
X102.025Y63.975
X102.2Y35.9
X102.2Y27.5
X102.3Y13.2
X102.3Y7.45
X102.4Y49.7
X102.5Y21.0
X102.5Y10.5
X102.7Y61.3
X102.75Y42.575
X102.75Y39.45
X102.775Y23.925
X102.8Y12.3
X102.9Y54.3
X102.9Y53.3
X102.9Y38.75
X102.9Y8.25
X103.0Y95.0
X103.0Y94.0
X103.0Y35.0
X103.0Y34.0
X103.0Y33.0
X103.0Y31.4
X103.0Y11.3
X103.0Y0.0
X103.065Y27.9
X103.069Y45.964
X103.175Y65.0
X103.175Y63.975
X103.3Y38.0
X103.329Y51.624
X103.5Y9.05
X103.6Y61.3
X103.65Y37.125
X103.899Y46.804
X103.9Y57.2
X103.9Y56.4
X104.0Y95.0
X104.0Y94.0
X104.0Y65.0
X104.0Y64.0
X104.0Y46.0
X104.0Y45.0
X104.0Y36.0
X104.0Y35.0
X104.0Y34.0
X104.0Y33.0
X104.0Y1.0
X104.0Y-1.0
X104.1Y26.9
X104.1Y26.0
X104.1Y25.1
X104.1Y9.95
X104.149Y51.624
X104.249Y70.794
X104.7Y57.6
X104.7Y10.85
X104.8Y56.1
X105.0Y95.0
X105.0Y94.0
X105.0Y65.0
X105.0Y64.0
X105.0Y47.0
X105.0Y46.0
X105.0Y45.0
X105.0Y44.0
X105.0Y43.0
X105.0Y42.0
X105.0Y41.0
X105.0Y38.6
X105.0Y37.0
X105.0Y36.0
X105.0Y35.0
X105.0Y34.0
X105.0Y33.0
X105.0Y26.9
X105.0Y26.0
X105.0Y25.1
X105.1Y11.65
X105.375Y57.525
X105.5Y32.275
X105.6Y78.5
X105.6Y31.4
X105.689Y69.434
X105.9Y26.9
X105.9Y26.0
X105.9Y25.1
X105.9Y12.15
X106.0Y65.0
X106.0Y64.0
X106.0Y47.0
X106.0Y46.0
X106.0Y45.0
X106.0Y44.0
X106.0Y43.0
X106.0Y42.0
X106.0Y39.6
X106.0Y39.0
X106.0Y38.0
X106.0Y33.0
X106.2Y53.8
X106.3Y49.0
X106.4Y78.5
X106.4Y13.05
X106.425Y31.5
X106.7Y14.25
X106.975Y23.825
X107.0Y65.0
X107.0Y64.0
X107.0Y50.0
X107.0Y39.0
X107.0Y38.0
X107.0Y33.0
X107.0Y27.9
X107.05Y31.075
X107.1Y15.9
X107.2Y78.5
X107.4Y55.4
X107.4Y20.0
X107.4Y19.0
X107.4Y18.0
X107.5Y13.95
X107.7Y61.3
X107.85Y54.625
X107.9Y82.6
X107.9Y81.8
X107.9Y81.0
X107.9Y80.2
X107.9Y79.4
X107.975Y43.025
X108.0Y78.5
X108.0Y65.0
X108.0Y64.0
X108.0Y39.0
X108.0Y38.0
X108.0Y33.0
X108.0Y17.0
X108.0Y15.5
X108.1Y42.2
X108.125Y41.35
X108.2Y28.3
X108.2Y20.2
X108.2Y13.35
X108.225Y31.05
X108.349Y71.644
X108.5Y61.3
X108.5Y45.2
X108.5Y44.4
X108.5Y11.0
X108.5Y10.0
X108.5Y9.0
X108.7Y15.1
X108.8Y78.5
X108.8Y12.55
X108.849Y69.304
X108.85Y40.725
X109.0Y65.0
X109.0Y64.0
X109.0Y38.0
X109.0Y33.0
X109.0Y16.8
X109.0Y7.5
X109.0Y6.6
X109.0Y5.7
X109.1Y11.65
X109.1Y8.3
X109.2Y5.0
X109.2Y4.0
X109.2Y3.0
X109.2Y2.0
X109.2Y1.0
X109.4Y23.7
X109.4Y20.2
X109.5Y14.4
X109.6Y56.4
X109.7Y57.6
X110.0Y89.0
X110.0Y65.0
X110.0Y64.0
X110.0Y38.0
X110.0Y37.0
X110.0Y36.0
X110.0Y35.0
X110.0Y34.0
X110.0Y33.0
X110.0Y28.0
X110.0Y13.7
X110.2Y50.3
X110.4Y12.9
X110.5Y57.6
X110.5Y30.4
X110.6Y43.8
X110.6Y20.2
X110.7Y12.0
X110.8Y11.0
X110.8Y10.0
X110.8Y9.0
X110.8Y5.0
X110.8Y4.0
X110.8Y3.0
X110.8Y2.0
X110.8Y1.0
X110.9Y67.9
X110.9Y60.4
X110.9Y8.0
X111.0Y88.8
X111.0Y65.0
X111.0Y64.0
X111.0Y28.0
X111.0Y7.0
X111.0Y6.0
X111.2Y37.8
X111.4Y81.2
X111.4Y80.1
X111.4Y79.0
X111.489Y70.924
X111.6Y67.6
X111.6Y22.3
X112.0Y89.0
X112.0Y65.0
X112.0Y64.0
X112.0Y48.7
X112.0Y47.7
X112.0Y37.0
X112.0Y36.0
X112.0Y35.0
X112.0Y34.0
X112.0Y33.0
X112.0Y32.0
X112.0Y31.0
X112.0Y30.0
X112.0Y29.0
X112.0Y28.0
X112.049Y66.934
X112.4Y52.5
X112.5Y80.1
X112.5Y79.0
X112.5Y23.6
X112.6Y60.0
X112.7Y42.0
X112.7Y41.0
X113.0Y65.0
X113.0Y64.0
X113.0Y58.7
X113.1Y39.1
X113.5Y79.0
X113.6Y52.5
X113.6Y49.2
X113.6Y41.5
X113.6Y23.8
X114.0Y65.0
X114.0Y64.0
X114.2Y62.3
X114.2Y59.4
X114.4Y56.9
X114.5Y42.0
X114.5Y41.0
X114.7Y24.3
X114.9Y22.2
X115.0Y65.0
X115.0Y64.0
X115.6Y25.0
X115.7Y41.2
X116.0Y37.0
X116.0Y36.0
X116.0Y35.0
X116.0Y34.0
X116.0Y33.0
X116.0Y32.0
X116.0Y31.0
X116.0Y30.0
X116.0Y29.0
X116.0Y28.0
X116.0Y27.0
X116.0Y26.0
X116.0Y2.0
X116.0Y1.0
X116.0Y0.0
X116.2Y64.5
X116.3Y52.6
X116.5Y41.2
X117.0Y95.0
X117.0Y43.4
X117.0Y38.7
X117.0Y37.8
X117.0Y23.0
X117.0Y20.0
X117.0Y3.0
X117.0Y2.0
X117.0Y-1.0
X117.3Y50.4
X118.0Y24.0
X118.0Y19.0
X118.0Y3.0
X118.1Y45.8
X118.5Y55.6
X118.5Y54.5
X119.0Y25.0
X119.0Y18.0
X119.0Y4.0
X120.0Y90.0
X120.0Y89.0
X120.0Y88.0
X120.0Y87.0
X120.0Y86.0
X120.0Y85.0
X120.0Y84.0
X120.0Y83.0
X120.0Y82.0
X120.0Y81.0
X120.0Y80.0
X120.0Y79.0
X120.0Y78.0
X120.0Y77.0
X120.0Y76.0
X120.0Y75.0
X120.0Y74.0
X120.0Y73.0
X120.0Y72.0
X120.0Y71.0
X120.0Y70.0
X120.0Y69.0
X120.0Y68.0
X120.0Y67.0
X120.0Y60.0
X120.0Y59.0
X120.0Y58.0
X120.0Y57.0
X120.0Y56.0
X120.0Y55.0
X120.0Y54.0
X120.0Y53.0
X120.0Y52.0
X120.0Y51.0
X120.0Y50.0
X120.0Y49.0
X120.0Y48.0
X120.0Y47.0
X120.0Y46.0
X120.0Y45.0
X120.0Y44.0
X120.0Y43.0
X120.0Y42.0
X120.0Y41.0
X120.0Y40.0
X120.0Y39.0
X120.0Y38.0
X120.0Y37.0
X120.0Y36.0
X120.0Y35.0
X120.0Y34.0
X120.0Y33.0
X120.0Y32.0
X120.0Y31.0
X120.0Y30.0
X120.0Y29.0
X120.0Y28.0
X120.0Y27.0
X120.0Y26.0
X120.0Y25.0
X120.0Y18.0
X120.0Y17.0
X120.0Y16.0
X120.0Y15.0
X120.0Y14.0
X120.0Y13.0
X120.0Y12.0
X120.0Y11.0
X120.0Y10.0
X120.0Y9.0
X120.0Y8.0
X120.0Y7.0
X120.0Y6.0
X120.0Y5.0
X120.0Y4.0
X121.0Y91.0
X121.0Y90.0
X121.0Y89.0
X121.0Y88.0
X121.0Y87.0
X121.0Y86.0
X121.0Y85.0
X121.0Y84.0
X121.0Y83.0
X121.0Y82.0
X121.0Y81.0
X121.0Y80.0
X121.0Y79.0
X121.0Y78.0
X121.0Y77.0
X121.0Y76.0
X121.0Y75.0
X121.0Y74.0
X121.0Y73.0
X121.0Y72.0
X121.0Y71.0
X121.0Y70.0
X121.0Y69.0
X121.0Y68.0
X121.0Y67.0
X121.0Y66.0
X121.0Y61.0
X121.0Y60.0
X121.0Y59.0
X121.0Y58.0
X121.0Y57.0
X121.0Y56.0
X121.0Y55.0
X121.0Y54.0
X121.0Y53.0
X121.0Y52.0
X121.0Y51.0
X121.0Y50.0
X121.0Y49.0
X121.0Y48.0
X121.0Y47.0
X121.0Y46.0
X121.0Y45.0
X121.0Y44.0
X121.0Y43.0
X121.0Y42.0
X121.0Y41.0
X121.0Y40.0
X121.0Y39.0
X121.0Y38.0
X121.0Y37.0
X121.0Y36.0
X121.0Y35.0
X121.0Y34.0
X121.0Y33.0
X121.0Y32.0
X121.0Y31.0
X121.0Y30.0
X121.0Y29.0
X121.0Y28.0
X121.0Y27.0
X121.0Y26.0
X121.0Y25.0
X121.0Y18.0
X121.0Y17.0
X121.0Y16.0
X121.0Y15.0
X121.0Y14.0
X121.0Y13.0
X121.0Y12.0
X121.0Y11.0
X121.0Y10.0
X121.0Y9.0
X121.0Y8.0
X121.0Y7.0
X121.0Y6.0
X121.0Y5.0
X121.0Y4.0
T2
X81.731Y58.074
X82.546Y58.074
X83.361Y58.074
T4
X47.75Y88.0
X51.45Y88.0
X55.25Y88.0
T5
X5.434Y87.839
X5.434Y85.299
X5.434Y82.759
X5.434Y80.219
X5.434Y77.679
X5.434Y75.139
X5.434Y72.599
X5.434Y70.059
X5.434Y67.519
X5.434Y64.979
X7.974Y87.839
X7.974Y85.299
X7.974Y82.759
X7.974Y80.219
X7.974Y77.679
X7.974Y75.139
X7.974Y72.599
X7.974Y70.059
X7.974Y67.519
X7.974Y64.979
X21.299Y89.804
X23.839Y89.804
X26.379Y89.804
X28.919Y89.804
X31.459Y89.804
X33.999Y89.804
X36.539Y89.804
X39.079Y89.804
X41.619Y89.804
X44.159Y89.804
T6
X2.5Y93.5
X2.5Y57.5
X2.5Y28.5
X2.5Y0.5
X24.0Y28.5
X26.5Y48.0
X32.5Y13.5
X44.0Y0.5
X50.0Y10.0
X55.5Y30.5
X61.5Y42.5
X70.5Y32.5
X70.5Y10.0
X78.0Y0.5
X95.5Y12.5
X97.5Y62.5
X107.5Y35.5
X119.5Y93.5
X119.5Y63.5
X119.5Y21.5
X119.5Y0.5
T3
G00X59.679Y92.979
M15
G01X59.679Y93.779
M16
G05
G00X59.679Y88.649
M15
G01X59.679Y89.749
M16
G05
G00X68.319Y92.979
M15
G01X68.319Y93.779
M16
G05
G00X68.319Y88.649
M15
G01X68.319Y89.749
M16
G05
M30
