  0
SECTION
  2
HEADER
  9
$ACADVER
  1
AC1009
  9
$FILLMODE
 70
1
  9
$EXTMIN
 10
-4.2950
 20
-9.5266
 30
0.0000
  9
$EXTMAX
 10
127.7950
 20
105.4266
 30
0.0000
  0
ENDSEC
  0
SECTION
  2
TABLES
  0
TABLE
  2
LTYPE
 70
1
  0
LTYPE
  2
CONTINUOUS
 70
64
  3
Solid line
 72
65
 73
0
 40
0
  0
ENDTAB
  0
TABLE
  2
LAYER
 70
255
  0
LAYER
  2
30
 70
64
 62
253
  6
CONTINUOUS
  0
ENDTAB
  0
ENDSEC
  0
SECTION
  2
BLOCKS
  0
BLOCK
  8
0
  2
RECT
 70
64
 10
0.0000
 20
0.0000
 30
0.0000
  3
RECT
  0
SOLID
  8
0
 10
-0.5000
 20
-0.5000
 30
0.0000
 11
0.5000
 21
-0.5000
 31
0.0000
 12
-0.5000
 22
0.5000
 32
0.0000
 13
0.5000
 23
0.5000
 33
0.0000
  0
ENDBLK
  8
0
  0
BLOCK
  8
0
  2
PIE
 70
64
 10
0.0000
 20
0.0000
 30
0.0000
  3
PIE
  0
POLYLINE
  8
0
 66
1
 10
0.0000
 20
0.0000
 30
0.0000
 40
0.5000
 41
0.5000
 70
0
  0
VERTEX
  8
0
 10
0.0000
 20
-0.2500
 30
0.0000
 42
1.0000
  0
VERTEX
  8
0
 10
0.0000
 20
0.2500
 30
0.0000
 42
1.0000
  0
VERTEX
  8
0
 10
0.0000
 20
-0.2500
 30
0.0000
  0
SEQEND
  8
0
  0
ENDBLK
  8
0
  0
BLOCK
  8
0
  2
OCTAGONP
 70
64
 10
0.0000
 20
0.0000
 30
0.0000
  3
OCTAGONP
  0
POLYLINE
  8
0
 66
1
 10
0.0000
 20
0.0000
 30
0.0000
 40
0.5000
 41
0.5000
 70
0
  0
VERTEX
  8
0
 10
-0.2500
 20
-0.1036
 30
0.0000
  0
VERTEX
  8
0
 10
-0.2500
 20
0.1036
 30
0.0000
  0
VERTEX
  8
0
 10
-0.1036
 20
0.2500
 30
0.0000
  0
VERTEX
  8
0
 10
0.1036
 20
0.2500
 30
0.0000
  0
VERTEX
  8
0
 10
0.2500
 20
0.1036
 30
0.0000
  0
VERTEX
  8
0
 10
0.2500
 20
-0.1036
 30
0.0000
  0
VERTEX
  8
0
 10
0.1036
 20
-0.2500
 30
0.0000
  0
VERTEX
  8
0
 10
-0.1036
 20
-0.2500
 30
0.0000
  0
VERTEX
  8
0
 10
-0.2500
 20
-0.1036
 30
0.0000
  0
VERTEX
  8
0
 10
-0.2500
 20
0.1036
 30
0.0000
  0
SEQEND
  8
0
  0
ENDBLK
  8
0
  0
BLOCK
  8
0
  2
SQUAREP
 70
64
 10
0.0000
 20
0.0000
 30
0.0000
  3
SQUAREP
  0
SOLID
  8
0
 10
-0.5000
 20
-0.5000
 30
0.0000
 11
0.5000
 21
-0.5000
 31
0.0000
 12
-0.5000
 22
0.5000
 32
0.0000
 13
0.5000
 23
0.5000
 33
0.0000
  0
ENDBLK
  8
0
  0
BLOCK
  8
0
  2
ROUNDP
 70
64
 10
0.0000
 20
0.0000
 30
0.0000
  3
ROUNDP
  0
POLYLINE
  8
0
 66
1
 10
0.0000
 20
0.0000
 30
0.0000
 40
0.5000
 41
0.5000
 70
0
  0
VERTEX
  8
0
 10
0.0000
 20
-0.2500
 30
0.0000
 42
1.0000
  0
VERTEX
  8
0
 10
0.0000
 20
0.2500
 30
0.0000
 42
1.0000
  0
VERTEX
  8
0
 10
0.0000
 20
-0.2500
 30
0.0000
  0
SEQEND
  8
0
  0
ENDBLK
  8
0
  0
BLOCK
  8
0
  2
ANNULUSP
 70
64
 10
0.0000
 20
0.0000
 30
0.0000
  3
ANNULUSP
  0
POLYLINE
  8
0
 66
1
 10
0.0000
 20
0.0000
 30
0.0000
 40
0.5000
 41
0.5000
 70
0
  0
VERTEX
  8
0
 10
0.0000
 20
-0.2500
 30
0.0000
 42
1.0000
  0
VERTEX
  8
0
 10
0.0000
 20
0.2500
 30
0.0000
 42
1.0000
  0
VERTEX
  8
0
 10
0.0000
 20
-0.2500
 30
0.0000
  0
SEQEND
  8
0
  0
ENDBLK
  8
0
  0
BLOCK
  8
0
  2
THERMALP
 70
64
 10
0.0000
 20
0.0000
 30
0.0000
  3
THERMALP
  0
POLYLINE
  8
0
 66
1
 10
0.0000
 20
0.0000
 30
0.0000
 40
0.1000
 41
0.1000
 70
0
  0
VERTEX
  8
0
 10
-0.2379
 20
0.4500
 30
0.0000
  0
VERTEX
  8
0
 10
0.2379
 20
0.4500
 30
0.0000
  0
SEQEND
  8
0
  0
POLYLINE
  8
0
 66
1
 10
0.0000
 20
0.0000
 30
0.0000
 40
0.0500
 41
0.0500
 70
0
  0
VERTEX
  8
0
 10
0.2379
 20
0.4250
 30
0.0000
 42
1.0000
  0
VERTEX
  8
0
 10
0.2379
 20
0.4750
 30
0.0000
  0
SEQEND
  8
0
  0
POLYLINE
  8
0
 66
1
 10
0.0000
 20
0.0000
 30
0.0000
 40
0.0500
 41
0.0500
 70
0
  0
VERTEX
  8
0
 10
-0.2379
 20
0.4750
 30
0.0000
 42
1.0000
  0
VERTEX
  8
0
 10
-0.2379
 20
0.4250
 30
0.0000
  0
SEQEND
  8
0
  0
POLYLINE
  8
0
 66
1
 10
0.0000
 20
0.0000
 30
0.0000
 40
0.1000
 41
0.1000
 70
0
  0
VERTEX
  8
0
 10
0.4500
 20
0.2379
 30
0.0000
  0
VERTEX
  8
0
 10
0.4500
 20
-0.2379
 30
0.0000
  0
SEQEND
  8
0
  0
POLYLINE
  8
0
 66
1
 10
0.0000
 20
0.0000
 30
0.0000
 40
0.0500
 41
0.0500
 70
0
  0
VERTEX
  8
0
 10
0.4250
 20
-0.2379
 30
0.0000
 42
1.0000
  0
VERTEX
  8
0
 10
0.4750
 20
-0.2379
 30
0.0000
  0
SEQEND
  8
0
  0
POLYLINE
  8
0
 66
1
 10
0.0000
 20
0.0000
 30
0.0000
 40
0.0500
 41
0.0500
 70
0
  0
VERTEX
  8
0
 10
0.4750
 20
0.2379
 30
0.0000
 42
1.0000
  0
VERTEX
  8
0
 10
0.4250
 20
0.2379
 30
0.0000
  0
SEQEND
  8
0
  0
POLYLINE
  8
0
 66
1
 10
0.0000
 20
0.0000
 30
0.0000
 40
0.1000
 41
0.1000
 70
0
  0
VERTEX
  8
0
 10
0.2379
 20
-0.4500
 30
0.0000
  0
VERTEX
  8
0
 10
-0.2379
 20
-0.4500
 30
0.0000
  0
SEQEND
  8
0
  0
POLYLINE
  8
0
 66
1
 10
0.0000
 20
0.0000
 30
0.0000
 40
0.0500
 41
0.0500
 70
0
  0
VERTEX
  8
0
 10
-0.2379
 20
-0.4250
 30
0.0000
 42
1.0000
  0
VERTEX
  8
0
 10
-0.2379
 20
-0.4750
 30
0.0000
  0
SEQEND
  8
0
  0
POLYLINE
  8
0
 66
1
 10
0.0000
 20
0.0000
 30
0.0000
 40
0.0500
 41
0.0500
 70
0
  0
VERTEX
  8
0
 10
0.2379
 20
-0.4750
 30
0.0000
 42
1.0000
  0
VERTEX
  8
0
 10
0.2379
 20
-0.4250
 30
0.0000
  0
SEQEND
  8
0
  0
POLYLINE
  8
0
 66
1
 10
0.0000
 20
0.0000
 30
0.0000
 40
0.1000
 41
0.1000
 70
0
  0
VERTEX
  8
0
 10
-0.4500
 20
-0.2379
 30
0.0000
  0
VERTEX
  8
0
 10
-0.4500
 20
0.2379
 30
0.0000
  0
SEQEND
  8
0
  0
POLYLINE
  8
0
 66
1
 10
0.0000
 20
0.0000
 30
0.0000
 40
0.0500
 41
0.0500
 70
0
  0
VERTEX
  8
0
 10
-0.4250
 20
0.2379
 30
0.0000
 42
1.0000
  0
VERTEX
  8
0
 10
-0.4750
 20
0.2379
 30
0.0000
  0
SEQEND
  8
0
  0
POLYLINE
  8
0
 66
1
 10
0.0000
 20
0.0000
 30
0.0000
 40
0.0500
 41
0.0500
 70
0
  0
VERTEX
  8
0
 10
-0.4750
 20
-0.2379
 30
0.0000
 42
1.0000
  0
VERTEX
  8
0
 10
-0.4250
 20
-0.2379
 30
0.0000
  0
SEQEND
  8
0
  0
ENDBLK
  8
0
  0
BLOCK
  8
0
  2
OCTAGONV
 70
64
 10
0.0000
 20
0.0000
 30
0.0000
  3
OCTAGONV
  0
POLYLINE
  8
0
 66
1
 10
0.0000
 20
0.0000
 30
0.0000
 40
0.5000
 41
0.5000
 70
0
  0
VERTEX
  8
0
 10
-0.2500
 20
-0.1036
 30
0.0000
  0
VERTEX
  8
0
 10
-0.2500
 20
0.1036
 30
0.0000
  0
VERTEX
  8
0
 10
-0.1036
 20
0.2500
 30
0.0000
  0
VERTEX
  8
0
 10
0.1036
 20
0.2500
 30
0.0000
  0
VERTEX
  8
0
 10
0.2500
 20
0.1036
 30
0.0000
  0
VERTEX
  8
0
 10
0.2500
 20
-0.1036
 30
0.0000
  0
VERTEX
  8
0
 10
0.1036
 20
-0.2500
 30
0.0000
  0
VERTEX
  8
0
 10
-0.1036
 20
-0.2500
 30
0.0000
  0
VERTEX
  8
0
 10
-0.2500
 20
-0.1036
 30
0.0000
  0
VERTEX
  8
0
 10
-0.2500
 20
0.1036
 30
0.0000
  0
SEQEND
  8
0
  0
ENDBLK
  8
0
  0
BLOCK
  8
0
  2
SQUAREV
 70
64
 10
0.0000
 20
0.0000
 30
0.0000
  3
SQUAREV
  0
SOLID
  8
0
 10
-0.5000
 20
-0.5000
 30
0.0000
 11
0.5000
 21
-0.5000
 31
0.0000
 12
-0.5000
 22
0.5000
 32
0.0000
 13
0.5000
 23
0.5000
 33
0.0000
  0
ENDBLK
  8
0
  0
BLOCK
  8
0
  2
ROUNDV
 70
64
 10
0.0000
 20
0.0000
 30
0.0000
  3
ROUNDV
  0
POLYLINE
  8
0
 66
1
 10
0.0000
 20
0.0000
 30
0.0000
 40
0.5000
 41
0.5000
 70
0
  0
VERTEX
  8
0
 10
0.0000
 20
-0.2500
 30
0.0000
 42
1.0000
  0
VERTEX
  8
0
 10
0.0000
 20
0.2500
 30
0.0000
 42
1.0000
  0
VERTEX
  8
0
 10
0.0000
 20
-0.2500
 30
0.0000
  0
SEQEND
  8
0
  0
ENDBLK
  8
0
  0
BLOCK
  8
0
  2
ANNULUSV
 70
64
 10
0.0000
 20
0.0000
 30
0.0000
  3
ANNULUSV
  0
POLYLINE
  8
0
 66
1
 10
0.0000
 20
0.0000
 30
0.0000
 40
0.5000
 41
0.5000
 70
0
  0
VERTEX
  8
0
 10
0.0000
 20
-0.2500
 30
0.0000
 42
1.0000
  0
VERTEX
  8
0
 10
0.0000
 20
0.2500
 30
0.0000
 42
1.0000
  0
VERTEX
  8
0
 10
0.0000
 20
-0.2500
 30
0.0000
  0
SEQEND
  8
0
  0
ENDBLK
  8
0
  0
BLOCK
  8
0
  2
THERMALV
 70
64
 10
0.0000
 20
0.0000
 30
0.0000
  3
THERMALV
  0
POLYLINE
  8
0
 66
1
 10
0.0000
 20
0.0000
 30
0.0000
 40
0.1000
 41
0.1000
 70
0
  0
VERTEX
  8
0
 10
-0.2379
 20
0.4500
 30
0.0000
  0
VERTEX
  8
0
 10
0.2379
 20
0.4500
 30
0.0000
  0
SEQEND
  8
0
  0
POLYLINE
  8
0
 66
1
 10
0.0000
 20
0.0000
 30
0.0000
 40
0.0500
 41
0.0500
 70
0
  0
VERTEX
  8
0
 10
0.2379
 20
0.4250
 30
0.0000
 42
1.0000
  0
VERTEX
  8
0
 10
0.2379
 20
0.4750
 30
0.0000
  0
SEQEND
  8
0
  0
POLYLINE
  8
0
 66
1
 10
0.0000
 20
0.0000
 30
0.0000
 40
0.0500
 41
0.0500
 70
0
  0
VERTEX
  8
0
 10
-0.2379
 20
0.4750
 30
0.0000
 42
1.0000
  0
VERTEX
  8
0
 10
-0.2379
 20
0.4250
 30
0.0000
  0
SEQEND
  8
0
  0
POLYLINE
  8
0
 66
1
 10
0.0000
 20
0.0000
 30
0.0000
 40
0.1000
 41
0.1000
 70
0
  0
VERTEX
  8
0
 10
0.4500
 20
0.2379
 30
0.0000
  0
VERTEX
  8
0
 10
0.4500
 20
-0.2379
 30
0.0000
  0
SEQEND
  8
0
  0
POLYLINE
  8
0
 66
1
 10
0.0000
 20
0.0000
 30
0.0000
 40
0.0500
 41
0.0500
 70
0
  0
VERTEX
  8
0
 10
0.4250
 20
-0.2379
 30
0.0000
 42
1.0000
  0
VERTEX
  8
0
 10
0.4750
 20
-0.2379
 30
0.0000
  0
SEQEND
  8
0
  0
POLYLINE
  8
0
 66
1
 10
0.0000
 20
0.0000
 30
0.0000
 40
0.0500
 41
0.0500
 70
0
  0
VERTEX
  8
0
 10
0.4750
 20
0.2379
 30
0.0000
 42
1.0000
  0
VERTEX
  8
0
 10
0.4250
 20
0.2379
 30
0.0000
  0
SEQEND
  8
0
  0
POLYLINE
  8
0
 66
1
 10
0.0000
 20
0.0000
 30
0.0000
 40
0.1000
 41
0.1000
 70
0
  0
VERTEX
  8
0
 10
0.2379
 20
-0.4500
 30
0.0000
  0
VERTEX
  8
0
 10
-0.2379
 20
-0.4500
 30
0.0000
  0
SEQEND
  8
0
  0
POLYLINE
  8
0
 66
1
 10
0.0000
 20
0.0000
 30
0.0000
 40
0.0500
 41
0.0500
 70
0
  0
VERTEX
  8
0
 10
-0.2379
 20
-0.4250
 30
0.0000
 42
1.0000
  0
VERTEX
  8
0
 10
-0.2379
 20
-0.4750
 30
0.0000
  0
SEQEND
  8
0
  0
POLYLINE
  8
0
 66
1
 10
0.0000
 20
0.0000
 30
0.0000
 40
0.0500
 41
0.0500
 70
0
  0
VERTEX
  8
0
 10
0.2379
 20
-0.4750
 30
0.0000
 42
1.0000
  0
VERTEX
  8
0
 10
0.2379
 20
-0.4250
 30
0.0000
  0
SEQEND
  8
0
  0
POLYLINE
  8
0
 66
1
 10
0.0000
 20
0.0000
 30
0.0000
 40
0.1000
 41
0.1000
 70
0
  0
VERTEX
  8
0
 10
-0.4500
 20
-0.2379
 30
0.0000
  0
VERTEX
  8
0
 10
-0.4500
 20
0.2379
 30
0.0000
  0
SEQEND
  8
0
  0
POLYLINE
  8
0
 66
1
 10
0.0000
 20
0.0000
 30
0.0000
 40
0.0500
 41
0.0500
 70
0
  0
VERTEX
  8
0
 10
-0.4250
 20
0.2379
 30
0.0000
 42
1.0000
  0
VERTEX
  8
0
 10
-0.4750
 20
0.2379
 30
0.0000
  0
SEQEND
  8
0
  0
POLYLINE
  8
0
 66
1
 10
0.0000
 20
0.0000
 30
0.0000
 40
0.0500
 41
0.0500
 70
0
  0
VERTEX
  8
0
 10
-0.4750
 20
-0.2379
 30
0.0000
 42
1.0000
  0
VERTEX
  8
0
 10
-0.4250
 20
-0.2379
 30
0.0000
  0
SEQEND
  8
0
  0
ENDBLK
  8
0
  0
BLOCK
  8
0
  2
LONGP100
 70
64
 10
0.0000
 20
0.0000
 30
0.0000
  3
LONGP100
  0
POLYLINE
  8
0
 66
1
 10
0.0000
 20
0.0000
 30
0.0000
 40
1.0000
 41
1.0000
 70
0
  0
VERTEX
  8
0
 10
-0.5000
 20
0.0000
 30
0.0000
  0
VERTEX
  8
0
 10
0.5000
 20
0.0000
 30
0.0000
  0
SEQEND
  8
0
  0
POLYLINE
  8
0
 66
1
 10
0.0000
 20
0.0000
 30
0.0000
 40
0.5000
 41
0.5000
 70
0
  0
VERTEX
  8
0
 10
0.5000
 20
-0.2500
 30
0.0000
 42
1.0000
  0
VERTEX
  8
0
 10
0.5000
 20
0.2500
 30
0.0000
  0
SEQEND
  8
0
  0
POLYLINE
  8
0
 66
1
 10
0.0000
 20
0.0000
 30
0.0000
 40
0.5000
 41
0.5000
 70
0
  0
VERTEX
  8
0
 10
-0.5000
 20
0.2500
 30
0.0000
 42
1.0000
  0
VERTEX
  8
0
 10
-0.5000
 20
-0.2500
 30
0.0000
  0
SEQEND
  8
0
  0
ENDBLK
  8
0
  0
BLOCK
  8
0
  2
RECT235712X235712R100
 70
64
 10
0.0000
 20
0.0000
 30
0.0000
  3
RECT235712X235712R100
  0
POLYLINE
  8
0
 66
1
 10
0.0000
 20
0.0000
 30
0.0000
 40
0.7366
 41
0.7366
 70
1
  0
VERTEX
  8
0
 10
0.3683
 20
0.0000
 30
0.0000
  0
VERTEX
  8
0
 10
0.3683
 20
0.0000
 30
0.0000
 42
0.4142
  0
VERTEX
  8
0
 10
0.0000
 20
0.3683
 30
0.0000
  0
VERTEX
  8
0
 10
0.0000
 20
0.3683
 30
0.0000
 42
0.4142
  0
VERTEX
  8
0
 10
-0.3683
 20
0.0000
 30
0.0000
  0
VERTEX
  8
0
 10
-0.3683
 20
0.0000
 30
0.0000
 42
0.4142
  0
VERTEX
  8
0
 10
0.0000
 20
-0.3683
 30
0.0000
  0
VERTEX
  8
0
 10
0.0000
 20
-0.3683
 30
0.0000
 42
0.4142
  0
SEQEND
  8
0
  0
SOLID
  8
0
 10
-0.0254
 20
-0.0254
 30
0.0000
 11
0.0254
 21
-0.0254
 31
0.0000
 12
-0.0254
 22
0.0254
 32
0.0000
 13
0.0254
 23
0.0254
 33
0.0000
  0
ENDBLK
  8
0
  0
ENDSEC
  0
SECTION
  2
ENTITIES
  0
LINE
  8
30
 10
81.0000
 20
96.0000
 30
0.0000
 11
81.0000
 21
93.0000
 31
0.0000
  0
LINE
  8
30
 10
81.0000
 20
93.0000
 30
0.0000
 11
90.0000
 21
93.0000
 31
0.0000
  0
LINE
  8
30
 10
90.0000
 20
93.0000
 30
0.0000
 11
90.0000
 21
96.0000
 31
0.0000
  0
LINE
  8
30
 10
90.0000
 20
96.0000
 30
0.0000
 11
81.0000
 21
96.0000
 31
0.0000
  0
LINE
  8
30
 10
100.0000
 20
96.0000
 30
0.0000
 11
100.0000
 21
93.0000
 31
0.0000
  0
LINE
  8
30
 10
100.0000
 20
93.0000
 30
0.0000
 11
106.0000
 21
93.0000
 31
0.0000
  0
LINE
  8
30
 10
106.0000
 20
93.0000
 30
0.0000
 11
106.0000
 21
96.0000
 31
0.0000
  0
LINE
  8
30
 10
106.0000
 20
96.0000
 30
0.0000
 11
100.0000
 21
96.0000
 31
0.0000
  0
LINE
  8
30
 10
17.0000
 20
0.0000
 30
0.0000
 11
17.0000
 21
3.0000
 31
0.0000
  0
LINE
  8
30
 10
17.0000
 20
3.0000
 30
0.0000
 11
105.0000
 21
3.0000
 31
0.0000
  0
LINE
  8
30
 10
105.0000
 20
3.0000
 30
0.0000
 11
105.0000
 21
0.0000
 31
0.0000
  0
LINE
  8
30
 10
105.0000
 20
0.0000
 30
0.0000
 11
17.0000
 21
0.0000
 31
0.0000
  0
LINE
  8
30
 10
99.0000
 20
35.0000
 30
0.0000
 11
69.0000
 21
35.0000
 31
0.0000
  0
LINE
  8
30
 10
69.0000
 20
35.0000
 30
0.0000
 11
68.8264
 21
34.9848
 31
0.0000
  0
LINE
  8
30
 10
68.8264
 20
34.9848
 30
0.0000
 11
68.6580
 21
34.9397
 31
0.0000
  0
LINE
  8
30
 10
68.6580
 20
34.9397
 30
0.0000
 11
68.5000
 21
34.8660
 31
0.0000
  0
LINE
  8
30
 10
68.5000
 20
34.8660
 30
0.0000
 11
68.3572
 21
34.7660
 31
0.0000
  0
LINE
  8
30
 10
68.3572
 20
34.7660
 30
0.0000
 11
68.2340
 21
34.6428
 31
0.0000
  0
LINE
  8
30
 10
68.2340
 20
34.6428
 30
0.0000
 11
68.1340
 21
34.5000
 31
0.0000
  0
LINE
  8
30
 10
68.1340
 20
34.5000
 30
0.0000
 11
68.0603
 21
34.3420
 31
0.0000
  0
LINE
  8
30
 10
68.0603
 20
34.3420
 30
0.0000
 11
68.0152
 21
34.1736
 31
0.0000
  0
LINE
  8
30
 10
68.0152
 20
34.1736
 30
0.0000
 11
68.0000
 21
34.0000
 31
0.0000
  0
LINE
  8
30
 10
68.0000
 20
34.0000
 30
0.0000
 11
68.0000
 21
7.5000
 31
0.0000
  0
LINE
  8
30
 10
68.0000
 20
7.5000
 30
0.0000
 11
83.0000
 21
7.5000
 31
0.0000
  0
LINE
  8
30
 10
83.0000
 20
7.5000
 30
0.0000
 11
83.0000
 21
12.0000
 31
0.0000
  0
LINE
  8
30
 10
83.0000
 20
12.0000
 30
0.0000
 11
71.0000
 21
12.0000
 31
0.0000
  0
LINE
  8
30
 10
71.0000
 20
12.0000
 30
0.0000
 11
71.0000
 21
28.0000
 31
0.0000
  0
LINE
  8
30
 10
71.0000
 20
28.0000
 30
0.0000
 11
71.0342
 21
28.5221
 31
0.0000
  0
LINE
  8
30
 10
71.0342
 20
28.5221
 30
0.0000
 11
71.1363
 21
29.0353
 31
0.0000
  0
LINE
  8
30
 10
71.1363
 20
29.0353
 30
0.0000
 11
71.3045
 21
29.5307
 31
0.0000
  0
LINE
  8
30
 10
71.3045
 20
29.5307
 30
0.0000
 11
71.5359
 21
30.0000
 31
0.0000
  0
LINE
  8
30
 10
71.5359
 20
30.0000
 30
0.0000
 11
71.8266
 21
30.4350
 31
0.0000
  0
LINE
  8
30
 10
71.8266
 20
30.4350
 30
0.0000
 11
72.1716
 21
30.8284
 31
0.0000
  0
LINE
  8
30
 10
72.1716
 20
30.8284
 30
0.0000
 11
72.5650
 21
31.1734
 31
0.0000
  0
LINE
  8
30
 10
72.5650
 20
31.1734
 30
0.0000
 11
73.0000
 21
31.4641
 31
0.0000
  0
LINE
  8
30
 10
73.0000
 20
31.4641
 30
0.0000
 11
73.4693
 21
31.6955
 31
0.0000
  0
LINE
  8
30
 10
73.4693
 20
31.6955
 30
0.0000
 11
73.9647
 21
31.8637
 31
0.0000
  0
LINE
  8
30
 10
73.9647
 20
31.8637
 30
0.0000
 11
74.4779
 21
31.9658
 31
0.0000
  0
LINE
  8
30
 10
74.4779
 20
31.9658
 30
0.0000
 11
75.0000
 21
32.0000
 31
0.0000
  0
LINE
  8
30
 10
75.0000
 20
32.0000
 30
0.0000
 11
94.0000
 21
32.0000
 31
0.0000
  0
LINE
  8
30
 10
94.0000
 20
32.0000
 30
0.0000
 11
94.3129
 21
31.9754
 31
0.0000
  0
LINE
  8
30
 10
94.3129
 20
31.9754
 30
0.0000
 11
94.6180
 21
31.9021
 31
0.0000
  0
LINE
  8
30
 10
94.6180
 20
31.9021
 30
0.0000
 11
94.9080
 21
31.7820
 31
0.0000
  0
LINE
  8
30
 10
94.9080
 20
31.7820
 30
0.0000
 11
95.1756
 21
31.6180
 31
0.0000
  0
LINE
  8
30
 10
95.1756
 20
31.6180
 30
0.0000
 11
95.4142
 21
31.4142
 31
0.0000
  0
LINE
  8
30
 10
95.4142
 20
31.4142
 30
0.0000
 11
95.6180
 21
31.1756
 31
0.0000
  0
LINE
  8
30
 10
95.6180
 20
31.1756
 30
0.0000
 11
95.7820
 21
30.9080
 31
0.0000
  0
LINE
  8
30
 10
95.7820
 20
30.9080
 30
0.0000
 11
95.9021
 21
30.6180
 31
0.0000
  0
LINE
  8
30
 10
95.9021
 20
30.6180
 30
0.0000
 11
95.9754
 21
30.3129
 31
0.0000
  0
LINE
  8
30
 10
95.9754
 20
30.3129
 30
0.0000
 11
96.0000
 21
30.0000
 31
0.0000
  0
LINE
  8
30
 10
96.0000
 20
30.0000
 30
0.0000
 11
99.0000
 21
35.0000
 31
0.0000
  0
LINE
  8
30
 10
71.0000
 20
17.0000
 30
0.0000
 11
71.0000
 21
16.5000
 31
0.0000
  0
LINE
  8
30
 10
71.0000
 20
16.5000
 30
0.0000
 11
71.0246
 21
16.1871
 31
0.0000
  0
LINE
  8
30
 10
71.0246
 20
16.1871
 30
0.0000
 11
71.0979
 21
15.8820
 31
0.0000
  0
LINE
  8
30
 10
71.0979
 20
15.8820
 30
0.0000
 11
71.2180
 21
15.5920
 31
0.0000
  0
LINE
  8
30
 10
71.2180
 20
15.5920
 30
0.0000
 11
71.3820
 21
15.3244
 31
0.0000
  0
LINE
  8
30
 10
71.3820
 20
15.3244
 30
0.0000
 11
71.5858
 21
15.0858
 31
0.0000
  0
LINE
  8
30
 10
71.5858
 20
15.0858
 30
0.0000
 11
71.8244
 21
14.8820
 31
0.0000
  0
LINE
  8
30
 10
71.8244
 20
14.8820
 30
0.0000
 11
72.0920
 21
14.7180
 31
0.0000
  0
LINE
  8
30
 10
72.0920
 20
14.7180
 30
0.0000
 11
72.3820
 21
14.5979
 31
0.0000
  0
LINE
  8
30
 10
72.3820
 20
14.5979
 30
0.0000
 11
72.6871
 21
14.5246
 31
0.0000
  0
LINE
  8
30
 10
72.6871
 20
14.5246
 30
0.0000
 11
73.0000
 21
14.5000
 31
0.0000
  0
LINE
  8
30
 10
73.0000
 20
14.5000
 30
0.0000
 11
74.7760
 21
14.5557
 31
0.0000
  0
LINE
  8
30
 10
74.7760
 20
14.5557
 30
0.0000
 11
76.5450
 21
14.7226
 31
0.0000
  0
LINE
  8
30
 10
76.5450
 20
14.7226
 30
0.0000
 11
78.3000
 21
15.0000
 31
0.0000
  0
LINE
  8
30
 10
78.3000
 20
15.0000
 30
0.0000
 11
79.7000
 21
15.3000
 31
0.0000
  0
LINE
  8
30
 10
79.7000
 20
15.3000
 30
0.0000
 11
81.4822
 21
15.6594
 31
0.0000
  0
LINE
  8
30
 10
81.4822
 20
15.6594
 30
0.0000
 11
83.2851
 21
15.8931
 31
0.0000
  0
LINE
  8
30
 10
83.2851
 20
15.8931
 30
0.0000
 11
85.1000
 21
16.0000
 31
0.0000
  0
LINE
  8
30
 10
85.1000
 20
16.0000
 30
0.0000
 11
99.0000
 21
16.0000
 31
0.0000
  0
LINE
  8
30
 10
99.0000
 20
16.0000
 30
0.0000
 11
99.0000
 21
11.0000
 31
0.0000
  0
LINE
  8
30
 10
99.0000
 20
11.0000
 30
0.0000
 11
98.9754
 21
10.6871
 31
0.0000
  0
LINE
  8
30
 10
98.9754
 20
10.6871
 30
0.0000
 11
98.9021
 21
10.3820
 31
0.0000
  0
LINE
  8
30
 10
98.9021
 20
10.3820
 30
0.0000
 11
98.7820
 21
10.0920
 31
0.0000
  0
LINE
  8
30
 10
98.7820
 20
10.0920
 30
0.0000
 11
98.6180
 21
9.8244
 31
0.0000
  0
LINE
  8
30
 10
98.6180
 20
9.8244
 30
0.0000
 11
98.4142
 21
9.5858
 31
0.0000
  0
LINE
  8
30
 10
98.4142
 20
9.5858
 30
0.0000
 11
98.1756
 21
9.3820
 31
0.0000
  0
LINE
  8
30
 10
98.1756
 20
9.3820
 30
0.0000
 11
97.9080
 21
9.2180
 31
0.0000
  0
LINE
  8
30
 10
97.9080
 20
9.2180
 30
0.0000
 11
97.6180
 21
9.0979
 31
0.0000
  0
LINE
  8
30
 10
97.6180
 20
9.0979
 30
0.0000
 11
97.3129
 21
9.0246
 31
0.0000
  0
LINE
  8
30
 10
97.3129
 20
9.0246
 30
0.0000
 11
97.0000
 21
9.0000
 31
0.0000
  0
LINE
  8
30
 10
97.0000
 20
9.0000
 30
0.0000
 11
96.0554
 21
9.0447
 31
0.0000
  0
LINE
  8
30
 10
96.0554
 20
9.0447
 30
0.0000
 11
95.1193
 21
9.1784
 31
0.0000
  0
LINE
  8
30
 10
95.1193
 20
9.1784
 30
0.0000
 11
94.2000
 21
9.4000
 31
0.0000
  0
LINE
  8
30
 10
94.2000
 20
9.4000
 30
0.0000
 11
93.4061
 21
9.6683
 31
0.0000
  0
LINE
  8
30
 10
93.4061
 20
9.6683
 30
0.0000
 11
92.6377
 21
10.0024
 31
0.0000
  0
LINE
  8
30
 10
92.6377
 20
10.0024
 30
0.0000
 11
91.9000
 21
10.4000
 31
0.0000
  0
LINE
  8
30
 10
91.9000
 20
10.4000
 30
0.0000
 11
91.0000
 21
11.0000
 31
0.0000
  0
LINE
  8
30
 10
91.0000
 20
11.0000
 30
0.0000
 11
90.1076
 21
11.5931
 31
0.0000
  0
LINE
  8
30
 10
90.1076
 20
11.5931
 30
0.0000
 11
89.1574
 21
12.0886
 31
0.0000
  0
LINE
  8
30
 10
89.1574
 20
12.0886
 30
0.0000
 11
88.1602
 21
12.4807
 31
0.0000
  0
LINE
  8
30
 10
88.1602
 20
12.4807
 30
0.0000
 11
87.1272
 21
12.7653
 31
0.0000
  0
LINE
  8
30
 10
87.1272
 20
12.7653
 30
0.0000
 11
86.0698
 21
12.9390
 31
0.0000
  0
LINE
  8
30
 10
86.0698
 20
12.9390
 30
0.0000
 11
85.0000
 21
13.0000
 31
0.0000
  0
LINE
  8
30
 10
85.0000
 20
13.0000
 30
0.0000
 11
84.6867
 21
12.9765
 31
0.0000
  0
LINE
  8
30
 10
84.6867
 20
12.9765
 30
0.0000
 11
84.3810
 21
12.9040
 31
0.0000
  0
LINE
  8
30
 10
84.3810
 20
12.9040
 30
0.0000
 11
84.0905
 21
12.7843
 31
0.0000
  0
LINE
  8
30
 10
84.0905
 20
12.7843
 30
0.0000
 11
83.8224
 21
12.6205
 31
0.0000
  0
LINE
  8
30
 10
83.8224
 20
12.6205
 30
0.0000
 11
83.5835
 21
12.4165
 31
0.0000
  0
LINE
  8
30
 10
83.5835
 20
12.4165
 30
0.0000
 11
83.3795
 21
12.1776
 31
0.0000
  0
LINE
  8
30
 10
83.3795
 20
12.1776
 30
0.0000
 11
83.2157
 21
11.9095
 31
0.0000
  0
LINE
  8
30
 10
83.2157
 20
11.9095
 30
0.0000
 11
83.0960
 21
11.6190
 31
0.0000
  0
LINE
  8
30
 10
83.0960
 20
11.6190
 30
0.0000
 11
83.0235
 21
11.3133
 31
0.0000
  0
LINE
  8
30
 10
83.0235
 20
11.3133
 30
0.0000
 11
83.0000
 21
11.0000
 31
0.0000
  0
LINE
  8
30
 10
83.0000
 20
11.0000
 30
0.0000
 11
71.0000
 21
11.0000
 31
0.0000
  0
LINE
  8
30
 10
71.0000
 20
11.0000
 30
0.0000
 11
71.0000
 21
17.0000
 31
0.0000
  0
LINE
  8
30
 10
99.0000
 20
30.0000
 30
0.0000
 11
99.0246
 21
30.3129
 31
0.0000
  0
LINE
  8
30
 10
99.0246
 20
30.3129
 30
0.0000
 11
99.0979
 21
30.6180
 31
0.0000
  0
LINE
  8
30
 10
99.0979
 20
30.6180
 30
0.0000
 11
99.2180
 21
30.9080
 31
0.0000
  0
LINE
  8
30
 10
99.2180
 20
30.9080
 30
0.0000
 11
99.3820
 21
31.1756
 31
0.0000
  0
LINE
  8
30
 10
99.3820
 20
31.1756
 30
0.0000
 11
99.5858
 21
31.4142
 31
0.0000
  0
LINE
  8
30
 10
99.5858
 20
31.4142
 30
0.0000
 11
99.8244
 21
31.6180
 31
0.0000
  0
LINE
  8
30
 10
99.8244
 20
31.6180
 30
0.0000
 11
100.0920
 21
31.7820
 31
0.0000
  0
LINE
  8
30
 10
100.0920
 20
31.7820
 30
0.0000
 11
100.3820
 21
31.9021
 31
0.0000
  0
LINE
  8
30
 10
100.3820
 20
31.9021
 30
0.0000
 11
100.6871
 21
31.9754
 31
0.0000
  0
LINE
  8
30
 10
100.6871
 20
31.9754
 30
0.0000
 11
101.0000
 21
32.0000
 31
0.0000
  0
LINE
  8
30
 10
101.0000
 20
32.0000
 30
0.0000
 11
109.0000
 21
32.0000
 31
0.0000
  0
LINE
  8
30
 10
109.0000
 20
32.0000
 30
0.0000
 11
109.3129
 21
32.0246
 31
0.0000
  0
LINE
  8
30
 10
109.3129
 20
32.0246
 30
0.0000
 11
109.6180
 21
32.0979
 31
0.0000
  0
LINE
  8
30
 10
109.6180
 20
32.0979
 30
0.0000
 11
109.9080
 21
32.2180
 31
0.0000
  0
LINE
  8
30
 10
109.9080
 20
32.2180
 30
0.0000
 11
110.1756
 21
32.3820
 31
0.0000
  0
LINE
  8
30
 10
110.1756
 20
32.3820
 30
0.0000
 11
110.4142
 21
32.5858
 31
0.0000
  0
LINE
  8
30
 10
110.4142
 20
32.5858
 30
0.0000
 11
110.6180
 21
32.8244
 31
0.0000
  0
LINE
  8
30
 10
110.6180
 20
32.8244
 30
0.0000
 11
110.7820
 21
33.0920
 31
0.0000
  0
LINE
  8
30
 10
110.7820
 20
33.0920
 30
0.0000
 11
110.9021
 21
33.3820
 31
0.0000
  0
LINE
  8
30
 10
110.9021
 20
33.3820
 30
0.0000
 11
110.9754
 21
33.6871
 31
0.0000
  0
LINE
  8
30
 10
110.9754
 20
33.6871
 30
0.0000
 11
111.0000
 21
34.0000
 31
0.0000
  0
LINE
  8
30
 10
111.0000
 20
34.0000
 30
0.0000
 11
111.0000
 21
37.0000
 31
0.0000
  0
LINE
  8
30
 10
111.0000
 20
37.0000
 30
0.0000
 11
110.9754
 21
37.3129
 31
0.0000
  0
LINE
  8
30
 10
110.9754
 20
37.3129
 30
0.0000
 11
110.9021
 21
37.6180
 31
0.0000
  0
LINE
  8
30
 10
110.9021
 20
37.6180
 30
0.0000
 11
110.7820
 21
37.9080
 31
0.0000
  0
LINE
  8
30
 10
110.7820
 20
37.9080
 30
0.0000
 11
110.6180
 21
38.1756
 31
0.0000
  0
LINE
  8
30
 10
110.6180
 20
38.1756
 30
0.0000
 11
110.4142
 21
38.4142
 31
0.0000
  0
LINE
  8
30
 10
110.4142
 20
38.4142
 30
0.0000
 11
110.1756
 21
38.6180
 31
0.0000
  0
LINE
  8
30
 10
110.1756
 20
38.6180
 30
0.0000
 11
109.9080
 21
38.7820
 31
0.0000
  0
LINE
  8
30
 10
109.9080
 20
38.7820
 30
0.0000
 11
109.6180
 21
38.9021
 31
0.0000
  0
LINE
  8
30
 10
109.6180
 20
38.9021
 30
0.0000
 11
109.3129
 21
38.9754
 31
0.0000
  0
LINE
  8
30
 10
109.3129
 20
38.9754
 30
0.0000
 11
109.0000
 21
39.0000
 31
0.0000
  0
LINE
  8
30
 10
109.0000
 20
39.0000
 30
0.0000
 11
108.6871
 21
39.0246
 31
0.0000
  0
LINE
  8
30
 10
108.6871
 20
39.0246
 30
0.0000
 11
108.3820
 21
39.0979
 31
0.0000
  0
LINE
  8
30
 10
108.3820
 20
39.0979
 30
0.0000
 11
108.0920
 21
39.2180
 31
0.0000
  0
LINE
  8
30
 10
108.0920
 20
39.2180
 30
0.0000
 11
107.8244
 21
39.3820
 31
0.0000
  0
LINE
  8
30
 10
107.8244
 20
39.3820
 30
0.0000
 11
107.5858
 21
39.5858
 31
0.0000
  0
LINE
  8
30
 10
107.5858
 20
39.5858
 30
0.0000
 11
107.3820
 21
39.8244
 31
0.0000
  0
LINE
  8
30
 10
107.3820
 20
39.8244
 30
0.0000
 11
107.2180
 21
40.0920
 31
0.0000
  0
LINE
  8
30
 10
107.2180
 20
40.0920
 30
0.0000
 11
107.0979
 21
40.3820
 31
0.0000
  0
LINE
  8
30
 10
107.0979
 20
40.3820
 30
0.0000
 11
107.0246
 21
40.6871
 31
0.0000
  0
LINE
  8
30
 10
107.0246
 20
40.6871
 30
0.0000
 11
107.0000
 21
41.0000
 31
0.0000
  0
LINE
  8
30
 10
107.0000
 20
41.0000
 30
0.0000
 11
107.0000
 21
46.0000
 31
0.0000
  0
LINE
  8
30
 10
107.0000
 20
46.0000
 30
0.0000
 11
106.9754
 21
46.3129
 31
0.0000
  0
LINE
  8
30
 10
106.9754
 20
46.3129
 30
0.0000
 11
106.9021
 21
46.6180
 31
0.0000
  0
LINE
  8
30
 10
106.9021
 20
46.6180
 30
0.0000
 11
106.7820
 21
46.9080
 31
0.0000
  0
LINE
  8
30
 10
106.7820
 20
46.9080
 30
0.0000
 11
106.6180
 21
47.1756
 31
0.0000
  0
LINE
  8
30
 10
106.6180
 20
47.1756
 30
0.0000
 11
106.4142
 21
47.4142
 31
0.0000
  0
LINE
  8
30
 10
106.4142
 20
47.4142
 30
0.0000
 11
106.1756
 21
47.6180
 31
0.0000
  0
LINE
  8
30
 10
106.1756
 20
47.6180
 30
0.0000
 11
105.9080
 21
47.7820
 31
0.0000
  0
LINE
  8
30
 10
105.9080
 20
47.7820
 30
0.0000
 11
105.6180
 21
47.9021
 31
0.0000
  0
LINE
  8
30
 10
105.6180
 20
47.9021
 30
0.0000
 11
105.3129
 21
47.9754
 31
0.0000
  0
LINE
  8
30
 10
105.3129
 20
47.9754
 30
0.0000
 11
105.0000
 21
48.0000
 31
0.0000
  0
LINE
  8
30
 10
105.0000
 20
48.0000
 30
0.0000
 11
102.0000
 21
48.0000
 31
0.0000
  0
LINE
  8
30
 10
102.0000
 20
48.0000
 30
0.0000
 11
101.6871
 21
48.0246
 31
0.0000
  0
LINE
  8
30
 10
101.6871
 20
48.0246
 30
0.0000
 11
101.3820
 21
48.0979
 31
0.0000
  0
LINE
  8
30
 10
101.3820
 20
48.0979
 30
0.0000
 11
101.0920
 21
48.2180
 31
0.0000
  0
LINE
  8
30
 10
101.0920
 20
48.2180
 30
0.0000
 11
100.8244
 21
48.3820
 31
0.0000
  0
LINE
  8
30
 10
100.8244
 20
48.3820
 30
0.0000
 11
100.5858
 21
48.5858
 31
0.0000
  0
LINE
  8
30
 10
100.5858
 20
48.5858
 30
0.0000
 11
100.3820
 21
48.8244
 31
0.0000
  0
LINE
  8
30
 10
100.3820
 20
48.8244
 30
0.0000
 11
100.2180
 21
49.0920
 31
0.0000
  0
LINE
  8
30
 10
100.2180
 20
49.0920
 30
0.0000
 11
100.0979
 21
49.3820
 31
0.0000
  0
LINE
  8
30
 10
100.0979
 20
49.3820
 30
0.0000
 11
100.0246
 21
49.6871
 31
0.0000
  0
LINE
  8
30
 10
100.0246
 20
49.6871
 30
0.0000
 11
100.0000
 21
50.0000
 31
0.0000
  0
LINE
  8
30
 10
100.0000
 20
50.0000
 30
0.0000
 11
100.0000
 21
60.0000
 31
0.0000
  0
LINE
  8
30
 10
100.0000
 20
60.0000
 30
0.0000
 11
100.0305
 21
60.4269
 31
0.0000
  0
LINE
  8
30
 10
100.0305
 20
60.4269
 30
0.0000
 11
100.1215
 21
60.8452
 31
0.0000
  0
LINE
  8
30
 10
100.1215
 20
60.8452
 30
0.0000
 11
100.2711
 21
61.2462
 31
0.0000
  0
LINE
  8
30
 10
100.2711
 20
61.2462
 30
0.0000
 11
100.4762
 21
61.6219
 31
0.0000
  0
LINE
  8
30
 10
100.4762
 20
61.6219
 30
0.0000
 11
100.7328
 21
61.9646
 31
0.0000
  0
LINE
  8
30
 10
100.7328
 20
61.9646
 30
0.0000
 11
101.0354
 21
62.2673
 31
0.0000
  0
LINE
  8
30
 10
101.0354
 20
62.2673
 30
0.0000
 11
101.3781
 21
62.5238
 31
0.0000
  0
LINE
  8
30
 10
101.3781
 20
62.5238
 30
0.0000
 11
101.7538
 21
62.7289
 31
0.0000
  0
LINE
  8
30
 10
101.7538
 20
62.7289
 30
0.0000
 11
102.1548
 21
62.8785
 31
0.0000
  0
LINE
  8
30
 10
102.1548
 20
62.8785
 30
0.0000
 11
102.5731
 21
62.9695
 31
0.0000
  0
LINE
  8
30
 10
102.5731
 20
62.9695
 30
0.0000
 11
103.0000
 21
63.0000
 31
0.0000
  0
LINE
  8
30
 10
103.0000
 20
63.0000
 30
0.0000
 11
114.0000
 21
63.0000
 31
0.0000
  0
LINE
  8
30
 10
114.0000
 20
63.0000
 30
0.0000
 11
114.6526
 21
62.9572
 31
0.0000
  0
LINE
  8
30
 10
114.6526
 20
62.9572
 30
0.0000
 11
115.2941
 21
62.8296
 31
0.0000
  0
LINE
  8
30
 10
115.2941
 20
62.8296
 30
0.0000
 11
115.9134
 21
62.6194
 31
0.0000
  0
LINE
  8
30
 10
115.9134
 20
62.6194
 30
0.0000
 11
116.5000
 21
62.3301
 31
0.0000
  0
LINE
  8
30
 10
116.5000
 20
62.3301
 30
0.0000
 11
117.0438
 21
61.9668
 31
0.0000
  0
LINE
  8
30
 10
117.0438
 20
61.9668
 30
0.0000
 11
117.5355
 21
61.5355
 31
0.0000
  0
LINE
  8
30
 10
117.5355
 20
61.5355
 30
0.0000
 11
117.9668
 21
61.0438
 31
0.0000
  0
LINE
  8
30
 10
117.9668
 20
61.0438
 30
0.0000
 11
118.3301
 21
60.5000
 31
0.0000
  0
LINE
  8
30
 10
118.3301
 20
60.5000
 30
0.0000
 11
118.6194
 21
59.9134
 31
0.0000
  0
LINE
  8
30
 10
118.6194
 20
59.9134
 30
0.0000
 11
118.8296
 21
59.2941
 31
0.0000
  0
LINE
  8
30
 10
118.8296
 20
59.2941
 30
0.0000
 11
118.9572
 21
58.6526
 31
0.0000
  0
LINE
  8
30
 10
118.9572
 20
58.6526
 30
0.0000
 11
119.0000
 21
58.0000
 31
0.0000
  0
LINE
  8
30
 10
119.0000
 20
58.0000
 30
0.0000
 11
119.0000
 21
27.0000
 31
0.0000
  0
LINE
  8
30
 10
119.0000
 20
27.0000
 30
0.0000
 11
118.9742
 21
26.6184
 31
0.0000
  0
LINE
  8
30
 10
118.9742
 20
26.6184
 30
0.0000
 11
118.8972
 21
26.2437
 31
0.0000
  0
LINE
  8
30
 10
118.8972
 20
26.2437
 30
0.0000
 11
118.7704
 21
25.8828
 31
0.0000
  0
LINE
  8
30
 10
118.7704
 20
25.8828
 30
0.0000
 11
118.5962
 21
25.5423
 31
0.0000
  0
LINE
  8
30
 10
118.5962
 20
25.5423
 30
0.0000
 11
118.3777
 21
25.2283
 31
0.0000
  0
LINE
  8
30
 10
118.3777
 20
25.2283
 30
0.0000
 11
118.1190
 21
24.9466
 31
0.0000
  0
LINE
  8
30
 10
118.1190
 20
24.9466
 30
0.0000
 11
117.8246
 21
24.7024
 31
0.0000
  0
LINE
  8
30
 10
117.8246
 20
24.7024
 30
0.0000
 11
117.5000
 21
24.5000
 31
0.0000
  0
LINE
  8
30
 10
117.5000
 20
24.5000
 30
0.0000
 11
117.1754
 21
24.2976
 31
0.0000
  0
LINE
  8
30
 10
117.1754
 20
24.2976
 30
0.0000
 11
116.8810
 21
24.0534
 31
0.0000
  0
LINE
  8
30
 10
116.8810
 20
24.0534
 30
0.0000
 11
116.6223
 21
23.7717
 31
0.0000
  0
LINE
  8
30
 10
116.6223
 20
23.7717
 30
0.0000
 11
116.4038
 21
23.4577
 31
0.0000
  0
LINE
  8
30
 10
116.4038
 20
23.4577
 30
0.0000
 11
116.2296
 21
23.1172
 31
0.0000
  0
LINE
  8
30
 10
116.2296
 20
23.1172
 30
0.0000
 11
116.1028
 21
22.7563
 31
0.0000
  0
LINE
  8
30
 10
116.1028
 20
22.7563
 30
0.0000
 11
116.0258
 21
22.3816
 31
0.0000
  0
LINE
  8
30
 10
116.0258
 20
22.3816
 30
0.0000
 11
116.0000
 21
22.0000
 31
0.0000
  0
LINE
  8
30
 10
116.0000
 20
22.0000
 30
0.0000
 11
116.0000
 21
21.0000
 31
0.0000
  0
LINE
  8
30
 10
116.0000
 20
21.0000
 30
0.0000
 11
116.0258
 21
20.6184
 31
0.0000
  0
LINE
  8
30
 10
116.0258
 20
20.6184
 30
0.0000
 11
116.1028
 21
20.2437
 31
0.0000
  0
LINE
  8
30
 10
116.1028
 20
20.2437
 30
0.0000
 11
116.2296
 21
19.8828
 31
0.0000
  0
LINE
  8
30
 10
116.2296
 20
19.8828
 30
0.0000
 11
116.4038
 21
19.5423
 31
0.0000
  0
LINE
  8
30
 10
116.4038
 20
19.5423
 30
0.0000
 11
116.6223
 21
19.2283
 31
0.0000
  0
LINE
  8
30
 10
116.6223
 20
19.2283
 30
0.0000
 11
116.8810
 21
18.9466
 31
0.0000
  0
LINE
  8
30
 10
116.8810
 20
18.9466
 30
0.0000
 11
117.1754
 21
18.7024
 31
0.0000
  0
LINE
  8
30
 10
117.1754
 20
18.7024
 30
0.0000
 11
117.5000
 21
18.5000
 31
0.0000
  0
LINE
  8
30
 10
117.5000
 20
18.5000
 30
0.0000
 11
117.8246
 21
18.2976
 31
0.0000
  0
LINE
  8
30
 10
117.8246
 20
18.2976
 30
0.0000
 11
118.1190
 21
18.0534
 31
0.0000
  0
LINE
  8
30
 10
118.1190
 20
18.0534
 30
0.0000
 11
118.3777
 21
17.7717
 31
0.0000
  0
LINE
  8
30
 10
118.3777
 20
17.7717
 30
0.0000
 11
118.5962
 21
17.4577
 31
0.0000
  0
LINE
  8
30
 10
118.5962
 20
17.4577
 30
0.0000
 11
118.7704
 21
17.1172
 31
0.0000
  0
LINE
  8
30
 10
118.7704
 20
17.1172
 30
0.0000
 11
118.8972
 21
16.7563
 31
0.0000
  0
LINE
  8
30
 10
118.8972
 20
16.7563
 30
0.0000
 11
118.9742
 21
16.3816
 31
0.0000
  0
LINE
  8
30
 10
118.9742
 20
16.3816
 30
0.0000
 11
119.0000
 21
16.0000
 31
0.0000
  0
LINE
  8
30
 10
119.0000
 20
16.0000
 30
0.0000
 11
119.0000
 21
7.0000
 31
0.0000
  0
LINE
  8
30
 10
119.0000
 20
7.0000
 30
0.0000
 11
118.9658
 21
6.4779
 31
0.0000
  0
LINE
  8
30
 10
118.9658
 20
6.4779
 30
0.0000
 11
118.8637
 21
5.9647
 31
0.0000
  0
LINE
  8
30
 10
118.8637
 20
5.9647
 30
0.0000
 11
118.6955
 21
5.4693
 31
0.0000
  0
LINE
  8
30
 10
118.6955
 20
5.4693
 30
0.0000
 11
118.4641
 21
5.0000
 31
0.0000
  0
LINE
  8
30
 10
118.4641
 20
5.0000
 30
0.0000
 11
118.1734
 21
4.5650
 31
0.0000
  0
LINE
  8
30
 10
118.1734
 20
4.5650
 30
0.0000
 11
117.8284
 21
4.1716
 31
0.0000
  0
LINE
  8
30
 10
117.8284
 20
4.1716
 30
0.0000
 11
117.4350
 21
3.8266
 31
0.0000
  0
LINE
  8
30
 10
117.4350
 20
3.8266
 30
0.0000
 11
117.0000
 21
3.5359
 31
0.0000
  0
LINE
  8
30
 10
117.0000
 20
3.5359
 30
0.0000
 11
116.5307
 21
3.3045
 31
0.0000
  0
LINE
  8
30
 10
116.5307
 20
3.3045
 30
0.0000
 11
116.0353
 21
3.1363
 31
0.0000
  0
LINE
  8
30
 10
116.0353
 20
3.1363
 30
0.0000
 11
115.5221
 21
3.0342
 31
0.0000
  0
LINE
  8
30
 10
115.5221
 20
3.0342
 30
0.0000
 11
115.0000
 21
3.0000
 31
0.0000
  0
LINE
  8
30
 10
115.0000
 20
3.0000
 30
0.0000
 11
115.0000
 21
0.0000
 31
0.0000
  0
LINE
  8
30
 10
115.0000
 20
0.0000
 30
0.0000
 11
122.0000
 21
0.0000
 31
0.0000
  0
LINE
  8
30
 10
122.0000
 20
0.0000
 30
0.0000
 11
122.0000
 21
66.0000
 31
0.0000
  0
LINE
  8
30
 10
122.0000
 20
66.0000
 30
0.0000
 11
100.0000
 21
66.0000
 31
0.0000
  0
LINE
  8
30
 10
100.0000
 20
66.0000
 30
0.0000
 11
99.2742
 21
65.9566
 31
0.0000
  0
LINE
  8
30
 10
99.2742
 20
65.9566
 30
0.0000
 11
98.5588
 21
65.8268
 31
0.0000
  0
LINE
  8
30
 10
98.5588
 20
65.8268
 30
0.0000
 11
97.8640
 21
65.6127
 31
0.0000
  0
LINE
  8
30
 10
97.8640
 20
65.6127
 30
0.0000
 11
97.1997
 21
65.3171
 31
0.0000
  0
LINE
  8
30
 10
97.1997
 20
65.3171
 30
0.0000
 11
96.5754
 21
64.9445
 31
0.0000
  0
LINE
  8
30
 10
96.5754
 20
64.9445
 30
0.0000
 11
96.0000
 21
64.5000
 31
0.0000
  0
LINE
  8
30
 10
96.0000
 20
64.5000
 30
0.0000
 11
95.4246
 21
64.0555
 31
0.0000
  0
LINE
  8
30
 10
95.4246
 20
64.0555
 30
0.0000
 11
94.8003
 21
63.6829
 31
0.0000
  0
LINE
  8
30
 10
94.8003
 20
63.6829
 30
0.0000
 11
94.1360
 21
63.3873
 31
0.0000
  0
LINE
  8
30
 10
94.1360
 20
63.3873
 30
0.0000
 11
93.4412
 21
63.1732
 31
0.0000
  0
LINE
  8
30
 10
93.4412
 20
63.1732
 30
0.0000
 11
92.7258
 21
63.0434
 31
0.0000
  0
LINE
  8
30
 10
92.7258
 20
63.0434
 30
0.0000
 11
92.0000
 21
63.0000
 31
0.0000
  0
LINE
  8
30
 10
92.0000
 20
63.0000
 30
0.0000
 11
75.0000
 21
63.0000
 31
0.0000
  0
LINE
  8
30
 10
75.0000
 20
63.0000
 30
0.0000
 11
75.0000
 21
60.0000
 31
0.0000
  0
LINE
  8
30
 10
75.0000
 20
60.0000
 30
0.0000
 11
95.0000
 21
60.0000
 31
0.0000
  0
LINE
  8
30
 10
95.0000
 20
60.0000
 30
0.0000
 11
95.3129
 21
59.9754
 31
0.0000
  0
LINE
  8
30
 10
95.3129
 20
59.9754
 30
0.0000
 11
95.6180
 21
59.9021
 31
0.0000
  0
LINE
  8
30
 10
95.6180
 20
59.9021
 30
0.0000
 11
95.9080
 21
59.7820
 31
0.0000
  0
LINE
  8
30
 10
95.9080
 20
59.7820
 30
0.0000
 11
96.1756
 21
59.6180
 31
0.0000
  0
LINE
  8
30
 10
96.1756
 20
59.6180
 30
0.0000
 11
96.4142
 21
59.4142
 31
0.0000
  0
LINE
  8
30
 10
96.4142
 20
59.4142
 30
0.0000
 11
96.6180
 21
59.1756
 31
0.0000
  0
LINE
  8
30
 10
96.6180
 20
59.1756
 30
0.0000
 11
96.7820
 21
58.9080
 31
0.0000
  0
LINE
  8
30
 10
96.7820
 20
58.9080
 30
0.0000
 11
96.9021
 21
58.6180
 31
0.0000
  0
LINE
  8
30
 10
96.9021
 20
58.6180
 30
0.0000
 11
96.9754
 21
58.3129
 31
0.0000
  0
LINE
  8
30
 10
96.9754
 20
58.3129
 30
0.0000
 11
97.0000
 21
58.0000
 31
0.0000
  0
LINE
  8
30
 10
97.0000
 20
58.0000
 30
0.0000
 11
97.0000
 21
52.0000
 31
0.0000
  0
LINE
  8
30
 10
97.0000
 20
52.0000
 30
0.0000
 11
96.9754
 21
51.6871
 31
0.0000
  0
LINE
  8
30
 10
96.9754
 20
51.6871
 30
0.0000
 11
96.9021
 21
51.3820
 31
0.0000
  0
LINE
  8
30
 10
96.9021
 20
51.3820
 30
0.0000
 11
96.7820
 21
51.0920
 31
0.0000
  0
LINE
  8
30
 10
96.7820
 20
51.0920
 30
0.0000
 11
96.6180
 21
50.8244
 31
0.0000
  0
LINE
  8
30
 10
96.6180
 20
50.8244
 30
0.0000
 11
96.4142
 21
50.5858
 31
0.0000
  0
LINE
  8
30
 10
96.4142
 20
50.5858
 30
0.0000
 11
96.1756
 21
50.3820
 31
0.0000
  0
LINE
  8
30
 10
96.1756
 20
50.3820
 30
0.0000
 11
95.9080
 21
50.2180
 31
0.0000
  0
LINE
  8
30
 10
95.9080
 20
50.2180
 30
0.0000
 11
95.6180
 21
50.0979
 31
0.0000
  0
LINE
  8
30
 10
95.6180
 20
50.0979
 30
0.0000
 11
95.3129
 21
50.0246
 31
0.0000
  0
LINE
  8
30
 10
95.3129
 20
50.0246
 30
0.0000
 11
95.0000
 21
50.0000
 31
0.0000
  0
LINE
  8
30
 10
95.0000
 20
50.0000
 30
0.0000
 11
82.0000
 21
50.0000
 31
0.0000
  0
LINE
  8
30
 10
82.0000
 20
50.0000
 30
0.0000
 11
81.3474
 21
49.9572
 31
0.0000
  0
LINE
  8
30
 10
81.3474
 20
49.9572
 30
0.0000
 11
80.7059
 21
49.8296
 31
0.0000
  0
LINE
  8
30
 10
80.7059
 20
49.8296
 30
0.0000
 11
80.0866
 21
49.6194
 31
0.0000
  0
LINE
  8
30
 10
80.0866
 20
49.6194
 30
0.0000
 11
79.5000
 21
49.3301
 31
0.0000
  0
LINE
  8
30
 10
79.5000
 20
49.3301
 30
0.0000
 11
78.9562
 21
48.9668
 31
0.0000
  0
LINE
  8
30
 10
78.9562
 20
48.9668
 30
0.0000
 11
78.4645
 21
48.5355
 31
0.0000
  0
LINE
  8
30
 10
78.4645
 20
48.5355
 30
0.0000
 11
78.0332
 21
48.0438
 31
0.0000
  0
LINE
  8
30
 10
78.0332
 20
48.0438
 30
0.0000
 11
77.6699
 21
47.5000
 31
0.0000
  0
LINE
  8
30
 10
77.6699
 20
47.5000
 30
0.0000
 11
77.3806
 21
46.9134
 31
0.0000
  0
LINE
  8
30
 10
77.3806
 20
46.9134
 30
0.0000
 11
77.1704
 21
46.2941
 31
0.0000
  0
LINE
  8
30
 10
77.1704
 20
46.2941
 30
0.0000
 11
77.0428
 21
45.6526
 31
0.0000
  0
LINE
  8
30
 10
77.0428
 20
45.6526
 30
0.0000
 11
77.0000
 21
45.0000
 31
0.0000
  0
LINE
  8
30
 10
77.0000
 20
45.0000
 30
0.0000
 11
76.9754
 21
44.6871
 31
0.0000
  0
LINE
  8
30
 10
76.9754
 20
44.6871
 30
0.0000
 11
76.9021
 21
44.3820
 31
0.0000
  0
LINE
  8
30
 10
76.9021
 20
44.3820
 30
0.0000
 11
76.7820
 21
44.0920
 31
0.0000
  0
LINE
  8
30
 10
76.7820
 20
44.0920
 30
0.0000
 11
76.6180
 21
43.8244
 31
0.0000
  0
LINE
  8
30
 10
76.6180
 20
43.8244
 30
0.0000
 11
76.4142
 21
43.5858
 31
0.0000
  0
LINE
  8
30
 10
76.4142
 20
43.5858
 30
0.0000
 11
76.1756
 21
43.3820
 31
0.0000
  0
LINE
  8
30
 10
76.1756
 20
43.3820
 30
0.0000
 11
75.9080
 21
43.2180
 31
0.0000
  0
LINE
  8
30
 10
75.9080
 20
43.2180
 30
0.0000
 11
75.6180
 21
43.0979
 31
0.0000
  0
LINE
  8
30
 10
75.6180
 20
43.0979
 30
0.0000
 11
75.3129
 21
43.0246
 31
0.0000
  0
LINE
  8
30
 10
75.3129
 20
43.0246
 30
0.0000
 11
75.0000
 21
43.0000
 31
0.0000
  0
LINE
  8
30
 10
75.0000
 20
43.0000
 30
0.0000
 11
66.0000
 21
43.0000
 31
0.0000
  0
LINE
  8
30
 10
66.0000
 20
43.0000
 30
0.0000
 11
65.4779
 21
43.0342
 31
0.0000
  0
LINE
  8
30
 10
65.4779
 20
43.0342
 30
0.0000
 11
64.9647
 21
43.1363
 31
0.0000
  0
LINE
  8
30
 10
64.9647
 20
43.1363
 30
0.0000
 11
64.4693
 21
43.3045
 31
0.0000
  0
LINE
  8
30
 10
64.4693
 20
43.3045
 30
0.0000
 11
64.0000
 21
43.5359
 31
0.0000
  0
LINE
  8
30
 10
64.0000
 20
43.5359
 30
0.0000
 11
63.5650
 21
43.8266
 31
0.0000
  0
LINE
  8
30
 10
63.5650
 20
43.8266
 30
0.0000
 11
63.1716
 21
44.1716
 31
0.0000
  0
LINE
  8
30
 10
63.1716
 20
44.1716
 30
0.0000
 11
62.8266
 21
44.5650
 31
0.0000
  0
LINE
  8
30
 10
62.8266
 20
44.5650
 30
0.0000
 11
62.5359
 21
45.0000
 31
0.0000
  0
LINE
  8
30
 10
62.5359
 20
45.0000
 30
0.0000
 11
62.3045
 21
45.4693
 31
0.0000
  0
LINE
  8
30
 10
62.3045
 20
45.4693
 30
0.0000
 11
62.1363
 21
45.9647
 31
0.0000
  0
LINE
  8
30
 10
62.1363
 20
45.9647
 30
0.0000
 11
62.0342
 21
46.4779
 31
0.0000
  0
LINE
  8
30
 10
62.0342
 20
46.4779
 30
0.0000
 11
62.0000
 21
47.0000
 31
0.0000
  0
LINE
  8
30
 10
62.0000
 20
47.0000
 30
0.0000
 11
62.0000
 21
52.0000
 31
0.0000
  0
LINE
  8
30
 10
62.0000
 20
52.0000
 30
0.0000
 11
59.0000
 21
52.0000
 31
0.0000
  0
LINE
  8
30
 10
59.0000
 20
52.0000
 30
0.0000
 11
59.0000
 21
42.0000
 31
0.0000
  0
LINE
  8
30
 10
59.0000
 20
42.0000
 30
0.0000
 11
59.0246
 21
41.6871
 31
0.0000
  0
LINE
  8
30
 10
59.0246
 20
41.6871
 30
0.0000
 11
59.0979
 21
41.3820
 31
0.0000
  0
LINE
  8
30
 10
59.0979
 20
41.3820
 30
0.0000
 11
59.2180
 21
41.0920
 31
0.0000
  0
LINE
  8
30
 10
59.2180
 20
41.0920
 30
0.0000
 11
59.3820
 21
40.8244
 31
0.0000
  0
LINE
  8
30
 10
59.3820
 20
40.8244
 30
0.0000
 11
59.5858
 21
40.5858
 31
0.0000
  0
LINE
  8
30
 10
59.5858
 20
40.5858
 30
0.0000
 11
59.8244
 21
40.3820
 31
0.0000
  0
LINE
  8
30
 10
59.8244
 20
40.3820
 30
0.0000
 11
60.0920
 21
40.2180
 31
0.0000
  0
LINE
  8
30
 10
60.0920
 20
40.2180
 30
0.0000
 11
60.3820
 21
40.0979
 31
0.0000
  0
LINE
  8
30
 10
60.3820
 20
40.0979
 30
0.0000
 11
60.6871
 21
40.0246
 31
0.0000
  0
LINE
  8
30
 10
60.6871
 20
40.0246
 30
0.0000
 11
61.0000
 21
40.0000
 31
0.0000
  0
LINE
  8
30
 10
61.0000
 20
40.0000
 30
0.0000
 11
76.0000
 21
40.0000
 31
0.0000
  0
LINE
  8
30
 10
76.0000
 20
40.0000
 30
0.0000
 11
76.5221
 21
40.0342
 31
0.0000
  0
LINE
  8
30
 10
76.5221
 20
40.0342
 30
0.0000
 11
77.0353
 21
40.1363
 31
0.0000
  0
LINE
  8
30
 10
77.0353
 20
40.1363
 30
0.0000
 11
77.5307
 21
40.3045
 31
0.0000
  0
LINE
  8
30
 10
77.5307
 20
40.3045
 30
0.0000
 11
78.0000
 21
40.5359
 31
0.0000
  0
LINE
  8
30
 10
78.0000
 20
40.5359
 30
0.0000
 11
78.4350
 21
40.8266
 31
0.0000
  0
LINE
  8
30
 10
78.4350
 20
40.8266
 30
0.0000
 11
78.8284
 21
41.1716
 31
0.0000
  0
LINE
  8
30
 10
78.8284
 20
41.1716
 30
0.0000
 11
79.1734
 21
41.5650
 31
0.0000
  0
LINE
  8
30
 10
79.1734
 20
41.5650
 30
0.0000
 11
79.4641
 21
42.0000
 31
0.0000
  0
LINE
  8
30
 10
79.4641
 20
42.0000
 30
0.0000
 11
79.6955
 21
42.4693
 31
0.0000
  0
LINE
  8
30
 10
79.6955
 20
42.4693
 30
0.0000
 11
79.8637
 21
42.9647
 31
0.0000
  0
LINE
  8
30
 10
79.8637
 20
42.9647
 30
0.0000
 11
79.9658
 21
43.4779
 31
0.0000
  0
LINE
  8
30
 10
79.9658
 20
43.4779
 30
0.0000
 11
80.0000
 21
44.0000
 31
0.0000
  0
LINE
  8
30
 10
80.0000
 20
44.0000
 30
0.0000
 11
80.0305
 21
44.4269
 31
0.0000
  0
LINE
  8
30
 10
80.0305
 20
44.4269
 30
0.0000
 11
80.1215
 21
44.8452
 31
0.0000
  0
LINE
  8
30
 10
80.1215
 20
44.8452
 30
0.0000
 11
80.2711
 21
45.2462
 31
0.0000
  0
LINE
  8
30
 10
80.2711
 20
45.2462
 30
0.0000
 11
80.4762
 21
45.6219
 31
0.0000
  0
LINE
  8
30
 10
80.4762
 20
45.6219
 30
0.0000
 11
80.7328
 21
45.9646
 31
0.0000
  0
LINE
  8
30
 10
80.7328
 20
45.9646
 30
0.0000
 11
81.0354
 21
46.2673
 31
0.0000
  0
LINE
  8
30
 10
81.0354
 20
46.2673
 30
0.0000
 11
81.3781
 21
46.5238
 31
0.0000
  0
LINE
  8
30
 10
81.3781
 20
46.5238
 30
0.0000
 11
81.7538
 21
46.7289
 31
0.0000
  0
LINE
  8
30
 10
81.7538
 20
46.7289
 30
0.0000
 11
82.1548
 21
46.8785
 31
0.0000
  0
LINE
  8
30
 10
82.1548
 20
46.8785
 30
0.0000
 11
82.5731
 21
46.9695
 31
0.0000
  0
LINE
  8
30
 10
82.5731
 20
46.9695
 30
0.0000
 11
83.0000
 21
47.0000
 31
0.0000
  0
LINE
  8
30
 10
83.0000
 20
47.0000
 30
0.0000
 11
96.0000
 21
47.0000
 31
0.0000
  0
LINE
  8
30
 10
96.0000
 20
47.0000
 30
0.0000
 11
96.6417
 21
46.9586
 31
0.0000
  0
LINE
  8
30
 10
96.6417
 20
46.9586
 30
0.0000
 11
97.2728
 21
46.8353
 31
0.0000
  0
LINE
  8
30
 10
97.2728
 20
46.8353
 30
0.0000
 11
97.8829
 21
46.6319
 31
0.0000
  0
LINE
  8
30
 10
97.8829
 20
46.6319
 30
0.0000
 11
98.4618
 21
46.3520
 31
0.0000
  0
LINE
  8
30
 10
98.4618
 20
46.3520
 30
0.0000
 11
99.0000
 21
46.0000
 31
0.0000
  0
LINE
  8
30
 10
99.0000
 20
46.0000
 30
0.0000
 11
99.5382
 21
45.6480
 31
0.0000
  0
LINE
  8
30
 10
99.5382
 20
45.6480
 30
0.0000
 11
100.1171
 21
45.3681
 31
0.0000
  0
LINE
  8
30
 10
100.1171
 20
45.3681
 30
0.0000
 11
100.7272
 21
45.1647
 31
0.0000
  0
LINE
  8
30
 10
100.7272
 20
45.1647
 30
0.0000
 11
101.3583
 21
45.0414
 31
0.0000
  0
LINE
  8
30
 10
101.3583
 20
45.0414
 30
0.0000
 11
102.0000
 21
45.0000
 31
0.0000
  0
LINE
  8
30
 10
102.0000
 20
45.0000
 30
0.0000
 11
102.3129
 21
44.9754
 31
0.0000
  0
LINE
  8
30
 10
102.3129
 20
44.9754
 30
0.0000
 11
102.6180
 21
44.9021
 31
0.0000
  0
LINE
  8
30
 10
102.6180
 20
44.9021
 30
0.0000
 11
102.9080
 21
44.7820
 31
0.0000
  0
LINE
  8
30
 10
102.9080
 20
44.7820
 30
0.0000
 11
103.1756
 21
44.6180
 31
0.0000
  0
LINE
  8
30
 10
103.1756
 20
44.6180
 30
0.0000
 11
103.4142
 21
44.4142
 31
0.0000
  0
LINE
  8
30
 10
103.4142
 20
44.4142
 30
0.0000
 11
103.6180
 21
44.1756
 31
0.0000
  0
LINE
  8
30
 10
103.6180
 20
44.1756
 30
0.0000
 11
103.7820
 21
43.9080
 31
0.0000
  0
LINE
  8
30
 10
103.7820
 20
43.9080
 30
0.0000
 11
103.9021
 21
43.6180
 31
0.0000
  0
LINE
  8
30
 10
103.9021
 20
43.6180
 30
0.0000
 11
103.9754
 21
43.3129
 31
0.0000
  0
LINE
  8
30
 10
103.9754
 20
43.3129
 30
0.0000
 11
104.0000
 21
43.0000
 31
0.0000
  0
LINE
  8
30
 10
104.0000
 20
43.0000
 30
0.0000
 11
104.0000
 21
38.0000
 31
0.0000
  0
LINE
  8
30
 10
104.0000
 20
38.0000
 30
0.0000
 11
103.9695
 21
37.5731
 31
0.0000
  0
LINE
  8
30
 10
103.9695
 20
37.5731
 30
0.0000
 11
103.8785
 21
37.1548
 31
0.0000
  0
LINE
  8
30
 10
103.8785
 20
37.1548
 30
0.0000
 11
103.7289
 21
36.7538
 31
0.0000
  0
LINE
  8
30
 10
103.7289
 20
36.7538
 30
0.0000
 11
103.5238
 21
36.3781
 31
0.0000
  0
LINE
  8
30
 10
103.5238
 20
36.3781
 30
0.0000
 11
103.2673
 21
36.0354
 31
0.0000
  0
LINE
  8
30
 10
103.2673
 20
36.0354
 30
0.0000
 11
102.9646
 21
35.7328
 31
0.0000
  0
LINE
  8
30
 10
102.9646
 20
35.7328
 30
0.0000
 11
102.6219
 21
35.4762
 31
0.0000
  0
LINE
  8
30
 10
102.6219
 20
35.4762
 30
0.0000
 11
102.2462
 21
35.2711
 31
0.0000
  0
LINE
  8
30
 10
102.2462
 20
35.2711
 30
0.0000
 11
101.8452
 21
35.1215
 31
0.0000
  0
LINE
  8
30
 10
101.8452
 20
35.1215
 30
0.0000
 11
101.4269
 21
35.0305
 31
0.0000
  0
LINE
  8
30
 10
101.4269
 20
35.0305
 30
0.0000
 11
101.0000
 21
35.0000
 31
0.0000
  0
LINE
  8
30
 10
101.0000
 20
35.0000
 30
0.0000
 11
99.0000
 21
35.0000
 31
0.0000
  0
LINE
  8
30
 10
99.0000
 20
35.0000
 30
0.0000
 11
99.0000
 21
30.0000
 31
0.0000
  0
LINE
  8
30
 10
122.0000
 20
66.0000
 30
0.0000
 11
122.0000
 21
96.0000
 31
0.0000
  0
LINE
  8
30
 10
122.0000
 20
96.0000
 30
0.0000
 11
116.0000
 21
96.0000
 31
0.0000
  0
LINE
  8
30
 10
116.0000
 20
96.0000
 30
0.0000
 11
116.0000
 21
92.8000
 31
0.0000
  0
LINE
  8
30
 10
116.0000
 20
92.8000
 30
0.0000
 11
116.4269
 21
92.7695
 31
0.0000
  0
LINE
  8
30
 10
116.4269
 20
92.7695
 30
0.0000
 11
116.8452
 21
92.6785
 31
0.0000
  0
LINE
  8
30
 10
116.8452
 20
92.6785
 30
0.0000
 11
117.2462
 21
92.5289
 31
0.0000
  0
LINE
  8
30
 10
117.2462
 20
92.5289
 30
0.0000
 11
117.6219
 21
92.3238
 31
0.0000
  0
LINE
  8
30
 10
117.6219
 20
92.3238
 30
0.0000
 11
117.9646
 21
92.0673
 31
0.0000
  0
LINE
  8
30
 10
117.9646
 20
92.0673
 30
0.0000
 11
118.2673
 21
91.7646
 31
0.0000
  0
LINE
  8
30
 10
118.2673
 20
91.7646
 30
0.0000
 11
118.5238
 21
91.4219
 31
0.0000
  0
LINE
  8
30
 10
118.5238
 20
91.4219
 30
0.0000
 11
118.7289
 21
91.0462
 31
0.0000
  0
LINE
  8
30
 10
118.7289
 20
91.0462
 30
0.0000
 11
118.8785
 21
90.6452
 31
0.0000
  0
LINE
  8
30
 10
118.8785
 20
90.6452
 30
0.0000
 11
118.9695
 21
90.2269
 31
0.0000
  0
LINE
  8
30
 10
118.9695
 20
90.2269
 30
0.0000
 11
119.0000
 21
89.8000
 31
0.0000
  0
LINE
  8
30
 10
119.0000
 20
89.8000
 30
0.0000
 11
119.0000
 21
68.0000
 31
0.0000
  0
LINE
  8
30
 10
119.0000
 20
68.0000
 30
0.0000
 11
118.9754
 21
67.6871
 31
0.0000
  0
LINE
  8
30
 10
118.9754
 20
67.6871
 30
0.0000
 11
118.9021
 21
67.3820
 31
0.0000
  0
LINE
  8
30
 10
118.9021
 20
67.3820
 30
0.0000
 11
118.7820
 21
67.0920
 31
0.0000
  0
LINE
  8
30
 10
118.7820
 20
67.0920
 30
0.0000
 11
118.6180
 21
66.8244
 31
0.0000
  0
LINE
  8
30
 10
118.6180
 20
66.8244
 30
0.0000
 11
118.4142
 21
66.5858
 31
0.0000
  0
LINE
  8
30
 10
118.4142
 20
66.5858
 30
0.0000
 11
118.1756
 21
66.3820
 31
0.0000
  0
LINE
  8
30
 10
118.1756
 20
66.3820
 30
0.0000
 11
117.9080
 21
66.2180
 31
0.0000
  0
LINE
  8
30
 10
117.9080
 20
66.2180
 30
0.0000
 11
117.6180
 21
66.0979
 31
0.0000
  0
LINE
  8
30
 10
117.6180
 20
66.0979
 30
0.0000
 11
117.3129
 21
66.0246
 31
0.0000
  0
LINE
  8
30
 10
117.3129
 20
66.0246
 30
0.0000
 11
117.0000
 21
66.0000
 31
0.0000
  0
LINE
  8
30
 10
117.0000
 20
66.0000
 30
0.0000
 11
122.0000
 21
66.0000
 31
0.0000
  0
LINE
  8
30
 10
9.0000
 20
60.0000
 30
0.0000
 11
9.0000
 21
57.0000
 31
0.0000
  0
LINE
  8
30
 10
9.0000
 20
57.0000
 30
0.0000
 11
11.0000
 21
57.0000
 31
0.0000
  0
LINE
  8
30
 10
11.0000
 20
57.0000
 30
0.0000
 11
12.3589
 21
56.9288
 31
0.0000
  0
LINE
  8
30
 10
12.3589
 20
56.9288
 30
0.0000
 11
13.7029
 21
56.7159
 31
0.0000
  0
LINE
  8
30
 10
13.7029
 20
56.7159
 30
0.0000
 11
15.0172
 21
56.3637
 31
0.0000
  0
LINE
  8
30
 10
15.0172
 20
56.3637
 30
0.0000
 11
16.2876
 21
55.8761
 31
0.0000
  0
LINE
  8
30
 10
16.2876
 20
55.8761
 30
0.0000
 11
17.5000
 21
55.2583
 31
0.0000
  0
LINE
  8
30
 10
17.5000
 20
55.2583
 30
0.0000
 11
18.6412
 21
54.5172
 31
0.0000
  0
LINE
  8
30
 10
18.6412
 20
54.5172
 30
0.0000
 11
19.6987
 21
53.6609
 31
0.0000
  0
LINE
  8
30
 10
19.6987
 20
53.6609
 30
0.0000
 11
20.6609
 21
52.6987
 31
0.0000
  0
LINE
  8
30
 10
20.6609
 20
52.6987
 30
0.0000
 11
21.5172
 21
51.6412
 31
0.0000
  0
LINE
  8
30
 10
21.5172
 20
51.6412
 30
0.0000
 11
22.2583
 21
50.5000
 31
0.0000
  0
LINE
  8
30
 10
22.2583
 20
50.5000
 30
0.0000
 11
22.8761
 21
49.2876
 31
0.0000
  0
LINE
  8
30
 10
22.8761
 20
49.2876
 30
0.0000
 11
23.3637
 21
48.0172
 31
0.0000
  0
LINE
  8
30
 10
23.3637
 20
48.0172
 30
0.0000
 11
23.7159
 21
46.7029
 31
0.0000
  0
LINE
  8
30
 10
23.7159
 20
46.7029
 30
0.0000
 11
23.9288
 21
45.3589
 31
0.0000
  0
LINE
  8
30
 10
23.9288
 20
45.3589
 30
0.0000
 11
24.0000
 21
44.0000
 31
0.0000
  0
LINE
  8
30
 10
24.0000
 20
44.0000
 30
0.0000
 11
24.0000
 21
34.0000
 31
0.0000
  0
LINE
  8
30
 10
24.0000
 20
34.0000
 30
0.0000
 11
23.9742
 21
33.6184
 31
0.0000
  0
LINE
  8
30
 10
23.9742
 20
33.6184
 30
0.0000
 11
23.8972
 21
33.2437
 31
0.0000
  0
LINE
  8
30
 10
23.8972
 20
33.2437
 30
0.0000
 11
23.7704
 21
32.8828
 31
0.0000
  0
LINE
  8
30
 10
23.7704
 20
32.8828
 30
0.0000
 11
23.5962
 21
32.5423
 31
0.0000
  0
LINE
  8
30
 10
23.5962
 20
32.5423
 30
0.0000
 11
23.3777
 21
32.2283
 31
0.0000
  0
LINE
  8
30
 10
23.3777
 20
32.2283
 30
0.0000
 11
23.1190
 21
31.9466
 31
0.0000
  0
LINE
  8
30
 10
23.1190
 20
31.9466
 30
0.0000
 11
22.8246
 21
31.7024
 31
0.0000
  0
LINE
  8
30
 10
22.8246
 20
31.7024
 30
0.0000
 11
22.5000
 21
31.5000
 31
0.0000
  0
LINE
  8
30
 10
22.5000
 20
31.5000
 30
0.0000
 11
22.1754
 21
31.2976
 31
0.0000
  0
LINE
  8
30
 10
22.1754
 20
31.2976
 30
0.0000
 11
21.8810
 21
31.0534
 31
0.0000
  0
LINE
  8
30
 10
21.8810
 20
31.0534
 30
0.0000
 11
21.6223
 21
30.7717
 31
0.0000
  0
LINE
  8
30
 10
21.6223
 20
30.7717
 30
0.0000
 11
21.4038
 21
30.4577
 31
0.0000
  0
LINE
  8
30
 10
21.4038
 20
30.4577
 30
0.0000
 11
21.2296
 21
30.1172
 31
0.0000
  0
LINE
  8
30
 10
21.2296
 20
30.1172
 30
0.0000
 11
21.1028
 21
29.7563
 31
0.0000
  0
LINE
  8
30
 10
21.1028
 20
29.7563
 30
0.0000
 11
21.0258
 21
29.3816
 31
0.0000
  0
LINE
  8
30
 10
21.0258
 20
29.3816
 30
0.0000
 11
21.0000
 21
29.0000
 31
0.0000
  0
LINE
  8
30
 10
21.0000
 20
29.0000
 30
0.0000
 11
21.0000
 21
28.0000
 31
0.0000
  0
LINE
  8
30
 10
21.0000
 20
28.0000
 30
0.0000
 11
21.0258
 21
27.6184
 31
0.0000
  0
LINE
  8
30
 10
21.0258
 20
27.6184
 30
0.0000
 11
21.1028
 21
27.2437
 31
0.0000
  0
LINE
  8
30
 10
21.1028
 20
27.2437
 30
0.0000
 11
21.2296
 21
26.8828
 31
0.0000
  0
LINE
  8
30
 10
21.2296
 20
26.8828
 30
0.0000
 11
21.4038
 21
26.5423
 31
0.0000
  0
LINE
  8
30
 10
21.4038
 20
26.5423
 30
0.0000
 11
21.6223
 21
26.2283
 31
0.0000
  0
LINE
  8
30
 10
21.6223
 20
26.2283
 30
0.0000
 11
21.8810
 21
25.9466
 31
0.0000
  0
LINE
  8
30
 10
21.8810
 20
25.9466
 30
0.0000
 11
22.1754
 21
25.7024
 31
0.0000
  0
LINE
  8
30
 10
22.1754
 20
25.7024
 30
0.0000
 11
22.5000
 21
25.5000
 31
0.0000
  0
LINE
  8
30
 10
22.5000
 20
25.5000
 30
0.0000
 11
22.8246
 21
25.2976
 31
0.0000
  0
LINE
  8
30
 10
22.8246
 20
25.2976
 30
0.0000
 11
23.1190
 21
25.0534
 31
0.0000
  0
LINE
  8
30
 10
23.1190
 20
25.0534
 30
0.0000
 11
23.3777
 21
24.7717
 31
0.0000
  0
LINE
  8
30
 10
23.3777
 20
24.7717
 30
0.0000
 11
23.5962
 21
24.4577
 31
0.0000
  0
LINE
  8
30
 10
23.5962
 20
24.4577
 30
0.0000
 11
23.7704
 21
24.1172
 31
0.0000
  0
LINE
  8
30
 10
23.7704
 20
24.1172
 30
0.0000
 11
23.8972
 21
23.7563
 31
0.0000
  0
LINE
  8
30
 10
23.8972
 20
23.7563
 30
0.0000
 11
23.9742
 21
23.3816
 31
0.0000
  0
LINE
  8
30
 10
23.9742
 20
23.3816
 30
0.0000
 11
24.0000
 21
23.0000
 31
0.0000
  0
LINE
  8
30
 10
24.0000
 20
23.0000
 30
0.0000
 11
24.0000
 21
17.0000
 31
0.0000
  0
LINE
  8
30
 10
24.0000
 20
17.0000
 30
0.0000
 11
24.0428
 21
16.3474
 31
0.0000
  0
LINE
  8
30
 10
24.0428
 20
16.3474
 30
0.0000
 11
24.1704
 21
15.7059
 31
0.0000
  0
LINE
  8
30
 10
24.1704
 20
15.7059
 30
0.0000
 11
24.3806
 21
15.0866
 31
0.0000
  0
LINE
  8
30
 10
24.3806
 20
15.0866
 30
0.0000
 11
24.6699
 21
14.5000
 31
0.0000
  0
LINE
  8
30
 10
24.6699
 20
14.5000
 30
0.0000
 11
25.0332
 21
13.9562
 31
0.0000
  0
LINE
  8
30
 10
25.0332
 20
13.9562
 30
0.0000
 11
25.4645
 21
13.4645
 31
0.0000
  0
LINE
  8
30
 10
25.4645
 20
13.4645
 30
0.0000
 11
25.9562
 21
13.0332
 31
0.0000
  0
LINE
  8
30
 10
25.9562
 20
13.0332
 30
0.0000
 11
26.5000
 21
12.6699
 31
0.0000
  0
LINE
  8
30
 10
26.5000
 20
12.6699
 30
0.0000
 11
27.0866
 21
12.3806
 31
0.0000
  0
LINE
  8
30
 10
27.0866
 20
12.3806
 30
0.0000
 11
27.7059
 21
12.1704
 31
0.0000
  0
LINE
  8
30
 10
27.7059
 20
12.1704
 30
0.0000
 11
28.3474
 21
12.0428
 31
0.0000
  0
LINE
  8
30
 10
28.3474
 20
12.0428
 30
0.0000
 11
29.0000
 21
12.0000
 31
0.0000
  0
LINE
  8
30
 10
29.0000
 20
12.0000
 30
0.0000
 11
29.6604
 21
11.9562
 31
0.0000
  0
LINE
  8
30
 10
29.6604
 20
11.9562
 30
0.0000
 11
30.3093
 21
11.8255
 31
0.0000
  0
LINE
  8
30
 10
30.3093
 20
11.8255
 30
0.0000
 11
30.9352
 21
11.6103
 31
0.0000
  0
LINE
  8
30
 10
30.9352
 20
11.6103
 30
0.0000
 11
31.5272
 21
11.3143
 31
0.0000
  0
LINE
  8
30
 10
31.5272
 20
11.3143
 30
0.0000
 11
32.0749
 21
10.9427
 31
0.0000
  0
LINE
  8
30
 10
32.0749
 20
10.9427
 30
0.0000
 11
32.5687
 21
10.5021
 31
0.0000
  0
LINE
  8
30
 10
32.5687
 20
10.5021
 30
0.0000
 11
33.0000
 21
10.0000
 31
0.0000
  0
LINE
  8
30
 10
33.0000
 20
10.0000
 30
0.0000
 11
33.7446
 21
10.7689
 31
0.0000
  0
LINE
  8
30
 10
33.7446
 20
10.7689
 30
0.0000
 11
34.4133
 21
11.6048
 31
0.0000
  0
LINE
  8
30
 10
34.4133
 20
11.6048
 30
0.0000
 11
35.0000
 21
12.5000
 31
0.0000
  0
LINE
  8
30
 10
35.0000
 20
12.5000
 30
0.0000
 11
35.0000
 21
13.0000
 31
0.0000
  0
LINE
  8
30
 10
35.0000
 20
13.0000
 30
0.0000
 11
34.9754
 21
13.3129
 31
0.0000
  0
LINE
  8
30
 10
34.9754
 20
13.3129
 30
0.0000
 11
34.9021
 21
13.6180
 31
0.0000
  0
LINE
  8
30
 10
34.9021
 20
13.6180
 30
0.0000
 11
34.7820
 21
13.9080
 31
0.0000
  0
LINE
  8
30
 10
34.7820
 20
13.9080
 30
0.0000
 11
34.6180
 21
14.1756
 31
0.0000
  0
LINE
  8
30
 10
34.6180
 20
14.1756
 30
0.0000
 11
34.4142
 21
14.4142
 31
0.0000
  0
LINE
  8
30
 10
34.4142
 20
14.4142
 30
0.0000
 11
34.1756
 21
14.6180
 31
0.0000
  0
LINE
  8
30
 10
34.1756
 20
14.6180
 30
0.0000
 11
33.9080
 21
14.7820
 31
0.0000
  0
LINE
  8
30
 10
33.9080
 20
14.7820
 30
0.0000
 11
33.6180
 21
14.9021
 31
0.0000
  0
LINE
  8
30
 10
33.6180
 20
14.9021
 30
0.0000
 11
33.3129
 21
14.9754
 31
0.0000
  0
LINE
  8
30
 10
33.3129
 20
14.9754
 30
0.0000
 11
33.0000
 21
15.0000
 31
0.0000
  0
LINE
  8
30
 10
33.0000
 20
15.0000
 30
0.0000
 11
29.0000
 21
15.0000
 31
0.0000
  0
LINE
  8
30
 10
29.0000
 20
15.0000
 30
0.0000
 11
28.6871
 21
15.0246
 31
0.0000
  0
LINE
  8
30
 10
28.6871
 20
15.0246
 30
0.0000
 11
28.3820
 21
15.0979
 31
0.0000
  0
LINE
  8
30
 10
28.3820
 20
15.0979
 30
0.0000
 11
28.0920
 21
15.2180
 31
0.0000
  0
LINE
  8
30
 10
28.0920
 20
15.2180
 30
0.0000
 11
27.8244
 21
15.3820
 31
0.0000
  0
LINE
  8
30
 10
27.8244
 20
15.3820
 30
0.0000
 11
27.5858
 21
15.5858
 31
0.0000
  0
LINE
  8
30
 10
27.5858
 20
15.5858
 30
0.0000
 11
27.3820
 21
15.8244
 31
0.0000
  0
LINE
  8
30
 10
27.3820
 20
15.8244
 30
0.0000
 11
27.2180
 21
16.0920
 31
0.0000
  0
LINE
  8
30
 10
27.2180
 20
16.0920
 30
0.0000
 11
27.0979
 21
16.3820
 31
0.0000
  0
LINE
  8
30
 10
27.0979
 20
16.3820
 30
0.0000
 11
27.0246
 21
16.6871
 31
0.0000
  0
LINE
  8
30
 10
27.0246
 20
16.6871
 30
0.0000
 11
27.0000
 21
17.0000
 31
0.0000
  0
LINE
  8
30
 10
27.0000
 20
17.0000
 30
0.0000
 11
27.0000
 21
44.0000
 31
0.0000
  0
LINE
  8
30
 10
27.0000
 20
44.0000
 30
0.0000
 11
27.0246
 21
44.3129
 31
0.0000
  0
LINE
  8
30
 10
27.0246
 20
44.3129
 30
0.0000
 11
27.0979
 21
44.6180
 31
0.0000
  0
LINE
  8
30
 10
27.0979
 20
44.6180
 30
0.0000
 11
27.2180
 21
44.9080
 31
0.0000
  0
LINE
  8
30
 10
27.2180
 20
44.9080
 30
0.0000
 11
27.3820
 21
45.1756
 31
0.0000
  0
LINE
  8
30
 10
27.3820
 20
45.1756
 30
0.0000
 11
27.5858
 21
45.4142
 31
0.0000
  0
LINE
  8
30
 10
27.5858
 20
45.4142
 30
0.0000
 11
27.8244
 21
45.6180
 31
0.0000
  0
LINE
  8
30
 10
27.8244
 20
45.6180
 30
0.0000
 11
28.0920
 21
45.7820
 31
0.0000
  0
LINE
  8
30
 10
28.0920
 20
45.7820
 30
0.0000
 11
28.3820
 21
45.9021
 31
0.0000
  0
LINE
  8
30
 10
28.3820
 20
45.9021
 30
0.0000
 11
28.6871
 21
45.9754
 31
0.0000
  0
LINE
  8
30
 10
28.6871
 20
45.9754
 30
0.0000
 11
29.0000
 21
46.0000
 31
0.0000
  0
LINE
  8
30
 10
29.0000
 20
46.0000
 30
0.0000
 11
38.0000
 21
46.0000
 31
0.0000
  0
LINE
  8
30
 10
38.0000
 20
46.0000
 30
0.0000
 11
38.3129
 21
45.9754
 31
0.0000
  0
LINE
  8
30
 10
38.3129
 20
45.9754
 30
0.0000
 11
38.6180
 21
45.9021
 31
0.0000
  0
LINE
  8
30
 10
38.6180
 20
45.9021
 30
0.0000
 11
38.9080
 21
45.7820
 31
0.0000
  0
LINE
  8
30
 10
38.9080
 20
45.7820
 30
0.0000
 11
39.1756
 21
45.6180
 31
0.0000
  0
LINE
  8
30
 10
39.1756
 20
45.6180
 30
0.0000
 11
39.4142
 21
45.4142
 31
0.0000
  0
LINE
  8
30
 10
39.4142
 20
45.4142
 30
0.0000
 11
39.6180
 21
45.1756
 31
0.0000
  0
LINE
  8
30
 10
39.6180
 20
45.1756
 30
0.0000
 11
39.7820
 21
44.9080
 31
0.0000
  0
LINE
  8
30
 10
39.7820
 20
44.9080
 30
0.0000
 11
39.9021
 21
44.6180
 31
0.0000
  0
LINE
  8
30
 10
39.9021
 20
44.6180
 30
0.0000
 11
39.9754
 21
44.3129
 31
0.0000
  0
LINE
  8
30
 10
39.9754
 20
44.3129
 30
0.0000
 11
40.0000
 21
44.0000
 31
0.0000
  0
LINE
  8
30
 10
40.0000
 20
44.0000
 30
0.0000
 11
40.0000
 21
41.0000
 31
0.0000
  0
LINE
  8
30
 10
40.0000
 20
41.0000
 30
0.0000
 11
40.0603
 21
39.8502
 31
0.0000
  0
LINE
  8
30
 10
40.0603
 20
39.8502
 30
0.0000
 11
40.2404
 21
38.7130
 31
0.0000
  0
LINE
  8
30
 10
40.2404
 20
38.7130
 30
0.0000
 11
40.5384
 21
37.6008
 31
0.0000
  0
LINE
  8
30
 10
40.5384
 20
37.6008
 30
0.0000
 11
40.9510
 21
36.5259
 31
0.0000
  0
LINE
  8
30
 10
40.9510
 20
36.5259
 30
0.0000
 11
41.4737
 21
35.5000
 31
0.0000
  0
LINE
  8
30
 10
41.4737
 20
35.5000
 30
0.0000
 11
42.1008
 21
34.5344
 31
0.0000
  0
LINE
  8
30
 10
42.1008
 20
34.5344
 30
0.0000
 11
42.8254
 21
33.6396
 31
0.0000
  0
LINE
  8
30
 10
42.8254
 20
33.6396
 30
0.0000
 11
43.6396
 21
32.8254
 31
0.0000
  0
LINE
  8
30
 10
43.6396
 20
32.8254
 30
0.0000
 11
44.5344
 21
32.1008
 31
0.0000
  0
LINE
  8
30
 10
44.5344
 20
32.1008
 30
0.0000
 11
45.5000
 21
31.4737
 31
0.0000
  0
LINE
  8
30
 10
45.5000
 20
31.4737
 30
0.0000
 11
46.5259
 21
30.9510
 31
0.0000
  0
LINE
  8
30
 10
46.5259
 20
30.9510
 30
0.0000
 11
47.6008
 21
30.5384
 31
0.0000
  0
LINE
  8
30
 10
47.6008
 20
30.5384
 30
0.0000
 11
48.7130
 21
30.2404
 31
0.0000
  0
LINE
  8
30
 10
48.7130
 20
30.2404
 30
0.0000
 11
49.8502
 21
30.0603
 31
0.0000
  0
LINE
  8
30
 10
49.8502
 20
30.0603
 30
0.0000
 11
51.0000
 21
30.0000
 31
0.0000
  0
LINE
  8
30
 10
51.0000
 20
30.0000
 30
0.0000
 11
51.5221
 21
29.9658
 31
0.0000
  0
LINE
  8
30
 10
51.5221
 20
29.9658
 30
0.0000
 11
52.0353
 21
29.8637
 31
0.0000
  0
LINE
  8
30
 10
52.0353
 20
29.8637
 30
0.0000
 11
52.5307
 21
29.6955
 31
0.0000
  0
LINE
  8
30
 10
52.5307
 20
29.6955
 30
0.0000
 11
53.0000
 21
29.4641
 31
0.0000
  0
LINE
  8
30
 10
53.0000
 20
29.4641
 30
0.0000
 11
53.4350
 21
29.1734
 31
0.0000
  0
LINE
  8
30
 10
53.4350
 20
29.1734
 30
0.0000
 11
53.8284
 21
28.8284
 31
0.0000
  0
LINE
  8
30
 10
53.8284
 20
28.8284
 30
0.0000
 11
54.1734
 21
28.4350
 31
0.0000
  0
LINE
  8
30
 10
54.1734
 20
28.4350
 30
0.0000
 11
54.4641
 21
28.0000
 31
0.0000
  0
LINE
  8
30
 10
54.4641
 20
28.0000
 30
0.0000
 11
54.6955
 21
27.5307
 31
0.0000
  0
LINE
  8
30
 10
54.6955
 20
27.5307
 30
0.0000
 11
54.8637
 21
27.0353
 31
0.0000
  0
LINE
  8
30
 10
54.8637
 20
27.0353
 30
0.0000
 11
54.9658
 21
26.5221
 31
0.0000
  0
LINE
  8
30
 10
54.9658
 20
26.5221
 30
0.0000
 11
55.0000
 21
26.0000
 31
0.0000
  0
LINE
  8
30
 10
55.0000
 20
26.0000
 30
0.0000
 11
55.0000
 21
9.0000
 31
0.0000
  0
LINE
  8
30
 10
55.0000
 20
9.0000
 30
0.0000
 11
58.0000
 21
9.0000
 31
0.0000
  0
LINE
  8
30
 10
58.0000
 20
9.0000
 30
0.0000
 11
58.0000
 21
32.0000
 31
0.0000
  0
LINE
  8
30
 10
58.0000
 20
32.0000
 30
0.0000
 11
57.9848
 21
32.1736
 31
0.0000
  0
LINE
  8
30
 10
57.9848
 20
32.1736
 30
0.0000
 11
57.9397
 21
32.3420
 31
0.0000
  0
LINE
  8
30
 10
57.9397
 20
32.3420
 30
0.0000
 11
57.8660
 21
32.5000
 31
0.0000
  0
LINE
  8
30
 10
57.8660
 20
32.5000
 30
0.0000
 11
57.7660
 21
32.6428
 31
0.0000
  0
LINE
  8
30
 10
57.7660
 20
32.6428
 30
0.0000
 11
57.6428
 21
32.7660
 31
0.0000
  0
LINE
  8
30
 10
57.6428
 20
32.7660
 30
0.0000
 11
57.5000
 21
32.8660
 31
0.0000
  0
LINE
  8
30
 10
57.5000
 20
32.8660
 30
0.0000
 11
57.3420
 21
32.9397
 31
0.0000
  0
LINE
  8
30
 10
57.3420
 20
32.9397
 30
0.0000
 11
57.1736
 21
32.9848
 31
0.0000
  0
LINE
  8
30
 10
57.1736
 20
32.9848
 30
0.0000
 11
57.0000
 21
33.0000
 31
0.0000
  0
LINE
  8
30
 10
57.0000
 20
33.0000
 30
0.0000
 11
51.0000
 21
33.0000
 31
0.0000
  0
LINE
  8
30
 10
51.0000
 20
33.0000
 30
0.0000
 11
50.1043
 21
33.0503
 31
0.0000
  0
LINE
  8
30
 10
50.1043
 20
33.0503
 30
0.0000
 11
49.2198
 21
33.2006
 31
0.0000
  0
LINE
  8
30
 10
49.2198
 20
33.2006
 30
0.0000
 11
48.3578
 21
33.4489
 31
0.0000
  0
LINE
  8
30
 10
48.3578
 20
33.4489
 30
0.0000
 11
47.5289
 21
33.7923
 31
0.0000
  0
LINE
  8
30
 10
47.5289
 20
33.7923
 30
0.0000
 11
46.7437
 21
34.2262
 31
0.0000
  0
LINE
  8
30
 10
46.7437
 20
34.2262
 30
0.0000
 11
46.0121
 21
34.7453
 31
0.0000
  0
LINE
  8
30
 10
46.0121
 20
34.7453
 30
0.0000
 11
45.3431
 21
35.3431
 31
0.0000
  0
LINE
  8
30
 10
45.3431
 20
35.3431
 30
0.0000
 11
44.7453
 21
36.0121
 31
0.0000
  0
LINE
  8
30
 10
44.7453
 20
36.0121
 30
0.0000
 11
44.2262
 21
36.7437
 31
0.0000
  0
LINE
  8
30
 10
44.2262
 20
36.7437
 30
0.0000
 11
43.7923
 21
37.5289
 31
0.0000
  0
LINE
  8
30
 10
43.7923
 20
37.5289
 30
0.0000
 11
43.4489
 21
38.3578
 31
0.0000
  0
LINE
  8
30
 10
43.4489
 20
38.3578
 30
0.0000
 11
43.2006
 21
39.2198
 31
0.0000
  0
LINE
  8
30
 10
43.2006
 20
39.2198
 30
0.0000
 11
43.0503
 21
40.1043
 31
0.0000
  0
LINE
  8
30
 10
43.0503
 20
40.1043
 30
0.0000
 11
43.0000
 21
41.0000
 31
0.0000
  0
LINE
  8
30
 10
43.0000
 20
41.0000
 30
0.0000
 11
43.0000
 21
45.0000
 31
0.0000
  0
LINE
  8
30
 10
43.0000
 20
45.0000
 30
0.0000
 11
43.0440
 21
45.7838
 31
0.0000
  0
LINE
  8
30
 10
43.0440
 20
45.7838
 30
0.0000
 11
43.1755
 21
46.5576
 31
0.0000
  0
LINE
  8
30
 10
43.1755
 20
46.5576
 30
0.0000
 11
43.3928
 21
47.3120
 31
0.0000
  0
LINE
  8
30
 10
43.3928
 20
47.3120
 30
0.0000
 11
43.6932
 21
48.0372
 31
0.0000
  0
LINE
  8
30
 10
43.6932
 20
48.0372
 30
0.0000
 11
44.0729
 21
48.7242
 31
0.0000
  0
LINE
  8
30
 10
44.0729
 20
48.7242
 30
0.0000
 11
44.5272
 21
49.3644
 31
0.0000
  0
LINE
  8
30
 10
44.5272
 20
49.3644
 30
0.0000
 11
45.0503
 21
49.9497
 31
0.0000
  0
LINE
  8
30
 10
45.0503
 20
49.9497
 30
0.0000
 11
45.6356
 21
50.4728
 31
0.0000
  0
LINE
  8
30
 10
45.6356
 20
50.4728
 30
0.0000
 11
46.2758
 21
50.9271
 31
0.0000
  0
LINE
  8
30
 10
46.2758
 20
50.9271
 30
0.0000
 11
46.9628
 21
51.3068
 31
0.0000
  0
LINE
  8
30
 10
46.9628
 20
51.3068
 30
0.0000
 11
47.6880
 21
51.6072
 31
0.0000
  0
LINE
  8
30
 10
47.6880
 20
51.6072
 30
0.0000
 11
48.4424
 21
51.8245
 31
0.0000
  0
LINE
  8
30
 10
48.4424
 20
51.8245
 30
0.0000
 11
49.2163
 21
51.9560
 31
0.0000
  0
LINE
  8
30
 10
49.2163
 20
51.9560
 30
0.0000
 11
50.0000
 21
52.0000
 31
0.0000
  0
LINE
  8
30
 10
50.0000
 20
52.0000
 30
0.0000
 11
62.0000
 21
52.0000
 31
0.0000
  0
LINE
  8
30
 10
62.0000
 20
52.0000
 30
0.0000
 11
62.0000
 21
54.0000
 31
0.0000
  0
LINE
  8
30
 10
62.0000
 20
54.0000
 30
0.0000
 11
62.0437
 21
54.7232
 31
0.0000
  0
LINE
  8
30
 10
62.0437
 20
54.7232
 30
0.0000
 11
62.1744
 21
55.4359
 31
0.0000
  0
LINE
  8
30
 10
62.1744
 20
55.4359
 30
0.0000
 11
62.3899
 21
56.1276
 31
0.0000
  0
LINE
  8
30
 10
62.3899
 20
56.1276
 30
0.0000
 11
62.6873
 21
56.7883
 31
0.0000
  0
LINE
  8
30
 10
62.6873
 20
56.7883
 30
0.0000
 11
63.0621
 21
57.4084
 31
0.0000
  0
LINE
  8
30
 10
63.0621
 20
57.4084
 30
0.0000
 11
63.5089
 21
57.9787
 31
0.0000
  0
LINE
  8
30
 10
63.5089
 20
57.9787
 30
0.0000
 11
64.0213
 21
58.4911
 31
0.0000
  0
LINE
  8
30
 10
64.0213
 20
58.4911
 30
0.0000
 11
64.5916
 21
58.9379
 31
0.0000
  0
LINE
  8
30
 10
64.5916
 20
58.9379
 30
0.0000
 11
65.2117
 21
59.3127
 31
0.0000
  0
LINE
  8
30
 10
65.2117
 20
59.3127
 30
0.0000
 11
65.8724
 21
59.6101
 31
0.0000
  0
LINE
  8
30
 10
65.8724
 20
59.6101
 30
0.0000
 11
66.5641
 21
59.8257
 31
0.0000
  0
LINE
  8
30
 10
66.5641
 20
59.8257
 30
0.0000
 11
67.2768
 21
59.9563
 31
0.0000
  0
LINE
  8
30
 10
67.2768
 20
59.9563
 30
0.0000
 11
68.0000
 21
60.0000
 31
0.0000
  0
LINE
  8
30
 10
68.0000
 20
60.0000
 30
0.0000
 11
75.0000
 21
60.0000
 31
0.0000
  0
LINE
  8
30
 10
75.0000
 20
60.0000
 30
0.0000
 11
75.0000
 21
63.0000
 31
0.0000
  0
LINE
  8
30
 10
75.0000
 20
63.0000
 30
0.0000
 11
68.0000
 21
63.0000
 31
0.0000
  0
LINE
  8
30
 10
68.0000
 20
63.0000
 30
0.0000
 11
67.0219
 21
62.9471
 31
0.0000
  0
LINE
  8
30
 10
67.0219
 20
62.9471
 30
0.0000
 11
66.0553
 21
62.7890
 31
0.0000
  0
LINE
  8
30
 10
66.0553
 20
62.7890
 30
0.0000
 11
65.1114
 21
62.5275
 31
0.0000
  0
LINE
  8
30
 10
65.1114
 20
62.5275
 30
0.0000
 11
64.2011
 21
62.1658
 31
0.0000
  0
LINE
  8
30
 10
64.2011
 20
62.1658
 30
0.0000
 11
63.3352
 21
61.7079
 31
0.0000
  0
LINE
  8
30
 10
63.3352
 20
61.7079
 30
0.0000
 11
62.5238
 21
61.1594
 31
0.0000
  0
LINE
  8
30
 10
62.5238
 20
61.1594
 30
0.0000
 11
61.7762
 21
60.5265
 31
0.0000
  0
LINE
  8
30
 10
61.7762
 20
60.5265
 30
0.0000
 11
61.1013
 21
59.8166
 31
0.0000
  0
LINE
  8
30
 10
61.1013
 20
59.8166
 30
0.0000
 11
60.5069
 21
59.0381
 31
0.0000
  0
LINE
  8
30
 10
60.5069
 20
59.0381
 30
0.0000
 11
60.0000
 21
58.2000
 31
0.0000
  0
LINE
  8
30
 10
60.0000
 20
58.2000
 30
0.0000
 11
59.7326
 21
57.6579
 31
0.0000
  0
LINE
  8
30
 10
59.7326
 20
57.6579
 30
0.0000
 11
59.5000
 21
57.1000
 31
0.0000
  0
LINE
  8
30
 10
59.5000
 20
57.1000
 30
0.0000
 11
59.2000
 21
56.3000
 31
0.0000
  0
LINE
  8
30
 10
59.2000
 20
56.3000
 30
0.0000
 11
59.0720
 21
56.0210
 31
0.0000
  0
LINE
  8
30
 10
59.0720
 20
56.0210
 30
0.0000
 11
58.9033
 21
55.7645
 31
0.0000
  0
LINE
  8
30
 10
58.9033
 20
55.7645
 30
0.0000
 11
58.6978
 21
55.5365
 31
0.0000
  0
LINE
  8
30
 10
58.6978
 20
55.5365
 30
0.0000
 11
58.4601
 21
55.3422
 31
0.0000
  0
LINE
  8
30
 10
58.4601
 20
55.3422
 30
0.0000
 11
58.1959
 21
55.1861
 31
0.0000
  0
LINE
  8
30
 10
58.1959
 20
55.1861
 30
0.0000
 11
57.9110
 21
55.0716
 31
0.0000
  0
LINE
  8
30
 10
57.9110
 20
55.0716
 30
0.0000
 11
57.6122
 21
55.0016
 31
0.0000
  0
LINE
  8
30
 10
57.6122
 20
55.0016
 30
0.0000
 11
57.3061
 21
54.9775
 31
0.0000
  0
LINE
  8
30
 10
57.3061
 20
54.9775
 30
0.0000
 11
57.0000
 21
55.0000
 31
0.0000
  0
LINE
  8
30
 10
57.0000
 20
55.0000
 30
0.0000
 11
50.0000
 21
55.0000
 31
0.0000
  0
LINE
  8
30
 10
50.0000
 20
55.0000
 30
0.0000
 11
48.9050
 21
54.9401
 31
0.0000
  0
LINE
  8
30
 10
48.9050
 20
54.9401
 30
0.0000
 11
47.8232
 21
54.7610
 31
0.0000
  0
LINE
  8
30
 10
47.8232
 20
54.7610
 30
0.0000
 11
46.7673
 21
54.4650
 31
0.0000
  0
LINE
  8
30
 10
46.7673
 20
54.4650
 30
0.0000
 11
45.7500
 21
54.0556
 31
0.0000
  0
LINE
  8
30
 10
45.7500
 20
54.0556
 30
0.0000
 11
44.7835
 21
53.5375
 31
0.0000
  0
LINE
  8
30
 10
44.7835
 20
53.5375
 30
0.0000
 11
43.8792
 21
52.9171
 31
0.0000
  0
LINE
  8
30
 10
43.8792
 20
52.9171
 30
0.0000
 11
43.0481
 21
52.2018
 31
0.0000
  0
LINE
  8
30
 10
43.0481
 20
52.2018
 30
0.0000
 11
42.3000
 21
51.4000
 31
0.0000
  0
LINE
  8
30
 10
42.3000
 20
51.4000
 30
0.0000
 11
42.0365
 21
51.1291
 31
0.0000
  0
LINE
  8
30
 10
42.0365
 20
51.1291
 30
0.0000
 11
41.7354
 21
50.9007
 31
0.0000
  0
LINE
  8
30
 10
41.7354
 20
50.9007
 30
0.0000
 11
41.4034
 21
50.7202
 31
0.0000
  0
LINE
  8
30
 10
41.4034
 20
50.7202
 30
0.0000
 11
41.0481
 21
50.5915
 31
0.0000
  0
LINE
  8
30
 10
41.0481
 20
50.5915
 30
0.0000
 11
40.6775
 21
50.5175
 31
0.0000
  0
LINE
  8
30
 10
40.6775
 20
50.5175
 30
0.0000
 11
40.3000
 21
50.5000
 31
0.0000
  0
LINE
  8
30
 10
40.3000
 20
50.5000
 30
0.0000
 11
26.5000
 21
50.5000
 31
0.0000
  0
LINE
  8
30
 10
26.5000
 20
50.5000
 30
0.0000
 11
26.2586
 21
50.5213
 31
0.0000
  0
LINE
  8
30
 10
26.2586
 20
50.5213
 30
0.0000
 11
26.0246
 21
50.5846
 31
0.0000
  0
LINE
  8
30
 10
26.0246
 20
50.5846
 30
0.0000
 11
25.8054
 21
50.6878
 31
0.0000
  0
LINE
  8
30
 10
25.8054
 20
50.6878
 30
0.0000
 11
25.6076
 21
50.8278
 31
0.0000
  0
LINE
  8
30
 10
25.6076
 20
50.8278
 30
0.0000
 11
25.4374
 21
51.0003
 31
0.0000
  0
LINE
  8
30
 10
25.4374
 20
51.0003
 30
0.0000
 11
25.3000
 21
51.2000
 31
0.0000
  0
LINE
  8
30
 10
25.3000
 20
51.2000
 30
0.0000
 11
25.2000
 21
51.4000
 31
0.0000
  0
LINE
  8
30
 10
25.2000
 20
51.4000
 30
0.0000
 11
24.5963
 21
52.6190
 31
0.0000
  0
LINE
  8
30
 10
24.5963
 20
52.6190
 30
0.0000
 11
23.8803
 21
53.7757
 31
0.0000
  0
LINE
  8
30
 10
23.8803
 20
53.7757
 30
0.0000
 11
23.0586
 21
54.8597
 31
0.0000
  0
LINE
  8
30
 10
23.0586
 20
54.8597
 30
0.0000
 11
22.1383
 21
55.8614
 31
0.0000
  0
LINE
  8
30
 10
22.1383
 20
55.8614
 30
0.0000
 11
21.1277
 21
56.7720
 31
0.0000
  0
LINE
  8
30
 10
21.1277
 20
56.7720
 30
0.0000
 11
20.0357
 21
57.5832
 31
0.0000
  0
LINE
  8
30
 10
20.0357
 20
57.5832
 30
0.0000
 11
18.8721
 21
58.2879
 31
0.0000
  0
LINE
  8
30
 10
18.8721
 20
58.2879
 30
0.0000
 11
17.6474
 21
58.8798
 31
0.0000
  0
LINE
  8
30
 10
17.6474
 20
58.8798
 30
0.0000
 11
16.3722
 21
59.3536
 31
0.0000
  0
LINE
  8
30
 10
16.3722
 20
59.3536
 30
0.0000
 11
15.0581
 21
59.7050
 31
0.0000
  0
LINE
  8
30
 10
15.0581
 20
59.7050
 30
0.0000
 11
13.7167
 21
59.9311
 31
0.0000
  0
LINE
  8
30
 10
13.7167
 20
59.9311
 30
0.0000
 11
12.3600
 21
60.0297
 31
0.0000
  0
LINE
  8
30
 10
12.3600
 20
60.0297
 30
0.0000
 11
11.0000
 21
60.0000
 31
0.0000
  0
LINE
  8
30
 10
11.0000
 20
60.0000
 30
0.0000
 11
9.0000
 21
60.0000
 31
0.0000
  0
LINE
  8
30
 10
9.0000
 20
57.0000
 30
0.0000
 11
9.0000
 21
60.0000
 31
0.0000
  0
LINE
  8
30
 10
9.0000
 20
60.0000
 30
0.0000
 11
5.0000
 21
60.0000
 31
0.0000
  0
LINE
  8
30
 10
5.0000
 20
60.0000
 30
0.0000
 11
4.6871
 21
60.0246
 31
0.0000
  0
LINE
  8
30
 10
4.6871
 20
60.0246
 30
0.0000
 11
4.3820
 21
60.0979
 31
0.0000
  0
LINE
  8
30
 10
4.3820
 20
60.0979
 30
0.0000
 11
4.0920
 21
60.2180
 31
0.0000
  0
LINE
  8
30
 10
4.0920
 20
60.2180
 30
0.0000
 11
3.8244
 21
60.3820
 31
0.0000
  0
LINE
  8
30
 10
3.8244
 20
60.3820
 30
0.0000
 11
3.5858
 21
60.5858
 31
0.0000
  0
LINE
  8
30
 10
3.5858
 20
60.5858
 30
0.0000
 11
3.3820
 21
60.8244
 31
0.0000
  0
LINE
  8
30
 10
3.3820
 20
60.8244
 30
0.0000
 11
3.2180
 21
61.0920
 31
0.0000
  0
LINE
  8
30
 10
3.2180
 20
61.0920
 30
0.0000
 11
3.0979
 21
61.3820
 31
0.0000
  0
LINE
  8
30
 10
3.0979
 20
61.3820
 30
0.0000
 11
3.0246
 21
61.6871
 31
0.0000
  0
LINE
  8
30
 10
3.0246
 20
61.6871
 30
0.0000
 11
3.0000
 21
62.0000
 31
0.0000
  0
LINE
  8
30
 10
3.0000
 20
62.0000
 30
0.0000
 11
3.0000
 21
89.0000
 31
0.0000
  0
LINE
  8
30
 10
3.0000
 20
89.0000
 30
0.0000
 11
3.0342
 21
89.5221
 31
0.0000
  0
LINE
  8
30
 10
3.0342
 20
89.5221
 30
0.0000
 11
3.1363
 21
90.0353
 31
0.0000
  0
LINE
  8
30
 10
3.1363
 20
90.0353
 30
0.0000
 11
3.3045
 21
90.5307
 31
0.0000
  0
LINE
  8
30
 10
3.3045
 20
90.5307
 30
0.0000
 11
3.5359
 21
91.0000
 31
0.0000
  0
LINE
  8
30
 10
3.5359
 20
91.0000
 30
0.0000
 11
3.8266
 21
91.4350
 31
0.0000
  0
LINE
  8
30
 10
3.8266
 20
91.4350
 30
0.0000
 11
4.1716
 21
91.8284
 31
0.0000
  0
LINE
  8
30
 10
4.1716
 20
91.8284
 30
0.0000
 11
4.5650
 21
92.1734
 31
0.0000
  0
LINE
  8
30
 10
4.5650
 20
92.1734
 30
0.0000
 11
5.0000
 21
92.4641
 31
0.0000
  0
LINE
  8
30
 10
5.0000
 20
92.4641
 30
0.0000
 11
5.4693
 21
92.6955
 31
0.0000
  0
LINE
  8
30
 10
5.4693
 20
92.6955
 30
0.0000
 11
5.9647
 21
92.8637
 31
0.0000
  0
LINE
  8
30
 10
5.9647
 20
92.8637
 30
0.0000
 11
6.4779
 21
92.9658
 31
0.0000
  0
LINE
  8
30
 10
6.4779
 20
92.9658
 30
0.0000
 11
7.0000
 21
93.0000
 31
0.0000
  0
LINE
  8
30
 10
7.0000
 20
93.0000
 30
0.0000
 11
81.0000
 21
93.0000
 31
0.0000
  0
LINE
  8
30
 10
81.0000
 20
93.0000
 30
0.0000
 11
81.0000
 21
96.0000
 31
0.0000
  0
LINE
  8
30
 10
81.0000
 20
96.0000
 30
0.0000
 11
0.0000
 21
96.0000
 31
0.0000
  0
LINE
  8
30
 10
0.0000
 20
96.0000
 30
0.0000
 11
0.0000
 21
0.0000
 31
0.0000
  0
LINE
  8
30
 10
0.0000
 20
0.0000
 30
0.0000
 11
7.0000
 21
0.0000
 31
0.0000
  0
LINE
  8
30
 10
7.0000
 20
0.0000
 30
0.0000
 11
7.0000
 21
3.0000
 31
0.0000
  0
LINE
  8
30
 10
7.0000
 20
3.0000
 30
0.0000
 11
6.4779
 21
3.0342
 31
0.0000
  0
LINE
  8
30
 10
6.4779
 20
3.0342
 30
0.0000
 11
5.9647
 21
3.1363
 31
0.0000
  0
LINE
  8
30
 10
5.9647
 20
3.1363
 30
0.0000
 11
5.4693
 21
3.3045
 31
0.0000
  0
LINE
  8
30
 10
5.4693
 20
3.3045
 30
0.0000
 11
5.0000
 21
3.5359
 31
0.0000
  0
LINE
  8
30
 10
5.0000
 20
3.5359
 30
0.0000
 11
4.5650
 21
3.8266
 31
0.0000
  0
LINE
  8
30
 10
4.5650
 20
3.8266
 30
0.0000
 11
4.1716
 21
4.1716
 31
0.0000
  0
LINE
  8
30
 10
4.1716
 20
4.1716
 30
0.0000
 11
3.8266
 21
4.5650
 31
0.0000
  0
LINE
  8
30
 10
3.8266
 20
4.5650
 30
0.0000
 11
3.5359
 21
5.0000
 31
0.0000
  0
LINE
  8
30
 10
3.5359
 20
5.0000
 30
0.0000
 11
3.3045
 21
5.4693
 31
0.0000
  0
LINE
  8
30
 10
3.3045
 20
5.4693
 30
0.0000
 11
3.1363
 21
5.9647
 31
0.0000
  0
LINE
  8
30
 10
3.1363
 20
5.9647
 30
0.0000
 11
3.0342
 21
6.4779
 31
0.0000
  0
LINE
  8
30
 10
3.0342
 20
6.4779
 30
0.0000
 11
3.0000
 21
7.0000
 31
0.0000
  0
LINE
  8
30
 10
3.0000
 20
7.0000
 30
0.0000
 11
3.0000
 21
23.0000
 31
0.0000
  0
LINE
  8
30
 10
3.0000
 20
23.0000
 30
0.0000
 11
3.0258
 21
23.3816
 31
0.0000
  0
LINE
  8
30
 10
3.0258
 20
23.3816
 30
0.0000
 11
3.1028
 21
23.7563
 31
0.0000
  0
LINE
  8
30
 10
3.1028
 20
23.7563
 30
0.0000
 11
3.2296
 21
24.1172
 31
0.0000
  0
LINE
  8
30
 10
3.2296
 20
24.1172
 30
0.0000
 11
3.4038
 21
24.4577
 31
0.0000
  0
LINE
  8
30
 10
3.4038
 20
24.4577
 30
0.0000
 11
3.6223
 21
24.7717
 31
0.0000
  0
LINE
  8
30
 10
3.6223
 20
24.7717
 30
0.0000
 11
3.8810
 21
25.0534
 31
0.0000
  0
LINE
  8
30
 10
3.8810
 20
25.0534
 30
0.0000
 11
4.1754
 21
25.2976
 31
0.0000
  0
LINE
  8
30
 10
4.1754
 20
25.2976
 30
0.0000
 11
4.5000
 21
25.5000
 31
0.0000
  0
LINE
  8
30
 10
4.5000
 20
25.5000
 30
0.0000
 11
4.8246
 21
25.7024
 31
0.0000
  0
LINE
  8
30
 10
4.8246
 20
25.7024
 30
0.0000
 11
5.1190
 21
25.9466
 31
0.0000
  0
LINE
  8
30
 10
5.1190
 20
25.9466
 30
0.0000
 11
5.3777
 21
26.2283
 31
0.0000
  0
LINE
  8
30
 10
5.3777
 20
26.2283
 30
0.0000
 11
5.5962
 21
26.5423
 31
0.0000
  0
LINE
  8
30
 10
5.5962
 20
26.5423
 30
0.0000
 11
5.7704
 21
26.8828
 31
0.0000
  0
LINE
  8
30
 10
5.7704
 20
26.8828
 30
0.0000
 11
5.8972
 21
27.2437
 31
0.0000
  0
LINE
  8
30
 10
5.8972
 20
27.2437
 30
0.0000
 11
5.9742
 21
27.6184
 31
0.0000
  0
LINE
  8
30
 10
5.9742
 20
27.6184
 30
0.0000
 11
6.0000
 21
28.0000
 31
0.0000
  0
LINE
  8
30
 10
6.0000
 20
28.0000
 30
0.0000
 11
6.0000
 21
29.0000
 31
0.0000
  0
LINE
  8
30
 10
6.0000
 20
29.0000
 30
0.0000
 11
5.9742
 21
29.3816
 31
0.0000
  0
LINE
  8
30
 10
5.9742
 20
29.3816
 30
0.0000
 11
5.8972
 21
29.7563
 31
0.0000
  0
LINE
  8
30
 10
5.8972
 20
29.7563
 30
0.0000
 11
5.7704
 21
30.1172
 31
0.0000
  0
LINE
  8
30
 10
5.7704
 20
30.1172
 30
0.0000
 11
5.5962
 21
30.4577
 31
0.0000
  0
LINE
  8
30
 10
5.5962
 20
30.4577
 30
0.0000
 11
5.3777
 21
30.7717
 31
0.0000
  0
LINE
  8
30
 10
5.3777
 20
30.7717
 30
0.0000
 11
5.1190
 21
31.0534
 31
0.0000
  0
LINE
  8
30
 10
5.1190
 20
31.0534
 30
0.0000
 11
4.8246
 21
31.2976
 31
0.0000
  0
LINE
  8
30
 10
4.8246
 20
31.2976
 30
0.0000
 11
4.5000
 21
31.5000
 31
0.0000
  0
LINE
  8
30
 10
4.5000
 20
31.5000
 30
0.0000
 11
4.1754
 21
31.7024
 31
0.0000
  0
LINE
  8
30
 10
4.1754
 20
31.7024
 30
0.0000
 11
3.8810
 21
31.9466
 31
0.0000
  0
LINE
  8
30
 10
3.8810
 20
31.9466
 30
0.0000
 11
3.6223
 21
32.2283
 31
0.0000
  0
LINE
  8
30
 10
3.6223
 20
32.2283
 30
0.0000
 11
3.4038
 21
32.5423
 31
0.0000
  0
LINE
  8
30
 10
3.4038
 20
32.5423
 30
0.0000
 11
3.2296
 21
32.8828
 31
0.0000
  0
LINE
  8
30
 10
3.2296
 20
32.8828
 30
0.0000
 11
3.1028
 21
33.2437
 31
0.0000
  0
LINE
  8
30
 10
3.1028
 20
33.2437
 30
0.0000
 11
3.0258
 21
33.6184
 31
0.0000
  0
LINE
  8
30
 10
3.0258
 20
33.6184
 30
0.0000
 11
3.0000
 21
34.0000
 31
0.0000
  0
LINE
  8
30
 10
3.0000
 20
34.0000
 30
0.0000
 11
3.0000
 21
53.0000
 31
0.0000
  0
LINE
  8
30
 10
3.0000
 20
53.0000
 30
0.0000
 11
3.0342
 21
53.5221
 31
0.0000
  0
LINE
  8
30
 10
3.0342
 20
53.5221
 30
0.0000
 11
3.1363
 21
54.0353
 31
0.0000
  0
LINE
  8
30
 10
3.1363
 20
54.0353
 30
0.0000
 11
3.3045
 21
54.5307
 31
0.0000
  0
LINE
  8
30
 10
3.3045
 20
54.5307
 30
0.0000
 11
3.5359
 21
55.0000
 31
0.0000
  0
LINE
  8
30
 10
3.5359
 20
55.0000
 30
0.0000
 11
3.8266
 21
55.4350
 31
0.0000
  0
LINE
  8
30
 10
3.8266
 20
55.4350
 30
0.0000
 11
4.1716
 21
55.8284
 31
0.0000
  0
LINE
  8
30
 10
4.1716
 20
55.8284
 30
0.0000
 11
4.5650
 21
56.1734
 31
0.0000
  0
LINE
  8
30
 10
4.5650
 20
56.1734
 30
0.0000
 11
5.0000
 21
56.4641
 31
0.0000
  0
LINE
  8
30
 10
5.0000
 20
56.4641
 30
0.0000
 11
5.4693
 21
56.6955
 31
0.0000
  0
LINE
  8
30
 10
5.4693
 20
56.6955
 30
0.0000
 11
5.9647
 21
56.8637
 31
0.0000
  0
LINE
  8
30
 10
5.9647
 20
56.8637
 30
0.0000
 11
6.4779
 21
56.9658
 31
0.0000
  0
LINE
  8
30
 10
6.4779
 20
56.9658
 30
0.0000
 11
7.0000
 21
57.0000
 31
0.0000
  0
LINE
  8
30
 10
7.0000
 20
57.0000
 30
0.0000
 11
9.0000
 21
57.0000
 31
0.0000
  0
LINE
  8
30
 10
58.0000
 20
8.5000
 30
0.0000
 11
58.0000
 21
9.5000
 31
0.0000
  0
LINE
  8
30
 10
58.0000
 20
9.5000
 30
0.0000
 11
57.9848
 21
9.6736
 31
0.0000
  0
LINE
  8
30
 10
57.9848
 20
9.6736
 30
0.0000
 11
57.9397
 21
9.8420
 31
0.0000
  0
LINE
  8
30
 10
57.9397
 20
9.8420
 30
0.0000
 11
57.8660
 21
10.0000
 31
0.0000
  0
LINE
  8
30
 10
57.8660
 20
10.0000
 30
0.0000
 11
57.7660
 21
10.1428
 31
0.0000
  0
LINE
  8
30
 10
57.7660
 20
10.1428
 30
0.0000
 11
57.6428
 21
10.2660
 31
0.0000
  0
LINE
  8
30
 10
57.6428
 20
10.2660
 30
0.0000
 11
57.5000
 21
10.3660
 31
0.0000
  0
LINE
  8
30
 10
57.5000
 20
10.3660
 30
0.0000
 11
57.3420
 21
10.4397
 31
0.0000
  0
LINE
  8
30
 10
57.3420
 20
10.4397
 30
0.0000
 11
57.1736
 21
10.4848
 31
0.0000
  0
LINE
  8
30
 10
57.1736
 20
10.4848
 30
0.0000
 11
57.0000
 21
10.5000
 31
0.0000
  0
LINE
  8
30
 10
57.0000
 20
10.5000
 30
0.0000
 11
40.1000
 21
10.5000
 31
0.0000
  0
LINE
  8
30
 10
40.1000
 20
10.5000
 30
0.0000
 11
39.9887
 21
10.4875
 31
0.0000
  0
LINE
  8
30
 10
39.9887
 20
10.4875
 30
0.0000
 11
39.8831
 21
10.4505
 31
0.0000
  0
LINE
  8
30
 10
39.8831
 20
10.4505
 30
0.0000
 11
39.7883
 21
10.3909
 31
0.0000
  0
LINE
  8
30
 10
39.7883
 20
10.3909
 30
0.0000
 11
39.7091
 21
10.3117
 31
0.0000
  0
LINE
  8
30
 10
39.7091
 20
10.3117
 30
0.0000
 11
39.6495
 21
10.2169
 31
0.0000
  0
LINE
  8
30
 10
39.6495
 20
10.2169
 30
0.0000
 11
39.6125
 21
10.1113
 31
0.0000
  0
LINE
  8
30
 10
39.6125
 20
10.1113
 30
0.0000
 11
39.6000
 21
10.0000
 31
0.0000
  0
LINE
  8
30
 10
39.6000
 20
10.0000
 30
0.0000
 11
39.6195
 21
9.7829
 31
0.0000
  0
LINE
  8
30
 10
39.6195
 20
9.7829
 30
0.0000
 11
39.6775
 21
9.5728
 31
0.0000
  0
LINE
  8
30
 10
39.6775
 20
9.5728
 30
0.0000
 11
39.7720
 21
9.3764
 31
0.0000
  0
LINE
  8
30
 10
39.7720
 20
9.3764
 30
0.0000
 11
39.9000
 21
9.2000
 31
0.0000
  0
LINE
  8
30
 10
39.9000
 20
9.2000
 30
0.0000
 11
40.4211
 21
8.6682
 31
0.0000
  0
LINE
  8
30
 10
40.4211
 20
8.6682
 30
0.0000
 11
41.0000
 21
8.2000
 31
0.0000
  0
LINE
  8
30
 10
41.0000
 20
8.2000
 30
0.0000
 11
41.3920
 21
7.9372
 31
0.0000
  0
LINE
  8
30
 10
41.3920
 20
7.9372
 30
0.0000
 11
41.8000
 21
7.7000
 31
0.0000
  0
LINE
  8
30
 10
41.8000
 20
7.7000
 30
0.0000
 11
42.0543
 21
7.5890
 31
0.0000
  0
LINE
  8
30
 10
42.0543
 20
7.5890
 30
0.0000
 11
42.3234
 21
7.5217
 31
0.0000
  0
LINE
  8
30
 10
42.3234
 20
7.5217
 30
0.0000
 11
42.6000
 21
7.5000
 31
0.0000
  0
LINE
  8
30
 10
42.6000
 20
7.5000
 30
0.0000
 11
57.0000
 21
7.5000
 31
0.0000
  0
LINE
  8
30
 10
57.0000
 20
7.5000
 30
0.0000
 11
57.1739
 21
7.5145
 31
0.0000
  0
LINE
  8
30
 10
57.1739
 20
7.5145
 30
0.0000
 11
57.3427
 21
7.5591
 31
0.0000
  0
LINE
  8
30
 10
57.3427
 20
7.5591
 30
0.0000
 11
57.5010
 21
7.6325
 31
0.0000
  0
LINE
  8
30
 10
57.5010
 20
7.6325
 30
0.0000
 11
57.6441
 21
7.7325
 31
0.0000
  0
LINE
  8
30
 10
57.6441
 20
7.7325
 30
0.0000
 11
57.7675
 21
7.8559
 31
0.0000
  0
LINE
  8
30
 10
57.7675
 20
7.8559
 30
0.0000
 11
57.8675
 21
7.9990
 31
0.0000
  0
LINE
  8
30
 10
57.8675
 20
7.9990
 30
0.0000
 11
57.9409
 21
8.1573
 31
0.0000
  0
LINE
  8
30
 10
57.9409
 20
8.1573
 30
0.0000
 11
57.9855
 21
8.3261
 31
0.0000
  0
LINE
  8
30
 10
57.9855
 20
8.3261
 30
0.0000
 11
58.0000
 21
8.5000
 31
0.0000
  0
LINE
  8
30
 10
32.0000
 20
15.0000
 30
0.0000
 11
33.0000
 21
15.0000
 31
0.0000
  0
LINE
  8
30
 10
33.0000
 20
15.0000
 30
0.0000
 11
33.3129
 21
14.9754
 31
0.0000
  0
LINE
  8
30
 10
33.3129
 20
14.9754
 30
0.0000
 11
33.6180
 21
14.9021
 31
0.0000
  0
LINE
  8
30
 10
33.6180
 20
14.9021
 30
0.0000
 11
33.9080
 21
14.7820
 31
0.0000
  0
LINE
  8
30
 10
33.9080
 20
14.7820
 30
0.0000
 11
34.1756
 21
14.6180
 31
0.0000
  0
LINE
  8
30
 10
34.1756
 20
14.6180
 30
0.0000
 11
34.4142
 21
14.4142
 31
0.0000
  0
LINE
  8
30
 10
34.4142
 20
14.4142
 30
0.0000
 11
34.6180
 21
14.1756
 31
0.0000
  0
LINE
  8
30
 10
34.6180
 20
14.1756
 30
0.0000
 11
34.7820
 21
13.9080
 31
0.0000
  0
LINE
  8
30
 10
34.7820
 20
13.9080
 30
0.0000
 11
34.9021
 21
13.6180
 31
0.0000
  0
LINE
  8
30
 10
34.9021
 20
13.6180
 30
0.0000
 11
34.9754
 21
13.3129
 31
0.0000
  0
LINE
  8
30
 10
34.9754
 20
13.3129
 30
0.0000
 11
35.0000
 21
13.0000
 31
0.0000
  0
LINE
  8
30
 10
35.0000
 20
13.0000
 30
0.0000
 11
35.0000
 21
10.0000
 31
0.0000
  0
LINE
  8
30
 10
35.0000
 20
10.0000
 30
0.0000
 11
34.9833
 21
9.8307
 31
0.0000
  0
LINE
  8
30
 10
34.9833
 20
9.8307
 30
0.0000
 11
34.9339
 21
9.6680
 31
0.0000
  0
LINE
  8
30
 10
34.9339
 20
9.6680
 30
0.0000
 11
34.8536
 21
9.5181
 31
0.0000
  0
LINE
  8
30
 10
34.8536
 20
9.5181
 30
0.0000
 11
34.7456
 21
9.3867
 31
0.0000
  0
LINE
  8
30
 10
34.7456
 20
9.3867
 30
0.0000
 11
34.6141
 21
9.2789
 31
0.0000
  0
LINE
  8
30
 10
34.6141
 20
9.2789
 30
0.0000
 11
34.4640
 21
9.1989
 31
0.0000
  0
LINE
  8
30
 10
34.4640
 20
9.1989
 30
0.0000
 11
34.3012
 21
9.1497
 31
0.0000
  0
LINE
  8
30
 10
34.3012
 20
9.1497
 30
0.0000
 11
34.1319
 21
9.1333
 31
0.0000
  0
LINE
  8
30
 10
34.1319
 20
9.1333
 30
0.0000
 11
33.9627
 21
9.1503
 31
0.0000
  0
LINE
  8
30
 10
33.9627
 20
9.1503
 30
0.0000
 11
33.8000
 21
9.2000
 31
0.0000
  0
LINE
  8
30
 10
33.8000
 20
9.2000
 30
0.0000
 11
33.6403
 21
9.2855
 31
0.0000
  0
LINE
  8
30
 10
33.6403
 20
9.2855
 30
0.0000
 11
33.5000
 21
9.4000
 31
0.0000
  0
LINE
  8
30
 10
33.5000
 20
9.4000
 30
0.0000
 11
33.2358
 21
9.6881
 31
0.0000
  0
LINE
  8
30
 10
33.2358
 20
9.6881
 30
0.0000
 11
33.0000
 21
10.0000
 31
0.0000
  0
LINE
  8
30
 10
33.0000
 20
10.0000
 30
0.0000
 11
32.7088
 21
10.3738
 31
0.0000
  0
LINE
  8
30
 10
32.7088
 20
10.3738
 30
0.0000
 11
32.3738
 21
10.7088
 31
0.0000
  0
LINE
  8
30
 10
32.3738
 20
10.7088
 30
0.0000
 11
32.0000
 21
11.0000
 31
0.0000
  0
LINE
  8
30
 10
32.0000
 20
11.0000
 30
0.0000
 11
31.7176
 21
11.2258
 31
0.0000
  0
LINE
  8
30
 10
31.7176
 20
11.2258
 30
0.0000
 11
31.4720
 21
11.4912
 31
0.0000
  0
LINE
  8
30
 10
31.4720
 20
11.4912
 30
0.0000
 11
31.2685
 21
11.7902
 31
0.0000
  0
LINE
  8
30
 10
31.2685
 20
11.7902
 30
0.0000
 11
31.1119
 21
12.1160
 31
0.0000
  0
LINE
  8
30
 10
31.1119
 20
12.1160
 30
0.0000
 11
31.0054
 21
12.4616
 31
0.0000
  0
LINE
  8
30
 10
31.0054
 20
12.4616
 30
0.0000
 11
30.9516
 21
12.8192
 31
0.0000
  0
LINE
  8
30
 10
30.9516
 20
12.8192
 30
0.0000
 11
30.9516
 21
13.1808
 31
0.0000
  0
LINE
  8
30
 10
30.9516
 20
13.1808
 30
0.0000
 11
31.0054
 21
13.5384
 31
0.0000
  0
LINE
  8
30
 10
31.0054
 20
13.5384
 30
0.0000
 11
31.1119
 21
13.8840
 31
0.0000
  0
LINE
  8
30
 10
31.1119
 20
13.8840
 30
0.0000
 11
31.2685
 21
14.2099
 31
0.0000
  0
LINE
  8
30
 10
31.2685
 20
14.2099
 30
0.0000
 11
31.4720
 21
14.5088
 31
0.0000
  0
LINE
  8
30
 10
31.4720
 20
14.5088
 30
0.0000
 11
31.7176
 21
14.7742
 31
0.0000
  0
LINE
  8
30
 10
31.7176
 20
14.7742
 30
0.0000
 11
32.0000
 21
15.0000
 31
0.0000
  0
LINE
  8
30
 10
99.0000
 20
16.0000
 30
0.0000
 11
94.0000
 21
16.0000
 31
0.0000
  0
LINE
  8
30
 10
94.0000
 20
16.0000
 30
0.0000
 11
94.3129
 21
16.0246
 31
0.0000
  0
LINE
  8
30
 10
94.3129
 20
16.0246
 30
0.0000
 11
94.6180
 21
16.0979
 31
0.0000
  0
LINE
  8
30
 10
94.6180
 20
16.0979
 30
0.0000
 11
94.9080
 21
16.2180
 31
0.0000
  0
LINE
  8
30
 10
94.9080
 20
16.2180
 30
0.0000
 11
95.1756
 21
16.3820
 31
0.0000
  0
LINE
  8
30
 10
95.1756
 20
16.3820
 30
0.0000
 11
95.4142
 21
16.5858
 31
0.0000
  0
LINE
  8
30
 10
95.4142
 20
16.5858
 30
0.0000
 11
95.6180
 21
16.8244
 31
0.0000
  0
LINE
  8
30
 10
95.6180
 20
16.8244
 30
0.0000
 11
95.7820
 21
17.0920
 31
0.0000
  0
LINE
  8
30
 10
95.7820
 20
17.0920
 30
0.0000
 11
95.9021
 21
17.3820
 31
0.0000
  0
LINE
  8
30
 10
95.9021
 20
17.3820
 30
0.0000
 11
95.9754
 21
17.6871
 31
0.0000
  0
LINE
  8
30
 10
95.9754
 20
17.6871
 30
0.0000
 11
96.0000
 21
18.0000
 31
0.0000
  0
LINE
  8
30
 10
96.0000
 20
18.0000
 30
0.0000
 11
96.0152
 21
18.1736
 31
0.0000
  0
LINE
  8
30
 10
96.0152
 20
18.1736
 30
0.0000
 11
96.0603
 21
18.3420
 31
0.0000
  0
LINE
  8
30
 10
96.0603
 20
18.3420
 30
0.0000
 11
96.1340
 21
18.5000
 31
0.0000
  0
LINE
  8
30
 10
96.1340
 20
18.5000
 30
0.0000
 11
96.2340
 21
18.6428
 31
0.0000
  0
LINE
  8
30
 10
96.2340
 20
18.6428
 30
0.0000
 11
96.3572
 21
18.7660
 31
0.0000
  0
LINE
  8
30
 10
96.3572
 20
18.7660
 30
0.0000
 11
96.5000
 21
18.8660
 31
0.0000
  0
LINE
  8
30
 10
96.5000
 20
18.8660
 30
0.0000
 11
96.6580
 21
18.9397
 31
0.0000
  0
LINE
  8
30
 10
96.6580
 20
18.9397
 30
0.0000
 11
96.8264
 21
18.9848
 31
0.0000
  0
LINE
  8
30
 10
96.8264
 20
18.9848
 30
0.0000
 11
97.0000
 21
19.0000
 31
0.0000
  0
LINE
  8
30
 10
97.0000
 20
19.0000
 30
0.0000
 11
98.0000
 21
19.0000
 31
0.0000
  0
LINE
  8
30
 10
98.0000
 20
19.0000
 30
0.0000
 11
98.1736
 21
18.9848
 31
0.0000
  0
LINE
  8
30
 10
98.1736
 20
18.9848
 30
0.0000
 11
98.3420
 21
18.9397
 31
0.0000
  0
LINE
  8
30
 10
98.3420
 20
18.9397
 30
0.0000
 11
98.5000
 21
18.8660
 31
0.0000
  0
LINE
  8
30
 10
98.5000
 20
18.8660
 30
0.0000
 11
98.6428
 21
18.7660
 31
0.0000
  0
LINE
  8
30
 10
98.6428
 20
18.7660
 30
0.0000
 11
98.7660
 21
18.6428
 31
0.0000
  0
LINE
  8
30
 10
98.7660
 20
18.6428
 30
0.0000
 11
98.8660
 21
18.5000
 31
0.0000
  0
LINE
  8
30
 10
98.8660
 20
18.5000
 30
0.0000
 11
98.9397
 21
18.3420
 31
0.0000
  0
LINE
  8
30
 10
98.9397
 20
18.3420
 30
0.0000
 11
98.9848
 21
18.1736
 31
0.0000
  0
LINE
  8
30
 10
98.9848
 20
18.1736
 30
0.0000
 11
99.0000
 21
18.0000
 31
0.0000
  0
LINE
  8
30
 10
99.0000
 20
18.0000
 30
0.0000
 11
99.0000
 21
16.0000
 31
0.0000
  0
LINE
  8
30
 10
99.0000
 20
35.0000
 30
0.0000
 11
99.0000
 21
30.0000
 31
0.0000
  0
LINE
  8
30
 10
99.0000
 20
30.0000
 30
0.0000
 11
98.9875
 21
29.8887
 31
0.0000
  0
LINE
  8
30
 10
98.9875
 20
29.8887
 30
0.0000
 11
98.9505
 21
29.7831
 31
0.0000
  0
LINE
  8
30
 10
98.9505
 20
29.7831
 30
0.0000
 11
98.8909
 21
29.6883
 31
0.0000
  0
LINE
  8
30
 10
98.8909
 20
29.6883
 30
0.0000
 11
98.8117
 21
29.6091
 31
0.0000
  0
LINE
  8
30
 10
98.8117
 20
29.6091
 30
0.0000
 11
98.7169
 21
29.5495
 31
0.0000
  0
LINE
  8
30
 10
98.7169
 20
29.5495
 30
0.0000
 11
98.6113
 21
29.5125
 31
0.0000
  0
LINE
  8
30
 10
98.6113
 20
29.5125
 30
0.0000
 11
98.5000
 21
29.5000
 31
0.0000
  0
LINE
  8
30
 10
98.5000
 20
29.5000
 30
0.0000
 11
96.5000
 21
29.5000
 31
0.0000
  0
LINE
  8
30
 10
96.5000
 20
29.5000
 30
0.0000
 11
96.3887
 21
29.5125
 31
0.0000
  0
LINE
  8
30
 10
96.3887
 20
29.5125
 30
0.0000
 11
96.2831
 21
29.5495
 31
0.0000
  0
LINE
  8
30
 10
96.2831
 20
29.5495
 30
0.0000
 11
96.1883
 21
29.6091
 31
0.0000
  0
LINE
  8
30
 10
96.1883
 20
29.6091
 30
0.0000
 11
96.1091
 21
29.6883
 31
0.0000
  0
LINE
  8
30
 10
96.1091
 20
29.6883
 30
0.0000
 11
96.0495
 21
29.7831
 31
0.0000
  0
LINE
  8
30
 10
96.0495
 20
29.7831
 30
0.0000
 11
96.0125
 21
29.8887
 31
0.0000
  0
LINE
  8
30
 10
96.0125
 20
29.8887
 30
0.0000
 11
96.0000
 21
30.0000
 31
0.0000
  0
LINE
  8
30
 10
96.0000
 20
30.0000
 30
0.0000
 11
96.0000
 21
35.0000
 31
0.0000
  0
LINE
  8
30
 10
96.0000
 20
35.0000
 30
0.0000
 11
99.0000
 21
35.0000
 31
0.0000
  0
LINE
  8
30
 10
53.0000
 20
10.5000
 30
0.0000
 11
55.0000
 21
10.5000
 31
0.0000
  0
LINE
  8
30
 10
55.0000
 20
10.5000
 30
0.0000
 11
55.0000
 21
12.5000
 31
0.0000
  0
LINE
  8
30
 10
55.0000
 20
12.5000
 30
0.0000
 11
54.9754
 21
12.1871
 31
0.0000
  0
LINE
  8
30
 10
54.9754
 20
12.1871
 30
0.0000
 11
54.9021
 21
11.8820
 31
0.0000
  0
LINE
  8
30
 10
54.9021
 20
11.8820
 30
0.0000
 11
54.7820
 21
11.5920
 31
0.0000
  0
LINE
  8
30
 10
54.7820
 20
11.5920
 30
0.0000
 11
54.6180
 21
11.3244
 31
0.0000
  0
LINE
  8
30
 10
54.6180
 20
11.3244
 30
0.0000
 11
54.4142
 21
11.0858
 31
0.0000
  0
LINE
  8
30
 10
54.4142
 20
11.0858
 30
0.0000
 11
54.1756
 21
10.8820
 31
0.0000
  0
LINE
  8
30
 10
54.1756
 20
10.8820
 30
0.0000
 11
53.9080
 21
10.7180
 31
0.0000
  0
LINE
  8
30
 10
53.9080
 20
10.7180
 30
0.0000
 11
53.6180
 21
10.5979
 31
0.0000
  0
LINE
  8
30
 10
53.6180
 20
10.5979
 30
0.0000
 11
53.3129
 21
10.5246
 31
0.0000
  0
LINE
  8
30
 10
53.3129
 20
10.5246
 30
0.0000
 11
53.0000
 21
10.5000
 31
0.0000
  0
LINE
  8
30
 10
57.0000
 20
52.0000
 30
0.0000
 11
59.0000
 21
52.0000
 31
0.0000
  0
LINE
  8
30
 10
59.0000
 20
52.0000
 30
0.0000
 11
59.0000
 21
50.0000
 31
0.0000
  0
LINE
  8
30
 10
59.0000
 20
50.0000
 30
0.0000
 11
58.9754
 21
50.3129
 31
0.0000
  0
LINE
  8
30
 10
58.9754
 20
50.3129
 30
0.0000
 11
58.9021
 21
50.6180
 31
0.0000
  0
LINE
  8
30
 10
58.9021
 20
50.6180
 30
0.0000
 11
58.7820
 21
50.9080
 31
0.0000
  0
LINE
  8
30
 10
58.7820
 20
50.9080
 30
0.0000
 11
58.6180
 21
51.1756
 31
0.0000
  0
LINE
  8
30
 10
58.6180
 20
51.1756
 30
0.0000
 11
58.4142
 21
51.4142
 31
0.0000
  0
LINE
  8
30
 10
58.4142
 20
51.4142
 30
0.0000
 11
58.1756
 21
51.6180
 31
0.0000
  0
LINE
  8
30
 10
58.1756
 20
51.6180
 30
0.0000
 11
57.9080
 21
51.7820
 31
0.0000
  0
LINE
  8
30
 10
57.9080
 20
51.7820
 30
0.0000
 11
57.6180
 21
51.9021
 31
0.0000
  0
LINE
  8
30
 10
57.6180
 20
51.9021
 30
0.0000
 11
57.3129
 21
51.9754
 31
0.0000
  0
LINE
  8
30
 10
57.3129
 20
51.9754
 30
0.0000
 11
57.0000
 21
52.0000
 31
0.0000
  0
ARC
  8
30
 10
114.0000
 20
58.0000
 30
0.0000
 40
5.0000
 50
0.0000
 51
90.0000
  0
LINE
  8
30
 10
114.0000
 20
63.0000
 30
0.0000
 11
103.0000
 21
63.0000
 31
0.0000
  0
ARC
  8
30
 10
103.0000
 20
60.0000
 30
0.0000
 40
3.0000
 50
90.0000
 51
180.0000
  0
LINE
  8
30
 10
100.0000
 20
60.0000
 30
0.0000
 11
100.0000
 21
50.0000
 31
0.0000
  0
ARC
  8
30
 10
102.0000
 20
50.0000
 30
0.0000
 40
2.0000
 50
180.0000
 51
270.0000
  0
LINE
  8
30
 10
102.0000
 20
48.0000
 30
0.0000
 11
105.0000
 21
48.0000
 31
0.0000
  0
ARC
  8
30
 10
105.0000
 20
46.0000
 30
0.0000
 40
2.0000
 50
0.0000
 51
90.0000
  0
LINE
  8
30
 10
107.0000
 20
46.0000
 30
0.0000
 11
107.0000
 21
41.0000
 31
0.0000
  0
ARC
  8
30
 10
109.0000
 20
41.0000
 30
0.0000
 40
2.0000
 50
180.0000
 51
270.0000
  0
ARC
  8
30
 10
109.0000
 20
37.0000
 30
0.0000
 40
2.0000
 50
0.0000
 51
90.0000
  0
LINE
  8
30
 10
111.0000
 20
37.0000
 30
0.0000
 11
111.0000
 21
34.0000
 31
0.0000
  0
ARC
  8
30
 10
109.0000
 20
34.0000
 30
0.0000
 40
2.0000
 50
270.0000
 51
0.0000
  0
LINE
  8
30
 10
109.0000
 20
32.0000
 30
0.0000
 11
101.0000
 21
32.0000
 31
0.0000
  0
ARC
  8
30
 10
101.0000
 20
30.0000
 30
0.0000
 40
2.0000
 50
90.0000
 51
180.0000
  0
ARC
  8
30
 10
97.0000
 20
11.0000
 30
0.0000
 40
2.0000
 50
270.0000
 51
0.0000
  0
ARC
  8
30
 10
97.0000
 20
19.0000
 30
0.0000
 40
10.0000
 50
233.1301
 51
270.0000
  0
ARC
  8
30
 10
85.0000
 20
3.0000
 30
0.0000
 40
10.0000
 50
53.1301
 51
90.0000
  0
ARC
  8
30
 10
85.0000
 20
11.0000
 30
0.0000
 40
2.0000
 50
90.0000
 51
180.0000
  0
LINE
  8
30
 10
83.0000
 20
11.0000
 30
0.0000
 11
83.0000
 21
8.9000
 31
0.0000
  0
LINE
  8
30
 10
83.0000
 20
8.9000
 30
0.0000
 11
83.0000
 21
7.5000
 31
0.0000
  0
LINE
  8
30
 10
83.0000
 20
7.5000
 30
0.0000
 11
68.0000
 21
7.5000
 31
0.0000
  0
LINE
  8
30
 10
85.0000
 20
16.0000
 30
0.0000
 11
85.8000
 21
16.0000
 31
0.0000
  0
LINE
  8
30
 10
85.8000
 20
16.0000
 30
0.0000
 11
94.0000
 21
16.0000
 31
0.0000
  0
ARC
  8
30
 10
94.0000
 20
18.0000
 30
0.0000
 40
2.0000
 50
270.0000
 51
0.0000
  0
ARC
  8
30
 10
101.0000
 20
38.0000
 30
0.0000
 40
3.0000
 50
270.0000
 51
0.0000
  0
LINE
  8
30
 10
104.0000
 20
38.0000
 30
0.0000
 11
104.0000
 21
43.0000
 31
0.0000
  0
ARC
  8
30
 10
102.0000
 20
43.0000
 30
0.0000
 40
2.0000
 50
0.0000
 51
90.0000
  0
LINE
  8
30
 10
97.0000
 20
52.0000
 30
0.0000
 11
97.0000
 21
58.0000
 31
0.0000
  0
LINE
  8
30
 10
71.0000
 20
23.0000
 30
0.0000
 11
71.0000
 21
16.5000
 31
0.0000
  0
ARC
  8
30
 10
73.0000
 20
16.5000
 30
0.0000
 40
2.0000
 50
180.0000
 51
270.0000
  0
ARC
  8
30
 10
73.0000
 20
42.9563
 30
0.0000
 40
28.4563
 50
270.0000
 51
283.6181
  0
ARC
  8
30
 10
85.5713
 20
-8.9355
 30
0.0000
 40
24.9365
 50
89.4745
 51
103.6181
  0
LINE
  8
30
 10
71.0000
 20
23.0000
 30
0.0000
 11
71.0000
 21
28.0000
 31
0.0000
  0
ARC
  8
30
 10
75.0000
 20
28.0000
 30
0.0000
 40
4.0000
 50
90.0000
 51
180.0000
  0
LINE
  8
30
 10
75.0000
 20
32.0000
 30
0.0000
 11
94.0000
 21
32.0000
 31
0.0000
  0
ARC
  8
30
 10
94.0000
 20
30.0000
 30
0.0000
 40
2.0000
 50
0.0000
 51
90.0000
  0
LINE
  8
30
 10
101.0000
 20
35.0000
 30
0.0000
 11
73.0000
 21
35.0000
 31
0.0000
  0
LINE
  8
30
 10
68.0000
 20
30.0000
 30
0.0000
 11
68.0000
 21
7.5000
 31
0.0000
  0
ARC
  8
30
 10
102.0000
 20
50.0000
 30
0.0000
 40
5.0000
 50
233.1301
 51
270.0000
  0
ARC
  8
30
 10
96.0000
 20
42.0000
 30
0.0000
 40
5.0000
 50
53.1301
 51
90.0000
  0
LINE
  8
30
 10
96.0000
 20
47.0000
 30
0.0000
 11
83.0000
 21
47.0000
 31
0.0000
  0
ARC
  8
30
 10
83.0000
 20
44.0000
 30
0.0000
 40
3.0000
 50
90.0000
 51
180.0000
  0
ARC
  8
30
 10
76.0000
 20
44.0000
 30
0.0000
 40
4.0000
 50
270.0000
 51
0.0000
  0
LINE
  8
30
 10
76.0000
 20
40.0000
 30
0.0000
 11
66.0000
 21
40.0000
 31
0.0000
  0
LINE
  8
30
 10
66.0000
 20
40.0000
 30
0.0000
 11
65.0000
 21
40.0000
 31
0.0000
  0
LINE
  8
30
 10
65.0000
 20
40.0000
 30
0.0000
 11
62.0000
 21
40.0000
 31
0.0000
  0
LINE
  8
30
 10
66.0000
 20
43.0000
 30
0.0000
 11
75.0000
 21
43.0000
 31
0.0000
  0
ARC
  8
30
 10
75.0000
 20
45.0000
 30
0.0000
 40
2.0000
 50
270.0000
 51
0.0000
  0
ARC
  8
30
 10
82.0000
 20
45.0000
 30
0.0000
 40
5.0000
 50
90.0000
 51
180.0000
  0
LINE
  8
30
 10
82.0000
 20
50.0000
 30
0.0000
 11
95.0000
 21
50.0000
 31
0.0000
  0
ARC
  8
30
 10
95.0000
 20
52.0000
 30
0.0000
 40
2.0000
 50
270.0000
 51
0.0000
  0
LINE
  8
30
 10
73.0000
 20
35.0000
 30
0.0000
 11
69.0000
 21
35.0000
 31
0.0000
  0
ARC
  8
30
 10
69.0000
 20
34.0000
 30
0.0000
 40
1.0000
 50
90.0000
 51
180.0000
  0
LINE
  8
30
 10
68.0000
 20
34.0000
 30
0.0000
 11
68.0000
 21
30.0000
 31
0.0000
  0
ARC
  8
30
 10
95.0000
 20
58.0000
 30
0.0000
 40
2.0000
 50
0.0000
 51
90.0000
  0
LINE
  8
30
 10
95.0000
 20
60.0000
 30
0.0000
 11
68.0000
 21
60.0000
 31
0.0000
  0
ARC
  8
30
 10
68.0000
 20
54.0000
 30
0.0000
 40
6.0000
 50
90.0000
 51
180.0000
  0
LINE
  8
30
 10
62.0000
 20
54.0000
 30
0.0000
 11
62.0000
 21
52.0000
 31
0.0000
  0
LINE
  8
30
 10
62.0000
 20
52.0000
 30
0.0000
 11
59.0000
 21
52.0000
 31
0.0000
  0
LINE
  8
30
 10
62.0000
 20
52.0000
 30
0.0000
 11
62.0000
 21
47.0000
 31
0.0000
  0
ARC
  8
30
 10
66.0000
 20
47.0000
 30
0.0000
 40
4.0000
 50
180.0000
 51
270.0000
  0
LINE
  8
30
 10
62.0000
 20
52.0000
 30
0.0000
 11
59.0000
 21
52.0000
 31
0.0000
  0
LINE
  8
30
 10
59.0000
 20
52.0000
 30
0.0000
 11
59.0000
 21
50.0000
 31
0.0000
  0
LINE
  8
30
 10
59.0000
 20
50.0000
 30
0.0000
 11
59.0000
 21
47.0000
 31
0.0000
  0
LINE
  8
30
 10
59.0000
 20
47.0000
 30
0.0000
 11
59.0000
 21
42.0000
 31
0.0000
  0
ARC
  8
30
 10
61.0000
 20
42.0000
 30
0.0000
 40
2.0000
 50
180.0000
 51
270.0000
  0
LINE
  8
30
 10
61.0000
 20
40.0000
 30
0.0000
 11
65.0000
 21
40.0000
 31
0.0000
  0
LINE
  8
30
 10
59.0000
 20
52.0000
 30
0.0000
 11
57.0000
 21
52.0000
 31
0.0000
  0
LINE
  8
30
 10
57.0000
 20
52.0000
 30
0.0000
 11
50.0000
 21
52.0000
 31
0.0000
  0
ARC
  8
30
 10
50.0000
 20
45.0000
 30
0.0000
 40
7.0000
 50
90.0000
 51
180.0000
  0
LINE
  8
30
 10
43.0000
 20
45.0000
 30
0.0000
 11
43.0000
 21
41.0000
 31
0.0000
  0
ARC
  8
30
 10
51.0000
 20
41.0000
 30
0.0000
 40
8.0000
 50
180.0000
 51
270.0000
  0
LINE
  8
30
 10
51.0000
 20
33.0000
 30
0.0000
 11
57.0000
 21
33.0000
 31
0.0000
  0
ARC
  8
30
 10
57.0000
 20
32.0000
 30
0.0000
 40
1.0000
 50
0.0000
 51
90.0000
  0
LINE
  8
30
 10
58.0000
 20
32.0000
 30
0.0000
 11
58.0000
 21
9.0000
 31
0.0000
  0
LINE
  8
30
 10
58.0000
 20
9.0000
 30
0.0000
 11
55.0000
 21
9.0000
 31
0.0000
  0
LINE
  8
30
 10
55.0000
 20
9.0000
 30
0.0000
 11
55.0000
 21
13.0000
 31
0.0000
  0
LINE
  8
30
 10
55.0000
 20
13.0000
 30
0.0000
 11
55.0000
 21
26.0000
 31
0.0000
  0
ARC
  8
30
 10
51.0000
 20
26.0000
 30
0.0000
 40
4.0000
 50
0.0000
 51
90.0000
  0
ARC
  8
30
 10
51.0000
 20
41.0000
 30
0.0000
 40
11.0000
 50
180.0000
 51
270.0000
  0
LINE
  8
30
 10
40.0000
 20
41.0000
 30
0.0000
 11
40.0000
 21
43.9000
 31
0.0000
  0
LINE
  8
30
 10
50.0000
 20
55.0000
 30
0.0000
 11
57.0000
 21
55.0000
 31
0.0000
  0
LINE
  8
30
 10
56.0000
 20
7.5000
 30
0.0000
 11
57.0000
 21
7.5000
 31
0.0000
  0
ARC
  8
30
 10
57.0000
 20
8.5000
 30
0.0000
 40
1.0000
 50
270.0000
 51
0.0000
  0
LINE
  8
30
 10
58.0000
 20
8.5000
 30
0.0000
 11
58.0000
 21
9.5000
 31
0.0000
  0
LINE
  8
30
 10
40.0000
 20
43.9000
 30
0.0000
 11
40.0000
 21
44.0000
 31
0.0000
  0
ARC
  8
30
 10
38.0000
 20
44.0000
 30
0.0000
 40
2.0000
 50
0.0000
 51
90.0000
  0
LINE
  8
30
 10
38.0000
 20
46.0000
 30
0.0000
 11
29.0000
 21
46.0000
 31
0.0000
  0
ARC
  8
30
 10
29.0000
 20
44.0000
 30
0.0000
 40
2.0000
 50
90.0000
 51
180.0000
  0
LINE
  8
30
 10
27.0000
 20
44.0000
 30
0.0000
 11
27.0000
 21
17.0000
 31
0.0000
  0
ARC
  8
30
 10
29.0000
 20
17.0000
 30
0.0000
 40
2.0000
 50
180.0000
 51
270.0000
  0
LINE
  8
30
 10
29.0000
 20
15.0000
 30
0.0000
 11
33.0000
 21
15.0000
 31
0.0000
  0
ARC
  8
30
 10
33.0000
 20
13.0000
 30
0.0000
 40
2.0000
 50
0.0000
 51
90.0000
  0
LINE
  8
30
 10
35.0000
 20
13.0000
 30
0.0000
 11
35.0000
 21
12.5000
 31
0.0000
  0
LINE
  8
30
 10
24.0000
 20
17.0000
 30
0.0000
 11
24.0000
 21
23.0000
 31
0.0000
  0
LINE
  8
30
 10
24.0000
 20
34.0000
 30
0.0000
 11
24.0000
 21
44.0000
 31
0.0000
  0
LINE
  8
30
 10
26.5000
 20
50.5000
 30
0.0000
 11
40.4250
 21
50.5000
 31
0.0000
  0
ARC
  8
30
 10
29.0000
 20
17.0000
 30
0.0000
 40
5.0000
 50
180.0000
 51
270.0000
  0
ARC
  8
30
 10
29.0000
 20
7.0000
 30
0.0000
 40
5.0000
 50
53.1301
 51
90.0000
  0
ARC
  8
30
 10
29.0000
 20
7.0000
 30
0.0000
 40
5.0000
 50
36.8699
 51
53.1301
  0
LINE
  8
30
 10
7.0000
 20
57.0000
 30
0.0000
 11
11.0000
 21
57.0000
 31
0.0000
  0
ARC
  8
30
 10
11.0000
 20
44.0000
 30
0.0000
 40
13.0000
 50
0.0000
 51
90.0000
  0
LINE
  8
30
 10
5.1000
 20
60.0000
 30
0.0000
 11
11.0000
 21
60.0000
 31
0.0000
  0
ARC
  8
30
 10
26.4886
 20
51.8591
 30
0.0000
 40
1.3591
 50
209.0081
 51
270.4791
  0
ARC
  8
30
 10
11.0000
 20
43.9813
 30
0.0000
 40
16.0188
 50
26.7850
 51
90.0000
  0
ARC
  8
30
 10
40.4783
 20
52.8950
 30
0.0000
 40
2.3956
 50
268.7243
 51
328.6876
  0
ARC
  8
30
 10
49.3892
 20
46.3483
 30
0.0000
 40
8.6732
 50
85.9614
 51
142.3186
  0
LINE
  8
30
 10
117.0000
 20
66.0000
 30
0.0000
 11
100.0000
 21
66.0000
 31
0.0000
  0
ARC
  8
30
 10
100.0000
 20
59.9167
 30
0.0000
 40
6.0833
 50
90.0000
 51
131.1121
  0
ARC
  8
30
 10
92.0000
 20
69.0833
 30
0.0000
 40
6.0833
 50
270.0000
 51
311.1121
  0
LINE
  8
30
 10
92.0000
 20
63.0000
 30
0.0000
 11
68.0000
 21
63.0000
 31
0.0000
  0
ARC
  8
30
 10
57.0000
 20
57.5000
 30
0.0000
 40
2.5000
 50
270.0000
 51
343.7398
  0
ARC
  8
30
 10
68.0000
 20
53.9355
 30
0.0000
 40
9.0645
 50
90.0000
 51
161.5779
  0
LINE
  8
30
 10
0.0000
 20
0.0000
 30
0.0000
 11
0.0000
 21
60.0000
 31
0.0000
  0
LINE
  8
30
 10
3.0000
 20
4.0000
 30
0.0000
 11
3.0000
 21
3.0000
 31
0.0000
  0
ARC
  8
30
 10
7.0000
 20
53.0000
 30
0.0000
 40
4.0000
 50
90.0000
 51
180.0000
  0
LINE
  8
30
 10
21.0000
 20
29.0000
 30
0.0000
 11
21.0000
 21
28.0000
 31
0.0000
  0
ARC
  8
30
 10
23.8333
 20
28.0000
 30
0.0000
 40
2.8333
 50
180.0000
 51
241.9275
  0
ARC
  8
30
 10
21.1667
 20
23.0000
 30
0.0000
 40
2.8333
 50
360.0000
 51
61.9275
  0
ARC
  8
30
 10
23.8333
 20
29.0000
 30
0.0000
 40
2.8333
 50
118.0725
 51
180.0000
  0
ARC
  8
30
 10
21.1667
 20
34.0000
 30
0.0000
 40
2.8333
 50
298.0725
 51
0.0000
  0
LINE
  8
30
 10
6.0000
 20
28.0000
 30
0.0000
 11
6.0000
 21
29.0000
 31
0.0000
  0
ARC
  8
30
 10
3.1667
 20
29.0000
 30
0.0000
 40
2.8333
 50
0.0000
 51
61.9275
  0
ARC
  8
30
 10
5.8333
 20
34.0000
 30
0.0000
 40
2.8333
 50
180.0000
 51
241.9275
  0
ARC
  8
30
 10
3.1667
 20
28.0000
 30
0.0000
 40
2.8333
 50
298.0725
 51
360.0000
  0
ARC
  8
30
 10
5.8333
 20
23.0000
 30
0.0000
 40
2.8333
 50
118.0725
 51
180.0000
  0
LINE
  8
30
 10
116.0000
 20
22.0000
 30
0.0000
 11
116.0000
 21
21.0000
 31
0.0000
  0
ARC
  8
30
 10
118.8333
 20
21.0000
 30
0.0000
 40
2.8333
 50
180.0000
 51
241.9275
  0
ARC
  8
30
 10
116.1667
 20
16.0000
 30
0.0000
 40
2.8333
 50
360.0000
 51
61.9275
  0
ARC
  8
30
 10
118.8333
 20
22.0000
 30
0.0000
 40
2.8333
 50
118.0725
 51
180.0000
  0
ARC
  8
30
 10
116.1667
 20
27.0000
 30
0.0000
 40
2.8333
 50
298.0725
 51
0.0000
  0
LINE
  8
30
 10
3.0000
 20
53.0000
 30
0.0000
 11
3.0000
 21
34.0000
 31
0.0000
  0
LINE
  8
30
 10
3.0000
 20
23.0000
 30
0.0000
 11
3.0000
 21
7.0000
 31
0.0000
  0
ARC
  8
30
 10
7.0000
 20
7.0000
 30
0.0000
 40
4.0000
 50
180.0000
 51
270.0000
  0
ARC
  8
30
 10
115.0000
 20
7.0000
 30
0.0000
 40
4.0000
 50
270.0000
 51
0.0000
  0
LINE
  8
30
 10
119.0000
 20
7.0000
 30
0.0000
 11
119.0000
 21
16.0000
 31
0.0000
  0
LINE
  8
30
 10
119.0000
 20
27.0000
 30
0.0000
 11
119.0000
 21
58.0000
 31
0.0000
  0
ARC
  8
30
 10
117.0000
 20
68.0000
 30
0.0000
 40
2.0000
 50
270.0000
 51
0.0000
  0
LINE
  8
30
 10
119.0000
 20
68.0000
 30
0.0000
 11
119.0000
 21
69.0000
 31
0.0000
  0
LINE
  8
30
 10
119.0000
 20
69.0000
 30
0.0000
 11
119.0000
 21
89.0000
 31
0.0000
  0
LINE
  8
30
 10
0.0000
 20
60.0000
 30
0.0000
 11
0.0000
 21
96.0000
 31
0.0000
  0
LINE
  8
30
 10
0.0000
 20
96.0000
 30
0.0000
 11
81.0000
 21
96.0000
 31
0.0000
  0
LINE
  8
30
 10
81.0000
 20
96.0000
 30
0.0000
 11
81.0000
 21
93.0000
 31
0.0000
  0
LINE
  8
30
 10
81.0000
 20
93.0000
 30
0.0000
 11
7.0000
 21
93.0000
 31
0.0000
  0
ARC
  8
30
 10
7.0000
 20
89.0000
 30
0.0000
 40
4.0000
 50
90.0000
 51
180.0000
  0
LINE
  8
30
 10
3.0000
 20
89.0000
 30
0.0000
 11
3.0000
 21
62.0000
 31
0.0000
  0
ARC
  8
30
 10
5.0000
 20
62.0000
 30
0.0000
 40
2.0000
 50
180.0000
 51
270.0000
  0
LINE
  8
30
 10
5.0000
 20
60.0000
 30
0.0000
 11
5.1000
 21
60.0000
 31
0.0000
  0
LINE
  8
30
 10
81.0000
 20
96.0000
 30
0.0000
 11
81.0000
 21
93.0000
 31
0.0000
  0
LINE
  8
30
 10
81.0000
 20
93.0000
 30
0.0000
 11
90.0000
 21
93.0000
 31
0.0000
  0
LINE
  8
30
 10
90.0000
 20
93.0000
 30
0.0000
 11
90.0000
 21
96.0000
 31
0.0000
  0
LINE
  8
30
 10
90.0000
 20
96.0000
 30
0.0000
 11
81.0000
 21
96.0000
 31
0.0000
  0
LINE
  8
30
 10
100.0000
 20
96.0000
 30
0.0000
 11
100.0000
 21
93.0000
 31
0.0000
  0
LINE
  8
30
 10
100.0000
 20
93.0000
 30
0.0000
 11
106.0000
 21
93.0000
 31
0.0000
  0
LINE
  8
30
 10
106.0000
 20
93.0000
 30
0.0000
 11
106.0000
 21
96.0000
 31
0.0000
  0
LINE
  8
30
 10
106.0000
 20
96.0000
 30
0.0000
 11
100.0000
 21
96.0000
 31
0.0000
  0
LINE
  8
30
 10
116.0000
 20
96.0000
 30
0.0000
 11
122.0000
 21
96.0000
 31
0.0000
  0
LINE
  8
30
 10
122.0000
 20
96.0000
 30
0.0000
 11
122.0000
 21
0.0000
 31
0.0000
  0
LINE
  8
30
 10
115.0000
 20
0.0000
 30
0.0000
 11
105.0000
 21
0.0000
 31
0.0000
  0
LINE
  8
30
 10
17.0000
 20
0.0000
 30
0.0000
 11
7.0000
 21
0.0000
 31
0.0000
  0
LINE
  8
30
 10
7.0000
 20
0.0000
 30
0.0000
 11
0.0000
 21
0.0000
 31
0.0000
  0
LINE
  8
30
 10
119.0000
 20
89.0000
 30
0.0000
 11
119.0000
 21
89.8000
 31
0.0000
  0
ARC
  8
30
 10
116.0000
 20
89.8000
 30
0.0000
 40
3.0000
 50
0.0000
 51
90.0000
  0
LINE
  8
30
 10
116.0000
 20
92.8000
 30
0.0000
 11
116.0000
 21
96.0000
 31
0.0000
  0
LINE
  8
30
 10
7.0000
 20
3.0000
 30
0.0000
 11
7.0000
 21
0.0000
 31
0.0000
  0
LINE
  8
30
 10
7.0000
 20
0.0000
 30
0.0000
 11
0.0000
 21
0.0000
 31
0.0000
  0
LINE
  8
30
 10
122.0000
 20
0.0000
 30
0.0000
 11
115.0000
 21
0.0000
 31
0.0000
  0
LINE
  8
30
 10
115.0000
 20
0.0000
 30
0.0000
 11
115.0000
 21
3.0000
 31
0.0000
  0
LINE
  8
30
 10
105.0000
 20
0.0000
 30
0.0000
 11
105.0000
 21
3.0000
 31
0.0000
  0
LINE
  8
30
 10
105.0000
 20
3.0000
 30
0.0000
 11
17.0000
 21
3.0000
 31
0.0000
  0
LINE
  8
30
 10
17.0000
 20
3.0000
 30
0.0000
 11
17.0000
 21
0.0000
 31
0.0000
  0
LINE
  8
30
 10
17.0000
 20
0.0000
 30
0.0000
 11
105.0000
 21
0.0000
 31
0.0000
  0
ARC
  8
30
 10
57.0000
 20
9.5000
 30
0.0000
 40
1.0000
 50
0.0000
 51
90.0000
  0
LINE
  8
30
 10
57.0000
 20
10.5000
 30
0.0000
 11
53.0000
 21
10.5000
 31
0.0000
  0
LINE
  8
30
 10
53.0000
 20
10.5000
 30
0.0000
 11
40.3000
 21
10.5000
 31
0.0000
  0
LINE
  8
30
 10
56.0000
 20
7.5000
 30
0.0000
 11
42.6000
 21
7.5000
 31
0.0000
  0
ARC
  8
30
 10
42.6000
 20
9.2000
 30
0.0000
 40
1.7000
 50
241.9275
 51
270.0000
  0
ARC
  8
30
 10
45.0109
 20
13.7205
 30
0.0000
 40
6.8233
 50
221.4921
 51
241.9276
  0
ARC
  8
30
 10
40.7955
 20
9.9921
 30
0.0000
 40
1.1956
 50
179.6200
 51
221.4921
  0
ARC
  8
30
 10
40.1033
 20
9.9967
 30
0.0000
 40
0.5034
 50
90.3799
 51
179.6201
  0
ARC
  8
30
 10
40.1500
 20
2.9594
 30
0.0000
 40
7.5408
 50
89.6201
 51
90.3799
  0
ARC
  8
30
 10
40.2500
 20
18.0406
 30
0.0000
 40
7.5408
 50
269.6201
 51
270.3799
  0
LINE
  8
30
 10
35.0000
 20
13.0000
 30
0.0000
 11
35.0000
 21
12.0000
 31
0.0000
  0
LINE
  8
30
 10
35.0000
 20
12.0000
 30
0.0000
 11
35.0000
 21
10.0000
 31
0.0000
  0
ARC
  8
30
 10
34.1333
 20
10.0000
 30
0.0000
 40
0.8667
 50
247.3801
 51
0.0000
  0
ARC
  8
30
 10
34.1611
 20
10.0667
 30
0.0000
 40
0.9389
 50
225.2397
 51
247.3802
  0
ARC
  8
30
 10
36.4036
 20
12.3280
 30
0.0000
 40
4.1236
 50
214.3714
 51
225.2398
  0
ARC
  8
30
 10
98.5000
 20
30.0000
 30
0.0000
 40
0.5000
 50
270.0000
 51
0.0000
  0
LINE
  8
30
 10
98.5000
 20
29.5000
 30
0.0000
 11
96.5000
 21
29.5000
 31
0.0000
  0
ARC
  8
30
 10
96.5000
 20
30.0000
 30
0.0000
 40
0.5000
 50
180.0000
 51
270.0000
  0
LINE
  8
30
 10
99.0000
 20
16.0000
 30
0.0000
 11
99.0000
 21
18.0000
 31
0.0000
  0
ARC
  8
30
 10
98.0000
 20
18.0000
 30
0.0000
 40
1.0000
 50
0.0000
 51
90.0000
  0
LINE
  8
30
 10
98.0000
 20
19.0000
 30
0.0000
 11
97.0000
 21
19.0000
 31
0.0000
  0
ARC
  8
30
 10
97.0000
 20
18.0000
 30
0.0000
 40
1.0000
 50
90.0000
 51
180.0000
  0
ARC
  8
30
 10
53.0000
 20
12.5000
 30
0.0000
 40
2.0000
 50
270.0000
 51
0.0000
  0
LINE
  8
30
 10
55.0000
 20
12.5000
 30
0.0000
 11
55.0000
 21
13.0000
 31
0.0000
  0
ARC
  8
30
 10
57.0000
 20
50.0000
 30
0.0000
 40
2.0000
 50
0.0000
 51
90.0000
  0
POLYLINE
  8
30
 66
1
 10
0.0000
 20
0.0000
 30
0.0000
 40
1.7016
 41
1.7016
 70
0
  0
VERTEX
  8
30
 10
119.5000
 20
1.7492
 30
0.0000
 42
1.0000
  0
VERTEX
  8
30
 10
119.5000
 20
3.4508
 30
0.0000
 42
1.0000
  0
VERTEX
  8
30
 10
119.5000
 20
1.7492
 30
0.0000
  0
SEQEND
  8
0
  0
POLYLINE
  8
30
 66
1
 10
0.0000
 20
0.0000
 30
0.0000
 40
1.7016
 41
1.7016
 70
0
  0
VERTEX
  8
30
 10
2.5000
 20
1.6492
 30
0.0000
 42
1.0000
  0
VERTEX
  8
30
 10
2.5000
 20
3.3508
 30
0.0000
 42
1.0000
  0
VERTEX
  8
30
 10
2.5000
 20
1.6492
 30
0.0000
  0
SEQEND
  8
0
  0
POLYLINE
  8
30
 66
1
 10
0.0000
 20
0.0000
 30
0.0000
 40
1.7016
 41
1.7016
 70
0
  0
VERTEX
  8
30
 10
95.5000
 20
11.6492
 30
0.0000
 42
1.0000
  0
VERTEX
  8
30
 10
95.5000
 20
13.3508
 30
0.0000
 42
1.0000
  0
VERTEX
  8
30
 10
95.5000
 20
11.6492
 30
0.0000
  0
SEQEND
  8
0
  0
POLYLINE
  8
30
 66
1
 10
0.0000
 20
0.0000
 30
0.0000
 40
1.7016
 41
1.7016
 70
0
  0
VERTEX
  8
30
 10
107.5000
 20
34.6492
 30
0.0000
 42
1.0000
  0
VERTEX
  8
30
 10
107.5000
 20
36.3508
 30
0.0000
 42
1.0000
  0
VERTEX
  8
30
 10
107.5000
 20
34.6492
 30
0.0000
  0
SEQEND
  8
0
  0
POLYLINE
  8
30
 66
1
 10
0.0000
 20
0.0000
 30
0.0000
 40
1.7016
 41
1.7016
 70
0
  0
VERTEX
  8
30
 10
61.5000
 20
41.6492
 30
0.0000
 42
1.0000
  0
VERTEX
  8
30
 10
61.5000
 20
43.3508
 30
0.0000
 42
1.0000
  0
VERTEX
  8
30
 10
61.5000
 20
41.6492
 30
0.0000
  0
SEQEND
  8
0
  0
POLYLINE
  8
30
 66
1
 10
0.0000
 20
0.0000
 30
0.0000
 40
1.7016
 41
1.7016
 70
0
  0
VERTEX
  8
30
 10
70.5000
 20
31.6492
 30
0.0000
 42
1.0000
  0
VERTEX
  8
30
 10
70.5000
 20
33.3508
 30
0.0000
 42
1.0000
  0
VERTEX
  8
30
 10
70.5000
 20
31.6492
 30
0.0000
  0
SEQEND
  8
0
  0
POLYLINE
  8
30
 66
1
 10
0.0000
 20
0.0000
 30
0.0000
 40
1.7016
 41
1.7016
 70
0
  0
VERTEX
  8
30
 10
70.5000
 20
9.1492
 30
0.0000
 42
1.0000
  0
VERTEX
  8
30
 10
70.5000
 20
10.8508
 30
0.0000
 42
1.0000
  0
VERTEX
  8
30
 10
70.5000
 20
9.1492
 30
0.0000
  0
SEQEND
  8
0
  0
POLYLINE
  8
30
 66
1
 10
0.0000
 20
0.0000
 30
0.0000
 40
1.7016
 41
1.7016
 70
0
  0
VERTEX
  8
30
 10
55.5000
 20
29.6492
 30
0.0000
 42
1.0000
  0
VERTEX
  8
30
 10
55.5000
 20
31.3508
 30
0.0000
 42
1.0000
  0
VERTEX
  8
30
 10
55.5000
 20
29.6492
 30
0.0000
  0
SEQEND
  8
0
  0
POLYLINE
  8
30
 66
1
 10
0.0000
 20
0.0000
 30
0.0000
 40
1.7016
 41
1.7016
 70
0
  0
VERTEX
  8
30
 10
97.5000
 20
61.6492
 30
0.0000
 42
1.0000
  0
VERTEX
  8
30
 10
97.5000
 20
63.3508
 30
0.0000
 42
1.0000
  0
VERTEX
  8
30
 10
97.5000
 20
61.6492
 30
0.0000
  0
SEQEND
  8
0
  0
POLYLINE
  8
30
 66
1
 10
0.0000
 20
0.0000
 30
0.0000
 40
1.7016
 41
1.7016
 70
0
  0
VERTEX
  8
30
 10
26.5000
 20
47.1492
 30
0.0000
 42
1.0000
  0
VERTEX
  8
30
 10
26.5000
 20
48.8508
 30
0.0000
 42
1.0000
  0
VERTEX
  8
30
 10
26.5000
 20
47.1492
 30
0.0000
  0
SEQEND
  8
0
  0
POLYLINE
  8
30
 66
1
 10
0.0000
 20
0.0000
 30
0.0000
 40
1.7016
 41
1.7016
 70
0
  0
VERTEX
  8
30
 10
119.5000
 20
62.6492
 30
0.0000
 42
1.0000
  0
VERTEX
  8
30
 10
119.5000
 20
64.3508
 30
0.0000
 42
1.0000
  0
VERTEX
  8
30
 10
119.5000
 20
62.6492
 30
0.0000
  0
SEQEND
  8
0
  0
POLYLINE
  8
30
 66
1
 10
0.0000
 20
0.0000
 30
0.0000
 40
1.7016
 41
1.7016
 70
0
  0
VERTEX
  8
30
 10
119.5000
 20
20.6492
 30
0.0000
 42
1.0000
  0
VERTEX
  8
30
 10
119.5000
 20
22.3508
 30
0.0000
 42
1.0000
  0
VERTEX
  8
30
 10
119.5000
 20
20.6492
 30
0.0000
  0
SEQEND
  8
0
  0
POLYLINE
  8
30
 66
1
 10
0.0000
 20
0.0000
 30
0.0000
 40
1.7016
 41
1.7016
 70
0
  0
VERTEX
  8
30
 10
2.5000
 20
27.6492
 30
0.0000
 42
1.0000
  0
VERTEX
  8
30
 10
2.5000
 20
29.3508
 30
0.0000
 42
1.0000
  0
VERTEX
  8
30
 10
2.5000
 20
27.6492
 30
0.0000
  0
SEQEND
  8
0
  0
POLYLINE
  8
30
 66
1
 10
0.0000
 20
0.0000
 30
0.0000
 40
1.7016
 41
1.7016
 70
0
  0
VERTEX
  8
30
 10
24.0000
 20
27.6492
 30
0.0000
 42
1.0000
  0
VERTEX
  8
30
 10
24.0000
 20
29.3508
 30
0.0000
 42
1.0000
  0
VERTEX
  8
30
 10
24.0000
 20
27.6492
 30
0.0000
  0
SEQEND
  8
0
  0
POLYLINE
  8
30
 66
1
 10
0.0000
 20
0.0000
 30
0.0000
 40
1.7016
 41
1.7016
 70
0
  0
VERTEX
  8
30
 10
2.5000
 20
56.6492
 30
0.0000
 42
1.0000
  0
VERTEX
  8
30
 10
2.5000
 20
58.3508
 30
0.0000
 42
1.0000
  0
VERTEX
  8
30
 10
2.5000
 20
56.6492
 30
0.0000
  0
SEQEND
  8
0
  0
POLYLINE
  8
30
 66
1
 10
0.0000
 20
0.0000
 30
0.0000
 40
1.7016
 41
1.7016
 70
0
  0
VERTEX
  8
30
 10
119.5000
 20
92.6492
 30
0.0000
 42
1.0000
  0
VERTEX
  8
30
 10
119.5000
 20
94.3508
 30
0.0000
 42
1.0000
  0
VERTEX
  8
30
 10
119.5000
 20
92.6492
 30
0.0000
  0
SEQEND
  8
0
  0
POLYLINE
  8
30
 66
1
 10
0.0000
 20
0.0000
 30
0.0000
 40
1.7016
 41
1.7016
 70
0
  0
VERTEX
  8
30
 10
2.5000
 20
92.6492
 30
0.0000
 42
1.0000
  0
VERTEX
  8
30
 10
2.5000
 20
94.3508
 30
0.0000
 42
1.0000
  0
VERTEX
  8
30
 10
2.5000
 20
92.6492
 30
0.0000
  0
SEQEND
  8
0
  0
INSERT
  8
30
  2
LONGP100
 10
76.0000
 20
82.4000
 30
0.0000
 41
2.2032
 42
2.2032
 43
1.0000
 50
0.0000
  0
INSERT
  8
30
  2
LONGP100
 10
71.2000
 20
85.5000
 30
0.0000
 41
2.2032
 42
2.2032
 43
1.0000
 50
270.0000
  0
INSERT
  8
30
  2
LONGP100
 10
76.0000
 20
88.5000
 30
0.0000
 41
2.2032
 42
2.2032
 43
1.0000
 50
0.0000
  0
INSERT
  8
30
  2
RECT
 10
7.5804
 20
2.5654
 30
0.0000
 41
5.2832
 42
2.4892
 43
1.0000
 50
90.0000
  0
INSERT
  8
30
  2
RECT
 10
16.4196
 20
2.5654
 30
0.0000
 41
5.2832
 42
2.4892
 43
1.0000
 50
90.0000
  0
INSERT
  8
30
  2
RECT
 10
105.5804
 20
2.5654
 30
0.0000
 41
5.2832
 42
2.4892
 43
1.0000
 50
90.0000
  0
INSERT
  8
30
  2
RECT
 10
114.4196
 20
2.5654
 30
0.0000
 41
5.2832
 42
2.4892
 43
1.0000
 50
90.0000
  0
POLYLINE
  8
30
 66
1
 10
0.0000
 20
0.0000
 30
0.0000
 40
0.4016
 41
0.4016
 70
0
  0
VERTEX
  8
30
 10
66.8900
 20
89.4992
 30
0.0000
 42
1.0000
  0
VERTEX
  8
30
 10
66.8900
 20
89.9008
 30
0.0000
 42
1.0000
  0
VERTEX
  8
30
 10
66.8900
 20
89.4992
 30
0.0000
  0
SEQEND
  8
0
  0
POLYLINE
  8
30
 66
1
 10
0.0000
 20
0.0000
 30
0.0000
 40
0.4016
 41
0.4016
 70
0
  0
VERTEX
  8
30
 10
61.1100
 20
89.4992
 30
0.0000
 42
1.0000
  0
VERTEX
  8
30
 10
61.1100
 20
89.9008
 30
0.0000
 42
1.0000
  0
VERTEX
  8
30
 10
61.1100
 20
89.4992
 30
0.0000
  0
SEQEND
  8
0
  0
INSERT
  8
30
  2
LONGP100
 10
68.3000
 20
93.4000
 30
0.0000
 41
1.3112
 42
1.3112
 43
1.0000
 50
270.0000
  0
INSERT
  8
30
  2
LONGP100
 10
68.3200
 20
89.2000
 30
0.0000
 41
1.3112
 42
1.3112
 43
1.0000
 50
270.0000
  0
INSERT
  8
30
  2
LONGP100
 10
59.6800
 20
93.4000
 30
0.0000
 41
1.3112
 42
1.3112
 43
1.0000
 50
270.0000
  0
INSERT
  8
30
  2
LONGP100
 10
59.6800
 20
89.2000
 30
0.0000
 41
1.3112
 42
1.3112
 43
1.0000
 50
270.0000
  0
INSERT
  8
30
  2
LONGP100
 10
21.2700
 20
89.7900
 30
0.0000
 41
1.7272
 42
1.7272
 43
1.0000
 50
90.0000
  0
INSERT
  8
30
  2
LONGP100
 10
23.8100
 20
89.7900
 30
0.0000
 41
1.7272
 42
1.7272
 43
1.0000
 50
90.0000
  0
INSERT
  8
30
  2
LONGP100
 10
26.3500
 20
89.7900
 30
0.0000
 41
1.7272
 42
1.7272
 43
1.0000
 50
90.0000
  0
INSERT
  8
30
  2
LONGP100
 10
28.8900
 20
89.7900
 30
0.0000
 41
1.7272
 42
1.7272
 43
1.0000
 50
90.0000
  0
INSERT
  8
30
  2
LONGP100
 10
31.4300
 20
89.7900
 30
0.0000
 41
1.7272
 42
1.7272
 43
1.0000
 50
90.0000
  0
INSERT
  8
30
  2
LONGP100
 10
33.9700
 20
89.7900
 30
0.0000
 41
1.7272
 42
1.7272
 43
1.0000
 50
90.0000
  0
INSERT
  8
30
  2
LONGP100
 10
36.5100
 20
89.7900
 30
0.0000
 41
1.7272
 42
1.7272
 43
1.0000
 50
90.0000
  0
INSERT
  8
30
  2
LONGP100
 10
39.0500
 20
89.7900
 30
0.0000
 41
1.7272
 42
1.7272
 43
1.0000
 50
90.0000
  0
INSERT
  8
30
  2
LONGP100
 10
41.5900
 20
89.7900
 30
0.0000
 41
1.7272
 42
1.7272
 43
1.0000
 50
90.0000
  0
INSERT
  8
30
  2
LONGP100
 10
44.1300
 20
89.7900
 30
0.0000
 41
1.7272
 42
1.7272
 43
1.0000
 50
90.0000
  0
INSERT
  8
30
  2
OCTAGONP
 10
7.9700
 20
64.9700
 30
0.0000
 41
1.7272
 42
1.7272
 43
1.0000
 50
90.0000
  0
INSERT
  8
30
  2
OCTAGONP
 10
5.4300
 20
64.9700
 30
0.0000
 41
1.7272
 42
1.7272
 43
1.0000
 50
90.0000
  0
INSERT
  8
30
  2
OCTAGONP
 10
7.9700
 20
67.5100
 30
0.0000
 41
1.7272
 42
1.7272
 43
1.0000
 50
90.0000
  0
INSERT
  8
30
  2
OCTAGONP
 10
5.4300
 20
67.5100
 30
0.0000
 41
1.7272
 42
1.7272
 43
1.0000
 50
90.0000
  0
INSERT
  8
30
  2
OCTAGONP
 10
7.9700
 20
70.0500
 30
0.0000
 41
1.7272
 42
1.7272
 43
1.0000
 50
90.0000
  0
INSERT
  8
30
  2
OCTAGONP
 10
5.4300
 20
70.0500
 30
0.0000
 41
1.7272
 42
1.7272
 43
1.0000
 50
90.0000
  0
INSERT
  8
30
  2
OCTAGONP
 10
7.9700
 20
72.5900
 30
0.0000
 41
1.7272
 42
1.7272
 43
1.0000
 50
90.0000
  0
INSERT
  8
30
  2
OCTAGONP
 10
5.4300
 20
72.5900
 30
0.0000
 41
1.7272
 42
1.7272
 43
1.0000
 50
90.0000
  0
INSERT
  8
30
  2
OCTAGONP
 10
7.9700
 20
75.1300
 30
0.0000
 41
1.7272
 42
1.7272
 43
1.0000
 50
90.0000
  0
INSERT
  8
30
  2
OCTAGONP
 10
5.4300
 20
75.1300
 30
0.0000
 41
1.7272
 42
1.7272
 43
1.0000
 50
90.0000
  0
INSERT
  8
30
  2
OCTAGONP
 10
7.9700
 20
77.6700
 30
0.0000
 41
1.7272
 42
1.7272
 43
1.0000
 50
90.0000
  0
INSERT
  8
30
  2
OCTAGONP
 10
5.4300
 20
77.6700
 30
0.0000
 41
1.7272
 42
1.7272
 43
1.0000
 50
90.0000
  0
INSERT
  8
30
  2
OCTAGONP
 10
7.9700
 20
80.2100
 30
0.0000
 41
1.7272
 42
1.7272
 43
1.0000
 50
90.0000
  0
INSERT
  8
30
  2
OCTAGONP
 10
5.4300
 20
80.2100
 30
0.0000
 41
1.7272
 42
1.7272
 43
1.0000
 50
90.0000
  0
INSERT
  8
30
  2
OCTAGONP
 10
7.9700
 20
82.7500
 30
0.0000
 41
1.7272
 42
1.7272
 43
1.0000
 50
90.0000
  0
INSERT
  8
30
  2
OCTAGONP
 10
5.4300
 20
82.7500
 30
0.0000
 41
1.7272
 42
1.7272
 43
1.0000
 50
90.0000
  0
INSERT
  8
30
  2
OCTAGONP
 10
7.9700
 20
85.2900
 30
0.0000
 41
1.7272
 42
1.7272
 43
1.0000
 50
90.0000
  0
INSERT
  8
30
  2
OCTAGONP
 10
5.4300
 20
85.2900
 30
0.0000
 41
1.7272
 42
1.7272
 43
1.0000
 50
90.0000
  0
INSERT
  8
30
  2
OCTAGONP
 10
7.9700
 20
87.8300
 30
0.0000
 41
1.7272
 42
1.7272
 43
1.0000
 50
90.0000
  0
INSERT
  8
30
  2
OCTAGONP
 10
5.4300
 20
87.8300
 30
0.0000
 41
1.7272
 42
1.7272
 43
1.0000
 50
90.0000
  0
INSERT
  8
30
  2
PIE
 10
28.0000
 20
64.0000
 30
0.0000
 41
1.4732
 42
1.4732
 43
1.0000
 50
0.0000
  0
INSERT
  8
30
  2
PIE
 10
28.0000
 20
62.0000
 30
0.0000
 41
1.4732
 42
1.4732
 43
1.0000
 50
0.0000
  0
INSERT
  8
30
  2
PIE
 10
28.0000
 20
60.0000
 30
0.0000
 41
1.4732
 42
1.4732
 43
1.0000
 50
0.0000
  0
INSERT
  8
30
  2
PIE
 10
28.0000
 20
66.0000
 30
0.0000
 41
1.4732
 42
1.4732
 43
1.0000
 50
0.0000
  0
INSERT
  8
30
  2
PIE
 10
20.0000
 20
35.0000
 30
0.0000
 41
1.4732
 42
1.4732
 43
1.0000
 50
0.0000
  0
INSERT
  8
30
  2
PIE
 10
22.0000
 20
35.0000
 30
0.0000
 41
1.4732
 42
1.4732
 43
1.0000
 50
0.0000
  0
INSERT
  8
30
  2
PIE
 10
106.0000
 20
56.0000
 30
0.0000
 41
1.4732
 42
1.4732
 43
1.0000
 50
0.0000
  0
INSERT
  8
30
  2
PIE
 10
107.0000
 20
53.0000
 30
0.0000
 41
1.4732
 42
1.4732
 43
1.0000
 50
0.0000
  0
INSERT
  8
30
  2
PIE
 10
36.0000
 20
42.0000
 30
0.0000
 41
1.4732
 42
1.4732
 43
1.0000
 50
0.0000
  0
INSERT
  8
30
  2
PIE
 10
32.0000
 20
42.0000
 30
0.0000
 41
1.4732
 42
1.4732
 43
1.0000
 50
0.0000
  0
INSERT
  8
30
  2
PIE
 10
86.3000
 20
58.3000
 30
0.0000
 41
1.4732
 42
1.4732
 43
1.0000
 50
0.0000
  0
INSERT
  8
30
  2
PIE
 10
90.0000
 20
52.0000
 30
0.0000
 41
1.4732
 42
1.4732
 43
1.0000
 50
0.0000
  0
INSERT
  8
30
  2
PIE
 10
73.0000
 20
55.0000
 30
0.0000
 41
1.4732
 42
1.4732
 43
1.0000
 50
0.0000
  0
INSERT
  8
30
  2
PIE
 10
76.0000
 20
52.0000
 30
0.0000
 41
1.4732
 42
1.4732
 43
1.0000
 50
0.0000
  0
INSERT
  8
30
  2
PIE
 10
84.0000
 20
17.7000
 30
0.0000
 41
1.4732
 42
1.4732
 43
1.0000
 50
0.0000
  0
INSERT
  8
30
  2
PIE
 10
79.9000
 20
29.0000
 30
0.0000
 41
1.4732
 42
1.4732
 43
1.0000
 50
0.0000
  0
INSERT
  8
30
  2
PIE
 10
5.0000
 20
52.5000
 30
0.0000
 41
1.4732
 42
1.4732
 43
1.0000
 50
0.0000
  0
INSERT
  8
30
  2
PIE
 10
112.0000
 20
58.7000
 30
0.0000
 41
1.4732
 42
1.4732
 43
1.0000
 50
0.0000
  0
INSERT
  8
30
  2
PIE
 10
34.0000
 20
42.0000
 30
0.0000
 41
1.4732
 42
1.4732
 43
1.0000
 50
0.0000
  0
INSERT
  8
30
  2
RECT
 10
114.4946
 20
93.7846
 30
0.0000
 41
4.3942
 42
2.8702
 43
1.0000
 50
270.0000
  0
INSERT
  8
30
  2
RECT
 10
107.5054
 20
93.7846
 30
0.0000
 41
4.3942
 42
2.8702
 43
1.0000
 50
270.0000
  0
INSERT
  8
30
  2
RECT
 10
98.4946
 20
93.7846
 30
0.0000
 41
4.3942
 42
2.8702
 43
1.0000
 50
270.0000
  0
INSERT
  8
30
  2
RECT
 10
91.5054
 20
93.7846
 30
0.0000
 41
4.3942
 42
2.8702
 43
1.0000
 50
270.0000
  0
POLYLINE
  8
30
 66
1
 10
0.0000
 20
0.0000
 30
0.0000
 40
0.5516
 41
0.5516
 70
0
  0
VERTEX
  8
30
 10
54.7000
 20
90.0242
 30
0.0000
 42
1.0000
  0
VERTEX
  8
30
 10
54.7000
 20
90.5758
 30
0.0000
 42
1.0000
  0
VERTEX
  8
30
 10
54.7000
 20
90.0242
 30
0.0000
  0
SEQEND
  8
0
  0
POLYLINE
  8
30
 66
1
 10
0.0000
 20
0.0000
 30
0.0000
 40
0.5516
 41
0.5516
 70
0
  0
VERTEX
  8
30
 10
50.3000
 20
90.0242
 30
0.0000
 42
1.0000
  0
VERTEX
  8
30
 10
50.3000
 20
90.5758
 30
0.0000
 42
1.0000
  0
VERTEX
  8
30
 10
50.3000
 20
90.0242
 30
0.0000
  0
SEQEND
  8
0
  0
ENDSEC
  0
EOF
