G04 #@! TF.GenerationSoftware,KiCad,Pcbnew,(5.1.7)-1*
G04 #@! TF.CreationDate,2020-10-25T18:45:55+01:00*
G04 #@! TF.ProjectId,VNA,564e412e-6b69-4636-9164-5f7063625858,0.1*
G04 #@! TF.SameCoordinates,Original*
G04 #@! TF.FileFunction,Soldermask,Bot*
G04 #@! TF.FilePolarity,Negative*
%FSLAX46Y46*%
G04 Gerber Fmt 4.6, Leading zero omitted, Abs format (unit mm)*
G04 Created by KiCad (PCBNEW (5.1.7)-1) date 2020-10-25 18:45:55*
%MOMM*%
%LPD*%
G01*
G04 APERTURE LIST*
%ADD10C,0.100000*%
%ADD11C,0.152400*%
%ADD12C,1.004800*%
%ADD13O,1.354800X2.404800*%
%ADD14C,1.504800*%
%ADD15O,1.804800X3.304800*%
%ADD16O,1.727200X3.251200*%
%ADD17C,1.727200*%
G04 APERTURE END LIST*
D10*
X201501100Y-89003600D02*
G75*
G02*
X206501100Y-94003600I0J-5000000D01*
G01*
X201501100Y-89003600D02*
X190501100Y-89003600D01*
X187501100Y-92003600D02*
G75*
G02*
X190501100Y-89003600I3000000J0D01*
G01*
X187501100Y-92003600D02*
X187501100Y-102003600D01*
X189501100Y-104003600D02*
G75*
G02*
X187501100Y-102003600I0J2000000D01*
G01*
X189501100Y-104003600D02*
X192501100Y-104003600D01*
X194501100Y-106003600D02*
G75*
G03*
X192501100Y-104003600I-2000000J0D01*
G01*
X194501100Y-106003600D02*
X194501100Y-111003600D01*
X196501100Y-113003600D02*
G75*
G02*
X194501100Y-111003600I0J2000000D01*
G01*
X198501100Y-115003600D02*
G75*
G03*
X196501100Y-113003600I-2000000J0D01*
G01*
X198501100Y-115003600D02*
X198501100Y-118003600D01*
X196501100Y-120003600D02*
G75*
G03*
X198501100Y-118003600I0J2000000D01*
G01*
X196501100Y-120003600D02*
X188501100Y-120003600D01*
X186501100Y-122003600D02*
G75*
G02*
X188501100Y-120003600I2000000J0D01*
G01*
X184501100Y-143003600D02*
G75*
G03*
X186501100Y-141003600I0J2000000D01*
G01*
X178501100Y-141003601D02*
G75*
G03*
X184501100Y-143003600I5999999J8000000D01*
G01*
X172501100Y-139003600D02*
G75*
G02*
X178501100Y-141003600I-1J-10000003D01*
G01*
X170501100Y-141003600D02*
G75*
G02*
X172501100Y-139003600I2000000J0D01*
G01*
X170501100Y-141003600D02*
X170501100Y-143103600D01*
X170501100Y-143103600D02*
X170501100Y-144503600D01*
X170501100Y-144503600D02*
X155501100Y-144503600D01*
X172501100Y-136003600D02*
X173301100Y-136003600D01*
X173301100Y-136003600D02*
X181501100Y-136003600D01*
X191501100Y-114003600D02*
G75*
G02*
X188501100Y-117003600I-3000000J0D01*
G01*
X191501100Y-114003600D02*
X191501100Y-109003600D01*
X189501100Y-107003600D02*
G75*
G02*
X191501100Y-109003600I0J-2000000D01*
G01*
X184501100Y-100003600D02*
X184501100Y-94003600D01*
X158501100Y-129003600D02*
X158501100Y-135503600D01*
X160501100Y-137503600D02*
G75*
G02*
X158501100Y-135503600I0J2000000D01*
G01*
X167201100Y-136703600D02*
G75*
G02*
X160501100Y-137503600I-6700001J27656250D01*
G01*
X173301100Y-136003600D02*
G75*
G03*
X167201100Y-136703600I-228716J-24935478D01*
G01*
X158501100Y-129003600D02*
X158501100Y-124003600D01*
X162501100Y-120003600D02*
G75*
G03*
X158501100Y-124003600I0J-4000000D01*
G01*
X162501100Y-120003600D02*
X181501100Y-120003600D01*
X183501100Y-122003600D02*
G75*
G03*
X181501100Y-120003600I-2000000J0D01*
G01*
X188501100Y-117003600D02*
X160501100Y-117003600D01*
X155501100Y-122003600D02*
X155501100Y-144503600D01*
X186501100Y-106003601D02*
G75*
G03*
X189501100Y-107003600I2999999J4000000D01*
G01*
X183501100Y-105003600D02*
G75*
G02*
X186501100Y-106003600I-1J-5000003D01*
G01*
X183501100Y-105003600D02*
X170501100Y-105003600D01*
X167501100Y-108003600D02*
G75*
G02*
X170501100Y-105003600I3000000J0D01*
G01*
X163501100Y-112003600D02*
G75*
G03*
X167501100Y-108003600I0J4000000D01*
G01*
X163501100Y-112003600D02*
X153501100Y-112003600D01*
X153501100Y-112003600D02*
X152501100Y-112003600D01*
X152501100Y-112003600D02*
X149501100Y-112003600D01*
X153501100Y-109003600D02*
X162501100Y-109003600D01*
X164501100Y-107003600D02*
G75*
G02*
X162501100Y-109003600I-2000000J0D01*
G01*
X169501100Y-102003600D02*
G75*
G03*
X164501100Y-107003600I0J-5000000D01*
G01*
X169501100Y-102003600D02*
X182501100Y-102003600D01*
X184501100Y-100003600D02*
G75*
G02*
X182501100Y-102003600I-2000000J0D01*
G01*
X160501100Y-117003600D02*
X156501100Y-117003600D01*
X155501100Y-118003600D02*
G75*
G02*
X156501100Y-117003600I1000000J0D01*
G01*
X155501100Y-118003600D02*
X155501100Y-122003600D01*
X182501100Y-92003600D02*
G75*
G02*
X184501100Y-94003600I0J-2000000D01*
G01*
X182501100Y-92003600D02*
X155501100Y-92003600D01*
X149501100Y-98003600D02*
G75*
G02*
X155501100Y-92003600I6000000J0D01*
G01*
X149501100Y-98003600D02*
X149501100Y-100003600D01*
X149501100Y-100003600D02*
X146501100Y-100003600D01*
X149501100Y-100003600D02*
X149501100Y-105003600D01*
X153501100Y-109003600D02*
G75*
G02*
X149501100Y-105003600I0J4000000D01*
G01*
X149501100Y-100003600D02*
X146501100Y-100003600D01*
X146501100Y-100003600D02*
X146501100Y-102003600D01*
X146501100Y-102003600D02*
X146501100Y-105003600D01*
X146501100Y-105003600D02*
X146501100Y-110003600D01*
X148501100Y-112003600D02*
G75*
G02*
X146501100Y-110003600I0J2000000D01*
G01*
X148501100Y-112003600D02*
X152501100Y-112003600D01*
X146501100Y-100003600D02*
X144501100Y-100003600D01*
X144501100Y-100003600D02*
X137501100Y-100003600D01*
X130501100Y-107003600D02*
G75*
G02*
X137501100Y-100003600I7000000J0D01*
G01*
X130501100Y-107003600D02*
X130501100Y-111003600D01*
X138501100Y-119003600D02*
G75*
G02*
X130501100Y-111003600I0J8000000D01*
G01*
X138501100Y-119003600D02*
X144501100Y-119003600D01*
X145501100Y-120003600D02*
G75*
G03*
X144501100Y-119003600I-1000000J0D01*
G01*
X145501100Y-120003600D02*
X145501100Y-143003600D01*
X145501100Y-143003600D02*
X142501100Y-143003600D01*
X142501100Y-143003600D02*
X142501100Y-139003600D01*
X142501100Y-139003600D02*
X142501100Y-126003600D01*
X138501100Y-122003600D02*
G75*
G02*
X142501100Y-126003600I0J-4000000D01*
G01*
X127501100Y-111003600D02*
G75*
G03*
X138501100Y-122003600I11000000J0D01*
G01*
X127501100Y-111003600D02*
X127501100Y-108103600D01*
X137501100Y-97003600D02*
X144501100Y-97003600D01*
X143501100Y-144503600D02*
X144501100Y-144503600D01*
X145501100Y-143503600D02*
G75*
G02*
X144501100Y-144503600I-1000000J0D01*
G01*
X145501100Y-143503600D02*
X145501100Y-142503600D01*
X127501100Y-108103600D02*
X127501100Y-108003600D01*
X125501100Y-106003600D02*
G75*
G02*
X127501100Y-108003600I0J-2000000D01*
G01*
X125501100Y-106003600D02*
X116501100Y-106003600D01*
X114501100Y-108003600D02*
G75*
G02*
X116501100Y-106003600I2000000J0D01*
G01*
X114501100Y-108003600D02*
X114501100Y-135003600D01*
X115501100Y-136003600D02*
G75*
G02*
X114501100Y-135003600I0J1000000D01*
G01*
X115501100Y-136003600D02*
X119501100Y-136003600D01*
X122501100Y-139003600D02*
G75*
G03*
X119501100Y-136003600I-3000000J0D01*
G01*
X122501100Y-139003600D02*
X122501100Y-139503600D01*
X111501100Y-135003600D02*
X111501100Y-129003600D01*
X111501100Y-118003600D02*
X111501100Y-108003600D01*
X114001100Y-101503600D02*
X127926100Y-101503600D01*
X116501100Y-140003600D02*
G75*
G02*
X111501100Y-135003600I0J5000000D01*
G01*
X119501100Y-141003600D02*
G75*
G03*
X116501100Y-140003600I-3000000J-4000000D01*
G01*
X119501100Y-141003600D02*
G75*
G02*
X120501100Y-142003600I-2999994J-3999994D01*
G01*
X94501100Y-95003600D02*
X98501100Y-95003600D01*
X111501100Y-108003600D02*
G75*
G03*
X98501100Y-95003600I-13000000J0D01*
G01*
X92601100Y-92003600D02*
X98501100Y-92003600D01*
X112801100Y-100803601D02*
G75*
G03*
X114001100Y-101503600I1188636J659091D01*
G01*
X112801100Y-100803601D02*
G75*
G03*
X98501100Y-92003600I-14300001J-7218750D01*
G01*
X130026099Y-100353600D02*
G75*
G02*
X127926100Y-101503600I-2046667J1245000D01*
G01*
X130026099Y-100353599D02*
G75*
G02*
X137501100Y-97003600I6864167J-5301668D01*
G01*
X204501100Y-86003600D02*
X187501100Y-86003600D01*
X183501099Y-87503600D02*
G75*
G02*
X187501100Y-86003600I4000001J-4583335D01*
G01*
X179501100Y-89003601D02*
G75*
G03*
X183501100Y-87503600I1J6083329D01*
G01*
X179501100Y-89003600D02*
X155501100Y-89003600D01*
X146901099Y-95203599D02*
G75*
G02*
X144501100Y-97003600I-2400000J699999D01*
G01*
X146901099Y-95203599D02*
G75*
G02*
X155501100Y-89003600I8600000J-2864517D01*
G01*
X87501100Y-154003600D02*
X87501100Y-92003600D01*
X90501100Y-148003600D02*
X90501100Y-149003600D01*
X94501100Y-95003600D02*
G75*
G03*
X90501100Y-99003600I0J-4000000D01*
G01*
X108501100Y-123003600D02*
X108501100Y-124003600D01*
X110001100Y-126503600D02*
G75*
G02*
X108501100Y-124003600I1333334J2500000D01*
G01*
X111501100Y-129003601D02*
G75*
G03*
X110001100Y-126503600I-2833331J2D01*
G01*
X110001100Y-120503600D02*
G75*
G03*
X108501100Y-123003600I1333334J-2500001D01*
G01*
X111501099Y-118003600D02*
G75*
G02*
X110001100Y-120503600I-2833330J-2D01*
G01*
X93501100Y-124003600D02*
X93501100Y-123003600D01*
X92001099Y-120503600D02*
G75*
G02*
X93501100Y-123003600I-1333334J-2500001D01*
G01*
X90501100Y-118003600D02*
G75*
G03*
X92001100Y-120503600I2833330J-2D01*
G01*
X92001100Y-126503601D02*
G75*
G03*
X93501100Y-124003600I-1333335J2500001D01*
G01*
X90501099Y-129003600D02*
G75*
G02*
X92001100Y-126503600I2833331J1D01*
G01*
X203501100Y-130003600D02*
X203501100Y-131003600D01*
X205001100Y-133503600D02*
G75*
G02*
X203501100Y-131003600I1333334J2500000D01*
G01*
X206501100Y-136003601D02*
G75*
G03*
X205001100Y-133503600I-2833331J2D01*
G01*
X205001100Y-127503600D02*
G75*
G03*
X203501100Y-130003600I1333334J-2500001D01*
G01*
X206501099Y-125003600D02*
G75*
G02*
X205001100Y-127503600I-2833330J-2D01*
G01*
X90501100Y-99003600D02*
X90501100Y-118003600D01*
X90501100Y-129003600D02*
X90501100Y-145003600D01*
X94501100Y-149003600D02*
G75*
G02*
X90501100Y-145003600I0J4000000D01*
G01*
X202501100Y-149003600D02*
G75*
G03*
X206501100Y-145003600I0J4000000D01*
G01*
X206501100Y-145003600D02*
X206501100Y-136003600D01*
X206501100Y-125003600D02*
X206501100Y-94003600D01*
X206501100Y-84003600D02*
G75*
G02*
X204501100Y-86003600I-2000000J0D01*
G01*
X206501100Y-84003600D02*
X206501100Y-83003600D01*
X206501100Y-83003600D02*
X206501100Y-63003600D01*
X87501100Y-92003600D02*
X87501100Y-56003600D01*
X168501100Y-56003600D02*
X168501100Y-59003600D01*
X168501100Y-59003600D02*
X94501100Y-59003600D01*
X90501100Y-63003600D02*
G75*
G02*
X94501100Y-59003600I4000000J0D01*
G01*
X90501100Y-63003600D02*
X90501100Y-90003600D01*
X92501100Y-92003600D02*
G75*
G02*
X90501100Y-90003600I0J2000000D01*
G01*
X92501100Y-92003600D02*
X92601100Y-92003600D01*
X168501100Y-56003600D02*
X168501100Y-59003600D01*
X168501100Y-59003600D02*
X177501100Y-59003600D01*
X177501100Y-59003600D02*
X177501100Y-56003600D01*
X177501100Y-56003600D02*
X168501100Y-56003600D01*
X187501100Y-56003600D02*
X187501100Y-59003600D01*
X187501100Y-59003600D02*
X193501100Y-59003600D01*
X193501100Y-59003600D02*
X193501100Y-56003600D01*
X193501100Y-56003600D02*
X187501100Y-56003600D01*
X203501100Y-56003600D02*
X209501100Y-56003600D01*
X209501100Y-56003600D02*
X209501100Y-154003600D01*
X202501100Y-154003600D02*
X192501100Y-154003600D01*
X104501100Y-154003600D02*
X94501100Y-154003600D01*
X94501100Y-154003600D02*
X87501100Y-154003600D01*
X206501100Y-63003600D02*
X206501100Y-62203600D01*
X203501100Y-59203600D02*
G75*
G02*
X206501100Y-62203600I0J-3000000D01*
G01*
X203501100Y-59203600D02*
X203501100Y-56003600D01*
X94501100Y-149003600D02*
X94501100Y-154003600D01*
X94501100Y-154003600D02*
X87501100Y-154003600D01*
X209501100Y-154003600D02*
X202501100Y-154003600D01*
X202501100Y-154003600D02*
X202501100Y-149003600D01*
X192501100Y-154003600D02*
X192501100Y-149003600D01*
X192501100Y-149003600D02*
X104501100Y-149003600D01*
X104501100Y-149003600D02*
X104501100Y-154003600D01*
X104501100Y-154003600D02*
X192501100Y-154003600D01*
X144501100Y-141503600D02*
G75*
G02*
X145501100Y-142503600I0J-1000000D01*
G01*
X144501100Y-141503600D02*
X140501100Y-141503600D01*
X143501100Y-144503600D02*
X130101100Y-144503600D01*
X129301100Y-144303601D02*
G75*
G03*
X130101100Y-144503600I799999J1500000D01*
G01*
X127401100Y-142803601D02*
G75*
G03*
X129301100Y-144303600I5110940J4520525D01*
G01*
X127101100Y-142003600D02*
G75*
G03*
X127401100Y-142803600I1195522J-7930D01*
G01*
X127601100Y-141503601D02*
G75*
G03*
X127101100Y-142003600I3337J-503337D01*
G01*
X127701100Y-141503600D02*
G75*
G03*
X127601100Y-141503600I-50000J-7540634D01*
G01*
X127801100Y-141503600D02*
G75*
G02*
X127701100Y-141503600I-50000J7540633D01*
G01*
X122501100Y-139003600D02*
X122501100Y-140003600D01*
X122501100Y-140003600D02*
X122501100Y-142003600D01*
X121301100Y-142803601D02*
G75*
G03*
X122501100Y-142003600I333333J800000D01*
G01*
X121001101Y-142603600D02*
G75*
G03*
X121301100Y-142803600I661107J666662D01*
G01*
X120501100Y-142003600D02*
G75*
G03*
X121001100Y-142603600I3403581J2327984D01*
G01*
X186001100Y-122503600D02*
G75*
G03*
X186501100Y-122003600I0J500000D01*
G01*
X186001100Y-122503600D02*
X184001100Y-122503600D01*
X183501100Y-122003600D02*
G75*
G03*
X184001100Y-122503600I500000J0D01*
G01*
X142501100Y-139503600D02*
G75*
G02*
X140501100Y-141503600I-2000000J0D01*
G01*
X142501100Y-139503600D02*
X142501100Y-139003600D01*
D11*
G36*
X94486747Y-149029217D02*
G01*
X94327359Y-148997339D01*
X94168441Y-148976308D01*
X93983379Y-148965752D01*
X93952988Y-148965462D01*
X93797344Y-148952421D01*
X93586382Y-148918028D01*
X93362742Y-148869381D01*
X93337524Y-148863036D01*
X92752149Y-148662198D01*
X92215035Y-148374519D01*
X91734400Y-148006699D01*
X91318466Y-147565437D01*
X90975451Y-147057433D01*
X90866182Y-146848795D01*
X90818020Y-146752603D01*
X90774045Y-146668212D01*
X90734067Y-146590849D01*
X90697897Y-146515743D01*
X90665346Y-146438123D01*
X90636225Y-146353217D01*
X90610344Y-146256254D01*
X90587514Y-146142462D01*
X90567547Y-146007070D01*
X90550252Y-145845307D01*
X90535441Y-145652400D01*
X90522925Y-145423580D01*
X90512514Y-145154073D01*
X90504019Y-144839109D01*
X90497251Y-144473916D01*
X90492021Y-144053723D01*
X90488139Y-143573758D01*
X90485417Y-143029250D01*
X90483665Y-142415428D01*
X90482693Y-141727519D01*
X90482313Y-140960753D01*
X90482336Y-140110358D01*
X90482572Y-139171563D01*
X90482833Y-138139596D01*
X90482932Y-137183534D01*
X90482932Y-128589357D01*
X90600535Y-128249029D01*
X90756980Y-127880988D01*
X90963739Y-127551263D01*
X91233095Y-127246116D01*
X91577329Y-126951809D01*
X92008726Y-126654604D01*
X92048269Y-126629730D01*
X92467411Y-126309178D01*
X92828823Y-125913479D01*
X93121229Y-125458300D01*
X93333353Y-124959312D01*
X93389394Y-124766091D01*
X93430051Y-124532761D01*
X93457054Y-124224377D01*
X93470651Y-123866941D01*
X93471095Y-123486454D01*
X93458637Y-123108917D01*
X93433528Y-122760334D01*
X93396019Y-122466704D01*
X93365773Y-122320221D01*
X93214903Y-121863088D01*
X93005244Y-121460740D01*
X92725732Y-121098588D01*
X92365302Y-120762045D01*
X91960638Y-120467712D01*
X91722194Y-120302503D01*
X91490571Y-120128074D01*
X91292758Y-119965572D01*
X91159166Y-119839824D01*
X90931950Y-119544309D01*
X90733190Y-119187352D01*
X90582604Y-118809141D01*
X90509696Y-118516064D01*
X90502337Y-118436094D01*
X90495672Y-118285808D01*
X90489694Y-118063023D01*
X90484395Y-117765558D01*
X90479764Y-117391230D01*
X90475795Y-116937858D01*
X90472479Y-116403259D01*
X90469806Y-115785253D01*
X90467769Y-115081657D01*
X90466358Y-114290288D01*
X90465566Y-113408966D01*
X90465384Y-112435508D01*
X90465803Y-111367733D01*
X90466815Y-110203457D01*
X90468411Y-108940501D01*
X90469478Y-108238755D01*
X90471411Y-107052216D01*
X90473284Y-105963349D01*
X90475142Y-104967818D01*
X90477031Y-104061286D01*
X90478996Y-103239417D01*
X90481083Y-102497875D01*
X90483337Y-101832324D01*
X90485805Y-101238428D01*
X90488531Y-100711850D01*
X90491561Y-100248255D01*
X90494942Y-99843305D01*
X90498718Y-99492666D01*
X90502934Y-99192000D01*
X90507638Y-98936971D01*
X90512873Y-98723244D01*
X90518686Y-98546482D01*
X90525123Y-98402349D01*
X90532228Y-98286509D01*
X90540048Y-98194625D01*
X90548628Y-98122362D01*
X90558014Y-98065383D01*
X90568251Y-98019352D01*
X90577248Y-97986948D01*
X90809393Y-97381015D01*
X91121840Y-96834450D01*
X91509386Y-96352555D01*
X91966831Y-95940634D01*
X92488973Y-95603988D01*
X93070612Y-95347921D01*
X93211646Y-95301171D01*
X93594177Y-95181727D01*
X96628916Y-95182196D01*
X97264371Y-95182421D01*
X97807210Y-95183081D01*
X98266821Y-95184469D01*
X98652597Y-95186881D01*
X98973927Y-95190611D01*
X99240202Y-95195953D01*
X99460813Y-95203203D01*
X99645150Y-95212655D01*
X99802604Y-95224603D01*
X99942565Y-95239342D01*
X100074424Y-95257167D01*
X100207572Y-95278372D01*
X100321752Y-95298043D01*
X101210788Y-95477835D01*
X102032701Y-95696654D01*
X102818089Y-95964268D01*
X103597553Y-96290445D01*
X103947992Y-96455747D01*
X104947868Y-96998209D01*
X105886388Y-97619778D01*
X106760121Y-98315593D01*
X107565631Y-99080791D01*
X108299485Y-99910511D01*
X108958251Y-100799892D01*
X109538493Y-101744072D01*
X110036778Y-102738188D01*
X110449673Y-103777380D01*
X110487029Y-103901804D01*
X112454428Y-103901804D01*
X112513168Y-103600535D01*
X112665446Y-103257053D01*
X112888328Y-102976719D01*
X113167532Y-102766113D01*
X113488778Y-102631813D01*
X113837784Y-102580398D01*
X114200269Y-102618447D01*
X114459378Y-102703980D01*
X114759848Y-102884825D01*
X114995138Y-103130207D01*
X115161649Y-103423336D01*
X115255778Y-103747425D01*
X115273926Y-104085683D01*
X115212490Y-104421323D01*
X115067869Y-104737555D01*
X114934135Y-104917321D01*
X114719262Y-105132317D01*
X114506715Y-105272319D01*
X114266268Y-105350486D01*
X113967690Y-105379979D01*
X113868273Y-105381306D01*
X113547594Y-105363196D01*
X113293642Y-105300117D01*
X113076235Y-105178945D01*
X112865192Y-104986556D01*
X112803164Y-104918177D01*
X112588922Y-104604177D01*
X112472178Y-104263120D01*
X112454428Y-103901804D01*
X110487029Y-103901804D01*
X110773745Y-104856785D01*
X111005558Y-105971543D01*
X111088849Y-106566542D01*
X111102333Y-106733767D01*
X111114656Y-106989575D01*
X111125818Y-107325874D01*
X111135822Y-107734572D01*
X111144669Y-108207577D01*
X111152360Y-108736797D01*
X111158896Y-109314142D01*
X111164278Y-109931518D01*
X111168508Y-110580834D01*
X111171587Y-111253998D01*
X111173517Y-111942919D01*
X111174298Y-112639504D01*
X111173932Y-113335662D01*
X111172420Y-114023301D01*
X111169763Y-114694330D01*
X111165963Y-115340655D01*
X111161021Y-115954186D01*
X111154938Y-116526831D01*
X111147716Y-117050498D01*
X111139355Y-117517094D01*
X111129858Y-117918530D01*
X111119224Y-118246711D01*
X111107457Y-118493547D01*
X111094556Y-118650947D01*
X111086939Y-118696613D01*
X110910047Y-119186292D01*
X110644821Y-119626044D01*
X110293381Y-120013099D01*
X109857846Y-120344691D01*
X109796233Y-120382929D01*
X109496444Y-120574542D01*
X109259977Y-120752482D01*
X109056214Y-120942838D01*
X108854537Y-121171698D01*
X108818486Y-121216026D01*
X108598123Y-121522285D01*
X108427870Y-121839508D01*
X108303621Y-122183858D01*
X108221269Y-122571499D01*
X108176708Y-123018597D01*
X108165833Y-123541315D01*
X108167893Y-123658533D01*
X109945408Y-123658533D01*
X109963816Y-123316434D01*
X110064542Y-122988084D01*
X110246851Y-122690406D01*
X110484268Y-122459497D01*
X110811359Y-122271470D01*
X111169488Y-122174663D01*
X111539989Y-122171287D01*
X111904195Y-122263549D01*
X111956150Y-122285340D01*
X112256323Y-122471607D01*
X112497169Y-122730080D01*
X112667450Y-123043003D01*
X112755930Y-123392623D01*
X112766060Y-123565004D01*
X112720243Y-123934588D01*
X112594291Y-124258211D01*
X112401479Y-124530097D01*
X112155079Y-124744472D01*
X111868363Y-124895562D01*
X111554605Y-124977593D01*
X111227077Y-124984789D01*
X110899053Y-124911377D01*
X110583805Y-124751581D01*
X110391437Y-124598099D01*
X110158484Y-124316289D01*
X110010052Y-123997459D01*
X109945408Y-123658533D01*
X108167893Y-123658533D01*
X108169844Y-123769478D01*
X108180077Y-124106089D01*
X108192361Y-124362136D01*
X108209332Y-124559060D01*
X108233622Y-124718304D01*
X108267869Y-124861310D01*
X108314705Y-125009519D01*
X108326362Y-125043240D01*
X108556591Y-125551341D01*
X108872194Y-126005265D01*
X109269540Y-126400674D01*
X109736948Y-126728518D01*
X110183757Y-127036486D01*
X110544877Y-127389401D01*
X110831375Y-127799902D01*
X111020992Y-128194814D01*
X111138722Y-128487349D01*
X111167236Y-132185141D01*
X111195749Y-135882932D01*
X111329907Y-136377967D01*
X111572372Y-137087223D01*
X111898744Y-137742521D01*
X112304644Y-138338624D01*
X112453415Y-138503050D01*
X118479133Y-138503050D01*
X118552906Y-138176422D01*
X118713865Y-137863341D01*
X118825481Y-137720028D01*
X119089324Y-137473403D01*
X119373233Y-137319891D01*
X119697624Y-137250808D01*
X119937751Y-137246973D01*
X120240814Y-137278899D01*
X120478057Y-137342585D01*
X120522105Y-137361947D01*
X120789025Y-137542331D01*
X121017784Y-137793055D01*
X121191762Y-138088074D01*
X121294342Y-138401342D01*
X121314859Y-138604303D01*
X121267374Y-138971314D01*
X121133113Y-139303440D01*
X120924374Y-139588332D01*
X120653452Y-139813638D01*
X120332642Y-139967008D01*
X119974240Y-140036093D01*
X119886747Y-140038762D01*
X119522612Y-139993969D01*
X119202565Y-139868558D01*
X118932762Y-139675980D01*
X118719360Y-139429689D01*
X118568517Y-139143135D01*
X118486389Y-138829771D01*
X118479133Y-138503050D01*
X112453415Y-138503050D01*
X112785696Y-138870296D01*
X113337519Y-139332302D01*
X113955737Y-139719406D01*
X114244161Y-139863039D01*
X114569989Y-139999387D01*
X114903097Y-140107151D01*
X115265578Y-140191202D01*
X115679526Y-140256411D01*
X116167036Y-140307649D01*
X116316466Y-140319901D01*
X116778969Y-140360240D01*
X117160631Y-140405094D01*
X117482619Y-140459515D01*
X117766098Y-140528555D01*
X118032236Y-140617264D01*
X118302197Y-140730696D01*
X118560871Y-140855549D01*
X118961552Y-141079902D01*
X119326262Y-141335814D01*
X119674296Y-141639829D01*
X120024948Y-142008491D01*
X120328239Y-142370976D01*
X120586488Y-142677222D01*
X120811526Y-142903057D01*
X121017870Y-143058222D01*
X121220035Y-143152462D01*
X121432538Y-143195518D01*
X121564739Y-143200888D01*
X121833526Y-143152103D01*
X122092441Y-143021993D01*
X122316209Y-142830072D01*
X122479557Y-142595854D01*
X122535889Y-142451093D01*
X122550427Y-142345453D01*
X122562911Y-142144979D01*
X122573163Y-141856831D01*
X122581004Y-141488165D01*
X122586256Y-141046139D01*
X122588741Y-140537912D01*
X122588921Y-140320281D01*
X122588026Y-139791268D01*
X122585379Y-139353724D01*
X122580617Y-138997119D01*
X122573379Y-138710922D01*
X122563303Y-138484605D01*
X122550026Y-138307636D01*
X122533186Y-138169487D01*
X122512421Y-138059628D01*
X122510946Y-138053300D01*
X122342249Y-137547696D01*
X122089281Y-137098232D01*
X121755224Y-136708529D01*
X121343256Y-136382206D01*
X120856559Y-136122884D01*
X120791808Y-136095840D01*
X120723737Y-136069846D01*
X120652433Y-136048156D01*
X120567973Y-136030230D01*
X120460437Y-136015530D01*
X120319904Y-136003517D01*
X120136453Y-135993652D01*
X119900163Y-135985395D01*
X119601114Y-135978209D01*
X119229383Y-135971554D01*
X118775051Y-135964892D01*
X118254618Y-135958023D01*
X117709159Y-135950731D01*
X117255905Y-135943829D01*
X116885057Y-135936820D01*
X116586815Y-135929205D01*
X116351380Y-135920488D01*
X116168954Y-135910171D01*
X116029737Y-135897758D01*
X115923929Y-135882750D01*
X115841732Y-135864650D01*
X115773346Y-135842962D01*
X115740844Y-135830444D01*
X115367661Y-135626872D01*
X115046336Y-135344898D01*
X114792217Y-135001253D01*
X114620652Y-134612666D01*
X114619167Y-134607831D01*
X114612419Y-134564603D01*
X114606136Y-134478641D01*
X114600305Y-134346953D01*
X114594910Y-134166546D01*
X114589940Y-133934427D01*
X114585380Y-133647602D01*
X114581216Y-133303079D01*
X114577435Y-132897864D01*
X114574022Y-132428965D01*
X114570964Y-131893388D01*
X114568248Y-131288140D01*
X114565859Y-130610229D01*
X114563785Y-129856661D01*
X114562010Y-129024443D01*
X114560521Y-128110581D01*
X114559305Y-127112084D01*
X114558348Y-126025957D01*
X114557635Y-124849209D01*
X114557154Y-123578845D01*
X114556891Y-122211872D01*
X114556827Y-121040763D01*
X114556842Y-119660289D01*
X114556904Y-118378114D01*
X114557040Y-117190531D01*
X114557275Y-116093830D01*
X114557637Y-115084304D01*
X114558152Y-114158244D01*
X114558846Y-113311942D01*
X114559746Y-112541689D01*
X114560878Y-111843777D01*
X114562268Y-111214497D01*
X114563944Y-110650142D01*
X114565930Y-110147002D01*
X114568254Y-109701370D01*
X114570942Y-109309536D01*
X114574021Y-108967793D01*
X114577516Y-108672432D01*
X114581455Y-108419745D01*
X114585863Y-108206023D01*
X114590767Y-108027558D01*
X114596194Y-107880642D01*
X114602170Y-107761565D01*
X114608721Y-107666621D01*
X114615873Y-107592100D01*
X114623654Y-107534294D01*
X114632089Y-107489495D01*
X114641206Y-107453993D01*
X114651029Y-107424082D01*
X114653829Y-107416421D01*
X114840808Y-107043091D01*
X115099025Y-106721679D01*
X115360367Y-106507054D01*
X115443211Y-106452079D01*
X115519657Y-106403490D01*
X115596213Y-106360892D01*
X115679385Y-106323895D01*
X115775679Y-106292104D01*
X115891604Y-106265128D01*
X116033664Y-106242572D01*
X116208368Y-106224045D01*
X116422221Y-106209154D01*
X116681730Y-106197506D01*
X116993403Y-106188708D01*
X117363745Y-106182367D01*
X117799263Y-106178090D01*
X118306465Y-106175486D01*
X118891857Y-106174160D01*
X119561945Y-106173720D01*
X120323236Y-106173774D01*
X120879290Y-106173889D01*
X121712199Y-106174314D01*
X122448825Y-106175339D01*
X123094892Y-106177044D01*
X123656124Y-106179508D01*
X124138245Y-106182812D01*
X124546979Y-106187034D01*
X124888048Y-106192254D01*
X125167178Y-106198552D01*
X125390093Y-106206007D01*
X125562515Y-106214700D01*
X125690169Y-106224709D01*
X125778779Y-106236114D01*
X125810733Y-106242483D01*
X126215453Y-106388453D01*
X126570533Y-106621113D01*
X126867896Y-106933997D01*
X127062122Y-107244177D01*
X127205823Y-107524699D01*
X127238029Y-109845381D01*
X127247333Y-110462278D01*
X127257483Y-110989385D01*
X127269565Y-111438923D01*
X127284659Y-111823111D01*
X127303851Y-112154167D01*
X127328223Y-112444311D01*
X127358858Y-112705762D01*
X127396838Y-112950738D01*
X127443249Y-113191460D01*
X127499172Y-113440146D01*
X127565690Y-113709014D01*
X127588334Y-113797220D01*
X127904157Y-114819979D01*
X128310308Y-115799027D01*
X128802838Y-116729378D01*
X129377798Y-117606048D01*
X130031241Y-118424051D01*
X130759217Y-119178402D01*
X131557778Y-119864115D01*
X132422976Y-120476204D01*
X133265650Y-120965421D01*
X134060604Y-121347050D01*
X134857625Y-121655423D01*
X134901968Y-121668437D01*
X141573022Y-121668437D01*
X141575758Y-121453053D01*
X141651760Y-121088598D01*
X141809535Y-120771727D01*
X142036527Y-120511193D01*
X142320181Y-120315750D01*
X142647942Y-120194152D01*
X143007254Y-120155151D01*
X143368594Y-120203132D01*
X143651915Y-120321356D01*
X143918487Y-120518663D01*
X144141558Y-120772622D01*
X144238008Y-120932204D01*
X144363317Y-121274421D01*
X144396726Y-121611567D01*
X144348215Y-121933511D01*
X144227769Y-122230124D01*
X144045368Y-122491278D01*
X143810994Y-122706843D01*
X143534631Y-122866690D01*
X143226259Y-122960688D01*
X142895861Y-122978710D01*
X142553419Y-122910625D01*
X142364559Y-122833296D01*
X142042777Y-122623806D01*
X141799937Y-122353435D01*
X141641524Y-122031780D01*
X141573022Y-121668437D01*
X134901968Y-121668437D01*
X135675005Y-121895310D01*
X136531035Y-122071480D01*
X137444007Y-122188701D01*
X138152475Y-122239564D01*
X138617129Y-122269066D01*
X139001201Y-122308558D01*
X139325981Y-122362754D01*
X139612758Y-122436368D01*
X139882821Y-122534113D01*
X140157462Y-122660703D01*
X140235953Y-122700851D01*
X140757459Y-123028507D01*
X141214523Y-123431659D01*
X141600347Y-123901644D01*
X141908130Y-124429798D01*
X142131074Y-125007456D01*
X142176551Y-125173620D01*
X142191758Y-125236413D01*
X142205366Y-125300501D01*
X142217450Y-125371552D01*
X142228084Y-125455230D01*
X142237345Y-125557202D01*
X142245309Y-125683134D01*
X142252050Y-125838692D01*
X142257644Y-126029542D01*
X142262167Y-126261349D01*
X142265693Y-126539781D01*
X142268300Y-126870503D01*
X142270061Y-127259180D01*
X142271052Y-127711480D01*
X142271350Y-128233067D01*
X142271029Y-128829608D01*
X142270165Y-129506770D01*
X142268833Y-130270217D01*
X142267109Y-131125617D01*
X142265552Y-131855146D01*
X142252008Y-138127108D01*
X142109491Y-138417326D01*
X141918715Y-138712077D01*
X141657370Y-138986175D01*
X141356579Y-139210919D01*
X141116998Y-139332550D01*
X141043821Y-139360374D01*
X140970899Y-139383518D01*
X140888156Y-139402552D01*
X140785519Y-139418047D01*
X140652911Y-139430573D01*
X140480258Y-139440700D01*
X140257487Y-139449000D01*
X139974520Y-139456043D01*
X139621285Y-139462399D01*
X139187705Y-139468640D01*
X138663707Y-139475335D01*
X138576851Y-139476412D01*
X136329807Y-139504217D01*
X135950145Y-139693720D01*
X135814267Y-139763496D01*
X135691484Y-139832838D01*
X135568443Y-139911698D01*
X135431790Y-140010029D01*
X135268173Y-140137783D01*
X135064239Y-140304911D01*
X134806634Y-140521367D01*
X134568544Y-140723455D01*
X134345121Y-140902487D01*
X134110389Y-141072311D01*
X133895388Y-141211348D01*
X133761449Y-141284499D01*
X133428313Y-141442369D01*
X127237927Y-141493373D01*
X127082793Y-141642047D01*
X126915820Y-141866357D01*
X126843358Y-142127539D01*
X126854837Y-142280912D01*
X136054698Y-142280912D01*
X136064203Y-141924293D01*
X136154789Y-141597398D01*
X136316275Y-141309715D01*
X136538482Y-141070730D01*
X136811230Y-140889930D01*
X137124339Y-140776803D01*
X137467630Y-140740835D01*
X137830922Y-140791513D01*
X138056501Y-140868395D01*
X138348636Y-141044146D01*
X138586028Y-141293617D01*
X138756352Y-141597754D01*
X138847286Y-141937508D01*
X138859121Y-142109087D01*
X138815118Y-142501257D01*
X138683608Y-142848450D01*
X138469809Y-143141918D01*
X138178938Y-143372916D01*
X138069679Y-143432587D01*
X137850429Y-143502449D01*
X137575575Y-143535636D01*
X137284699Y-143532144D01*
X137017383Y-143491971D01*
X136845582Y-143432676D01*
X136609808Y-143277809D01*
X136390775Y-143066291D01*
X136217791Y-142830149D01*
X136136453Y-142657768D01*
X136054698Y-142280912D01*
X126854837Y-142280912D01*
X126865531Y-142423777D01*
X126982465Y-142753256D01*
X127003718Y-142796623D01*
X127137443Y-143000278D01*
X127344697Y-143239083D01*
X127609323Y-143499583D01*
X127915164Y-143768321D01*
X128246064Y-144031844D01*
X128585867Y-144276697D01*
X128918416Y-144489423D01*
X129227555Y-144656570D01*
X129249671Y-144667046D01*
X129552008Y-144808634D01*
X137100602Y-144823767D01*
X138231164Y-144825773D01*
X139262366Y-144827046D01*
X140196853Y-144827573D01*
X141037270Y-144827338D01*
X141786262Y-144826328D01*
X142446476Y-144824529D01*
X143020555Y-144821926D01*
X143511145Y-144818506D01*
X143920892Y-144814255D01*
X144252440Y-144809158D01*
X144508436Y-144803201D01*
X144691524Y-144796371D01*
X144804349Y-144788652D01*
X144843632Y-144782517D01*
X145051778Y-144682987D01*
X145265855Y-144515663D01*
X145455011Y-144307895D01*
X145558211Y-144149061D01*
X145669277Y-143941566D01*
X145669277Y-119765663D01*
X145557523Y-119556817D01*
X145412355Y-119348153D01*
X145217574Y-119149724D01*
X145010104Y-118997091D01*
X144936804Y-118959024D01*
X144875506Y-118946126D01*
X144748974Y-118934301D01*
X144552980Y-118923448D01*
X144283301Y-118913468D01*
X143935709Y-118904258D01*
X143505981Y-118895718D01*
X142989890Y-118887749D01*
X142383210Y-118880247D01*
X141681717Y-118873114D01*
X141129920Y-118868269D01*
X140399875Y-118862168D01*
X139763403Y-118856398D01*
X139212072Y-118850329D01*
X138737451Y-118843330D01*
X138331109Y-118834770D01*
X137984614Y-118824019D01*
X137689535Y-118810446D01*
X137437441Y-118793421D01*
X137219901Y-118772313D01*
X137028484Y-118746491D01*
X136854759Y-118715325D01*
X136690293Y-118678185D01*
X136526657Y-118634439D01*
X136355418Y-118583457D01*
X136168146Y-118524609D01*
X136055508Y-118488740D01*
X135245772Y-118178265D01*
X134479272Y-117779292D01*
X133762825Y-117298609D01*
X133103248Y-116743004D01*
X132507360Y-116119266D01*
X131981978Y-115434183D01*
X131533919Y-114694542D01*
X131170001Y-113907132D01*
X131011589Y-113466667D01*
X130923624Y-113185001D01*
X130848444Y-112915628D01*
X130785198Y-112648172D01*
X130733034Y-112372257D01*
X130691099Y-112077509D01*
X130658542Y-111753551D01*
X130634511Y-111390009D01*
X130618152Y-110976507D01*
X130608615Y-110502669D01*
X130605048Y-109958121D01*
X130606597Y-109332486D01*
X130612412Y-108615390D01*
X130612497Y-108606943D01*
X130619132Y-107996000D01*
X130626464Y-107476090D01*
X130635509Y-107036239D01*
X130647281Y-106665472D01*
X130662797Y-106352814D01*
X130683070Y-106087292D01*
X130709116Y-105857930D01*
X130741950Y-105653755D01*
X130782587Y-105463791D01*
X130832043Y-105277065D01*
X130891331Y-105082602D01*
X130956953Y-104882892D01*
X131255362Y-104128100D01*
X131625824Y-103438260D01*
X132077661Y-102797885D01*
X132506868Y-102307773D01*
X133098994Y-101749834D01*
X133729295Y-101279014D01*
X134407554Y-100889857D01*
X135143555Y-100576907D01*
X135947082Y-100334706D01*
X136117385Y-100294131D01*
X136199020Y-100276018D01*
X136280120Y-100260014D01*
X136367325Y-100245961D01*
X136467278Y-100233702D01*
X136586620Y-100223080D01*
X136731992Y-100213938D01*
X136910036Y-100206119D01*
X137127393Y-100199464D01*
X137390704Y-100193818D01*
X137706610Y-100189023D01*
X138081754Y-100184921D01*
X138522776Y-100181356D01*
X139036318Y-100178170D01*
X139629021Y-100175206D01*
X140307527Y-100172306D01*
X141078477Y-100169315D01*
X141448695Y-100167929D01*
X146306827Y-100149841D01*
X146306827Y-102026924D01*
X149698562Y-102026924D01*
X149698594Y-101378715D01*
X149698717Y-100630160D01*
X149699187Y-99976331D01*
X149700158Y-99409945D01*
X149701781Y-98923720D01*
X149704209Y-98510375D01*
X149707594Y-98162627D01*
X149712090Y-97873194D01*
X149717848Y-97634794D01*
X149725022Y-97440145D01*
X149733764Y-97281964D01*
X149744226Y-97152969D01*
X149756560Y-97045879D01*
X149770921Y-96953411D01*
X149787459Y-96868282D01*
X149793684Y-96839357D01*
X150002754Y-96087733D01*
X150288121Y-95399832D01*
X150654539Y-94766671D01*
X151106761Y-94179261D01*
X151326735Y-93940612D01*
X151900892Y-93412436D01*
X152509922Y-92978645D01*
X153160351Y-92635637D01*
X153858707Y-92379806D01*
X154390964Y-92248352D01*
X154440585Y-92238992D01*
X154495963Y-92230280D01*
X154560754Y-92222192D01*
X154638614Y-92214704D01*
X154733195Y-92207791D01*
X154848155Y-92201430D01*
X154987149Y-92195597D01*
X155153830Y-92190267D01*
X155351855Y-92185417D01*
X155584878Y-92181022D01*
X155856555Y-92177058D01*
X156170541Y-92173501D01*
X156530490Y-92170327D01*
X156940058Y-92167512D01*
X157402901Y-92165032D01*
X157922673Y-92162862D01*
X158503029Y-92160979D01*
X159147624Y-92159358D01*
X159860114Y-92157976D01*
X160644153Y-92156808D01*
X161503398Y-92155830D01*
X162441502Y-92155018D01*
X163462121Y-92154348D01*
X164568911Y-92153796D01*
X165765525Y-92153338D01*
X167055620Y-92152949D01*
X168442851Y-92152606D01*
X168927108Y-92152498D01*
X183004217Y-92149409D01*
X183293838Y-92268531D01*
X183681637Y-92477546D01*
X183993152Y-92754282D01*
X184228529Y-93098902D01*
X184378943Y-93479465D01*
X184395583Y-93546558D01*
X184409747Y-93628239D01*
X184421582Y-93732320D01*
X184431233Y-93866615D01*
X184438847Y-94038938D01*
X184444571Y-94257102D01*
X184448551Y-94528922D01*
X184450934Y-94862211D01*
X184451866Y-95264782D01*
X184451494Y-95744449D01*
X184449964Y-96309026D01*
X184447423Y-96966327D01*
X184446845Y-97100750D01*
X184432329Y-100435141D01*
X184293497Y-100717564D01*
X184082245Y-101071921D01*
X183830834Y-101345303D01*
X183521363Y-101556285D01*
X183449482Y-101593340D01*
X183108466Y-101761245D01*
X175992285Y-101789390D01*
X174987078Y-101793302D01*
X174078475Y-101796824D01*
X173261075Y-101800157D01*
X172529475Y-101803503D01*
X171878274Y-101807062D01*
X171302069Y-101811035D01*
X170795459Y-101815623D01*
X170353041Y-101821027D01*
X169969415Y-101827448D01*
X169639177Y-101835088D01*
X169356926Y-101844147D01*
X169117259Y-101854825D01*
X168914776Y-101867325D01*
X168744074Y-101881847D01*
X168599750Y-101898593D01*
X168476404Y-101917762D01*
X168368633Y-101939556D01*
X168271035Y-101964177D01*
X168178208Y-101991824D01*
X168084751Y-102022699D01*
X167985261Y-102057004D01*
X167886028Y-102090999D01*
X167262227Y-102353900D01*
X166670796Y-102705949D01*
X166124174Y-103136254D01*
X165634800Y-103633922D01*
X165215113Y-104188059D01*
X164930655Y-104679015D01*
X164751462Y-105071663D01*
X164611807Y-105468502D01*
X164505760Y-105893460D01*
X164427393Y-106370470D01*
X164370776Y-106923463D01*
X164369003Y-106945931D01*
X164345003Y-107217079D01*
X164318114Y-107415152D01*
X164281562Y-107569006D01*
X164228572Y-107707499D01*
X164156270Y-107852187D01*
X163917813Y-108204462D01*
X163614494Y-108481390D01*
X163297286Y-108665395D01*
X163010642Y-108799799D01*
X158088755Y-108814058D01*
X157237448Y-108816471D01*
X156481637Y-108818310D01*
X155814809Y-108819301D01*
X155230451Y-108819174D01*
X154722051Y-108817656D01*
X154283097Y-108814476D01*
X153907076Y-108809362D01*
X153587475Y-108802043D01*
X153317784Y-108792245D01*
X153091488Y-108779698D01*
X152902076Y-108764130D01*
X152743035Y-108745270D01*
X152607853Y-108722844D01*
X152490018Y-108696582D01*
X152383017Y-108666213D01*
X152280338Y-108631463D01*
X152175467Y-108592061D01*
X152104314Y-108564325D01*
X151624205Y-108327028D01*
X151164502Y-108005887D01*
X150744979Y-107619064D01*
X150385411Y-107184719D01*
X150112421Y-106734792D01*
X150041061Y-106592574D01*
X149978408Y-106464283D01*
X149923897Y-106342592D01*
X149876962Y-106220173D01*
X149837037Y-106089697D01*
X149803555Y-105943837D01*
X149775950Y-105775265D01*
X149753657Y-105576652D01*
X149736108Y-105340670D01*
X149722738Y-105059992D01*
X149712980Y-104727289D01*
X149706269Y-104335234D01*
X149702037Y-103876498D01*
X149699720Y-103343752D01*
X149698750Y-102729671D01*
X149698562Y-102026924D01*
X146306827Y-102026924D01*
X146306827Y-105173615D01*
X146307279Y-106110906D01*
X146308654Y-106948949D01*
X146310981Y-107690500D01*
X146314292Y-108338315D01*
X146318615Y-108895150D01*
X146323982Y-109363761D01*
X146326644Y-109522229D01*
X147608298Y-109522229D01*
X147608312Y-109513855D01*
X147616306Y-109270598D01*
X147643375Y-109092905D01*
X147696018Y-108945110D01*
X147721101Y-108894950D01*
X147945901Y-108577993D01*
X148245109Y-108327180D01*
X148422425Y-108228311D01*
X148580144Y-108162001D01*
X148726599Y-108128158D01*
X148903808Y-108120024D01*
X149061044Y-108125612D01*
X149397282Y-108166396D01*
X149644931Y-108249964D01*
X149647590Y-108251338D01*
X149929347Y-108451041D01*
X150170903Y-108729205D01*
X150289299Y-108927309D01*
X150369424Y-109165133D01*
X150406213Y-109452774D01*
X150398320Y-109747082D01*
X150344401Y-110004911D01*
X150324485Y-110056516D01*
X150175335Y-110304707D01*
X149960541Y-110541425D01*
X149713873Y-110732342D01*
X149596586Y-110796461D01*
X149339667Y-110877372D01*
X149039794Y-110912992D01*
X148742269Y-110901124D01*
X148516114Y-110848831D01*
X148208390Y-110685838D01*
X147939729Y-110448679D01*
X147760442Y-110199314D01*
X147680310Y-110040893D01*
X147634156Y-109901887D01*
X147613109Y-109742322D01*
X147608298Y-109522229D01*
X146326644Y-109522229D01*
X146330420Y-109746904D01*
X146337961Y-110047335D01*
X146346635Y-110267811D01*
X146356470Y-110411086D01*
X146364220Y-110467670D01*
X146505719Y-110895656D01*
X146735057Y-111288982D01*
X147039848Y-111631989D01*
X147407707Y-111909019D01*
X147577478Y-112001658D01*
X147913454Y-112166064D01*
X164336747Y-112166064D01*
X164717479Y-112046510D01*
X165349885Y-111798148D01*
X165919190Y-111471163D01*
X166422194Y-111068244D01*
X166855692Y-110592080D01*
X167216481Y-110045361D01*
X167308613Y-109870883D01*
X167461657Y-109526971D01*
X167578794Y-109169916D01*
X167666564Y-108773755D01*
X167731508Y-108312520D01*
X167751891Y-108111245D01*
X167810075Y-107622432D01*
X167890745Y-107215207D01*
X168001824Y-106870195D01*
X168151239Y-106568022D01*
X168346912Y-106289312D01*
X168596768Y-106014690D01*
X168617985Y-105993646D01*
X168946160Y-105722876D01*
X169329350Y-105492481D01*
X169730622Y-105322559D01*
X169972691Y-105256312D01*
X170045869Y-105247500D01*
X170178379Y-105239662D01*
X170373552Y-105232778D01*
X170634718Y-105226830D01*
X170965208Y-105221799D01*
X171368353Y-105217665D01*
X171847483Y-105214411D01*
X172405928Y-105212017D01*
X173047021Y-105210463D01*
X173774091Y-105209732D01*
X174590468Y-105209804D01*
X175499485Y-105210660D01*
X176504470Y-105212282D01*
X177393775Y-105214149D01*
X184534337Y-105230483D01*
X184913436Y-105347521D01*
X185443116Y-105540415D01*
X185952696Y-105789869D01*
X186474452Y-106111895D01*
X186528471Y-106148657D01*
X187125638Y-106519406D01*
X187714406Y-106801488D01*
X188318225Y-107003146D01*
X188960546Y-107132624D01*
X189483944Y-107187482D01*
X189905645Y-107232643D01*
X190247417Y-107307945D01*
X190528800Y-107420905D01*
X190769331Y-107579042D01*
X190955311Y-107753579D01*
X191063855Y-107871618D01*
X191157093Y-107982114D01*
X191236137Y-108093499D01*
X191302100Y-108214203D01*
X191356092Y-108352659D01*
X191399228Y-108517298D01*
X191432619Y-108716550D01*
X191457378Y-108958848D01*
X191474616Y-109252622D01*
X191485447Y-109606304D01*
X191490982Y-110028326D01*
X191492334Y-110527119D01*
X191490615Y-111111113D01*
X191486968Y-111783534D01*
X191483346Y-112386456D01*
X191479909Y-112896309D01*
X191476268Y-113322034D01*
X191472034Y-113672569D01*
X191466820Y-113956852D01*
X191460236Y-114183822D01*
X191451894Y-114362419D01*
X191441406Y-114501580D01*
X191428384Y-114610244D01*
X191412438Y-114697351D01*
X191393180Y-114771839D01*
X191370222Y-114842646D01*
X191351752Y-114894779D01*
X191117632Y-115406344D01*
X190807753Y-115851164D01*
X190426287Y-116225126D01*
X189977407Y-116524116D01*
X189799631Y-116601022D01*
X193771104Y-116601022D01*
X193781384Y-116295103D01*
X193846028Y-116029474D01*
X193854229Y-116009749D01*
X193986767Y-115785853D01*
X194178016Y-115561844D01*
X194393361Y-115374754D01*
X194523588Y-115293646D01*
X194800791Y-115193229D01*
X195112442Y-115146007D01*
X195423443Y-115153034D01*
X195698696Y-115215367D01*
X195790082Y-115255577D01*
X196103219Y-115475177D01*
X196355489Y-115765931D01*
X196420876Y-115872855D01*
X196499743Y-116028693D01*
X196545142Y-116166969D01*
X196565791Y-116327299D01*
X196570408Y-116549303D01*
X196570402Y-116552410D01*
X196562290Y-116796644D01*
X196535029Y-116974457D01*
X196482355Y-117120619D01*
X196460144Y-117164458D01*
X196232582Y-117483309D01*
X195932068Y-117734861D01*
X195736783Y-117841840D01*
X195566617Y-117911277D01*
X195415056Y-117945165D01*
X195236018Y-117950894D01*
X195099233Y-117944085D01*
X194714558Y-117875901D01*
X194388493Y-117724353D01*
X194119213Y-117488256D01*
X193906245Y-117169049D01*
X193813340Y-116906060D01*
X193771104Y-116601022D01*
X189799631Y-116601022D01*
X189481727Y-116738547D01*
X189124699Y-116858434D01*
X156108375Y-116909438D01*
X155887974Y-117064345D01*
X155622120Y-117305774D01*
X155441022Y-117592804D01*
X155386360Y-117745004D01*
X155380348Y-117818226D01*
X155374699Y-117992979D01*
X155369417Y-118268788D01*
X155364503Y-118645178D01*
X155359957Y-119121672D01*
X155357322Y-119485403D01*
X156622873Y-119485403D01*
X156684526Y-119149472D01*
X156829112Y-118827282D01*
X157050136Y-118546375D01*
X157327571Y-118328154D01*
X157553213Y-118221086D01*
X157808730Y-118168739D01*
X158106860Y-118164527D01*
X158401662Y-118205952D01*
X158624297Y-118279313D01*
X158941047Y-118478063D01*
X159184954Y-118734808D01*
X159352732Y-119034312D01*
X159441092Y-119361340D01*
X159446745Y-119700659D01*
X159366404Y-120037033D01*
X159196780Y-120355226D01*
X159099017Y-120478767D01*
X158816719Y-120728966D01*
X158497818Y-120891236D01*
X158157584Y-120965479D01*
X157811292Y-120951597D01*
X157474214Y-120849493D01*
X157161622Y-120659069D01*
X156982832Y-120492291D01*
X156767233Y-120186957D01*
X156646609Y-119848458D01*
X156622873Y-119485403D01*
X155357322Y-119485403D01*
X155355783Y-119697794D01*
X155351982Y-120373069D01*
X155348556Y-121147021D01*
X155345507Y-122019175D01*
X155342836Y-122989054D01*
X155340545Y-124056183D01*
X155338636Y-125220086D01*
X155337111Y-126480288D01*
X155335972Y-127836312D01*
X155335220Y-129287683D01*
X155334857Y-130833925D01*
X155334822Y-131381827D01*
X155334597Y-142052808D01*
X156623906Y-142052808D01*
X156682646Y-141751539D01*
X156836112Y-141401562D01*
X157058825Y-141119819D01*
X157339258Y-140912245D01*
X157665885Y-140784773D01*
X158027178Y-140743340D01*
X158411610Y-140793879D01*
X158496787Y-140817516D01*
X158818058Y-140966651D01*
X159086611Y-141197238D01*
X159291160Y-141497510D01*
X159392856Y-141751539D01*
X159455965Y-142124234D01*
X159418874Y-142482147D01*
X159283081Y-142818482D01*
X159102860Y-143069181D01*
X158888192Y-143283850D01*
X158675608Y-143423629D01*
X158434925Y-143501643D01*
X158135960Y-143531015D01*
X158037751Y-143532310D01*
X157717071Y-143514200D01*
X157463120Y-143451121D01*
X157245713Y-143329949D01*
X157034670Y-143137560D01*
X156972642Y-143069181D01*
X156758400Y-142755181D01*
X156641656Y-142414124D01*
X156623906Y-142052808D01*
X155334597Y-142052808D01*
X155334538Y-144834136D01*
X170784498Y-144834136D01*
X170799377Y-142730221D01*
X170803148Y-142211913D01*
X170806821Y-141785382D01*
X170810985Y-141440399D01*
X170816225Y-141166735D01*
X170823128Y-140954161D01*
X170832280Y-140792448D01*
X170844269Y-140671367D01*
X170859681Y-140580689D01*
X170879102Y-140510186D01*
X170903119Y-140449628D01*
X170932319Y-140388786D01*
X170933826Y-140385752D01*
X171172968Y-140014071D01*
X171483517Y-139713460D01*
X171798183Y-139518842D01*
X172139189Y-139351205D01*
X172904835Y-139354919D01*
X173631665Y-139387043D01*
X174340956Y-139479538D01*
X175030029Y-139630566D01*
X181731364Y-139630566D01*
X181737407Y-139412444D01*
X181761975Y-139252714D01*
X181815364Y-139108089D01*
X181888788Y-138968783D01*
X182108460Y-138663497D01*
X182381121Y-138440474D01*
X182683144Y-138300228D01*
X182946446Y-138226995D01*
X183176572Y-138211455D01*
X183423694Y-138252494D01*
X183528251Y-138281428D01*
X183867803Y-138434116D01*
X184156974Y-138670735D01*
X184374828Y-138967514D01*
X184459905Y-139133422D01*
X184507586Y-139278466D01*
X184528180Y-139446119D01*
X184532089Y-139630566D01*
X184524972Y-139859424D01*
X184496984Y-140030722D01*
X184438841Y-140188244D01*
X184395148Y-140276308D01*
X184184387Y-140579431D01*
X183916746Y-140810894D01*
X183608319Y-140967383D01*
X183275204Y-141045584D01*
X182933498Y-141042182D01*
X182599298Y-140953862D01*
X182288700Y-140777311D01*
X182222138Y-140723742D01*
X181971072Y-140453762D01*
X181811384Y-140147054D01*
X181737837Y-139791953D01*
X181731364Y-139630566D01*
X175030029Y-139630566D01*
X175061347Y-139637430D01*
X175821482Y-139865746D01*
X175827659Y-139867822D01*
X176182810Y-140002480D01*
X176590211Y-140181735D01*
X177019496Y-140390356D01*
X177440295Y-140613112D01*
X177822240Y-140834771D01*
X178058434Y-140986700D01*
X178324060Y-141167270D01*
X178622493Y-141369755D01*
X178908415Y-141563418D01*
X179051405Y-141660095D01*
X179645820Y-142023118D01*
X180309781Y-142361017D01*
X181011412Y-142659573D01*
X181718836Y-142904561D01*
X182053894Y-142999686D01*
X182477983Y-143098107D01*
X182934498Y-143181973D01*
X183401903Y-143249043D01*
X183858662Y-143297077D01*
X184283239Y-143323836D01*
X184654096Y-143327078D01*
X184949698Y-143304565D01*
X184964224Y-143302400D01*
X185393639Y-143186180D01*
X185795465Y-142980379D01*
X186154167Y-142696710D01*
X186454211Y-142346884D01*
X186633491Y-142043903D01*
X186778514Y-141748394D01*
X186792878Y-138852073D01*
X186807241Y-135955753D01*
X178989263Y-135972741D01*
X177934430Y-135975107D01*
X176976426Y-135977447D01*
X176110070Y-135979826D01*
X175330184Y-135982308D01*
X174631587Y-135984960D01*
X174009100Y-135987844D01*
X173457544Y-135991028D01*
X172971739Y-135994574D01*
X172546505Y-135998550D01*
X172176662Y-136003019D01*
X171857032Y-136008046D01*
X171582434Y-136013696D01*
X171347690Y-136020035D01*
X171147619Y-136027127D01*
X170977041Y-136035037D01*
X170830778Y-136043830D01*
X170703649Y-136053572D01*
X170590475Y-136064326D01*
X170486077Y-136076159D01*
X170457229Y-136079735D01*
X169717014Y-136181570D01*
X168975002Y-136301673D01*
X168202741Y-136445097D01*
X167371779Y-136616899D01*
X167102509Y-136675673D01*
X166293988Y-136848096D01*
X165557146Y-136991472D01*
X164867037Y-137109456D01*
X164198717Y-137205702D01*
X163527238Y-137283868D01*
X162827658Y-137347608D01*
X162217406Y-137391553D01*
X161863944Y-137410584D01*
X161487564Y-137424286D01*
X161124110Y-137431767D01*
X160809428Y-137432137D01*
X160687286Y-137429561D01*
X160412431Y-137418949D01*
X160213499Y-137404256D01*
X160064403Y-137380755D01*
X159939061Y-137343722D01*
X159811387Y-137288428D01*
X159754709Y-137260583D01*
X159448687Y-137060331D01*
X159169418Y-136790122D01*
X158945265Y-136480579D01*
X158844665Y-136278042D01*
X158726305Y-135984940D01*
X158710764Y-130068474D01*
X158708434Y-128986022D01*
X158707390Y-128002284D01*
X158707628Y-127117609D01*
X158709147Y-126332347D01*
X158711944Y-125646847D01*
X158716019Y-125061459D01*
X158721367Y-124576533D01*
X158727988Y-124192417D01*
X158735879Y-123909462D01*
X158745039Y-123728018D01*
X158749081Y-123683737D01*
X158840242Y-123186359D01*
X158993390Y-122688387D01*
X159194660Y-122232212D01*
X159265760Y-122104035D01*
X159375171Y-121944410D01*
X159535438Y-121743422D01*
X159722996Y-121529473D01*
X159873895Y-121371045D01*
X160268332Y-121018726D01*
X160685091Y-120740437D01*
X161152492Y-120519248D01*
X161506024Y-120395207D01*
X161888554Y-120275703D01*
X182086144Y-120275703D01*
X182372788Y-120410107D01*
X182744032Y-120637366D01*
X183042421Y-120933704D01*
X183263051Y-121292120D01*
X183401020Y-121705613D01*
X183437428Y-121930396D01*
X183484734Y-122208459D01*
X183563811Y-122410431D01*
X183687140Y-122560386D01*
X183810301Y-122649634D01*
X183870620Y-122681866D01*
X183941364Y-122706317D01*
X184036689Y-122724050D01*
X184170752Y-122736126D01*
X184357710Y-122743611D01*
X184611717Y-122747567D01*
X184946933Y-122749056D01*
X185136167Y-122749207D01*
X185543048Y-122748124D01*
X185861483Y-122743096D01*
X186105024Y-122731674D01*
X186287224Y-122711410D01*
X186421632Y-122679858D01*
X186521802Y-122634570D01*
X186601285Y-122573097D01*
X186673631Y-122492993D01*
X186693658Y-122467906D01*
X186772803Y-122304252D01*
X186825250Y-122053673D01*
X186832123Y-121995100D01*
X186921769Y-121538512D01*
X187088926Y-121147845D01*
X187334706Y-120821430D01*
X187660219Y-120557598D01*
X187864524Y-120443025D01*
X188204327Y-120275703D01*
X192668328Y-120248787D01*
X193576588Y-120242711D01*
X194383620Y-120236040D01*
X195090201Y-120228759D01*
X195697109Y-120220856D01*
X196205122Y-120212315D01*
X196615018Y-120203124D01*
X196927574Y-120193269D01*
X197143568Y-120182735D01*
X197263779Y-120171508D01*
X197285811Y-120166613D01*
X197743278Y-119954018D01*
X198131420Y-119673670D01*
X198444383Y-119332279D01*
X198676313Y-118936554D01*
X198821355Y-118493206D01*
X198842204Y-118382794D01*
X198856728Y-118237945D01*
X198868635Y-118007969D01*
X198877928Y-117709715D01*
X198884604Y-117360029D01*
X198888665Y-116975761D01*
X198890111Y-116573757D01*
X198888941Y-116170866D01*
X198885155Y-115783935D01*
X198878754Y-115429812D01*
X198869738Y-115125346D01*
X198858105Y-114887383D01*
X198843858Y-114732772D01*
X198842204Y-114722026D01*
X198723487Y-114284446D01*
X198521994Y-113879391D01*
X198249854Y-113525829D01*
X197919194Y-113242730D01*
X197879769Y-113216704D01*
X197620272Y-113070253D01*
X197354035Y-112966730D01*
X197048848Y-112896141D01*
X196702184Y-112851322D01*
X196220181Y-112764215D01*
X195807712Y-112602972D01*
X195463192Y-112366582D01*
X195185037Y-112054036D01*
X195026388Y-111784174D01*
X194888152Y-111503012D01*
X194861377Y-108519277D01*
X194855689Y-107883215D01*
X194850474Y-107340453D01*
X194845051Y-106882290D01*
X194838734Y-106500027D01*
X194830843Y-106184962D01*
X194820694Y-105928393D01*
X194807603Y-105721621D01*
X194790889Y-105555944D01*
X194769868Y-105422662D01*
X194743858Y-105313073D01*
X194712174Y-105218477D01*
X194674136Y-105130173D01*
X194629058Y-105039459D01*
X194580981Y-104946776D01*
X194469702Y-104777571D01*
X194304952Y-104579952D01*
X194116036Y-104385116D01*
X193932262Y-104224262D01*
X193842570Y-104160689D01*
X193721463Y-104085872D01*
X193613172Y-104024303D01*
X193506455Y-103974539D01*
X193390071Y-103935132D01*
X193252780Y-103904638D01*
X193083340Y-103881611D01*
X192870511Y-103864606D01*
X192603051Y-103852178D01*
X192269719Y-103842880D01*
X191859275Y-103835268D01*
X191360476Y-103827896D01*
X191241365Y-103826214D01*
X190740329Y-103818929D01*
X190330325Y-103812147D01*
X190000384Y-103805168D01*
X189739538Y-103797292D01*
X189536817Y-103787820D01*
X189381252Y-103776053D01*
X189261874Y-103761291D01*
X189167715Y-103742835D01*
X189087806Y-103719984D01*
X189011178Y-103692040D01*
X188986905Y-103682445D01*
X188631839Y-103487922D01*
X188321235Y-103212145D01*
X188073479Y-102872480D01*
X188016921Y-102766357D01*
X187849598Y-102426511D01*
X187835711Y-97084919D01*
X187833388Y-96197557D01*
X187831487Y-95406061D01*
X187830299Y-94704287D01*
X187830118Y-94086094D01*
X187831235Y-93545339D01*
X187833942Y-93075878D01*
X187838532Y-92671571D01*
X187845296Y-92326273D01*
X187854526Y-92033843D01*
X187866515Y-91788138D01*
X187881555Y-91583015D01*
X187899937Y-91412333D01*
X187921955Y-91269947D01*
X187947899Y-91149716D01*
X187978062Y-91045498D01*
X188012736Y-90951149D01*
X188052214Y-90860527D01*
X188096787Y-90767489D01*
X188140316Y-90679029D01*
X188319830Y-90385800D01*
X188565725Y-90084146D01*
X188850171Y-89802647D01*
X189145333Y-89569880D01*
X189328715Y-89458790D01*
X189417946Y-89411525D01*
X189498406Y-89369082D01*
X189575764Y-89331215D01*
X189655690Y-89297676D01*
X189743856Y-89268219D01*
X189845931Y-89242596D01*
X189967586Y-89220561D01*
X190114491Y-89201866D01*
X190292317Y-89186264D01*
X190506733Y-89173507D01*
X190763410Y-89163350D01*
X191068019Y-89155545D01*
X191426229Y-89149844D01*
X191843711Y-89146001D01*
X192326136Y-89143768D01*
X192879173Y-89142898D01*
X193508494Y-89143145D01*
X194219768Y-89144261D01*
X195018665Y-89145999D01*
X195910857Y-89148112D01*
X196430219Y-89149314D01*
X202589759Y-89163253D01*
X203048795Y-89306592D01*
X203454035Y-89455593D01*
X203875310Y-89649586D01*
X204274917Y-89869389D01*
X204615151Y-90095821D01*
X204645369Y-90118794D01*
X204965381Y-90397449D01*
X205291271Y-90737025D01*
X205592575Y-91103126D01*
X205838825Y-91461359D01*
X205847880Y-91476338D01*
X206070804Y-91906534D01*
X206262911Y-92391597D01*
X206409302Y-92888801D01*
X206490782Y-93320080D01*
X206496597Y-93403566D01*
X206501985Y-93560592D01*
X206506953Y-93792704D01*
X206511502Y-94101449D01*
X206515637Y-94488372D01*
X206519362Y-94955019D01*
X206522681Y-95502935D01*
X206525598Y-96133668D01*
X206528115Y-96848761D01*
X206530239Y-97649762D01*
X206531971Y-98538215D01*
X206533316Y-99515667D01*
X206534278Y-100583664D01*
X206534861Y-101743751D01*
X206535068Y-102997474D01*
X206534904Y-104346379D01*
X206534372Y-105792012D01*
X206533476Y-107335918D01*
X206532220Y-108979644D01*
X206531593Y-109692369D01*
X206517068Y-125631124D01*
X206402071Y-125933073D01*
X206174758Y-126411799D01*
X205880383Y-126820865D01*
X205509179Y-127171696D01*
X205114458Y-127439426D01*
X204637200Y-127773280D01*
X204241363Y-128167889D01*
X203923763Y-128627018D01*
X203694462Y-129118801D01*
X203648632Y-129248444D01*
X203614485Y-129372413D01*
X203589788Y-129509977D01*
X203572308Y-129680401D01*
X203559815Y-129902950D01*
X203550074Y-130196893D01*
X203544725Y-130411178D01*
X203541771Y-130669063D01*
X205814372Y-130669063D01*
X205840503Y-130334287D01*
X205942511Y-130014988D01*
X206116646Y-129726502D01*
X206359156Y-129484161D01*
X206666289Y-129303300D01*
X206806430Y-129251595D01*
X207124584Y-129186802D01*
X207436409Y-129201903D01*
X207647952Y-129252173D01*
X207903509Y-129368779D01*
X208157070Y-129554089D01*
X208374857Y-129779880D01*
X208494994Y-129959926D01*
X208554953Y-130095797D01*
X208589623Y-130245462D01*
X208604818Y-130442349D01*
X208607009Y-130604016D01*
X208588923Y-130924575D01*
X208525892Y-131178434D01*
X208404758Y-131395820D01*
X208212362Y-131606964D01*
X208143024Y-131669878D01*
X207840208Y-131872846D01*
X207504886Y-131988297D01*
X207155250Y-132016775D01*
X206809489Y-131958820D01*
X206485794Y-131814973D01*
X206228760Y-131612910D01*
X206004749Y-131323709D01*
X205867870Y-131003981D01*
X205814372Y-130669063D01*
X203541771Y-130669063D01*
X203539442Y-130872261D01*
X203549474Y-131251907D01*
X203577967Y-131569955D01*
X203628070Y-131846249D01*
X203702928Y-132100628D01*
X203805688Y-132352935D01*
X203875909Y-132499347D01*
X204092213Y-132846666D01*
X204382699Y-133188646D01*
X204721756Y-133498805D01*
X205083772Y-133750658D01*
X205088956Y-133753687D01*
X205531238Y-134051821D01*
X205884326Y-134382935D01*
X206158970Y-134759586D01*
X206365918Y-135194331D01*
X206397875Y-135282807D01*
X206517068Y-135627912D01*
X206517068Y-140702811D01*
X206517204Y-141556064D01*
X206517342Y-142313791D01*
X206517077Y-142982474D01*
X206516006Y-143568593D01*
X206513725Y-144078630D01*
X206509829Y-144519067D01*
X206503915Y-144896384D01*
X206495577Y-145217062D01*
X206484412Y-145487584D01*
X206470016Y-145714431D01*
X206451985Y-145904083D01*
X206429914Y-146063022D01*
X206403399Y-146197730D01*
X206372037Y-146314687D01*
X206335422Y-146420375D01*
X206293151Y-146521276D01*
X206244820Y-146623870D01*
X206190024Y-146734638D01*
X206133817Y-146848795D01*
X205820595Y-147380349D01*
X205431336Y-147847701D01*
X204974262Y-148244151D01*
X204457591Y-148562999D01*
X203889544Y-148797546D01*
X203662476Y-148863036D01*
X203440152Y-148912896D01*
X203225477Y-148949339D01*
X203061094Y-148965266D01*
X203047012Y-148965462D01*
X202865317Y-148973434D01*
X202696053Y-148993048D01*
X202672640Y-148997339D01*
X202513253Y-149029217D01*
X202513253Y-151599698D01*
X205822138Y-151599698D01*
X205867509Y-151231900D01*
X205994841Y-150906257D01*
X206190962Y-150630424D01*
X206442703Y-150412055D01*
X206736891Y-150258806D01*
X207060357Y-150178331D01*
X207399928Y-150178285D01*
X207742435Y-150266322D01*
X207945568Y-150365603D01*
X208235862Y-150590036D01*
X208448644Y-150868796D01*
X208581485Y-151187159D01*
X208631959Y-151530401D01*
X208597636Y-151883798D01*
X208476089Y-152232627D01*
X208300355Y-152517205D01*
X208188486Y-152625849D01*
X208021525Y-152745766D01*
X207861240Y-152837430D01*
X207509712Y-152962549D01*
X207159966Y-152995258D01*
X206824965Y-152943428D01*
X206517674Y-152814927D01*
X206251057Y-152617625D01*
X206038078Y-152359391D01*
X205891702Y-152048094D01*
X205824893Y-151691604D01*
X205822138Y-151599698D01*
X202513253Y-151599698D01*
X202513253Y-154371887D01*
X209908835Y-154371887D01*
X209908835Y-55628112D01*
X201593787Y-55628112D01*
X201607235Y-57298494D01*
X201615265Y-58295991D01*
X205822138Y-58295991D01*
X205867826Y-57930486D01*
X205996232Y-57608154D01*
X206194372Y-57336863D01*
X206449262Y-57124479D01*
X206747916Y-56978869D01*
X207077351Y-56907900D01*
X207424581Y-56919439D01*
X207776622Y-57021353D01*
X207861240Y-57060562D01*
X208164812Y-57262980D01*
X208393280Y-57519224D01*
X208546767Y-57814220D01*
X208625391Y-58132894D01*
X208629274Y-58460173D01*
X208558537Y-58780982D01*
X208413299Y-59080250D01*
X208193681Y-59342901D01*
X207899804Y-59553863D01*
X207841062Y-59584191D01*
X207493687Y-59703083D01*
X207147747Y-59728849D01*
X206816147Y-59669721D01*
X206511791Y-59533933D01*
X206247582Y-59329719D01*
X206036427Y-59065313D01*
X205891228Y-58748949D01*
X205824891Y-58388860D01*
X205822138Y-58295991D01*
X201615265Y-58295991D01*
X201620683Y-58968875D01*
X202946787Y-58997409D01*
X203371235Y-59007597D01*
X203707201Y-59018481D01*
X203968214Y-59031089D01*
X204167798Y-59046445D01*
X204319482Y-59065576D01*
X204436790Y-59089508D01*
X204527911Y-59117336D01*
X205052719Y-59351925D01*
X205499378Y-59651798D01*
X205868698Y-60017651D01*
X206161486Y-60450180D01*
X206229991Y-60583597D01*
X206333060Y-60823097D01*
X206422430Y-61076344D01*
X206482264Y-61297320D01*
X206490490Y-61340562D01*
X206497362Y-61419080D01*
X206503635Y-61570379D01*
X206509317Y-61796351D01*
X206514413Y-62098890D01*
X206518931Y-62479890D01*
X206522877Y-62941243D01*
X206526258Y-63484843D01*
X206529081Y-64112583D01*
X206531352Y-64826356D01*
X206533078Y-65628056D01*
X206534265Y-66519576D01*
X206534921Y-67502809D01*
X206535051Y-68579649D01*
X206534663Y-69751988D01*
X206533763Y-71021721D01*
X206532358Y-72390740D01*
X206531587Y-73020482D01*
X206517068Y-84368875D01*
X206383052Y-84649398D01*
X206159709Y-85019514D01*
X205875435Y-85313444D01*
X205564620Y-85520044D01*
X205241968Y-85694980D01*
X196061245Y-85722820D01*
X194925871Y-85726277D01*
X193887893Y-85729502D01*
X192942699Y-85732560D01*
X192085675Y-85735513D01*
X191312211Y-85738427D01*
X190617694Y-85741366D01*
X189997512Y-85744395D01*
X189447053Y-85747577D01*
X188961704Y-85750977D01*
X188536854Y-85754660D01*
X188167891Y-85758690D01*
X187850202Y-85763131D01*
X187579176Y-85768047D01*
X187350200Y-85773503D01*
X187158661Y-85779564D01*
X186999949Y-85786293D01*
X186869451Y-85793755D01*
X186762555Y-85802015D01*
X186674648Y-85811136D01*
X186601119Y-85821183D01*
X186537356Y-85832220D01*
X186478746Y-85844313D01*
X186421486Y-85857336D01*
X185886646Y-85996507D01*
X185406547Y-86156680D01*
X184959249Y-86348908D01*
X184522817Y-86584244D01*
X184075314Y-86873741D01*
X183594801Y-87228449D01*
X183407508Y-87375835D01*
X182858783Y-87767222D01*
X182262889Y-88108995D01*
X181649688Y-88385669D01*
X181117068Y-88563652D01*
X180607028Y-88703614D01*
X154594980Y-88762072D01*
X154008434Y-88874056D01*
X153278747Y-89035112D01*
X152610134Y-89226715D01*
X152143468Y-89394089D01*
X152136998Y-89397051D01*
X183736970Y-89397051D01*
X183784938Y-89036077D01*
X183916568Y-88716475D01*
X184118885Y-88446956D01*
X184378914Y-88236231D01*
X184683677Y-88093010D01*
X185020201Y-88026006D01*
X185375508Y-88043929D01*
X185643414Y-88117183D01*
X185906125Y-88258709D01*
X185933481Y-88281823D01*
X205826214Y-88281823D01*
X205897010Y-87959320D01*
X205927571Y-87882859D01*
X206125154Y-87549335D01*
X206382152Y-87293414D01*
X206686894Y-87119536D01*
X207027714Y-87032142D01*
X207392943Y-87035671D01*
X207770912Y-87134563D01*
X207830262Y-87158874D01*
X208123765Y-87336456D01*
X208352895Y-87578573D01*
X208514760Y-87868361D01*
X208606467Y-88188956D01*
X208625125Y-88523497D01*
X208567842Y-88855118D01*
X208431726Y-89166956D01*
X208220683Y-89435525D01*
X207991752Y-89629792D01*
X207762404Y-89750500D01*
X207499077Y-89810845D01*
X207231124Y-89824540D01*
X206916320Y-89804555D01*
X206658371Y-89735264D01*
X206418430Y-89602660D01*
X206245962Y-89469374D01*
X206045698Y-89238245D01*
X205905614Y-88946480D01*
X205830767Y-88619274D01*
X205826214Y-88281823D01*
X185933481Y-88281823D01*
X186157145Y-88470803D01*
X186364234Y-88724112D01*
X186428250Y-88831727D01*
X186482006Y-88970158D01*
X186512115Y-89150331D01*
X186522850Y-89399844D01*
X186523053Y-89443775D01*
X186519172Y-89670895D01*
X186502242Y-89830615D01*
X186465166Y-89957370D01*
X186400843Y-90085596D01*
X186385182Y-90112583D01*
X186152045Y-90428266D01*
X185875432Y-90652405D01*
X185550344Y-90787924D01*
X185171785Y-90837752D01*
X185146385Y-90838087D01*
X184762957Y-90795384D01*
X184427929Y-90667381D01*
X184149617Y-90462581D01*
X183936337Y-90189487D01*
X183796405Y-89856600D01*
X183738138Y-89472424D01*
X183736970Y-89397051D01*
X152136998Y-89397051D01*
X151256880Y-89799961D01*
X150425802Y-90289085D01*
X149655046Y-90856464D01*
X148949422Y-91497100D01*
X148313740Y-92205997D01*
X147752812Y-92978155D01*
X147271448Y-93808578D01*
X146874458Y-94692268D01*
X146768760Y-94977711D01*
X146681921Y-95208835D01*
X146589465Y-95430076D01*
X146506983Y-95604873D01*
X146481306Y-95651841D01*
X146235531Y-95981512D01*
X145915047Y-96275149D01*
X145545551Y-96514711D01*
X145152743Y-96682157D01*
X144935508Y-96737080D01*
X144832163Y-96746582D01*
X144631158Y-96755247D01*
X144336840Y-96763027D01*
X143953555Y-96769872D01*
X143485647Y-96775734D01*
X142937464Y-96780564D01*
X142313350Y-96784313D01*
X141617652Y-96786933D01*
X140854715Y-96788374D01*
X140345147Y-96788654D01*
X139538236Y-96788837D01*
X138825864Y-96789509D01*
X138200561Y-96791037D01*
X137654859Y-96793786D01*
X137181287Y-96798122D01*
X136772376Y-96804411D01*
X136420657Y-96813018D01*
X136118661Y-96824309D01*
X135858919Y-96838650D01*
X135633960Y-96856406D01*
X135436317Y-96877944D01*
X135258519Y-96903629D01*
X135093096Y-96933827D01*
X134932581Y-96968903D01*
X134769503Y-97009223D01*
X134596394Y-97055153D01*
X134529078Y-97073432D01*
X133914722Y-97268373D01*
X133285635Y-97518375D01*
X132679738Y-97806789D01*
X132134953Y-98116970D01*
X132096849Y-98141136D01*
X131539841Y-98531044D01*
X130994308Y-98976537D01*
X130484906Y-99455162D01*
X130036290Y-99944465D01*
X129823066Y-100211763D01*
X129669923Y-100405811D01*
X129512921Y-100589057D01*
X129378710Y-100730864D01*
X129340944Y-100766013D01*
X129064262Y-100960181D01*
X128723708Y-101123806D01*
X128356412Y-101240638D01*
X128174899Y-101276342D01*
X128069945Y-101285064D01*
X127875490Y-101292790D01*
X127590403Y-101299525D01*
X127213550Y-101305275D01*
X126743801Y-101310047D01*
X126180025Y-101313846D01*
X125521088Y-101316679D01*
X124765859Y-101318552D01*
X123913207Y-101319471D01*
X122962000Y-101319442D01*
X121911105Y-101318471D01*
X120759392Y-101316564D01*
X120702811Y-101316451D01*
X113587751Y-101302209D01*
X113353949Y-101186999D01*
X113208225Y-101108113D01*
X113088886Y-101021241D01*
X112981288Y-100908920D01*
X112870787Y-100753686D01*
X112742739Y-100538076D01*
X112615962Y-100306921D01*
X112069295Y-99377520D01*
X111439326Y-98458298D01*
X110743858Y-97572991D01*
X110000692Y-96745339D01*
X109766701Y-96507457D01*
X108812631Y-95629390D01*
X107804011Y-94836994D01*
X106743798Y-94131687D01*
X105634947Y-93514888D01*
X104480414Y-92988014D01*
X103283157Y-92552484D01*
X102046131Y-92209714D01*
X100772292Y-91961123D01*
X100097189Y-91869645D01*
X99937075Y-91853185D01*
X99756984Y-91839028D01*
X99548672Y-91827014D01*
X99303897Y-91816985D01*
X99014417Y-91808781D01*
X98671987Y-91802244D01*
X98268366Y-91797215D01*
X97795311Y-91793535D01*
X97244579Y-91791046D01*
X96607927Y-91789587D01*
X95914859Y-91789011D01*
X95278981Y-91788084D01*
X94676442Y-91785774D01*
X94115591Y-91782192D01*
X93604779Y-91777449D01*
X93152355Y-91771656D01*
X92766669Y-91764923D01*
X92456071Y-91757361D01*
X92228909Y-91749081D01*
X92093535Y-91740193D01*
X92076643Y-91738130D01*
X91638140Y-91629749D01*
X91261759Y-91440920D01*
X90948847Y-91172594D01*
X90700750Y-90825722D01*
X90650569Y-90730014D01*
X90482932Y-90389494D01*
X90482932Y-76311313D01*
X90482820Y-74875528D01*
X90482553Y-73538108D01*
X90482228Y-72295412D01*
X90481947Y-71143799D01*
X90481808Y-70079626D01*
X90481912Y-69099253D01*
X90482357Y-68199036D01*
X90483244Y-67375335D01*
X90484672Y-66624508D01*
X90486741Y-65942912D01*
X90489550Y-65326907D01*
X90493198Y-64772850D01*
X90497787Y-64277099D01*
X90503414Y-63836013D01*
X90510181Y-63445951D01*
X90518185Y-63103269D01*
X90527528Y-62804327D01*
X90538308Y-62545483D01*
X90550626Y-62323095D01*
X90564580Y-62133522D01*
X90580271Y-61973120D01*
X90597798Y-61838250D01*
X90617261Y-61725268D01*
X90638759Y-61630534D01*
X90662392Y-61550405D01*
X90688260Y-61481240D01*
X90716461Y-61419397D01*
X90747097Y-61361233D01*
X90780266Y-61303109D01*
X90816068Y-61241381D01*
X90854603Y-61172408D01*
X90895970Y-61092548D01*
X90899423Y-61085542D01*
X91019569Y-60853726D01*
X91136746Y-60663807D01*
X91272854Y-60486180D01*
X91449792Y-60291241D01*
X91600674Y-60137622D01*
X91823274Y-59921626D01*
X92008834Y-59761015D01*
X92186925Y-59633918D01*
X92387122Y-59518467D01*
X92548594Y-59436617D01*
X92790484Y-59324076D01*
X93037587Y-59219218D01*
X93252066Y-59137701D01*
X93339156Y-59109437D01*
X93360266Y-59104192D01*
X93388396Y-59099154D01*
X93425580Y-59094317D01*
X93473853Y-59089676D01*
X93535249Y-59085226D01*
X93611800Y-59080963D01*
X93705542Y-59076881D01*
X93818507Y-59072977D01*
X93952731Y-59069245D01*
X94110246Y-59065680D01*
X94293087Y-59062277D01*
X94503288Y-59059033D01*
X94742882Y-59055941D01*
X95013904Y-59052998D01*
X95318387Y-59050197D01*
X95658365Y-59047535D01*
X96035872Y-59045007D01*
X96452942Y-59042608D01*
X96911609Y-59040333D01*
X97413907Y-59038177D01*
X97961870Y-59036135D01*
X98557531Y-59034203D01*
X99202925Y-59032376D01*
X99900085Y-59030649D01*
X100651046Y-59029017D01*
X101457841Y-59027475D01*
X102322503Y-59026019D01*
X103247068Y-59024644D01*
X104233569Y-59023345D01*
X105284040Y-59022117D01*
X106400514Y-59020955D01*
X107585026Y-59019854D01*
X108839609Y-59018811D01*
X110166298Y-59017819D01*
X111567126Y-59016874D01*
X113044127Y-59015972D01*
X114599336Y-59015107D01*
X116234785Y-59014274D01*
X117952509Y-59013470D01*
X119754543Y-59012688D01*
X121642918Y-59011925D01*
X123619671Y-59011175D01*
X125686834Y-59010434D01*
X127846441Y-59009696D01*
X130100527Y-59008958D01*
X132451125Y-59008213D01*
X134900269Y-59007458D01*
X136679819Y-59006919D01*
X179714458Y-58993959D01*
X179714458Y-55628112D01*
X87091165Y-55628112D01*
X87091165Y-58429365D01*
X88368094Y-58429365D01*
X88384705Y-58066868D01*
X88489508Y-57728057D01*
X88676642Y-57427652D01*
X88940242Y-57180370D01*
X89138760Y-57060562D01*
X89503160Y-56931312D01*
X89874426Y-56903752D01*
X90250583Y-56978018D01*
X90263883Y-56982487D01*
X90580067Y-57137867D01*
X90829652Y-57356085D01*
X91012229Y-57622359D01*
X91127389Y-57921910D01*
X91174722Y-58239957D01*
X91153819Y-58561719D01*
X91064271Y-58872415D01*
X90905669Y-59157266D01*
X90677603Y-59401490D01*
X90379665Y-59590307D01*
X90336624Y-59609649D01*
X89991125Y-59707466D01*
X89640860Y-59715306D01*
X89302615Y-59640347D01*
X88993173Y-59489768D01*
X88729317Y-59270748D01*
X88527832Y-58990464D01*
X88445539Y-58800831D01*
X88368094Y-58429365D01*
X87091165Y-58429365D01*
X87091165Y-94489507D01*
X88367385Y-94489507D01*
X88411086Y-94108852D01*
X88537394Y-93774366D01*
X88734377Y-93493907D01*
X88990102Y-93275333D01*
X89292637Y-93126503D01*
X89630047Y-93055275D01*
X89990401Y-93069507D01*
X90360899Y-93176695D01*
X90658785Y-93352632D01*
X90891751Y-93592635D01*
X91057395Y-93880167D01*
X91153314Y-94198688D01*
X91177107Y-94531660D01*
X91126371Y-94862545D01*
X90998704Y-95174804D01*
X90791703Y-95451898D01*
X90703394Y-95534673D01*
X90402316Y-95732978D01*
X90079659Y-95842952D01*
X89749248Y-95870780D01*
X89424909Y-95822649D01*
X89120467Y-95704743D01*
X88849747Y-95523249D01*
X88626575Y-95284352D01*
X88464775Y-94994238D01*
X88378173Y-94659092D01*
X88367385Y-94489507D01*
X87091165Y-94489507D01*
X87091165Y-123545328D01*
X88373565Y-123545328D01*
X88398059Y-123265488D01*
X88460109Y-123026385D01*
X88487035Y-122966446D01*
X88703626Y-122653763D01*
X88990845Y-122401100D01*
X89327851Y-122225206D01*
X89462851Y-122182444D01*
X89653933Y-122159916D01*
X89894067Y-122168822D01*
X90136747Y-122204907D01*
X90330603Y-122261858D01*
X90552834Y-122394079D01*
X90773635Y-122591854D01*
X90961662Y-122823209D01*
X91069372Y-123015477D01*
X91168837Y-123368830D01*
X91177061Y-123735961D01*
X91094580Y-124090507D01*
X91045160Y-124205157D01*
X90884208Y-124465510D01*
X90672596Y-124674012D01*
X90386864Y-124854868D01*
X90158746Y-124933867D01*
X89877507Y-124970720D01*
X89582315Y-124965369D01*
X89312337Y-124917755D01*
X89154535Y-124856729D01*
X88916938Y-124689983D01*
X88693177Y-124462055D01*
X88515211Y-124208779D01*
X88443851Y-124059927D01*
X88388279Y-123824082D01*
X88373565Y-123545328D01*
X87091165Y-123545328D01*
X87091165Y-151529845D01*
X88371163Y-151529845D01*
X88443600Y-151206075D01*
X88592549Y-150904527D01*
X88818520Y-150640703D01*
X89057178Y-150466001D01*
X89396948Y-150321097D01*
X89754880Y-150275210D01*
X90134556Y-150328092D01*
X90301426Y-150379717D01*
X90602682Y-150538055D01*
X90848057Y-150768342D01*
X91030850Y-151053159D01*
X91144361Y-151375086D01*
X91181893Y-151716705D01*
X91136744Y-152060596D01*
X91044055Y-152310629D01*
X90839772Y-152620924D01*
X90574852Y-152857858D01*
X90264339Y-153016467D01*
X89923278Y-153091786D01*
X89566715Y-153078849D01*
X89209692Y-152972691D01*
X89138760Y-152939438D01*
X88836307Y-152737096D01*
X88607810Y-152479463D01*
X88453780Y-152182042D01*
X88374727Y-151860335D01*
X88371163Y-151529845D01*
X87091165Y-151529845D01*
X87091165Y-154371887D01*
X94486747Y-154371887D01*
X94486747Y-149029217D01*
G37*
G36*
X195780723Y-55628112D02*
G01*
X190756827Y-55628112D01*
X189922176Y-55628247D01*
X189183791Y-55628708D01*
X188535932Y-55629584D01*
X187972859Y-55630962D01*
X187488829Y-55632929D01*
X187078102Y-55635573D01*
X186734937Y-55638981D01*
X186453593Y-55643240D01*
X186228330Y-55648439D01*
X186053405Y-55654664D01*
X185923079Y-55662002D01*
X185831610Y-55670543D01*
X185773258Y-55680371D01*
X185742280Y-55691576D01*
X185732938Y-55704245D01*
X185732932Y-55704618D01*
X185692105Y-55772238D01*
X185656426Y-55781124D01*
X185634886Y-55791970D01*
X185617725Y-55831196D01*
X185604466Y-55908838D01*
X185594631Y-56034931D01*
X185587742Y-56219509D01*
X185583321Y-56472606D01*
X185580890Y-56804259D01*
X185579972Y-57224501D01*
X185579920Y-57387751D01*
X185579920Y-58994377D01*
X195780723Y-58994377D01*
X195780723Y-55628112D01*
G37*
G36*
X150991072Y-154371870D02*
G01*
X153484023Y-154371814D01*
X155878723Y-154371718D01*
X158177052Y-154371579D01*
X160380887Y-154371392D01*
X162492107Y-154371157D01*
X164512592Y-154370868D01*
X166444220Y-154370524D01*
X168288869Y-154370122D01*
X170048418Y-154369657D01*
X171724747Y-154369129D01*
X173319733Y-154368532D01*
X174835256Y-154367866D01*
X176273194Y-154367125D01*
X177635425Y-154366308D01*
X178923829Y-154365412D01*
X180140284Y-154364433D01*
X181286669Y-154363368D01*
X182364863Y-154362215D01*
X183376744Y-154360971D01*
X184324191Y-154359632D01*
X185209083Y-154358195D01*
X186033298Y-154356658D01*
X186798715Y-154355018D01*
X187507213Y-154353271D01*
X188160670Y-154351414D01*
X188760966Y-154349445D01*
X189309979Y-154347361D01*
X189809587Y-154345158D01*
X190261669Y-154342834D01*
X190668105Y-154340385D01*
X191030772Y-154337809D01*
X191351550Y-154335102D01*
X191632317Y-154332262D01*
X191874952Y-154329286D01*
X192081333Y-154326170D01*
X192253339Y-154322911D01*
X192392849Y-154319508D01*
X192501742Y-154315956D01*
X192581897Y-154312252D01*
X192635191Y-154308394D01*
X192663504Y-154304379D01*
X192669478Y-154301330D01*
X192712210Y-154232822D01*
X192771486Y-154204097D01*
X192794369Y-154195856D01*
X192813547Y-154178551D01*
X192829346Y-154143819D01*
X192842093Y-154083295D01*
X192852117Y-153988615D01*
X192859743Y-153851415D01*
X192865300Y-153663331D01*
X192869114Y-153415999D01*
X192871514Y-153101055D01*
X192872825Y-152710134D01*
X192873376Y-152234874D01*
X192873493Y-151666909D01*
X192873494Y-151596944D01*
X192873494Y-149016466D01*
X104126506Y-149016466D01*
X104126506Y-151694177D01*
X130038786Y-151694177D01*
X130083436Y-151308062D01*
X130214169Y-150969060D01*
X130426165Y-150685485D01*
X130714600Y-150465652D01*
X130768135Y-150436633D01*
X131125494Y-150304148D01*
X131487292Y-150273295D01*
X131855377Y-150344059D01*
X132062642Y-150426982D01*
X132368359Y-150624864D01*
X132603655Y-150890767D01*
X132761259Y-151212603D01*
X132833901Y-151578281D01*
X132837823Y-151713803D01*
X164164426Y-151713803D01*
X164175245Y-151456388D01*
X164211563Y-151249180D01*
X164318213Y-151010252D01*
X164494177Y-150770086D01*
X164712786Y-150561973D01*
X164825338Y-150483050D01*
X165167413Y-150327815D01*
X165526648Y-150272326D01*
X165897253Y-150316937D01*
X166147389Y-150402296D01*
X166449230Y-150582753D01*
X166684759Y-150826291D01*
X166851562Y-151116476D01*
X166947227Y-151436873D01*
X166969341Y-151771047D01*
X166915488Y-152102564D01*
X166783258Y-152414990D01*
X166570235Y-152691890D01*
X166493969Y-152762372D01*
X166191210Y-152959828D01*
X165861310Y-153069070D01*
X165520256Y-153094323D01*
X165184035Y-153039816D01*
X164868632Y-152909775D01*
X164590035Y-152708429D01*
X164364229Y-152440005D01*
X164225868Y-152162600D01*
X164181540Y-151964507D01*
X164164426Y-151713803D01*
X132837823Y-151713803D01*
X132837887Y-151716013D01*
X132787816Y-152094940D01*
X132649690Y-152422686D01*
X132425104Y-152696737D01*
X132115655Y-152914580D01*
X132058535Y-152943972D01*
X131866676Y-153032338D01*
X131717013Y-153079158D01*
X131563565Y-153094168D01*
X131377672Y-153088146D01*
X130987953Y-153021046D01*
X130655226Y-152873772D01*
X130386767Y-152653900D01*
X130189853Y-152369003D01*
X130071760Y-152026658D01*
X130038786Y-151694177D01*
X104126506Y-151694177D01*
X104126506Y-154371887D01*
X148397992Y-154371887D01*
X150991072Y-154371870D01*
G37*
D10*
X201501100Y-89003600D02*
G75*
G02*
X206501100Y-94003600I0J-5000000D01*
G01*
X201501100Y-89003600D02*
X190501100Y-89003600D01*
X187501100Y-92003600D02*
G75*
G02*
X190501100Y-89003600I3000000J0D01*
G01*
X187501100Y-92003600D02*
X187501100Y-102003600D01*
X189501100Y-104003600D02*
G75*
G02*
X187501100Y-102003600I0J2000000D01*
G01*
X189501100Y-104003600D02*
X192501100Y-104003600D01*
X194501100Y-106003600D02*
G75*
G03*
X192501100Y-104003600I-2000000J0D01*
G01*
X194501100Y-106003600D02*
X194501100Y-111003600D01*
X196501100Y-113003600D02*
G75*
G02*
X194501100Y-111003600I0J2000000D01*
G01*
X198501100Y-115003600D02*
G75*
G03*
X196501100Y-113003600I-2000000J0D01*
G01*
X198501100Y-115003600D02*
X198501100Y-118003600D01*
X196501100Y-120003600D02*
G75*
G03*
X198501100Y-118003600I0J2000000D01*
G01*
X196501100Y-120003600D02*
X188501100Y-120003600D01*
X186501100Y-122003600D02*
G75*
G02*
X188501100Y-120003600I2000000J0D01*
G01*
X184501100Y-143003600D02*
G75*
G03*
X186501100Y-141003600I0J2000000D01*
G01*
X178501100Y-141003601D02*
G75*
G03*
X184501100Y-143003600I5999999J8000000D01*
G01*
X172501100Y-139003600D02*
G75*
G02*
X178501100Y-141003600I-1J-10000003D01*
G01*
X170501100Y-141003600D02*
G75*
G02*
X172501100Y-139003600I2000000J0D01*
G01*
X170501100Y-141003600D02*
X170501100Y-143103600D01*
X170501100Y-143103600D02*
X170501100Y-144503600D01*
X170501100Y-144503600D02*
X155501100Y-144503600D01*
X172501100Y-136003600D02*
X173301100Y-136003600D01*
X173301100Y-136003600D02*
X181501100Y-136003600D01*
X191501100Y-114003600D02*
G75*
G02*
X188501100Y-117003600I-3000000J0D01*
G01*
X191501100Y-114003600D02*
X191501100Y-109003600D01*
X189501100Y-107003600D02*
G75*
G02*
X191501100Y-109003600I0J-2000000D01*
G01*
X184501100Y-100003600D02*
X184501100Y-94003600D01*
X158501100Y-129003600D02*
X158501100Y-135503600D01*
X160501100Y-137503600D02*
G75*
G02*
X158501100Y-135503600I0J2000000D01*
G01*
X167201100Y-136703600D02*
G75*
G02*
X160501100Y-137503600I-6700001J27656250D01*
G01*
X173301100Y-136003600D02*
G75*
G03*
X167201100Y-136703600I-228716J-24935478D01*
G01*
X158501100Y-129003600D02*
X158501100Y-124003600D01*
X162501100Y-120003600D02*
G75*
G03*
X158501100Y-124003600I0J-4000000D01*
G01*
X162501100Y-120003600D02*
X181501100Y-120003600D01*
X183501100Y-122003600D02*
G75*
G03*
X181501100Y-120003600I-2000000J0D01*
G01*
X188501100Y-117003600D02*
X160501100Y-117003600D01*
X155501100Y-122003600D02*
X155501100Y-144503600D01*
X186501100Y-106003601D02*
G75*
G03*
X189501100Y-107003600I2999999J4000000D01*
G01*
X183501100Y-105003600D02*
G75*
G02*
X186501100Y-106003600I-1J-5000003D01*
G01*
X183501100Y-105003600D02*
X170501100Y-105003600D01*
X167501100Y-108003600D02*
G75*
G02*
X170501100Y-105003600I3000000J0D01*
G01*
X163501100Y-112003600D02*
G75*
G03*
X167501100Y-108003600I0J4000000D01*
G01*
X163501100Y-112003600D02*
X153501100Y-112003600D01*
X153501100Y-112003600D02*
X152501100Y-112003600D01*
X152501100Y-112003600D02*
X149501100Y-112003600D01*
X153501100Y-109003600D02*
X162501100Y-109003600D01*
X164501100Y-107003600D02*
G75*
G02*
X162501100Y-109003600I-2000000J0D01*
G01*
X169501100Y-102003600D02*
G75*
G03*
X164501100Y-107003600I0J-5000000D01*
G01*
X169501100Y-102003600D02*
X182501100Y-102003600D01*
X184501100Y-100003600D02*
G75*
G02*
X182501100Y-102003600I-2000000J0D01*
G01*
X160501100Y-117003600D02*
X156501100Y-117003600D01*
X155501100Y-118003600D02*
G75*
G02*
X156501100Y-117003600I1000000J0D01*
G01*
X155501100Y-118003600D02*
X155501100Y-122003600D01*
X182501100Y-92003600D02*
G75*
G02*
X184501100Y-94003600I0J-2000000D01*
G01*
X182501100Y-92003600D02*
X155501100Y-92003600D01*
X149501100Y-98003600D02*
G75*
G02*
X155501100Y-92003600I6000000J0D01*
G01*
X149501100Y-98003600D02*
X149501100Y-100003600D01*
X149501100Y-100003600D02*
X146501100Y-100003600D01*
X149501100Y-100003600D02*
X149501100Y-105003600D01*
X153501100Y-109003600D02*
G75*
G02*
X149501100Y-105003600I0J4000000D01*
G01*
X149501100Y-100003600D02*
X146501100Y-100003600D01*
X146501100Y-100003600D02*
X146501100Y-102003600D01*
X146501100Y-102003600D02*
X146501100Y-105003600D01*
X146501100Y-105003600D02*
X146501100Y-110003600D01*
X148501100Y-112003600D02*
G75*
G02*
X146501100Y-110003600I0J2000000D01*
G01*
X148501100Y-112003600D02*
X152501100Y-112003600D01*
X146501100Y-100003600D02*
X144501100Y-100003600D01*
X144501100Y-100003600D02*
X137501100Y-100003600D01*
X130501100Y-107003600D02*
G75*
G02*
X137501100Y-100003600I7000000J0D01*
G01*
X130501100Y-107003600D02*
X130501100Y-111003600D01*
X138501100Y-119003600D02*
G75*
G02*
X130501100Y-111003600I0J8000000D01*
G01*
X138501100Y-119003600D02*
X144501100Y-119003600D01*
X145501100Y-120003600D02*
G75*
G03*
X144501100Y-119003600I-1000000J0D01*
G01*
X145501100Y-120003600D02*
X145501100Y-143003600D01*
X145501100Y-143003600D02*
X142501100Y-143003600D01*
X142501100Y-143003600D02*
X142501100Y-139003600D01*
X142501100Y-139003600D02*
X142501100Y-126003600D01*
X138501100Y-122003600D02*
G75*
G02*
X142501100Y-126003600I0J-4000000D01*
G01*
X127501100Y-111003600D02*
G75*
G03*
X138501100Y-122003600I11000000J0D01*
G01*
X127501100Y-111003600D02*
X127501100Y-108103600D01*
X137501100Y-97003600D02*
X144501100Y-97003600D01*
X143501100Y-144503600D02*
X144501100Y-144503600D01*
X145501100Y-143503600D02*
G75*
G02*
X144501100Y-144503600I-1000000J0D01*
G01*
X145501100Y-143503600D02*
X145501100Y-142503600D01*
X127501100Y-108103600D02*
X127501100Y-108003600D01*
X125501100Y-106003600D02*
G75*
G02*
X127501100Y-108003600I0J-2000000D01*
G01*
X125501100Y-106003600D02*
X116501100Y-106003600D01*
X114501100Y-108003600D02*
G75*
G02*
X116501100Y-106003600I2000000J0D01*
G01*
X114501100Y-108003600D02*
X114501100Y-135003600D01*
X115501100Y-136003600D02*
G75*
G02*
X114501100Y-135003600I0J1000000D01*
G01*
X115501100Y-136003600D02*
X119501100Y-136003600D01*
X122501100Y-139003600D02*
G75*
G03*
X119501100Y-136003600I-3000000J0D01*
G01*
X122501100Y-139003600D02*
X122501100Y-139503600D01*
X111501100Y-135003600D02*
X111501100Y-129003600D01*
X111501100Y-118003600D02*
X111501100Y-108003600D01*
X114001100Y-101503600D02*
X127926100Y-101503600D01*
X116501100Y-140003600D02*
G75*
G02*
X111501100Y-135003600I0J5000000D01*
G01*
X119501100Y-141003600D02*
G75*
G03*
X116501100Y-140003600I-3000000J-4000000D01*
G01*
X119501100Y-141003600D02*
G75*
G02*
X120501100Y-142003600I-2999994J-3999994D01*
G01*
X94501100Y-95003600D02*
X98501100Y-95003600D01*
X111501100Y-108003600D02*
G75*
G03*
X98501100Y-95003600I-13000000J0D01*
G01*
X92601100Y-92003600D02*
X98501100Y-92003600D01*
X112801100Y-100803601D02*
G75*
G03*
X114001100Y-101503600I1188636J659091D01*
G01*
X112801100Y-100803601D02*
G75*
G03*
X98501100Y-92003600I-14300001J-7218750D01*
G01*
X130026099Y-100353600D02*
G75*
G02*
X127926100Y-101503600I-2046667J1245000D01*
G01*
X130026099Y-100353599D02*
G75*
G02*
X137501100Y-97003600I6864167J-5301668D01*
G01*
X204501100Y-86003600D02*
X187501100Y-86003600D01*
X183501099Y-87503600D02*
G75*
G02*
X187501100Y-86003600I4000001J-4583335D01*
G01*
X179501100Y-89003601D02*
G75*
G03*
X183501100Y-87503600I1J6083329D01*
G01*
X179501100Y-89003600D02*
X155501100Y-89003600D01*
X146901099Y-95203599D02*
G75*
G02*
X144501100Y-97003600I-2400000J699999D01*
G01*
X146901099Y-95203599D02*
G75*
G02*
X155501100Y-89003600I8600000J-2864517D01*
G01*
X87501100Y-154003600D02*
X87501100Y-92003600D01*
X90501100Y-148003600D02*
X90501100Y-149003600D01*
X94501100Y-95003600D02*
G75*
G03*
X90501100Y-99003600I0J-4000000D01*
G01*
X108501100Y-123003600D02*
X108501100Y-124003600D01*
X110001100Y-126503600D02*
G75*
G02*
X108501100Y-124003600I1333334J2500000D01*
G01*
X111501100Y-129003601D02*
G75*
G03*
X110001100Y-126503600I-2833331J2D01*
G01*
X110001100Y-120503600D02*
G75*
G03*
X108501100Y-123003600I1333334J-2500001D01*
G01*
X111501099Y-118003600D02*
G75*
G02*
X110001100Y-120503600I-2833330J-2D01*
G01*
X93501100Y-124003600D02*
X93501100Y-123003600D01*
X92001099Y-120503600D02*
G75*
G02*
X93501100Y-123003600I-1333334J-2500001D01*
G01*
X90501100Y-118003600D02*
G75*
G03*
X92001100Y-120503600I2833330J-2D01*
G01*
X92001100Y-126503601D02*
G75*
G03*
X93501100Y-124003600I-1333335J2500001D01*
G01*
X90501099Y-129003600D02*
G75*
G02*
X92001100Y-126503600I2833331J1D01*
G01*
X203501100Y-130003600D02*
X203501100Y-131003600D01*
X205001100Y-133503600D02*
G75*
G02*
X203501100Y-131003600I1333334J2500000D01*
G01*
X206501100Y-136003601D02*
G75*
G03*
X205001100Y-133503600I-2833331J2D01*
G01*
X205001100Y-127503600D02*
G75*
G03*
X203501100Y-130003600I1333334J-2500001D01*
G01*
X206501099Y-125003600D02*
G75*
G02*
X205001100Y-127503600I-2833330J-2D01*
G01*
X90501100Y-99003600D02*
X90501100Y-118003600D01*
X90501100Y-129003600D02*
X90501100Y-145003600D01*
X94501100Y-149003600D02*
G75*
G02*
X90501100Y-145003600I0J4000000D01*
G01*
X202501100Y-149003600D02*
G75*
G03*
X206501100Y-145003600I0J4000000D01*
G01*
X206501100Y-145003600D02*
X206501100Y-136003600D01*
X206501100Y-125003600D02*
X206501100Y-94003600D01*
X206501100Y-84003600D02*
G75*
G02*
X204501100Y-86003600I-2000000J0D01*
G01*
X206501100Y-84003600D02*
X206501100Y-83003600D01*
X206501100Y-83003600D02*
X206501100Y-63003600D01*
X87501100Y-92003600D02*
X87501100Y-56003600D01*
X168501100Y-56003600D02*
X168501100Y-59003600D01*
X168501100Y-59003600D02*
X94501100Y-59003600D01*
X90501100Y-63003600D02*
G75*
G02*
X94501100Y-59003600I4000000J0D01*
G01*
X90501100Y-63003600D02*
X90501100Y-90003600D01*
X92501100Y-92003600D02*
G75*
G02*
X90501100Y-90003600I0J2000000D01*
G01*
X92501100Y-92003600D02*
X92601100Y-92003600D01*
X168501100Y-56003600D02*
X168501100Y-59003600D01*
X168501100Y-59003600D02*
X177501100Y-59003600D01*
X177501100Y-59003600D02*
X177501100Y-56003600D01*
X177501100Y-56003600D02*
X168501100Y-56003600D01*
X187501100Y-56003600D02*
X187501100Y-59003600D01*
X187501100Y-59003600D02*
X193501100Y-59003600D01*
X193501100Y-59003600D02*
X193501100Y-56003600D01*
X193501100Y-56003600D02*
X187501100Y-56003600D01*
X203501100Y-56003600D02*
X209501100Y-56003600D01*
X209501100Y-56003600D02*
X209501100Y-154003600D01*
X202501100Y-154003600D02*
X192501100Y-154003600D01*
X104501100Y-154003600D02*
X94501100Y-154003600D01*
X94501100Y-154003600D02*
X87501100Y-154003600D01*
X206501100Y-63003600D02*
X206501100Y-62203600D01*
X203501100Y-59203600D02*
G75*
G02*
X206501100Y-62203600I0J-3000000D01*
G01*
X203501100Y-59203600D02*
X203501100Y-56003600D01*
X94501100Y-149003600D02*
X94501100Y-154003600D01*
X94501100Y-154003600D02*
X87501100Y-154003600D01*
X209501100Y-154003600D02*
X202501100Y-154003600D01*
X202501100Y-154003600D02*
X202501100Y-149003600D01*
X192501100Y-154003600D02*
X192501100Y-149003600D01*
X192501100Y-149003600D02*
X104501100Y-149003600D01*
X104501100Y-149003600D02*
X104501100Y-154003600D01*
X104501100Y-154003600D02*
X192501100Y-154003600D01*
X144501100Y-141503600D02*
G75*
G02*
X145501100Y-142503600I0J-1000000D01*
G01*
X144501100Y-141503600D02*
X140501100Y-141503600D01*
X143501100Y-144503600D02*
X130101100Y-144503600D01*
X129301100Y-144303601D02*
G75*
G03*
X130101100Y-144503600I799999J1500000D01*
G01*
X127401100Y-142803601D02*
G75*
G03*
X129301100Y-144303600I5110940J4520525D01*
G01*
X127101100Y-142003600D02*
G75*
G03*
X127401100Y-142803600I1195522J-7930D01*
G01*
X127601100Y-141503601D02*
G75*
G03*
X127101100Y-142003600I3337J-503337D01*
G01*
X127701100Y-141503600D02*
G75*
G03*
X127601100Y-141503600I-50000J-7540634D01*
G01*
X127801100Y-141503600D02*
G75*
G02*
X127701100Y-141503600I-50000J7540633D01*
G01*
X122501100Y-139003600D02*
X122501100Y-140003600D01*
X122501100Y-140003600D02*
X122501100Y-142003600D01*
X121301100Y-142803601D02*
G75*
G03*
X122501100Y-142003600I333333J800000D01*
G01*
X121001101Y-142603600D02*
G75*
G03*
X121301100Y-142803600I661107J666662D01*
G01*
X120501100Y-142003600D02*
G75*
G03*
X121001100Y-142603600I3403581J2327984D01*
G01*
X186001100Y-122503600D02*
G75*
G03*
X186501100Y-122003600I0J500000D01*
G01*
X186001100Y-122503600D02*
X184001100Y-122503600D01*
X183501100Y-122003600D02*
G75*
G03*
X184001100Y-122503600I500000J0D01*
G01*
X142501100Y-139503600D02*
G75*
G02*
X140501100Y-141503600I-2000000J0D01*
G01*
X142501100Y-139503600D02*
X142501100Y-139003600D01*
D11*
G36*
X94486747Y-149029217D02*
G01*
X94327359Y-148997339D01*
X94168441Y-148976308D01*
X93983379Y-148965752D01*
X93952988Y-148965462D01*
X93797344Y-148952421D01*
X93586382Y-148918028D01*
X93362742Y-148869381D01*
X93337524Y-148863036D01*
X92752149Y-148662198D01*
X92215035Y-148374519D01*
X91734400Y-148006699D01*
X91318466Y-147565437D01*
X90975451Y-147057433D01*
X90866182Y-146848795D01*
X90818020Y-146752603D01*
X90774045Y-146668212D01*
X90734067Y-146590849D01*
X90697897Y-146515743D01*
X90665346Y-146438123D01*
X90636225Y-146353217D01*
X90610344Y-146256254D01*
X90587514Y-146142462D01*
X90567547Y-146007070D01*
X90550252Y-145845307D01*
X90535441Y-145652400D01*
X90522925Y-145423580D01*
X90512514Y-145154073D01*
X90504019Y-144839109D01*
X90497251Y-144473916D01*
X90492021Y-144053723D01*
X90488139Y-143573758D01*
X90485417Y-143029250D01*
X90483665Y-142415428D01*
X90482693Y-141727519D01*
X90482313Y-140960753D01*
X90482336Y-140110358D01*
X90482572Y-139171563D01*
X90482833Y-138139596D01*
X90482932Y-137183534D01*
X90482932Y-128589357D01*
X90600535Y-128249029D01*
X90756980Y-127880988D01*
X90963739Y-127551263D01*
X91233095Y-127246116D01*
X91577329Y-126951809D01*
X92008726Y-126654604D01*
X92048269Y-126629730D01*
X92467411Y-126309178D01*
X92828823Y-125913479D01*
X93121229Y-125458300D01*
X93333353Y-124959312D01*
X93389394Y-124766091D01*
X93430051Y-124532761D01*
X93457054Y-124224377D01*
X93470651Y-123866941D01*
X93471095Y-123486454D01*
X93458637Y-123108917D01*
X93433528Y-122760334D01*
X93396019Y-122466704D01*
X93365773Y-122320221D01*
X93214903Y-121863088D01*
X93005244Y-121460740D01*
X92725732Y-121098588D01*
X92365302Y-120762045D01*
X91960638Y-120467712D01*
X91722194Y-120302503D01*
X91490571Y-120128074D01*
X91292758Y-119965572D01*
X91159166Y-119839824D01*
X90931950Y-119544309D01*
X90733190Y-119187352D01*
X90582604Y-118809141D01*
X90509696Y-118516064D01*
X90502337Y-118436094D01*
X90495672Y-118285808D01*
X90489694Y-118063023D01*
X90484395Y-117765558D01*
X90479764Y-117391230D01*
X90475795Y-116937858D01*
X90472479Y-116403259D01*
X90469806Y-115785253D01*
X90467769Y-115081657D01*
X90466358Y-114290288D01*
X90465566Y-113408966D01*
X90465384Y-112435508D01*
X90465803Y-111367733D01*
X90466815Y-110203457D01*
X90468411Y-108940501D01*
X90469478Y-108238755D01*
X90471411Y-107052216D01*
X90473284Y-105963349D01*
X90475142Y-104967818D01*
X90477031Y-104061286D01*
X90478996Y-103239417D01*
X90481083Y-102497875D01*
X90483337Y-101832324D01*
X90485805Y-101238428D01*
X90488531Y-100711850D01*
X90491561Y-100248255D01*
X90494942Y-99843305D01*
X90498718Y-99492666D01*
X90502934Y-99192000D01*
X90507638Y-98936971D01*
X90512873Y-98723244D01*
X90518686Y-98546482D01*
X90525123Y-98402349D01*
X90532228Y-98286509D01*
X90540048Y-98194625D01*
X90548628Y-98122362D01*
X90558014Y-98065383D01*
X90568251Y-98019352D01*
X90577248Y-97986948D01*
X90809393Y-97381015D01*
X91121840Y-96834450D01*
X91509386Y-96352555D01*
X91966831Y-95940634D01*
X92488973Y-95603988D01*
X93070612Y-95347921D01*
X93211646Y-95301171D01*
X93594177Y-95181727D01*
X96628916Y-95182196D01*
X97264371Y-95182421D01*
X97807210Y-95183081D01*
X98266821Y-95184469D01*
X98652597Y-95186881D01*
X98973927Y-95190611D01*
X99240202Y-95195953D01*
X99460813Y-95203203D01*
X99645150Y-95212655D01*
X99802604Y-95224603D01*
X99942565Y-95239342D01*
X100074424Y-95257167D01*
X100207572Y-95278372D01*
X100321752Y-95298043D01*
X101210788Y-95477835D01*
X102032701Y-95696654D01*
X102818089Y-95964268D01*
X103597553Y-96290445D01*
X103947992Y-96455747D01*
X104947868Y-96998209D01*
X105886388Y-97619778D01*
X106760121Y-98315593D01*
X107565631Y-99080791D01*
X108299485Y-99910511D01*
X108958251Y-100799892D01*
X109538493Y-101744072D01*
X110036778Y-102738188D01*
X110449673Y-103777380D01*
X110487029Y-103901804D01*
X112454428Y-103901804D01*
X112513168Y-103600535D01*
X112665446Y-103257053D01*
X112888328Y-102976719D01*
X113167532Y-102766113D01*
X113488778Y-102631813D01*
X113837784Y-102580398D01*
X114200269Y-102618447D01*
X114459378Y-102703980D01*
X114759848Y-102884825D01*
X114995138Y-103130207D01*
X115161649Y-103423336D01*
X115255778Y-103747425D01*
X115273926Y-104085683D01*
X115212490Y-104421323D01*
X115067869Y-104737555D01*
X114934135Y-104917321D01*
X114719262Y-105132317D01*
X114506715Y-105272319D01*
X114266268Y-105350486D01*
X113967690Y-105379979D01*
X113868273Y-105381306D01*
X113547594Y-105363196D01*
X113293642Y-105300117D01*
X113076235Y-105178945D01*
X112865192Y-104986556D01*
X112803164Y-104918177D01*
X112588922Y-104604177D01*
X112472178Y-104263120D01*
X112454428Y-103901804D01*
X110487029Y-103901804D01*
X110773745Y-104856785D01*
X111005558Y-105971543D01*
X111088849Y-106566542D01*
X111102333Y-106733767D01*
X111114656Y-106989575D01*
X111125818Y-107325874D01*
X111135822Y-107734572D01*
X111144669Y-108207577D01*
X111152360Y-108736797D01*
X111158896Y-109314142D01*
X111164278Y-109931518D01*
X111168508Y-110580834D01*
X111171587Y-111253998D01*
X111173517Y-111942919D01*
X111174298Y-112639504D01*
X111173932Y-113335662D01*
X111172420Y-114023301D01*
X111169763Y-114694330D01*
X111165963Y-115340655D01*
X111161021Y-115954186D01*
X111154938Y-116526831D01*
X111147716Y-117050498D01*
X111139355Y-117517094D01*
X111129858Y-117918530D01*
X111119224Y-118246711D01*
X111107457Y-118493547D01*
X111094556Y-118650947D01*
X111086939Y-118696613D01*
X110910047Y-119186292D01*
X110644821Y-119626044D01*
X110293381Y-120013099D01*
X109857846Y-120344691D01*
X109796233Y-120382929D01*
X109496444Y-120574542D01*
X109259977Y-120752482D01*
X109056214Y-120942838D01*
X108854537Y-121171698D01*
X108818486Y-121216026D01*
X108598123Y-121522285D01*
X108427870Y-121839508D01*
X108303621Y-122183858D01*
X108221269Y-122571499D01*
X108176708Y-123018597D01*
X108165833Y-123541315D01*
X108167893Y-123658533D01*
X109945408Y-123658533D01*
X109963816Y-123316434D01*
X110064542Y-122988084D01*
X110246851Y-122690406D01*
X110484268Y-122459497D01*
X110811359Y-122271470D01*
X111169488Y-122174663D01*
X111539989Y-122171287D01*
X111904195Y-122263549D01*
X111956150Y-122285340D01*
X112256323Y-122471607D01*
X112497169Y-122730080D01*
X112667450Y-123043003D01*
X112755930Y-123392623D01*
X112766060Y-123565004D01*
X112720243Y-123934588D01*
X112594291Y-124258211D01*
X112401479Y-124530097D01*
X112155079Y-124744472D01*
X111868363Y-124895562D01*
X111554605Y-124977593D01*
X111227077Y-124984789D01*
X110899053Y-124911377D01*
X110583805Y-124751581D01*
X110391437Y-124598099D01*
X110158484Y-124316289D01*
X110010052Y-123997459D01*
X109945408Y-123658533D01*
X108167893Y-123658533D01*
X108169844Y-123769478D01*
X108180077Y-124106089D01*
X108192361Y-124362136D01*
X108209332Y-124559060D01*
X108233622Y-124718304D01*
X108267869Y-124861310D01*
X108314705Y-125009519D01*
X108326362Y-125043240D01*
X108556591Y-125551341D01*
X108872194Y-126005265D01*
X109269540Y-126400674D01*
X109736948Y-126728518D01*
X110183757Y-127036486D01*
X110544877Y-127389401D01*
X110831375Y-127799902D01*
X111020992Y-128194814D01*
X111138722Y-128487349D01*
X111167236Y-132185141D01*
X111195749Y-135882932D01*
X111329907Y-136377967D01*
X111572372Y-137087223D01*
X111898744Y-137742521D01*
X112304644Y-138338624D01*
X112453415Y-138503050D01*
X118479133Y-138503050D01*
X118552906Y-138176422D01*
X118713865Y-137863341D01*
X118825481Y-137720028D01*
X119089324Y-137473403D01*
X119373233Y-137319891D01*
X119697624Y-137250808D01*
X119937751Y-137246973D01*
X120240814Y-137278899D01*
X120478057Y-137342585D01*
X120522105Y-137361947D01*
X120789025Y-137542331D01*
X121017784Y-137793055D01*
X121191762Y-138088074D01*
X121294342Y-138401342D01*
X121314859Y-138604303D01*
X121267374Y-138971314D01*
X121133113Y-139303440D01*
X120924374Y-139588332D01*
X120653452Y-139813638D01*
X120332642Y-139967008D01*
X119974240Y-140036093D01*
X119886747Y-140038762D01*
X119522612Y-139993969D01*
X119202565Y-139868558D01*
X118932762Y-139675980D01*
X118719360Y-139429689D01*
X118568517Y-139143135D01*
X118486389Y-138829771D01*
X118479133Y-138503050D01*
X112453415Y-138503050D01*
X112785696Y-138870296D01*
X113337519Y-139332302D01*
X113955737Y-139719406D01*
X114244161Y-139863039D01*
X114569989Y-139999387D01*
X114903097Y-140107151D01*
X115265578Y-140191202D01*
X115679526Y-140256411D01*
X116167036Y-140307649D01*
X116316466Y-140319901D01*
X116778969Y-140360240D01*
X117160631Y-140405094D01*
X117482619Y-140459515D01*
X117766098Y-140528555D01*
X118032236Y-140617264D01*
X118302197Y-140730696D01*
X118560871Y-140855549D01*
X118961552Y-141079902D01*
X119326262Y-141335814D01*
X119674296Y-141639829D01*
X120024948Y-142008491D01*
X120328239Y-142370976D01*
X120586488Y-142677222D01*
X120811526Y-142903057D01*
X121017870Y-143058222D01*
X121220035Y-143152462D01*
X121432538Y-143195518D01*
X121564739Y-143200888D01*
X121833526Y-143152103D01*
X122092441Y-143021993D01*
X122316209Y-142830072D01*
X122479557Y-142595854D01*
X122535889Y-142451093D01*
X122550427Y-142345453D01*
X122562911Y-142144979D01*
X122573163Y-141856831D01*
X122581004Y-141488165D01*
X122586256Y-141046139D01*
X122588741Y-140537912D01*
X122588921Y-140320281D01*
X122588026Y-139791268D01*
X122585379Y-139353724D01*
X122580617Y-138997119D01*
X122573379Y-138710922D01*
X122563303Y-138484605D01*
X122550026Y-138307636D01*
X122533186Y-138169487D01*
X122512421Y-138059628D01*
X122510946Y-138053300D01*
X122342249Y-137547696D01*
X122089281Y-137098232D01*
X121755224Y-136708529D01*
X121343256Y-136382206D01*
X120856559Y-136122884D01*
X120791808Y-136095840D01*
X120723737Y-136069846D01*
X120652433Y-136048156D01*
X120567973Y-136030230D01*
X120460437Y-136015530D01*
X120319904Y-136003517D01*
X120136453Y-135993652D01*
X119900163Y-135985395D01*
X119601114Y-135978209D01*
X119229383Y-135971554D01*
X118775051Y-135964892D01*
X118254618Y-135958023D01*
X117709159Y-135950731D01*
X117255905Y-135943829D01*
X116885057Y-135936820D01*
X116586815Y-135929205D01*
X116351380Y-135920488D01*
X116168954Y-135910171D01*
X116029737Y-135897758D01*
X115923929Y-135882750D01*
X115841732Y-135864650D01*
X115773346Y-135842962D01*
X115740844Y-135830444D01*
X115367661Y-135626872D01*
X115046336Y-135344898D01*
X114792217Y-135001253D01*
X114620652Y-134612666D01*
X114619167Y-134607831D01*
X114612419Y-134564603D01*
X114606136Y-134478641D01*
X114600305Y-134346953D01*
X114594910Y-134166546D01*
X114589940Y-133934427D01*
X114585380Y-133647602D01*
X114581216Y-133303079D01*
X114577435Y-132897864D01*
X114574022Y-132428965D01*
X114570964Y-131893388D01*
X114568248Y-131288140D01*
X114565859Y-130610229D01*
X114563785Y-129856661D01*
X114562010Y-129024443D01*
X114560521Y-128110581D01*
X114559305Y-127112084D01*
X114558348Y-126025957D01*
X114557635Y-124849209D01*
X114557154Y-123578845D01*
X114556891Y-122211872D01*
X114556827Y-121040763D01*
X114556842Y-119660289D01*
X114556904Y-118378114D01*
X114557040Y-117190531D01*
X114557275Y-116093830D01*
X114557637Y-115084304D01*
X114558152Y-114158244D01*
X114558846Y-113311942D01*
X114559746Y-112541689D01*
X114560878Y-111843777D01*
X114562268Y-111214497D01*
X114563944Y-110650142D01*
X114565930Y-110147002D01*
X114568254Y-109701370D01*
X114570942Y-109309536D01*
X114574021Y-108967793D01*
X114577516Y-108672432D01*
X114581455Y-108419745D01*
X114585863Y-108206023D01*
X114590767Y-108027558D01*
X114596194Y-107880642D01*
X114602170Y-107761565D01*
X114608721Y-107666621D01*
X114615873Y-107592100D01*
X114623654Y-107534294D01*
X114632089Y-107489495D01*
X114641206Y-107453993D01*
X114651029Y-107424082D01*
X114653829Y-107416421D01*
X114840808Y-107043091D01*
X115099025Y-106721679D01*
X115360367Y-106507054D01*
X115443211Y-106452079D01*
X115519657Y-106403490D01*
X115596213Y-106360892D01*
X115679385Y-106323895D01*
X115775679Y-106292104D01*
X115891604Y-106265128D01*
X116033664Y-106242572D01*
X116208368Y-106224045D01*
X116422221Y-106209154D01*
X116681730Y-106197506D01*
X116993403Y-106188708D01*
X117363745Y-106182367D01*
X117799263Y-106178090D01*
X118306465Y-106175486D01*
X118891857Y-106174160D01*
X119561945Y-106173720D01*
X120323236Y-106173774D01*
X120879290Y-106173889D01*
X121712199Y-106174314D01*
X122448825Y-106175339D01*
X123094892Y-106177044D01*
X123656124Y-106179508D01*
X124138245Y-106182812D01*
X124546979Y-106187034D01*
X124888048Y-106192254D01*
X125167178Y-106198552D01*
X125390093Y-106206007D01*
X125562515Y-106214700D01*
X125690169Y-106224709D01*
X125778779Y-106236114D01*
X125810733Y-106242483D01*
X126215453Y-106388453D01*
X126570533Y-106621113D01*
X126867896Y-106933997D01*
X127062122Y-107244177D01*
X127205823Y-107524699D01*
X127238029Y-109845381D01*
X127247333Y-110462278D01*
X127257483Y-110989385D01*
X127269565Y-111438923D01*
X127284659Y-111823111D01*
X127303851Y-112154167D01*
X127328223Y-112444311D01*
X127358858Y-112705762D01*
X127396838Y-112950738D01*
X127443249Y-113191460D01*
X127499172Y-113440146D01*
X127565690Y-113709014D01*
X127588334Y-113797220D01*
X127904157Y-114819979D01*
X128310308Y-115799027D01*
X128802838Y-116729378D01*
X129377798Y-117606048D01*
X130031241Y-118424051D01*
X130759217Y-119178402D01*
X131557778Y-119864115D01*
X132422976Y-120476204D01*
X133265650Y-120965421D01*
X134060604Y-121347050D01*
X134857625Y-121655423D01*
X134901968Y-121668437D01*
X141573022Y-121668437D01*
X141575758Y-121453053D01*
X141651760Y-121088598D01*
X141809535Y-120771727D01*
X142036527Y-120511193D01*
X142320181Y-120315750D01*
X142647942Y-120194152D01*
X143007254Y-120155151D01*
X143368594Y-120203132D01*
X143651915Y-120321356D01*
X143918487Y-120518663D01*
X144141558Y-120772622D01*
X144238008Y-120932204D01*
X144363317Y-121274421D01*
X144396726Y-121611567D01*
X144348215Y-121933511D01*
X144227769Y-122230124D01*
X144045368Y-122491278D01*
X143810994Y-122706843D01*
X143534631Y-122866690D01*
X143226259Y-122960688D01*
X142895861Y-122978710D01*
X142553419Y-122910625D01*
X142364559Y-122833296D01*
X142042777Y-122623806D01*
X141799937Y-122353435D01*
X141641524Y-122031780D01*
X141573022Y-121668437D01*
X134901968Y-121668437D01*
X135675005Y-121895310D01*
X136531035Y-122071480D01*
X137444007Y-122188701D01*
X138152475Y-122239564D01*
X138617129Y-122269066D01*
X139001201Y-122308558D01*
X139325981Y-122362754D01*
X139612758Y-122436368D01*
X139882821Y-122534113D01*
X140157462Y-122660703D01*
X140235953Y-122700851D01*
X140757459Y-123028507D01*
X141214523Y-123431659D01*
X141600347Y-123901644D01*
X141908130Y-124429798D01*
X142131074Y-125007456D01*
X142176551Y-125173620D01*
X142191758Y-125236413D01*
X142205366Y-125300501D01*
X142217450Y-125371552D01*
X142228084Y-125455230D01*
X142237345Y-125557202D01*
X142245309Y-125683134D01*
X142252050Y-125838692D01*
X142257644Y-126029542D01*
X142262167Y-126261349D01*
X142265693Y-126539781D01*
X142268300Y-126870503D01*
X142270061Y-127259180D01*
X142271052Y-127711480D01*
X142271350Y-128233067D01*
X142271029Y-128829608D01*
X142270165Y-129506770D01*
X142268833Y-130270217D01*
X142267109Y-131125617D01*
X142265552Y-131855146D01*
X142252008Y-138127108D01*
X142109491Y-138417326D01*
X141918715Y-138712077D01*
X141657370Y-138986175D01*
X141356579Y-139210919D01*
X141116998Y-139332550D01*
X141043821Y-139360374D01*
X140970899Y-139383518D01*
X140888156Y-139402552D01*
X140785519Y-139418047D01*
X140652911Y-139430573D01*
X140480258Y-139440700D01*
X140257487Y-139449000D01*
X139974520Y-139456043D01*
X139621285Y-139462399D01*
X139187705Y-139468640D01*
X138663707Y-139475335D01*
X138576851Y-139476412D01*
X136329807Y-139504217D01*
X135950145Y-139693720D01*
X135814267Y-139763496D01*
X135691484Y-139832838D01*
X135568443Y-139911698D01*
X135431790Y-140010029D01*
X135268173Y-140137783D01*
X135064239Y-140304911D01*
X134806634Y-140521367D01*
X134568544Y-140723455D01*
X134345121Y-140902487D01*
X134110389Y-141072311D01*
X133895388Y-141211348D01*
X133761449Y-141284499D01*
X133428313Y-141442369D01*
X127237927Y-141493373D01*
X127082793Y-141642047D01*
X126915820Y-141866357D01*
X126843358Y-142127539D01*
X126854837Y-142280912D01*
X136054698Y-142280912D01*
X136064203Y-141924293D01*
X136154789Y-141597398D01*
X136316275Y-141309715D01*
X136538482Y-141070730D01*
X136811230Y-140889930D01*
X137124339Y-140776803D01*
X137467630Y-140740835D01*
X137830922Y-140791513D01*
X138056501Y-140868395D01*
X138348636Y-141044146D01*
X138586028Y-141293617D01*
X138756352Y-141597754D01*
X138847286Y-141937508D01*
X138859121Y-142109087D01*
X138815118Y-142501257D01*
X138683608Y-142848450D01*
X138469809Y-143141918D01*
X138178938Y-143372916D01*
X138069679Y-143432587D01*
X137850429Y-143502449D01*
X137575575Y-143535636D01*
X137284699Y-143532144D01*
X137017383Y-143491971D01*
X136845582Y-143432676D01*
X136609808Y-143277809D01*
X136390775Y-143066291D01*
X136217791Y-142830149D01*
X136136453Y-142657768D01*
X136054698Y-142280912D01*
X126854837Y-142280912D01*
X126865531Y-142423777D01*
X126982465Y-142753256D01*
X127003718Y-142796623D01*
X127137443Y-143000278D01*
X127344697Y-143239083D01*
X127609323Y-143499583D01*
X127915164Y-143768321D01*
X128246064Y-144031844D01*
X128585867Y-144276697D01*
X128918416Y-144489423D01*
X129227555Y-144656570D01*
X129249671Y-144667046D01*
X129552008Y-144808634D01*
X137100602Y-144823767D01*
X138231164Y-144825773D01*
X139262366Y-144827046D01*
X140196853Y-144827573D01*
X141037270Y-144827338D01*
X141786262Y-144826328D01*
X142446476Y-144824529D01*
X143020555Y-144821926D01*
X143511145Y-144818506D01*
X143920892Y-144814255D01*
X144252440Y-144809158D01*
X144508436Y-144803201D01*
X144691524Y-144796371D01*
X144804349Y-144788652D01*
X144843632Y-144782517D01*
X145051778Y-144682987D01*
X145265855Y-144515663D01*
X145455011Y-144307895D01*
X145558211Y-144149061D01*
X145669277Y-143941566D01*
X145669277Y-119765663D01*
X145557523Y-119556817D01*
X145412355Y-119348153D01*
X145217574Y-119149724D01*
X145010104Y-118997091D01*
X144936804Y-118959024D01*
X144875506Y-118946126D01*
X144748974Y-118934301D01*
X144552980Y-118923448D01*
X144283301Y-118913468D01*
X143935709Y-118904258D01*
X143505981Y-118895718D01*
X142989890Y-118887749D01*
X142383210Y-118880247D01*
X141681717Y-118873114D01*
X141129920Y-118868269D01*
X140399875Y-118862168D01*
X139763403Y-118856398D01*
X139212072Y-118850329D01*
X138737451Y-118843330D01*
X138331109Y-118834770D01*
X137984614Y-118824019D01*
X137689535Y-118810446D01*
X137437441Y-118793421D01*
X137219901Y-118772313D01*
X137028484Y-118746491D01*
X136854759Y-118715325D01*
X136690293Y-118678185D01*
X136526657Y-118634439D01*
X136355418Y-118583457D01*
X136168146Y-118524609D01*
X136055508Y-118488740D01*
X135245772Y-118178265D01*
X134479272Y-117779292D01*
X133762825Y-117298609D01*
X133103248Y-116743004D01*
X132507360Y-116119266D01*
X131981978Y-115434183D01*
X131533919Y-114694542D01*
X131170001Y-113907132D01*
X131011589Y-113466667D01*
X130923624Y-113185001D01*
X130848444Y-112915628D01*
X130785198Y-112648172D01*
X130733034Y-112372257D01*
X130691099Y-112077509D01*
X130658542Y-111753551D01*
X130634511Y-111390009D01*
X130618152Y-110976507D01*
X130608615Y-110502669D01*
X130605048Y-109958121D01*
X130606597Y-109332486D01*
X130612412Y-108615390D01*
X130612497Y-108606943D01*
X130619132Y-107996000D01*
X130626464Y-107476090D01*
X130635509Y-107036239D01*
X130647281Y-106665472D01*
X130662797Y-106352814D01*
X130683070Y-106087292D01*
X130709116Y-105857930D01*
X130741950Y-105653755D01*
X130782587Y-105463791D01*
X130832043Y-105277065D01*
X130891331Y-105082602D01*
X130956953Y-104882892D01*
X131255362Y-104128100D01*
X131625824Y-103438260D01*
X132077661Y-102797885D01*
X132506868Y-102307773D01*
X133098994Y-101749834D01*
X133729295Y-101279014D01*
X134407554Y-100889857D01*
X135143555Y-100576907D01*
X135947082Y-100334706D01*
X136117385Y-100294131D01*
X136199020Y-100276018D01*
X136280120Y-100260014D01*
X136367325Y-100245961D01*
X136467278Y-100233702D01*
X136586620Y-100223080D01*
X136731992Y-100213938D01*
X136910036Y-100206119D01*
X137127393Y-100199464D01*
X137390704Y-100193818D01*
X137706610Y-100189023D01*
X138081754Y-100184921D01*
X138522776Y-100181356D01*
X139036318Y-100178170D01*
X139629021Y-100175206D01*
X140307527Y-100172306D01*
X141078477Y-100169315D01*
X141448695Y-100167929D01*
X146306827Y-100149841D01*
X146306827Y-102026924D01*
X149698562Y-102026924D01*
X149698594Y-101378715D01*
X149698717Y-100630160D01*
X149699187Y-99976331D01*
X149700158Y-99409945D01*
X149701781Y-98923720D01*
X149704209Y-98510375D01*
X149707594Y-98162627D01*
X149712090Y-97873194D01*
X149717848Y-97634794D01*
X149725022Y-97440145D01*
X149733764Y-97281964D01*
X149744226Y-97152969D01*
X149756560Y-97045879D01*
X149770921Y-96953411D01*
X149787459Y-96868282D01*
X149793684Y-96839357D01*
X150002754Y-96087733D01*
X150288121Y-95399832D01*
X150654539Y-94766671D01*
X151106761Y-94179261D01*
X151326735Y-93940612D01*
X151900892Y-93412436D01*
X152509922Y-92978645D01*
X153160351Y-92635637D01*
X153858707Y-92379806D01*
X154390964Y-92248352D01*
X154440585Y-92238992D01*
X154495963Y-92230280D01*
X154560754Y-92222192D01*
X154638614Y-92214704D01*
X154733195Y-92207791D01*
X154848155Y-92201430D01*
X154987149Y-92195597D01*
X155153830Y-92190267D01*
X155351855Y-92185417D01*
X155584878Y-92181022D01*
X155856555Y-92177058D01*
X156170541Y-92173501D01*
X156530490Y-92170327D01*
X156940058Y-92167512D01*
X157402901Y-92165032D01*
X157922673Y-92162862D01*
X158503029Y-92160979D01*
X159147624Y-92159358D01*
X159860114Y-92157976D01*
X160644153Y-92156808D01*
X161503398Y-92155830D01*
X162441502Y-92155018D01*
X163462121Y-92154348D01*
X164568911Y-92153796D01*
X165765525Y-92153338D01*
X167055620Y-92152949D01*
X168442851Y-92152606D01*
X168927108Y-92152498D01*
X183004217Y-92149409D01*
X183293838Y-92268531D01*
X183681637Y-92477546D01*
X183993152Y-92754282D01*
X184228529Y-93098902D01*
X184378943Y-93479465D01*
X184395583Y-93546558D01*
X184409747Y-93628239D01*
X184421582Y-93732320D01*
X184431233Y-93866615D01*
X184438847Y-94038938D01*
X184444571Y-94257102D01*
X184448551Y-94528922D01*
X184450934Y-94862211D01*
X184451866Y-95264782D01*
X184451494Y-95744449D01*
X184449964Y-96309026D01*
X184447423Y-96966327D01*
X184446845Y-97100750D01*
X184432329Y-100435141D01*
X184293497Y-100717564D01*
X184082245Y-101071921D01*
X183830834Y-101345303D01*
X183521363Y-101556285D01*
X183449482Y-101593340D01*
X183108466Y-101761245D01*
X175992285Y-101789390D01*
X174987078Y-101793302D01*
X174078475Y-101796824D01*
X173261075Y-101800157D01*
X172529475Y-101803503D01*
X171878274Y-101807062D01*
X171302069Y-101811035D01*
X170795459Y-101815623D01*
X170353041Y-101821027D01*
X169969415Y-101827448D01*
X169639177Y-101835088D01*
X169356926Y-101844147D01*
X169117259Y-101854825D01*
X168914776Y-101867325D01*
X168744074Y-101881847D01*
X168599750Y-101898593D01*
X168476404Y-101917762D01*
X168368633Y-101939556D01*
X168271035Y-101964177D01*
X168178208Y-101991824D01*
X168084751Y-102022699D01*
X167985261Y-102057004D01*
X167886028Y-102090999D01*
X167262227Y-102353900D01*
X166670796Y-102705949D01*
X166124174Y-103136254D01*
X165634800Y-103633922D01*
X165215113Y-104188059D01*
X164930655Y-104679015D01*
X164751462Y-105071663D01*
X164611807Y-105468502D01*
X164505760Y-105893460D01*
X164427393Y-106370470D01*
X164370776Y-106923463D01*
X164369003Y-106945931D01*
X164345003Y-107217079D01*
X164318114Y-107415152D01*
X164281562Y-107569006D01*
X164228572Y-107707499D01*
X164156270Y-107852187D01*
X163917813Y-108204462D01*
X163614494Y-108481390D01*
X163297286Y-108665395D01*
X163010642Y-108799799D01*
X158088755Y-108814058D01*
X157237448Y-108816471D01*
X156481637Y-108818310D01*
X155814809Y-108819301D01*
X155230451Y-108819174D01*
X154722051Y-108817656D01*
X154283097Y-108814476D01*
X153907076Y-108809362D01*
X153587475Y-108802043D01*
X153317784Y-108792245D01*
X153091488Y-108779698D01*
X152902076Y-108764130D01*
X152743035Y-108745270D01*
X152607853Y-108722844D01*
X152490018Y-108696582D01*
X152383017Y-108666213D01*
X152280338Y-108631463D01*
X152175467Y-108592061D01*
X152104314Y-108564325D01*
X151624205Y-108327028D01*
X151164502Y-108005887D01*
X150744979Y-107619064D01*
X150385411Y-107184719D01*
X150112421Y-106734792D01*
X150041061Y-106592574D01*
X149978408Y-106464283D01*
X149923897Y-106342592D01*
X149876962Y-106220173D01*
X149837037Y-106089697D01*
X149803555Y-105943837D01*
X149775950Y-105775265D01*
X149753657Y-105576652D01*
X149736108Y-105340670D01*
X149722738Y-105059992D01*
X149712980Y-104727289D01*
X149706269Y-104335234D01*
X149702037Y-103876498D01*
X149699720Y-103343752D01*
X149698750Y-102729671D01*
X149698562Y-102026924D01*
X146306827Y-102026924D01*
X146306827Y-105173615D01*
X146307279Y-106110906D01*
X146308654Y-106948949D01*
X146310981Y-107690500D01*
X146314292Y-108338315D01*
X146318615Y-108895150D01*
X146323982Y-109363761D01*
X146326644Y-109522229D01*
X147608298Y-109522229D01*
X147608312Y-109513855D01*
X147616306Y-109270598D01*
X147643375Y-109092905D01*
X147696018Y-108945110D01*
X147721101Y-108894950D01*
X147945901Y-108577993D01*
X148245109Y-108327180D01*
X148422425Y-108228311D01*
X148580144Y-108162001D01*
X148726599Y-108128158D01*
X148903808Y-108120024D01*
X149061044Y-108125612D01*
X149397282Y-108166396D01*
X149644931Y-108249964D01*
X149647590Y-108251338D01*
X149929347Y-108451041D01*
X150170903Y-108729205D01*
X150289299Y-108927309D01*
X150369424Y-109165133D01*
X150406213Y-109452774D01*
X150398320Y-109747082D01*
X150344401Y-110004911D01*
X150324485Y-110056516D01*
X150175335Y-110304707D01*
X149960541Y-110541425D01*
X149713873Y-110732342D01*
X149596586Y-110796461D01*
X149339667Y-110877372D01*
X149039794Y-110912992D01*
X148742269Y-110901124D01*
X148516114Y-110848831D01*
X148208390Y-110685838D01*
X147939729Y-110448679D01*
X147760442Y-110199314D01*
X147680310Y-110040893D01*
X147634156Y-109901887D01*
X147613109Y-109742322D01*
X147608298Y-109522229D01*
X146326644Y-109522229D01*
X146330420Y-109746904D01*
X146337961Y-110047335D01*
X146346635Y-110267811D01*
X146356470Y-110411086D01*
X146364220Y-110467670D01*
X146505719Y-110895656D01*
X146735057Y-111288982D01*
X147039848Y-111631989D01*
X147407707Y-111909019D01*
X147577478Y-112001658D01*
X147913454Y-112166064D01*
X164336747Y-112166064D01*
X164717479Y-112046510D01*
X165349885Y-111798148D01*
X165919190Y-111471163D01*
X166422194Y-111068244D01*
X166855692Y-110592080D01*
X167216481Y-110045361D01*
X167308613Y-109870883D01*
X167461657Y-109526971D01*
X167578794Y-109169916D01*
X167666564Y-108773755D01*
X167731508Y-108312520D01*
X167751891Y-108111245D01*
X167810075Y-107622432D01*
X167890745Y-107215207D01*
X168001824Y-106870195D01*
X168151239Y-106568022D01*
X168346912Y-106289312D01*
X168596768Y-106014690D01*
X168617985Y-105993646D01*
X168946160Y-105722876D01*
X169329350Y-105492481D01*
X169730622Y-105322559D01*
X169972691Y-105256312D01*
X170045869Y-105247500D01*
X170178379Y-105239662D01*
X170373552Y-105232778D01*
X170634718Y-105226830D01*
X170965208Y-105221799D01*
X171368353Y-105217665D01*
X171847483Y-105214411D01*
X172405928Y-105212017D01*
X173047021Y-105210463D01*
X173774091Y-105209732D01*
X174590468Y-105209804D01*
X175499485Y-105210660D01*
X176504470Y-105212282D01*
X177393775Y-105214149D01*
X184534337Y-105230483D01*
X184913436Y-105347521D01*
X185443116Y-105540415D01*
X185952696Y-105789869D01*
X186474452Y-106111895D01*
X186528471Y-106148657D01*
X187125638Y-106519406D01*
X187714406Y-106801488D01*
X188318225Y-107003146D01*
X188960546Y-107132624D01*
X189483944Y-107187482D01*
X189905645Y-107232643D01*
X190247417Y-107307945D01*
X190528800Y-107420905D01*
X190769331Y-107579042D01*
X190955311Y-107753579D01*
X191063855Y-107871618D01*
X191157093Y-107982114D01*
X191236137Y-108093499D01*
X191302100Y-108214203D01*
X191356092Y-108352659D01*
X191399228Y-108517298D01*
X191432619Y-108716550D01*
X191457378Y-108958848D01*
X191474616Y-109252622D01*
X191485447Y-109606304D01*
X191490982Y-110028326D01*
X191492334Y-110527119D01*
X191490615Y-111111113D01*
X191486968Y-111783534D01*
X191483346Y-112386456D01*
X191479909Y-112896309D01*
X191476268Y-113322034D01*
X191472034Y-113672569D01*
X191466820Y-113956852D01*
X191460236Y-114183822D01*
X191451894Y-114362419D01*
X191441406Y-114501580D01*
X191428384Y-114610244D01*
X191412438Y-114697351D01*
X191393180Y-114771839D01*
X191370222Y-114842646D01*
X191351752Y-114894779D01*
X191117632Y-115406344D01*
X190807753Y-115851164D01*
X190426287Y-116225126D01*
X189977407Y-116524116D01*
X189799631Y-116601022D01*
X193771104Y-116601022D01*
X193781384Y-116295103D01*
X193846028Y-116029474D01*
X193854229Y-116009749D01*
X193986767Y-115785853D01*
X194178016Y-115561844D01*
X194393361Y-115374754D01*
X194523588Y-115293646D01*
X194800791Y-115193229D01*
X195112442Y-115146007D01*
X195423443Y-115153034D01*
X195698696Y-115215367D01*
X195790082Y-115255577D01*
X196103219Y-115475177D01*
X196355489Y-115765931D01*
X196420876Y-115872855D01*
X196499743Y-116028693D01*
X196545142Y-116166969D01*
X196565791Y-116327299D01*
X196570408Y-116549303D01*
X196570402Y-116552410D01*
X196562290Y-116796644D01*
X196535029Y-116974457D01*
X196482355Y-117120619D01*
X196460144Y-117164458D01*
X196232582Y-117483309D01*
X195932068Y-117734861D01*
X195736783Y-117841840D01*
X195566617Y-117911277D01*
X195415056Y-117945165D01*
X195236018Y-117950894D01*
X195099233Y-117944085D01*
X194714558Y-117875901D01*
X194388493Y-117724353D01*
X194119213Y-117488256D01*
X193906245Y-117169049D01*
X193813340Y-116906060D01*
X193771104Y-116601022D01*
X189799631Y-116601022D01*
X189481727Y-116738547D01*
X189124699Y-116858434D01*
X156108375Y-116909438D01*
X155887974Y-117064345D01*
X155622120Y-117305774D01*
X155441022Y-117592804D01*
X155386360Y-117745004D01*
X155380348Y-117818226D01*
X155374699Y-117992979D01*
X155369417Y-118268788D01*
X155364503Y-118645178D01*
X155359957Y-119121672D01*
X155357322Y-119485403D01*
X156622873Y-119485403D01*
X156684526Y-119149472D01*
X156829112Y-118827282D01*
X157050136Y-118546375D01*
X157327571Y-118328154D01*
X157553213Y-118221086D01*
X157808730Y-118168739D01*
X158106860Y-118164527D01*
X158401662Y-118205952D01*
X158624297Y-118279313D01*
X158941047Y-118478063D01*
X159184954Y-118734808D01*
X159352732Y-119034312D01*
X159441092Y-119361340D01*
X159446745Y-119700659D01*
X159366404Y-120037033D01*
X159196780Y-120355226D01*
X159099017Y-120478767D01*
X158816719Y-120728966D01*
X158497818Y-120891236D01*
X158157584Y-120965479D01*
X157811292Y-120951597D01*
X157474214Y-120849493D01*
X157161622Y-120659069D01*
X156982832Y-120492291D01*
X156767233Y-120186957D01*
X156646609Y-119848458D01*
X156622873Y-119485403D01*
X155357322Y-119485403D01*
X155355783Y-119697794D01*
X155351982Y-120373069D01*
X155348556Y-121147021D01*
X155345507Y-122019175D01*
X155342836Y-122989054D01*
X155340545Y-124056183D01*
X155338636Y-125220086D01*
X155337111Y-126480288D01*
X155335972Y-127836312D01*
X155335220Y-129287683D01*
X155334857Y-130833925D01*
X155334822Y-131381827D01*
X155334597Y-142052808D01*
X156623906Y-142052808D01*
X156682646Y-141751539D01*
X156836112Y-141401562D01*
X157058825Y-141119819D01*
X157339258Y-140912245D01*
X157665885Y-140784773D01*
X158027178Y-140743340D01*
X158411610Y-140793879D01*
X158496787Y-140817516D01*
X158818058Y-140966651D01*
X159086611Y-141197238D01*
X159291160Y-141497510D01*
X159392856Y-141751539D01*
X159455965Y-142124234D01*
X159418874Y-142482147D01*
X159283081Y-142818482D01*
X159102860Y-143069181D01*
X158888192Y-143283850D01*
X158675608Y-143423629D01*
X158434925Y-143501643D01*
X158135960Y-143531015D01*
X158037751Y-143532310D01*
X157717071Y-143514200D01*
X157463120Y-143451121D01*
X157245713Y-143329949D01*
X157034670Y-143137560D01*
X156972642Y-143069181D01*
X156758400Y-142755181D01*
X156641656Y-142414124D01*
X156623906Y-142052808D01*
X155334597Y-142052808D01*
X155334538Y-144834136D01*
X170784498Y-144834136D01*
X170799377Y-142730221D01*
X170803148Y-142211913D01*
X170806821Y-141785382D01*
X170810985Y-141440399D01*
X170816225Y-141166735D01*
X170823128Y-140954161D01*
X170832280Y-140792448D01*
X170844269Y-140671367D01*
X170859681Y-140580689D01*
X170879102Y-140510186D01*
X170903119Y-140449628D01*
X170932319Y-140388786D01*
X170933826Y-140385752D01*
X171172968Y-140014071D01*
X171483517Y-139713460D01*
X171798183Y-139518842D01*
X172139189Y-139351205D01*
X172904835Y-139354919D01*
X173631665Y-139387043D01*
X174340956Y-139479538D01*
X175030029Y-139630566D01*
X181731364Y-139630566D01*
X181737407Y-139412444D01*
X181761975Y-139252714D01*
X181815364Y-139108089D01*
X181888788Y-138968783D01*
X182108460Y-138663497D01*
X182381121Y-138440474D01*
X182683144Y-138300228D01*
X182946446Y-138226995D01*
X183176572Y-138211455D01*
X183423694Y-138252494D01*
X183528251Y-138281428D01*
X183867803Y-138434116D01*
X184156974Y-138670735D01*
X184374828Y-138967514D01*
X184459905Y-139133422D01*
X184507586Y-139278466D01*
X184528180Y-139446119D01*
X184532089Y-139630566D01*
X184524972Y-139859424D01*
X184496984Y-140030722D01*
X184438841Y-140188244D01*
X184395148Y-140276308D01*
X184184387Y-140579431D01*
X183916746Y-140810894D01*
X183608319Y-140967383D01*
X183275204Y-141045584D01*
X182933498Y-141042182D01*
X182599298Y-140953862D01*
X182288700Y-140777311D01*
X182222138Y-140723742D01*
X181971072Y-140453762D01*
X181811384Y-140147054D01*
X181737837Y-139791953D01*
X181731364Y-139630566D01*
X175030029Y-139630566D01*
X175061347Y-139637430D01*
X175821482Y-139865746D01*
X175827659Y-139867822D01*
X176182810Y-140002480D01*
X176590211Y-140181735D01*
X177019496Y-140390356D01*
X177440295Y-140613112D01*
X177822240Y-140834771D01*
X178058434Y-140986700D01*
X178324060Y-141167270D01*
X178622493Y-141369755D01*
X178908415Y-141563418D01*
X179051405Y-141660095D01*
X179645820Y-142023118D01*
X180309781Y-142361017D01*
X181011412Y-142659573D01*
X181718836Y-142904561D01*
X182053894Y-142999686D01*
X182477983Y-143098107D01*
X182934498Y-143181973D01*
X183401903Y-143249043D01*
X183858662Y-143297077D01*
X184283239Y-143323836D01*
X184654096Y-143327078D01*
X184949698Y-143304565D01*
X184964224Y-143302400D01*
X185393639Y-143186180D01*
X185795465Y-142980379D01*
X186154167Y-142696710D01*
X186454211Y-142346884D01*
X186633491Y-142043903D01*
X186778514Y-141748394D01*
X186792878Y-138852073D01*
X186807241Y-135955753D01*
X178989263Y-135972741D01*
X177934430Y-135975107D01*
X176976426Y-135977447D01*
X176110070Y-135979826D01*
X175330184Y-135982308D01*
X174631587Y-135984960D01*
X174009100Y-135987844D01*
X173457544Y-135991028D01*
X172971739Y-135994574D01*
X172546505Y-135998550D01*
X172176662Y-136003019D01*
X171857032Y-136008046D01*
X171582434Y-136013696D01*
X171347690Y-136020035D01*
X171147619Y-136027127D01*
X170977041Y-136035037D01*
X170830778Y-136043830D01*
X170703649Y-136053572D01*
X170590475Y-136064326D01*
X170486077Y-136076159D01*
X170457229Y-136079735D01*
X169717014Y-136181570D01*
X168975002Y-136301673D01*
X168202741Y-136445097D01*
X167371779Y-136616899D01*
X167102509Y-136675673D01*
X166293988Y-136848096D01*
X165557146Y-136991472D01*
X164867037Y-137109456D01*
X164198717Y-137205702D01*
X163527238Y-137283868D01*
X162827658Y-137347608D01*
X162217406Y-137391553D01*
X161863944Y-137410584D01*
X161487564Y-137424286D01*
X161124110Y-137431767D01*
X160809428Y-137432137D01*
X160687286Y-137429561D01*
X160412431Y-137418949D01*
X160213499Y-137404256D01*
X160064403Y-137380755D01*
X159939061Y-137343722D01*
X159811387Y-137288428D01*
X159754709Y-137260583D01*
X159448687Y-137060331D01*
X159169418Y-136790122D01*
X158945265Y-136480579D01*
X158844665Y-136278042D01*
X158726305Y-135984940D01*
X158710764Y-130068474D01*
X158708434Y-128986022D01*
X158707390Y-128002284D01*
X158707628Y-127117609D01*
X158709147Y-126332347D01*
X158711944Y-125646847D01*
X158716019Y-125061459D01*
X158721367Y-124576533D01*
X158727988Y-124192417D01*
X158735879Y-123909462D01*
X158745039Y-123728018D01*
X158749081Y-123683737D01*
X158840242Y-123186359D01*
X158993390Y-122688387D01*
X159194660Y-122232212D01*
X159265760Y-122104035D01*
X159375171Y-121944410D01*
X159535438Y-121743422D01*
X159722996Y-121529473D01*
X159873895Y-121371045D01*
X160268332Y-121018726D01*
X160685091Y-120740437D01*
X161152492Y-120519248D01*
X161506024Y-120395207D01*
X161888554Y-120275703D01*
X182086144Y-120275703D01*
X182372788Y-120410107D01*
X182744032Y-120637366D01*
X183042421Y-120933704D01*
X183263051Y-121292120D01*
X183401020Y-121705613D01*
X183437428Y-121930396D01*
X183484734Y-122208459D01*
X183563811Y-122410431D01*
X183687140Y-122560386D01*
X183810301Y-122649634D01*
X183870620Y-122681866D01*
X183941364Y-122706317D01*
X184036689Y-122724050D01*
X184170752Y-122736126D01*
X184357710Y-122743611D01*
X184611717Y-122747567D01*
X184946933Y-122749056D01*
X185136167Y-122749207D01*
X185543048Y-122748124D01*
X185861483Y-122743096D01*
X186105024Y-122731674D01*
X186287224Y-122711410D01*
X186421632Y-122679858D01*
X186521802Y-122634570D01*
X186601285Y-122573097D01*
X186673631Y-122492993D01*
X186693658Y-122467906D01*
X186772803Y-122304252D01*
X186825250Y-122053673D01*
X186832123Y-121995100D01*
X186921769Y-121538512D01*
X187088926Y-121147845D01*
X187334706Y-120821430D01*
X187660219Y-120557598D01*
X187864524Y-120443025D01*
X188204327Y-120275703D01*
X192668328Y-120248787D01*
X193576588Y-120242711D01*
X194383620Y-120236040D01*
X195090201Y-120228759D01*
X195697109Y-120220856D01*
X196205122Y-120212315D01*
X196615018Y-120203124D01*
X196927574Y-120193269D01*
X197143568Y-120182735D01*
X197263779Y-120171508D01*
X197285811Y-120166613D01*
X197743278Y-119954018D01*
X198131420Y-119673670D01*
X198444383Y-119332279D01*
X198676313Y-118936554D01*
X198821355Y-118493206D01*
X198842204Y-118382794D01*
X198856728Y-118237945D01*
X198868635Y-118007969D01*
X198877928Y-117709715D01*
X198884604Y-117360029D01*
X198888665Y-116975761D01*
X198890111Y-116573757D01*
X198888941Y-116170866D01*
X198885155Y-115783935D01*
X198878754Y-115429812D01*
X198869738Y-115125346D01*
X198858105Y-114887383D01*
X198843858Y-114732772D01*
X198842204Y-114722026D01*
X198723487Y-114284446D01*
X198521994Y-113879391D01*
X198249854Y-113525829D01*
X197919194Y-113242730D01*
X197879769Y-113216704D01*
X197620272Y-113070253D01*
X197354035Y-112966730D01*
X197048848Y-112896141D01*
X196702184Y-112851322D01*
X196220181Y-112764215D01*
X195807712Y-112602972D01*
X195463192Y-112366582D01*
X195185037Y-112054036D01*
X195026388Y-111784174D01*
X194888152Y-111503012D01*
X194861377Y-108519277D01*
X194855689Y-107883215D01*
X194850474Y-107340453D01*
X194845051Y-106882290D01*
X194838734Y-106500027D01*
X194830843Y-106184962D01*
X194820694Y-105928393D01*
X194807603Y-105721621D01*
X194790889Y-105555944D01*
X194769868Y-105422662D01*
X194743858Y-105313073D01*
X194712174Y-105218477D01*
X194674136Y-105130173D01*
X194629058Y-105039459D01*
X194580981Y-104946776D01*
X194469702Y-104777571D01*
X194304952Y-104579952D01*
X194116036Y-104385116D01*
X193932262Y-104224262D01*
X193842570Y-104160689D01*
X193721463Y-104085872D01*
X193613172Y-104024303D01*
X193506455Y-103974539D01*
X193390071Y-103935132D01*
X193252780Y-103904638D01*
X193083340Y-103881611D01*
X192870511Y-103864606D01*
X192603051Y-103852178D01*
X192269719Y-103842880D01*
X191859275Y-103835268D01*
X191360476Y-103827896D01*
X191241365Y-103826214D01*
X190740329Y-103818929D01*
X190330325Y-103812147D01*
X190000384Y-103805168D01*
X189739538Y-103797292D01*
X189536817Y-103787820D01*
X189381252Y-103776053D01*
X189261874Y-103761291D01*
X189167715Y-103742835D01*
X189087806Y-103719984D01*
X189011178Y-103692040D01*
X188986905Y-103682445D01*
X188631839Y-103487922D01*
X188321235Y-103212145D01*
X188073479Y-102872480D01*
X188016921Y-102766357D01*
X187849598Y-102426511D01*
X187835711Y-97084919D01*
X187833388Y-96197557D01*
X187831487Y-95406061D01*
X187830299Y-94704287D01*
X187830118Y-94086094D01*
X187831235Y-93545339D01*
X187833942Y-93075878D01*
X187838532Y-92671571D01*
X187845296Y-92326273D01*
X187854526Y-92033843D01*
X187866515Y-91788138D01*
X187881555Y-91583015D01*
X187899937Y-91412333D01*
X187921955Y-91269947D01*
X187947899Y-91149716D01*
X187978062Y-91045498D01*
X188012736Y-90951149D01*
X188052214Y-90860527D01*
X188096787Y-90767489D01*
X188140316Y-90679029D01*
X188319830Y-90385800D01*
X188565725Y-90084146D01*
X188850171Y-89802647D01*
X189145333Y-89569880D01*
X189328715Y-89458790D01*
X189417946Y-89411525D01*
X189498406Y-89369082D01*
X189575764Y-89331215D01*
X189655690Y-89297676D01*
X189743856Y-89268219D01*
X189845931Y-89242596D01*
X189967586Y-89220561D01*
X190114491Y-89201866D01*
X190292317Y-89186264D01*
X190506733Y-89173507D01*
X190763410Y-89163350D01*
X191068019Y-89155545D01*
X191426229Y-89149844D01*
X191843711Y-89146001D01*
X192326136Y-89143768D01*
X192879173Y-89142898D01*
X193508494Y-89143145D01*
X194219768Y-89144261D01*
X195018665Y-89145999D01*
X195910857Y-89148112D01*
X196430219Y-89149314D01*
X202589759Y-89163253D01*
X203048795Y-89306592D01*
X203454035Y-89455593D01*
X203875310Y-89649586D01*
X204274917Y-89869389D01*
X204615151Y-90095821D01*
X204645369Y-90118794D01*
X204965381Y-90397449D01*
X205291271Y-90737025D01*
X205592575Y-91103126D01*
X205838825Y-91461359D01*
X205847880Y-91476338D01*
X206070804Y-91906534D01*
X206262911Y-92391597D01*
X206409302Y-92888801D01*
X206490782Y-93320080D01*
X206496597Y-93403566D01*
X206501985Y-93560592D01*
X206506953Y-93792704D01*
X206511502Y-94101449D01*
X206515637Y-94488372D01*
X206519362Y-94955019D01*
X206522681Y-95502935D01*
X206525598Y-96133668D01*
X206528115Y-96848761D01*
X206530239Y-97649762D01*
X206531971Y-98538215D01*
X206533316Y-99515667D01*
X206534278Y-100583664D01*
X206534861Y-101743751D01*
X206535068Y-102997474D01*
X206534904Y-104346379D01*
X206534372Y-105792012D01*
X206533476Y-107335918D01*
X206532220Y-108979644D01*
X206531593Y-109692369D01*
X206517068Y-125631124D01*
X206402071Y-125933073D01*
X206174758Y-126411799D01*
X205880383Y-126820865D01*
X205509179Y-127171696D01*
X205114458Y-127439426D01*
X204637200Y-127773280D01*
X204241363Y-128167889D01*
X203923763Y-128627018D01*
X203694462Y-129118801D01*
X203648632Y-129248444D01*
X203614485Y-129372413D01*
X203589788Y-129509977D01*
X203572308Y-129680401D01*
X203559815Y-129902950D01*
X203550074Y-130196893D01*
X203544725Y-130411178D01*
X203541771Y-130669063D01*
X205814372Y-130669063D01*
X205840503Y-130334287D01*
X205942511Y-130014988D01*
X206116646Y-129726502D01*
X206359156Y-129484161D01*
X206666289Y-129303300D01*
X206806430Y-129251595D01*
X207124584Y-129186802D01*
X207436409Y-129201903D01*
X207647952Y-129252173D01*
X207903509Y-129368779D01*
X208157070Y-129554089D01*
X208374857Y-129779880D01*
X208494994Y-129959926D01*
X208554953Y-130095797D01*
X208589623Y-130245462D01*
X208604818Y-130442349D01*
X208607009Y-130604016D01*
X208588923Y-130924575D01*
X208525892Y-131178434D01*
X208404758Y-131395820D01*
X208212362Y-131606964D01*
X208143024Y-131669878D01*
X207840208Y-131872846D01*
X207504886Y-131988297D01*
X207155250Y-132016775D01*
X206809489Y-131958820D01*
X206485794Y-131814973D01*
X206228760Y-131612910D01*
X206004749Y-131323709D01*
X205867870Y-131003981D01*
X205814372Y-130669063D01*
X203541771Y-130669063D01*
X203539442Y-130872261D01*
X203549474Y-131251907D01*
X203577967Y-131569955D01*
X203628070Y-131846249D01*
X203702928Y-132100628D01*
X203805688Y-132352935D01*
X203875909Y-132499347D01*
X204092213Y-132846666D01*
X204382699Y-133188646D01*
X204721756Y-133498805D01*
X205083772Y-133750658D01*
X205088956Y-133753687D01*
X205531238Y-134051821D01*
X205884326Y-134382935D01*
X206158970Y-134759586D01*
X206365918Y-135194331D01*
X206397875Y-135282807D01*
X206517068Y-135627912D01*
X206517068Y-140702811D01*
X206517204Y-141556064D01*
X206517342Y-142313791D01*
X206517077Y-142982474D01*
X206516006Y-143568593D01*
X206513725Y-144078630D01*
X206509829Y-144519067D01*
X206503915Y-144896384D01*
X206495577Y-145217062D01*
X206484412Y-145487584D01*
X206470016Y-145714431D01*
X206451985Y-145904083D01*
X206429914Y-146063022D01*
X206403399Y-146197730D01*
X206372037Y-146314687D01*
X206335422Y-146420375D01*
X206293151Y-146521276D01*
X206244820Y-146623870D01*
X206190024Y-146734638D01*
X206133817Y-146848795D01*
X205820595Y-147380349D01*
X205431336Y-147847701D01*
X204974262Y-148244151D01*
X204457591Y-148562999D01*
X203889544Y-148797546D01*
X203662476Y-148863036D01*
X203440152Y-148912896D01*
X203225477Y-148949339D01*
X203061094Y-148965266D01*
X203047012Y-148965462D01*
X202865317Y-148973434D01*
X202696053Y-148993048D01*
X202672640Y-148997339D01*
X202513253Y-149029217D01*
X202513253Y-151599698D01*
X205822138Y-151599698D01*
X205867509Y-151231900D01*
X205994841Y-150906257D01*
X206190962Y-150630424D01*
X206442703Y-150412055D01*
X206736891Y-150258806D01*
X207060357Y-150178331D01*
X207399928Y-150178285D01*
X207742435Y-150266322D01*
X207945568Y-150365603D01*
X208235862Y-150590036D01*
X208448644Y-150868796D01*
X208581485Y-151187159D01*
X208631959Y-151530401D01*
X208597636Y-151883798D01*
X208476089Y-152232627D01*
X208300355Y-152517205D01*
X208188486Y-152625849D01*
X208021525Y-152745766D01*
X207861240Y-152837430D01*
X207509712Y-152962549D01*
X207159966Y-152995258D01*
X206824965Y-152943428D01*
X206517674Y-152814927D01*
X206251057Y-152617625D01*
X206038078Y-152359391D01*
X205891702Y-152048094D01*
X205824893Y-151691604D01*
X205822138Y-151599698D01*
X202513253Y-151599698D01*
X202513253Y-154371887D01*
X209908835Y-154371887D01*
X209908835Y-55628112D01*
X201593787Y-55628112D01*
X201607235Y-57298494D01*
X201615265Y-58295991D01*
X205822138Y-58295991D01*
X205867826Y-57930486D01*
X205996232Y-57608154D01*
X206194372Y-57336863D01*
X206449262Y-57124479D01*
X206747916Y-56978869D01*
X207077351Y-56907900D01*
X207424581Y-56919439D01*
X207776622Y-57021353D01*
X207861240Y-57060562D01*
X208164812Y-57262980D01*
X208393280Y-57519224D01*
X208546767Y-57814220D01*
X208625391Y-58132894D01*
X208629274Y-58460173D01*
X208558537Y-58780982D01*
X208413299Y-59080250D01*
X208193681Y-59342901D01*
X207899804Y-59553863D01*
X207841062Y-59584191D01*
X207493687Y-59703083D01*
X207147747Y-59728849D01*
X206816147Y-59669721D01*
X206511791Y-59533933D01*
X206247582Y-59329719D01*
X206036427Y-59065313D01*
X205891228Y-58748949D01*
X205824891Y-58388860D01*
X205822138Y-58295991D01*
X201615265Y-58295991D01*
X201620683Y-58968875D01*
X202946787Y-58997409D01*
X203371235Y-59007597D01*
X203707201Y-59018481D01*
X203968214Y-59031089D01*
X204167798Y-59046445D01*
X204319482Y-59065576D01*
X204436790Y-59089508D01*
X204527911Y-59117336D01*
X205052719Y-59351925D01*
X205499378Y-59651798D01*
X205868698Y-60017651D01*
X206161486Y-60450180D01*
X206229991Y-60583597D01*
X206333060Y-60823097D01*
X206422430Y-61076344D01*
X206482264Y-61297320D01*
X206490490Y-61340562D01*
X206497362Y-61419080D01*
X206503635Y-61570379D01*
X206509317Y-61796351D01*
X206514413Y-62098890D01*
X206518931Y-62479890D01*
X206522877Y-62941243D01*
X206526258Y-63484843D01*
X206529081Y-64112583D01*
X206531352Y-64826356D01*
X206533078Y-65628056D01*
X206534265Y-66519576D01*
X206534921Y-67502809D01*
X206535051Y-68579649D01*
X206534663Y-69751988D01*
X206533763Y-71021721D01*
X206532358Y-72390740D01*
X206531587Y-73020482D01*
X206517068Y-84368875D01*
X206383052Y-84649398D01*
X206159709Y-85019514D01*
X205875435Y-85313444D01*
X205564620Y-85520044D01*
X205241968Y-85694980D01*
X196061245Y-85722820D01*
X194925871Y-85726277D01*
X193887893Y-85729502D01*
X192942699Y-85732560D01*
X192085675Y-85735513D01*
X191312211Y-85738427D01*
X190617694Y-85741366D01*
X189997512Y-85744395D01*
X189447053Y-85747577D01*
X188961704Y-85750977D01*
X188536854Y-85754660D01*
X188167891Y-85758690D01*
X187850202Y-85763131D01*
X187579176Y-85768047D01*
X187350200Y-85773503D01*
X187158661Y-85779564D01*
X186999949Y-85786293D01*
X186869451Y-85793755D01*
X186762555Y-85802015D01*
X186674648Y-85811136D01*
X186601119Y-85821183D01*
X186537356Y-85832220D01*
X186478746Y-85844313D01*
X186421486Y-85857336D01*
X185886646Y-85996507D01*
X185406547Y-86156680D01*
X184959249Y-86348908D01*
X184522817Y-86584244D01*
X184075314Y-86873741D01*
X183594801Y-87228449D01*
X183407508Y-87375835D01*
X182858783Y-87767222D01*
X182262889Y-88108995D01*
X181649688Y-88385669D01*
X181117068Y-88563652D01*
X180607028Y-88703614D01*
X154594980Y-88762072D01*
X154008434Y-88874056D01*
X153278747Y-89035112D01*
X152610134Y-89226715D01*
X152143468Y-89394089D01*
X152136998Y-89397051D01*
X183736970Y-89397051D01*
X183784938Y-89036077D01*
X183916568Y-88716475D01*
X184118885Y-88446956D01*
X184378914Y-88236231D01*
X184683677Y-88093010D01*
X185020201Y-88026006D01*
X185375508Y-88043929D01*
X185643414Y-88117183D01*
X185906125Y-88258709D01*
X185933481Y-88281823D01*
X205826214Y-88281823D01*
X205897010Y-87959320D01*
X205927571Y-87882859D01*
X206125154Y-87549335D01*
X206382152Y-87293414D01*
X206686894Y-87119536D01*
X207027714Y-87032142D01*
X207392943Y-87035671D01*
X207770912Y-87134563D01*
X207830262Y-87158874D01*
X208123765Y-87336456D01*
X208352895Y-87578573D01*
X208514760Y-87868361D01*
X208606467Y-88188956D01*
X208625125Y-88523497D01*
X208567842Y-88855118D01*
X208431726Y-89166956D01*
X208220683Y-89435525D01*
X207991752Y-89629792D01*
X207762404Y-89750500D01*
X207499077Y-89810845D01*
X207231124Y-89824540D01*
X206916320Y-89804555D01*
X206658371Y-89735264D01*
X206418430Y-89602660D01*
X206245962Y-89469374D01*
X206045698Y-89238245D01*
X205905614Y-88946480D01*
X205830767Y-88619274D01*
X205826214Y-88281823D01*
X185933481Y-88281823D01*
X186157145Y-88470803D01*
X186364234Y-88724112D01*
X186428250Y-88831727D01*
X186482006Y-88970158D01*
X186512115Y-89150331D01*
X186522850Y-89399844D01*
X186523053Y-89443775D01*
X186519172Y-89670895D01*
X186502242Y-89830615D01*
X186465166Y-89957370D01*
X186400843Y-90085596D01*
X186385182Y-90112583D01*
X186152045Y-90428266D01*
X185875432Y-90652405D01*
X185550344Y-90787924D01*
X185171785Y-90837752D01*
X185146385Y-90838087D01*
X184762957Y-90795384D01*
X184427929Y-90667381D01*
X184149617Y-90462581D01*
X183936337Y-90189487D01*
X183796405Y-89856600D01*
X183738138Y-89472424D01*
X183736970Y-89397051D01*
X152136998Y-89397051D01*
X151256880Y-89799961D01*
X150425802Y-90289085D01*
X149655046Y-90856464D01*
X148949422Y-91497100D01*
X148313740Y-92205997D01*
X147752812Y-92978155D01*
X147271448Y-93808578D01*
X146874458Y-94692268D01*
X146768760Y-94977711D01*
X146681921Y-95208835D01*
X146589465Y-95430076D01*
X146506983Y-95604873D01*
X146481306Y-95651841D01*
X146235531Y-95981512D01*
X145915047Y-96275149D01*
X145545551Y-96514711D01*
X145152743Y-96682157D01*
X144935508Y-96737080D01*
X144832163Y-96746582D01*
X144631158Y-96755247D01*
X144336840Y-96763027D01*
X143953555Y-96769872D01*
X143485647Y-96775734D01*
X142937464Y-96780564D01*
X142313350Y-96784313D01*
X141617652Y-96786933D01*
X140854715Y-96788374D01*
X140345147Y-96788654D01*
X139538236Y-96788837D01*
X138825864Y-96789509D01*
X138200561Y-96791037D01*
X137654859Y-96793786D01*
X137181287Y-96798122D01*
X136772376Y-96804411D01*
X136420657Y-96813018D01*
X136118661Y-96824309D01*
X135858919Y-96838650D01*
X135633960Y-96856406D01*
X135436317Y-96877944D01*
X135258519Y-96903629D01*
X135093096Y-96933827D01*
X134932581Y-96968903D01*
X134769503Y-97009223D01*
X134596394Y-97055153D01*
X134529078Y-97073432D01*
X133914722Y-97268373D01*
X133285635Y-97518375D01*
X132679738Y-97806789D01*
X132134953Y-98116970D01*
X132096849Y-98141136D01*
X131539841Y-98531044D01*
X130994308Y-98976537D01*
X130484906Y-99455162D01*
X130036290Y-99944465D01*
X129823066Y-100211763D01*
X129669923Y-100405811D01*
X129512921Y-100589057D01*
X129378710Y-100730864D01*
X129340944Y-100766013D01*
X129064262Y-100960181D01*
X128723708Y-101123806D01*
X128356412Y-101240638D01*
X128174899Y-101276342D01*
X128069945Y-101285064D01*
X127875490Y-101292790D01*
X127590403Y-101299525D01*
X127213550Y-101305275D01*
X126743801Y-101310047D01*
X126180025Y-101313846D01*
X125521088Y-101316679D01*
X124765859Y-101318552D01*
X123913207Y-101319471D01*
X122962000Y-101319442D01*
X121911105Y-101318471D01*
X120759392Y-101316564D01*
X120702811Y-101316451D01*
X113587751Y-101302209D01*
X113353949Y-101186999D01*
X113208225Y-101108113D01*
X113088886Y-101021241D01*
X112981288Y-100908920D01*
X112870787Y-100753686D01*
X112742739Y-100538076D01*
X112615962Y-100306921D01*
X112069295Y-99377520D01*
X111439326Y-98458298D01*
X110743858Y-97572991D01*
X110000692Y-96745339D01*
X109766701Y-96507457D01*
X108812631Y-95629390D01*
X107804011Y-94836994D01*
X106743798Y-94131687D01*
X105634947Y-93514888D01*
X104480414Y-92988014D01*
X103283157Y-92552484D01*
X102046131Y-92209714D01*
X100772292Y-91961123D01*
X100097189Y-91869645D01*
X99937075Y-91853185D01*
X99756984Y-91839028D01*
X99548672Y-91827014D01*
X99303897Y-91816985D01*
X99014417Y-91808781D01*
X98671987Y-91802244D01*
X98268366Y-91797215D01*
X97795311Y-91793535D01*
X97244579Y-91791046D01*
X96607927Y-91789587D01*
X95914859Y-91789011D01*
X95278981Y-91788084D01*
X94676442Y-91785774D01*
X94115591Y-91782192D01*
X93604779Y-91777449D01*
X93152355Y-91771656D01*
X92766669Y-91764923D01*
X92456071Y-91757361D01*
X92228909Y-91749081D01*
X92093535Y-91740193D01*
X92076643Y-91738130D01*
X91638140Y-91629749D01*
X91261759Y-91440920D01*
X90948847Y-91172594D01*
X90700750Y-90825722D01*
X90650569Y-90730014D01*
X90482932Y-90389494D01*
X90482932Y-76311313D01*
X90482820Y-74875528D01*
X90482553Y-73538108D01*
X90482228Y-72295412D01*
X90481947Y-71143799D01*
X90481808Y-70079626D01*
X90481912Y-69099253D01*
X90482357Y-68199036D01*
X90483244Y-67375335D01*
X90484672Y-66624508D01*
X90486741Y-65942912D01*
X90489550Y-65326907D01*
X90493198Y-64772850D01*
X90497787Y-64277099D01*
X90503414Y-63836013D01*
X90510181Y-63445951D01*
X90518185Y-63103269D01*
X90527528Y-62804327D01*
X90538308Y-62545483D01*
X90550626Y-62323095D01*
X90564580Y-62133522D01*
X90580271Y-61973120D01*
X90597798Y-61838250D01*
X90617261Y-61725268D01*
X90638759Y-61630534D01*
X90662392Y-61550405D01*
X90688260Y-61481240D01*
X90716461Y-61419397D01*
X90747097Y-61361233D01*
X90780266Y-61303109D01*
X90816068Y-61241381D01*
X90854603Y-61172408D01*
X90895970Y-61092548D01*
X90899423Y-61085542D01*
X91019569Y-60853726D01*
X91136746Y-60663807D01*
X91272854Y-60486180D01*
X91449792Y-60291241D01*
X91600674Y-60137622D01*
X91823274Y-59921626D01*
X92008834Y-59761015D01*
X92186925Y-59633918D01*
X92387122Y-59518467D01*
X92548594Y-59436617D01*
X92790484Y-59324076D01*
X93037587Y-59219218D01*
X93252066Y-59137701D01*
X93339156Y-59109437D01*
X93360266Y-59104192D01*
X93388396Y-59099154D01*
X93425580Y-59094317D01*
X93473853Y-59089676D01*
X93535249Y-59085226D01*
X93611800Y-59080963D01*
X93705542Y-59076881D01*
X93818507Y-59072977D01*
X93952731Y-59069245D01*
X94110246Y-59065680D01*
X94293087Y-59062277D01*
X94503288Y-59059033D01*
X94742882Y-59055941D01*
X95013904Y-59052998D01*
X95318387Y-59050197D01*
X95658365Y-59047535D01*
X96035872Y-59045007D01*
X96452942Y-59042608D01*
X96911609Y-59040333D01*
X97413907Y-59038177D01*
X97961870Y-59036135D01*
X98557531Y-59034203D01*
X99202925Y-59032376D01*
X99900085Y-59030649D01*
X100651046Y-59029017D01*
X101457841Y-59027475D01*
X102322503Y-59026019D01*
X103247068Y-59024644D01*
X104233569Y-59023345D01*
X105284040Y-59022117D01*
X106400514Y-59020955D01*
X107585026Y-59019854D01*
X108839609Y-59018811D01*
X110166298Y-59017819D01*
X111567126Y-59016874D01*
X113044127Y-59015972D01*
X114599336Y-59015107D01*
X116234785Y-59014274D01*
X117952509Y-59013470D01*
X119754543Y-59012688D01*
X121642918Y-59011925D01*
X123619671Y-59011175D01*
X125686834Y-59010434D01*
X127846441Y-59009696D01*
X130100527Y-59008958D01*
X132451125Y-59008213D01*
X134900269Y-59007458D01*
X136679819Y-59006919D01*
X179714458Y-58993959D01*
X179714458Y-55628112D01*
X87091165Y-55628112D01*
X87091165Y-58429365D01*
X88368094Y-58429365D01*
X88384705Y-58066868D01*
X88489508Y-57728057D01*
X88676642Y-57427652D01*
X88940242Y-57180370D01*
X89138760Y-57060562D01*
X89503160Y-56931312D01*
X89874426Y-56903752D01*
X90250583Y-56978018D01*
X90263883Y-56982487D01*
X90580067Y-57137867D01*
X90829652Y-57356085D01*
X91012229Y-57622359D01*
X91127389Y-57921910D01*
X91174722Y-58239957D01*
X91153819Y-58561719D01*
X91064271Y-58872415D01*
X90905669Y-59157266D01*
X90677603Y-59401490D01*
X90379665Y-59590307D01*
X90336624Y-59609649D01*
X89991125Y-59707466D01*
X89640860Y-59715306D01*
X89302615Y-59640347D01*
X88993173Y-59489768D01*
X88729317Y-59270748D01*
X88527832Y-58990464D01*
X88445539Y-58800831D01*
X88368094Y-58429365D01*
X87091165Y-58429365D01*
X87091165Y-94489507D01*
X88367385Y-94489507D01*
X88411086Y-94108852D01*
X88537394Y-93774366D01*
X88734377Y-93493907D01*
X88990102Y-93275333D01*
X89292637Y-93126503D01*
X89630047Y-93055275D01*
X89990401Y-93069507D01*
X90360899Y-93176695D01*
X90658785Y-93352632D01*
X90891751Y-93592635D01*
X91057395Y-93880167D01*
X91153314Y-94198688D01*
X91177107Y-94531660D01*
X91126371Y-94862545D01*
X90998704Y-95174804D01*
X90791703Y-95451898D01*
X90703394Y-95534673D01*
X90402316Y-95732978D01*
X90079659Y-95842952D01*
X89749248Y-95870780D01*
X89424909Y-95822649D01*
X89120467Y-95704743D01*
X88849747Y-95523249D01*
X88626575Y-95284352D01*
X88464775Y-94994238D01*
X88378173Y-94659092D01*
X88367385Y-94489507D01*
X87091165Y-94489507D01*
X87091165Y-123545328D01*
X88373565Y-123545328D01*
X88398059Y-123265488D01*
X88460109Y-123026385D01*
X88487035Y-122966446D01*
X88703626Y-122653763D01*
X88990845Y-122401100D01*
X89327851Y-122225206D01*
X89462851Y-122182444D01*
X89653933Y-122159916D01*
X89894067Y-122168822D01*
X90136747Y-122204907D01*
X90330603Y-122261858D01*
X90552834Y-122394079D01*
X90773635Y-122591854D01*
X90961662Y-122823209D01*
X91069372Y-123015477D01*
X91168837Y-123368830D01*
X91177061Y-123735961D01*
X91094580Y-124090507D01*
X91045160Y-124205157D01*
X90884208Y-124465510D01*
X90672596Y-124674012D01*
X90386864Y-124854868D01*
X90158746Y-124933867D01*
X89877507Y-124970720D01*
X89582315Y-124965369D01*
X89312337Y-124917755D01*
X89154535Y-124856729D01*
X88916938Y-124689983D01*
X88693177Y-124462055D01*
X88515211Y-124208779D01*
X88443851Y-124059927D01*
X88388279Y-123824082D01*
X88373565Y-123545328D01*
X87091165Y-123545328D01*
X87091165Y-151529845D01*
X88371163Y-151529845D01*
X88443600Y-151206075D01*
X88592549Y-150904527D01*
X88818520Y-150640703D01*
X89057178Y-150466001D01*
X89396948Y-150321097D01*
X89754880Y-150275210D01*
X90134556Y-150328092D01*
X90301426Y-150379717D01*
X90602682Y-150538055D01*
X90848057Y-150768342D01*
X91030850Y-151053159D01*
X91144361Y-151375086D01*
X91181893Y-151716705D01*
X91136744Y-152060596D01*
X91044055Y-152310629D01*
X90839772Y-152620924D01*
X90574852Y-152857858D01*
X90264339Y-153016467D01*
X89923278Y-153091786D01*
X89566715Y-153078849D01*
X89209692Y-152972691D01*
X89138760Y-152939438D01*
X88836307Y-152737096D01*
X88607810Y-152479463D01*
X88453780Y-152182042D01*
X88374727Y-151860335D01*
X88371163Y-151529845D01*
X87091165Y-151529845D01*
X87091165Y-154371887D01*
X94486747Y-154371887D01*
X94486747Y-149029217D01*
G37*
G36*
X195780723Y-55628112D02*
G01*
X190756827Y-55628112D01*
X189922176Y-55628247D01*
X189183791Y-55628708D01*
X188535932Y-55629584D01*
X187972859Y-55630962D01*
X187488829Y-55632929D01*
X187078102Y-55635573D01*
X186734937Y-55638981D01*
X186453593Y-55643240D01*
X186228330Y-55648439D01*
X186053405Y-55654664D01*
X185923079Y-55662002D01*
X185831610Y-55670543D01*
X185773258Y-55680371D01*
X185742280Y-55691576D01*
X185732938Y-55704245D01*
X185732932Y-55704618D01*
X185692105Y-55772238D01*
X185656426Y-55781124D01*
X185634886Y-55791970D01*
X185617725Y-55831196D01*
X185604466Y-55908838D01*
X185594631Y-56034931D01*
X185587742Y-56219509D01*
X185583321Y-56472606D01*
X185580890Y-56804259D01*
X185579972Y-57224501D01*
X185579920Y-57387751D01*
X185579920Y-58994377D01*
X195780723Y-58994377D01*
X195780723Y-55628112D01*
G37*
G36*
X150991072Y-154371870D02*
G01*
X153484023Y-154371814D01*
X155878723Y-154371718D01*
X158177052Y-154371579D01*
X160380887Y-154371392D01*
X162492107Y-154371157D01*
X164512592Y-154370868D01*
X166444220Y-154370524D01*
X168288869Y-154370122D01*
X170048418Y-154369657D01*
X171724747Y-154369129D01*
X173319733Y-154368532D01*
X174835256Y-154367866D01*
X176273194Y-154367125D01*
X177635425Y-154366308D01*
X178923829Y-154365412D01*
X180140284Y-154364433D01*
X181286669Y-154363368D01*
X182364863Y-154362215D01*
X183376744Y-154360971D01*
X184324191Y-154359632D01*
X185209083Y-154358195D01*
X186033298Y-154356658D01*
X186798715Y-154355018D01*
X187507213Y-154353271D01*
X188160670Y-154351414D01*
X188760966Y-154349445D01*
X189309979Y-154347361D01*
X189809587Y-154345158D01*
X190261669Y-154342834D01*
X190668105Y-154340385D01*
X191030772Y-154337809D01*
X191351550Y-154335102D01*
X191632317Y-154332262D01*
X191874952Y-154329286D01*
X192081333Y-154326170D01*
X192253339Y-154322911D01*
X192392849Y-154319508D01*
X192501742Y-154315956D01*
X192581897Y-154312252D01*
X192635191Y-154308394D01*
X192663504Y-154304379D01*
X192669478Y-154301330D01*
X192712210Y-154232822D01*
X192771486Y-154204097D01*
X192794369Y-154195856D01*
X192813547Y-154178551D01*
X192829346Y-154143819D01*
X192842093Y-154083295D01*
X192852117Y-153988615D01*
X192859743Y-153851415D01*
X192865300Y-153663331D01*
X192869114Y-153415999D01*
X192871514Y-153101055D01*
X192872825Y-152710134D01*
X192873376Y-152234874D01*
X192873493Y-151666909D01*
X192873494Y-151596944D01*
X192873494Y-149016466D01*
X104126506Y-149016466D01*
X104126506Y-151694177D01*
X130038786Y-151694177D01*
X130083436Y-151308062D01*
X130214169Y-150969060D01*
X130426165Y-150685485D01*
X130714600Y-150465652D01*
X130768135Y-150436633D01*
X131125494Y-150304148D01*
X131487292Y-150273295D01*
X131855377Y-150344059D01*
X132062642Y-150426982D01*
X132368359Y-150624864D01*
X132603655Y-150890767D01*
X132761259Y-151212603D01*
X132833901Y-151578281D01*
X132837823Y-151713803D01*
X164164426Y-151713803D01*
X164175245Y-151456388D01*
X164211563Y-151249180D01*
X164318213Y-151010252D01*
X164494177Y-150770086D01*
X164712786Y-150561973D01*
X164825338Y-150483050D01*
X165167413Y-150327815D01*
X165526648Y-150272326D01*
X165897253Y-150316937D01*
X166147389Y-150402296D01*
X166449230Y-150582753D01*
X166684759Y-150826291D01*
X166851562Y-151116476D01*
X166947227Y-151436873D01*
X166969341Y-151771047D01*
X166915488Y-152102564D01*
X166783258Y-152414990D01*
X166570235Y-152691890D01*
X166493969Y-152762372D01*
X166191210Y-152959828D01*
X165861310Y-153069070D01*
X165520256Y-153094323D01*
X165184035Y-153039816D01*
X164868632Y-152909775D01*
X164590035Y-152708429D01*
X164364229Y-152440005D01*
X164225868Y-152162600D01*
X164181540Y-151964507D01*
X164164426Y-151713803D01*
X132837823Y-151713803D01*
X132837887Y-151716013D01*
X132787816Y-152094940D01*
X132649690Y-152422686D01*
X132425104Y-152696737D01*
X132115655Y-152914580D01*
X132058535Y-152943972D01*
X131866676Y-153032338D01*
X131717013Y-153079158D01*
X131563565Y-153094168D01*
X131377672Y-153088146D01*
X130987953Y-153021046D01*
X130655226Y-152873772D01*
X130386767Y-152653900D01*
X130189853Y-152369003D01*
X130071760Y-152026658D01*
X130038786Y-151694177D01*
X104126506Y-151694177D01*
X104126506Y-154371887D01*
X148397992Y-154371887D01*
X150991072Y-154371870D01*
G37*
D12*
X148620000Y-62150000D03*
X154400000Y-62150000D03*
D13*
X147190000Y-58500000D03*
X155830000Y-58500000D03*
X147190000Y-62680000D03*
X155830000Y-62680000D03*
D14*
X140510000Y-59000000D03*
D15*
X144260000Y-64000000D03*
X140560000Y-64000000D03*
X136760000Y-64000000D03*
D16*
X131631100Y-62213600D03*
X129091100Y-62213600D03*
X126551100Y-62213600D03*
X124011100Y-62213600D03*
X121471100Y-62213600D03*
X118931100Y-62213600D03*
X116391100Y-62213600D03*
X113851100Y-62213600D03*
X111311100Y-62213600D03*
X108771100Y-62213600D03*
G36*
G01*
X114764500Y-88003600D02*
X114764500Y-88003600D01*
G75*
G02*
X115501100Y-87267000I736600J0D01*
G01*
X115501100Y-87267000D01*
G75*
G02*
X116237700Y-88003600I0J-736600D01*
G01*
X116237700Y-88003600D01*
G75*
G02*
X115501100Y-88740200I-736600J0D01*
G01*
X115501100Y-88740200D01*
G75*
G02*
X114764500Y-88003600I0J736600D01*
G01*
G37*
G36*
G01*
X114764500Y-90003600D02*
X114764500Y-90003600D01*
G75*
G02*
X115501100Y-89267000I736600J0D01*
G01*
X115501100Y-89267000D01*
G75*
G02*
X116237700Y-90003600I0J-736600D01*
G01*
X116237700Y-90003600D01*
G75*
G02*
X115501100Y-90740200I-736600J0D01*
G01*
X115501100Y-90740200D01*
G75*
G02*
X114764500Y-90003600I0J736600D01*
G01*
G37*
G36*
G01*
X114764500Y-92003600D02*
X114764500Y-92003600D01*
G75*
G02*
X115501100Y-91267000I736600J0D01*
G01*
X115501100Y-91267000D01*
G75*
G02*
X116237700Y-92003600I0J-736600D01*
G01*
X116237700Y-92003600D01*
G75*
G02*
X115501100Y-92740200I-736600J0D01*
G01*
X115501100Y-92740200D01*
G75*
G02*
X114764500Y-92003600I0J736600D01*
G01*
G37*
G36*
G01*
X114764500Y-86003600D02*
X114764500Y-86003600D01*
G75*
G02*
X115501100Y-85267000I736600J0D01*
G01*
X115501100Y-85267000D01*
G75*
G02*
X116237700Y-86003600I0J-736600D01*
G01*
X116237700Y-86003600D01*
G75*
G02*
X115501100Y-86740200I-736600J0D01*
G01*
X115501100Y-86740200D01*
G75*
G02*
X114764500Y-86003600I0J736600D01*
G01*
G37*
G36*
G01*
X106764500Y-117003600D02*
X106764500Y-117003600D01*
G75*
G02*
X107501100Y-116267000I736600J0D01*
G01*
X107501100Y-116267000D01*
G75*
G02*
X108237700Y-117003600I0J-736600D01*
G01*
X108237700Y-117003600D01*
G75*
G02*
X107501100Y-117740200I-736600J0D01*
G01*
X107501100Y-117740200D01*
G75*
G02*
X106764500Y-117003600I0J736600D01*
G01*
G37*
G36*
G01*
X108764500Y-117003600D02*
X108764500Y-117003600D01*
G75*
G02*
X109501100Y-116267000I736600J0D01*
G01*
X109501100Y-116267000D01*
G75*
G02*
X110237700Y-117003600I0J-736600D01*
G01*
X110237700Y-117003600D01*
G75*
G02*
X109501100Y-117740200I-736600J0D01*
G01*
X109501100Y-117740200D01*
G75*
G02*
X108764500Y-117003600I0J736600D01*
G01*
G37*
G36*
G01*
X192764500Y-96003600D02*
X192764500Y-96003600D01*
G75*
G02*
X193501100Y-95267000I736600J0D01*
G01*
X193501100Y-95267000D01*
G75*
G02*
X194237700Y-96003600I0J-736600D01*
G01*
X194237700Y-96003600D01*
G75*
G02*
X193501100Y-96740200I-736600J0D01*
G01*
X193501100Y-96740200D01*
G75*
G02*
X192764500Y-96003600I0J736600D01*
G01*
G37*
G36*
G01*
X193764500Y-99003600D02*
X193764500Y-99003600D01*
G75*
G02*
X194501100Y-98267000I736600J0D01*
G01*
X194501100Y-98267000D01*
G75*
G02*
X195237700Y-99003600I0J-736600D01*
G01*
X195237700Y-99003600D01*
G75*
G02*
X194501100Y-99740200I-736600J0D01*
G01*
X194501100Y-99740200D01*
G75*
G02*
X193764500Y-99003600I0J736600D01*
G01*
G37*
G36*
G01*
X122764500Y-110003600D02*
X122764500Y-110003600D01*
G75*
G02*
X123501100Y-109267000I736600J0D01*
G01*
X123501100Y-109267000D01*
G75*
G02*
X124237700Y-110003600I0J-736600D01*
G01*
X124237700Y-110003600D01*
G75*
G02*
X123501100Y-110740200I-736600J0D01*
G01*
X123501100Y-110740200D01*
G75*
G02*
X122764500Y-110003600I0J736600D01*
G01*
G37*
G36*
G01*
X118764500Y-110003600D02*
X118764500Y-110003600D01*
G75*
G02*
X119501100Y-109267000I736600J0D01*
G01*
X119501100Y-109267000D01*
G75*
G02*
X120237700Y-110003600I0J-736600D01*
G01*
X120237700Y-110003600D01*
G75*
G02*
X119501100Y-110740200I-736600J0D01*
G01*
X119501100Y-110740200D01*
G75*
G02*
X118764500Y-110003600I0J736600D01*
G01*
G37*
G36*
G01*
X173064500Y-93703600D02*
X173064500Y-93703600D01*
G75*
G02*
X173801100Y-92967000I736600J0D01*
G01*
X173801100Y-92967000D01*
G75*
G02*
X174537700Y-93703600I0J-736600D01*
G01*
X174537700Y-93703600D01*
G75*
G02*
X173801100Y-94440200I-736600J0D01*
G01*
X173801100Y-94440200D01*
G75*
G02*
X173064500Y-93703600I0J736600D01*
G01*
G37*
G36*
G01*
X176764500Y-100003600D02*
X176764500Y-100003600D01*
G75*
G02*
X177501100Y-99267000I736600J0D01*
G01*
X177501100Y-99267000D01*
G75*
G02*
X178237700Y-100003600I0J-736600D01*
G01*
X178237700Y-100003600D01*
G75*
G02*
X177501100Y-100740200I-736600J0D01*
G01*
X177501100Y-100740200D01*
G75*
G02*
X176764500Y-100003600I0J736600D01*
G01*
G37*
G36*
G01*
X93237700Y-99503600D02*
X93237700Y-99503600D01*
G75*
G02*
X92501100Y-100240200I-736600J0D01*
G01*
X92501100Y-100240200D01*
G75*
G02*
X91764500Y-99503600I0J736600D01*
G01*
X91764500Y-99503600D01*
G75*
G02*
X92501100Y-98767000I736600J0D01*
G01*
X92501100Y-98767000D01*
G75*
G02*
X93237700Y-99503600I0J-736600D01*
G01*
G37*
G36*
G01*
X200237700Y-93303600D02*
X200237700Y-93303600D01*
G75*
G02*
X199501100Y-94040200I-736600J0D01*
G01*
X199501100Y-94040200D01*
G75*
G02*
X198764500Y-93303600I0J736600D01*
G01*
X198764500Y-93303600D01*
G75*
G02*
X199501100Y-92567000I736600J0D01*
G01*
X199501100Y-92567000D01*
G75*
G02*
X200237700Y-93303600I0J-736600D01*
G01*
G37*
G36*
G01*
X122237700Y-110003600D02*
X122237700Y-110003600D01*
G75*
G02*
X121501100Y-110740200I-736600J0D01*
G01*
X121501100Y-110740200D01*
G75*
G02*
X120764500Y-110003600I0J736600D01*
G01*
X120764500Y-110003600D01*
G75*
G02*
X121501100Y-109267000I736600J0D01*
G01*
X121501100Y-109267000D01*
G75*
G02*
X122237700Y-110003600I0J-736600D01*
G01*
G37*
G36*
G01*
X164237700Y-100003600D02*
X164237700Y-100003600D01*
G75*
G02*
X163501100Y-100740200I-736600J0D01*
G01*
X163501100Y-100740200D01*
G75*
G02*
X162764500Y-100003600I0J736600D01*
G01*
X162764500Y-100003600D01*
G75*
G02*
X163501100Y-99267000I736600J0D01*
G01*
X163501100Y-99267000D01*
G75*
G02*
X164237700Y-100003600I0J-736600D01*
G01*
G37*
G36*
G01*
X161237700Y-97003600D02*
X161237700Y-97003600D01*
G75*
G02*
X160501100Y-97740200I-736600J0D01*
G01*
X160501100Y-97740200D01*
G75*
G02*
X159764500Y-97003600I0J736600D01*
G01*
X159764500Y-97003600D01*
G75*
G02*
X160501100Y-96267000I736600J0D01*
G01*
X160501100Y-96267000D01*
G75*
G02*
X161237700Y-97003600I0J-736600D01*
G01*
G37*
G36*
G01*
X172237700Y-134303600D02*
X172237700Y-134303600D01*
G75*
G02*
X171501100Y-135040200I-736600J0D01*
G01*
X171501100Y-135040200D01*
G75*
G02*
X170764500Y-134303600I0J736600D01*
G01*
X170764500Y-134303600D01*
G75*
G02*
X171501100Y-133567000I736600J0D01*
G01*
X171501100Y-133567000D01*
G75*
G02*
X172237700Y-134303600I0J-736600D01*
G01*
G37*
G36*
G01*
X166664500Y-123003600D02*
X166664500Y-123003600D01*
G75*
G02*
X167401100Y-122267000I736600J0D01*
G01*
X167401100Y-122267000D01*
G75*
G02*
X168137700Y-123003600I0J-736600D01*
G01*
X168137700Y-123003600D01*
G75*
G02*
X167401100Y-123740200I-736600J0D01*
G01*
X167401100Y-123740200D01*
G75*
G02*
X166664500Y-123003600I0J736600D01*
G01*
G37*
G36*
G01*
X177673000Y-56118300D02*
X180340000Y-56118300D01*
G75*
G02*
X180441600Y-56219900I0J-101600D01*
G01*
X180441600Y-60410900D01*
G75*
G02*
X180340000Y-60512500I-101600J0D01*
G01*
X177673000Y-60512500D01*
G75*
G02*
X177571400Y-60410900I0J101600D01*
G01*
X177571400Y-56219900D01*
G75*
G02*
X177673000Y-56118300I101600J0D01*
G01*
G37*
G36*
G01*
X184662200Y-56118300D02*
X187329200Y-56118300D01*
G75*
G02*
X187430800Y-56219900I0J-101600D01*
G01*
X187430800Y-60410900D01*
G75*
G02*
X187329200Y-60512500I-101600J0D01*
G01*
X184662200Y-60512500D01*
G75*
G02*
X184560600Y-60410900I0J101600D01*
G01*
X184560600Y-56219900D01*
G75*
G02*
X184662200Y-56118300I101600J0D01*
G01*
G37*
G36*
G01*
X193673000Y-56118300D02*
X196340000Y-56118300D01*
G75*
G02*
X196441600Y-56219900I0J-101600D01*
G01*
X196441600Y-60410900D01*
G75*
G02*
X196340000Y-60512500I-101600J0D01*
G01*
X193673000Y-60512500D01*
G75*
G02*
X193571400Y-60410900I0J101600D01*
G01*
X193571400Y-56219900D01*
G75*
G02*
X193673000Y-56118300I101600J0D01*
G01*
G37*
G36*
G01*
X200662200Y-56118300D02*
X203329200Y-56118300D01*
G75*
G02*
X203430800Y-56219900I0J-101600D01*
G01*
X203430800Y-60410900D01*
G75*
G02*
X203329200Y-60512500I-101600J0D01*
G01*
X200662200Y-60512500D01*
G75*
G02*
X200560600Y-60410900I0J101600D01*
G01*
X200560600Y-56219900D01*
G75*
G02*
X200662200Y-56118300I101600J0D01*
G01*
G37*
G36*
G01*
X105063701Y-153979800D02*
X102777699Y-153979800D01*
G75*
G02*
X102676100Y-153878201I0J101599D01*
G01*
X102676100Y-148798199D01*
G75*
G02*
X102777699Y-148696600I101599J0D01*
G01*
X105063701Y-148696600D01*
G75*
G02*
X105165300Y-148798199I0J-101599D01*
G01*
X105165300Y-153878201D01*
G75*
G02*
X105063701Y-153979800I-101599J0D01*
G01*
G37*
G36*
G01*
X96224501Y-153979800D02*
X93938499Y-153979800D01*
G75*
G02*
X93836900Y-153878201I0J101599D01*
G01*
X93836900Y-148798199D01*
G75*
G02*
X93938499Y-148696600I101599J0D01*
G01*
X96224501Y-148696600D01*
G75*
G02*
X96326100Y-148798199I0J-101599D01*
G01*
X96326100Y-153878201D01*
G75*
G02*
X96224501Y-153979800I-101599J0D01*
G01*
G37*
G36*
G01*
X203063701Y-153979800D02*
X200777699Y-153979800D01*
G75*
G02*
X200676100Y-153878201I0J101599D01*
G01*
X200676100Y-148798199D01*
G75*
G02*
X200777699Y-148696600I101599J0D01*
G01*
X203063701Y-148696600D01*
G75*
G02*
X203165300Y-148798199I0J-101599D01*
G01*
X203165300Y-153878201D01*
G75*
G02*
X203063701Y-153979800I-101599J0D01*
G01*
G37*
G36*
G01*
X194224501Y-153979800D02*
X191938499Y-153979800D01*
G75*
G02*
X191836900Y-153878201I0J101599D01*
G01*
X191836900Y-148798199D01*
G75*
G02*
X191938499Y-148696600I101599J0D01*
G01*
X194224501Y-148696600D01*
G75*
G02*
X194326100Y-148798199I0J-101599D01*
G01*
X194326100Y-153878201D01*
G75*
G02*
X194224501Y-153979800I-101599J0D01*
G01*
G37*
D17*
X92931100Y-64173600D03*
X95471100Y-64173600D03*
X92931100Y-66713600D03*
X95471100Y-66713600D03*
X92931100Y-69253600D03*
X95471100Y-69253600D03*
X92931100Y-71793600D03*
X95471100Y-71793600D03*
X92931100Y-74333600D03*
X95471100Y-74333600D03*
X92931100Y-76873600D03*
X95471100Y-76873600D03*
X92931100Y-79413600D03*
X95471100Y-79413600D03*
X92931100Y-81953600D03*
X95471100Y-81953600D03*
X92931100Y-84493600D03*
X95471100Y-84493600D03*
X92931100Y-87033600D03*
X95471100Y-87033600D03*
M02*
