M48
; DRILL file {KiCad (5.1.7)-1} date 10/25/20 18:46:15
; FORMAT={-:-/ absolute / inch / decimal}
; #@! TF.CreationDate,2020-10-25T18:46:15+01:00
; #@! TF.GenerationSoftware,Kicad,Pcbnew,(5.1.7)-1
FMAT,2
INCH
T1C0.0098
T2C0.0118
T3C0.0256
T4C0.0315
T5C0.0400
T6C0.0276
T7C0.0472
%
G90
G05
T1
X3.4843Y-2.4411
X3.4843Y-2.5198
X3.4843Y-2.5986
X3.4843Y-2.6773
X3.4843Y-2.756
X3.4843Y-2.8348
X3.4843Y-2.9135
X3.4843Y-2.9923
X3.4843Y-3.071
X3.4843Y-3.1497
X3.4843Y-3.2285
X3.4843Y-3.3072
X3.4843Y-3.386
X3.4843Y-3.4647
X3.4843Y-3.5434
X3.4843Y-3.6222
X3.4843Y-3.819
X3.4843Y-3.8978
X3.4843Y-3.9765
X3.4843Y-4.0553
X3.4843Y-4.134
X3.4843Y-4.2127
X3.4843Y-4.2915
X3.4843Y-4.3702
X3.4843Y-4.449
X3.4843Y-4.5277
X3.4843Y-4.6064
X3.4843Y-4.6852
X3.4843Y-4.7639
X3.4843Y-4.9608
X3.4843Y-5.0395
X3.4843Y-5.1183
X3.4843Y-5.197
X3.4843Y-5.2757
X3.4843Y-5.3545
X3.4843Y-5.4332
X3.4843Y-5.512
X3.4843Y-5.5907
X3.4843Y-5.6694
X3.4843Y-5.7482
X3.4843Y-5.8269
X3.4843Y-5.9057
X3.5237Y-2.4017
X3.5237Y-2.4805
X3.5237Y-2.5592
X3.5237Y-2.6379
X3.5237Y-2.7167
X3.5237Y-2.7954
X3.5237Y-2.8742
X3.5237Y-2.9529
X3.5237Y-3.0316
X3.5237Y-3.1104
X3.5237Y-3.1891
X3.5237Y-3.2679
X3.5237Y-3.3466
X3.5237Y-3.4253
X3.5237Y-3.5041
X3.5237Y-3.5828
X3.5237Y-3.8584
X3.5237Y-3.9371
X3.5237Y-4.0159
X3.5237Y-4.0946
X3.5237Y-4.1734
X3.5237Y-4.2521
X3.5237Y-4.3309
X3.5237Y-4.4096
X3.5237Y-4.4883
X3.5237Y-4.5671
X3.5237Y-4.6458
X3.5237Y-4.7246
X3.5237Y-5.0001
X3.5237Y-5.0789
X3.5237Y-5.1576
X3.5237Y-5.2364
X3.5237Y-5.3151
X3.5237Y-5.3938
X3.5237Y-5.4726
X3.5237Y-5.5513
X3.5237Y-5.6301
X3.5237Y-5.7088
X3.5237Y-5.7875
X3.5237Y-5.8663
X3.563Y-3.6222
X3.563Y-3.819
X3.563Y-4.7639
X3.563Y-4.9608
X3.563Y-5.8269
X3.5867Y-5.1143
X3.5867Y-5.1931
X3.5867Y-5.2639
X3.5867Y-5.3427
X3.6024Y-4.7639
X3.6024Y-4.9608
X3.6024Y-5.8663
X3.6024Y-6.0238
X3.6221Y-3.6419
X3.6418Y-2.2836
X3.6418Y-3.7009
X3.6418Y-3.8584
X3.6418Y-4.8033
X3.6418Y-4.8427
X3.6418Y-4.882
X3.6418Y-4.9214
X3.6418Y-5.8663
X3.6418Y-5.945
X3.6418Y-6.0238
X3.6457Y-5.445
X3.6575Y-4.134
X3.6811Y-2.2442
X3.6811Y-3.6616
X3.6811Y-5.9057
X3.6811Y-5.9844
X3.7048Y-5.0001
X3.7048Y-5.0474
X3.7048Y-5.0946
X3.7048Y-5.197
X3.7048Y-5.2482
X3.7048Y-5.3427
X3.7087Y-3.5198
X3.7205Y-2.2836
X3.7205Y-3.7009
X3.7205Y-4.134
X3.7441Y-3.8978
X3.752Y-4.3899
X3.752Y-4.4844
X3.7559Y-3.7954
X3.7599Y-2.2442
X3.7599Y-3.6616
X3.7599Y-4.0946
X3.7599Y-4.5868
X3.7599Y-5.5986
X3.7756Y-3.8978
X3.7796Y-4.0671
X3.7993Y-2.2836
X3.7993Y-3.7009
X3.7993Y-4.5868
X3.7993Y-4.9411
X3.8111Y-5.634
X3.8189Y-5.4332
X3.8268Y-5.0001
X3.8268Y-5.0474
X3.8386Y-2.2442
X3.8386Y-3.6616
X3.8386Y-3.8309
X3.8386Y-4.4253
X3.8386Y-4.6064
X3.8386Y-4.6458
X3.8386Y-4.6852
X3.8386Y-4.7246
X3.8386Y-4.7639
X3.8386Y-4.8033
X3.8386Y-4.8427
X3.8386Y-4.882
X3.8386Y-4.9214
X3.8386Y-4.9608
X3.8386Y-5.3938
X3.8386Y-5.4726
X3.8386Y-5.512
X3.8386Y-5.5474
X3.8386Y-5.6694
X3.8386Y-5.7088
X3.8386Y-5.7482
X3.8386Y-5.7875
X3.8386Y-5.8269
X3.8386Y-5.8663
X3.8386Y-5.9057
X3.8386Y-5.945
X3.8386Y-5.9844
X3.8386Y-6.0238
X3.8622Y-2.6576
X3.8662Y-5.2495
X3.878Y-2.2836
X3.878Y-3.7009
X3.878Y-5.3938
X3.8839Y-4.1281
X3.9016Y-4.4883
X3.9016Y-4.5277
X3.9016Y-5.1379
X3.9016Y-5.1734
X3.9016Y-5.2088
X3.9056Y-4.2403
X3.9056Y-4.2757
X3.9174Y-2.2442
X3.9174Y-3.6616
X3.9174Y-5.3742
X3.9213Y-2.7875
X3.9213Y-3.8427
X3.9213Y-4.6005
X3.9252Y-5.2816
X3.9371Y-4.508
X3.9371Y-5.1379
X3.9371Y-5.1734
X3.9371Y-5.2088
X3.9372Y-4.2719
X3.9528Y-3.8427
X3.9567Y-2.2836
X3.9567Y-3.7009
X3.9567Y-5.3742
X3.9725Y-4.4883
X3.9725Y-4.5277
X3.9725Y-5.1379
X3.9725Y-5.1734
X3.9725Y-5.2088
X3.9764Y-4.2324
X3.9804Y-2.6576
X3.9843Y-3.8427
X3.9922Y-3.9175
X3.9961Y-2.2442
X3.9961Y-3.6616
X3.9961Y-3.7009
X3.9961Y-5.3742
X3.9961Y-5.5513
X3.9961Y-5.5907
X3.9961Y-5.7482
X3.9961Y-5.7875
X3.9961Y-5.8269
X3.9961Y-5.8663
X3.9961Y-5.9057
X3.9961Y-5.945
X3.9961Y-5.9844
X3.9961Y-6.0238
X4.004Y-3.949
X4.004Y-3.9805
X4.004Y-4.1222
X4.0158Y-5.512
X4.0158Y-5.6301
X4.0197Y-3.8466
X4.0312Y-5.2406
X4.0355Y-2.2836
X4.0355Y-4.5277
X4.0355Y-5.3742
X4.0355Y-5.6537
X4.0374Y-5.0828
X4.0394Y-2.7875
X4.0552Y-5.512
X4.063Y-4.4332
X4.067Y-5.3742
X4.0748Y-2.2442
X4.0748Y-4.6064
X4.0748Y-4.6458
X4.0748Y-4.6852
X4.0748Y-4.7246
X4.0748Y-4.7639
X4.0748Y-4.8033
X4.0748Y-4.8427
X4.0748Y-4.882
X4.0748Y-4.9214
X4.0748Y-4.9608
X4.0748Y-5.5513
X4.0867Y-5.008
X4.0945Y-5.5907
X4.0985Y-2.6576
X4.0985Y-3.8387
X4.1024Y-3.9726
X4.1063Y-4.0789
X4.1142Y-2.2836
X4.1142Y-5.6301
X4.1142Y-5.6694
X4.1142Y-5.7836
X4.13Y-3.5474
X4.13Y-3.5946
X4.1536Y-2.2442
X4.1536Y-3.8584
X4.1536Y-3.8978
X4.1536Y-4.012
X4.1536Y-4.0434
X4.1536Y-5.8072
X4.1536Y-5.8466
X4.1536Y-5.945
X4.1536Y-6.0238
X4.1575Y-2.7875
X4.1851Y-4.9686
X4.193Y-2.2836
X4.193Y-3.819
X4.193Y-4.134
X4.193Y-4.1734
X4.193Y-4.4883
X4.193Y-4.5277
X4.193Y-5.0395
X4.193Y-5.0789
X4.193Y-5.1183
X4.193Y-5.8663
X4.193Y-5.9057
X4.193Y-5.9844
X4.2166Y-2.6576
X4.2284Y-3.2836
X4.2284Y-3.3623
X4.2323Y-2.2442
X4.2323Y-2.7954
X4.2323Y-3.7797
X4.2323Y-3.8584
X4.2323Y-5.1379
X4.2323Y-5.5907
X4.2323Y-5.6301
X4.2323Y-5.8663
X4.2323Y-5.945
X4.2323Y-6.0238
X4.2363Y-4.6773
X4.2402Y-4.2364
X4.2402Y-4.2757
X4.252Y-5.6694
X4.2599Y-5.5631
X4.2638Y-3.6301
X4.2717Y-2.2836
X4.2717Y-3.6616
X4.2717Y-3.819
X4.2717Y-3.8978
X4.2717Y-5.1576
X4.2717Y-5.3742
X4.2717Y-5.8466
X4.2717Y-5.9057
X4.2717Y-5.9844
X4.2756Y-2.7875
X4.2796Y-5.5316
X4.2835Y-3.6064
X4.2914Y-5.197
X4.2914Y-5.4923
X4.2953Y-3.9923
X4.2953Y-4.6497
X4.3032Y-4.0434
X4.3032Y-4.071
X4.3032Y-4.0986
X4.3032Y-4.2364
X4.3032Y-4.2757
X4.3111Y-2.2442
X4.3111Y-3.2442
X4.3111Y-3.319
X4.3111Y-3.8584
X4.3111Y-3.9371
X4.3111Y-4.8033
X4.3111Y-5.2364
X4.3111Y-5.2757
X4.3111Y-5.3151
X4.3111Y-5.3742
X4.3111Y-5.6891
X4.3111Y-5.8466
X4.3111Y-5.945
X4.3111Y-6.0238
X4.3308Y-5.4923
X4.3347Y-2.6576
X4.3504Y-2.2836
X4.3504Y-3.8978
X4.3504Y-3.9765
X4.3504Y-4.2364
X4.3504Y-4.7639
X4.3504Y-5.6891
X4.3504Y-5.8466
X4.3504Y-5.9057
X4.3504Y-5.9844
X4.3701Y-5.4726
X4.3898Y-2.2442
X4.3898Y-3.9371
X4.3898Y-4.0159
X4.3898Y-4.7639
X4.3898Y-4.9608
X4.3898Y-5.6891
X4.3898Y-5.8663
X4.3898Y-5.945
X4.3898Y-6.0238
X4.3937Y-2.7875
X4.3977Y-2.6497
X4.4252Y-3.8427
X4.4292Y-2.2836
X4.4292Y-4.0159
X4.4292Y-4.1734
X4.4292Y-4.2521
X4.4292Y-4.3309
X4.4292Y-4.4096
X4.4292Y-4.4883
X4.4292Y-4.5671
X4.4292Y-4.6458
X4.4292Y-4.7246
X4.4292Y-5.0001
X4.4292Y-5.1576
X4.4292Y-5.2364
X4.4292Y-5.3151
X4.4292Y-5.6694
X4.4292Y-5.8466
X4.4292Y-5.9057
X4.4292Y-5.9844
X4.4489Y-3.0828
X4.4528Y-2.6576
X4.4528Y-3.2246
X4.4528Y-3.256
X4.4528Y-3.2875
X4.4528Y-3.319
X4.4528Y-3.3505
X4.4528Y-3.5277
X4.4528Y-3.5553
X4.4528Y-3.5828
X4.4567Y-3.4096
X4.4567Y-3.9293
X4.4685Y-2.2442
X4.4685Y-4.2127
X4.4685Y-4.2915
X4.4685Y-4.3702
X4.4685Y-4.449
X4.4685Y-4.5277
X4.4685Y-4.6064
X4.4685Y-4.6852
X4.4685Y-4.7639
X4.4685Y-4.9608
X4.4685Y-5.0395
X4.4685Y-5.197
X4.4685Y-5.2757
X4.4685Y-5.3545
X4.4685Y-5.4332
X4.4685Y-5.512
X4.4685Y-5.6891
X4.4685Y-5.8466
X4.4685Y-5.945
X4.4685Y-6.0238
X4.4764Y-3.7324
X4.4882Y-3.7049
X4.504Y-2.8033
X4.5079Y-2.2836
X4.5079Y-2.6419
X4.5079Y-3.4253
X4.5079Y-3.9726
X4.5079Y-5.3938
X4.5079Y-5.4726
X4.5079Y-5.6891
X4.5079Y-5.8466
X4.5079Y-5.9057
X4.5079Y-5.9844
X4.5237Y-3.7049
X4.5237Y-4.4332
X4.5276Y-2.7797
X4.5276Y-5.571
X4.5434Y-3.7324
X4.5473Y-2.2442
X4.5473Y-4.4844
X4.5473Y-4.949
X4.5473Y-5.4332
X4.5473Y-5.8466
X4.5473Y-5.945
X4.5473Y-6.0238
X4.5512Y-2.8033
X4.5552Y-4.5749
X4.5552Y-4.6379
X4.563Y-4.2049
X4.5709Y-2.6576
X4.5748Y-3.7324
X4.5867Y-2.2836
X4.5867Y-4.8978
X4.5867Y-5.0474
X4.5867Y-5.0868
X4.5867Y-5.3938
X4.5867Y-5.4726
X4.5867Y-5.8466
X4.5867Y-5.9057
X4.5867Y-5.9844
X4.5906Y-3.382
X4.5945Y-3.8348
X4.5945Y-5.6616
X4.5963Y-3.9275
X4.6063Y-4.2364
X4.6063Y-4.2797
X4.6063Y-4.3112
X4.6063Y-4.3427
X4.6142Y-3.7324
X4.626Y-2.2442
X4.626Y-5.4332
X4.626Y-5.634
X4.626Y-5.6694
X4.626Y-5.8466
X4.626Y-5.945
X4.626Y-6.0238
X4.6339Y-3.8348
X4.6378Y-4.5356
X4.6418Y-2.5749
X4.6418Y-4.6773
X4.6418Y-5.4923
X4.6457Y-4.4332
X4.6536Y-3.7324
X4.6536Y-4.9096
X4.6575Y-5.0474
X4.6575Y-5.0868
X4.6654Y-2.2836
X4.6654Y-5.6694
X4.6654Y-5.8466
X4.6654Y-5.9057
X4.6654Y-5.9844
X4.6693Y-4.886
X4.6733Y-3.8348
X4.6733Y-4.3742
X4.693Y-3.7324
X4.693Y-4.9096
X4.7048Y-2.2442
X4.7048Y-5.3072
X4.7048Y-5.8466
X4.7048Y-5.945
X4.7048Y-6.0238
X4.7126Y-2.9647
X4.7126Y-4.7403
X4.7126Y-4.7797
X4.7205Y-2.6497
X4.7245Y-4.2915
X4.7245Y-5.1655
X4.7284Y-4.5868
X4.7323Y-3.7324
X4.7323Y-5.3072
X4.7441Y-2.2836
X4.7441Y-3.8978
X4.7441Y-5.5513
X4.7441Y-5.8466
X4.7441Y-5.9057
X4.7441Y-5.9844
X4.752Y-3.8348
X4.7522Y-4.2916
X4.7559Y-5.1655
X4.7717Y-3.7324
X4.7756Y-4.5868
X4.7835Y-2.2442
X4.7835Y-4.2805
X4.7835Y-4.7246
X4.7835Y-5.5907
X4.7835Y-5.6931
X4.7835Y-5.8466
X4.7835Y-5.945
X4.7835Y-6.0238
X4.7914Y-5.1655
X4.7953Y-3.8348
X4.8071Y-4.3623
X4.8111Y-3.7324
X4.8111Y-4.4017
X4.815Y-5.5001
X4.8229Y-2.2836
X4.8229Y-2.9686
X4.8229Y-4.0159
X4.8229Y-4.0946
X4.8229Y-5.5513
X4.8229Y-5.6301
X4.8229Y-5.7049
X4.8229Y-5.8466
X4.8229Y-5.9057
X4.8229Y-5.9844
X4.8268Y-2.6576
X4.8308Y-3.5907
X4.8308Y-4.949
X4.8308Y-5.0198
X4.8426Y-4.4293
X4.8465Y-5.5946
X4.8504Y-3.071
X4.8504Y-4.9844
X4.8504Y-5.4096
X4.8563Y-3.945
X4.8622Y-2.2442
X4.8622Y-4.0553
X4.8622Y-4.134
X4.8622Y-5.1379
X4.8622Y-5.6301
X4.8622Y-5.7127
X4.8622Y-5.8466
X4.8622Y-5.945
X4.8622Y-6.0238
X4.8701Y-4.949
X4.8701Y-5.0198
X4.8741Y-3.7324
X4.878Y-2.9686
X4.878Y-4.8545
X4.8898Y-3.8348
X4.8937Y-5.6694
X4.9016Y-2.2836
X4.9016Y-4.0159
X4.9016Y-4.0946
X4.9016Y-5.7206
X4.9016Y-5.8466
X4.9016Y-5.9057
X4.9016Y-5.9844
X4.9056Y-2.8584
X4.9134Y-3.7324
X4.9174Y-2.9647
X4.9252Y-2.6576
X4.9292Y-3.8348
X4.9331Y-2.8584
X4.941Y-2.2442
X4.941Y-2.8033
X4.941Y-3.7088
X4.941Y-4.0553
X4.941Y-4.134
X4.941Y-4.8427
X4.941Y-5.0395
X4.941Y-5.1576
X4.941Y-5.7285
X4.941Y-5.8466
X4.941Y-5.945
X4.941Y-6.0238
X4.9489Y-2.9647
X4.9607Y-4.4293
X4.9607Y-4.4844
X4.9607Y-4.882
X4.9646Y-4.2206
X4.9685Y-2.8584
X4.9685Y-3.5001
X4.9685Y-3.7324
X4.9725Y-4.26
X4.9764Y-5.0395
X4.9764Y-5.2285
X4.9804Y-2.2836
X4.9804Y-4.0159
X4.9804Y-4.0946
X4.9804Y-4.3309
X4.9804Y-5.8466
X4.9804Y-5.9057
X4.9804Y-5.9844
X4.9882Y-3.8348
X4.9922Y-2.8033
X4.9922Y-2.9647
X4.9922Y-5.4332
X5.0158Y-2.6537
X5.0197Y-2.2442
X5.0197Y-4.0553
X5.0197Y-4.134
X5.0197Y-5.4923
X5.0197Y-5.5907
X5.0197Y-5.8466
X5.0197Y-5.945
X5.0197Y-6.0238
X5.0276Y-3.8348
X5.0355Y-5.319
X5.0355Y-5.3545
X5.0355Y-5.3899
X5.0394Y-2.5828
X5.0394Y-4.756
X5.0394Y-4.8033
X5.0394Y-4.8505
X5.0473Y-3.7324
X5.0512Y-2.9647
X5.0591Y-2.2836
X5.0591Y-2.7167
X5.0591Y-3.3938
X5.0591Y-4.0946
X5.0591Y-4.1734
X5.0591Y-4.2521
X5.0591Y-4.3309
X5.0591Y-4.4096
X5.0591Y-4.4883
X5.0591Y-5.6301
X5.0591Y-5.8466
X5.0591Y-5.9057
X5.0591Y-5.9844
X5.067Y-3.7049
X5.0709Y-5.319
X5.0709Y-5.3545
X5.0709Y-5.3899
X5.0867Y-2.9686
X5.0945Y-3.7324
X5.0985Y-2.2442
X5.0985Y-4.134
X5.0985Y-4.2127
X5.0985Y-4.2915
X5.0985Y-4.3702
X5.0985Y-4.449
X5.0985Y-4.5277
X5.0985Y-4.6064
X5.0985Y-5.5907
X5.0985Y-5.6694
X5.0985Y-5.8466
X5.0985Y-6.0238
X5.1063Y-3.8348
X5.1063Y-5.319
X5.1063Y-5.3545
X5.1063Y-5.3899
X5.1142Y-2.8033
X5.1221Y-2.9608
X5.126Y-3.7324
X5.1378Y-2.2836
X5.1378Y-2.7167
X5.1378Y-4.4883
X5.1378Y-4.5671
X5.1378Y-4.6458
X5.1378Y-5.6301
X5.1378Y-5.6891
X5.1378Y-5.8466
X5.1457Y-3.8348
X5.1536Y-2.9608
X5.1575Y-4.756
X5.1575Y-4.8033
X5.1575Y-4.8505
X5.1615Y-2.8033
X5.1654Y-3.7127
X5.1772Y-2.2442
X5.1772Y-3.9765
X5.1772Y-4.2127
X5.1772Y-4.2521
X5.1772Y-4.2915
X5.1772Y-4.3309
X5.1772Y-4.3702
X5.1772Y-4.4096
X5.1772Y-4.6064
X5.1772Y-4.6852
X5.1772Y-5.5907
X5.1772Y-5.6694
X5.1772Y-5.7088
X5.1772Y-5.8466
X5.1811Y-4.4608
X5.1969Y-3.2639
X5.1969Y-3.6694
X5.1969Y-3.7836
X5.1969Y-4.508
X5.1969Y-5.4608
X5.2008Y-4.1694
X5.2048Y-3.0828
X5.2048Y-3.1852
X5.2048Y-3.2994
X5.2048Y-3.5553
X5.2087Y-3.2364
X5.2087Y-3.3348
X5.2087Y-3.3663
X5.2087Y-3.4175
X5.2087Y-3.447
X5.2087Y-3.4765
X5.2087Y-3.5159
X5.2087Y-3.5868
X5.2087Y-5.0434
X5.2166Y-2.2836
X5.2166Y-2.8269
X5.2166Y-3.9371
X5.2166Y-4.0159
X5.2166Y-4.6458
X5.2166Y-5.0946
X5.2166Y-5.6301
X5.2166Y-5.7206
X5.2166Y-5.8466
X5.2284Y-4.5474
X5.2363Y-4.134
X5.2559Y-2.2442
X5.2559Y-3.8978
X5.2559Y-3.9765
X5.2559Y-4.2915
X5.2559Y-4.3309
X5.2559Y-4.3702
X5.2559Y-4.4096
X5.2559Y-4.6852
X5.2559Y-4.9057
X5.2559Y-5.5907
X5.2559Y-5.6694
X5.2559Y-5.7285
X5.2559Y-5.8466
X5.2559Y-6.0238
X5.2678Y-4.2482
X5.2717Y-4.449
X5.2717Y-4.5749
X5.2756Y-4.1064
X5.2835Y-4.2088
X5.2835Y-5.5001
X5.2914Y-4.4844
X5.2953Y-2.2836
X5.2953Y-3.7167
X5.2953Y-3.8584
X5.2953Y-3.9371
X5.2953Y-4.6458
X5.2953Y-4.7246
X5.2953Y-4.823
X5.2953Y-4.9057
X5.2953Y-4.9608
X5.2953Y-5.0238
X5.2953Y-5.6301
X5.2953Y-5.7285
X5.2953Y-5.8466
X5.2953Y-5.9057
X5.2953Y-5.9844
X5.2993Y-5.134
X5.2993Y-5.1812
X5.2993Y-5.2285
X5.3111Y-3.319
X5.3111Y-3.3505
X5.3111Y-3.4962
X5.3111Y-3.5346
X5.3111Y-3.634
X5.315Y-3.7836
X5.315Y-4.0868
X5.315Y-4.5868
X5.315Y-5.5513
X5.315Y-5.5907
X5.3189Y-3.2639
X5.3347Y-2.2442
X5.3347Y-3.8978
X5.3347Y-4.6852
X5.3347Y-5.6694
X5.3347Y-5.7285
X5.3347Y-5.8466
X5.3347Y-5.945
X5.3347Y-6.0238
X5.3465Y-5.134
X5.3465Y-5.1852
X5.3544Y-4.0749
X5.3544Y-4.2246
X5.3544Y-4.4332
X5.3544Y-4.8663
X5.3544Y-4.9293
X5.3544Y-4.9923
X5.3544Y-5.512
X5.3583Y-4.5868
X5.3622Y-4.3112
X5.3622Y-4.3545
X5.3741Y-2.2836
X5.3741Y-3.8584
X5.3741Y-4.7246
X5.3741Y-4.7639
X5.3741Y-5.7285
X5.3741Y-5.8466
X5.3741Y-5.9057
X5.3741Y-5.9844
X5.3937Y-4.0159
X5.3937Y-4.0553
X5.4016Y-4.5868
X5.4134Y-2.2442
X5.4134Y-3.8978
X5.4134Y-3.9765
X5.4134Y-4.7246
X5.4134Y-5.4726
X5.4134Y-5.7285
X5.4134Y-5.8466
X5.4134Y-5.945
X5.4134Y-6.0238
X5.4174Y-3.6576
X5.4252Y-4.4686
X5.4331Y-3.7836
X5.4331Y-4.6261
X5.4371Y-3.26
X5.4371Y-3.3545
X5.4371Y-3.4017
X5.4371Y-4.3112
X5.4371Y-4.3505
X5.4489Y-4.8348
X5.4489Y-4.8978
X5.4489Y-4.9608
X5.4489Y-5.0238
X5.4528Y-2.2836
X5.4528Y-3.8584
X5.4528Y-3.9371
X5.4528Y-4.7639
X5.4528Y-5.4923
X5.4528Y-5.7285
X5.4528Y-5.8466
X5.4528Y-5.9057
X5.4528Y-5.9844
X5.4607Y-4.1419
X5.4607Y-4.5198
X5.4646Y-3.4135
X5.4646Y-3.6104
X5.4646Y-3.7836
X5.4685Y-5.134
X5.4685Y-5.1852
X5.4725Y-4.6458
X5.4804Y-3.1931
X5.4804Y-3.7403
X5.4843Y-4.3112
X5.4843Y-4.3505
X5.4922Y-2.2442
X5.4922Y-3.0907
X5.4922Y-3.1202
X5.4922Y-3.8978
X5.4922Y-3.9371
X5.4922Y-4.7246
X5.4922Y-5.512
X5.4922Y-5.6694
X5.4922Y-5.7285
X5.4922Y-5.8466
X5.4922Y-5.945
X5.4922Y-6.0238
X5.4961Y-4.1891
X5.504Y-3.7167
X5.5079Y-3.1734
X5.5079Y-3.2246
X5.5079Y-3.2718
X5.5079Y-4.8663
X5.5079Y-4.9293
X5.5079Y-4.9923
X5.5119Y-4.6458
X5.5119Y-5.5907
X5.5158Y-5.0907
X5.5158Y-5.1931
X5.5315Y-2.2836
X5.5315Y-3.8584
X5.5315Y-3.9371
X5.5315Y-4.0356
X5.5315Y-4.7639
X5.5315Y-5.1301
X5.5315Y-5.3151
X5.5315Y-5.3545
X5.5315Y-5.5316
X5.5315Y-5.6301
X5.5315Y-5.7285
X5.5315Y-5.8466
X5.5315Y-5.9057
X5.5315Y-5.9844
X5.5355Y-3.6891
X5.5512Y-4.6458
X5.5591Y-5.3387
X5.567Y-3.6576
X5.567Y-4.2246
X5.567Y-4.4332
X5.5709Y-2.2442
X5.5709Y-3.8978
X5.5709Y-3.9371
X5.5709Y-4.0356
X5.5709Y-4.2915
X5.5709Y-5.2127
X5.5709Y-5.3742
X5.5709Y-5.5513
X5.5709Y-5.5907
X5.5709Y-5.6694
X5.5709Y-5.7285
X5.5709Y-5.8466
X5.5709Y-5.945
X5.5709Y-6.0238
X5.5827Y-3.6104
X5.5827Y-3.7836
X5.5867Y-3.3427
X5.5867Y-5.3387
X5.5906Y-4.0749
X5.5906Y-4.6458
X5.6103Y-2.2836
X5.6103Y-3.8584
X5.6103Y-3.9371
X5.6103Y-4.0356
X5.6103Y-5.3938
X5.6103Y-5.5513
X5.6103Y-5.6301
X5.6103Y-5.7285
X5.6103Y-5.8466
X5.6103Y-5.9057
X5.6103Y-5.9844
X5.626Y-3.1773
X5.626Y-3.2246
X5.626Y-3.2718
X5.63Y-4.6458
X5.6378Y-3.7285
X5.6378Y-4.0946
X5.6457Y-4.2088
X5.6496Y-2.2442
X5.6496Y-3.3387
X5.6496Y-3.8978
X5.6496Y-3.9371
X5.6496Y-4.0356
X5.6496Y-4.4411
X5.6496Y-4.882
X5.6496Y-4.9214
X5.6496Y-5.0395
X5.6496Y-5.0789
X5.6496Y-5.1183
X5.6496Y-5.1576
X5.6496Y-5.3151
X5.6496Y-5.3545
X5.6496Y-5.4135
X5.6496Y-5.5513
X5.6496Y-5.5907
X5.6496Y-5.6694
X5.6496Y-5.7285
X5.6496Y-5.8466
X5.6496Y-5.945
X5.6496Y-6.0238
X5.6615Y-4.256
X5.6615Y-4.3978
X5.6654Y-4.5395
X5.6693Y-4.6458
X5.6733Y-4.3033
X5.6733Y-4.3505
X5.6851Y-3.6576
X5.6851Y-4.1301
X5.689Y-2.2836
X5.689Y-3.8584
X5.689Y-3.9371
X5.689Y-4.0356
X5.689Y-4.882
X5.689Y-4.9214
X5.689Y-5.0395
X5.689Y-5.0789
X5.689Y-5.1183
X5.689Y-5.1576
X5.689Y-5.3151
X5.689Y-5.3545
X5.689Y-5.4135
X5.689Y-5.5513
X5.689Y-5.6301
X5.689Y-5.9057
X5.689Y-5.9844
X5.7048Y-4.4923
X5.7087Y-4.6458
X5.7126Y-3.7757
X5.7126Y-4.5395
X5.7284Y-3.8978
X5.7284Y-3.9371
X5.7284Y-4.0356
X5.7284Y-4.1655
X5.7284Y-5.4135
X5.7284Y-5.5513
X5.7284Y-5.945
X5.7284Y-6.0238
X5.7363Y-4.449
X5.7398Y-5.7675
X5.743Y-3.143
X5.7441Y-3.2718
X5.747Y-3.1942
X5.7481Y-2.9765
X5.7481Y-4.2127
X5.7559Y-4.2521
X5.7599Y-3.7167
X5.7599Y-4.4017
X5.7638Y-2.8348
X5.7638Y-2.9096
X5.7638Y-3.1183
X5.7678Y-2.2442
X5.7678Y-3.8584
X5.7678Y-3.9371
X5.7678Y-4.0356
X5.7678Y-4.3033
X5.7678Y-4.3505
X5.7678Y-4.7246
X5.7678Y-4.7639
X5.7678Y-4.8033
X5.7678Y-5.0789
X5.7678Y-5.1183
X5.7678Y-5.1576
X5.7678Y-5.2127
X5.7678Y-5.3151
X5.7678Y-5.3545
X5.7678Y-5.3938
X5.7678Y-5.9057
X5.7678Y-5.9844
X5.7717Y-3.0001
X5.7717Y-3.2482
X5.7756Y-5.7797
X5.7835Y-2.6379
X5.7953Y-3.3387
X5.7953Y-3.3938
X5.8071Y-3.8978
X5.8071Y-3.9371
X5.8071Y-4.0356
X5.8071Y-4.134
X5.8071Y-4.2127
X5.8071Y-5.945
X5.8071Y-6.0238
X5.8091Y-5.1734
X5.8111Y-2.9096
X5.8111Y-3.1497
X5.8111Y-4.5671
X5.8111Y-4.6222
X5.8189Y-5.6812
X5.8189Y-5.7364
X5.8268Y-2.6379
X5.8327Y-5.1734
X5.8347Y-4.8663
X5.8347Y-4.9017
X5.8347Y-4.9371
X5.8386Y-4.5946
X5.8465Y-2.2442
X5.8465Y-3.7009
X5.8465Y-3.8584
X5.8465Y-3.9371
X5.8465Y-4.0356
X5.8465Y-4.134
X5.8465Y-4.2127
X5.8465Y-5.7088
X5.8465Y-5.9057
X5.8465Y-5.9844
X5.8544Y-3.1497
X5.8563Y-5.1734
X5.8662Y-4.5671
X5.8662Y-4.6222
X5.8662Y-4.9371
X5.8701Y-4.8663
X5.8701Y-4.9017
X5.8741Y-5.6812
X5.8741Y-5.7364
X5.8859Y-2.2836
X5.8859Y-3.6616
X5.8859Y-5.945
X5.8859Y-6.0238
X5.8937Y-5.0198
X5.9056Y-4.7246
X5.9056Y-4.7521
X5.9056Y-4.8663
X5.9056Y-4.9017
X5.9134Y-2.8269
X5.9134Y-2.8742
X5.9134Y-2.9214
X5.9134Y-2.9686
X5.9134Y-3.0159
X5.9252Y-2.2442
X5.9252Y-3.6222
X5.9252Y-3.7009
X5.9252Y-4.3702
X5.9252Y-5.3151
X5.9252Y-5.3545
X5.9252Y-5.3938
X5.9252Y-5.4332
X5.9252Y-5.4726
X5.9252Y-5.512
X5.9252Y-5.5513
X5.9252Y-5.5907
X5.9252Y-5.9057
X5.9252Y-5.9844
X5.9292Y-3.8112
X5.9292Y-4.2009
X5.9292Y-4.7757
X5.9351Y-5.0828
X5.9449Y-4.6616
X5.9607Y-2.8269
X5.9607Y-2.8742
X5.9607Y-2.9214
X5.9607Y-2.9686
X5.9607Y-3.0159
X5.9646Y-2.2836
X5.9646Y-3.5828
X5.9646Y-3.6616
X5.9646Y-3.8978
X5.9646Y-5.945
X5.9646Y-6.0238
X5.9685Y-4.7915
X5.9705Y-5.0828
X5.9725Y-4.823
X5.9745Y-5.2994
X5.9764Y-3.8584
X5.9764Y-4.2009
X5.9764Y-4.6616
X5.9764Y-5.7442
X5.9804Y-2.7285
X5.9882Y-3.9568
X5.9922Y-4.8505
X5.9922Y-4.9765
X5.9961Y-4.882
X5.9961Y-4.9135
X5.9961Y-4.945
X6.002Y-5.0828
X6.004Y-2.2442
X6.004Y-3.6222
X6.004Y-4.3702
X6.004Y-4.449
X6.004Y-5.9057
X6.004Y-5.9844
X6.0059Y-5.2994
X6.0079Y-2.8269
X6.0079Y-2.8742
X6.0079Y-2.9214
X6.0079Y-2.9686
X6.0079Y-3.0159
X6.0119Y-4.6616
X6.0237Y-4.6261
X6.0261Y-4.1064
X6.0261Y-4.134
X6.0276Y-3.0907
X6.0315Y-2.7285
X6.0315Y-4.2521
X6.0434Y-2.2836
X6.0434Y-2.6064
X6.0434Y-3.5828
X6.0434Y-4.3309
X6.0434Y-5.1852
X6.0434Y-5.8466
X6.0434Y-5.945
X6.0434Y-6.0238
X6.0473Y-3.1104
X6.0512Y-3.7403
X6.0552Y-2.8269
X6.0552Y-2.8742
X6.0552Y-2.9214
X6.0552Y-2.9686
X6.0552Y-3.0159
X6.0591Y-2.7521
X6.0709Y-3.1242
X6.0768Y-3.9588
X6.0768Y-4.006
X6.0768Y-4.0533
X6.0788Y-4.2521
X6.0827Y-2.2442
X6.0827Y-4.3702
X6.0827Y-5.8466
X6.0827Y-5.9057
X6.0827Y-5.9844
X6.0906Y-2.7521
X6.0945Y-2.6064
X6.0945Y-2.7206
X6.0945Y-3.8702
X6.0982Y-3.1379
X6.1004Y-3.9824
X6.1004Y-4.0297
X6.1024Y-2.8269
X6.1024Y-2.8742
X6.1024Y-2.9214
X6.1024Y-2.9686
X6.1024Y-3.0159
X6.1063Y-4.697
X6.1103Y-3.2088
X6.1142Y-4.1419
X6.1221Y-3.5828
X6.1221Y-4.3309
X6.1221Y-5.7285
X6.1221Y-5.8466
X6.1221Y-5.945
X6.1221Y-6.0238
X6.1241Y-3.9588
X6.1241Y-4.006
X6.1241Y-4.0533
X6.1339Y-3.8545
X6.1339Y-4.4411
X6.1339Y-4.4883
X6.1457Y-3.1576
X6.1477Y-3.9824
X6.1477Y-4.0297
X6.1496Y-4.2521
X6.1575Y-3.8702
X6.1615Y-4.3702
X6.1615Y-4.8033
X6.1615Y-4.8427
X6.1615Y-4.882
X6.1615Y-4.9608
X6.1615Y-5.0395
X6.1615Y-5.1183
X6.1615Y-5.1576
X6.1615Y-5.197
X6.1615Y-5.3151
X6.1615Y-5.3545
X6.1615Y-5.4332
X6.1615Y-5.512
X6.1615Y-5.6694
X6.1615Y-5.7285
X6.1615Y-5.8466
X6.1615Y-5.9057
X6.1615Y-5.9844
X6.1713Y-3.9588
X6.1713Y-4.006
X6.1713Y-4.0533
X6.189Y-4.3309
X6.1969Y-2.9057
X6.1969Y-4.2521
X6.2008Y-2.2442
X6.2008Y-2.756
X6.2008Y-2.9765
X6.2008Y-4.8427
X6.2008Y-4.9214
X6.2008Y-5.0001
X6.2008Y-5.1183
X6.2008Y-5.1576
X6.2008Y-5.197
X6.2008Y-5.3151
X6.2008Y-5.3938
X6.2008Y-5.4726
X6.2008Y-5.7285
X6.2008Y-5.8466
X6.2008Y-5.945
X6.2008Y-6.0238
X6.2087Y-3.7364
X6.2087Y-3.8702
X6.2205Y-3.9096
X6.2402Y-2.2836
X6.2402Y-2.823
X6.2402Y-2.8702
X6.2402Y-4.1143
X6.2402Y-5.4332
X6.2402Y-5.7285
X6.2402Y-5.8466
X6.2402Y-5.9057
X6.2402Y-5.9844
X6.2441Y-4.2521
X6.2599Y-3.9726
X6.2599Y-4.071
X6.2599Y-4.445
X6.2796Y-2.2442
X6.2796Y-3.5434
X6.2796Y-4.3309
X6.2796Y-5.4726
X6.2796Y-5.7285
X6.2796Y-5.8466
X6.2796Y-5.945
X6.2796Y-6.0238
X6.2874Y-3.26
X6.2874Y-3.7718
X6.2874Y-5.386
X6.2953Y-5.0868
X6.3111Y-3.9096
X6.3111Y-4.0828
X6.3189Y-2.2836
X6.3189Y-3.008
X6.3189Y-3.0395
X6.3189Y-3.26
X6.3189Y-3.5828
X6.3189Y-3.7718
X6.3189Y-4.3702
X6.3189Y-4.6458
X6.3189Y-4.6852
X6.3189Y-5.386
X6.3189Y-5.4332
X6.3189Y-5.512
X6.3189Y-5.5907
X6.3189Y-5.6694
X6.3189Y-5.7285
X6.3189Y-5.8466
X6.3189Y-5.9057
X6.3189Y-5.9844
X6.3229Y-4.8112
X6.3229Y-4.8427
X6.3229Y-4.8742
X6.3308Y-5.0868
X6.3504Y-3.008
X6.3504Y-3.0395
X6.3504Y-3.26
X6.3504Y-5.386
X6.3583Y-2.2442
X6.3583Y-3.5434
X6.3583Y-4.3309
X6.3583Y-4.6458
X6.3583Y-4.6852
X6.3583Y-5.4726
X6.3583Y-5.5513
X6.3583Y-5.6301
X6.3583Y-5.7285
X6.3583Y-5.8466
X6.3583Y-5.945
X6.3583Y-6.0238
X6.3662Y-2.9214
X6.3662Y-2.9529
X6.3741Y-2.4844
X6.3741Y-2.5631
X6.3741Y-3.949
X6.3741Y-4.0434
X6.3741Y-4.2167
X6.378Y-4.512
X6.3819Y-3.008
X6.3819Y-3.0395
X6.3819Y-3.26
X6.3977Y-2.2836
X6.3977Y-3.5828
X6.3977Y-3.6301
X6.3977Y-5.2049
X6.3977Y-5.3742
X6.3977Y-5.4332
X6.3977Y-5.512
X6.3977Y-5.5907
X6.3977Y-5.6694
X6.3977Y-5.7285
X6.3977Y-5.8466
X6.3977Y-5.9057
X6.3977Y-5.9844
X6.4056Y-2.4844
X6.4056Y-2.5631
X6.4095Y-3.0277
X6.4134Y-3.26
X6.4174Y-5.3033
X6.4174Y-5.3348
X6.4252Y-2.508
X6.4252Y-2.5395
X6.4371Y-2.2442
X6.4371Y-3.5434
X6.4371Y-3.6301
X6.4371Y-5.4726
X6.4371Y-5.5513
X6.4371Y-5.6301
X6.4371Y-5.7285
X6.4371Y-5.8466
X6.4371Y-6.0238
X6.4449Y-3.26
X6.4764Y-2.2836
X6.4764Y-3.5828
X6.4764Y-5.512
X6.4764Y-5.5907
X6.4764Y-5.6694
X6.4764Y-5.7285
X6.4764Y-5.8466
X6.5Y-3.8978
X6.504Y-4.5159
X6.5158Y-2.2442
X6.5158Y-3.5434
X6.5158Y-4.134
X6.5158Y-4.2127
X6.5158Y-4.2915
X6.5158Y-4.3702
X6.5158Y-4.6458
X6.5158Y-4.6852
X6.5158Y-5.5513
X6.5158Y-5.6301
X6.5158Y-5.7285
X6.5158Y-5.8466
X6.5315Y-3.8978
X6.5552Y-2.2836
X6.5552Y-3.5828
X6.5552Y-4.0946
X6.5552Y-4.1734
X6.5552Y-4.2521
X6.5552Y-4.3309
X6.5552Y-4.6458
X6.5552Y-4.6852
X6.5552Y-5.4332
X6.5552Y-5.5907
X6.5552Y-5.6694
X6.5552Y-5.7285
X6.5552Y-5.8466
X6.5591Y-3.7915
X6.5591Y-3.823
X6.5591Y-3.8545
X6.5945Y-2.2442
X6.5945Y-3.5434
X6.5945Y-3.6301
X6.5945Y-5.4726
X6.5945Y-5.6301
X6.5945Y-5.7285
X6.5945Y-5.8466
X6.5945Y-6.0238
X6.6063Y-4.8978
X6.63Y-4.8978
X6.6339Y-2.2836
X6.6339Y-2.9135
X6.6339Y-3.5828
X6.6339Y-3.6301
X6.6339Y-5.4332
X6.6339Y-5.512
X6.6339Y-5.5907
X6.6339Y-5.6694
X6.6339Y-5.7285
X6.6339Y-5.8466
X6.6339Y-5.9057
X6.6339Y-5.9844
X6.6418Y-4.2206
X6.6418Y-4.3387
X6.6418Y-4.3899
X6.6536Y-4.8427
X6.6536Y-4.8978
X6.6575Y-5.3584
X6.6615Y-3.7049
X6.6693Y-2.9135
X6.6693Y-2.9608
X6.6693Y-5.2088
X6.6733Y-2.2442
X6.6733Y-2.4962
X6.6733Y-2.5474
X6.6733Y-2.5946
X6.6733Y-2.6379
X6.6733Y-2.6931
X6.6733Y-2.7364
X6.6733Y-2.7915
X6.6733Y-4.0553
X6.6733Y-4.0946
X6.6733Y-4.6458
X6.6733Y-4.6852
X6.6733Y-5.4726
X6.6733Y-5.6301
X6.6733Y-5.7285
X6.6733Y-5.8466
X6.6733Y-5.945
X6.6733Y-6.0238
X6.6811Y-4.4765
X6.6811Y-4.512
X6.6811Y-4.8427
X6.689Y-3.7049
X6.689Y-4.882
X6.689Y-4.9155
X6.7008Y-5.2088
X6.7048Y-5.3505
X6.7126Y-2.2836
X6.7126Y-3.5434
X6.7126Y-4.0946
X6.7126Y-4.6458
X6.7126Y-4.6852
X6.7126Y-5.4332
X6.7126Y-5.7285
X6.7126Y-5.8466
X6.7126Y-5.9057
X6.7126Y-5.9844
X6.7166Y-3.7049
X6.7245Y-4.512
X6.7284Y-5.1537
X6.7323Y-5.1143
X6.7363Y-5.2206
X6.7441Y-4.949
X6.7481Y-2.8112
X6.7481Y-2.8427
X6.7481Y-2.8742
X6.7481Y-2.9057
X6.7481Y-2.9371
X6.7481Y-5.1852
X6.752Y-2.2442
X6.752Y-3.386
X6.752Y-3.5828
X6.752Y-4.0553
X6.752Y-4.6458
X6.752Y-4.6852
X6.752Y-4.823
X6.752Y-5.3938
X6.752Y-5.5434
X6.752Y-5.7285
X6.752Y-5.8466
X6.752Y-5.945
X6.752Y-6.0238
X6.7559Y-5.1379
X6.7638Y-4.4765
X6.7678Y-5.2206
X6.7756Y-4.9332
X6.7756Y-4.9647
X6.7756Y-5.0553
X6.7796Y-3.008
X6.7796Y-3.071
X6.7796Y-3.134
X6.7796Y-3.197
X6.7796Y-3.26
X6.7835Y-2.8112
X6.7835Y-2.8427
X6.7835Y-2.8742
X6.7835Y-2.9057
X6.7835Y-2.9371
X6.7835Y-5.1222
X6.7914Y-2.2836
X6.7914Y-3.5434
X6.7914Y-3.5828
X6.7914Y-4.0553
X6.7914Y-4.0946
X6.7914Y-5.7285
X6.7914Y-5.8466
X6.7914Y-5.9057
X6.7914Y-5.9844
X6.7993Y-4.3387
X6.8032Y-5.323
X6.8071Y-5.5001
X6.815Y-2.9785
X6.8189Y-2.7698
X6.8189Y-2.8112
X6.8189Y-2.8427
X6.8189Y-2.8742
X6.8189Y-2.9057
X6.8189Y-2.9371
X6.8308Y-2.2442
X6.8308Y-5.3033
X6.8308Y-5.3938
X6.8308Y-5.8466
X6.8308Y-5.945
X6.8308Y-6.0238
X6.8426Y-2.7816
X6.8426Y-2.9785
X6.8544Y-4.4765
X6.8544Y-4.512
X6.8622Y-4.9765
X6.8622Y-5.0238
X6.8622Y-5.071
X6.8662Y-2.7698
X6.8701Y-2.2836
X6.8701Y-2.9785
X6.8701Y-4.6458
X6.8701Y-4.6852
X6.8701Y-5.4332
X6.8701Y-5.8466
X6.8701Y-5.9057
X6.8701Y-5.9844
X6.878Y-4.0946
X6.8859Y-3.5434
X6.8859Y-3.5828
X6.8859Y-5.0001
X6.8859Y-5.0474
X6.8898Y-2.5828
X6.8898Y-2.6183
X6.8937Y-3.1261
X6.9095Y-2.2442
X6.9095Y-2.8545
X6.9095Y-2.884
X6.9095Y-4.0553
X6.9095Y-4.6458
X6.9095Y-4.6852
X6.9095Y-4.9765
X6.9095Y-5.0238
X6.9095Y-5.071
X6.9095Y-5.3938
X6.9095Y-5.4726
X6.9095Y-5.8466
X6.9095Y-5.945
X6.9095Y-6.0238
X6.9134Y-5.6694
X6.9174Y-3.4057
X6.9174Y-4.4765
X6.9174Y-4.512
X6.9174Y-4.8171
X6.9174Y-4.886
X6.9213Y-3.2994
X6.9213Y-3.3309
X6.9252Y-2.5828
X6.9331Y-5.0001
X6.9331Y-5.0474
X6.939Y-5.1616
X6.941Y-4.6458
X6.941Y-4.6852
X6.9489Y-2.2836
X6.9489Y-3.4057
X6.9489Y-4.0946
X6.9489Y-5.4332
X6.9489Y-5.634
X6.9489Y-5.6694
X6.9489Y-5.7049
X6.9489Y-5.8466
X6.9489Y-5.9057
X6.9489Y-5.9844
X6.9567Y-4.3387
X6.9567Y-4.9765
X6.9567Y-5.0238
X6.9567Y-5.071
X6.9607Y-2.5828
X6.9646Y-3.6616
X6.9685Y-3.3072
X6.9843Y-5.6694
X6.9882Y-3.5434
X6.9882Y-4.0553
X6.9882Y-4.1655
X6.9882Y-4.2009
X6.9882Y-5.3938
X6.9882Y-5.4726
X6.9882Y-5.8466
X6.9882Y-5.945
X6.9882Y-6.0238
X6.9961Y-2.5828
X6.9961Y-4.4805
X6.9961Y-4.512
X6.9961Y-5.2994
X7.0074Y-4.8978
X7.0074Y-4.9253
X7.0079Y-5.1458
X7.0119Y-3.3072
X7.0276Y-3.5828
X7.0276Y-3.9765
X7.0276Y-4.0946
X7.0276Y-4.6458
X7.0276Y-5.4332
X7.0276Y-5.512
X7.0276Y-5.8466
X7.0276Y-5.9057
X7.0276Y-5.9844
X7.0394Y-3.9411
X7.0394Y-4.8171
X7.0473Y-2.8742
X7.0512Y-3.3072
X7.0512Y-4.9883
X7.0512Y-5.0198
X7.0512Y-5.0513
X7.067Y-3.5434
X7.067Y-3.9411
X7.067Y-4.6852
X7.067Y-5.1773
X7.067Y-5.3938
X7.067Y-5.4726
X7.067Y-5.5513
X7.067Y-5.8466
X7.067Y-5.945
X7.067Y-6.0238
X7.0945Y-3.9411
X7.1024Y-5.1143
X7.1063Y-3.5828
X7.1063Y-4.0553
X7.1063Y-4.3702
X7.1063Y-4.5356
X7.1063Y-4.6458
X7.1063Y-5.4332
X7.1063Y-5.512
X7.1063Y-5.8466
X7.1063Y-5.9057
X7.1063Y-5.9844
X7.1103Y-4.1812
X7.1103Y-4.2738
X7.1142Y-3.9765
X7.1339Y-5.1143
X7.1457Y-3.5434
X7.1457Y-3.9765
X7.1457Y-4.0946
X7.1457Y-4.6852
X7.1457Y-4.7639
X7.1457Y-5.3938
X7.1457Y-5.5907
X7.1457Y-5.6734
X7.1457Y-5.8466
X7.1457Y-5.945
X7.1457Y-6.0238
X7.1496Y-3.7994
X7.1496Y-3.8387
X7.1536Y-4.4529
X7.1733Y-5.1163
X7.1772Y-3.0631
X7.1772Y-3.1183
X7.1772Y-3.1694
X7.1772Y-3.2206
X7.1772Y-3.9765
X7.1811Y-5.6734
X7.1851Y-2.4844
X7.1851Y-3.5041
X7.1851Y-3.5828
X7.1851Y-3.819
X7.1851Y-4.0553
X7.1851Y-4.1694
X7.1851Y-4.2915
X7.1851Y-4.3309
X7.1851Y-4.3702
X7.1851Y-4.5671
X7.1851Y-4.8486
X7.1851Y-4.884
X7.1851Y-5.8466
X7.1851Y-5.9057
X7.1851Y-5.9844
X7.2048Y-5.1163
X7.2166Y-5.6734
X7.2205Y-3.7994
X7.2205Y-3.8387
X7.2245Y-4.0946
X7.2245Y-4.2915
X7.2245Y-4.3309
X7.2245Y-4.3702
X7.2245Y-4.6458
X7.2245Y-5.3938
X7.2245Y-5.5907
X7.2245Y-5.8466
X7.2245Y-5.945
X7.2245Y-6.0238
X7.2284Y-2.7836
X7.2284Y-2.8151
X7.2284Y-2.8466
X7.2323Y-4.4529
X7.2363Y-4.571
X7.2559Y-2.7403
X7.2599Y-3.9253
X7.2599Y-3.9568
X7.2638Y-4.0553
X7.2638Y-4.2915
X7.2638Y-4.3309
X7.2638Y-4.3702
X7.2638Y-4.6852
X7.2638Y-4.7246
X7.2638Y-4.8033
X7.2638Y-5.0001
X7.2638Y-5.197
X7.2638Y-5.2757
X7.2638Y-5.3545
X7.2638Y-5.8466
X7.2638Y-5.9057
X7.2638Y-5.9844
X7.2835Y-2.7403
X7.2835Y-2.8623
X7.2835Y-4.571
X7.2874Y-2.9332
X7.2874Y-2.9726
X7.3032Y-3.2206
X7.3032Y-3.4253
X7.3032Y-3.6222
X7.3032Y-3.7009
X7.3032Y-3.7797
X7.3032Y-3.8584
X7.3032Y-3.9371
X7.3032Y-4.0159
X7.3032Y-4.0946
X7.3032Y-4.6458
X7.3032Y-4.7639
X7.3032Y-5.0001
X7.3032Y-5.2364
X7.3032Y-5.3151
X7.3032Y-5.3938
X7.3032Y-5.4726
X7.3032Y-5.5513
X7.3032Y-5.8466
X7.3032Y-5.945
X7.3032Y-6.0238
X7.3111Y-2.7403
X7.3229Y-2.9529
X7.3308Y-4.4135
X7.3347Y-2.8623
X7.3386Y-4.2836
X7.3386Y-4.319
X7.3386Y-4.445
X7.3426Y-3.6616
X7.3426Y-3.7403
X7.3426Y-3.819
X7.3426Y-3.8978
X7.3426Y-3.9765
X7.3426Y-4.0553
X7.3426Y-4.134
X7.3426Y-4.1931
X7.3426Y-4.2285
X7.3426Y-4.6852
X7.3426Y-5.8466
X7.3426Y-5.9057
X7.3426Y-5.9844
X7.3504Y-3.2639
X7.3583Y-2.9332
X7.3583Y-2.9726
X7.3741Y-3.2797
X7.3741Y-5.071
X7.3819Y-3.4253
X7.3819Y-3.5041
X7.3819Y-4.0946
X7.3819Y-4.1734
X7.3819Y-4.6458
X7.3819Y-5.3427
X7.3819Y-5.4253
X7.3819Y-5.8466
X7.3819Y-5.945
X7.3819Y-6.0238
X7.3977Y-4.2403
X7.3977Y-5.6891
X7.4056Y-4.7482
X7.4134Y-4.0277
X7.4213Y-2.2442
X7.4213Y-3.2954
X7.4213Y-3.4647
X7.4213Y-4.6852
X7.4213Y-5.6694
X7.4213Y-5.8466
X7.4213Y-5.9057
X7.4213Y-5.9844
X7.4252Y-3.8466
X7.4252Y-3.886
X7.4449Y-3.2679
X7.4449Y-4.0277
X7.4489Y-5.1419
X7.4607Y-2.2836
X7.4607Y-3.4253
X7.4607Y-3.8663
X7.4607Y-4.6458
X7.4607Y-4.9411
X7.4607Y-5.197
X7.4607Y-5.6301
X7.4607Y-5.7875
X7.4607Y-5.8466
X7.4607Y-5.945
X7.4607Y-6.0238
X7.4685Y-4.571
X7.4764Y-4.0277
X7.4804Y-5.1576
X7.4912Y-5.0425
X7.4922Y-4.2836
X7.4922Y-4.449
X7.4961Y-3.8466
X7.4961Y-3.886
X7.5Y-2.2442
X7.5Y-3.4647
X7.5Y-4.6064
X7.5Y-4.6852
X7.5Y-4.7482
X7.5Y-5.5513
X7.5Y-5.5907
X7.5Y-5.7482
X7.5Y-5.8466
X7.5Y-5.9057
X7.5Y-5.9844
X7.5026Y-4.886
X7.5119Y-4.4883
X7.5355Y-3.7324
X7.5355Y-3.7639
X7.5394Y-2.2836
X7.5394Y-3.9647
X7.5394Y-4.0041
X7.5394Y-4.1734
X7.5394Y-4.5671
X7.5394Y-4.6458
X7.5394Y-5.7088
X7.5394Y-5.945
X7.5394Y-6.0238
X7.5434Y-4.9253
X7.5434Y-4.9608
X7.5434Y-4.9962
X7.5473Y-3.5828
X7.567Y-3.7167
X7.5709Y-3.7757
X7.5788Y-2.2442
X7.5788Y-3.5828
X7.5788Y-4.134
X7.5788Y-4.2127
X7.5788Y-4.2915
X7.5788Y-4.3702
X7.5788Y-4.4647
X7.5788Y-4.6064
X7.5788Y-4.6852
X7.5788Y-4.9253
X7.5788Y-4.9608
X7.5788Y-4.9962
X7.5788Y-5.6694
X7.5945Y-3.7167
X7.6024Y-2.8938
X7.6024Y-4.7482
X7.6142Y-4.9253
X7.6142Y-4.9608
X7.6142Y-4.9962
X7.6182Y-3.2915
X7.6182Y-3.4253
X7.6182Y-4.1734
X7.6182Y-4.2521
X7.6182Y-4.3309
X7.6182Y-4.4253
X7.6182Y-5.5513
X7.6182Y-5.5907
X7.6182Y-5.6301
X7.63Y-4.0553
X7.6339Y-2.8938
X7.6457Y-5.5277
X7.6565Y-3.7403
X7.6575Y-3.2915
X7.6575Y-3.4647
X7.6575Y-4.0159
X7.6575Y-4.4883
X7.6575Y-4.6852
X7.6575Y-4.7482
X7.6575Y-4.886
X7.6615Y-5.4923
X7.6654Y-2.8938
X7.6733Y-3.8033
X7.6733Y-3.8387
X7.6733Y-5.197
X7.6733Y-5.2364
X7.6733Y-5.2757
X7.6772Y-5.4726
X7.6772Y-5.6301
X7.6772Y-5.6694
X7.6851Y-3.571
X7.689Y-5.445
X7.693Y-2.7324
X7.693Y-2.7639
X7.693Y-2.7954
X7.693Y-2.8269
X7.693Y-2.8584
X7.6969Y-2.8938
X7.6969Y-3.2915
X7.6969Y-3.4253
X7.6969Y-3.8663
X7.6969Y-5.3151
X7.6969Y-5.512
X7.6969Y-5.5513
X7.6969Y-5.5907
X7.6969Y-5.7088
X7.6969Y-5.7482
X7.6969Y-5.7875
X7.6969Y-5.8269
X7.6969Y-5.8663
X7.6969Y-5.9057
X7.6969Y-5.945
X7.6969Y-5.9844
X7.6969Y-6.0238
X7.7008Y-4.323
X7.7048Y-4.7482
X7.7048Y-5.1891
X7.7126Y-4.3781
X7.7166Y-3.571
X7.7166Y-4.2049
X7.7166Y-4.2364
X7.7284Y-2.8938
X7.7363Y-3.4647
X7.7363Y-4.4883
X7.7363Y-4.6852
X7.7363Y-5.323
X7.7441Y-3.2915
X7.752Y-5.1891
X7.7638Y-3.7167
X7.7756Y-3.4253
X7.7756Y-4.5277
X7.7756Y-4.6064
X7.7756Y-4.882
X7.7756Y-5.3545
X7.7835Y-4.0041
X7.7953Y-3.7167
X7.7993Y-4.26
X7.7993Y-5.1891
X7.8111Y-3.3112
X7.8111Y-3.6064
X7.815Y-2.4883
X7.815Y-3.4647
X7.815Y-4.882
X7.815Y-5.3545
X7.8229Y-4.4962
X7.8308Y-2.7875
X7.8308Y-2.8309
X7.8308Y-2.8742
X7.8386Y-3.323
X7.8386Y-5.1064
X7.8544Y-3.3466
X7.8544Y-4.0671
X7.8544Y-4.1064
X7.8544Y-4.5277
X7.8544Y-4.5671
X7.8544Y-4.6064
X7.8544Y-4.6458
X7.8544Y-4.6852
X7.8544Y-4.7246
X7.8544Y-4.7639
X7.8544Y-4.8033
X7.8544Y-4.8427
X7.8544Y-4.882
X7.8544Y-5.3545
X7.8544Y-5.4726
X7.8544Y-5.512
X7.8544Y-5.5513
X7.8544Y-5.6694
X7.8544Y-5.7088
X7.8544Y-5.7482
X7.8544Y-5.7875
X7.8544Y-5.8269
X7.8544Y-5.8663
X7.8544Y-5.9057
X7.8544Y-5.945
X7.8544Y-5.9844
X7.8544Y-6.0238
X7.8701Y-3.9175
X7.8741Y-2.8309
X7.8741Y-2.8742
X7.8741Y-5.0553
X7.8741Y-5.3938
X7.8741Y-5.4332
X7.8741Y-5.5907
X7.8741Y-5.6301
X7.878Y-3.6222
X7.8819Y-4.3309
X7.8819Y-4.3702
X7.8937Y-3.6734
X7.8977Y-4.445
X7.9134Y-2.8742
X7.9174Y-3.9175
X7.9174Y-4.3505
X7.9174Y-5.0474
X7.9292Y-4.0592
X7.9331Y-3.4253
X7.941Y-3.5316
X7.941Y-3.6458
X7.9489Y-3.7442
X7.9528Y-4.3309
X7.9528Y-4.3702
X7.9607Y-5.0277
X7.9725Y-3.4647
X7.9961Y-5.0001
X8.0Y-4.3623
X8.0119Y-3.4253
X8.0119Y-4.5277
X8.0119Y-4.5671
X8.0119Y-4.6064
X8.0119Y-4.6458
X8.0119Y-4.6852
X8.0119Y-4.7246
X8.0119Y-4.7639
X8.0119Y-4.8033
X8.0119Y-4.8427
X8.0119Y-4.882
X8.0119Y-4.9214
X8.0119Y-4.9608
X8.0119Y-5.9057
X8.0119Y-5.9844
X8.0315Y-4.3623
X8.0512Y-2.2442
X8.0512Y-2.2836
X8.0512Y-3.4647
X8.0512Y-4.2757
X8.0512Y-4.4608
X8.0512Y-4.4962
X8.0512Y-5.0789
X8.0512Y-5.1183
X8.0512Y-5.1576
X8.0512Y-5.197
X8.0512Y-5.8663
X8.0512Y-5.945
X8.0512Y-6.0238
X8.0906Y-5.0395
X8.0906Y-5.2364
X8.0906Y-5.8663
X8.0906Y-6.0238
X8.1103Y-3.7954
X8.1103Y-3.8387
X8.13Y-5.8269
X8.1693Y-2.4017
X8.1693Y-2.4805
X8.1693Y-2.5592
X8.1693Y-2.6379
X8.1693Y-2.7167
X8.1693Y-2.7954
X8.1693Y-2.8742
X8.1693Y-2.9529
X8.1693Y-3.0316
X8.1693Y-3.1891
X8.1693Y-3.2679
X8.1693Y-3.3466
X8.1693Y-3.6222
X8.1693Y-3.7009
X8.1693Y-3.7797
X8.1693Y-3.8584
X8.1693Y-3.9371
X8.1693Y-4.0159
X8.1693Y-4.0946
X8.1693Y-4.1734
X8.1693Y-4.2521
X8.1693Y-4.3309
X8.1693Y-4.4096
X8.1693Y-4.4883
X8.1693Y-4.5671
X8.1693Y-4.6458
X8.1693Y-4.7246
X8.1693Y-4.8033
X8.1693Y-4.882
X8.1693Y-4.9608
X8.1693Y-5.0395
X8.1693Y-5.2364
X8.1693Y-5.3151
X8.1693Y-5.3938
X8.1693Y-5.4726
X8.1693Y-5.5513
X8.1693Y-5.6301
X8.1693Y-5.7088
X8.1693Y-5.7875
X8.1693Y-5.8663
X8.2087Y-2.4411
X8.2087Y-2.5198
X8.2087Y-2.5986
X8.2087Y-2.6773
X8.2087Y-2.756
X8.2087Y-2.8348
X8.2087Y-2.9135
X8.2087Y-2.9923
X8.2087Y-3.071
X8.2087Y-3.1497
X8.2087Y-3.2285
X8.2087Y-3.3072
X8.2087Y-3.386
X8.2087Y-3.5828
X8.2087Y-3.6616
X8.2087Y-3.7403
X8.2087Y-3.819
X8.2087Y-3.8978
X8.2087Y-3.9765
X8.2087Y-4.0553
X8.2087Y-4.134
X8.2087Y-4.2127
X8.2087Y-4.2915
X8.2087Y-4.3702
X8.2087Y-4.449
X8.2087Y-4.5277
X8.2087Y-4.6064
X8.2087Y-4.6852
X8.2087Y-4.7639
X8.2087Y-4.8427
X8.2087Y-4.9214
X8.2087Y-5.0001
X8.2087Y-5.2757
X8.2087Y-5.3545
X8.2087Y-5.4332
X8.2087Y-5.512
X8.2087Y-5.5907
X8.2087Y-5.6694
X8.2087Y-5.7482
X8.2087Y-5.8269
X8.2087Y-5.9057
T2
X5.8902Y-2.5984
X6.0142Y-2.5744
T5
X3.6587Y-2.5265
X3.6587Y-2.6265
X3.6587Y-2.7265
X3.6587Y-2.8265
X3.6587Y-2.9265
X3.6587Y-3.0265
X3.6587Y-3.1265
X3.6587Y-3.2265
X3.6587Y-3.3265
X3.6587Y-3.4265
X3.7587Y-2.5265
X3.7587Y-2.6265
X3.7587Y-2.7265
X3.7587Y-2.8265
X3.7587Y-2.9265
X3.7587Y-3.0265
X3.7587Y-3.1265
X3.7587Y-3.2265
X3.7587Y-3.3265
X3.7587Y-3.4265
X4.2823Y-2.4494
X4.3823Y-2.4494
X4.4823Y-2.4494
X4.5823Y-2.4494
X4.6823Y-2.4494
X4.7823Y-2.4494
X4.8823Y-2.4494
X4.9823Y-2.4494
X5.0823Y-2.4494
X5.1823Y-2.4494
T6
X5.8512Y-2.4469
X6.0787Y-2.4469
T7
X5.5319Y-2.3228
T3
G00X5.7949Y-2.315
M15
G01X5.7949Y-2.2913
M16
G05
G00X5.7949Y-2.4894
M15
G01X5.7949Y-2.4461
M16
G05
G00X6.135Y-2.315
M15
G01X6.135Y-2.2913
M16
G05
G00X6.135Y-2.4894
M15
G01X6.135Y-2.4461
M16
G05
T4
G00X5.3843Y-2.4961
M15
G01X5.3843Y-2.5433
M16
G05
G00X5.5339Y-2.4961
M15
G01X5.5339Y-2.5433
M16
G05
G00X5.6795Y-2.4961
M15
G01X5.6795Y-2.5433
M16
G05
T0
M30
