G04 #@! TF.GenerationSoftware,KiCad,Pcbnew,(5.1.7)-1*
G04 #@! TF.CreationDate,2020-10-25T18:45:03+01:00*
G04 #@! TF.ProjectId,VNA,564e412e-6b69-4636-9164-5f7063625858,0.1*
G04 #@! TF.SameCoordinates,Original*
G04 #@! TF.FileFunction,Paste,Bot*
G04 #@! TF.FilePolarity,Positive*
%FSLAX46Y46*%
G04 Gerber Fmt 4.6, Leading zero omitted, Abs format (unit mm)*
G04 Created by KiCad (PCBNEW (5.1.7)-1) date 2020-10-25 18:45:03*
%MOMM*%
%LPD*%
G01*
G04 APERTURE LIST*
%ADD10R,2.667000X4.191000*%
%ADD11R,2.286000X5.080000*%
G04 APERTURE END LIST*
G36*
G01*
X114866100Y-88003600D02*
X114866100Y-88003600D01*
G75*
G02*
X115501100Y-87368600I635000J0D01*
G01*
X115501100Y-87368600D01*
G75*
G02*
X116136100Y-88003600I0J-635000D01*
G01*
X116136100Y-88003600D01*
G75*
G02*
X115501100Y-88638600I-635000J0D01*
G01*
X115501100Y-88638600D01*
G75*
G02*
X114866100Y-88003600I0J635000D01*
G01*
G37*
G36*
G01*
X114866100Y-90003600D02*
X114866100Y-90003600D01*
G75*
G02*
X115501100Y-89368600I635000J0D01*
G01*
X115501100Y-89368600D01*
G75*
G02*
X116136100Y-90003600I0J-635000D01*
G01*
X116136100Y-90003600D01*
G75*
G02*
X115501100Y-90638600I-635000J0D01*
G01*
X115501100Y-90638600D01*
G75*
G02*
X114866100Y-90003600I0J635000D01*
G01*
G37*
G36*
G01*
X114866100Y-92003600D02*
X114866100Y-92003600D01*
G75*
G02*
X115501100Y-91368600I635000J0D01*
G01*
X115501100Y-91368600D01*
G75*
G02*
X116136100Y-92003600I0J-635000D01*
G01*
X116136100Y-92003600D01*
G75*
G02*
X115501100Y-92638600I-635000J0D01*
G01*
X115501100Y-92638600D01*
G75*
G02*
X114866100Y-92003600I0J635000D01*
G01*
G37*
G36*
G01*
X114866100Y-86003600D02*
X114866100Y-86003600D01*
G75*
G02*
X115501100Y-85368600I635000J0D01*
G01*
X115501100Y-85368600D01*
G75*
G02*
X116136100Y-86003600I0J-635000D01*
G01*
X116136100Y-86003600D01*
G75*
G02*
X115501100Y-86638600I-635000J0D01*
G01*
X115501100Y-86638600D01*
G75*
G02*
X114866100Y-86003600I0J635000D01*
G01*
G37*
G36*
G01*
X106866100Y-117003600D02*
X106866100Y-117003600D01*
G75*
G02*
X107501100Y-116368600I635000J0D01*
G01*
X107501100Y-116368600D01*
G75*
G02*
X108136100Y-117003600I0J-635000D01*
G01*
X108136100Y-117003600D01*
G75*
G02*
X107501100Y-117638600I-635000J0D01*
G01*
X107501100Y-117638600D01*
G75*
G02*
X106866100Y-117003600I0J635000D01*
G01*
G37*
G36*
G01*
X108866100Y-117003600D02*
X108866100Y-117003600D01*
G75*
G02*
X109501100Y-116368600I635000J0D01*
G01*
X109501100Y-116368600D01*
G75*
G02*
X110136100Y-117003600I0J-635000D01*
G01*
X110136100Y-117003600D01*
G75*
G02*
X109501100Y-117638600I-635000J0D01*
G01*
X109501100Y-117638600D01*
G75*
G02*
X108866100Y-117003600I0J635000D01*
G01*
G37*
G36*
G01*
X192866100Y-96003600D02*
X192866100Y-96003600D01*
G75*
G02*
X193501100Y-95368600I635000J0D01*
G01*
X193501100Y-95368600D01*
G75*
G02*
X194136100Y-96003600I0J-635000D01*
G01*
X194136100Y-96003600D01*
G75*
G02*
X193501100Y-96638600I-635000J0D01*
G01*
X193501100Y-96638600D01*
G75*
G02*
X192866100Y-96003600I0J635000D01*
G01*
G37*
G36*
G01*
X193866100Y-99003600D02*
X193866100Y-99003600D01*
G75*
G02*
X194501100Y-98368600I635000J0D01*
G01*
X194501100Y-98368600D01*
G75*
G02*
X195136100Y-99003600I0J-635000D01*
G01*
X195136100Y-99003600D01*
G75*
G02*
X194501100Y-99638600I-635000J0D01*
G01*
X194501100Y-99638600D01*
G75*
G02*
X193866100Y-99003600I0J635000D01*
G01*
G37*
G36*
G01*
X122866100Y-110003600D02*
X122866100Y-110003600D01*
G75*
G02*
X123501100Y-109368600I635000J0D01*
G01*
X123501100Y-109368600D01*
G75*
G02*
X124136100Y-110003600I0J-635000D01*
G01*
X124136100Y-110003600D01*
G75*
G02*
X123501100Y-110638600I-635000J0D01*
G01*
X123501100Y-110638600D01*
G75*
G02*
X122866100Y-110003600I0J635000D01*
G01*
G37*
G36*
G01*
X118866100Y-110003600D02*
X118866100Y-110003600D01*
G75*
G02*
X119501100Y-109368600I635000J0D01*
G01*
X119501100Y-109368600D01*
G75*
G02*
X120136100Y-110003600I0J-635000D01*
G01*
X120136100Y-110003600D01*
G75*
G02*
X119501100Y-110638600I-635000J0D01*
G01*
X119501100Y-110638600D01*
G75*
G02*
X118866100Y-110003600I0J635000D01*
G01*
G37*
G36*
G01*
X173166100Y-93703600D02*
X173166100Y-93703600D01*
G75*
G02*
X173801100Y-93068600I635000J0D01*
G01*
X173801100Y-93068600D01*
G75*
G02*
X174436100Y-93703600I0J-635000D01*
G01*
X174436100Y-93703600D01*
G75*
G02*
X173801100Y-94338600I-635000J0D01*
G01*
X173801100Y-94338600D01*
G75*
G02*
X173166100Y-93703600I0J635000D01*
G01*
G37*
G36*
G01*
X176866100Y-100003600D02*
X176866100Y-100003600D01*
G75*
G02*
X177501100Y-99368600I635000J0D01*
G01*
X177501100Y-99368600D01*
G75*
G02*
X178136100Y-100003600I0J-635000D01*
G01*
X178136100Y-100003600D01*
G75*
G02*
X177501100Y-100638600I-635000J0D01*
G01*
X177501100Y-100638600D01*
G75*
G02*
X176866100Y-100003600I0J635000D01*
G01*
G37*
G36*
G01*
X93136100Y-99503600D02*
X93136100Y-99503600D01*
G75*
G02*
X92501100Y-100138600I-635000J0D01*
G01*
X92501100Y-100138600D01*
G75*
G02*
X91866100Y-99503600I0J635000D01*
G01*
X91866100Y-99503600D01*
G75*
G02*
X92501100Y-98868600I635000J0D01*
G01*
X92501100Y-98868600D01*
G75*
G02*
X93136100Y-99503600I0J-635000D01*
G01*
G37*
G36*
G01*
X200136100Y-93303600D02*
X200136100Y-93303600D01*
G75*
G02*
X199501100Y-93938600I-635000J0D01*
G01*
X199501100Y-93938600D01*
G75*
G02*
X198866100Y-93303600I0J635000D01*
G01*
X198866100Y-93303600D01*
G75*
G02*
X199501100Y-92668600I635000J0D01*
G01*
X199501100Y-92668600D01*
G75*
G02*
X200136100Y-93303600I0J-635000D01*
G01*
G37*
G36*
G01*
X122136100Y-110003600D02*
X122136100Y-110003600D01*
G75*
G02*
X121501100Y-110638600I-635000J0D01*
G01*
X121501100Y-110638600D01*
G75*
G02*
X120866100Y-110003600I0J635000D01*
G01*
X120866100Y-110003600D01*
G75*
G02*
X121501100Y-109368600I635000J0D01*
G01*
X121501100Y-109368600D01*
G75*
G02*
X122136100Y-110003600I0J-635000D01*
G01*
G37*
G36*
G01*
X164136100Y-100003600D02*
X164136100Y-100003600D01*
G75*
G02*
X163501100Y-100638600I-635000J0D01*
G01*
X163501100Y-100638600D01*
G75*
G02*
X162866100Y-100003600I0J635000D01*
G01*
X162866100Y-100003600D01*
G75*
G02*
X163501100Y-99368600I635000J0D01*
G01*
X163501100Y-99368600D01*
G75*
G02*
X164136100Y-100003600I0J-635000D01*
G01*
G37*
G36*
G01*
X161136100Y-97003600D02*
X161136100Y-97003600D01*
G75*
G02*
X160501100Y-97638600I-635000J0D01*
G01*
X160501100Y-97638600D01*
G75*
G02*
X159866100Y-97003600I0J635000D01*
G01*
X159866100Y-97003600D01*
G75*
G02*
X160501100Y-96368600I635000J0D01*
G01*
X160501100Y-96368600D01*
G75*
G02*
X161136100Y-97003600I0J-635000D01*
G01*
G37*
G36*
G01*
X172136100Y-134303600D02*
X172136100Y-134303600D01*
G75*
G02*
X171501100Y-134938600I-635000J0D01*
G01*
X171501100Y-134938600D01*
G75*
G02*
X170866100Y-134303600I0J635000D01*
G01*
X170866100Y-134303600D01*
G75*
G02*
X171501100Y-133668600I635000J0D01*
G01*
X171501100Y-133668600D01*
G75*
G02*
X172136100Y-134303600I0J-635000D01*
G01*
G37*
G36*
G01*
X166766100Y-123003600D02*
X166766100Y-123003600D01*
G75*
G02*
X167401100Y-122368600I635000J0D01*
G01*
X167401100Y-122368600D01*
G75*
G02*
X168036100Y-123003600I0J-635000D01*
G01*
X168036100Y-123003600D01*
G75*
G02*
X167401100Y-123638600I-635000J0D01*
G01*
X167401100Y-123638600D01*
G75*
G02*
X166766100Y-123003600I0J635000D01*
G01*
G37*
D10*
X179006500Y-58315400D03*
X185995700Y-58315400D03*
X195006500Y-58315400D03*
X201995700Y-58315400D03*
D11*
X103920700Y-151338200D03*
X95081500Y-151338200D03*
X201920700Y-151338200D03*
X193081500Y-151338200D03*
M02*
