<?xml version="1.0" encoding="iso-8859-1"?>
<!-- Generator: Adobe Illustrator 18.0.0, SVG Export Plug-In . SVG Version: 6.00 Build 0)  -->
<!DOCTYPE svg PUBLIC "-//W3C//DTD SVG 1.1//EN" "http://www.w3.org/Graphics/SVG/1.1/DTD/svg11.dtd">
<svg version="1.1" id="Capa_1" xmlns="http://www.w3.org/2000/svg" xmlns:xlink="http://www.w3.org/1999/xlink" x="0px" y="0px"
	 viewBox="0 0 365.368 365.368" style="enable-background:new 0 0 365.368 365.368;" xml:space="preserve">
<g>
	<path style="fill:#231F20;" d="M363.171,177.381L311.1,125.309c-1.406-1.407-3.314-2.197-5.303-2.197
		c-1.989,0-3.897,0.79-5.303,2.197l-14.143,14.143c-1.407,1.406-2.197,3.314-2.197,5.303c0,1.989,0.79,3.897,2.197,5.303
		l15.126,15.125h-52.543v-95.5c0-4.142-3.358-7.5-7.5-7.5h-20c-4.142,0-7.5,3.358-7.5,7.5v226c0,4.142,3.358,7.5,7.5,7.5h20
		c4.142,0,7.5-3.358,7.5-7.5v-95.5h52.543l-15.126,15.126c-1.407,1.406-2.197,3.314-2.197,5.303c0,1.989,0.79,3.897,2.197,5.303
		l14.143,14.143c1.406,1.407,3.314,2.197,5.303,2.197c1.989,0,3.897-0.79,5.303-2.197l52.071-52.071
		C366.1,185.058,366.1,180.309,363.171,177.381z"/>
	<path style="fill:#231F20;" d="M143.934,62.184h-20c-4.142,0-7.5,3.358-7.5,7.5v95.5H63.891l15.126-15.125
		c2.929-2.929,2.929-7.677,0-10.606l-14.142-14.143c-1.407-1.406-3.315-2.197-5.304-2.197c-1.989,0-3.897,0.79-5.303,2.197
		L2.197,177.381C0.79,178.787,0,180.695,0,182.684c0,1.989,0.79,3.897,2.197,5.303l52.072,52.071
		c1.407,1.407,3.314,2.197,5.303,2.197c1.989,0,3.897-0.79,5.304-2.197l14.142-14.143c2.929-2.929,2.928-7.678,0-10.606
		l-15.126-15.126h52.543v95.5c0,4.142,3.358,7.5,7.5,7.5h20c4.142,0,7.5-3.358,7.5-7.5v-226
		C151.434,65.542,148.076,62.184,143.934,62.184z"/>
</g>
<g>
</g>
<g>
</g>
<g>
</g>
<g>
</g>
<g>
</g>
<g>
</g>
<g>
</g>
<g>
</g>
<g>
</g>
<g>
</g>
<g>
</g>
<g>
</g>
<g>
</g>
<g>
</g>
<g>
</g>
</svg>
