<?xml version="1.0" encoding="UTF-8"?>
<svg xmlns="http://www.w3.org/2000/svg" xmlns:xlink="http://www.w3.org/1999/xlink" width="113.386pt" height="113.386pt" viewBox="0 0 113.386 113.386" version="1.1">
<defs>
<clipPath id="clip1">
  <path d="M 0 28 L 113.386719 28 L 113.386719 29 L 0 29 Z M 0 28 "/>
</clipPath>
</defs>
<g id="surface1">
<g clip-path="url(#clip1)" clip-rule="nonzero">
<path style="fill:none;stroke-width:0.3985;stroke-linecap:butt;stroke-linejoin:miter;stroke:rgb(0%,0%,0%);stroke-opacity:1;stroke-miterlimit:10;" d="M 0 85.04225 L 28.347656 85.04225 M 28.347656 85.04225 L 85.039062 85.04225 M 85.039062 85.04225 L 113.386719 85.04225 " transform="matrix(1,0,0,-1,0,113.386)"/>
</g>
<path style="fill-rule:nonzero;fill:rgb(0%,0%,0%);fill-opacity:1;stroke-width:0.3985;stroke-linecap:butt;stroke-linejoin:miter;stroke:rgb(0%,0%,0%);stroke-opacity:1;stroke-miterlimit:10;" d="M 58.28125 85.04225 C 58.28125 85.91725 57.570312 86.628187 56.695312 86.628187 C 55.816406 86.628187 55.105469 85.91725 55.105469 85.04225 C 55.105469 84.163344 55.816406 83.452406 56.695312 83.452406 C 57.570312 83.452406 58.28125 84.163344 58.28125 85.04225 Z M 58.28125 85.04225 " transform="matrix(1,0,0,-1,0,113.386)"/>
<path style="fill:none;stroke-width:0.3985;stroke-linecap:butt;stroke-linejoin:miter;stroke:rgb(0%,0%,0%);stroke-opacity:1;stroke-miterlimit:10;" d="M 56.695312 85.04225 L 56.695312 72.569594 M 56.695312 40.819594 L 56.695312 28.346937 " transform="matrix(1,0,0,-1,0,113.386)"/>
<path style="fill:none;stroke-width:0.797;stroke-linecap:butt;stroke-linejoin:bevel;stroke:rgb(0%,0%,0%);stroke-opacity:1;stroke-miterlimit:10;" d="M 56.535156 72.968031 C 59.820312 72.968031 62.488281 71.143812 62.488281 68.897719 C 62.488281 66.651625 59.820312 64.831312 56.535156 64.831312 C 59.820312 64.831312 62.488281 63.007094 62.488281 60.761 C 62.488281 58.514906 59.820312 56.694594 56.535156 56.694594 C 59.820312 56.694594 62.488281 54.870375 62.488281 52.624281 C 62.488281 50.378187 59.820312 48.557875 56.535156 48.557875 C 59.820312 48.557875 62.488281 46.737562 62.488281 44.487562 C 62.488281 42.241469 59.820312 40.421156 56.535156 40.421156 " transform="matrix(1,0,0,-1,0,113.386)"/>
<path style="fill:none;stroke-width:0.3985;stroke-linecap:butt;stroke-linejoin:miter;stroke:rgb(0%,0%,0%);stroke-opacity:1;stroke-miterlimit:10;" d="M 56.695312 28.346937 L 56.695312 16.440687 " transform="matrix(1,0,0,-1,0,113.386)"/>
<path style="fill:none;stroke-width:0.797;stroke-linecap:butt;stroke-linejoin:miter;stroke:rgb(0%,0%,0%);stroke-opacity:1;stroke-miterlimit:10;" d="M 50.742188 16.440687 L 62.644531 16.440687 M 52.726562 14.456312 L 60.660156 14.456312 M 54.214844 12.471937 L 59.175781 12.471937 " transform="matrix(1,0,0,-1,0,113.386)"/>
</g>
</svg>
