<?xml version="1.0" encoding="windows-1252"?>
<!-- Generator: Adobe Illustrator 18.1.1, SVG Export Plug-In . SVG Version: 6.00 Build 0)  -->
<svg version="1.1" id="Capa_1" xmlns="http://www.w3.org/2000/svg" xmlns:xlink="http://www.w3.org/1999/xlink" x="0px" y="0px" viewBox="0 0 266.514 266.514" style="enable-background:new 0 0 266.514 266.514;" xml:space="preserve">
<g>
	<g>
		<g>
			<path style="fill:#010002;" d="M133.257,266.514C59.775,266.514,0,206.733,0,133.257S59.775,0,133.257,0     s133.257,59.781,133.257,133.257S206.739,266.514,133.257,266.514z M133.257,10.878c-67.477,0-122.379,54.896-122.379,122.379     S65.78,255.636,133.257,255.636s122.379-54.896,122.379-122.379S200.734,10.878,133.257,10.878z"/>
		</g>
		<path style="fill:#010002;" d="M210.35,127.818h-71.654V56.164c0-3.002-2.431-5.439-5.439-5.439c-3.008,0-5.439,2.437-5.439,5.439    v71.654H56.164c-3.002,0-5.439,2.437-5.439,5.439c0,3.002,2.437,5.439,5.439,5.439h71.654v71.649c0,3.002,2.431,5.439,5.439,5.439    c3.008,0,5.439-2.437,5.439-5.439v-71.649h71.654c3.002,0,5.439-2.437,5.439-5.439    C215.789,130.255,213.353,127.818,210.35,127.818z"/>
	</g>
</g>
<g>
</g>
<g>
</g>
<g>
</g>
<g>
</g>
<g>
</g>
<g>
</g>
<g>
</g>
<g>
</g>
<g>
</g>
<g>
</g>
<g>
</g>
<g>
</g>
<g>
</g>
<g>
</g>
<g>
</g>
</svg>