<?xml version="1.0" ?><!DOCTYPE svg  PUBLIC '-//W3C//DTD SVG 1.1//EN'  'http://www.w3.org/Graphics/SVG/1.1/DTD/svg11.dtd'><svg enable-background="new 0 0 167 93" height="93px" id="Layer_1" version="1.1" viewBox="0 0 167 93" width="167px" xml:space="preserve" xmlns="http://www.w3.org/2000/svg" xmlns:xlink="http://www.w3.org/1999/xlink"><g><path d="M83.25,29.25c-9.649,0-17.5,7.851-17.5,17.5s7.851,17.5,17.5,17.5s17.5-7.851,17.5-17.5   S92.899,29.25,83.25,29.25z" fill="#231F20"/><path d="M83.25,0.75c-45.84,0-83,46-83,46s37.16,46,83,46s83-46,83-46S129.09,0.75,83.25,0.75z M83.25,81.25   c-19.054,0-34.5-15.445-34.5-34.5c0-19.054,15.446-34.5,34.5-34.5s34.5,15.446,34.5,34.5C117.75,65.805,102.304,81.25,83.25,81.25z   " fill="#231F20"/></g></svg>