<?xml version="1.0" encoding="UTF-8"?>
<svg width="59.531mm" height="59.531mm" version="1.1" viewBox="0 0 59.531 59.531" xmlns="http://www.w3.org/2000/svg" xmlns:cc="http://creativecommons.org/ns#" xmlns:dc="http://purl.org/dc/elements/1.1/" xmlns:rdf="http://www.w3.org/1999/02/22-rdf-syntax-ns#">
 <metadata>
  <rdf:RDF>
   <cc:Work rdf:about="">
    <dc:format>image/svg+xml</dc:format>
    <dc:type rdf:resource="http://purl.org/dc/dcmitype/StillImage"/>
    <dc:title/>
   </cc:Work>
  </rdf:RDF>
 </metadata>
 <g transform="translate(-86.897 77.607)">
  <g stroke="#000" stroke-linecap="round" stroke-width="1.2965">
   <path d="m116.66-18.917a29.116 29.021 0 0 1-29.116-28.895 29.116 29.021 0 0 1 28.863-29.146 29.116 29.021 0 0 1 29.367 28.642 29.116 29.021 0 0 1-28.608 29.395" fill="#a38300" stop-color="#000000" style="paint-order:stroke fill markers"/>
   <path d="m99.476-57.91a23.403 23.48 90 0 1 33.096-1.5564 23.403 23.48 90 0 1 1.7052 32.981 23.403 23.48 90 0 1-33.081 1.8428 23.403 23.48 90 0 1-1.9924-32.965" fill="#cca300" fill-opacity=".87843" stop-color="#000000" stroke-opacity=".95332" style="paint-order:stroke fill markers"/>
   <path d="m116.83-19.035a16.741 16.687 0 0 1-16.741-16.614 16.741 16.687 0 0 1 16.596-16.759 16.741 16.687 0 0 1 16.885 16.469 16.741 16.687 0 0 1-16.449 16.902" fill="#a38300" stop-color="#000000" stroke-opacity=".76863" style="paint-order:stroke fill markers"/>
   <path d="m116.81-19.039a10.405 10.371 0 0 1-10.405-10.326 10.405 10.371 0 0 1 10.315-10.416 10.405 10.371 0 0 1 10.495 10.236 10.405 10.371 0 0 1-10.224 10.505" fill="#cca300" fill-opacity=".87843" stop-color="#000000" stroke-opacity=".76906" style="paint-order:stroke fill markers"/>
  </g>
  <g transform="matrix(.30769 0 0 .30669 84.778 -76.546)" fill="#e3dbdb" stroke-width=".38977" aria-label="LibreVNA">
   <path d="m63.347 39.076-10.914 8.5033-12.145-15.588 3.1199-2.4307 9.7144 12.469 7.7942-6.0726z"/>
   <path d="m59.611 19.98q0.25742 0.45602 0.30095 0.95364 0.05554 0.49085-0.07512 0.96022-0.13743 0.45736-0.44384 0.86769-0.30118 0.39155-0.7572 0.64897-0.45602 0.25742-0.95887 0.31973-0.49763 0.04354-0.96022-0.07512-0.45736-0.13743-0.86092-0.43184-0.39155-0.30118-0.64897-0.7572-0.25064-0.44402-0.30618-0.93487-0.05031-0.50963 0.07512-0.96022 0.13066-0.46936 0.43184-0.86092 0.3064-0.41033 0.76242-0.66774 0.45602-0.25742 0.95365-0.30095 0.50285-0.06231 0.97222 0.06835 0.46259 0.11866 0.86092 0.43184 0.40355 0.2944 0.65419 0.73842zm8.6623 16.663-3.3001 1.8629-7.255-12.853 3.3001-1.8629z"/>
   <path d="m81.913 22.848q0.6097 1.6258 0.55813 3.1757-0.05158 1.55-0.64347 2.8758-0.59674 1.3129-1.6886 2.3258-1.079 1.0081-2.5499 1.5597-1.458 0.5468-2.9516 0.48877-1.4806-0.06287-2.8113-0.66767-1.3177-0.60964-2.371-1.7306-1.0581-1.1338-1.6581-2.7338l-4.6066-12.284 3.5354-1.3259 2.4195 6.4515q0.14837-0.46774 0.44191-0.90161 0.30644-0.43871 0.7032-0.79355 0.40966-0.35968 0.879-0.63872 0.4645-0.29194 0.94191-0.47098 1.4709-0.55164 2.9564-0.47586 1.4935 0.05803 2.8161 0.68057 1.3226 0.62254 2.3806 1.7564 1.0532 1.1209 1.6484 2.708zm-3.5483 1.3307q-0.30001-0.79998-0.84034-1.3774-0.53226-0.59514-1.1984-0.91931t-1.4177-0.36609q-0.7387-0.04676-1.4613 0.22422-0.72256 0.27098-1.2467 0.8355-0.51611 0.54678-0.79512 1.2548-0.28385 0.69516-0.29835 1.4806-0.01934 0.77257 0.25164 1.4951 0.30001 0.79998 0.82744 1.3822 0.52742 0.58224 1.1935 0.90641t1.4097 0.38383q0.7516 0.04192 1.4742-0.22906 0.72256-0.27098 1.2483-0.79195 0.53385-0.53871 0.82254-1.221 0.28869-0.68225 0.30319-1.4677 0.0274-0.79031-0.27261-1.5903z"/>
   <path d="m90.38 28.992-3.7064 0.64495-2.5302-14.54 0.89604-0.15592 1.5219 1.5116q0.7543-0.97051 1.8191-1.6034 1.0625-0.64647 2.2843-0.85909l3.2719-0.56935 0.64259 3.6928-3.2719 0.56935q-0.58378 0.10159-1.0619 0.40858t-0.7921 0.75328q-0.31399 0.44629-0.44144 0.99999t-0.02586 1.1375z"/>
   <path d="m103.82 24.149q0.22057 0.06863 0.44109 0.09593 0.22051 0.01351 0.44099 0.01325 0.55122-6.67e-4 1.0609-0.15287 0.50969-0.1522 0.95033-0.42834 0.45441-0.28994 0.79843-0.68999 0.35779-0.41385 0.57768-0.91021l2.7594 2.7665q-0.52275 0.74478-1.2111 1.3382-0.67452 0.59337-1.4733 1.0078-0.78499 0.41436-1.6667 0.62214-0.8679 0.22154-1.7912 0.22265-1.5572 0.0019-2.9359-0.57523-1.365-0.57713-2.3997-1.6094-1.021-1.0323-1.6153-2.451-0.59429-1.4324-0.59636-3.1412-0.0021-1.7501 0.58869-3.1978 0.59081-1.4477 1.6093-2.4686 1.0323-1.021 2.3959-1.5876 1.3774-0.56666 2.9346-0.56855 0.92329-0.0011 1.8055 0.2183 0.88221 0.21942 1.6682 0.63188 0.79976 0.41245 1.4895 1.018 0.68974 0.59172 1.2143 1.3352zm1.9199-7.7607q-0.26194-0.09615-0.5238-0.12339-0.24808-0.02726-0.52369-0.02693-0.7717 9.33e-4 -1.4604 0.29116-0.67491 0.27643-1.1842 0.8007-0.49546 0.52426-0.78395 1.2687-0.28851 0.73071-0.28739 1.654 2.5e-4 0.20671 0.0144 0.46852 0.0279 0.26179 0.0695 0.53735 0.0554 0.26176 0.12464 0.50972 0.0692 0.24796 0.17968 0.44076z"/>
   <path d="m132.01 11.744-10.384 18.022-3.8719-0.80649-2.2976-20.664 4.398 0.91608 1.1692 13.714 6.5611-12.104z"/>
   <path d="m144.09 38.576-3.8187-1.8209-1.2794-15.022-5.5991 11.742-3.5699-1.7023 8.5055-17.837 3.8187 1.8209 1.2735 15.035 5.6051-11.755 3.5699 1.7023z"/>
   <path d="m161.2 42.054 2.542-3.0299q0.52256-0.62287 0.74031-1.3756 0.23717-0.75438 0.17087-1.5115t-0.43098-1.4588q-0.34526-0.70338-0.96813-1.2259-0.62287-0.52257-1.3861-0.74918-0.74382-0.22831-1.501-0.16201-0.75716 0.0663-1.4694 0.42212-0.69283 0.35412-1.2154 0.97699l-2.542 3.0299zm-2.0452 8.5912-3.0299-2.542 2.542-3.0299-6.0598-5.0839-2.542 3.0299-3.0193-2.5331 7.617-9.0791q1.054-1.2563 2.4502-1.9557 1.4051-0.70993 2.9088-0.8514 1.5143-0.13261 3.0108 0.31346 1.5071 0.45492 2.7634 1.5089 1.2563 1.054 1.9557 2.4502 0.70994 1.4051 0.84254 2.9194 0.13261 1.5143-0.32231 3.0214-0.44606 1.4965-1.5 2.7528z"/>
  </g>
  <path d="m88.935-56.792a29.116 29.021 0 0 0-1.3876 8.9793 29.116 29.021 0 0 0 29.116 28.895l0.13372-0.0012a28.541 18.773 50.735 0 0 0.27492-3.7453 28.541 18.773 50.735 0 0-23.385-32.659 28.541 18.773 50.735 0 0-4.7521-1.4692z" fill="none" stop-color="#000000" stroke="#000" stroke-linecap="round" stroke-linejoin="round" stroke-opacity=".9" stroke-width="1.297" style="paint-order:stroke fill markers"/>
  <path d="m144.44-56.641a18.773 28.541 39.265 0 0-3.8633 1.2365l-0.4026 0.16609a18.773 28.541 39.265 0 0-23.185 32.777 18.773 28.541 39.265 0 0 0.27586 3.5387 29.116 29.021 0 0 0 28.513-29.393 29.116 29.021 0 0 0-1.3375-8.325z" fill="none" stop-color="#000000" stroke="#000" stroke-linecap="square" stroke-opacity=".9" stroke-width="1.2965" style="paint-order:stroke fill markers"/>
 </g>
</svg>
