G04 #@! TF.GenerationSoftware,KiCad,Pcbnew,(5.1.7)-1*
G04 #@! TF.CreationDate,2020-10-25T18:45:03+01:00*
G04 #@! TF.ProjectId,VNA,564e412e-6b69-4636-9164-5f7063625858,0.1*
G04 #@! TF.SameCoordinates,Original*
G04 #@! TF.FileFunction,Legend,Top*
G04 #@! TF.FilePolarity,Positive*
%FSLAX46Y46*%
G04 Gerber Fmt 4.6, Leading zero omitted, Abs format (unit mm)*
G04 Created by KiCad (PCBNEW (5.1.7)-1) date 2020-10-25 18:45:03*
%MOMM*%
%LPD*%
G01*
G04 APERTURE LIST*
%ADD10C,0.081280*%
%ADD11C,0.065024*%
%ADD12C,0.113792*%
%ADD13C,0.127000*%
%ADD14C,0.200000*%
%ADD15C,0.400000*%
%ADD16C,0.152400*%
%ADD17C,0.762000*%
%ADD18C,0.120000*%
%ADD19C,0.250000*%
%ADD20C,0.254000*%
%ADD21C,0.317500*%
%ADD22C,0.203200*%
%ADD23C,0.223606*%
%ADD24C,0.050800*%
%ADD25C,0.015000*%
G04 APERTURE END LIST*
D10*
X108155138Y-66630298D02*
X108155138Y-66078755D01*
X109120338Y-66354527D02*
X108155138Y-66354527D01*
X109028414Y-65205479D02*
X109074376Y-65251441D01*
X109120338Y-65389327D01*
X109120338Y-65481251D01*
X109074376Y-65619136D01*
X108982452Y-65711060D01*
X108890528Y-65757022D01*
X108706680Y-65802984D01*
X108568795Y-65802984D01*
X108384947Y-65757022D01*
X108293023Y-65711060D01*
X108201100Y-65619136D01*
X108155138Y-65481251D01*
X108155138Y-65389327D01*
X108201100Y-65251441D01*
X108247061Y-65205479D01*
X109120338Y-64791822D02*
X108155138Y-64791822D01*
X109120338Y-64240279D02*
X108568795Y-64653936D01*
X108155138Y-64240279D02*
X108706680Y-64791822D01*
X110755138Y-66676260D02*
X110755138Y-66124717D01*
X111720338Y-66400489D02*
X110755138Y-66400489D01*
X111720338Y-65802984D02*
X110755138Y-65802984D01*
X110755138Y-65573174D01*
X110801100Y-65435289D01*
X110893023Y-65343365D01*
X110984947Y-65297403D01*
X111168795Y-65251441D01*
X111306680Y-65251441D01*
X111490528Y-65297403D01*
X111582452Y-65343365D01*
X111674376Y-65435289D01*
X111720338Y-65573174D01*
X111720338Y-65802984D01*
X110755138Y-64653936D02*
X110755138Y-64470089D01*
X110801100Y-64378165D01*
X110893023Y-64286241D01*
X111076871Y-64240279D01*
X111398604Y-64240279D01*
X111582452Y-64286241D01*
X111674376Y-64378165D01*
X111720338Y-64470089D01*
X111720338Y-64653936D01*
X111674376Y-64745860D01*
X111582452Y-64837784D01*
X111398604Y-64883746D01*
X111076871Y-64883746D01*
X110893023Y-64837784D01*
X110801100Y-64745860D01*
X110755138Y-64653936D01*
X113255138Y-66124717D02*
X113255138Y-65573174D01*
X114220338Y-65848946D02*
X113255138Y-65848946D01*
X114220338Y-65251441D02*
X113255138Y-65251441D01*
X113255138Y-65021632D01*
X113301100Y-64883746D01*
X113393023Y-64791822D01*
X113484947Y-64745860D01*
X113668795Y-64699898D01*
X113806680Y-64699898D01*
X113990528Y-64745860D01*
X114082452Y-64791822D01*
X114174376Y-64883746D01*
X114220338Y-65021632D01*
X114220338Y-65251441D01*
X114220338Y-64286241D02*
X113255138Y-64286241D01*
X115855138Y-66722222D02*
X115855138Y-66170679D01*
X116820338Y-66446451D02*
X115855138Y-66446451D01*
X116820338Y-65848946D02*
X115855138Y-65848946D01*
X116544566Y-65527212D01*
X115855138Y-65205479D01*
X116820338Y-65205479D01*
X116774376Y-64791822D02*
X116820338Y-64653936D01*
X116820338Y-64424127D01*
X116774376Y-64332203D01*
X116728414Y-64286241D01*
X116636490Y-64240279D01*
X116544566Y-64240279D01*
X116452642Y-64286241D01*
X116406680Y-64332203D01*
X116360719Y-64424127D01*
X116314757Y-64607974D01*
X116268795Y-64699898D01*
X116222833Y-64745860D01*
X116130909Y-64791822D01*
X116038985Y-64791822D01*
X115947061Y-64745860D01*
X115901100Y-64699898D01*
X115855138Y-64607974D01*
X115855138Y-64378165D01*
X115901100Y-64240279D01*
X119052642Y-67687422D02*
X119052642Y-66952032D01*
X119420338Y-67319727D02*
X118684947Y-67319727D01*
X118455138Y-66584336D02*
X118455138Y-65986832D01*
X118822833Y-66308565D01*
X118822833Y-66170679D01*
X118868795Y-66078755D01*
X118914757Y-66032793D01*
X119006680Y-65986832D01*
X119236490Y-65986832D01*
X119328414Y-66032793D01*
X119374376Y-66078755D01*
X119420338Y-66170679D01*
X119420338Y-66446451D01*
X119374376Y-66538374D01*
X119328414Y-66584336D01*
X118455138Y-65711060D02*
X119420338Y-65389327D01*
X118455138Y-65067593D01*
X118455138Y-64837784D02*
X118455138Y-64240279D01*
X118822833Y-64562012D01*
X118822833Y-64424127D01*
X118868795Y-64332203D01*
X118914757Y-64286241D01*
X119006680Y-64240279D01*
X119236490Y-64240279D01*
X119328414Y-64286241D01*
X119374376Y-64332203D01*
X119420338Y-64424127D01*
X119420338Y-64699898D01*
X119374376Y-64791822D01*
X119328414Y-64837784D01*
D11*
X121799720Y-67686048D02*
X121836490Y-67575739D01*
X121836490Y-67391892D01*
X121799720Y-67318353D01*
X121762951Y-67281583D01*
X121689412Y-67244814D01*
X121615873Y-67244814D01*
X121542334Y-67281583D01*
X121505564Y-67318353D01*
X121468795Y-67391892D01*
X121432025Y-67538970D01*
X121395256Y-67612509D01*
X121358486Y-67649278D01*
X121284947Y-67686048D01*
X121211408Y-67686048D01*
X121137869Y-67649278D01*
X121101100Y-67612509D01*
X121064330Y-67538970D01*
X121064330Y-67355122D01*
X121101100Y-67244814D01*
X121064330Y-66987427D02*
X121836490Y-66803579D01*
X121284947Y-66656501D01*
X121836490Y-66509423D01*
X121064330Y-66325576D01*
X121762951Y-65590185D02*
X121799720Y-65626955D01*
X121836490Y-65737263D01*
X121836490Y-65810802D01*
X121799720Y-65921111D01*
X121726181Y-65994650D01*
X121652642Y-66031419D01*
X121505564Y-66068189D01*
X121395256Y-66068189D01*
X121248178Y-66031419D01*
X121174639Y-65994650D01*
X121101100Y-65921111D01*
X121064330Y-65810802D01*
X121064330Y-65737263D01*
X121101100Y-65626955D01*
X121137869Y-65590185D01*
X121836490Y-64891564D02*
X121836490Y-65259259D01*
X121064330Y-65259259D01*
X121836490Y-64634177D02*
X121064330Y-64634177D01*
X121836490Y-64192943D02*
X121395256Y-64523869D01*
X121064330Y-64192943D02*
X121505564Y-64634177D01*
D10*
X123501100Y-66262603D02*
X123455138Y-66354527D01*
X123455138Y-66492412D01*
X123501100Y-66630298D01*
X123593023Y-66722222D01*
X123684947Y-66768184D01*
X123868795Y-66814146D01*
X124006680Y-66814146D01*
X124190528Y-66768184D01*
X124282452Y-66722222D01*
X124374376Y-66630298D01*
X124420338Y-66492412D01*
X124420338Y-66400489D01*
X124374376Y-66262603D01*
X124328414Y-66216641D01*
X124006680Y-66216641D01*
X124006680Y-66400489D01*
X124420338Y-65802984D02*
X123455138Y-65802984D01*
X124420338Y-65251441D01*
X123455138Y-65251441D01*
X124420338Y-64791822D02*
X123455138Y-64791822D01*
X123455138Y-64562012D01*
X123501100Y-64424127D01*
X123593023Y-64332203D01*
X123684947Y-64286241D01*
X123868795Y-64240279D01*
X124006680Y-64240279D01*
X124190528Y-64286241D01*
X124282452Y-64332203D01*
X124374376Y-64424127D01*
X124420338Y-64562012D01*
X124420338Y-64791822D01*
D11*
X126799720Y-67565431D02*
X126836490Y-67455122D01*
X126836490Y-67271275D01*
X126799720Y-67197736D01*
X126762951Y-67160966D01*
X126689412Y-67124197D01*
X126615873Y-67124197D01*
X126542334Y-67160966D01*
X126505564Y-67197736D01*
X126468795Y-67271275D01*
X126432025Y-67418353D01*
X126395256Y-67491892D01*
X126358486Y-67528661D01*
X126284947Y-67565431D01*
X126211408Y-67565431D01*
X126137869Y-67528661D01*
X126101100Y-67491892D01*
X126064330Y-67418353D01*
X126064330Y-67234505D01*
X126101100Y-67124197D01*
X126064330Y-66866810D02*
X126836490Y-66682962D01*
X126284947Y-66535884D01*
X126836490Y-66388806D01*
X126064330Y-66204958D01*
X126836490Y-65910802D02*
X126064330Y-65910802D01*
X126064330Y-65726955D01*
X126101100Y-65616646D01*
X126174639Y-65543107D01*
X126248178Y-65506337D01*
X126395256Y-65469568D01*
X126505564Y-65469568D01*
X126652642Y-65506337D01*
X126726181Y-65543107D01*
X126799720Y-65616646D01*
X126836490Y-65726955D01*
X126836490Y-65910802D01*
X126836490Y-65138642D02*
X126064330Y-65138642D01*
X126064330Y-64623869D02*
X126064330Y-64476791D01*
X126101100Y-64403252D01*
X126174639Y-64329713D01*
X126321717Y-64292943D01*
X126579103Y-64292943D01*
X126726181Y-64329713D01*
X126799720Y-64403252D01*
X126836490Y-64476791D01*
X126836490Y-64623869D01*
X126799720Y-64697408D01*
X126726181Y-64770947D01*
X126579103Y-64807717D01*
X126321717Y-64807717D01*
X126174639Y-64770947D01*
X126101100Y-64697408D01*
X126064330Y-64623869D01*
D10*
X129420338Y-67457612D02*
X128455138Y-67457612D01*
X129420338Y-66906070D01*
X128455138Y-66906070D01*
X129420338Y-65894908D02*
X128960719Y-66216641D01*
X129420338Y-66446451D02*
X128455138Y-66446451D01*
X128455138Y-66078755D01*
X128501100Y-65986832D01*
X128547061Y-65940870D01*
X128638985Y-65894908D01*
X128776871Y-65894908D01*
X128868795Y-65940870D01*
X128914757Y-65986832D01*
X128960719Y-66078755D01*
X128960719Y-66446451D01*
X129374376Y-65527212D02*
X129420338Y-65389327D01*
X129420338Y-65159517D01*
X129374376Y-65067593D01*
X129328414Y-65021632D01*
X129236490Y-64975670D01*
X129144566Y-64975670D01*
X129052642Y-65021632D01*
X129006680Y-65067593D01*
X128960719Y-65159517D01*
X128914757Y-65343365D01*
X128868795Y-65435289D01*
X128822833Y-65481251D01*
X128730909Y-65527212D01*
X128638985Y-65527212D01*
X128547061Y-65481251D01*
X128501100Y-65435289D01*
X128455138Y-65343365D01*
X128455138Y-65113555D01*
X128501100Y-64975670D01*
X128455138Y-64699898D02*
X128455138Y-64148355D01*
X129420338Y-64424127D02*
X128455138Y-64424127D01*
X131155138Y-65619136D02*
X131155138Y-65067593D01*
X132120338Y-65343365D02*
X131155138Y-65343365D01*
X131155138Y-64837784D02*
X132120338Y-64194317D01*
X131155138Y-64194317D02*
X132120338Y-64837784D01*
X184335284Y-61957638D02*
X184013551Y-61498019D01*
X183783741Y-61957638D02*
X183783741Y-60992438D01*
X184151436Y-60992438D01*
X184243360Y-61038400D01*
X184289322Y-61084361D01*
X184335284Y-61176285D01*
X184335284Y-61314171D01*
X184289322Y-61406095D01*
X184243360Y-61452057D01*
X184151436Y-61498019D01*
X183783741Y-61498019D01*
X185116636Y-61911676D02*
X185024712Y-61957638D01*
X184840865Y-61957638D01*
X184748941Y-61911676D01*
X184702979Y-61819752D01*
X184702979Y-61452057D01*
X184748941Y-61360133D01*
X184840865Y-61314171D01*
X185024712Y-61314171D01*
X185116636Y-61360133D01*
X185162598Y-61452057D01*
X185162598Y-61543980D01*
X184702979Y-61635904D01*
X185438370Y-61314171D02*
X185806065Y-61314171D01*
X185576255Y-61957638D02*
X185576255Y-61130323D01*
X185622217Y-61038400D01*
X185714141Y-60992438D01*
X185806065Y-60992438D01*
X187047036Y-60992438D02*
X187230884Y-60992438D01*
X187322808Y-61038400D01*
X187414732Y-61130323D01*
X187460693Y-61314171D01*
X187460693Y-61635904D01*
X187414732Y-61819752D01*
X187322808Y-61911676D01*
X187230884Y-61957638D01*
X187047036Y-61957638D01*
X186955112Y-61911676D01*
X186863189Y-61819752D01*
X186817227Y-61635904D01*
X186817227Y-61314171D01*
X186863189Y-61130323D01*
X186955112Y-61038400D01*
X187047036Y-60992438D01*
X188288008Y-61314171D02*
X188288008Y-61957638D01*
X187874351Y-61314171D02*
X187874351Y-61819752D01*
X187920312Y-61911676D01*
X188012236Y-61957638D01*
X188150122Y-61957638D01*
X188242046Y-61911676D01*
X188288008Y-61865714D01*
X188609741Y-61314171D02*
X188977436Y-61314171D01*
X188747627Y-60992438D02*
X188747627Y-61819752D01*
X188793589Y-61911676D01*
X188885512Y-61957638D01*
X188977436Y-61957638D01*
X200335284Y-61957638D02*
X200013551Y-61498019D01*
X199783741Y-61957638D02*
X199783741Y-60992438D01*
X200151436Y-60992438D01*
X200243360Y-61038400D01*
X200289322Y-61084361D01*
X200335284Y-61176285D01*
X200335284Y-61314171D01*
X200289322Y-61406095D01*
X200243360Y-61452057D01*
X200151436Y-61498019D01*
X199783741Y-61498019D01*
X201116636Y-61911676D02*
X201024712Y-61957638D01*
X200840865Y-61957638D01*
X200748941Y-61911676D01*
X200702979Y-61819752D01*
X200702979Y-61452057D01*
X200748941Y-61360133D01*
X200840865Y-61314171D01*
X201024712Y-61314171D01*
X201116636Y-61360133D01*
X201162598Y-61452057D01*
X201162598Y-61543980D01*
X200702979Y-61635904D01*
X201438370Y-61314171D02*
X201806065Y-61314171D01*
X201576255Y-61957638D02*
X201576255Y-61130323D01*
X201622217Y-61038400D01*
X201714141Y-60992438D01*
X201806065Y-60992438D01*
X202863189Y-61957638D02*
X202863189Y-60992438D01*
X203322808Y-61314171D02*
X203322808Y-61957638D01*
X203322808Y-61406095D02*
X203368770Y-61360133D01*
X203460693Y-61314171D01*
X203598579Y-61314171D01*
X203690503Y-61360133D01*
X203736465Y-61452057D01*
X203736465Y-61957638D01*
D12*
X136296798Y-67024480D02*
X137326344Y-67024480D01*
X136811571Y-67539253D02*
X136811571Y-66509706D01*
X138613278Y-66187973D02*
X137969811Y-66187973D01*
X137905464Y-66831440D01*
X137969811Y-66767093D01*
X138098504Y-66702746D01*
X138420238Y-66702746D01*
X138548931Y-66767093D01*
X138613278Y-66831440D01*
X138677624Y-66960133D01*
X138677624Y-67281866D01*
X138613278Y-67410560D01*
X138548931Y-67474906D01*
X138420238Y-67539253D01*
X138098504Y-67539253D01*
X137969811Y-67474906D01*
X137905464Y-67410560D01*
X139063704Y-66187973D02*
X139514131Y-67539253D01*
X139964558Y-66187973D01*
X141444531Y-67539253D02*
X141444531Y-66187973D01*
X142087998Y-66638400D02*
X142087998Y-67539253D01*
X142087998Y-66767093D02*
X142152344Y-66702746D01*
X142281038Y-66638400D01*
X142474078Y-66638400D01*
X142602771Y-66702746D01*
X142667118Y-66831440D01*
X142667118Y-67539253D01*
D13*
X155980000Y-61310000D02*
X155980000Y-59870000D01*
X147040000Y-61310000D02*
X147040000Y-59870000D01*
X147040000Y-57130000D02*
X147040000Y-55900000D01*
X147040000Y-55900000D02*
X155980000Y-55900000D01*
X155980000Y-55900000D02*
X155980000Y-57130000D01*
D14*
X155010000Y-64900000D02*
G75*
G03*
X155010000Y-64900000I-100000J0D01*
G01*
D13*
X139560000Y-65000000D02*
X137760000Y-65000000D01*
X143260000Y-65000000D02*
X141560000Y-65000000D01*
X145010000Y-62600000D02*
X145010000Y-56000000D01*
X136510000Y-56000000D02*
X136510000Y-62300000D01*
X145010000Y-56000000D02*
X136510000Y-56000000D01*
D15*
X135470000Y-63980000D02*
G75*
G03*
X135470000Y-63980000I-200000J0D01*
G01*
D16*
X107501100Y-60308600D02*
X110041100Y-60308600D01*
X110041100Y-60308600D02*
X110041100Y-57768600D01*
X110041100Y-57768600D02*
X107501100Y-57768600D01*
X107501100Y-57768600D02*
X107501100Y-60308600D01*
D17*
X108771100Y-51418600D02*
X108771100Y-57133600D01*
D16*
X110041100Y-60308600D02*
X112581100Y-60308600D01*
X112581100Y-60308600D02*
X112581100Y-57768600D01*
X112581100Y-57768600D02*
X110041100Y-57768600D01*
D17*
X111311100Y-51418600D02*
X111311100Y-57133600D01*
D16*
X112581100Y-60308600D02*
X115121100Y-60308600D01*
X115121100Y-60308600D02*
X115121100Y-57768600D01*
X115121100Y-57768600D02*
X112581100Y-57768600D01*
D17*
X113851100Y-51418600D02*
X113851100Y-57133600D01*
D16*
X115121100Y-60308600D02*
X117661100Y-60308600D01*
X117661100Y-60308600D02*
X117661100Y-57768600D01*
X117661100Y-57768600D02*
X115121100Y-57768600D01*
D17*
X116391100Y-51418600D02*
X116391100Y-57133600D01*
D16*
X117661100Y-60308600D02*
X120201100Y-60308600D01*
X120201100Y-60308600D02*
X120201100Y-57768600D01*
X120201100Y-57768600D02*
X117661100Y-57768600D01*
D17*
X118931100Y-51418600D02*
X118931100Y-57133600D01*
D16*
X120201100Y-60308600D02*
X122741100Y-60308600D01*
X122741100Y-60308600D02*
X122741100Y-57768600D01*
X122741100Y-57768600D02*
X120201100Y-57768600D01*
D17*
X121471100Y-51418600D02*
X121471100Y-57133600D01*
D16*
X122741100Y-60308600D02*
X125281100Y-60308600D01*
X125281100Y-60308600D02*
X125281100Y-57768600D01*
X125281100Y-57768600D02*
X122741100Y-57768600D01*
D17*
X124011100Y-51418600D02*
X124011100Y-57133600D01*
D16*
X125281100Y-60308600D02*
X127821100Y-60308600D01*
X127821100Y-60308600D02*
X127821100Y-57768600D01*
X127821100Y-57768600D02*
X125281100Y-57768600D01*
D17*
X126551100Y-51418600D02*
X126551100Y-57133600D01*
D16*
X127821100Y-60308600D02*
X130361100Y-60308600D01*
X130361100Y-60308600D02*
X130361100Y-57768600D01*
X130361100Y-57768600D02*
X127821100Y-57768600D01*
D17*
X129091100Y-51418600D02*
X129091100Y-57133600D01*
D16*
X130361100Y-60308600D02*
X132901100Y-60308600D01*
X132901100Y-60308600D02*
X132901100Y-57768600D01*
X132901100Y-57768600D02*
X130361100Y-57768600D01*
D17*
X131631100Y-51418600D02*
X131631100Y-57133600D01*
D16*
G36*
X108390100Y-57768600D02*
G01*
X109152100Y-57768600D01*
X109152100Y-57260600D01*
X108390100Y-57260600D01*
X108390100Y-57768600D01*
G37*
G36*
X110930100Y-57768600D02*
G01*
X111692100Y-57768600D01*
X111692100Y-57260600D01*
X110930100Y-57260600D01*
X110930100Y-57768600D01*
G37*
G36*
X113470100Y-57768600D02*
G01*
X114232100Y-57768600D01*
X114232100Y-57260600D01*
X113470100Y-57260600D01*
X113470100Y-57768600D01*
G37*
G36*
X116010100Y-57768600D02*
G01*
X116772100Y-57768600D01*
X116772100Y-57260600D01*
X116010100Y-57260600D01*
X116010100Y-57768600D01*
G37*
G36*
X118550100Y-57768600D02*
G01*
X119312100Y-57768600D01*
X119312100Y-57260600D01*
X118550100Y-57260600D01*
X118550100Y-57768600D01*
G37*
G36*
X121090100Y-57768600D02*
G01*
X121852100Y-57768600D01*
X121852100Y-57260600D01*
X121090100Y-57260600D01*
X121090100Y-57768600D01*
G37*
G36*
X123630100Y-57768600D02*
G01*
X124392100Y-57768600D01*
X124392100Y-57260600D01*
X123630100Y-57260600D01*
X123630100Y-57768600D01*
G37*
G36*
X126170100Y-57768600D02*
G01*
X126932100Y-57768600D01*
X126932100Y-57260600D01*
X126170100Y-57260600D01*
X126170100Y-57768600D01*
G37*
G36*
X128710100Y-57768600D02*
G01*
X129472100Y-57768600D01*
X129472100Y-57260600D01*
X128710100Y-57260600D01*
X128710100Y-57768600D01*
G37*
G36*
X131250100Y-57768600D02*
G01*
X132012100Y-57768600D01*
X132012100Y-57260600D01*
X131250100Y-57260600D01*
X131250100Y-57768600D01*
G37*
G36*
X108390100Y-61324600D02*
G01*
X109152100Y-61324600D01*
X109152100Y-60308600D01*
X108390100Y-60308600D01*
X108390100Y-61324600D01*
G37*
G36*
X110930100Y-61324600D02*
G01*
X111692100Y-61324600D01*
X111692100Y-60308600D01*
X110930100Y-60308600D01*
X110930100Y-61324600D01*
G37*
G36*
X113470100Y-61324600D02*
G01*
X114232100Y-61324600D01*
X114232100Y-60308600D01*
X113470100Y-60308600D01*
X113470100Y-61324600D01*
G37*
G36*
X116010100Y-61324600D02*
G01*
X116772100Y-61324600D01*
X116772100Y-60308600D01*
X116010100Y-60308600D01*
X116010100Y-61324600D01*
G37*
G36*
X118550100Y-61324600D02*
G01*
X119312100Y-61324600D01*
X119312100Y-60308600D01*
X118550100Y-60308600D01*
X118550100Y-61324600D01*
G37*
G36*
X121090100Y-61324600D02*
G01*
X121852100Y-61324600D01*
X121852100Y-60308600D01*
X121090100Y-60308600D01*
X121090100Y-61324600D01*
G37*
G36*
X123630100Y-61324600D02*
G01*
X124392100Y-61324600D01*
X124392100Y-60308600D01*
X123630100Y-60308600D01*
X123630100Y-61324600D01*
G37*
G36*
X126170100Y-61324600D02*
G01*
X126932100Y-61324600D01*
X126932100Y-60308600D01*
X126170100Y-60308600D01*
X126170100Y-61324600D01*
G37*
G36*
X128710100Y-61324600D02*
G01*
X129472100Y-61324600D01*
X129472100Y-60308600D01*
X128710100Y-60308600D01*
X128710100Y-61324600D01*
G37*
G36*
X131250100Y-61324600D02*
G01*
X132012100Y-61324600D01*
X132012100Y-60308600D01*
X131250100Y-60308600D01*
X131250100Y-61324600D01*
G37*
D18*
X121701100Y-125099600D02*
X121701100Y-125464600D01*
X124701100Y-125099600D02*
X121701100Y-125099600D01*
X124701100Y-125464600D02*
X124701100Y-125099600D01*
X121701100Y-128107600D02*
X121701100Y-127742600D01*
X124701100Y-128107600D02*
X121701100Y-128107600D01*
X124701100Y-127742600D02*
X124701100Y-128107600D01*
D19*
X125330100Y-127992600D02*
G75*
G03*
X125330100Y-127992600I-125000J0D01*
G01*
X123043600Y-122623300D02*
G75*
G03*
X123043600Y-122623300I-125000J0D01*
G01*
D18*
X122251100Y-122373300D02*
X122251100Y-122453600D01*
X122251100Y-122453600D02*
X119151100Y-122453600D01*
X119151100Y-122453600D02*
X119151100Y-122373300D01*
X122251100Y-119433900D02*
X122251100Y-119353600D01*
X122251100Y-119353600D02*
X119151100Y-119353600D01*
X119151100Y-119353600D02*
X119151100Y-119433900D01*
D19*
X118982100Y-111921100D02*
G75*
G03*
X118982100Y-111921100I-125000J0D01*
G01*
D18*
X119107100Y-111253600D02*
X118951100Y-111253600D01*
X118951100Y-111253600D02*
X118951100Y-108153600D01*
X118951100Y-108153600D02*
X119107100Y-108153600D01*
X121895100Y-111253600D02*
X122051100Y-111253600D01*
X122051100Y-111253600D02*
X122051100Y-108153600D01*
X122051100Y-108153600D02*
X121895100Y-108153600D01*
D19*
X186180100Y-111642600D02*
G75*
G03*
X186180100Y-111642600I-125000J0D01*
G01*
D18*
X185551100Y-111392600D02*
X185551100Y-112053600D01*
X185551100Y-112053600D02*
X184890100Y-112053600D01*
X181451100Y-111392600D02*
X181451100Y-112053600D01*
X181451100Y-112053600D02*
X182112100Y-112053600D01*
X181451100Y-108614600D02*
X181451100Y-107953600D01*
X181451100Y-107953600D02*
X182112100Y-107953600D01*
X185551100Y-108614600D02*
X185551100Y-107953600D01*
X185551100Y-107953600D02*
X184890100Y-107953600D01*
D19*
X158065100Y-98749600D02*
G75*
G03*
X158065100Y-98749600I-125000J0D01*
G01*
D18*
X157690100Y-99253600D02*
X158051100Y-99253600D01*
X158051100Y-99253600D02*
X158051100Y-99614600D01*
X157690100Y-104253600D02*
X158051100Y-104253600D01*
X158051100Y-104253600D02*
X158051100Y-103892600D01*
X153412100Y-104253600D02*
X153051100Y-104253600D01*
X153051100Y-104253600D02*
X153051100Y-103892600D01*
X153412100Y-99253600D02*
X153051100Y-99253600D01*
X153051100Y-99253600D02*
X153051100Y-99614600D01*
D19*
X166930100Y-95862200D02*
G75*
G03*
X166930100Y-95862200I-125000J0D01*
G01*
D18*
X166301100Y-95672200D02*
X164901100Y-95672200D01*
X166301100Y-92535000D02*
X164901100Y-92535000D01*
D19*
X138022100Y-106657600D02*
G75*
G03*
X138022100Y-106657600I-125000J0D01*
G01*
D18*
X137751100Y-106157600D02*
X138147100Y-106157600D01*
X137751100Y-104249600D02*
X138147100Y-104249600D01*
X139651100Y-104249600D02*
X139255100Y-104249600D01*
X139651100Y-106157600D02*
X139255100Y-106157600D01*
D19*
X176953700Y-99672200D02*
G75*
G03*
X176953700Y-99672200I-125000J0D01*
G01*
D18*
X175651100Y-99422200D02*
X175651100Y-99753600D01*
X175651100Y-99753600D02*
X171951100Y-99753600D01*
X171951100Y-99753600D02*
X171951100Y-98272200D01*
X175651100Y-93385000D02*
X175651100Y-93053600D01*
X175651100Y-93053600D02*
X171951100Y-93053600D01*
X171951100Y-93053600D02*
X171951100Y-94535000D01*
D19*
X139630100Y-113349600D02*
G75*
G03*
X139630100Y-113349600I-125000J0D01*
G01*
D18*
X139651100Y-113849600D02*
X139255100Y-113849600D01*
X139651100Y-115757600D02*
X139255100Y-115757600D01*
X137751100Y-115757600D02*
X138147100Y-115757600D01*
X137751100Y-113849600D02*
X138147100Y-113849600D01*
D19*
X173237100Y-130607600D02*
G75*
G03*
X173237100Y-130607600I-125000J0D01*
G01*
D18*
X173362100Y-130103600D02*
X173001100Y-130103600D01*
X173001100Y-130103600D02*
X173001100Y-129742600D01*
X173362100Y-125103600D02*
X173001100Y-125103600D01*
X173001100Y-125103600D02*
X173001100Y-125464600D01*
X177640100Y-125103600D02*
X178001100Y-125103600D01*
X178001100Y-125103600D02*
X178001100Y-125464600D01*
X177640100Y-130103600D02*
X178001100Y-130103600D01*
X178001100Y-130103600D02*
X178001100Y-129742600D01*
X101505100Y-113003600D02*
X101140100Y-113003600D01*
X101505100Y-116003600D02*
X101505100Y-113003600D01*
X101140100Y-116003600D02*
X101505100Y-116003600D01*
X98497100Y-113003600D02*
X98862100Y-113003600D01*
X98497100Y-116003600D02*
X98497100Y-113003600D01*
X98862100Y-116003600D02*
X98497100Y-116003600D01*
D19*
X98737100Y-116507600D02*
G75*
G03*
X98737100Y-116507600I-125000J0D01*
G01*
X165522100Y-132445000D02*
G75*
G03*
X165522100Y-132445000I-125000J0D01*
G01*
D18*
X165901100Y-132635000D02*
X167301100Y-132635000D01*
X165901100Y-135772200D02*
X167301100Y-135772200D01*
D19*
X160598500Y-124735000D02*
G75*
G03*
X160598500Y-124735000I-125000J0D01*
G01*
D18*
X161651100Y-124985000D02*
X161651100Y-124653600D01*
X161651100Y-124653600D02*
X165351100Y-124653600D01*
X165351100Y-124653600D02*
X165351100Y-126135000D01*
X161651100Y-131022200D02*
X161651100Y-131353600D01*
X161651100Y-131353600D02*
X165351100Y-131353600D01*
X165351100Y-131353600D02*
X165351100Y-129872200D01*
D19*
X149669700Y-129849600D02*
G75*
G03*
X149669700Y-129849600I-125000J0D01*
G01*
D18*
X149354700Y-130353600D02*
X149354700Y-132453600D01*
X146947500Y-130353600D02*
X146947500Y-132453600D01*
D19*
X102543600Y-109823300D02*
G75*
G03*
X102543600Y-109823300I-125000J0D01*
G01*
D18*
X101751100Y-109573300D02*
X101751100Y-109653600D01*
X101751100Y-109653600D02*
X98651100Y-109653600D01*
X98651100Y-109653600D02*
X98651100Y-109573300D01*
X101751100Y-106633900D02*
X101751100Y-106553600D01*
X101751100Y-106553600D02*
X98651100Y-106553600D01*
X98651100Y-106553600D02*
X98651100Y-106633900D01*
D19*
X98382100Y-100721100D02*
G75*
G03*
X98382100Y-100721100I-125000J0D01*
G01*
D18*
X98507100Y-100053600D02*
X98351100Y-100053600D01*
X98351100Y-100053600D02*
X98351100Y-96953600D01*
X98351100Y-96953600D02*
X98507100Y-96953600D01*
X101295100Y-100053600D02*
X101451100Y-100053600D01*
X101451100Y-100053600D02*
X101451100Y-96953600D01*
X101451100Y-96953600D02*
X101295100Y-96953600D01*
X202605100Y-109003600D02*
X202240100Y-109003600D01*
X202605100Y-112003600D02*
X202605100Y-109003600D01*
X202240100Y-112003600D02*
X202605100Y-112003600D01*
X199597100Y-109003600D02*
X199962100Y-109003600D01*
X199597100Y-112003600D02*
X199597100Y-109003600D01*
X199962100Y-112003600D02*
X199597100Y-112003600D01*
D19*
X199837100Y-112507600D02*
G75*
G03*
X199837100Y-112507600I-125000J0D01*
G01*
X202843600Y-105523300D02*
G75*
G03*
X202843600Y-105523300I-125000J0D01*
G01*
D18*
X202051100Y-105273300D02*
X202051100Y-105353600D01*
X202051100Y-105353600D02*
X198951100Y-105353600D01*
X198951100Y-105353600D02*
X198951100Y-105273300D01*
X202051100Y-102333900D02*
X202051100Y-102253600D01*
X202051100Y-102253600D02*
X198951100Y-102253600D01*
X198951100Y-102253600D02*
X198951100Y-102333900D01*
D19*
X198682100Y-95121100D02*
G75*
G03*
X198682100Y-95121100I-125000J0D01*
G01*
D18*
X198807100Y-94453600D02*
X198651100Y-94453600D01*
X198651100Y-94453600D02*
X198651100Y-91353600D01*
X198651100Y-91353600D02*
X198807100Y-91353600D01*
X201595100Y-94453600D02*
X201751100Y-94453600D01*
X201751100Y-94453600D02*
X201751100Y-91353600D01*
X201751100Y-91353600D02*
X201595100Y-91353600D01*
D19*
X134976100Y-111492700D02*
G75*
G03*
X134976100Y-111492700I-125000J0D01*
G01*
D18*
X134325200Y-109253600D02*
X134325200Y-110953600D01*
X136077000Y-109253600D02*
X136077000Y-110953600D01*
D19*
X145276100Y-111292700D02*
G75*
G03*
X145276100Y-111292700I-125000J0D01*
G01*
D18*
X144625200Y-109053600D02*
X144625200Y-110753600D01*
X146377000Y-109053600D02*
X146377000Y-110753600D01*
D19*
X142876100Y-111292700D02*
G75*
G03*
X142876100Y-111292700I-125000J0D01*
G01*
D18*
X142225200Y-109053600D02*
X142225200Y-110753600D01*
X143977000Y-109053600D02*
X143977000Y-110753600D01*
D19*
X106973700Y-110157600D02*
G75*
G03*
X106973700Y-110157600I-125000J0D01*
G01*
D18*
X107098700Y-109653600D02*
X106951100Y-109653600D01*
X106951100Y-109653600D02*
X106951100Y-106553600D01*
X106951100Y-106553600D02*
X107098700Y-106553600D01*
X109903500Y-109653600D02*
X110051100Y-109653600D01*
X110051100Y-109653600D02*
X110051100Y-106553600D01*
X110051100Y-106553600D02*
X109903500Y-106553600D01*
D19*
X191278500Y-96149600D02*
G75*
G03*
X191278500Y-96149600I-125000J0D01*
G01*
D18*
X190903500Y-96653600D02*
X191051100Y-96653600D01*
X191051100Y-96653600D02*
X191051100Y-99753600D01*
X191051100Y-99753600D02*
X190903500Y-99753600D01*
X188098700Y-96653600D02*
X187951100Y-96653600D01*
X187951100Y-96653600D02*
X187951100Y-99753600D01*
X187951100Y-99753600D02*
X188098700Y-99753600D01*
D19*
X115873700Y-130757600D02*
G75*
G03*
X115873700Y-130757600I-125000J0D01*
G01*
D18*
X115998700Y-130253600D02*
X115851100Y-130253600D01*
X115851100Y-130253600D02*
X115851100Y-127153600D01*
X115851100Y-127153600D02*
X115998700Y-127153600D01*
X118803500Y-130253600D02*
X118951100Y-130253600D01*
X118951100Y-130253600D02*
X118951100Y-127153600D01*
X118951100Y-127153600D02*
X118803500Y-127153600D01*
D19*
X184278500Y-94949600D02*
G75*
G03*
X184278500Y-94949600I-125000J0D01*
G01*
D18*
X183903500Y-95453600D02*
X184051100Y-95453600D01*
X184051100Y-95453600D02*
X184051100Y-98553600D01*
X184051100Y-98553600D02*
X183903500Y-98553600D01*
X181098700Y-95453600D02*
X180951100Y-95453600D01*
X180951100Y-95453600D02*
X180951100Y-98553600D01*
X180951100Y-98553600D02*
X181098700Y-98553600D01*
D13*
X198951100Y-78853600D02*
X197451100Y-77353600D01*
X197451100Y-77353600D02*
X197451100Y-75353600D01*
X197451100Y-75353600D02*
X198951100Y-73853600D01*
X198951100Y-73853600D02*
X200951100Y-73853600D01*
X200951100Y-73853600D02*
X202451100Y-75353600D01*
X202451100Y-75353600D02*
X202451100Y-77353600D01*
X202451100Y-77353600D02*
X200951100Y-78853600D01*
X200951100Y-78853600D02*
X198951100Y-78853600D01*
X178801100Y-74503600D02*
X180301100Y-76003600D01*
X180301100Y-76003600D02*
X180301100Y-78003600D01*
X180301100Y-78003600D02*
X178801100Y-79503600D01*
X178801100Y-79503600D02*
X176801100Y-79503600D01*
X176801100Y-79503600D02*
X175301100Y-78003600D01*
X175301100Y-78003600D02*
X175301100Y-76003600D01*
X175301100Y-76003600D02*
X176801100Y-74503600D01*
X176801100Y-74503600D02*
X178801100Y-74503600D01*
X165801100Y-82503600D02*
X164301100Y-81003600D01*
X164301100Y-81003600D02*
X164301100Y-79003600D01*
X164301100Y-79003600D02*
X165801100Y-77503600D01*
X165801100Y-77503600D02*
X167801100Y-77503600D01*
X167801100Y-77503600D02*
X169301100Y-79003600D01*
X169301100Y-79003600D02*
X169301100Y-81003600D01*
X169301100Y-81003600D02*
X167801100Y-82503600D01*
X167801100Y-82503600D02*
X165801100Y-82503600D01*
D20*
X112501100Y-94503600D02*
X113001100Y-95003600D01*
X112501100Y-75503600D02*
X112501100Y-94503600D01*
X113001100Y-75003600D02*
X112501100Y-75503600D01*
X132001100Y-75003600D02*
X113001100Y-75003600D01*
X132501100Y-75503600D02*
X132001100Y-75003600D01*
X132501100Y-94503600D02*
X132501100Y-75503600D01*
X132001100Y-95003600D02*
X132501100Y-94503600D01*
X113001100Y-95003600D02*
X132001100Y-95003600D01*
D13*
X115001100Y-93003600D02*
G75*
G03*
X115001100Y-93003600I-500000J0D01*
G01*
D21*
X143694850Y-88708600D02*
G75*
G03*
X143694850Y-88708600I-158750J0D01*
G01*
D22*
X141631100Y-89470600D02*
X141631100Y-84136600D01*
X141631100Y-84136600D02*
X144171100Y-84136600D01*
X144171100Y-84136600D02*
X144171100Y-89470600D01*
X144171100Y-89470600D02*
X141631100Y-89470600D01*
D19*
X91867500Y-102707600D02*
G75*
G03*
X91867500Y-102707600I-125000J0D01*
G01*
D18*
X91932500Y-102203600D02*
X91932500Y-100803600D01*
X95069700Y-102203600D02*
X95069700Y-100803600D01*
D19*
X193922100Y-91145000D02*
G75*
G03*
X193922100Y-91145000I-125000J0D01*
G01*
D18*
X194301100Y-91335000D02*
X195701100Y-91335000D01*
X194301100Y-94472200D02*
X195701100Y-94472200D01*
D19*
X122867500Y-111207600D02*
G75*
G03*
X122867500Y-111207600I-125000J0D01*
G01*
D18*
X122932500Y-110703600D02*
X122932500Y-109303600D01*
X126069700Y-110703600D02*
X126069700Y-109303600D01*
D16*
G36*
X125226100Y-69203600D02*
G01*
X124976100Y-69203600D01*
X124976100Y-69453600D01*
X125226100Y-69453600D01*
X125226100Y-69203600D01*
G37*
G36*
X119226100Y-69203600D02*
G01*
X118976100Y-69203600D01*
X118976100Y-69453600D01*
X119226100Y-69453600D01*
X119226100Y-69203600D01*
G37*
G36*
X116226100Y-69203600D02*
G01*
X115976100Y-69203600D01*
X115976100Y-69453600D01*
X116226100Y-69453600D01*
X116226100Y-69203600D01*
G37*
G36*
X113226100Y-69203600D02*
G01*
X112976100Y-69203600D01*
X112976100Y-69453600D01*
X113226100Y-69453600D01*
X113226100Y-69203600D01*
G37*
G36*
X110226100Y-69203600D02*
G01*
X109976100Y-69203600D01*
X109976100Y-69453600D01*
X110226100Y-69453600D01*
X110226100Y-69203600D01*
G37*
G36*
X107226100Y-69203600D02*
G01*
X106976100Y-69203600D01*
X106976100Y-69453600D01*
X107226100Y-69453600D01*
X107226100Y-69203600D01*
G37*
G36*
X104226100Y-69203600D02*
G01*
X103976100Y-69203600D01*
X103976100Y-69453600D01*
X104226100Y-69453600D01*
X104226100Y-69203600D01*
G37*
G36*
X101226100Y-69203600D02*
G01*
X100976100Y-69203600D01*
X100976100Y-69453600D01*
X101226100Y-69453600D01*
X101226100Y-69203600D01*
G37*
G36*
X98226100Y-69203600D02*
G01*
X97976100Y-69203600D01*
X97976100Y-69453600D01*
X98226100Y-69453600D01*
X98226100Y-69203600D01*
G37*
D19*
X151115100Y-121949600D02*
G75*
G03*
X151115100Y-121949600I-125000J0D01*
G01*
D18*
X150740100Y-122453600D02*
X151151100Y-122453600D01*
X151151100Y-122453600D02*
X151151100Y-122864600D01*
X150740100Y-126553600D02*
X151151100Y-126553600D01*
X151151100Y-126553600D02*
X151151100Y-126142600D01*
X147462100Y-126553600D02*
X147051100Y-126553600D01*
X147051100Y-126553600D02*
X147051100Y-126142600D01*
X147462100Y-122453600D02*
X147051100Y-122453600D01*
X147051100Y-122453600D02*
X147051100Y-122864600D01*
D19*
X145922100Y-115058700D02*
G75*
G03*
X145922100Y-115058700I-125000J0D01*
G01*
D18*
X146301100Y-115308700D02*
X146301100Y-114703600D01*
X146301100Y-114703600D02*
X146906200Y-114703600D01*
X150301100Y-115308700D02*
X150301100Y-114703600D01*
X150301100Y-114703600D02*
X149696000Y-114703600D01*
X150301100Y-118098500D02*
X150301100Y-118703600D01*
X150301100Y-118703600D02*
X149696000Y-118703600D01*
X146301100Y-118098500D02*
X146301100Y-118703600D01*
X146301100Y-118703600D02*
X146906200Y-118703600D01*
D19*
X151130100Y-146648500D02*
G75*
G03*
X151130100Y-146648500I-125000J0D01*
G01*
D18*
X150501100Y-146398500D02*
X150501100Y-147003600D01*
X150501100Y-147003600D02*
X149896000Y-147003600D01*
X146501100Y-146398500D02*
X146501100Y-147003600D01*
X146501100Y-147003600D02*
X147106200Y-147003600D01*
X146501100Y-143608700D02*
X146501100Y-143003600D01*
X146501100Y-143003600D02*
X147106200Y-143003600D01*
X150501100Y-143608700D02*
X150501100Y-143003600D01*
X150501100Y-143003600D02*
X149896000Y-143003600D01*
D19*
X114692385Y-144611075D02*
G75*
G03*
X114692385Y-144611075I-125000J0D01*
G01*
D18*
X115100543Y-144431470D02*
X114672673Y-144003600D01*
X114672673Y-144003600D02*
X115100543Y-143575730D01*
X117928970Y-141603043D02*
X117501100Y-141175173D01*
X117501100Y-141175173D02*
X117073230Y-141603043D01*
X119901657Y-143575730D02*
X120329527Y-144003600D01*
X120329527Y-144003600D02*
X119901657Y-144431470D01*
X117073230Y-146404157D02*
X117501100Y-146832027D01*
X117501100Y-146832027D02*
X117928970Y-146404157D01*
D19*
X173692385Y-144611075D02*
G75*
G03*
X173692385Y-144611075I-125000J0D01*
G01*
D18*
X174100543Y-144431470D02*
X173672673Y-144003600D01*
X173672673Y-144003600D02*
X174100543Y-143575730D01*
X176928970Y-141603043D02*
X176501100Y-141175173D01*
X176501100Y-141175173D02*
X176073230Y-141603043D01*
X178901657Y-143575730D02*
X179329527Y-144003600D01*
X179329527Y-144003600D02*
X178901657Y-144431470D01*
X176073230Y-146404157D02*
X176501100Y-146832027D01*
X176501100Y-146832027D02*
X176928970Y-146404157D01*
D19*
X97572100Y-129517600D02*
G75*
G03*
X97572100Y-129517600I-125000J0D01*
G01*
D18*
X97951100Y-129767600D02*
X97951100Y-129353600D01*
X97951100Y-129353600D02*
X98365100Y-129353600D01*
X102051100Y-129767600D02*
X102051100Y-129353600D01*
X102051100Y-129353600D02*
X101637100Y-129353600D01*
X102051100Y-133039600D02*
X102051100Y-133453600D01*
X102051100Y-133453600D02*
X101637100Y-133453600D01*
X97951100Y-133039600D02*
X97951100Y-133453600D01*
X97951100Y-133453600D02*
X98365100Y-133453600D01*
D19*
X194512100Y-123449600D02*
G75*
G03*
X194512100Y-123449600I-125000J0D01*
G01*
D18*
X194137100Y-123953600D02*
X194551100Y-123953600D01*
X194551100Y-123953600D02*
X194551100Y-124367600D01*
X194137100Y-128053600D02*
X194551100Y-128053600D01*
X194551100Y-128053600D02*
X194551100Y-127639600D01*
X190865100Y-128053600D02*
X190451100Y-128053600D01*
X190451100Y-128053600D02*
X190451100Y-127639600D01*
X190865100Y-123953600D02*
X190451100Y-123953600D01*
X190451100Y-123953600D02*
X190451100Y-124367600D01*
D19*
X126372100Y-134117600D02*
G75*
G03*
X126372100Y-134117600I-125000J0D01*
G01*
D18*
X126751100Y-134367600D02*
X126751100Y-133953600D01*
X126751100Y-133953600D02*
X127165100Y-133953600D01*
X130851100Y-134367600D02*
X130851100Y-133953600D01*
X130851100Y-133953600D02*
X130437100Y-133953600D01*
X130851100Y-137639600D02*
X130851100Y-138053600D01*
X130851100Y-138053600D02*
X130437100Y-138053600D01*
X126751100Y-137639600D02*
X126751100Y-138053600D01*
X126751100Y-138053600D02*
X127165100Y-138053600D01*
D23*
X103432903Y-135103600D02*
G75*
G03*
X103432903Y-135103600I-111803J0D01*
G01*
D13*
X107901100Y-134903600D02*
X107901100Y-137703600D01*
X107901100Y-137703600D02*
X104101100Y-137703600D01*
X104101100Y-137703600D02*
X104101100Y-134903600D01*
X104101100Y-134903600D02*
X107901100Y-134903600D01*
D23*
X136412903Y-139283600D02*
G75*
G03*
X136412903Y-139283600I-111803J0D01*
G01*
D13*
X136101100Y-134703600D02*
X138901100Y-134703600D01*
X138901100Y-134703600D02*
X138901100Y-138503600D01*
X138901100Y-138503600D02*
X136101100Y-138503600D01*
X136101100Y-138503600D02*
X136101100Y-134703600D01*
D22*
X179551100Y-56100000D02*
X179551100Y-54650000D01*
X185451100Y-54650000D02*
X185451100Y-56100000D01*
X180351100Y-56100000D02*
X184651100Y-56100000D01*
X184501100Y-54650000D02*
X185451100Y-54650000D01*
X184501100Y-52500000D02*
X184501100Y-54650000D01*
X185251100Y-51750000D02*
X184501100Y-52500000D01*
X185251100Y-47950000D02*
X185251100Y-51750000D01*
X184401100Y-47950000D02*
X185251100Y-47950000D01*
X184401100Y-46775000D02*
X184401100Y-47950000D01*
X180601100Y-46775000D02*
X184401100Y-46775000D01*
X180601100Y-47950000D02*
X180601100Y-46775000D01*
X179751100Y-47950000D02*
X180601100Y-47950000D01*
X179751100Y-51750000D02*
X179751100Y-47950000D01*
X180501100Y-52500000D02*
X179751100Y-51750000D01*
X180501100Y-54650000D02*
X180501100Y-52500000D01*
X179551100Y-54650000D02*
X180501100Y-54650000D01*
X195551100Y-56100000D02*
X195551100Y-54650000D01*
X201451100Y-54650000D02*
X201451100Y-56100000D01*
X196351100Y-56100000D02*
X200651100Y-56100000D01*
X200501100Y-54650000D02*
X201451100Y-54650000D01*
X200501100Y-52500000D02*
X200501100Y-54650000D01*
X201251100Y-51750000D02*
X200501100Y-52500000D01*
X201251100Y-47950000D02*
X201251100Y-51750000D01*
X200401100Y-47950000D02*
X201251100Y-47950000D01*
X200401100Y-46775000D02*
X200401100Y-47950000D01*
X196601100Y-46775000D02*
X200401100Y-46775000D01*
X196601100Y-47950000D02*
X196601100Y-46775000D01*
X195751100Y-47950000D02*
X196601100Y-47950000D01*
X195751100Y-51750000D02*
X195751100Y-47950000D01*
X196501100Y-52500000D02*
X195751100Y-51750000D01*
X196501100Y-54650000D02*
X196501100Y-52500000D01*
X195551100Y-54650000D02*
X196501100Y-54650000D01*
X104151100Y-154003600D02*
X104151100Y-155453600D01*
X94851100Y-155453600D02*
X94851100Y-154003600D01*
X103351100Y-154003600D02*
X95651100Y-154003600D01*
X97501100Y-155453600D02*
X94851100Y-155453600D01*
X97501100Y-157603600D02*
X97501100Y-155453600D01*
X96751100Y-158353600D02*
X97501100Y-157603600D01*
X96751100Y-162153600D02*
X96751100Y-158353600D01*
X97601100Y-162153600D02*
X96751100Y-162153600D01*
X97601100Y-163328600D02*
X97601100Y-162153600D01*
X101401100Y-163328600D02*
X97601100Y-163328600D01*
X101401100Y-162153600D02*
X101401100Y-163328600D01*
X102251100Y-162153600D02*
X101401100Y-162153600D01*
X102251100Y-158353600D02*
X102251100Y-162153600D01*
X101501100Y-157603600D02*
X102251100Y-158353600D01*
X101501100Y-155453600D02*
X101501100Y-157603600D01*
X104151100Y-155453600D02*
X101501100Y-155453600D01*
D23*
X189332903Y-133803600D02*
G75*
G03*
X189332903Y-133803600I-111803J0D01*
G01*
D13*
X193801100Y-133603600D02*
X193801100Y-136403600D01*
X193801100Y-136403600D02*
X190001100Y-136403600D01*
X190001100Y-136403600D02*
X190001100Y-133603600D01*
X190001100Y-133603600D02*
X193801100Y-133603600D01*
D22*
X202151100Y-154003600D02*
X202151100Y-155453600D01*
X192851100Y-155453600D02*
X192851100Y-154003600D01*
X201351100Y-154003600D02*
X193651100Y-154003600D01*
X195501100Y-155453600D02*
X192851100Y-155453600D01*
X195501100Y-157603600D02*
X195501100Y-155453600D01*
X194751100Y-158353600D02*
X195501100Y-157603600D01*
X194751100Y-162153600D02*
X194751100Y-158353600D01*
X195601100Y-162153600D02*
X194751100Y-162153600D01*
X195601100Y-163328600D02*
X195601100Y-162153600D01*
X199401100Y-163328600D02*
X195601100Y-163328600D01*
X199401100Y-162153600D02*
X199401100Y-163328600D01*
X200251100Y-162153600D02*
X199401100Y-162153600D01*
X200251100Y-158353600D02*
X200251100Y-162153600D01*
X199501100Y-157603600D02*
X200251100Y-158353600D01*
X199501100Y-155453600D02*
X199501100Y-157603600D01*
X202151100Y-155453600D02*
X199501100Y-155453600D01*
D19*
X149337100Y-78257600D02*
G75*
G03*
X149337100Y-78257600I-125000J0D01*
G01*
D18*
X149462100Y-77753600D02*
X149051100Y-77753600D01*
X149051100Y-77753600D02*
X149051100Y-77342600D01*
X149462100Y-70653600D02*
X149051100Y-70653600D01*
X149051100Y-70653600D02*
X149051100Y-71064600D01*
X155740100Y-70653600D02*
X156151100Y-70653600D01*
X156151100Y-70653600D02*
X156151100Y-71064600D01*
X155740100Y-77753600D02*
X156151100Y-77753600D01*
X156151100Y-77753600D02*
X156151100Y-77342600D01*
D16*
G36*
X122226100Y-69303600D02*
G01*
X121976100Y-69303600D01*
X121976100Y-69553600D01*
X122226100Y-69553600D01*
X122226100Y-69303600D01*
G37*
X96741100Y-64808600D02*
X96741100Y-63538600D01*
X92296100Y-62903600D02*
X96106100Y-62903600D01*
X96106100Y-65443600D02*
X96741100Y-64808600D01*
X96106100Y-62903600D02*
X96741100Y-63538600D01*
X91661100Y-63538600D02*
X92296100Y-62903600D01*
X91661100Y-64808600D02*
X91661100Y-63538600D01*
X92296100Y-65443600D02*
X91661100Y-64808600D01*
X96741100Y-87668600D02*
X96741100Y-86398600D01*
X96741100Y-85128600D02*
X96741100Y-83858600D01*
X96741100Y-82588600D02*
X96741100Y-81318600D01*
X96741100Y-80048600D02*
X96741100Y-78778600D01*
X96741100Y-77508600D02*
X96741100Y-76238600D01*
X96741100Y-74968600D02*
X96741100Y-73698600D01*
X96741100Y-72428600D02*
X96741100Y-71158600D01*
X96741100Y-69888600D02*
X96741100Y-68618600D01*
X96741100Y-67348600D02*
X96741100Y-66078600D01*
X92296100Y-65443600D02*
X96106100Y-65443600D01*
X92296100Y-67983600D02*
X96106100Y-67983600D01*
X92296100Y-70523600D02*
X96106100Y-70523600D01*
X92296100Y-73063600D02*
X96106100Y-73063600D01*
X92296100Y-75603600D02*
X96106100Y-75603600D01*
X92296100Y-78143600D02*
X96106100Y-78143600D01*
X92296100Y-80683600D02*
X96106100Y-80683600D01*
X92296100Y-83223600D02*
X96106100Y-83223600D01*
X92296100Y-85763600D02*
X96106100Y-85763600D01*
X96106100Y-73063600D02*
X96741100Y-72428600D01*
X96106100Y-70523600D02*
X96741100Y-71158600D01*
X96106100Y-70523600D02*
X96741100Y-69888600D01*
X96106100Y-67983600D02*
X96741100Y-68618600D01*
X96106100Y-67983600D02*
X96741100Y-67348600D01*
X96106100Y-65443600D02*
X96741100Y-66078600D01*
X91661100Y-66078600D02*
X92296100Y-65443600D01*
X91661100Y-67348600D02*
X91661100Y-66078600D01*
X92296100Y-67983600D02*
X91661100Y-67348600D01*
X91661100Y-68618600D02*
X92296100Y-67983600D01*
X91661100Y-69888600D02*
X91661100Y-68618600D01*
X92296100Y-70523600D02*
X91661100Y-69888600D01*
X91661100Y-71158600D02*
X92296100Y-70523600D01*
X91661100Y-72428600D02*
X91661100Y-71158600D01*
X92296100Y-73063600D02*
X91661100Y-72428600D01*
X91661100Y-73698600D02*
X92296100Y-73063600D01*
X91661100Y-74968600D02*
X91661100Y-73698600D01*
X92296100Y-75603600D02*
X91661100Y-74968600D01*
X91661100Y-76238600D02*
X92296100Y-75603600D01*
X91661100Y-77508600D02*
X91661100Y-76238600D01*
X92296100Y-78143600D02*
X91661100Y-77508600D01*
X91661100Y-78778600D02*
X92296100Y-78143600D01*
X91661100Y-80048600D02*
X91661100Y-78778600D01*
X92296100Y-80683600D02*
X91661100Y-80048600D01*
X91661100Y-81318600D02*
X92296100Y-80683600D01*
X91661100Y-82588600D02*
X91661100Y-81318600D01*
X92296100Y-83223600D02*
X91661100Y-82588600D01*
X91661100Y-83858600D02*
X92296100Y-83223600D01*
X91661100Y-85128600D02*
X91661100Y-83858600D01*
X92296100Y-85763600D02*
X91661100Y-85128600D01*
X91661100Y-86398600D02*
X92296100Y-85763600D01*
X91661100Y-87668600D02*
X91661100Y-86398600D01*
X92296100Y-88303600D02*
X91661100Y-87668600D01*
X96106100Y-88303600D02*
X92296100Y-88303600D01*
X96741100Y-73698600D02*
X96106100Y-73063600D01*
X96106100Y-75603600D02*
X96741100Y-74968600D01*
X96741100Y-76238600D02*
X96106100Y-75603600D01*
X96106100Y-78143600D02*
X96741100Y-77508600D01*
X96741100Y-78778600D02*
X96106100Y-78143600D01*
X96106100Y-80683600D02*
X96741100Y-80048600D01*
X96741100Y-81318600D02*
X96106100Y-80683600D01*
X96106100Y-83223600D02*
X96741100Y-82588600D01*
X96741100Y-83858600D02*
X96106100Y-83223600D01*
X96106100Y-85763600D02*
X96741100Y-85128600D01*
X96741100Y-86398600D02*
X96106100Y-85763600D01*
X96106100Y-88303600D02*
X96741100Y-87668600D01*
D19*
X174980100Y-75392600D02*
G75*
G03*
X174980100Y-75392600I-125000J0D01*
G01*
D18*
X174351100Y-75142600D02*
X174351100Y-75553600D01*
X174351100Y-75553600D02*
X170251100Y-75553600D01*
X170251100Y-75553600D02*
X170251100Y-75142600D01*
X174351100Y-70864600D02*
X174351100Y-70453600D01*
X174351100Y-70453600D02*
X170251100Y-70453600D01*
X170251100Y-70453600D02*
X170251100Y-70864600D01*
D13*
X176801100Y-71503600D02*
X175301100Y-70003600D01*
X175301100Y-70003600D02*
X175301100Y-68003600D01*
X175301100Y-68003600D02*
X176801100Y-66503600D01*
X176801100Y-66503600D02*
X178801100Y-66503600D01*
X178801100Y-66503600D02*
X180301100Y-68003600D01*
X180301100Y-68003600D02*
X180301100Y-70003600D01*
X180301100Y-70003600D02*
X178801100Y-71503600D01*
X178801100Y-71503600D02*
X176801100Y-71503600D01*
D18*
X187690100Y-76503600D02*
X187690100Y-73503600D01*
X184312100Y-76503600D02*
X184312100Y-73503600D01*
D19*
X184247100Y-77007600D02*
G75*
G03*
X184247100Y-77007600I-125000J0D01*
G01*
D13*
X186501100Y-69103600D02*
X188001100Y-67603600D01*
X188001100Y-67603600D02*
X190001100Y-67603600D01*
X190001100Y-67603600D02*
X191501100Y-69103600D01*
X191501100Y-69103600D02*
X191501100Y-71103600D01*
X191501100Y-71103600D02*
X190001100Y-72603600D01*
X190001100Y-72603600D02*
X188001100Y-72603600D01*
X188001100Y-72603600D02*
X186501100Y-71103600D01*
X186501100Y-71103600D02*
X186501100Y-69103600D01*
D16*
X188673900Y-78538800D02*
X188673900Y-74322400D01*
X192382300Y-74322400D02*
X192382300Y-78538800D01*
X188673900Y-78538800D02*
X189105700Y-78538800D01*
X192382300Y-78538800D02*
X191950500Y-78538800D01*
X192382300Y-74322400D02*
X191925100Y-74322400D01*
X188673900Y-74322400D02*
X189080300Y-74322400D01*
D24*
X188902500Y-78310200D02*
X188902500Y-74551000D01*
X189105700Y-74551000D02*
X188902500Y-74551000D01*
X191899700Y-74551000D02*
X192153700Y-74551000D01*
X192153700Y-78310200D02*
X192153700Y-74551000D01*
X189131100Y-78310200D02*
X188902500Y-78310200D01*
X192153700Y-78310200D02*
X191925100Y-78310200D01*
D16*
X190601100Y-111573600D02*
X190601100Y-110433600D01*
X189771100Y-109753600D02*
X189431100Y-109753600D01*
X189771100Y-112253600D02*
X189431100Y-112253600D01*
X188601100Y-111573600D02*
X188601100Y-110433600D01*
D19*
X159080100Y-67728300D02*
G75*
G03*
X159080100Y-67728300I-125000J0D01*
G01*
D18*
X158451100Y-67478300D02*
X158451100Y-67553600D01*
X158451100Y-67553600D02*
X156551100Y-67553600D01*
X156551100Y-67553600D02*
X156551100Y-67478300D01*
X158451100Y-64528900D02*
X158451100Y-64453600D01*
X158451100Y-64453600D02*
X156551100Y-64453600D01*
X156551100Y-64453600D02*
X156551100Y-64528900D01*
D19*
X159472100Y-62378900D02*
G75*
G03*
X159472100Y-62378900I-125000J0D01*
G01*
D18*
X159851100Y-62628900D02*
X159851100Y-62553600D01*
X159851100Y-62553600D02*
X161751100Y-62553600D01*
X161751100Y-62553600D02*
X161751100Y-62628900D01*
X159851100Y-65578300D02*
X159851100Y-65653600D01*
X159851100Y-65653600D02*
X161751100Y-65653600D01*
X161751100Y-65653600D02*
X161751100Y-65578300D01*
D25*
X153001666Y-65387380D02*
X153001666Y-66101666D01*
X152954047Y-66244523D01*
X152858809Y-66339761D01*
X152715952Y-66387380D01*
X152620714Y-66387380D01*
X153906428Y-65720714D02*
X153906428Y-66387380D01*
X153668333Y-65339761D02*
X153430238Y-66054047D01*
X154049285Y-66054047D01*
X145915639Y-59494280D02*
X146630572Y-59494280D01*
X146773559Y-59541942D01*
X146868883Y-59637266D01*
X146916545Y-59780253D01*
X146916545Y-59875577D01*
X146916545Y-58493374D02*
X146916545Y-59065320D01*
X146916545Y-58779347D02*
X145915639Y-58779347D01*
X146058626Y-58874671D01*
X146153950Y-58969996D01*
X146201612Y-59065320D01*
D11*
X196599557Y-78127486D02*
X196820174Y-77539174D01*
X197040791Y-78127486D01*
X197114330Y-77171479D02*
X196342170Y-77171479D01*
X197114330Y-76730244D01*
X196342170Y-76730244D01*
X197114330Y-76031623D02*
X196709865Y-76031623D01*
X196636326Y-76068393D01*
X196599557Y-76141932D01*
X196599557Y-76289010D01*
X196636326Y-76362549D01*
X197077560Y-76031623D02*
X197114330Y-76105162D01*
X197114330Y-76289010D01*
X197077560Y-76362549D01*
X197004021Y-76399319D01*
X196930482Y-76399319D01*
X196856943Y-76362549D01*
X196820174Y-76289010D01*
X196820174Y-76105162D01*
X196783404Y-76031623D01*
X197114330Y-75663928D02*
X196599557Y-75663928D01*
X196673096Y-75663928D02*
X196636326Y-75627159D01*
X196599557Y-75553620D01*
X196599557Y-75443311D01*
X196636326Y-75369772D01*
X196709865Y-75333002D01*
X197114330Y-75333002D01*
X196709865Y-75333002D02*
X196636326Y-75296233D01*
X196599557Y-75222694D01*
X196599557Y-75112385D01*
X196636326Y-75038846D01*
X196709865Y-75002077D01*
X197114330Y-75002077D01*
X197077560Y-74340225D02*
X197114330Y-74413764D01*
X197114330Y-74560842D01*
X197077560Y-74634382D01*
X197004021Y-74671151D01*
X196709865Y-74671151D01*
X196636326Y-74634382D01*
X196599557Y-74560842D01*
X196599557Y-74413764D01*
X196636326Y-74340225D01*
X196709865Y-74303456D01*
X196783404Y-74303456D01*
X196856943Y-74671151D01*
X180049557Y-74777486D02*
X180270174Y-74189174D01*
X180490791Y-74777486D01*
X180564330Y-73821479D02*
X179792170Y-73821479D01*
X180564330Y-73380244D01*
X179792170Y-73380244D01*
X180564330Y-72681623D02*
X180159865Y-72681623D01*
X180086326Y-72718393D01*
X180049557Y-72791932D01*
X180049557Y-72939010D01*
X180086326Y-73012549D01*
X180527560Y-72681623D02*
X180564330Y-72755162D01*
X180564330Y-72939010D01*
X180527560Y-73012549D01*
X180454021Y-73049319D01*
X180380482Y-73049319D01*
X180306943Y-73012549D01*
X180270174Y-72939010D01*
X180270174Y-72755162D01*
X180233404Y-72681623D01*
X180564330Y-72313928D02*
X180049557Y-72313928D01*
X180123096Y-72313928D02*
X180086326Y-72277159D01*
X180049557Y-72203620D01*
X180049557Y-72093311D01*
X180086326Y-72019772D01*
X180159865Y-71983002D01*
X180564330Y-71983002D01*
X180159865Y-71983002D02*
X180086326Y-71946233D01*
X180049557Y-71872694D01*
X180049557Y-71762385D01*
X180086326Y-71688846D01*
X180159865Y-71652077D01*
X180564330Y-71652077D01*
X180527560Y-70990225D02*
X180564330Y-71063764D01*
X180564330Y-71210842D01*
X180527560Y-71284382D01*
X180454021Y-71321151D01*
X180159865Y-71321151D01*
X180086326Y-71284382D01*
X180049557Y-71210842D01*
X180049557Y-71063764D01*
X180086326Y-70990225D01*
X180159865Y-70953456D01*
X180233404Y-70953456D01*
X180306943Y-71321151D01*
X163449557Y-81777486D02*
X163670174Y-81189174D01*
X163890791Y-81777486D01*
X163964330Y-80821479D02*
X163192170Y-80821479D01*
X163964330Y-80380244D01*
X163192170Y-80380244D01*
X163964330Y-79681623D02*
X163559865Y-79681623D01*
X163486326Y-79718393D01*
X163449557Y-79791932D01*
X163449557Y-79939010D01*
X163486326Y-80012549D01*
X163927560Y-79681623D02*
X163964330Y-79755162D01*
X163964330Y-79939010D01*
X163927560Y-80012549D01*
X163854021Y-80049319D01*
X163780482Y-80049319D01*
X163706943Y-80012549D01*
X163670174Y-79939010D01*
X163670174Y-79755162D01*
X163633404Y-79681623D01*
X163964330Y-79313928D02*
X163449557Y-79313928D01*
X163523096Y-79313928D02*
X163486326Y-79277159D01*
X163449557Y-79203620D01*
X163449557Y-79093311D01*
X163486326Y-79019772D01*
X163559865Y-78983002D01*
X163964330Y-78983002D01*
X163559865Y-78983002D02*
X163486326Y-78946233D01*
X163449557Y-78872694D01*
X163449557Y-78762385D01*
X163486326Y-78688846D01*
X163559865Y-78652077D01*
X163964330Y-78652077D01*
X163927560Y-77990225D02*
X163964330Y-78063764D01*
X163964330Y-78210842D01*
X163927560Y-78284382D01*
X163854021Y-78321151D01*
X163559865Y-78321151D01*
X163486326Y-78284382D01*
X163449557Y-78210842D01*
X163449557Y-78063764D01*
X163486326Y-77990225D01*
X163559865Y-77953456D01*
X163633404Y-77953456D01*
X163706943Y-78321151D01*
X107649557Y-134207486D02*
X107870174Y-133619174D01*
X108090791Y-134207486D01*
X108164330Y-133251479D02*
X107392170Y-133251479D01*
X108164330Y-132810244D01*
X107392170Y-132810244D01*
X108164330Y-132111623D02*
X107759865Y-132111623D01*
X107686326Y-132148393D01*
X107649557Y-132221932D01*
X107649557Y-132369010D01*
X107686326Y-132442549D01*
X108127560Y-132111623D02*
X108164330Y-132185162D01*
X108164330Y-132369010D01*
X108127560Y-132442549D01*
X108054021Y-132479319D01*
X107980482Y-132479319D01*
X107906943Y-132442549D01*
X107870174Y-132369010D01*
X107870174Y-132185162D01*
X107833404Y-132111623D01*
X108164330Y-131743928D02*
X107649557Y-131743928D01*
X107723096Y-131743928D02*
X107686326Y-131707159D01*
X107649557Y-131633620D01*
X107649557Y-131523311D01*
X107686326Y-131449772D01*
X107759865Y-131413002D01*
X108164330Y-131413002D01*
X107759865Y-131413002D02*
X107686326Y-131376233D01*
X107649557Y-131302694D01*
X107649557Y-131192385D01*
X107686326Y-131118846D01*
X107759865Y-131082077D01*
X108164330Y-131082077D01*
X108127560Y-130420225D02*
X108164330Y-130493764D01*
X108164330Y-130640842D01*
X108127560Y-130714382D01*
X108054021Y-130751151D01*
X107759865Y-130751151D01*
X107686326Y-130714382D01*
X107649557Y-130640842D01*
X107649557Y-130493764D01*
X107686326Y-130420225D01*
X107759865Y-130383456D01*
X107833404Y-130383456D01*
X107906943Y-130751151D01*
X135857213Y-133852057D02*
X136445525Y-134072674D01*
X135857213Y-134293291D01*
X136813220Y-134366830D02*
X136813220Y-133594670D01*
X137254455Y-134366830D01*
X137254455Y-133594670D01*
X137953076Y-134366830D02*
X137953076Y-133962365D01*
X137916306Y-133888826D01*
X137842767Y-133852057D01*
X137695689Y-133852057D01*
X137622150Y-133888826D01*
X137953076Y-134330060D02*
X137879537Y-134366830D01*
X137695689Y-134366830D01*
X137622150Y-134330060D01*
X137585380Y-134256521D01*
X137585380Y-134182982D01*
X137622150Y-134109443D01*
X137695689Y-134072674D01*
X137879537Y-134072674D01*
X137953076Y-134035904D01*
X138320771Y-134366830D02*
X138320771Y-133852057D01*
X138320771Y-133925596D02*
X138357540Y-133888826D01*
X138431079Y-133852057D01*
X138541388Y-133852057D01*
X138614927Y-133888826D01*
X138651697Y-133962365D01*
X138651697Y-134366830D01*
X138651697Y-133962365D02*
X138688466Y-133888826D01*
X138762005Y-133852057D01*
X138872314Y-133852057D01*
X138945853Y-133888826D01*
X138982622Y-133962365D01*
X138982622Y-134366830D01*
X139644474Y-134330060D02*
X139570935Y-134366830D01*
X139423857Y-134366830D01*
X139350317Y-134330060D01*
X139313548Y-134256521D01*
X139313548Y-133962365D01*
X139350317Y-133888826D01*
X139423857Y-133852057D01*
X139570935Y-133852057D01*
X139644474Y-133888826D01*
X139681243Y-133962365D01*
X139681243Y-134035904D01*
X139313548Y-134109443D01*
X193549557Y-132907486D02*
X193770174Y-132319174D01*
X193990791Y-132907486D01*
X194064330Y-131951479D02*
X193292170Y-131951479D01*
X194064330Y-131510244D01*
X193292170Y-131510244D01*
X194064330Y-130811623D02*
X193659865Y-130811623D01*
X193586326Y-130848393D01*
X193549557Y-130921932D01*
X193549557Y-131069010D01*
X193586326Y-131142549D01*
X194027560Y-130811623D02*
X194064330Y-130885162D01*
X194064330Y-131069010D01*
X194027560Y-131142549D01*
X193954021Y-131179319D01*
X193880482Y-131179319D01*
X193806943Y-131142549D01*
X193770174Y-131069010D01*
X193770174Y-130885162D01*
X193733404Y-130811623D01*
X194064330Y-130443928D02*
X193549557Y-130443928D01*
X193623096Y-130443928D02*
X193586326Y-130407159D01*
X193549557Y-130333620D01*
X193549557Y-130223311D01*
X193586326Y-130149772D01*
X193659865Y-130113002D01*
X194064330Y-130113002D01*
X193659865Y-130113002D02*
X193586326Y-130076233D01*
X193549557Y-130002694D01*
X193549557Y-129892385D01*
X193586326Y-129818846D01*
X193659865Y-129782077D01*
X194064330Y-129782077D01*
X194027560Y-129120225D02*
X194064330Y-129193764D01*
X194064330Y-129340842D01*
X194027560Y-129414382D01*
X193954021Y-129451151D01*
X193659865Y-129451151D01*
X193586326Y-129414382D01*
X193549557Y-129340842D01*
X193549557Y-129193764D01*
X193586326Y-129120225D01*
X193659865Y-129083456D01*
X193733404Y-129083456D01*
X193806943Y-129451151D01*
X174449557Y-70777486D02*
X174670174Y-70189174D01*
X174890791Y-70777486D01*
X174964330Y-69821479D02*
X174192170Y-69821479D01*
X174964330Y-69380244D01*
X174192170Y-69380244D01*
X174964330Y-68681623D02*
X174559865Y-68681623D01*
X174486326Y-68718393D01*
X174449557Y-68791932D01*
X174449557Y-68939010D01*
X174486326Y-69012549D01*
X174927560Y-68681623D02*
X174964330Y-68755162D01*
X174964330Y-68939010D01*
X174927560Y-69012549D01*
X174854021Y-69049319D01*
X174780482Y-69049319D01*
X174706943Y-69012549D01*
X174670174Y-68939010D01*
X174670174Y-68755162D01*
X174633404Y-68681623D01*
X174964330Y-68313928D02*
X174449557Y-68313928D01*
X174523096Y-68313928D02*
X174486326Y-68277159D01*
X174449557Y-68203620D01*
X174449557Y-68093311D01*
X174486326Y-68019772D01*
X174559865Y-67983002D01*
X174964330Y-67983002D01*
X174559865Y-67983002D02*
X174486326Y-67946233D01*
X174449557Y-67872694D01*
X174449557Y-67762385D01*
X174486326Y-67688846D01*
X174559865Y-67652077D01*
X174964330Y-67652077D01*
X174927560Y-66990225D02*
X174964330Y-67063764D01*
X174964330Y-67210842D01*
X174927560Y-67284382D01*
X174854021Y-67321151D01*
X174559865Y-67321151D01*
X174486326Y-67284382D01*
X174449557Y-67210842D01*
X174449557Y-67063764D01*
X174486326Y-66990225D01*
X174559865Y-66953456D01*
X174633404Y-66953456D01*
X174706943Y-67321151D01*
X187227213Y-66752057D02*
X187815525Y-66972674D01*
X187227213Y-67193291D01*
X188183220Y-67266830D02*
X188183220Y-66494670D01*
X188624455Y-67266830D01*
X188624455Y-66494670D01*
X189323076Y-67266830D02*
X189323076Y-66862365D01*
X189286306Y-66788826D01*
X189212767Y-66752057D01*
X189065689Y-66752057D01*
X188992150Y-66788826D01*
X189323076Y-67230060D02*
X189249537Y-67266830D01*
X189065689Y-67266830D01*
X188992150Y-67230060D01*
X188955380Y-67156521D01*
X188955380Y-67082982D01*
X188992150Y-67009443D01*
X189065689Y-66972674D01*
X189249537Y-66972674D01*
X189323076Y-66935904D01*
X189690771Y-67266830D02*
X189690771Y-66752057D01*
X189690771Y-66825596D02*
X189727540Y-66788826D01*
X189801079Y-66752057D01*
X189911388Y-66752057D01*
X189984927Y-66788826D01*
X190021697Y-66862365D01*
X190021697Y-67266830D01*
X190021697Y-66862365D02*
X190058466Y-66788826D01*
X190132005Y-66752057D01*
X190242314Y-66752057D01*
X190315853Y-66788826D01*
X190352622Y-66862365D01*
X190352622Y-67266830D01*
X191014474Y-67230060D02*
X190940935Y-67266830D01*
X190793857Y-67266830D01*
X190720317Y-67230060D01*
X190683548Y-67156521D01*
X190683548Y-66862365D01*
X190720317Y-66788826D01*
X190793857Y-66752057D01*
X190940935Y-66752057D01*
X191014474Y-66788826D01*
X191051243Y-66862365D01*
X191051243Y-66935904D01*
X190683548Y-67009443D01*
M02*
