G04 #@! TF.GenerationSoftware,KiCad,Pcbnew,(5.1.7)-1*
G04 #@! TF.CreationDate,2020-10-25T18:45:03+01:00*
G04 #@! TF.ProjectId,VNA,564e412e-6b69-4636-9164-5f7063625858,0.1*
G04 #@! TF.SameCoordinates,Original*
G04 #@! TF.FileFunction,Paste,Top*
G04 #@! TF.FilePolarity,Positive*
%FSLAX46Y46*%
G04 Gerber Fmt 4.6, Leading zero omitted, Abs format (unit mm)*
G04 Created by KiCad (PCBNEW (5.1.7)-1) date 2020-10-25 18:45:03*
%MOMM*%
%LPD*%
G01*
G04 APERTURE LIST*
%ADD10R,0.600000X1.450000*%
%ADD11R,0.300000X1.450000*%
%ADD12R,0.720000X0.670000*%
%ADD13R,0.670000X0.720000*%
%ADD14R,1.000000X1.100000*%
%ADD15R,1.800000X1.600000*%
%ADD16R,1.600000X1.800000*%
%ADD17C,0.152400*%
%ADD18R,1.650000X2.380000*%
%ADD19R,1.470900X0.481500*%
%ADD20R,2.700000X2.700000*%
%ADD21R,3.100000X3.100000*%
%ADD22R,1.180100X0.609200*%
%ADD23R,0.760000X0.760000*%
%ADD24R,2.265100X3.229100*%
%ADD25R,2.265100X0.929100*%
%ADD26R,2.380000X1.650000*%
%ADD27R,1.600000X0.900000*%
%ADD28R,0.700000X0.900000*%
%ADD29R,0.900000X0.700000*%
%ADD30R,0.423900X0.570900*%
%ADD31R,2.400000X1.700000*%
%ADD32R,1.100000X1.000000*%
%ADD33R,4.200000X1.500000*%
%ADD34R,1.600000X0.300000*%
%ADD35R,0.300000X1.600000*%
%ADD36R,2.200000X0.600000*%
%ADD37R,0.609200X1.180100*%
%ADD38R,0.800000X0.800000*%
%ADD39R,2.060000X2.060000*%
%ADD40R,2.500000X2.500000*%
%ADD41R,0.800000X1.400000*%
%ADD42R,1.400000X0.800000*%
%ADD43R,2.667000X4.191000*%
%ADD44R,1.000000X4.000000*%
%ADD45R,2.286000X5.080000*%
%ADD46R,1.143000X5.080000*%
%ADD47R,5.600000X5.600000*%
%ADD48R,2.600000X4.000000*%
%ADD49R,1.500000X4.200000*%
%ADD50R,2.743200X2.159000*%
%ADD51R,0.900000X0.750000*%
%ADD52R,0.788400X0.541500*%
G04 APERTURE END LIST*
D10*
X148260000Y-63595000D03*
X149060000Y-63595000D03*
D11*
X149760000Y-63595000D03*
X150260000Y-63595000D03*
X150760000Y-63595000D03*
X151260000Y-63595000D03*
X153260000Y-63595000D03*
X152760000Y-63595000D03*
X152260000Y-63595000D03*
X151760000Y-63595000D03*
D10*
X153960000Y-63595000D03*
X154760000Y-63595000D03*
D12*
X99501100Y-144843600D03*
X99501100Y-145963600D03*
X98801100Y-125843600D03*
X98801100Y-126963600D03*
X168701100Y-113563600D03*
X168701100Y-112443600D03*
X172701100Y-113563600D03*
X172701100Y-112443600D03*
X176701100Y-113563600D03*
X176701100Y-112443600D03*
X168701100Y-109263600D03*
X168701100Y-108143600D03*
X178501100Y-108563600D03*
X178501100Y-107443600D03*
X183801100Y-114043600D03*
X183801100Y-115163600D03*
X198501100Y-62360000D03*
X198501100Y-61240000D03*
X187401100Y-111643600D03*
X187401100Y-112763600D03*
X187401100Y-108843600D03*
X187401100Y-109963600D03*
X102201100Y-125843600D03*
X102201100Y-126963600D03*
D13*
X179661100Y-106203600D03*
X178541100Y-106203600D03*
D12*
X172701100Y-109263600D03*
X172701100Y-108143600D03*
X176701100Y-109263600D03*
X176701100Y-108143600D03*
X158601100Y-107063600D03*
X158601100Y-105943600D03*
X154401100Y-107063600D03*
X154401100Y-105943600D03*
X157401100Y-107063600D03*
X157401100Y-105943600D03*
X154101100Y-95843600D03*
X154101100Y-96963600D03*
D13*
X151841100Y-95703600D03*
X152961100Y-95703600D03*
X155861100Y-94603600D03*
X154741100Y-94603600D03*
X95141100Y-128203600D03*
X96261100Y-128203600D03*
X160961100Y-102703600D03*
X159841100Y-102703600D03*
X144861100Y-116703600D03*
X143741100Y-116703600D03*
D12*
X172401100Y-122443600D03*
X172401100Y-123563600D03*
D14*
X168101100Y-93253600D03*
X168101100Y-94953600D03*
X163001100Y-93253600D03*
X163001100Y-94953600D03*
D15*
X179501100Y-98803600D03*
X179501100Y-96003600D03*
D16*
X165301100Y-97103600D03*
X168101100Y-97103600D03*
D13*
X160961100Y-100303600D03*
X159841100Y-100303600D03*
X161361100Y-93303600D03*
X160241100Y-93303600D03*
D12*
X153201100Y-107063600D03*
X153201100Y-105943600D03*
D13*
X105061100Y-128203600D03*
X103941100Y-128203600D03*
X159841100Y-101503600D03*
X160961100Y-101503600D03*
D12*
X150601100Y-102343600D03*
X150601100Y-103463600D03*
X138901100Y-102963600D03*
X138901100Y-101843600D03*
X176601100Y-122443600D03*
X176601100Y-123563600D03*
X173601100Y-122443600D03*
X173601100Y-123563600D03*
X177201100Y-133763600D03*
X177201100Y-132643600D03*
D13*
X179461100Y-133903600D03*
X178341100Y-133903600D03*
X175441100Y-135003600D03*
X176561100Y-135003600D03*
X170041100Y-126703600D03*
X171161100Y-126703600D03*
D14*
X164101100Y-135053600D03*
X164101100Y-133353600D03*
D13*
X99941100Y-125703600D03*
X101061100Y-125703600D03*
D14*
X169101100Y-135053600D03*
X169101100Y-133353600D03*
D15*
X160501100Y-135403600D03*
X160501100Y-132603600D03*
D16*
X162101100Y-123003600D03*
X164901100Y-123003600D03*
D13*
X170041100Y-129103600D03*
X171161100Y-129103600D03*
X170441100Y-134903600D03*
X171561100Y-134903600D03*
D12*
X177801100Y-122443600D03*
X177801100Y-123563600D03*
D13*
X171161100Y-127903600D03*
X170041100Y-127903600D03*
D12*
X180201100Y-124063600D03*
X180201100Y-122943600D03*
X151501100Y-119443600D03*
X151501100Y-120563600D03*
D13*
X146941100Y-113003600D03*
X148061100Y-113003600D03*
X97361100Y-113903600D03*
X96241100Y-113903600D03*
D12*
X148301100Y-129063600D03*
X148301100Y-127943600D03*
D13*
X151961100Y-133603600D03*
X150841100Y-133603600D03*
X151961100Y-130103600D03*
X150841100Y-130103600D03*
D12*
X148501100Y-135863600D03*
X148501100Y-134743600D03*
D17*
G36*
X171987442Y-143966723D02*
G01*
X172496559Y-144475840D01*
X172022798Y-144949601D01*
X171513681Y-144440484D01*
X171987442Y-143966723D01*
G37*
G36*
X172779402Y-143174763D02*
G01*
X173288519Y-143683880D01*
X172814758Y-144157641D01*
X172305641Y-143648524D01*
X172779402Y-143174763D01*
G37*
D13*
X148841100Y-148203600D03*
X149961100Y-148203600D03*
D12*
X113501100Y-140943600D03*
X113501100Y-142063600D03*
D13*
X100711100Y-102203600D03*
X99591100Y-102203600D03*
X97261100Y-102303600D03*
X96141100Y-102303600D03*
X97361100Y-115203600D03*
X96241100Y-115203600D03*
X104161100Y-102203600D03*
X103041100Y-102203600D03*
X113741100Y-146403600D03*
X114861100Y-146403600D03*
X98641100Y-110303600D03*
X99761100Y-110303600D03*
X102061100Y-110303600D03*
X100941100Y-110303600D03*
D12*
X102301100Y-112743600D03*
X102301100Y-113863600D03*
D13*
X97361100Y-111503600D03*
X96241100Y-111503600D03*
D12*
X95301100Y-107543600D03*
X95301100Y-108663600D03*
X105101100Y-108663600D03*
X105101100Y-107543600D03*
X99601100Y-104743600D03*
X99601100Y-105863600D03*
D13*
X100711100Y-103503600D03*
X99591100Y-103503600D03*
X97461100Y-96403600D03*
X96341100Y-96403600D03*
X103741100Y-132003600D03*
X104861100Y-132003600D03*
D12*
X100801100Y-105863600D03*
X100801100Y-104743600D03*
D13*
X99941100Y-123503600D03*
X101061100Y-123503600D03*
X99941100Y-121403600D03*
X101061100Y-121403600D03*
X181261100Y-146403600D03*
X180141100Y-146403600D03*
D12*
X191901100Y-129643600D03*
X191901100Y-130763600D03*
X193101100Y-129643600D03*
X193101100Y-130763600D03*
D13*
X191941100Y-131903600D03*
X193061100Y-131903600D03*
D12*
X191901100Y-121543600D03*
X191901100Y-122663600D03*
X193101100Y-122663600D03*
X193101100Y-121543600D03*
D13*
X103741100Y-130803600D03*
X104861100Y-130803600D03*
D12*
X195701100Y-130863600D03*
X195701100Y-129743600D03*
X198101100Y-130863600D03*
X198101100Y-129743600D03*
D13*
X198561100Y-127103600D03*
X197441100Y-127103600D03*
D12*
X196901100Y-130863600D03*
X196901100Y-129743600D03*
X195701100Y-121543600D03*
X195701100Y-122663600D03*
D13*
X198061100Y-111203600D03*
X196941100Y-111203600D03*
X199741100Y-106003600D03*
X200861100Y-106003600D03*
X203261100Y-106003600D03*
X202141100Y-106003600D03*
X198061100Y-107203600D03*
X196941100Y-107203600D03*
D12*
X203501100Y-108743600D03*
X203501100Y-109863600D03*
D13*
X106041100Y-133103600D03*
X107161100Y-133103600D03*
D12*
X196901100Y-103243600D03*
X196901100Y-104363600D03*
X205401100Y-104363600D03*
X205401100Y-103243600D03*
X199901100Y-100443600D03*
X199901100Y-101563600D03*
D13*
X201061100Y-98303600D03*
X199941100Y-98303600D03*
D12*
X201101100Y-101563600D03*
X201101100Y-100443600D03*
D13*
X198561100Y-125903600D03*
X197441100Y-125903600D03*
D12*
X199801100Y-125943600D03*
X199801100Y-127063600D03*
D13*
X201041100Y-123403600D03*
X202161100Y-123403600D03*
X201041100Y-119803600D03*
X202161100Y-119803600D03*
X198061100Y-109803600D03*
X196941100Y-109803600D03*
X95141100Y-132003600D03*
X96261100Y-132003600D03*
X201061100Y-97003600D03*
X199941100Y-97003600D03*
X197061100Y-97003600D03*
X195941100Y-97003600D03*
X205061100Y-97003600D03*
X203941100Y-97003600D03*
X198061100Y-90703600D03*
X196941100Y-90703600D03*
D12*
X182501100Y-61240000D03*
X182501100Y-62360000D03*
X141501100Y-138043600D03*
X141501100Y-139163600D03*
D13*
X131941100Y-136603600D03*
X133061100Y-136603600D03*
X131941100Y-135303600D03*
X133061100Y-135303600D03*
D12*
X134301100Y-136563600D03*
X134301100Y-135443600D03*
D13*
X96261100Y-130803600D03*
X95141100Y-130803600D03*
X124341100Y-136603600D03*
X125461100Y-136603600D03*
X125461100Y-135403600D03*
X124341100Y-135403600D03*
X124341100Y-138003600D03*
X125461100Y-138003600D03*
X133661100Y-130403600D03*
X132541100Y-130403600D03*
D12*
X131001100Y-130443600D03*
X131001100Y-131563600D03*
D13*
X124341100Y-132803600D03*
X125461100Y-132803600D03*
X133661100Y-131603600D03*
X132541100Y-131603600D03*
D12*
X124701100Y-129043600D03*
X124701100Y-130163600D03*
D13*
X118841100Y-123103600D03*
X119961100Y-123103600D03*
X122661100Y-123103600D03*
X121541100Y-123103600D03*
X105061100Y-129403600D03*
X103941100Y-129403600D03*
X123941100Y-124303600D03*
X125061100Y-124303600D03*
D12*
X120101100Y-129043600D03*
X120101100Y-130163600D03*
X115801100Y-120343600D03*
X115801100Y-121463600D03*
X125601100Y-121563600D03*
X125601100Y-120443600D03*
X120101100Y-117443600D03*
X120101100Y-118563600D03*
D13*
X121261100Y-115303600D03*
X120141100Y-115303600D03*
D12*
X121301100Y-118563600D03*
X121301100Y-117443600D03*
X127501100Y-130443600D03*
X127501100Y-131563600D03*
D13*
X128691100Y-130353600D03*
X129811100Y-130353600D03*
X128691100Y-128053600D03*
X129811100Y-128053600D03*
X95141100Y-127003600D03*
X96261100Y-127003600D03*
X128701100Y-125583600D03*
X129821100Y-125583600D03*
D12*
X121701100Y-129043600D03*
X121701100Y-130163600D03*
D13*
X121261100Y-113903600D03*
X120141100Y-113903600D03*
X117561100Y-113903600D03*
X116441100Y-113903600D03*
X124961100Y-113903600D03*
X123841100Y-113903600D03*
D12*
X118001100Y-107743600D03*
X118001100Y-108863600D03*
X189801100Y-115163600D03*
X189801100Y-114043600D03*
X187401100Y-114043600D03*
X187401100Y-115163600D03*
X185001100Y-115163600D03*
X185001100Y-114043600D03*
D18*
X123201100Y-126603600D03*
G36*
G01*
X122162450Y-127353600D02*
X122162450Y-127353600D01*
G75*
G02*
X122027450Y-127488600I-135000J0D01*
G01*
X121380150Y-127488600D01*
G75*
G02*
X121245150Y-127353600I0J135000D01*
G01*
X121245150Y-127353600D01*
G75*
G02*
X121380150Y-127218600I135000J0D01*
G01*
X122027450Y-127218600D01*
G75*
G02*
X122162450Y-127353600I0J-135000D01*
G01*
G37*
G36*
G01*
X122162450Y-126853600D02*
X122162450Y-126853600D01*
G75*
G02*
X122027450Y-126988600I-135000J0D01*
G01*
X121380150Y-126988600D01*
G75*
G02*
X121245150Y-126853600I0J135000D01*
G01*
X121245150Y-126853600D01*
G75*
G02*
X121380150Y-126718600I135000J0D01*
G01*
X122027450Y-126718600D01*
G75*
G02*
X122162450Y-126853600I0J-135000D01*
G01*
G37*
G36*
G01*
X122162450Y-126353600D02*
X122162450Y-126353600D01*
G75*
G02*
X122027450Y-126488600I-135000J0D01*
G01*
X121380150Y-126488600D01*
G75*
G02*
X121245150Y-126353600I0J135000D01*
G01*
X121245150Y-126353600D01*
G75*
G02*
X121380150Y-126218600I135000J0D01*
G01*
X122027450Y-126218600D01*
G75*
G02*
X122162450Y-126353600I0J-135000D01*
G01*
G37*
G36*
G01*
X122162450Y-125853600D02*
X122162450Y-125853600D01*
G75*
G02*
X122027450Y-125988600I-135000J0D01*
G01*
X121380150Y-125988600D01*
G75*
G02*
X121245150Y-125853600I0J135000D01*
G01*
X121245150Y-125853600D01*
G75*
G02*
X121380150Y-125718600I135000J0D01*
G01*
X122027450Y-125718600D01*
G75*
G02*
X122162450Y-125853600I0J-135000D01*
G01*
G37*
G36*
G01*
X125157050Y-125853600D02*
X125157050Y-125853600D01*
G75*
G02*
X125022050Y-125988600I-135000J0D01*
G01*
X124374750Y-125988600D01*
G75*
G02*
X124239750Y-125853600I0J135000D01*
G01*
X124239750Y-125853600D01*
G75*
G02*
X124374750Y-125718600I135000J0D01*
G01*
X125022050Y-125718600D01*
G75*
G02*
X125157050Y-125853600I0J-135000D01*
G01*
G37*
G36*
G01*
X125157050Y-126353600D02*
X125157050Y-126353600D01*
G75*
G02*
X125022050Y-126488600I-135000J0D01*
G01*
X124374750Y-126488600D01*
G75*
G02*
X124239750Y-126353600I0J135000D01*
G01*
X124239750Y-126353600D01*
G75*
G02*
X124374750Y-126218600I135000J0D01*
G01*
X125022050Y-126218600D01*
G75*
G02*
X125157050Y-126353600I0J-135000D01*
G01*
G37*
G36*
G01*
X125157050Y-126853600D02*
X125157050Y-126853600D01*
G75*
G02*
X125022050Y-126988600I-135000J0D01*
G01*
X124374750Y-126988600D01*
G75*
G02*
X124239750Y-126853600I0J135000D01*
G01*
X124239750Y-126853600D01*
G75*
G02*
X124374750Y-126718600I135000J0D01*
G01*
X125022050Y-126718600D01*
G75*
G02*
X125157050Y-126853600I0J-135000D01*
G01*
G37*
G36*
G01*
X125157050Y-127353600D02*
X125157050Y-127353600D01*
G75*
G02*
X125022050Y-127488600I-135000J0D01*
G01*
X124374750Y-127488600D01*
G75*
G02*
X124239750Y-127353600I0J135000D01*
G01*
X124239750Y-127353600D01*
G75*
G02*
X124374750Y-127218600I135000J0D01*
G01*
X125022050Y-127218600D01*
G75*
G02*
X125157050Y-127353600I0J-135000D01*
G01*
G37*
D19*
X118551500Y-121878600D03*
X118551500Y-121228600D03*
X118551500Y-120578600D03*
X118551500Y-119928600D03*
X122850700Y-119928600D03*
X122850700Y-120578600D03*
X122850700Y-121228600D03*
X122850700Y-121878600D03*
G36*
G01*
X119501100Y-108289450D02*
X119501100Y-108289450D01*
G75*
G02*
X119361100Y-108149450I0J140000D01*
G01*
X119361100Y-106958550D01*
G75*
G02*
X119501100Y-106818550I140000J0D01*
G01*
X119501100Y-106818550D01*
G75*
G02*
X119641100Y-106958550I0J-140000D01*
G01*
X119641100Y-108149450D01*
G75*
G02*
X119501100Y-108289450I-140000J0D01*
G01*
G37*
G36*
G01*
X120001100Y-108289450D02*
X120001100Y-108289450D01*
G75*
G02*
X119861100Y-108149450I0J140000D01*
G01*
X119861100Y-106958550D01*
G75*
G02*
X120001100Y-106818550I140000J0D01*
G01*
X120001100Y-106818550D01*
G75*
G02*
X120141100Y-106958550I0J-140000D01*
G01*
X120141100Y-108149450D01*
G75*
G02*
X120001100Y-108289450I-140000J0D01*
G01*
G37*
G36*
G01*
X120501100Y-108289450D02*
X120501100Y-108289450D01*
G75*
G02*
X120361100Y-108149450I0J140000D01*
G01*
X120361100Y-106958550D01*
G75*
G02*
X120501100Y-106818550I140000J0D01*
G01*
X120501100Y-106818550D01*
G75*
G02*
X120641100Y-106958550I0J-140000D01*
G01*
X120641100Y-108149450D01*
G75*
G02*
X120501100Y-108289450I-140000J0D01*
G01*
G37*
G36*
G01*
X121001100Y-108289450D02*
X121001100Y-108289450D01*
G75*
G02*
X120861100Y-108149450I0J140000D01*
G01*
X120861100Y-106958550D01*
G75*
G02*
X121001100Y-106818550I140000J0D01*
G01*
X121001100Y-106818550D01*
G75*
G02*
X121141100Y-106958550I0J-140000D01*
G01*
X121141100Y-108149450D01*
G75*
G02*
X121001100Y-108289450I-140000J0D01*
G01*
G37*
G36*
G01*
X121501100Y-108289450D02*
X121501100Y-108289450D01*
G75*
G02*
X121361100Y-108149450I0J140000D01*
G01*
X121361100Y-106958550D01*
G75*
G02*
X121501100Y-106818550I140000J0D01*
G01*
X121501100Y-106818550D01*
G75*
G02*
X121641100Y-106958550I0J-140000D01*
G01*
X121641100Y-108149450D01*
G75*
G02*
X121501100Y-108289450I-140000J0D01*
G01*
G37*
G36*
G01*
X121501100Y-112588650D02*
X121501100Y-112588650D01*
G75*
G02*
X121361100Y-112448650I0J140000D01*
G01*
X121361100Y-111257750D01*
G75*
G02*
X121501100Y-111117750I140000J0D01*
G01*
X121501100Y-111117750D01*
G75*
G02*
X121641100Y-111257750I0J-140000D01*
G01*
X121641100Y-112448650D01*
G75*
G02*
X121501100Y-112588650I-140000J0D01*
G01*
G37*
G36*
G01*
X121001100Y-112588650D02*
X121001100Y-112588650D01*
G75*
G02*
X120861100Y-112448650I0J140000D01*
G01*
X120861100Y-111257750D01*
G75*
G02*
X121001100Y-111117750I140000J0D01*
G01*
X121001100Y-111117750D01*
G75*
G02*
X121141100Y-111257750I0J-140000D01*
G01*
X121141100Y-112448650D01*
G75*
G02*
X121001100Y-112588650I-140000J0D01*
G01*
G37*
G36*
G01*
X120501100Y-112588650D02*
X120501100Y-112588650D01*
G75*
G02*
X120361100Y-112448650I0J140000D01*
G01*
X120361100Y-111257750D01*
G75*
G02*
X120501100Y-111117750I140000J0D01*
G01*
X120501100Y-111117750D01*
G75*
G02*
X120641100Y-111257750I0J-140000D01*
G01*
X120641100Y-112448650D01*
G75*
G02*
X120501100Y-112588650I-140000J0D01*
G01*
G37*
G36*
G01*
X120001100Y-112588650D02*
X120001100Y-112588650D01*
G75*
G02*
X119861100Y-112448650I0J140000D01*
G01*
X119861100Y-111257750D01*
G75*
G02*
X120001100Y-111117750I140000J0D01*
G01*
X120001100Y-111117750D01*
G75*
G02*
X120141100Y-111257750I0J-140000D01*
G01*
X120141100Y-112448650D01*
G75*
G02*
X120001100Y-112588650I-140000J0D01*
G01*
G37*
G36*
G01*
X119501100Y-112588650D02*
X119501100Y-112588650D01*
G75*
G02*
X119361100Y-112448650I0J140000D01*
G01*
X119361100Y-111257750D01*
G75*
G02*
X119501100Y-111117750I140000J0D01*
G01*
X119501100Y-111117750D01*
G75*
G02*
X119641100Y-111257750I0J-140000D01*
G01*
X119641100Y-112448650D01*
G75*
G02*
X119501100Y-112588650I-140000J0D01*
G01*
G37*
D20*
X183501100Y-110003600D03*
G36*
G01*
X184501100Y-111530200D02*
X184501100Y-111530200D01*
G75*
G02*
X184636100Y-111665200I0J-135000D01*
G01*
X184636100Y-112233200D01*
G75*
G02*
X184501100Y-112368200I-135000J0D01*
G01*
X184501100Y-112368200D01*
G75*
G02*
X184366100Y-112233200I0J135000D01*
G01*
X184366100Y-111665200D01*
G75*
G02*
X184501100Y-111530200I135000J0D01*
G01*
G37*
G36*
G01*
X184001100Y-111530200D02*
X184001100Y-111530200D01*
G75*
G02*
X184136100Y-111665200I0J-135000D01*
G01*
X184136100Y-112233200D01*
G75*
G02*
X184001100Y-112368200I-135000J0D01*
G01*
X184001100Y-112368200D01*
G75*
G02*
X183866100Y-112233200I0J135000D01*
G01*
X183866100Y-111665200D01*
G75*
G02*
X184001100Y-111530200I135000J0D01*
G01*
G37*
G36*
G01*
X183501100Y-111530200D02*
X183501100Y-111530200D01*
G75*
G02*
X183636100Y-111665200I0J-135000D01*
G01*
X183636100Y-112233200D01*
G75*
G02*
X183501100Y-112368200I-135000J0D01*
G01*
X183501100Y-112368200D01*
G75*
G02*
X183366100Y-112233200I0J135000D01*
G01*
X183366100Y-111665200D01*
G75*
G02*
X183501100Y-111530200I135000J0D01*
G01*
G37*
G36*
G01*
X183001100Y-111530200D02*
X183001100Y-111530200D01*
G75*
G02*
X183136100Y-111665200I0J-135000D01*
G01*
X183136100Y-112233200D01*
G75*
G02*
X183001100Y-112368200I-135000J0D01*
G01*
X183001100Y-112368200D01*
G75*
G02*
X182866100Y-112233200I0J135000D01*
G01*
X182866100Y-111665200D01*
G75*
G02*
X183001100Y-111530200I135000J0D01*
G01*
G37*
G36*
G01*
X182501100Y-111530200D02*
X182501100Y-111530200D01*
G75*
G02*
X182636100Y-111665200I0J-135000D01*
G01*
X182636100Y-112233200D01*
G75*
G02*
X182501100Y-112368200I-135000J0D01*
G01*
X182501100Y-112368200D01*
G75*
G02*
X182366100Y-112233200I0J135000D01*
G01*
X182366100Y-111665200D01*
G75*
G02*
X182501100Y-111530200I135000J0D01*
G01*
G37*
G36*
G01*
X181974500Y-111003600D02*
X181974500Y-111003600D01*
G75*
G02*
X181839500Y-111138600I-135000J0D01*
G01*
X181271500Y-111138600D01*
G75*
G02*
X181136500Y-111003600I0J135000D01*
G01*
X181136500Y-111003600D01*
G75*
G02*
X181271500Y-110868600I135000J0D01*
G01*
X181839500Y-110868600D01*
G75*
G02*
X181974500Y-111003600I0J-135000D01*
G01*
G37*
G36*
G01*
X181974500Y-110503600D02*
X181974500Y-110503600D01*
G75*
G02*
X181839500Y-110638600I-135000J0D01*
G01*
X181271500Y-110638600D01*
G75*
G02*
X181136500Y-110503600I0J135000D01*
G01*
X181136500Y-110503600D01*
G75*
G02*
X181271500Y-110368600I135000J0D01*
G01*
X181839500Y-110368600D01*
G75*
G02*
X181974500Y-110503600I0J-135000D01*
G01*
G37*
G36*
G01*
X181974500Y-110003600D02*
X181974500Y-110003600D01*
G75*
G02*
X181839500Y-110138600I-135000J0D01*
G01*
X181271500Y-110138600D01*
G75*
G02*
X181136500Y-110003600I0J135000D01*
G01*
X181136500Y-110003600D01*
G75*
G02*
X181271500Y-109868600I135000J0D01*
G01*
X181839500Y-109868600D01*
G75*
G02*
X181974500Y-110003600I0J-135000D01*
G01*
G37*
G36*
G01*
X181974500Y-109503600D02*
X181974500Y-109503600D01*
G75*
G02*
X181839500Y-109638600I-135000J0D01*
G01*
X181271500Y-109638600D01*
G75*
G02*
X181136500Y-109503600I0J135000D01*
G01*
X181136500Y-109503600D01*
G75*
G02*
X181271500Y-109368600I135000J0D01*
G01*
X181839500Y-109368600D01*
G75*
G02*
X181974500Y-109503600I0J-135000D01*
G01*
G37*
G36*
G01*
X181974500Y-109003600D02*
X181974500Y-109003600D01*
G75*
G02*
X181839500Y-109138600I-135000J0D01*
G01*
X181271500Y-109138600D01*
G75*
G02*
X181136500Y-109003600I0J135000D01*
G01*
X181136500Y-109003600D01*
G75*
G02*
X181271500Y-108868600I135000J0D01*
G01*
X181839500Y-108868600D01*
G75*
G02*
X181974500Y-109003600I0J-135000D01*
G01*
G37*
G36*
G01*
X182501100Y-107639000D02*
X182501100Y-107639000D01*
G75*
G02*
X182636100Y-107774000I0J-135000D01*
G01*
X182636100Y-108342000D01*
G75*
G02*
X182501100Y-108477000I-135000J0D01*
G01*
X182501100Y-108477000D01*
G75*
G02*
X182366100Y-108342000I0J135000D01*
G01*
X182366100Y-107774000D01*
G75*
G02*
X182501100Y-107639000I135000J0D01*
G01*
G37*
G36*
G01*
X183001100Y-107639000D02*
X183001100Y-107639000D01*
G75*
G02*
X183136100Y-107774000I0J-135000D01*
G01*
X183136100Y-108342000D01*
G75*
G02*
X183001100Y-108477000I-135000J0D01*
G01*
X183001100Y-108477000D01*
G75*
G02*
X182866100Y-108342000I0J135000D01*
G01*
X182866100Y-107774000D01*
G75*
G02*
X183001100Y-107639000I135000J0D01*
G01*
G37*
G36*
G01*
X183501100Y-107639000D02*
X183501100Y-107639000D01*
G75*
G02*
X183636100Y-107774000I0J-135000D01*
G01*
X183636100Y-108342000D01*
G75*
G02*
X183501100Y-108477000I-135000J0D01*
G01*
X183501100Y-108477000D01*
G75*
G02*
X183366100Y-108342000I0J135000D01*
G01*
X183366100Y-107774000D01*
G75*
G02*
X183501100Y-107639000I135000J0D01*
G01*
G37*
G36*
G01*
X184001100Y-107639000D02*
X184001100Y-107639000D01*
G75*
G02*
X184136100Y-107774000I0J-135000D01*
G01*
X184136100Y-108342000D01*
G75*
G02*
X184001100Y-108477000I-135000J0D01*
G01*
X184001100Y-108477000D01*
G75*
G02*
X183866100Y-108342000I0J135000D01*
G01*
X183866100Y-107774000D01*
G75*
G02*
X184001100Y-107639000I135000J0D01*
G01*
G37*
G36*
G01*
X184501100Y-107639000D02*
X184501100Y-107639000D01*
G75*
G02*
X184636100Y-107774000I0J-135000D01*
G01*
X184636100Y-108342000D01*
G75*
G02*
X184501100Y-108477000I-135000J0D01*
G01*
X184501100Y-108477000D01*
G75*
G02*
X184366100Y-108342000I0J135000D01*
G01*
X184366100Y-107774000D01*
G75*
G02*
X184501100Y-107639000I135000J0D01*
G01*
G37*
G36*
G01*
X185865700Y-109003600D02*
X185865700Y-109003600D01*
G75*
G02*
X185730700Y-109138600I-135000J0D01*
G01*
X185162700Y-109138600D01*
G75*
G02*
X185027700Y-109003600I0J135000D01*
G01*
X185027700Y-109003600D01*
G75*
G02*
X185162700Y-108868600I135000J0D01*
G01*
X185730700Y-108868600D01*
G75*
G02*
X185865700Y-109003600I0J-135000D01*
G01*
G37*
G36*
G01*
X185865700Y-109503600D02*
X185865700Y-109503600D01*
G75*
G02*
X185730700Y-109638600I-135000J0D01*
G01*
X185162700Y-109638600D01*
G75*
G02*
X185027700Y-109503600I0J135000D01*
G01*
X185027700Y-109503600D01*
G75*
G02*
X185162700Y-109368600I135000J0D01*
G01*
X185730700Y-109368600D01*
G75*
G02*
X185865700Y-109503600I0J-135000D01*
G01*
G37*
G36*
G01*
X185865700Y-110003600D02*
X185865700Y-110003600D01*
G75*
G02*
X185730700Y-110138600I-135000J0D01*
G01*
X185162700Y-110138600D01*
G75*
G02*
X185027700Y-110003600I0J135000D01*
G01*
X185027700Y-110003600D01*
G75*
G02*
X185162700Y-109868600I135000J0D01*
G01*
X185730700Y-109868600D01*
G75*
G02*
X185865700Y-110003600I0J-135000D01*
G01*
G37*
G36*
G01*
X185865700Y-110503600D02*
X185865700Y-110503600D01*
G75*
G02*
X185730700Y-110638600I-135000J0D01*
G01*
X185162700Y-110638600D01*
G75*
G02*
X185027700Y-110503600I0J135000D01*
G01*
X185027700Y-110503600D01*
G75*
G02*
X185162700Y-110368600I135000J0D01*
G01*
X185730700Y-110368600D01*
G75*
G02*
X185865700Y-110503600I0J-135000D01*
G01*
G37*
G36*
G01*
X185865700Y-111003600D02*
X185865700Y-111003600D01*
G75*
G02*
X185730700Y-111138600I-135000J0D01*
G01*
X185162700Y-111138600D01*
G75*
G02*
X185027700Y-111003600I0J135000D01*
G01*
X185027700Y-111003600D01*
G75*
G02*
X185162700Y-110868600I135000J0D01*
G01*
X185730700Y-110868600D01*
G75*
G02*
X185865700Y-111003600I0J-135000D01*
G01*
G37*
D21*
X155551100Y-101753600D03*
G36*
G01*
X157569750Y-100003600D02*
X157569750Y-100003600D01*
G75*
G02*
X157704750Y-99868600I135000J0D01*
G01*
X158372050Y-99868600D01*
G75*
G02*
X158507050Y-100003600I0J-135000D01*
G01*
X158507050Y-100003600D01*
G75*
G02*
X158372050Y-100138600I-135000J0D01*
G01*
X157704750Y-100138600D01*
G75*
G02*
X157569750Y-100003600I0J135000D01*
G01*
G37*
G36*
G01*
X157569750Y-100503600D02*
X157569750Y-100503600D01*
G75*
G02*
X157704750Y-100368600I135000J0D01*
G01*
X158372050Y-100368600D01*
G75*
G02*
X158507050Y-100503600I0J-135000D01*
G01*
X158507050Y-100503600D01*
G75*
G02*
X158372050Y-100638600I-135000J0D01*
G01*
X157704750Y-100638600D01*
G75*
G02*
X157569750Y-100503600I0J135000D01*
G01*
G37*
G36*
G01*
X157569750Y-101003600D02*
X157569750Y-101003600D01*
G75*
G02*
X157704750Y-100868600I135000J0D01*
G01*
X158372050Y-100868600D01*
G75*
G02*
X158507050Y-101003600I0J-135000D01*
G01*
X158507050Y-101003600D01*
G75*
G02*
X158372050Y-101138600I-135000J0D01*
G01*
X157704750Y-101138600D01*
G75*
G02*
X157569750Y-101003600I0J135000D01*
G01*
G37*
G36*
G01*
X157569750Y-101503600D02*
X157569750Y-101503600D01*
G75*
G02*
X157704750Y-101368600I135000J0D01*
G01*
X158372050Y-101368600D01*
G75*
G02*
X158507050Y-101503600I0J-135000D01*
G01*
X158507050Y-101503600D01*
G75*
G02*
X158372050Y-101638600I-135000J0D01*
G01*
X157704750Y-101638600D01*
G75*
G02*
X157569750Y-101503600I0J135000D01*
G01*
G37*
G36*
G01*
X157569750Y-102003600D02*
X157569750Y-102003600D01*
G75*
G02*
X157704750Y-101868600I135000J0D01*
G01*
X158372050Y-101868600D01*
G75*
G02*
X158507050Y-102003600I0J-135000D01*
G01*
X158507050Y-102003600D01*
G75*
G02*
X158372050Y-102138600I-135000J0D01*
G01*
X157704750Y-102138600D01*
G75*
G02*
X157569750Y-102003600I0J135000D01*
G01*
G37*
G36*
G01*
X157569750Y-102503600D02*
X157569750Y-102503600D01*
G75*
G02*
X157704750Y-102368600I135000J0D01*
G01*
X158372050Y-102368600D01*
G75*
G02*
X158507050Y-102503600I0J-135000D01*
G01*
X158507050Y-102503600D01*
G75*
G02*
X158372050Y-102638600I-135000J0D01*
G01*
X157704750Y-102638600D01*
G75*
G02*
X157569750Y-102503600I0J135000D01*
G01*
G37*
G36*
G01*
X157569750Y-103003600D02*
X157569750Y-103003600D01*
G75*
G02*
X157704750Y-102868600I135000J0D01*
G01*
X158372050Y-102868600D01*
G75*
G02*
X158507050Y-103003600I0J-135000D01*
G01*
X158507050Y-103003600D01*
G75*
G02*
X158372050Y-103138600I-135000J0D01*
G01*
X157704750Y-103138600D01*
G75*
G02*
X157569750Y-103003600I0J135000D01*
G01*
G37*
G36*
G01*
X157569750Y-103503600D02*
X157569750Y-103503600D01*
G75*
G02*
X157704750Y-103368600I135000J0D01*
G01*
X158372050Y-103368600D01*
G75*
G02*
X158507050Y-103503600I0J-135000D01*
G01*
X158507050Y-103503600D01*
G75*
G02*
X158372050Y-103638600I-135000J0D01*
G01*
X157704750Y-103638600D01*
G75*
G02*
X157569750Y-103503600I0J135000D01*
G01*
G37*
G36*
G01*
X157301100Y-103772250D02*
X157301100Y-103772250D01*
G75*
G02*
X157436100Y-103907250I0J-135000D01*
G01*
X157436100Y-104574550D01*
G75*
G02*
X157301100Y-104709550I-135000J0D01*
G01*
X157301100Y-104709550D01*
G75*
G02*
X157166100Y-104574550I0J135000D01*
G01*
X157166100Y-103907250D01*
G75*
G02*
X157301100Y-103772250I135000J0D01*
G01*
G37*
G36*
G01*
X156801100Y-103772250D02*
X156801100Y-103772250D01*
G75*
G02*
X156936100Y-103907250I0J-135000D01*
G01*
X156936100Y-104574550D01*
G75*
G02*
X156801100Y-104709550I-135000J0D01*
G01*
X156801100Y-104709550D01*
G75*
G02*
X156666100Y-104574550I0J135000D01*
G01*
X156666100Y-103907250D01*
G75*
G02*
X156801100Y-103772250I135000J0D01*
G01*
G37*
G36*
G01*
X156301100Y-103772250D02*
X156301100Y-103772250D01*
G75*
G02*
X156436100Y-103907250I0J-135000D01*
G01*
X156436100Y-104574550D01*
G75*
G02*
X156301100Y-104709550I-135000J0D01*
G01*
X156301100Y-104709550D01*
G75*
G02*
X156166100Y-104574550I0J135000D01*
G01*
X156166100Y-103907250D01*
G75*
G02*
X156301100Y-103772250I135000J0D01*
G01*
G37*
G36*
G01*
X155801100Y-103772250D02*
X155801100Y-103772250D01*
G75*
G02*
X155936100Y-103907250I0J-135000D01*
G01*
X155936100Y-104574550D01*
G75*
G02*
X155801100Y-104709550I-135000J0D01*
G01*
X155801100Y-104709550D01*
G75*
G02*
X155666100Y-104574550I0J135000D01*
G01*
X155666100Y-103907250D01*
G75*
G02*
X155801100Y-103772250I135000J0D01*
G01*
G37*
G36*
G01*
X155301100Y-103772250D02*
X155301100Y-103772250D01*
G75*
G02*
X155436100Y-103907250I0J-135000D01*
G01*
X155436100Y-104574550D01*
G75*
G02*
X155301100Y-104709550I-135000J0D01*
G01*
X155301100Y-104709550D01*
G75*
G02*
X155166100Y-104574550I0J135000D01*
G01*
X155166100Y-103907250D01*
G75*
G02*
X155301100Y-103772250I135000J0D01*
G01*
G37*
G36*
G01*
X154801100Y-103772250D02*
X154801100Y-103772250D01*
G75*
G02*
X154936100Y-103907250I0J-135000D01*
G01*
X154936100Y-104574550D01*
G75*
G02*
X154801100Y-104709550I-135000J0D01*
G01*
X154801100Y-104709550D01*
G75*
G02*
X154666100Y-104574550I0J135000D01*
G01*
X154666100Y-103907250D01*
G75*
G02*
X154801100Y-103772250I135000J0D01*
G01*
G37*
G36*
G01*
X154301100Y-103772250D02*
X154301100Y-103772250D01*
G75*
G02*
X154436100Y-103907250I0J-135000D01*
G01*
X154436100Y-104574550D01*
G75*
G02*
X154301100Y-104709550I-135000J0D01*
G01*
X154301100Y-104709550D01*
G75*
G02*
X154166100Y-104574550I0J135000D01*
G01*
X154166100Y-103907250D01*
G75*
G02*
X154301100Y-103772250I135000J0D01*
G01*
G37*
G36*
G01*
X153801100Y-103772250D02*
X153801100Y-103772250D01*
G75*
G02*
X153936100Y-103907250I0J-135000D01*
G01*
X153936100Y-104574550D01*
G75*
G02*
X153801100Y-104709550I-135000J0D01*
G01*
X153801100Y-104709550D01*
G75*
G02*
X153666100Y-104574550I0J135000D01*
G01*
X153666100Y-103907250D01*
G75*
G02*
X153801100Y-103772250I135000J0D01*
G01*
G37*
G36*
G01*
X152595150Y-103503600D02*
X152595150Y-103503600D01*
G75*
G02*
X152730150Y-103368600I135000J0D01*
G01*
X153397450Y-103368600D01*
G75*
G02*
X153532450Y-103503600I0J-135000D01*
G01*
X153532450Y-103503600D01*
G75*
G02*
X153397450Y-103638600I-135000J0D01*
G01*
X152730150Y-103638600D01*
G75*
G02*
X152595150Y-103503600I0J135000D01*
G01*
G37*
G36*
G01*
X152595150Y-103003600D02*
X152595150Y-103003600D01*
G75*
G02*
X152730150Y-102868600I135000J0D01*
G01*
X153397450Y-102868600D01*
G75*
G02*
X153532450Y-103003600I0J-135000D01*
G01*
X153532450Y-103003600D01*
G75*
G02*
X153397450Y-103138600I-135000J0D01*
G01*
X152730150Y-103138600D01*
G75*
G02*
X152595150Y-103003600I0J135000D01*
G01*
G37*
G36*
G01*
X152595150Y-102503600D02*
X152595150Y-102503600D01*
G75*
G02*
X152730150Y-102368600I135000J0D01*
G01*
X153397450Y-102368600D01*
G75*
G02*
X153532450Y-102503600I0J-135000D01*
G01*
X153532450Y-102503600D01*
G75*
G02*
X153397450Y-102638600I-135000J0D01*
G01*
X152730150Y-102638600D01*
G75*
G02*
X152595150Y-102503600I0J135000D01*
G01*
G37*
G36*
G01*
X152595150Y-102003600D02*
X152595150Y-102003600D01*
G75*
G02*
X152730150Y-101868600I135000J0D01*
G01*
X153397450Y-101868600D01*
G75*
G02*
X153532450Y-102003600I0J-135000D01*
G01*
X153532450Y-102003600D01*
G75*
G02*
X153397450Y-102138600I-135000J0D01*
G01*
X152730150Y-102138600D01*
G75*
G02*
X152595150Y-102003600I0J135000D01*
G01*
G37*
G36*
G01*
X152595150Y-101503600D02*
X152595150Y-101503600D01*
G75*
G02*
X152730150Y-101368600I135000J0D01*
G01*
X153397450Y-101368600D01*
G75*
G02*
X153532450Y-101503600I0J-135000D01*
G01*
X153532450Y-101503600D01*
G75*
G02*
X153397450Y-101638600I-135000J0D01*
G01*
X152730150Y-101638600D01*
G75*
G02*
X152595150Y-101503600I0J135000D01*
G01*
G37*
G36*
G01*
X152595150Y-101003600D02*
X152595150Y-101003600D01*
G75*
G02*
X152730150Y-100868600I135000J0D01*
G01*
X153397450Y-100868600D01*
G75*
G02*
X153532450Y-101003600I0J-135000D01*
G01*
X153532450Y-101003600D01*
G75*
G02*
X153397450Y-101138600I-135000J0D01*
G01*
X152730150Y-101138600D01*
G75*
G02*
X152595150Y-101003600I0J135000D01*
G01*
G37*
G36*
G01*
X152595150Y-100503600D02*
X152595150Y-100503600D01*
G75*
G02*
X152730150Y-100368600I135000J0D01*
G01*
X153397450Y-100368600D01*
G75*
G02*
X153532450Y-100503600I0J-135000D01*
G01*
X153532450Y-100503600D01*
G75*
G02*
X153397450Y-100638600I-135000J0D01*
G01*
X152730150Y-100638600D01*
G75*
G02*
X152595150Y-100503600I0J135000D01*
G01*
G37*
G36*
G01*
X152595150Y-100003600D02*
X152595150Y-100003600D01*
G75*
G02*
X152730150Y-99868600I135000J0D01*
G01*
X153397450Y-99868600D01*
G75*
G02*
X153532450Y-100003600I0J-135000D01*
G01*
X153532450Y-100003600D01*
G75*
G02*
X153397450Y-100138600I-135000J0D01*
G01*
X152730150Y-100138600D01*
G75*
G02*
X152595150Y-100003600I0J135000D01*
G01*
G37*
G36*
G01*
X153801100Y-98797650D02*
X153801100Y-98797650D01*
G75*
G02*
X153936100Y-98932650I0J-135000D01*
G01*
X153936100Y-99599950D01*
G75*
G02*
X153801100Y-99734950I-135000J0D01*
G01*
X153801100Y-99734950D01*
G75*
G02*
X153666100Y-99599950I0J135000D01*
G01*
X153666100Y-98932650D01*
G75*
G02*
X153801100Y-98797650I135000J0D01*
G01*
G37*
G36*
G01*
X154301100Y-98797650D02*
X154301100Y-98797650D01*
G75*
G02*
X154436100Y-98932650I0J-135000D01*
G01*
X154436100Y-99599950D01*
G75*
G02*
X154301100Y-99734950I-135000J0D01*
G01*
X154301100Y-99734950D01*
G75*
G02*
X154166100Y-99599950I0J135000D01*
G01*
X154166100Y-98932650D01*
G75*
G02*
X154301100Y-98797650I135000J0D01*
G01*
G37*
G36*
G01*
X154801100Y-98797650D02*
X154801100Y-98797650D01*
G75*
G02*
X154936100Y-98932650I0J-135000D01*
G01*
X154936100Y-99599950D01*
G75*
G02*
X154801100Y-99734950I-135000J0D01*
G01*
X154801100Y-99734950D01*
G75*
G02*
X154666100Y-99599950I0J135000D01*
G01*
X154666100Y-98932650D01*
G75*
G02*
X154801100Y-98797650I135000J0D01*
G01*
G37*
G36*
G01*
X155301100Y-98797650D02*
X155301100Y-98797650D01*
G75*
G02*
X155436100Y-98932650I0J-135000D01*
G01*
X155436100Y-99599950D01*
G75*
G02*
X155301100Y-99734950I-135000J0D01*
G01*
X155301100Y-99734950D01*
G75*
G02*
X155166100Y-99599950I0J135000D01*
G01*
X155166100Y-98932650D01*
G75*
G02*
X155301100Y-98797650I135000J0D01*
G01*
G37*
G36*
G01*
X155801100Y-98797650D02*
X155801100Y-98797650D01*
G75*
G02*
X155936100Y-98932650I0J-135000D01*
G01*
X155936100Y-99599950D01*
G75*
G02*
X155801100Y-99734950I-135000J0D01*
G01*
X155801100Y-99734950D01*
G75*
G02*
X155666100Y-99599950I0J135000D01*
G01*
X155666100Y-98932650D01*
G75*
G02*
X155801100Y-98797650I135000J0D01*
G01*
G37*
G36*
G01*
X156301100Y-98797650D02*
X156301100Y-98797650D01*
G75*
G02*
X156436100Y-98932650I0J-135000D01*
G01*
X156436100Y-99599950D01*
G75*
G02*
X156301100Y-99734950I-135000J0D01*
G01*
X156301100Y-99734950D01*
G75*
G02*
X156166100Y-99599950I0J135000D01*
G01*
X156166100Y-98932650D01*
G75*
G02*
X156301100Y-98797650I135000J0D01*
G01*
G37*
G36*
G01*
X156801100Y-98797650D02*
X156801100Y-98797650D01*
G75*
G02*
X156936100Y-98932650I0J-135000D01*
G01*
X156936100Y-99599950D01*
G75*
G02*
X156801100Y-99734950I-135000J0D01*
G01*
X156801100Y-99734950D01*
G75*
G02*
X156666100Y-99599950I0J135000D01*
G01*
X156666100Y-98932650D01*
G75*
G02*
X156801100Y-98797650I135000J0D01*
G01*
G37*
G36*
G01*
X157301100Y-98797650D02*
X157301100Y-98797650D01*
G75*
G02*
X157436100Y-98932650I0J-135000D01*
G01*
X157436100Y-99599950D01*
G75*
G02*
X157301100Y-99734950I-135000J0D01*
G01*
X157301100Y-99734950D01*
G75*
G02*
X157166100Y-99599950I0J135000D01*
G01*
X157166100Y-98932650D01*
G75*
G02*
X157301100Y-98797650I135000J0D01*
G01*
G37*
D22*
X164576600Y-95053600D03*
X164576600Y-93153600D03*
X166625600Y-93153600D03*
X166625600Y-94103600D03*
X166625600Y-95053600D03*
D23*
X138701100Y-105203600D03*
G36*
G01*
X138124500Y-105803600D02*
X138124500Y-105803600D01*
G75*
G02*
X138024500Y-105903600I-100000J0D01*
G01*
X137536500Y-105903600D01*
G75*
G02*
X137436500Y-105803600I0J100000D01*
G01*
X137436500Y-105803600D01*
G75*
G02*
X137536500Y-105703600I100000J0D01*
G01*
X138024500Y-105703600D01*
G75*
G02*
X138124500Y-105803600I0J-100000D01*
G01*
G37*
G36*
G01*
X138124500Y-105403600D02*
X138124500Y-105403600D01*
G75*
G02*
X138024500Y-105503600I-100000J0D01*
G01*
X137536500Y-105503600D01*
G75*
G02*
X137436500Y-105403600I0J100000D01*
G01*
X137436500Y-105403600D01*
G75*
G02*
X137536500Y-105303600I100000J0D01*
G01*
X138024500Y-105303600D01*
G75*
G02*
X138124500Y-105403600I0J-100000D01*
G01*
G37*
G36*
G01*
X138124500Y-105003600D02*
X138124500Y-105003600D01*
G75*
G02*
X138024500Y-105103600I-100000J0D01*
G01*
X137536500Y-105103600D01*
G75*
G02*
X137436500Y-105003600I0J100000D01*
G01*
X137436500Y-105003600D01*
G75*
G02*
X137536500Y-104903600I100000J0D01*
G01*
X138024500Y-104903600D01*
G75*
G02*
X138124500Y-105003600I0J-100000D01*
G01*
G37*
G36*
G01*
X138124500Y-104603600D02*
X138124500Y-104603600D01*
G75*
G02*
X138024500Y-104703600I-100000J0D01*
G01*
X137536500Y-104703600D01*
G75*
G02*
X137436500Y-104603600I0J100000D01*
G01*
X137436500Y-104603600D01*
G75*
G02*
X137536500Y-104503600I100000J0D01*
G01*
X138024500Y-104503600D01*
G75*
G02*
X138124500Y-104603600I0J-100000D01*
G01*
G37*
G36*
G01*
X138501100Y-104627000D02*
X138501100Y-104627000D01*
G75*
G02*
X138401100Y-104527000I0J100000D01*
G01*
X138401100Y-104039000D01*
G75*
G02*
X138501100Y-103939000I100000J0D01*
G01*
X138501100Y-103939000D01*
G75*
G02*
X138601100Y-104039000I0J-100000D01*
G01*
X138601100Y-104527000D01*
G75*
G02*
X138501100Y-104627000I-100000J0D01*
G01*
G37*
G36*
G01*
X138901100Y-104627000D02*
X138901100Y-104627000D01*
G75*
G02*
X138801100Y-104527000I0J100000D01*
G01*
X138801100Y-104039000D01*
G75*
G02*
X138901100Y-103939000I100000J0D01*
G01*
X138901100Y-103939000D01*
G75*
G02*
X139001100Y-104039000I0J-100000D01*
G01*
X139001100Y-104527000D01*
G75*
G02*
X138901100Y-104627000I-100000J0D01*
G01*
G37*
G36*
G01*
X139965700Y-104603600D02*
X139965700Y-104603600D01*
G75*
G02*
X139865700Y-104703600I-100000J0D01*
G01*
X139377700Y-104703600D01*
G75*
G02*
X139277700Y-104603600I0J100000D01*
G01*
X139277700Y-104603600D01*
G75*
G02*
X139377700Y-104503600I100000J0D01*
G01*
X139865700Y-104503600D01*
G75*
G02*
X139965700Y-104603600I0J-100000D01*
G01*
G37*
G36*
G01*
X139965700Y-105003600D02*
X139965700Y-105003600D01*
G75*
G02*
X139865700Y-105103600I-100000J0D01*
G01*
X139377700Y-105103600D01*
G75*
G02*
X139277700Y-105003600I0J100000D01*
G01*
X139277700Y-105003600D01*
G75*
G02*
X139377700Y-104903600I100000J0D01*
G01*
X139865700Y-104903600D01*
G75*
G02*
X139965700Y-105003600I0J-100000D01*
G01*
G37*
G36*
G01*
X139965700Y-105403600D02*
X139965700Y-105403600D01*
G75*
G02*
X139865700Y-105503600I-100000J0D01*
G01*
X139377700Y-105503600D01*
G75*
G02*
X139277700Y-105403600I0J100000D01*
G01*
X139277700Y-105403600D01*
G75*
G02*
X139377700Y-105303600I100000J0D01*
G01*
X139865700Y-105303600D01*
G75*
G02*
X139965700Y-105403600I0J-100000D01*
G01*
G37*
G36*
G01*
X139965700Y-105803600D02*
X139965700Y-105803600D01*
G75*
G02*
X139865700Y-105903600I-100000J0D01*
G01*
X139377700Y-105903600D01*
G75*
G02*
X139277700Y-105803600I0J100000D01*
G01*
X139277700Y-105803600D01*
G75*
G02*
X139377700Y-105703600I100000J0D01*
G01*
X139865700Y-105703600D01*
G75*
G02*
X139965700Y-105803600I0J-100000D01*
G01*
G37*
G36*
G01*
X138901100Y-106468200D02*
X138901100Y-106468200D01*
G75*
G02*
X138801100Y-106368200I0J100000D01*
G01*
X138801100Y-105880200D01*
G75*
G02*
X138901100Y-105780200I100000J0D01*
G01*
X138901100Y-105780200D01*
G75*
G02*
X139001100Y-105880200I0J-100000D01*
G01*
X139001100Y-106368200D01*
G75*
G02*
X138901100Y-106468200I-100000J0D01*
G01*
G37*
G36*
G01*
X138501100Y-106468200D02*
X138501100Y-106468200D01*
G75*
G02*
X138401100Y-106368200I0J100000D01*
G01*
X138401100Y-105880200D01*
G75*
G02*
X138501100Y-105780200I100000J0D01*
G01*
X138501100Y-105780200D01*
G75*
G02*
X138601100Y-105880200I0J-100000D01*
G01*
X138601100Y-106368200D01*
G75*
G02*
X138501100Y-106468200I-100000J0D01*
G01*
G37*
D24*
X170728500Y-96403600D03*
D25*
X176873700Y-94103600D03*
X176873700Y-96403600D03*
X176873700Y-98703600D03*
D23*
X138701100Y-114803600D03*
G36*
G01*
X139277700Y-114203600D02*
X139277700Y-114203600D01*
G75*
G02*
X139377700Y-114103600I100000J0D01*
G01*
X139865700Y-114103600D01*
G75*
G02*
X139965700Y-114203600I0J-100000D01*
G01*
X139965700Y-114203600D01*
G75*
G02*
X139865700Y-114303600I-100000J0D01*
G01*
X139377700Y-114303600D01*
G75*
G02*
X139277700Y-114203600I0J100000D01*
G01*
G37*
G36*
G01*
X139277700Y-114603600D02*
X139277700Y-114603600D01*
G75*
G02*
X139377700Y-114503600I100000J0D01*
G01*
X139865700Y-114503600D01*
G75*
G02*
X139965700Y-114603600I0J-100000D01*
G01*
X139965700Y-114603600D01*
G75*
G02*
X139865700Y-114703600I-100000J0D01*
G01*
X139377700Y-114703600D01*
G75*
G02*
X139277700Y-114603600I0J100000D01*
G01*
G37*
G36*
G01*
X139277700Y-115003600D02*
X139277700Y-115003600D01*
G75*
G02*
X139377700Y-114903600I100000J0D01*
G01*
X139865700Y-114903600D01*
G75*
G02*
X139965700Y-115003600I0J-100000D01*
G01*
X139965700Y-115003600D01*
G75*
G02*
X139865700Y-115103600I-100000J0D01*
G01*
X139377700Y-115103600D01*
G75*
G02*
X139277700Y-115003600I0J100000D01*
G01*
G37*
G36*
G01*
X139277700Y-115403600D02*
X139277700Y-115403600D01*
G75*
G02*
X139377700Y-115303600I100000J0D01*
G01*
X139865700Y-115303600D01*
G75*
G02*
X139965700Y-115403600I0J-100000D01*
G01*
X139965700Y-115403600D01*
G75*
G02*
X139865700Y-115503600I-100000J0D01*
G01*
X139377700Y-115503600D01*
G75*
G02*
X139277700Y-115403600I0J100000D01*
G01*
G37*
G36*
G01*
X138901100Y-115380200D02*
X138901100Y-115380200D01*
G75*
G02*
X139001100Y-115480200I0J-100000D01*
G01*
X139001100Y-115968200D01*
G75*
G02*
X138901100Y-116068200I-100000J0D01*
G01*
X138901100Y-116068200D01*
G75*
G02*
X138801100Y-115968200I0J100000D01*
G01*
X138801100Y-115480200D01*
G75*
G02*
X138901100Y-115380200I100000J0D01*
G01*
G37*
G36*
G01*
X138501100Y-115380200D02*
X138501100Y-115380200D01*
G75*
G02*
X138601100Y-115480200I0J-100000D01*
G01*
X138601100Y-115968200D01*
G75*
G02*
X138501100Y-116068200I-100000J0D01*
G01*
X138501100Y-116068200D01*
G75*
G02*
X138401100Y-115968200I0J100000D01*
G01*
X138401100Y-115480200D01*
G75*
G02*
X138501100Y-115380200I100000J0D01*
G01*
G37*
G36*
G01*
X137436500Y-115403600D02*
X137436500Y-115403600D01*
G75*
G02*
X137536500Y-115303600I100000J0D01*
G01*
X138024500Y-115303600D01*
G75*
G02*
X138124500Y-115403600I0J-100000D01*
G01*
X138124500Y-115403600D01*
G75*
G02*
X138024500Y-115503600I-100000J0D01*
G01*
X137536500Y-115503600D01*
G75*
G02*
X137436500Y-115403600I0J100000D01*
G01*
G37*
G36*
G01*
X137436500Y-115003600D02*
X137436500Y-115003600D01*
G75*
G02*
X137536500Y-114903600I100000J0D01*
G01*
X138024500Y-114903600D01*
G75*
G02*
X138124500Y-115003600I0J-100000D01*
G01*
X138124500Y-115003600D01*
G75*
G02*
X138024500Y-115103600I-100000J0D01*
G01*
X137536500Y-115103600D01*
G75*
G02*
X137436500Y-115003600I0J100000D01*
G01*
G37*
G36*
G01*
X137436500Y-114603600D02*
X137436500Y-114603600D01*
G75*
G02*
X137536500Y-114503600I100000J0D01*
G01*
X138024500Y-114503600D01*
G75*
G02*
X138124500Y-114603600I0J-100000D01*
G01*
X138124500Y-114603600D01*
G75*
G02*
X138024500Y-114703600I-100000J0D01*
G01*
X137536500Y-114703600D01*
G75*
G02*
X137436500Y-114603600I0J100000D01*
G01*
G37*
G36*
G01*
X137436500Y-114203600D02*
X137436500Y-114203600D01*
G75*
G02*
X137536500Y-114103600I100000J0D01*
G01*
X138024500Y-114103600D01*
G75*
G02*
X138124500Y-114203600I0J-100000D01*
G01*
X138124500Y-114203600D01*
G75*
G02*
X138024500Y-114303600I-100000J0D01*
G01*
X137536500Y-114303600D01*
G75*
G02*
X137436500Y-114203600I0J100000D01*
G01*
G37*
G36*
G01*
X138501100Y-113539000D02*
X138501100Y-113539000D01*
G75*
G02*
X138601100Y-113639000I0J-100000D01*
G01*
X138601100Y-114127000D01*
G75*
G02*
X138501100Y-114227000I-100000J0D01*
G01*
X138501100Y-114227000D01*
G75*
G02*
X138401100Y-114127000I0J100000D01*
G01*
X138401100Y-113639000D01*
G75*
G02*
X138501100Y-113539000I100000J0D01*
G01*
G37*
G36*
G01*
X138901100Y-113539000D02*
X138901100Y-113539000D01*
G75*
G02*
X139001100Y-113639000I0J-100000D01*
G01*
X139001100Y-114127000D01*
G75*
G02*
X138901100Y-114227000I-100000J0D01*
G01*
X138901100Y-114227000D01*
G75*
G02*
X138801100Y-114127000I0J100000D01*
G01*
X138801100Y-113639000D01*
G75*
G02*
X138901100Y-113539000I100000J0D01*
G01*
G37*
D21*
X175501100Y-127603600D03*
G36*
G01*
X173482450Y-129353600D02*
X173482450Y-129353600D01*
G75*
G02*
X173347450Y-129488600I-135000J0D01*
G01*
X172680150Y-129488600D01*
G75*
G02*
X172545150Y-129353600I0J135000D01*
G01*
X172545150Y-129353600D01*
G75*
G02*
X172680150Y-129218600I135000J0D01*
G01*
X173347450Y-129218600D01*
G75*
G02*
X173482450Y-129353600I0J-135000D01*
G01*
G37*
G36*
G01*
X173482450Y-128853600D02*
X173482450Y-128853600D01*
G75*
G02*
X173347450Y-128988600I-135000J0D01*
G01*
X172680150Y-128988600D01*
G75*
G02*
X172545150Y-128853600I0J135000D01*
G01*
X172545150Y-128853600D01*
G75*
G02*
X172680150Y-128718600I135000J0D01*
G01*
X173347450Y-128718600D01*
G75*
G02*
X173482450Y-128853600I0J-135000D01*
G01*
G37*
G36*
G01*
X173482450Y-128353600D02*
X173482450Y-128353600D01*
G75*
G02*
X173347450Y-128488600I-135000J0D01*
G01*
X172680150Y-128488600D01*
G75*
G02*
X172545150Y-128353600I0J135000D01*
G01*
X172545150Y-128353600D01*
G75*
G02*
X172680150Y-128218600I135000J0D01*
G01*
X173347450Y-128218600D01*
G75*
G02*
X173482450Y-128353600I0J-135000D01*
G01*
G37*
G36*
G01*
X173482450Y-127853600D02*
X173482450Y-127853600D01*
G75*
G02*
X173347450Y-127988600I-135000J0D01*
G01*
X172680150Y-127988600D01*
G75*
G02*
X172545150Y-127853600I0J135000D01*
G01*
X172545150Y-127853600D01*
G75*
G02*
X172680150Y-127718600I135000J0D01*
G01*
X173347450Y-127718600D01*
G75*
G02*
X173482450Y-127853600I0J-135000D01*
G01*
G37*
G36*
G01*
X173482450Y-127353600D02*
X173482450Y-127353600D01*
G75*
G02*
X173347450Y-127488600I-135000J0D01*
G01*
X172680150Y-127488600D01*
G75*
G02*
X172545150Y-127353600I0J135000D01*
G01*
X172545150Y-127353600D01*
G75*
G02*
X172680150Y-127218600I135000J0D01*
G01*
X173347450Y-127218600D01*
G75*
G02*
X173482450Y-127353600I0J-135000D01*
G01*
G37*
G36*
G01*
X173482450Y-126853600D02*
X173482450Y-126853600D01*
G75*
G02*
X173347450Y-126988600I-135000J0D01*
G01*
X172680150Y-126988600D01*
G75*
G02*
X172545150Y-126853600I0J135000D01*
G01*
X172545150Y-126853600D01*
G75*
G02*
X172680150Y-126718600I135000J0D01*
G01*
X173347450Y-126718600D01*
G75*
G02*
X173482450Y-126853600I0J-135000D01*
G01*
G37*
G36*
G01*
X173482450Y-126353600D02*
X173482450Y-126353600D01*
G75*
G02*
X173347450Y-126488600I-135000J0D01*
G01*
X172680150Y-126488600D01*
G75*
G02*
X172545150Y-126353600I0J135000D01*
G01*
X172545150Y-126353600D01*
G75*
G02*
X172680150Y-126218600I135000J0D01*
G01*
X173347450Y-126218600D01*
G75*
G02*
X173482450Y-126353600I0J-135000D01*
G01*
G37*
G36*
G01*
X173482450Y-125853600D02*
X173482450Y-125853600D01*
G75*
G02*
X173347450Y-125988600I-135000J0D01*
G01*
X172680150Y-125988600D01*
G75*
G02*
X172545150Y-125853600I0J135000D01*
G01*
X172545150Y-125853600D01*
G75*
G02*
X172680150Y-125718600I135000J0D01*
G01*
X173347450Y-125718600D01*
G75*
G02*
X173482450Y-125853600I0J-135000D01*
G01*
G37*
G36*
G01*
X173751100Y-125584950D02*
X173751100Y-125584950D01*
G75*
G02*
X173616100Y-125449950I0J135000D01*
G01*
X173616100Y-124782650D01*
G75*
G02*
X173751100Y-124647650I135000J0D01*
G01*
X173751100Y-124647650D01*
G75*
G02*
X173886100Y-124782650I0J-135000D01*
G01*
X173886100Y-125449950D01*
G75*
G02*
X173751100Y-125584950I-135000J0D01*
G01*
G37*
G36*
G01*
X174251100Y-125584950D02*
X174251100Y-125584950D01*
G75*
G02*
X174116100Y-125449950I0J135000D01*
G01*
X174116100Y-124782650D01*
G75*
G02*
X174251100Y-124647650I135000J0D01*
G01*
X174251100Y-124647650D01*
G75*
G02*
X174386100Y-124782650I0J-135000D01*
G01*
X174386100Y-125449950D01*
G75*
G02*
X174251100Y-125584950I-135000J0D01*
G01*
G37*
G36*
G01*
X174751100Y-125584950D02*
X174751100Y-125584950D01*
G75*
G02*
X174616100Y-125449950I0J135000D01*
G01*
X174616100Y-124782650D01*
G75*
G02*
X174751100Y-124647650I135000J0D01*
G01*
X174751100Y-124647650D01*
G75*
G02*
X174886100Y-124782650I0J-135000D01*
G01*
X174886100Y-125449950D01*
G75*
G02*
X174751100Y-125584950I-135000J0D01*
G01*
G37*
G36*
G01*
X175251100Y-125584950D02*
X175251100Y-125584950D01*
G75*
G02*
X175116100Y-125449950I0J135000D01*
G01*
X175116100Y-124782650D01*
G75*
G02*
X175251100Y-124647650I135000J0D01*
G01*
X175251100Y-124647650D01*
G75*
G02*
X175386100Y-124782650I0J-135000D01*
G01*
X175386100Y-125449950D01*
G75*
G02*
X175251100Y-125584950I-135000J0D01*
G01*
G37*
G36*
G01*
X175751100Y-125584950D02*
X175751100Y-125584950D01*
G75*
G02*
X175616100Y-125449950I0J135000D01*
G01*
X175616100Y-124782650D01*
G75*
G02*
X175751100Y-124647650I135000J0D01*
G01*
X175751100Y-124647650D01*
G75*
G02*
X175886100Y-124782650I0J-135000D01*
G01*
X175886100Y-125449950D01*
G75*
G02*
X175751100Y-125584950I-135000J0D01*
G01*
G37*
G36*
G01*
X176251100Y-125584950D02*
X176251100Y-125584950D01*
G75*
G02*
X176116100Y-125449950I0J135000D01*
G01*
X176116100Y-124782650D01*
G75*
G02*
X176251100Y-124647650I135000J0D01*
G01*
X176251100Y-124647650D01*
G75*
G02*
X176386100Y-124782650I0J-135000D01*
G01*
X176386100Y-125449950D01*
G75*
G02*
X176251100Y-125584950I-135000J0D01*
G01*
G37*
G36*
G01*
X176751100Y-125584950D02*
X176751100Y-125584950D01*
G75*
G02*
X176616100Y-125449950I0J135000D01*
G01*
X176616100Y-124782650D01*
G75*
G02*
X176751100Y-124647650I135000J0D01*
G01*
X176751100Y-124647650D01*
G75*
G02*
X176886100Y-124782650I0J-135000D01*
G01*
X176886100Y-125449950D01*
G75*
G02*
X176751100Y-125584950I-135000J0D01*
G01*
G37*
G36*
G01*
X177251100Y-125584950D02*
X177251100Y-125584950D01*
G75*
G02*
X177116100Y-125449950I0J135000D01*
G01*
X177116100Y-124782650D01*
G75*
G02*
X177251100Y-124647650I135000J0D01*
G01*
X177251100Y-124647650D01*
G75*
G02*
X177386100Y-124782650I0J-135000D01*
G01*
X177386100Y-125449950D01*
G75*
G02*
X177251100Y-125584950I-135000J0D01*
G01*
G37*
G36*
G01*
X178457050Y-125853600D02*
X178457050Y-125853600D01*
G75*
G02*
X178322050Y-125988600I-135000J0D01*
G01*
X177654750Y-125988600D01*
G75*
G02*
X177519750Y-125853600I0J135000D01*
G01*
X177519750Y-125853600D01*
G75*
G02*
X177654750Y-125718600I135000J0D01*
G01*
X178322050Y-125718600D01*
G75*
G02*
X178457050Y-125853600I0J-135000D01*
G01*
G37*
G36*
G01*
X178457050Y-126353600D02*
X178457050Y-126353600D01*
G75*
G02*
X178322050Y-126488600I-135000J0D01*
G01*
X177654750Y-126488600D01*
G75*
G02*
X177519750Y-126353600I0J135000D01*
G01*
X177519750Y-126353600D01*
G75*
G02*
X177654750Y-126218600I135000J0D01*
G01*
X178322050Y-126218600D01*
G75*
G02*
X178457050Y-126353600I0J-135000D01*
G01*
G37*
G36*
G01*
X178457050Y-126853600D02*
X178457050Y-126853600D01*
G75*
G02*
X178322050Y-126988600I-135000J0D01*
G01*
X177654750Y-126988600D01*
G75*
G02*
X177519750Y-126853600I0J135000D01*
G01*
X177519750Y-126853600D01*
G75*
G02*
X177654750Y-126718600I135000J0D01*
G01*
X178322050Y-126718600D01*
G75*
G02*
X178457050Y-126853600I0J-135000D01*
G01*
G37*
G36*
G01*
X178457050Y-127353600D02*
X178457050Y-127353600D01*
G75*
G02*
X178322050Y-127488600I-135000J0D01*
G01*
X177654750Y-127488600D01*
G75*
G02*
X177519750Y-127353600I0J135000D01*
G01*
X177519750Y-127353600D01*
G75*
G02*
X177654750Y-127218600I135000J0D01*
G01*
X178322050Y-127218600D01*
G75*
G02*
X178457050Y-127353600I0J-135000D01*
G01*
G37*
G36*
G01*
X178457050Y-127853600D02*
X178457050Y-127853600D01*
G75*
G02*
X178322050Y-127988600I-135000J0D01*
G01*
X177654750Y-127988600D01*
G75*
G02*
X177519750Y-127853600I0J135000D01*
G01*
X177519750Y-127853600D01*
G75*
G02*
X177654750Y-127718600I135000J0D01*
G01*
X178322050Y-127718600D01*
G75*
G02*
X178457050Y-127853600I0J-135000D01*
G01*
G37*
G36*
G01*
X178457050Y-128353600D02*
X178457050Y-128353600D01*
G75*
G02*
X178322050Y-128488600I-135000J0D01*
G01*
X177654750Y-128488600D01*
G75*
G02*
X177519750Y-128353600I0J135000D01*
G01*
X177519750Y-128353600D01*
G75*
G02*
X177654750Y-128218600I135000J0D01*
G01*
X178322050Y-128218600D01*
G75*
G02*
X178457050Y-128353600I0J-135000D01*
G01*
G37*
G36*
G01*
X178457050Y-128853600D02*
X178457050Y-128853600D01*
G75*
G02*
X178322050Y-128988600I-135000J0D01*
G01*
X177654750Y-128988600D01*
G75*
G02*
X177519750Y-128853600I0J135000D01*
G01*
X177519750Y-128853600D01*
G75*
G02*
X177654750Y-128718600I135000J0D01*
G01*
X178322050Y-128718600D01*
G75*
G02*
X178457050Y-128853600I0J-135000D01*
G01*
G37*
G36*
G01*
X178457050Y-129353600D02*
X178457050Y-129353600D01*
G75*
G02*
X178322050Y-129488600I-135000J0D01*
G01*
X177654750Y-129488600D01*
G75*
G02*
X177519750Y-129353600I0J135000D01*
G01*
X177519750Y-129353600D01*
G75*
G02*
X177654750Y-129218600I135000J0D01*
G01*
X178322050Y-129218600D01*
G75*
G02*
X178457050Y-129353600I0J-135000D01*
G01*
G37*
G36*
G01*
X177251100Y-130559550D02*
X177251100Y-130559550D01*
G75*
G02*
X177116100Y-130424550I0J135000D01*
G01*
X177116100Y-129757250D01*
G75*
G02*
X177251100Y-129622250I135000J0D01*
G01*
X177251100Y-129622250D01*
G75*
G02*
X177386100Y-129757250I0J-135000D01*
G01*
X177386100Y-130424550D01*
G75*
G02*
X177251100Y-130559550I-135000J0D01*
G01*
G37*
G36*
G01*
X176751100Y-130559550D02*
X176751100Y-130559550D01*
G75*
G02*
X176616100Y-130424550I0J135000D01*
G01*
X176616100Y-129757250D01*
G75*
G02*
X176751100Y-129622250I135000J0D01*
G01*
X176751100Y-129622250D01*
G75*
G02*
X176886100Y-129757250I0J-135000D01*
G01*
X176886100Y-130424550D01*
G75*
G02*
X176751100Y-130559550I-135000J0D01*
G01*
G37*
G36*
G01*
X176251100Y-130559550D02*
X176251100Y-130559550D01*
G75*
G02*
X176116100Y-130424550I0J135000D01*
G01*
X176116100Y-129757250D01*
G75*
G02*
X176251100Y-129622250I135000J0D01*
G01*
X176251100Y-129622250D01*
G75*
G02*
X176386100Y-129757250I0J-135000D01*
G01*
X176386100Y-130424550D01*
G75*
G02*
X176251100Y-130559550I-135000J0D01*
G01*
G37*
G36*
G01*
X175751100Y-130559550D02*
X175751100Y-130559550D01*
G75*
G02*
X175616100Y-130424550I0J135000D01*
G01*
X175616100Y-129757250D01*
G75*
G02*
X175751100Y-129622250I135000J0D01*
G01*
X175751100Y-129622250D01*
G75*
G02*
X175886100Y-129757250I0J-135000D01*
G01*
X175886100Y-130424550D01*
G75*
G02*
X175751100Y-130559550I-135000J0D01*
G01*
G37*
G36*
G01*
X175251100Y-130559550D02*
X175251100Y-130559550D01*
G75*
G02*
X175116100Y-130424550I0J135000D01*
G01*
X175116100Y-129757250D01*
G75*
G02*
X175251100Y-129622250I135000J0D01*
G01*
X175251100Y-129622250D01*
G75*
G02*
X175386100Y-129757250I0J-135000D01*
G01*
X175386100Y-130424550D01*
G75*
G02*
X175251100Y-130559550I-135000J0D01*
G01*
G37*
G36*
G01*
X174751100Y-130559550D02*
X174751100Y-130559550D01*
G75*
G02*
X174616100Y-130424550I0J135000D01*
G01*
X174616100Y-129757250D01*
G75*
G02*
X174751100Y-129622250I135000J0D01*
G01*
X174751100Y-129622250D01*
G75*
G02*
X174886100Y-129757250I0J-135000D01*
G01*
X174886100Y-130424550D01*
G75*
G02*
X174751100Y-130559550I-135000J0D01*
G01*
G37*
G36*
G01*
X174251100Y-130559550D02*
X174251100Y-130559550D01*
G75*
G02*
X174116100Y-130424550I0J135000D01*
G01*
X174116100Y-129757250D01*
G75*
G02*
X174251100Y-129622250I135000J0D01*
G01*
X174251100Y-129622250D01*
G75*
G02*
X174386100Y-129757250I0J-135000D01*
G01*
X174386100Y-130424550D01*
G75*
G02*
X174251100Y-130559550I-135000J0D01*
G01*
G37*
G36*
G01*
X173751100Y-130559550D02*
X173751100Y-130559550D01*
G75*
G02*
X173616100Y-130424550I0J135000D01*
G01*
X173616100Y-129757250D01*
G75*
G02*
X173751100Y-129622250I135000J0D01*
G01*
X173751100Y-129622250D01*
G75*
G02*
X173886100Y-129757250I0J-135000D01*
G01*
X173886100Y-130424550D01*
G75*
G02*
X173751100Y-130559550I-135000J0D01*
G01*
G37*
D26*
X100001100Y-114503600D03*
G36*
G01*
X99251100Y-113464950D02*
X99251100Y-113464950D01*
G75*
G02*
X99116100Y-113329950I0J135000D01*
G01*
X99116100Y-112682650D01*
G75*
G02*
X99251100Y-112547650I135000J0D01*
G01*
X99251100Y-112547650D01*
G75*
G02*
X99386100Y-112682650I0J-135000D01*
G01*
X99386100Y-113329950D01*
G75*
G02*
X99251100Y-113464950I-135000J0D01*
G01*
G37*
G36*
G01*
X99751100Y-113464950D02*
X99751100Y-113464950D01*
G75*
G02*
X99616100Y-113329950I0J135000D01*
G01*
X99616100Y-112682650D01*
G75*
G02*
X99751100Y-112547650I135000J0D01*
G01*
X99751100Y-112547650D01*
G75*
G02*
X99886100Y-112682650I0J-135000D01*
G01*
X99886100Y-113329950D01*
G75*
G02*
X99751100Y-113464950I-135000J0D01*
G01*
G37*
G36*
G01*
X100251100Y-113464950D02*
X100251100Y-113464950D01*
G75*
G02*
X100116100Y-113329950I0J135000D01*
G01*
X100116100Y-112682650D01*
G75*
G02*
X100251100Y-112547650I135000J0D01*
G01*
X100251100Y-112547650D01*
G75*
G02*
X100386100Y-112682650I0J-135000D01*
G01*
X100386100Y-113329950D01*
G75*
G02*
X100251100Y-113464950I-135000J0D01*
G01*
G37*
G36*
G01*
X100751100Y-113464950D02*
X100751100Y-113464950D01*
G75*
G02*
X100616100Y-113329950I0J135000D01*
G01*
X100616100Y-112682650D01*
G75*
G02*
X100751100Y-112547650I135000J0D01*
G01*
X100751100Y-112547650D01*
G75*
G02*
X100886100Y-112682650I0J-135000D01*
G01*
X100886100Y-113329950D01*
G75*
G02*
X100751100Y-113464950I-135000J0D01*
G01*
G37*
G36*
G01*
X100751100Y-116459550D02*
X100751100Y-116459550D01*
G75*
G02*
X100616100Y-116324550I0J135000D01*
G01*
X100616100Y-115677250D01*
G75*
G02*
X100751100Y-115542250I135000J0D01*
G01*
X100751100Y-115542250D01*
G75*
G02*
X100886100Y-115677250I0J-135000D01*
G01*
X100886100Y-116324550D01*
G75*
G02*
X100751100Y-116459550I-135000J0D01*
G01*
G37*
G36*
G01*
X100251100Y-116459550D02*
X100251100Y-116459550D01*
G75*
G02*
X100116100Y-116324550I0J135000D01*
G01*
X100116100Y-115677250D01*
G75*
G02*
X100251100Y-115542250I135000J0D01*
G01*
X100251100Y-115542250D01*
G75*
G02*
X100386100Y-115677250I0J-135000D01*
G01*
X100386100Y-116324550D01*
G75*
G02*
X100251100Y-116459550I-135000J0D01*
G01*
G37*
G36*
G01*
X99751100Y-116459550D02*
X99751100Y-116459550D01*
G75*
G02*
X99616100Y-116324550I0J135000D01*
G01*
X99616100Y-115677250D01*
G75*
G02*
X99751100Y-115542250I135000J0D01*
G01*
X99751100Y-115542250D01*
G75*
G02*
X99886100Y-115677250I0J-135000D01*
G01*
X99886100Y-116324550D01*
G75*
G02*
X99751100Y-116459550I-135000J0D01*
G01*
G37*
G36*
G01*
X99251100Y-116459550D02*
X99251100Y-116459550D01*
G75*
G02*
X99116100Y-116324550I0J135000D01*
G01*
X99116100Y-115677250D01*
G75*
G02*
X99251100Y-115542250I135000J0D01*
G01*
X99251100Y-115542250D01*
G75*
G02*
X99386100Y-115677250I0J-135000D01*
G01*
X99386100Y-116324550D01*
G75*
G02*
X99251100Y-116459550I-135000J0D01*
G01*
G37*
D22*
X167625600Y-133253600D03*
X167625600Y-135153600D03*
X165576600Y-135153600D03*
X165576600Y-134203600D03*
X165576600Y-133253600D03*
D24*
X166573700Y-128003600D03*
D25*
X160428500Y-130303600D03*
X160428500Y-128003600D03*
X160428500Y-125703600D03*
D27*
X148151100Y-131403600D03*
G36*
G01*
X148901100Y-132008200D02*
X148901100Y-132008200D01*
G75*
G02*
X149040700Y-132147800I0J-139600D01*
G01*
X149040700Y-132628600D01*
G75*
G02*
X148901100Y-132768200I-139600J0D01*
G01*
X148901100Y-132768200D01*
G75*
G02*
X148761500Y-132628600I0J139600D01*
G01*
X148761500Y-132147800D01*
G75*
G02*
X148901100Y-132008200I139600J0D01*
G01*
G37*
G36*
G01*
X148401100Y-132008200D02*
X148401100Y-132008200D01*
G75*
G02*
X148540700Y-132147800I0J-139600D01*
G01*
X148540700Y-132628600D01*
G75*
G02*
X148401100Y-132768200I-139600J0D01*
G01*
X148401100Y-132768200D01*
G75*
G02*
X148261500Y-132628600I0J139600D01*
G01*
X148261500Y-132147800D01*
G75*
G02*
X148401100Y-132008200I139600J0D01*
G01*
G37*
G36*
G01*
X147901100Y-132008200D02*
X147901100Y-132008200D01*
G75*
G02*
X148040700Y-132147800I0J-139600D01*
G01*
X148040700Y-132628600D01*
G75*
G02*
X147901100Y-132768200I-139600J0D01*
G01*
X147901100Y-132768200D01*
G75*
G02*
X147761500Y-132628600I0J139600D01*
G01*
X147761500Y-132147800D01*
G75*
G02*
X147901100Y-132008200I139600J0D01*
G01*
G37*
G36*
G01*
X147401100Y-132008200D02*
X147401100Y-132008200D01*
G75*
G02*
X147540700Y-132147800I0J-139600D01*
G01*
X147540700Y-132628600D01*
G75*
G02*
X147401100Y-132768200I-139600J0D01*
G01*
X147401100Y-132768200D01*
G75*
G02*
X147261500Y-132628600I0J139600D01*
G01*
X147261500Y-132147800D01*
G75*
G02*
X147401100Y-132008200I139600J0D01*
G01*
G37*
G36*
G01*
X147401100Y-130039000D02*
X147401100Y-130039000D01*
G75*
G02*
X147540700Y-130178600I0J-139600D01*
G01*
X147540700Y-130659400D01*
G75*
G02*
X147401100Y-130799000I-139600J0D01*
G01*
X147401100Y-130799000D01*
G75*
G02*
X147261500Y-130659400I0J139600D01*
G01*
X147261500Y-130178600D01*
G75*
G02*
X147401100Y-130039000I139600J0D01*
G01*
G37*
G36*
G01*
X147901100Y-130039000D02*
X147901100Y-130039000D01*
G75*
G02*
X148040700Y-130178600I0J-139600D01*
G01*
X148040700Y-130659400D01*
G75*
G02*
X147901100Y-130799000I-139600J0D01*
G01*
X147901100Y-130799000D01*
G75*
G02*
X147761500Y-130659400I0J139600D01*
G01*
X147761500Y-130178600D01*
G75*
G02*
X147901100Y-130039000I139600J0D01*
G01*
G37*
G36*
G01*
X148401100Y-130039000D02*
X148401100Y-130039000D01*
G75*
G02*
X148540700Y-130178600I0J-139600D01*
G01*
X148540700Y-130659400D01*
G75*
G02*
X148401100Y-130799000I-139600J0D01*
G01*
X148401100Y-130799000D01*
G75*
G02*
X148261500Y-130659400I0J139600D01*
G01*
X148261500Y-130178600D01*
G75*
G02*
X148401100Y-130039000I139600J0D01*
G01*
G37*
G36*
G01*
X148901100Y-130039000D02*
X148901100Y-130039000D01*
G75*
G02*
X149040700Y-130178600I0J-139600D01*
G01*
X149040700Y-130659400D01*
G75*
G02*
X148901100Y-130799000I-139600J0D01*
G01*
X148901100Y-130799000D01*
G75*
G02*
X148761500Y-130659400I0J139600D01*
G01*
X148761500Y-130178600D01*
G75*
G02*
X148901100Y-130039000I139600J0D01*
G01*
G37*
D19*
X98051500Y-109078600D03*
X98051500Y-108428600D03*
X98051500Y-107778600D03*
X98051500Y-107128600D03*
X102350700Y-107128600D03*
X102350700Y-107778600D03*
X102350700Y-108428600D03*
X102350700Y-109078600D03*
G36*
G01*
X98901100Y-97089450D02*
X98901100Y-97089450D01*
G75*
G02*
X98761100Y-96949450I0J140000D01*
G01*
X98761100Y-95758550D01*
G75*
G02*
X98901100Y-95618550I140000J0D01*
G01*
X98901100Y-95618550D01*
G75*
G02*
X99041100Y-95758550I0J-140000D01*
G01*
X99041100Y-96949450D01*
G75*
G02*
X98901100Y-97089450I-140000J0D01*
G01*
G37*
G36*
G01*
X99401100Y-97089450D02*
X99401100Y-97089450D01*
G75*
G02*
X99261100Y-96949450I0J140000D01*
G01*
X99261100Y-95758550D01*
G75*
G02*
X99401100Y-95618550I140000J0D01*
G01*
X99401100Y-95618550D01*
G75*
G02*
X99541100Y-95758550I0J-140000D01*
G01*
X99541100Y-96949450D01*
G75*
G02*
X99401100Y-97089450I-140000J0D01*
G01*
G37*
G36*
G01*
X99901100Y-97089450D02*
X99901100Y-97089450D01*
G75*
G02*
X99761100Y-96949450I0J140000D01*
G01*
X99761100Y-95758550D01*
G75*
G02*
X99901100Y-95618550I140000J0D01*
G01*
X99901100Y-95618550D01*
G75*
G02*
X100041100Y-95758550I0J-140000D01*
G01*
X100041100Y-96949450D01*
G75*
G02*
X99901100Y-97089450I-140000J0D01*
G01*
G37*
G36*
G01*
X100401100Y-97089450D02*
X100401100Y-97089450D01*
G75*
G02*
X100261100Y-96949450I0J140000D01*
G01*
X100261100Y-95758550D01*
G75*
G02*
X100401100Y-95618550I140000J0D01*
G01*
X100401100Y-95618550D01*
G75*
G02*
X100541100Y-95758550I0J-140000D01*
G01*
X100541100Y-96949450D01*
G75*
G02*
X100401100Y-97089450I-140000J0D01*
G01*
G37*
G36*
G01*
X100901100Y-97089450D02*
X100901100Y-97089450D01*
G75*
G02*
X100761100Y-96949450I0J140000D01*
G01*
X100761100Y-95758550D01*
G75*
G02*
X100901100Y-95618550I140000J0D01*
G01*
X100901100Y-95618550D01*
G75*
G02*
X101041100Y-95758550I0J-140000D01*
G01*
X101041100Y-96949450D01*
G75*
G02*
X100901100Y-97089450I-140000J0D01*
G01*
G37*
G36*
G01*
X100901100Y-101388650D02*
X100901100Y-101388650D01*
G75*
G02*
X100761100Y-101248650I0J140000D01*
G01*
X100761100Y-100057750D01*
G75*
G02*
X100901100Y-99917750I140000J0D01*
G01*
X100901100Y-99917750D01*
G75*
G02*
X101041100Y-100057750I0J-140000D01*
G01*
X101041100Y-101248650D01*
G75*
G02*
X100901100Y-101388650I-140000J0D01*
G01*
G37*
G36*
G01*
X100401100Y-101388650D02*
X100401100Y-101388650D01*
G75*
G02*
X100261100Y-101248650I0J140000D01*
G01*
X100261100Y-100057750D01*
G75*
G02*
X100401100Y-99917750I140000J0D01*
G01*
X100401100Y-99917750D01*
G75*
G02*
X100541100Y-100057750I0J-140000D01*
G01*
X100541100Y-101248650D01*
G75*
G02*
X100401100Y-101388650I-140000J0D01*
G01*
G37*
G36*
G01*
X99901100Y-101388650D02*
X99901100Y-101388650D01*
G75*
G02*
X99761100Y-101248650I0J140000D01*
G01*
X99761100Y-100057750D01*
G75*
G02*
X99901100Y-99917750I140000J0D01*
G01*
X99901100Y-99917750D01*
G75*
G02*
X100041100Y-100057750I0J-140000D01*
G01*
X100041100Y-101248650D01*
G75*
G02*
X99901100Y-101388650I-140000J0D01*
G01*
G37*
G36*
G01*
X99401100Y-101388650D02*
X99401100Y-101388650D01*
G75*
G02*
X99261100Y-101248650I0J140000D01*
G01*
X99261100Y-100057750D01*
G75*
G02*
X99401100Y-99917750I140000J0D01*
G01*
X99401100Y-99917750D01*
G75*
G02*
X99541100Y-100057750I0J-140000D01*
G01*
X99541100Y-101248650D01*
G75*
G02*
X99401100Y-101388650I-140000J0D01*
G01*
G37*
G36*
G01*
X98901100Y-101388650D02*
X98901100Y-101388650D01*
G75*
G02*
X98761100Y-101248650I0J140000D01*
G01*
X98761100Y-100057750D01*
G75*
G02*
X98901100Y-99917750I140000J0D01*
G01*
X98901100Y-99917750D01*
G75*
G02*
X99041100Y-100057750I0J-140000D01*
G01*
X99041100Y-101248650D01*
G75*
G02*
X98901100Y-101388650I-140000J0D01*
G01*
G37*
D26*
X201101100Y-110503600D03*
G36*
G01*
X200351100Y-109464950D02*
X200351100Y-109464950D01*
G75*
G02*
X200216100Y-109329950I0J135000D01*
G01*
X200216100Y-108682650D01*
G75*
G02*
X200351100Y-108547650I135000J0D01*
G01*
X200351100Y-108547650D01*
G75*
G02*
X200486100Y-108682650I0J-135000D01*
G01*
X200486100Y-109329950D01*
G75*
G02*
X200351100Y-109464950I-135000J0D01*
G01*
G37*
G36*
G01*
X200851100Y-109464950D02*
X200851100Y-109464950D01*
G75*
G02*
X200716100Y-109329950I0J135000D01*
G01*
X200716100Y-108682650D01*
G75*
G02*
X200851100Y-108547650I135000J0D01*
G01*
X200851100Y-108547650D01*
G75*
G02*
X200986100Y-108682650I0J-135000D01*
G01*
X200986100Y-109329950D01*
G75*
G02*
X200851100Y-109464950I-135000J0D01*
G01*
G37*
G36*
G01*
X201351100Y-109464950D02*
X201351100Y-109464950D01*
G75*
G02*
X201216100Y-109329950I0J135000D01*
G01*
X201216100Y-108682650D01*
G75*
G02*
X201351100Y-108547650I135000J0D01*
G01*
X201351100Y-108547650D01*
G75*
G02*
X201486100Y-108682650I0J-135000D01*
G01*
X201486100Y-109329950D01*
G75*
G02*
X201351100Y-109464950I-135000J0D01*
G01*
G37*
G36*
G01*
X201851100Y-109464950D02*
X201851100Y-109464950D01*
G75*
G02*
X201716100Y-109329950I0J135000D01*
G01*
X201716100Y-108682650D01*
G75*
G02*
X201851100Y-108547650I135000J0D01*
G01*
X201851100Y-108547650D01*
G75*
G02*
X201986100Y-108682650I0J-135000D01*
G01*
X201986100Y-109329950D01*
G75*
G02*
X201851100Y-109464950I-135000J0D01*
G01*
G37*
G36*
G01*
X201851100Y-112459550D02*
X201851100Y-112459550D01*
G75*
G02*
X201716100Y-112324550I0J135000D01*
G01*
X201716100Y-111677250D01*
G75*
G02*
X201851100Y-111542250I135000J0D01*
G01*
X201851100Y-111542250D01*
G75*
G02*
X201986100Y-111677250I0J-135000D01*
G01*
X201986100Y-112324550D01*
G75*
G02*
X201851100Y-112459550I-135000J0D01*
G01*
G37*
G36*
G01*
X201351100Y-112459550D02*
X201351100Y-112459550D01*
G75*
G02*
X201216100Y-112324550I0J135000D01*
G01*
X201216100Y-111677250D01*
G75*
G02*
X201351100Y-111542250I135000J0D01*
G01*
X201351100Y-111542250D01*
G75*
G02*
X201486100Y-111677250I0J-135000D01*
G01*
X201486100Y-112324550D01*
G75*
G02*
X201351100Y-112459550I-135000J0D01*
G01*
G37*
G36*
G01*
X200851100Y-112459550D02*
X200851100Y-112459550D01*
G75*
G02*
X200716100Y-112324550I0J135000D01*
G01*
X200716100Y-111677250D01*
G75*
G02*
X200851100Y-111542250I135000J0D01*
G01*
X200851100Y-111542250D01*
G75*
G02*
X200986100Y-111677250I0J-135000D01*
G01*
X200986100Y-112324550D01*
G75*
G02*
X200851100Y-112459550I-135000J0D01*
G01*
G37*
G36*
G01*
X200351100Y-112459550D02*
X200351100Y-112459550D01*
G75*
G02*
X200216100Y-112324550I0J135000D01*
G01*
X200216100Y-111677250D01*
G75*
G02*
X200351100Y-111542250I135000J0D01*
G01*
X200351100Y-111542250D01*
G75*
G02*
X200486100Y-111677250I0J-135000D01*
G01*
X200486100Y-112324550D01*
G75*
G02*
X200351100Y-112459550I-135000J0D01*
G01*
G37*
D19*
X198351500Y-104778600D03*
X198351500Y-104128600D03*
X198351500Y-103478600D03*
X198351500Y-102828600D03*
X202650700Y-102828600D03*
X202650700Y-103478600D03*
X202650700Y-104128600D03*
X202650700Y-104778600D03*
G36*
G01*
X199201100Y-91489450D02*
X199201100Y-91489450D01*
G75*
G02*
X199061100Y-91349450I0J140000D01*
G01*
X199061100Y-90158550D01*
G75*
G02*
X199201100Y-90018550I140000J0D01*
G01*
X199201100Y-90018550D01*
G75*
G02*
X199341100Y-90158550I0J-140000D01*
G01*
X199341100Y-91349450D01*
G75*
G02*
X199201100Y-91489450I-140000J0D01*
G01*
G37*
G36*
G01*
X199701100Y-91489450D02*
X199701100Y-91489450D01*
G75*
G02*
X199561100Y-91349450I0J140000D01*
G01*
X199561100Y-90158550D01*
G75*
G02*
X199701100Y-90018550I140000J0D01*
G01*
X199701100Y-90018550D01*
G75*
G02*
X199841100Y-90158550I0J-140000D01*
G01*
X199841100Y-91349450D01*
G75*
G02*
X199701100Y-91489450I-140000J0D01*
G01*
G37*
G36*
G01*
X200201100Y-91489450D02*
X200201100Y-91489450D01*
G75*
G02*
X200061100Y-91349450I0J140000D01*
G01*
X200061100Y-90158550D01*
G75*
G02*
X200201100Y-90018550I140000J0D01*
G01*
X200201100Y-90018550D01*
G75*
G02*
X200341100Y-90158550I0J-140000D01*
G01*
X200341100Y-91349450D01*
G75*
G02*
X200201100Y-91489450I-140000J0D01*
G01*
G37*
G36*
G01*
X200701100Y-91489450D02*
X200701100Y-91489450D01*
G75*
G02*
X200561100Y-91349450I0J140000D01*
G01*
X200561100Y-90158550D01*
G75*
G02*
X200701100Y-90018550I140000J0D01*
G01*
X200701100Y-90018550D01*
G75*
G02*
X200841100Y-90158550I0J-140000D01*
G01*
X200841100Y-91349450D01*
G75*
G02*
X200701100Y-91489450I-140000J0D01*
G01*
G37*
G36*
G01*
X201201100Y-91489450D02*
X201201100Y-91489450D01*
G75*
G02*
X201061100Y-91349450I0J140000D01*
G01*
X201061100Y-90158550D01*
G75*
G02*
X201201100Y-90018550I140000J0D01*
G01*
X201201100Y-90018550D01*
G75*
G02*
X201341100Y-90158550I0J-140000D01*
G01*
X201341100Y-91349450D01*
G75*
G02*
X201201100Y-91489450I-140000J0D01*
G01*
G37*
G36*
G01*
X201201100Y-95788650D02*
X201201100Y-95788650D01*
G75*
G02*
X201061100Y-95648650I0J140000D01*
G01*
X201061100Y-94457750D01*
G75*
G02*
X201201100Y-94317750I140000J0D01*
G01*
X201201100Y-94317750D01*
G75*
G02*
X201341100Y-94457750I0J-140000D01*
G01*
X201341100Y-95648650D01*
G75*
G02*
X201201100Y-95788650I-140000J0D01*
G01*
G37*
G36*
G01*
X200701100Y-95788650D02*
X200701100Y-95788650D01*
G75*
G02*
X200561100Y-95648650I0J140000D01*
G01*
X200561100Y-94457750D01*
G75*
G02*
X200701100Y-94317750I140000J0D01*
G01*
X200701100Y-94317750D01*
G75*
G02*
X200841100Y-94457750I0J-140000D01*
G01*
X200841100Y-95648650D01*
G75*
G02*
X200701100Y-95788650I-140000J0D01*
G01*
G37*
G36*
G01*
X200201100Y-95788650D02*
X200201100Y-95788650D01*
G75*
G02*
X200061100Y-95648650I0J140000D01*
G01*
X200061100Y-94457750D01*
G75*
G02*
X200201100Y-94317750I140000J0D01*
G01*
X200201100Y-94317750D01*
G75*
G02*
X200341100Y-94457750I0J-140000D01*
G01*
X200341100Y-95648650D01*
G75*
G02*
X200201100Y-95788650I-140000J0D01*
G01*
G37*
G36*
G01*
X199701100Y-95788650D02*
X199701100Y-95788650D01*
G75*
G02*
X199561100Y-95648650I0J140000D01*
G01*
X199561100Y-94457750D01*
G75*
G02*
X199701100Y-94317750I140000J0D01*
G01*
X199701100Y-94317750D01*
G75*
G02*
X199841100Y-94457750I0J-140000D01*
G01*
X199841100Y-95648650D01*
G75*
G02*
X199701100Y-95788650I-140000J0D01*
G01*
G37*
G36*
G01*
X199201100Y-95788650D02*
X199201100Y-95788650D01*
G75*
G02*
X199061100Y-95648650I0J140000D01*
G01*
X199061100Y-94457750D01*
G75*
G02*
X199201100Y-94317750I140000J0D01*
G01*
X199201100Y-94317750D01*
G75*
G02*
X199341100Y-94457750I0J-140000D01*
G01*
X199341100Y-95648650D01*
G75*
G02*
X199201100Y-95788650I-140000J0D01*
G01*
G37*
D28*
X101352700Y-128203600D03*
X102449500Y-128203600D03*
D29*
X98801100Y-121255200D03*
X98801100Y-122352000D03*
D28*
X102249500Y-117703600D03*
X101152700Y-117703600D03*
D29*
X195701100Y-125852000D03*
X195701100Y-124755200D03*
X202201100Y-124655200D03*
X202201100Y-125752000D03*
X201001100Y-124655200D03*
X201001100Y-125752000D03*
X202201100Y-121055200D03*
X202201100Y-122152000D03*
X201001100Y-121055200D03*
X201001100Y-122152000D03*
D28*
X199752700Y-113803600D03*
X200849500Y-113803600D03*
X203449500Y-113803600D03*
X202352700Y-113803600D03*
X99649500Y-128203600D03*
X98552700Y-128203600D03*
X130152700Y-132803600D03*
X131249500Y-132803600D03*
X128549500Y-132803600D03*
X127452700Y-132803600D03*
D29*
X131001100Y-128155200D03*
X131001100Y-129252000D03*
X127501100Y-128155200D03*
X127501100Y-129252000D03*
X131001100Y-125855200D03*
X131001100Y-126952000D03*
X127501100Y-125855200D03*
X127501100Y-126952000D03*
X132291100Y-126922000D03*
X132291100Y-125825200D03*
X126201100Y-126952000D03*
X126201100Y-125855200D03*
D28*
X98752700Y-117703600D03*
X99849500Y-117703600D03*
D12*
X179701100Y-108563600D03*
X179701100Y-107443600D03*
D13*
X166841100Y-99003600D03*
X167961100Y-99003600D03*
X160241100Y-94803600D03*
X161361100Y-94803600D03*
X168061100Y-123003600D03*
X166941100Y-123003600D03*
X171561100Y-133503600D03*
X170441100Y-133503600D03*
X149941100Y-113003600D03*
X151061100Y-113003600D03*
D12*
X152701100Y-120563600D03*
X152701100Y-119443600D03*
D28*
X148552700Y-133603600D03*
X149649500Y-133603600D03*
D13*
X150811100Y-131763600D03*
X151931100Y-131763600D03*
D12*
X112301100Y-142063600D03*
X112301100Y-140943600D03*
D29*
X195701100Y-127205200D03*
X195701100Y-128302000D03*
X102201100Y-123555200D03*
X102201100Y-124652000D03*
X98801100Y-123555200D03*
X98801100Y-124652000D03*
X102201100Y-121255200D03*
X102201100Y-122352000D03*
D30*
X134851100Y-109504000D03*
X135551100Y-109504000D03*
X135551100Y-110703200D03*
X134851100Y-110703200D03*
X145151100Y-109304000D03*
X145851100Y-109304000D03*
X145851100Y-110503200D03*
X145151100Y-110503200D03*
X142751100Y-109304000D03*
X143451100Y-109304000D03*
X143451100Y-110503200D03*
X142751100Y-110503200D03*
D12*
X112601100Y-146263600D03*
X112601100Y-145143600D03*
X182401100Y-145143600D03*
X182401100Y-146263600D03*
D13*
X184641100Y-146403600D03*
X185761100Y-146403600D03*
D12*
X188001100Y-146443600D03*
X188001100Y-147563600D03*
D13*
X99761100Y-111503600D03*
X98641100Y-111503600D03*
X100941100Y-111503600D03*
X102061100Y-111503600D03*
D12*
X96501100Y-107543600D03*
X96501100Y-108663600D03*
X103901100Y-108663600D03*
X103901100Y-107543600D03*
X102701100Y-105863600D03*
X102701100Y-104743600D03*
X111501100Y-147563600D03*
X111501100Y-146443600D03*
X97501100Y-105863600D03*
X97501100Y-104743600D03*
X186901100Y-145143600D03*
X186901100Y-146263600D03*
D13*
X200861100Y-107203600D03*
X199741100Y-107203600D03*
X202141100Y-107203600D03*
X203261100Y-107203600D03*
D12*
X195701100Y-103243600D03*
X195701100Y-104363600D03*
D13*
X110361100Y-146403600D03*
X109241100Y-146403600D03*
D12*
X204201100Y-104363600D03*
X204201100Y-103243600D03*
X202501100Y-100563600D03*
X202501100Y-99443600D03*
X198501100Y-100563600D03*
X198501100Y-99443600D03*
D13*
X101061100Y-120203600D03*
X99941100Y-120203600D03*
D12*
X102201100Y-120063600D03*
X102201100Y-118943600D03*
X98801100Y-120063600D03*
X98801100Y-118943600D03*
D13*
X99941100Y-118903600D03*
X101061100Y-118903600D03*
X202161100Y-118603600D03*
X201041100Y-118603600D03*
D12*
X202201100Y-117363600D03*
X202201100Y-116243600D03*
X201001100Y-117363600D03*
X201001100Y-116243600D03*
X107001100Y-146543600D03*
X107001100Y-147663600D03*
D13*
X201041100Y-115003600D03*
X202161100Y-115003600D03*
D12*
X120101100Y-126643600D03*
X120101100Y-127763600D03*
D13*
X121541100Y-124303600D03*
X122661100Y-124303600D03*
D12*
X117001100Y-120343600D03*
X117001100Y-121463600D03*
X124401100Y-121563600D03*
X124401100Y-120443600D03*
X122601100Y-117563600D03*
X122601100Y-116443600D03*
X118801100Y-117663600D03*
X118801100Y-116543600D03*
D13*
X184341100Y-106803600D03*
X185461100Y-106803600D03*
D12*
X108101100Y-145243600D03*
X108101100Y-146363600D03*
D13*
X151841100Y-97103600D03*
X152961100Y-97103600D03*
D12*
X156501100Y-96963600D03*
X156501100Y-95843600D03*
X155301100Y-95843600D03*
X155301100Y-96963600D03*
X156201100Y-105943600D03*
X156201100Y-107063600D03*
X151801100Y-103463600D03*
X151801100Y-102343600D03*
X150601100Y-100043600D03*
X150601100Y-101163600D03*
D13*
X145441100Y-92903600D03*
X146561100Y-92903600D03*
D12*
X150601100Y-104643600D03*
X150601100Y-105763600D03*
D13*
X179461100Y-132503600D03*
X178341100Y-132503600D03*
D12*
X174801100Y-132643600D03*
X174801100Y-133763600D03*
D17*
G36*
X104701831Y-140378455D02*
G01*
X105325369Y-140018455D01*
X105660369Y-140598693D01*
X105036831Y-140958693D01*
X104701831Y-140378455D01*
G37*
G36*
X104141831Y-139408507D02*
G01*
X104765369Y-139048507D01*
X105100369Y-139628745D01*
X104476831Y-139988745D01*
X104141831Y-139408507D01*
G37*
D12*
X176001100Y-133763600D03*
X176001100Y-132643600D03*
X174801100Y-123563600D03*
X174801100Y-122443600D03*
D13*
X181361100Y-127703600D03*
X180241100Y-127703600D03*
X181361100Y-128903600D03*
X180241100Y-128903600D03*
D12*
X173561100Y-132633600D03*
X173561100Y-133753600D03*
D13*
X181361100Y-126503600D03*
X180241100Y-126503600D03*
X181361100Y-125303600D03*
X180241100Y-125303600D03*
D12*
X181501100Y-122943600D03*
X181501100Y-124063600D03*
X148501100Y-138163600D03*
X148501100Y-137043600D03*
D17*
G36*
X106576831Y-140018455D02*
G01*
X107200369Y-140378455D01*
X106865369Y-140958693D01*
X106241831Y-140598693D01*
X106576831Y-140018455D01*
G37*
G36*
X107136831Y-139048507D02*
G01*
X107760369Y-139408507D01*
X107425369Y-139988745D01*
X106801831Y-139628745D01*
X107136831Y-139048507D01*
G37*
D12*
X148501100Y-141563600D03*
X148501100Y-140443600D03*
D13*
X148361100Y-139303600D03*
X147241100Y-139303600D03*
D12*
X147201100Y-140443600D03*
X147201100Y-141563600D03*
D13*
X110161100Y-138003600D03*
X109041100Y-138003600D03*
D12*
X183501100Y-146443600D03*
X183501100Y-147563600D03*
X167501100Y-114743600D03*
X167501100Y-115863600D03*
D13*
X164941100Y-116003600D03*
X166061100Y-116003600D03*
D12*
X163501100Y-115863600D03*
X163501100Y-114743600D03*
D13*
X162061100Y-116003600D03*
X160941100Y-116003600D03*
D31*
X108501100Y-108103600D03*
G36*
G01*
X107551100Y-107099000D02*
X107551100Y-107099000D01*
G75*
G02*
X107352700Y-106900600I0J198400D01*
G01*
X107352700Y-106437400D01*
G75*
G02*
X107551100Y-106239000I198400J0D01*
G01*
X107551100Y-106239000D01*
G75*
G02*
X107749500Y-106437400I0J-198400D01*
G01*
X107749500Y-106900600D01*
G75*
G02*
X107551100Y-107099000I-198400J0D01*
G01*
G37*
G36*
G01*
X108501100Y-107099000D02*
X108501100Y-107099000D01*
G75*
G02*
X108302700Y-106900600I0J198400D01*
G01*
X108302700Y-106437400D01*
G75*
G02*
X108501100Y-106239000I198400J0D01*
G01*
X108501100Y-106239000D01*
G75*
G02*
X108699500Y-106437400I0J-198400D01*
G01*
X108699500Y-106900600D01*
G75*
G02*
X108501100Y-107099000I-198400J0D01*
G01*
G37*
G36*
G01*
X109451100Y-107099000D02*
X109451100Y-107099000D01*
G75*
G02*
X109252700Y-106900600I0J198400D01*
G01*
X109252700Y-106437400D01*
G75*
G02*
X109451100Y-106239000I198400J0D01*
G01*
X109451100Y-106239000D01*
G75*
G02*
X109649500Y-106437400I0J-198400D01*
G01*
X109649500Y-106900600D01*
G75*
G02*
X109451100Y-107099000I-198400J0D01*
G01*
G37*
G36*
G01*
X109451100Y-109968200D02*
X109451100Y-109968200D01*
G75*
G02*
X109252700Y-109769800I0J198400D01*
G01*
X109252700Y-109306600D01*
G75*
G02*
X109451100Y-109108200I198400J0D01*
G01*
X109451100Y-109108200D01*
G75*
G02*
X109649500Y-109306600I0J-198400D01*
G01*
X109649500Y-109769800D01*
G75*
G02*
X109451100Y-109968200I-198400J0D01*
G01*
G37*
G36*
G01*
X108501100Y-109968200D02*
X108501100Y-109968200D01*
G75*
G02*
X108302700Y-109769800I0J198400D01*
G01*
X108302700Y-109306600D01*
G75*
G02*
X108501100Y-109108200I198400J0D01*
G01*
X108501100Y-109108200D01*
G75*
G02*
X108699500Y-109306600I0J-198400D01*
G01*
X108699500Y-109769800D01*
G75*
G02*
X108501100Y-109968200I-198400J0D01*
G01*
G37*
G36*
G01*
X107551100Y-109968200D02*
X107551100Y-109968200D01*
G75*
G02*
X107352700Y-109769800I0J198400D01*
G01*
X107352700Y-109306600D01*
G75*
G02*
X107551100Y-109108200I198400J0D01*
G01*
X107551100Y-109108200D01*
G75*
G02*
X107749500Y-109306600I0J-198400D01*
G01*
X107749500Y-109769800D01*
G75*
G02*
X107551100Y-109968200I-198400J0D01*
G01*
G37*
D32*
X109351100Y-105103600D03*
X107651100Y-105103600D03*
X109351100Y-111103600D03*
X107651100Y-111103600D03*
D31*
X189501100Y-98203600D03*
G36*
G01*
X190451100Y-99208200D02*
X190451100Y-99208200D01*
G75*
G02*
X190649500Y-99406600I0J-198400D01*
G01*
X190649500Y-99869800D01*
G75*
G02*
X190451100Y-100068200I-198400J0D01*
G01*
X190451100Y-100068200D01*
G75*
G02*
X190252700Y-99869800I0J198400D01*
G01*
X190252700Y-99406600D01*
G75*
G02*
X190451100Y-99208200I198400J0D01*
G01*
G37*
G36*
G01*
X189501100Y-99208200D02*
X189501100Y-99208200D01*
G75*
G02*
X189699500Y-99406600I0J-198400D01*
G01*
X189699500Y-99869800D01*
G75*
G02*
X189501100Y-100068200I-198400J0D01*
G01*
X189501100Y-100068200D01*
G75*
G02*
X189302700Y-99869800I0J198400D01*
G01*
X189302700Y-99406600D01*
G75*
G02*
X189501100Y-99208200I198400J0D01*
G01*
G37*
G36*
G01*
X188551100Y-99208200D02*
X188551100Y-99208200D01*
G75*
G02*
X188749500Y-99406600I0J-198400D01*
G01*
X188749500Y-99869800D01*
G75*
G02*
X188551100Y-100068200I-198400J0D01*
G01*
X188551100Y-100068200D01*
G75*
G02*
X188352700Y-99869800I0J198400D01*
G01*
X188352700Y-99406600D01*
G75*
G02*
X188551100Y-99208200I198400J0D01*
G01*
G37*
G36*
G01*
X188551100Y-96339000D02*
X188551100Y-96339000D01*
G75*
G02*
X188749500Y-96537400I0J-198400D01*
G01*
X188749500Y-97000600D01*
G75*
G02*
X188551100Y-97199000I-198400J0D01*
G01*
X188551100Y-97199000D01*
G75*
G02*
X188352700Y-97000600I0J198400D01*
G01*
X188352700Y-96537400D01*
G75*
G02*
X188551100Y-96339000I198400J0D01*
G01*
G37*
G36*
G01*
X189501100Y-96339000D02*
X189501100Y-96339000D01*
G75*
G02*
X189699500Y-96537400I0J-198400D01*
G01*
X189699500Y-97000600D01*
G75*
G02*
X189501100Y-97199000I-198400J0D01*
G01*
X189501100Y-97199000D01*
G75*
G02*
X189302700Y-97000600I0J198400D01*
G01*
X189302700Y-96537400D01*
G75*
G02*
X189501100Y-96339000I198400J0D01*
G01*
G37*
G36*
G01*
X190451100Y-96339000D02*
X190451100Y-96339000D01*
G75*
G02*
X190649500Y-96537400I0J-198400D01*
G01*
X190649500Y-97000600D01*
G75*
G02*
X190451100Y-97199000I-198400J0D01*
G01*
X190451100Y-97199000D01*
G75*
G02*
X190252700Y-97000600I0J198400D01*
G01*
X190252700Y-96537400D01*
G75*
G02*
X190451100Y-96339000I198400J0D01*
G01*
G37*
D32*
X188651100Y-101203600D03*
X190351100Y-101203600D03*
X188651100Y-95203600D03*
X190351100Y-95203600D03*
D31*
X117401100Y-128703600D03*
G36*
G01*
X116451100Y-127699000D02*
X116451100Y-127699000D01*
G75*
G02*
X116252700Y-127500600I0J198400D01*
G01*
X116252700Y-127037400D01*
G75*
G02*
X116451100Y-126839000I198400J0D01*
G01*
X116451100Y-126839000D01*
G75*
G02*
X116649500Y-127037400I0J-198400D01*
G01*
X116649500Y-127500600D01*
G75*
G02*
X116451100Y-127699000I-198400J0D01*
G01*
G37*
G36*
G01*
X117401100Y-127699000D02*
X117401100Y-127699000D01*
G75*
G02*
X117202700Y-127500600I0J198400D01*
G01*
X117202700Y-127037400D01*
G75*
G02*
X117401100Y-126839000I198400J0D01*
G01*
X117401100Y-126839000D01*
G75*
G02*
X117599500Y-127037400I0J-198400D01*
G01*
X117599500Y-127500600D01*
G75*
G02*
X117401100Y-127699000I-198400J0D01*
G01*
G37*
G36*
G01*
X118351100Y-127699000D02*
X118351100Y-127699000D01*
G75*
G02*
X118152700Y-127500600I0J198400D01*
G01*
X118152700Y-127037400D01*
G75*
G02*
X118351100Y-126839000I198400J0D01*
G01*
X118351100Y-126839000D01*
G75*
G02*
X118549500Y-127037400I0J-198400D01*
G01*
X118549500Y-127500600D01*
G75*
G02*
X118351100Y-127699000I-198400J0D01*
G01*
G37*
G36*
G01*
X118351100Y-130568200D02*
X118351100Y-130568200D01*
G75*
G02*
X118152700Y-130369800I0J198400D01*
G01*
X118152700Y-129906600D01*
G75*
G02*
X118351100Y-129708200I198400J0D01*
G01*
X118351100Y-129708200D01*
G75*
G02*
X118549500Y-129906600I0J-198400D01*
G01*
X118549500Y-130369800D01*
G75*
G02*
X118351100Y-130568200I-198400J0D01*
G01*
G37*
G36*
G01*
X117401100Y-130568200D02*
X117401100Y-130568200D01*
G75*
G02*
X117202700Y-130369800I0J198400D01*
G01*
X117202700Y-129906600D01*
G75*
G02*
X117401100Y-129708200I198400J0D01*
G01*
X117401100Y-129708200D01*
G75*
G02*
X117599500Y-129906600I0J-198400D01*
G01*
X117599500Y-130369800D01*
G75*
G02*
X117401100Y-130568200I-198400J0D01*
G01*
G37*
G36*
G01*
X116451100Y-130568200D02*
X116451100Y-130568200D01*
G75*
G02*
X116252700Y-130369800I0J198400D01*
G01*
X116252700Y-129906600D01*
G75*
G02*
X116451100Y-129708200I198400J0D01*
G01*
X116451100Y-129708200D01*
G75*
G02*
X116649500Y-129906600I0J-198400D01*
G01*
X116649500Y-130369800D01*
G75*
G02*
X116451100Y-130568200I-198400J0D01*
G01*
G37*
D32*
X118251100Y-125703600D03*
X116551100Y-125703600D03*
X118251100Y-131703600D03*
X116551100Y-131703600D03*
D31*
X182501100Y-97003600D03*
G36*
G01*
X183451100Y-98008200D02*
X183451100Y-98008200D01*
G75*
G02*
X183649500Y-98206600I0J-198400D01*
G01*
X183649500Y-98669800D01*
G75*
G02*
X183451100Y-98868200I-198400J0D01*
G01*
X183451100Y-98868200D01*
G75*
G02*
X183252700Y-98669800I0J198400D01*
G01*
X183252700Y-98206600D01*
G75*
G02*
X183451100Y-98008200I198400J0D01*
G01*
G37*
G36*
G01*
X182501100Y-98008200D02*
X182501100Y-98008200D01*
G75*
G02*
X182699500Y-98206600I0J-198400D01*
G01*
X182699500Y-98669800D01*
G75*
G02*
X182501100Y-98868200I-198400J0D01*
G01*
X182501100Y-98868200D01*
G75*
G02*
X182302700Y-98669800I0J198400D01*
G01*
X182302700Y-98206600D01*
G75*
G02*
X182501100Y-98008200I198400J0D01*
G01*
G37*
G36*
G01*
X181551100Y-98008200D02*
X181551100Y-98008200D01*
G75*
G02*
X181749500Y-98206600I0J-198400D01*
G01*
X181749500Y-98669800D01*
G75*
G02*
X181551100Y-98868200I-198400J0D01*
G01*
X181551100Y-98868200D01*
G75*
G02*
X181352700Y-98669800I0J198400D01*
G01*
X181352700Y-98206600D01*
G75*
G02*
X181551100Y-98008200I198400J0D01*
G01*
G37*
G36*
G01*
X181551100Y-95139000D02*
X181551100Y-95139000D01*
G75*
G02*
X181749500Y-95337400I0J-198400D01*
G01*
X181749500Y-95800600D01*
G75*
G02*
X181551100Y-95999000I-198400J0D01*
G01*
X181551100Y-95999000D01*
G75*
G02*
X181352700Y-95800600I0J198400D01*
G01*
X181352700Y-95337400D01*
G75*
G02*
X181551100Y-95139000I198400J0D01*
G01*
G37*
G36*
G01*
X182501100Y-95139000D02*
X182501100Y-95139000D01*
G75*
G02*
X182699500Y-95337400I0J-198400D01*
G01*
X182699500Y-95800600D01*
G75*
G02*
X182501100Y-95999000I-198400J0D01*
G01*
X182501100Y-95999000D01*
G75*
G02*
X182302700Y-95800600I0J198400D01*
G01*
X182302700Y-95337400D01*
G75*
G02*
X182501100Y-95139000I198400J0D01*
G01*
G37*
G36*
G01*
X183451100Y-95139000D02*
X183451100Y-95139000D01*
G75*
G02*
X183649500Y-95337400I0J-198400D01*
G01*
X183649500Y-95800600D01*
G75*
G02*
X183451100Y-95999000I-198400J0D01*
G01*
X183451100Y-95999000D01*
G75*
G02*
X183252700Y-95800600I0J198400D01*
G01*
X183252700Y-95337400D01*
G75*
G02*
X183451100Y-95139000I198400J0D01*
G01*
G37*
D32*
X181651100Y-100003600D03*
X183351100Y-100003600D03*
X181651100Y-94003600D03*
X183351100Y-94003600D03*
D14*
X107501100Y-114453600D03*
X107501100Y-112753600D03*
D12*
X109501100Y-114163600D03*
X109501100Y-113043600D03*
D14*
X190501100Y-91853600D03*
X190501100Y-93553600D03*
D12*
X188501100Y-92143600D03*
X188501100Y-93263600D03*
D14*
X116401100Y-134753600D03*
X116401100Y-133053600D03*
D12*
X118401100Y-134763600D03*
X118401100Y-133643600D03*
D13*
X178941100Y-94003600D03*
X180061100Y-94003600D03*
D33*
X199951100Y-74553600D03*
X199951100Y-78153600D03*
D16*
X194101100Y-72003600D03*
X196901100Y-72003600D03*
X194101100Y-69703600D03*
X196901100Y-69703600D03*
D15*
X196001100Y-74903600D03*
X196001100Y-77703600D03*
X193801100Y-74903600D03*
X193801100Y-77703600D03*
X185001100Y-68403600D03*
X185001100Y-71203600D03*
D12*
X183201100Y-73843600D03*
X183201100Y-74963600D03*
X183201100Y-76543600D03*
X183201100Y-77663600D03*
D13*
X184461100Y-80503600D03*
X183341100Y-80503600D03*
X187561100Y-80503600D03*
X186441100Y-80503600D03*
X186441100Y-79203600D03*
X187561100Y-79203600D03*
D16*
X170901100Y-64103600D03*
X173701100Y-64103600D03*
X170901100Y-66503600D03*
X173701100Y-66503600D03*
X170901100Y-77003600D03*
X173701100Y-77003600D03*
D33*
X177801100Y-78803600D03*
X177801100Y-75203600D03*
D16*
X170901100Y-79403600D03*
X173701100Y-79403600D03*
X170901100Y-81803600D03*
X173701100Y-81803600D03*
X170901100Y-69003600D03*
X173701100Y-69003600D03*
D33*
X166801100Y-78203600D03*
X166801100Y-81803600D03*
D15*
X162801100Y-81403600D03*
X162801100Y-78603600D03*
X160501100Y-81403600D03*
X160501100Y-78603600D03*
D34*
X111401100Y-93753600D03*
X111401100Y-93253600D03*
X111401100Y-92753600D03*
X111401100Y-92253600D03*
X111401100Y-91753600D03*
X111401100Y-91253600D03*
X111401100Y-90753600D03*
X111401100Y-90253600D03*
X111401100Y-89753600D03*
X111401100Y-89253600D03*
X111401100Y-88753600D03*
X111401100Y-88253600D03*
X111401100Y-87753600D03*
X111401100Y-87253600D03*
X111401100Y-86753600D03*
X111401100Y-86253600D03*
X111401100Y-85753600D03*
X111401100Y-85253600D03*
X111401100Y-84753600D03*
X111401100Y-84253600D03*
X111401100Y-83753600D03*
X111401100Y-83253600D03*
X111401100Y-82753600D03*
X111401100Y-82253600D03*
X111401100Y-81753600D03*
X111401100Y-81253600D03*
X111401100Y-80753600D03*
X111401100Y-80253600D03*
X111401100Y-79753600D03*
X111401100Y-79253600D03*
X111401100Y-78753600D03*
X111401100Y-78253600D03*
X111401100Y-77753600D03*
X111401100Y-77253600D03*
X111401100Y-76753600D03*
X111401100Y-76253600D03*
D35*
X113751100Y-73903600D03*
X114251100Y-73903600D03*
X114751100Y-73903600D03*
X115251100Y-73903600D03*
X115751100Y-73903600D03*
X116251100Y-73903600D03*
X116751100Y-73903600D03*
X117251100Y-73903600D03*
X117751100Y-73903600D03*
X118251100Y-73903600D03*
X118751100Y-73903600D03*
X119251100Y-73903600D03*
X119751100Y-73903600D03*
X120251100Y-73903600D03*
X120751100Y-73903600D03*
X121251100Y-73903600D03*
X121751100Y-73903600D03*
X122251100Y-73903600D03*
X122751100Y-73903600D03*
X123251100Y-73903600D03*
X123751100Y-73903600D03*
X124251100Y-73903600D03*
X124751100Y-73903600D03*
X125251100Y-73903600D03*
X125751100Y-73903600D03*
X126251100Y-73903600D03*
X126751100Y-73903600D03*
X127251100Y-73903600D03*
X127751100Y-73903600D03*
X128251100Y-73903600D03*
X128751100Y-73903600D03*
X129251100Y-73903600D03*
X129751100Y-73903600D03*
X130251100Y-73903600D03*
X130751100Y-73903600D03*
X131251100Y-73903600D03*
D34*
X133601100Y-76253600D03*
X133601100Y-76753600D03*
X133601100Y-77253600D03*
X133601100Y-77753600D03*
X133601100Y-78253600D03*
X133601100Y-78753600D03*
X133601100Y-79253600D03*
X133601100Y-79753600D03*
X133601100Y-80253600D03*
X133601100Y-80753600D03*
X133601100Y-81253600D03*
X133601100Y-81753600D03*
X133601100Y-82253600D03*
X133601100Y-82753600D03*
X133601100Y-83253600D03*
X133601100Y-83753600D03*
X133601100Y-84253600D03*
X133601100Y-84753600D03*
X133601100Y-85253600D03*
X133601100Y-85753600D03*
X133601100Y-86253600D03*
X133601100Y-86753600D03*
X133601100Y-87253600D03*
X133601100Y-87753600D03*
X133601100Y-88253600D03*
X133601100Y-88753600D03*
X133601100Y-89253600D03*
X133601100Y-89753600D03*
X133601100Y-90253600D03*
X133601100Y-90753600D03*
X133601100Y-91253600D03*
X133601100Y-91753600D03*
X133601100Y-92253600D03*
X133601100Y-92753600D03*
X133601100Y-93253600D03*
X133601100Y-93753600D03*
D35*
X131251100Y-96103600D03*
X130751100Y-96103600D03*
X130251100Y-96103600D03*
X129751100Y-96103600D03*
X129251100Y-96103600D03*
X128751100Y-96103600D03*
X128251100Y-96103600D03*
X127751100Y-96103600D03*
X127251100Y-96103600D03*
X126751100Y-96103600D03*
X126251100Y-96103600D03*
X125751100Y-96103600D03*
X125251100Y-96103600D03*
X124751100Y-96103600D03*
X124251100Y-96103600D03*
X123751100Y-96103600D03*
X123251100Y-96103600D03*
X122751100Y-96103600D03*
X122251100Y-96103600D03*
X121751100Y-96103600D03*
X121251100Y-96103600D03*
X120751100Y-96103600D03*
X120251100Y-96103600D03*
X119751100Y-96103600D03*
X119251100Y-96103600D03*
X118751100Y-96103600D03*
X118251100Y-96103600D03*
X117751100Y-96103600D03*
X117251100Y-96103600D03*
X116751100Y-96103600D03*
X116251100Y-96103600D03*
X115751100Y-96103600D03*
X115251100Y-96103600D03*
X114751100Y-96103600D03*
X114251100Y-96103600D03*
X113751100Y-96103600D03*
D36*
X140301100Y-88708600D03*
X140301100Y-87438600D03*
X140301100Y-86168600D03*
X140301100Y-84898600D03*
X145501100Y-84898600D03*
X145501100Y-86168600D03*
X145501100Y-87438600D03*
X145501100Y-88708600D03*
D13*
X121441100Y-100203600D03*
X122561100Y-100203600D03*
D12*
X129001100Y-99763600D03*
X129001100Y-98643600D03*
D13*
X137161100Y-85203600D03*
X136041100Y-85203600D03*
X116661100Y-98803600D03*
X115541100Y-98803600D03*
D12*
X106201100Y-91263600D03*
X106201100Y-90143600D03*
D13*
X108341100Y-85403600D03*
X109461100Y-85403600D03*
D12*
X127801100Y-100063600D03*
X127801100Y-98943600D03*
D13*
X137161100Y-86403600D03*
X136041100Y-86403600D03*
X121441100Y-99003600D03*
X122561100Y-99003600D03*
D12*
X133501100Y-73443600D03*
X133501100Y-74563600D03*
D13*
X136561100Y-93103600D03*
X135441100Y-93103600D03*
X136561100Y-94403600D03*
X135441100Y-94403600D03*
D12*
X157501100Y-71743600D03*
X157501100Y-72863600D03*
D13*
X147441100Y-79003600D03*
X148561100Y-79003600D03*
D12*
X150201100Y-67143600D03*
X150201100Y-68263600D03*
X151501100Y-68263600D03*
X151501100Y-67143600D03*
X154801100Y-67143600D03*
X154801100Y-68263600D03*
X153501100Y-67143600D03*
X153501100Y-68263600D03*
X180501100Y-114063600D03*
X180501100Y-112943600D03*
X140501100Y-107443600D03*
X140501100Y-108563600D03*
X136901100Y-107443600D03*
X136901100Y-108563600D03*
X139301100Y-108563600D03*
X139301100Y-107443600D03*
X138101100Y-108563600D03*
X138101100Y-107443600D03*
X140501100Y-112563600D03*
X140501100Y-111443600D03*
X136901100Y-112563600D03*
X136901100Y-111443600D03*
X139301100Y-111443600D03*
X139301100Y-112563600D03*
X138101100Y-111443600D03*
X138101100Y-112563600D03*
D37*
X92551100Y-100479100D03*
X94451100Y-100479100D03*
X94451100Y-102528100D03*
X93501100Y-102528100D03*
X92551100Y-102528100D03*
D13*
X94061100Y-104003600D03*
X92941100Y-104003600D03*
X94061100Y-99003600D03*
X92941100Y-99003600D03*
D22*
X196025600Y-91953600D03*
X196025600Y-93853600D03*
X193976600Y-93853600D03*
X193976600Y-92903600D03*
X193976600Y-91953600D03*
D12*
X192501100Y-93463600D03*
X192501100Y-92343600D03*
X197501100Y-93463600D03*
X197501100Y-92343600D03*
D37*
X123551100Y-108979100D03*
X125451100Y-108979100D03*
X125451100Y-111028100D03*
X124501100Y-111028100D03*
X123551100Y-111028100D03*
D13*
X125061100Y-112503600D03*
X123941100Y-112503600D03*
X125061100Y-107503600D03*
X123941100Y-107503600D03*
D38*
X125101100Y-69953600D03*
X125101100Y-68453600D03*
X119101100Y-69953600D03*
X119101100Y-68453600D03*
X116101100Y-69953600D03*
X116101100Y-68453600D03*
X113101100Y-69953600D03*
X113101100Y-68453600D03*
X110101100Y-69953600D03*
X110101100Y-68453600D03*
X107101100Y-69953600D03*
X107101100Y-68453600D03*
X104101100Y-69953600D03*
X104101100Y-68453600D03*
X101101100Y-69953600D03*
X101101100Y-68453600D03*
X98101100Y-69953600D03*
X98101100Y-68453600D03*
D12*
X99601100Y-69763600D03*
X99601100Y-68643600D03*
X102601100Y-69763600D03*
X102601100Y-68643600D03*
X105601100Y-69763600D03*
X105601100Y-68643600D03*
X108601100Y-69763600D03*
X108601100Y-68643600D03*
X111601100Y-69763600D03*
X111601100Y-68643600D03*
X114601100Y-69763600D03*
X114601100Y-68643600D03*
X117601100Y-69763600D03*
X117601100Y-68643600D03*
X120601100Y-69763600D03*
X120601100Y-68643600D03*
X126601100Y-69763600D03*
X126601100Y-68643600D03*
D13*
X136041100Y-84003600D03*
X137161100Y-84003600D03*
X113241100Y-97603600D03*
X114361100Y-97603600D03*
D12*
X151801100Y-105763600D03*
X151801100Y-104643600D03*
X150601100Y-97743600D03*
X150601100Y-98863600D03*
D20*
X149101100Y-124503600D03*
G36*
G01*
X150605700Y-123253600D02*
X150605700Y-123253600D01*
G75*
G02*
X150740700Y-123118600I135000J0D01*
G01*
X151430700Y-123118600D01*
G75*
G02*
X151565700Y-123253600I0J-135000D01*
G01*
X151565700Y-123253600D01*
G75*
G02*
X151430700Y-123388600I-135000J0D01*
G01*
X150740700Y-123388600D01*
G75*
G02*
X150605700Y-123253600I0J135000D01*
G01*
G37*
G36*
G01*
X150605700Y-123753600D02*
X150605700Y-123753600D01*
G75*
G02*
X150740700Y-123618600I135000J0D01*
G01*
X151430700Y-123618600D01*
G75*
G02*
X151565700Y-123753600I0J-135000D01*
G01*
X151565700Y-123753600D01*
G75*
G02*
X151430700Y-123888600I-135000J0D01*
G01*
X150740700Y-123888600D01*
G75*
G02*
X150605700Y-123753600I0J135000D01*
G01*
G37*
G36*
G01*
X150605700Y-124253600D02*
X150605700Y-124253600D01*
G75*
G02*
X150740700Y-124118600I135000J0D01*
G01*
X151430700Y-124118600D01*
G75*
G02*
X151565700Y-124253600I0J-135000D01*
G01*
X151565700Y-124253600D01*
G75*
G02*
X151430700Y-124388600I-135000J0D01*
G01*
X150740700Y-124388600D01*
G75*
G02*
X150605700Y-124253600I0J135000D01*
G01*
G37*
G36*
G01*
X150605700Y-124753600D02*
X150605700Y-124753600D01*
G75*
G02*
X150740700Y-124618600I135000J0D01*
G01*
X151430700Y-124618600D01*
G75*
G02*
X151565700Y-124753600I0J-135000D01*
G01*
X151565700Y-124753600D01*
G75*
G02*
X151430700Y-124888600I-135000J0D01*
G01*
X150740700Y-124888600D01*
G75*
G02*
X150605700Y-124753600I0J135000D01*
G01*
G37*
G36*
G01*
X150605700Y-125253600D02*
X150605700Y-125253600D01*
G75*
G02*
X150740700Y-125118600I135000J0D01*
G01*
X151430700Y-125118600D01*
G75*
G02*
X151565700Y-125253600I0J-135000D01*
G01*
X151565700Y-125253600D01*
G75*
G02*
X151430700Y-125388600I-135000J0D01*
G01*
X150740700Y-125388600D01*
G75*
G02*
X150605700Y-125253600I0J135000D01*
G01*
G37*
G36*
G01*
X150605700Y-125753600D02*
X150605700Y-125753600D01*
G75*
G02*
X150740700Y-125618600I135000J0D01*
G01*
X151430700Y-125618600D01*
G75*
G02*
X151565700Y-125753600I0J-135000D01*
G01*
X151565700Y-125753600D01*
G75*
G02*
X151430700Y-125888600I-135000J0D01*
G01*
X150740700Y-125888600D01*
G75*
G02*
X150605700Y-125753600I0J135000D01*
G01*
G37*
G36*
G01*
X150351100Y-126008200D02*
X150351100Y-126008200D01*
G75*
G02*
X150486100Y-126143200I0J-135000D01*
G01*
X150486100Y-126833200D01*
G75*
G02*
X150351100Y-126968200I-135000J0D01*
G01*
X150351100Y-126968200D01*
G75*
G02*
X150216100Y-126833200I0J135000D01*
G01*
X150216100Y-126143200D01*
G75*
G02*
X150351100Y-126008200I135000J0D01*
G01*
G37*
G36*
G01*
X149851100Y-126008200D02*
X149851100Y-126008200D01*
G75*
G02*
X149986100Y-126143200I0J-135000D01*
G01*
X149986100Y-126833200D01*
G75*
G02*
X149851100Y-126968200I-135000J0D01*
G01*
X149851100Y-126968200D01*
G75*
G02*
X149716100Y-126833200I0J135000D01*
G01*
X149716100Y-126143200D01*
G75*
G02*
X149851100Y-126008200I135000J0D01*
G01*
G37*
G36*
G01*
X149351100Y-126008200D02*
X149351100Y-126008200D01*
G75*
G02*
X149486100Y-126143200I0J-135000D01*
G01*
X149486100Y-126833200D01*
G75*
G02*
X149351100Y-126968200I-135000J0D01*
G01*
X149351100Y-126968200D01*
G75*
G02*
X149216100Y-126833200I0J135000D01*
G01*
X149216100Y-126143200D01*
G75*
G02*
X149351100Y-126008200I135000J0D01*
G01*
G37*
G36*
G01*
X148851100Y-126008200D02*
X148851100Y-126008200D01*
G75*
G02*
X148986100Y-126143200I0J-135000D01*
G01*
X148986100Y-126833200D01*
G75*
G02*
X148851100Y-126968200I-135000J0D01*
G01*
X148851100Y-126968200D01*
G75*
G02*
X148716100Y-126833200I0J135000D01*
G01*
X148716100Y-126143200D01*
G75*
G02*
X148851100Y-126008200I135000J0D01*
G01*
G37*
G36*
G01*
X148351100Y-126008200D02*
X148351100Y-126008200D01*
G75*
G02*
X148486100Y-126143200I0J-135000D01*
G01*
X148486100Y-126833200D01*
G75*
G02*
X148351100Y-126968200I-135000J0D01*
G01*
X148351100Y-126968200D01*
G75*
G02*
X148216100Y-126833200I0J135000D01*
G01*
X148216100Y-126143200D01*
G75*
G02*
X148351100Y-126008200I135000J0D01*
G01*
G37*
G36*
G01*
X147851100Y-126008200D02*
X147851100Y-126008200D01*
G75*
G02*
X147986100Y-126143200I0J-135000D01*
G01*
X147986100Y-126833200D01*
G75*
G02*
X147851100Y-126968200I-135000J0D01*
G01*
X147851100Y-126968200D01*
G75*
G02*
X147716100Y-126833200I0J135000D01*
G01*
X147716100Y-126143200D01*
G75*
G02*
X147851100Y-126008200I135000J0D01*
G01*
G37*
G36*
G01*
X146636500Y-125753600D02*
X146636500Y-125753600D01*
G75*
G02*
X146771500Y-125618600I135000J0D01*
G01*
X147461500Y-125618600D01*
G75*
G02*
X147596500Y-125753600I0J-135000D01*
G01*
X147596500Y-125753600D01*
G75*
G02*
X147461500Y-125888600I-135000J0D01*
G01*
X146771500Y-125888600D01*
G75*
G02*
X146636500Y-125753600I0J135000D01*
G01*
G37*
G36*
G01*
X146636500Y-125253600D02*
X146636500Y-125253600D01*
G75*
G02*
X146771500Y-125118600I135000J0D01*
G01*
X147461500Y-125118600D01*
G75*
G02*
X147596500Y-125253600I0J-135000D01*
G01*
X147596500Y-125253600D01*
G75*
G02*
X147461500Y-125388600I-135000J0D01*
G01*
X146771500Y-125388600D01*
G75*
G02*
X146636500Y-125253600I0J135000D01*
G01*
G37*
G36*
G01*
X146636500Y-124753600D02*
X146636500Y-124753600D01*
G75*
G02*
X146771500Y-124618600I135000J0D01*
G01*
X147461500Y-124618600D01*
G75*
G02*
X147596500Y-124753600I0J-135000D01*
G01*
X147596500Y-124753600D01*
G75*
G02*
X147461500Y-124888600I-135000J0D01*
G01*
X146771500Y-124888600D01*
G75*
G02*
X146636500Y-124753600I0J135000D01*
G01*
G37*
G36*
G01*
X146636500Y-124253600D02*
X146636500Y-124253600D01*
G75*
G02*
X146771500Y-124118600I135000J0D01*
G01*
X147461500Y-124118600D01*
G75*
G02*
X147596500Y-124253600I0J-135000D01*
G01*
X147596500Y-124253600D01*
G75*
G02*
X147461500Y-124388600I-135000J0D01*
G01*
X146771500Y-124388600D01*
G75*
G02*
X146636500Y-124253600I0J135000D01*
G01*
G37*
G36*
G01*
X146636500Y-123753600D02*
X146636500Y-123753600D01*
G75*
G02*
X146771500Y-123618600I135000J0D01*
G01*
X147461500Y-123618600D01*
G75*
G02*
X147596500Y-123753600I0J-135000D01*
G01*
X147596500Y-123753600D01*
G75*
G02*
X147461500Y-123888600I-135000J0D01*
G01*
X146771500Y-123888600D01*
G75*
G02*
X146636500Y-123753600I0J135000D01*
G01*
G37*
G36*
G01*
X146636500Y-123253600D02*
X146636500Y-123253600D01*
G75*
G02*
X146771500Y-123118600I135000J0D01*
G01*
X147461500Y-123118600D01*
G75*
G02*
X147596500Y-123253600I0J-135000D01*
G01*
X147596500Y-123253600D01*
G75*
G02*
X147461500Y-123388600I-135000J0D01*
G01*
X146771500Y-123388600D01*
G75*
G02*
X146636500Y-123253600I0J135000D01*
G01*
G37*
G36*
G01*
X147851100Y-122039000D02*
X147851100Y-122039000D01*
G75*
G02*
X147986100Y-122174000I0J-135000D01*
G01*
X147986100Y-122864000D01*
G75*
G02*
X147851100Y-122999000I-135000J0D01*
G01*
X147851100Y-122999000D01*
G75*
G02*
X147716100Y-122864000I0J135000D01*
G01*
X147716100Y-122174000D01*
G75*
G02*
X147851100Y-122039000I135000J0D01*
G01*
G37*
G36*
G01*
X148351100Y-122039000D02*
X148351100Y-122039000D01*
G75*
G02*
X148486100Y-122174000I0J-135000D01*
G01*
X148486100Y-122864000D01*
G75*
G02*
X148351100Y-122999000I-135000J0D01*
G01*
X148351100Y-122999000D01*
G75*
G02*
X148216100Y-122864000I0J135000D01*
G01*
X148216100Y-122174000D01*
G75*
G02*
X148351100Y-122039000I135000J0D01*
G01*
G37*
G36*
G01*
X148851100Y-122039000D02*
X148851100Y-122039000D01*
G75*
G02*
X148986100Y-122174000I0J-135000D01*
G01*
X148986100Y-122864000D01*
G75*
G02*
X148851100Y-122999000I-135000J0D01*
G01*
X148851100Y-122999000D01*
G75*
G02*
X148716100Y-122864000I0J135000D01*
G01*
X148716100Y-122174000D01*
G75*
G02*
X148851100Y-122039000I135000J0D01*
G01*
G37*
G36*
G01*
X149351100Y-122039000D02*
X149351100Y-122039000D01*
G75*
G02*
X149486100Y-122174000I0J-135000D01*
G01*
X149486100Y-122864000D01*
G75*
G02*
X149351100Y-122999000I-135000J0D01*
G01*
X149351100Y-122999000D01*
G75*
G02*
X149216100Y-122864000I0J135000D01*
G01*
X149216100Y-122174000D01*
G75*
G02*
X149351100Y-122039000I135000J0D01*
G01*
G37*
G36*
G01*
X149851100Y-122039000D02*
X149851100Y-122039000D01*
G75*
G02*
X149986100Y-122174000I0J-135000D01*
G01*
X149986100Y-122864000D01*
G75*
G02*
X149851100Y-122999000I-135000J0D01*
G01*
X149851100Y-122999000D01*
G75*
G02*
X149716100Y-122864000I0J135000D01*
G01*
X149716100Y-122174000D01*
G75*
G02*
X149851100Y-122039000I135000J0D01*
G01*
G37*
G36*
G01*
X150351100Y-122039000D02*
X150351100Y-122039000D01*
G75*
G02*
X150486100Y-122174000I0J-135000D01*
G01*
X150486100Y-122864000D01*
G75*
G02*
X150351100Y-122999000I-135000J0D01*
G01*
X150351100Y-122999000D01*
G75*
G02*
X150216100Y-122864000I0J135000D01*
G01*
X150216100Y-122174000D01*
G75*
G02*
X150351100Y-122039000I135000J0D01*
G01*
G37*
D39*
X148301100Y-116703600D03*
G36*
G01*
X147301100Y-115309500D02*
X147301100Y-115309500D01*
G75*
G02*
X147160200Y-115168600I0J140900D01*
G01*
X147160200Y-114488600D01*
G75*
G02*
X147301100Y-114347700I140900J0D01*
G01*
X147301100Y-114347700D01*
G75*
G02*
X147442000Y-114488600I0J-140900D01*
G01*
X147442000Y-115168600D01*
G75*
G02*
X147301100Y-115309500I-140900J0D01*
G01*
G37*
G36*
G01*
X147801100Y-115309500D02*
X147801100Y-115309500D01*
G75*
G02*
X147660200Y-115168600I0J140900D01*
G01*
X147660200Y-114488600D01*
G75*
G02*
X147801100Y-114347700I140900J0D01*
G01*
X147801100Y-114347700D01*
G75*
G02*
X147942000Y-114488600I0J-140900D01*
G01*
X147942000Y-115168600D01*
G75*
G02*
X147801100Y-115309500I-140900J0D01*
G01*
G37*
G36*
G01*
X148301100Y-115309500D02*
X148301100Y-115309500D01*
G75*
G02*
X148160200Y-115168600I0J140900D01*
G01*
X148160200Y-114488600D01*
G75*
G02*
X148301100Y-114347700I140900J0D01*
G01*
X148301100Y-114347700D01*
G75*
G02*
X148442000Y-114488600I0J-140900D01*
G01*
X148442000Y-115168600D01*
G75*
G02*
X148301100Y-115309500I-140900J0D01*
G01*
G37*
G36*
G01*
X148801100Y-115309500D02*
X148801100Y-115309500D01*
G75*
G02*
X148660200Y-115168600I0J140900D01*
G01*
X148660200Y-114488600D01*
G75*
G02*
X148801100Y-114347700I140900J0D01*
G01*
X148801100Y-114347700D01*
G75*
G02*
X148942000Y-114488600I0J-140900D01*
G01*
X148942000Y-115168600D01*
G75*
G02*
X148801100Y-115309500I-140900J0D01*
G01*
G37*
G36*
G01*
X149301100Y-115309500D02*
X149301100Y-115309500D01*
G75*
G02*
X149160200Y-115168600I0J140900D01*
G01*
X149160200Y-114488600D01*
G75*
G02*
X149301100Y-114347700I140900J0D01*
G01*
X149301100Y-114347700D01*
G75*
G02*
X149442000Y-114488600I0J-140900D01*
G01*
X149442000Y-115168600D01*
G75*
G02*
X149301100Y-115309500I-140900J0D01*
G01*
G37*
G36*
G01*
X149695200Y-115703600D02*
X149695200Y-115703600D01*
G75*
G02*
X149836100Y-115562700I140900J0D01*
G01*
X150516100Y-115562700D01*
G75*
G02*
X150657000Y-115703600I0J-140900D01*
G01*
X150657000Y-115703600D01*
G75*
G02*
X150516100Y-115844500I-140900J0D01*
G01*
X149836100Y-115844500D01*
G75*
G02*
X149695200Y-115703600I0J140900D01*
G01*
G37*
G36*
G01*
X149695200Y-116203600D02*
X149695200Y-116203600D01*
G75*
G02*
X149836100Y-116062700I140900J0D01*
G01*
X150516100Y-116062700D01*
G75*
G02*
X150657000Y-116203600I0J-140900D01*
G01*
X150657000Y-116203600D01*
G75*
G02*
X150516100Y-116344500I-140900J0D01*
G01*
X149836100Y-116344500D01*
G75*
G02*
X149695200Y-116203600I0J140900D01*
G01*
G37*
G36*
G01*
X149695200Y-116703600D02*
X149695200Y-116703600D01*
G75*
G02*
X149836100Y-116562700I140900J0D01*
G01*
X150516100Y-116562700D01*
G75*
G02*
X150657000Y-116703600I0J-140900D01*
G01*
X150657000Y-116703600D01*
G75*
G02*
X150516100Y-116844500I-140900J0D01*
G01*
X149836100Y-116844500D01*
G75*
G02*
X149695200Y-116703600I0J140900D01*
G01*
G37*
G36*
G01*
X149695200Y-117203600D02*
X149695200Y-117203600D01*
G75*
G02*
X149836100Y-117062700I140900J0D01*
G01*
X150516100Y-117062700D01*
G75*
G02*
X150657000Y-117203600I0J-140900D01*
G01*
X150657000Y-117203600D01*
G75*
G02*
X150516100Y-117344500I-140900J0D01*
G01*
X149836100Y-117344500D01*
G75*
G02*
X149695200Y-117203600I0J140900D01*
G01*
G37*
G36*
G01*
X149695200Y-117703600D02*
X149695200Y-117703600D01*
G75*
G02*
X149836100Y-117562700I140900J0D01*
G01*
X150516100Y-117562700D01*
G75*
G02*
X150657000Y-117703600I0J-140900D01*
G01*
X150657000Y-117703600D01*
G75*
G02*
X150516100Y-117844500I-140900J0D01*
G01*
X149836100Y-117844500D01*
G75*
G02*
X149695200Y-117703600I0J140900D01*
G01*
G37*
G36*
G01*
X149301100Y-119059500D02*
X149301100Y-119059500D01*
G75*
G02*
X149160200Y-118918600I0J140900D01*
G01*
X149160200Y-118238600D01*
G75*
G02*
X149301100Y-118097700I140900J0D01*
G01*
X149301100Y-118097700D01*
G75*
G02*
X149442000Y-118238600I0J-140900D01*
G01*
X149442000Y-118918600D01*
G75*
G02*
X149301100Y-119059500I-140900J0D01*
G01*
G37*
G36*
G01*
X148801100Y-119059500D02*
X148801100Y-119059500D01*
G75*
G02*
X148660200Y-118918600I0J140900D01*
G01*
X148660200Y-118238600D01*
G75*
G02*
X148801100Y-118097700I140900J0D01*
G01*
X148801100Y-118097700D01*
G75*
G02*
X148942000Y-118238600I0J-140900D01*
G01*
X148942000Y-118918600D01*
G75*
G02*
X148801100Y-119059500I-140900J0D01*
G01*
G37*
G36*
G01*
X148301100Y-119059500D02*
X148301100Y-119059500D01*
G75*
G02*
X148160200Y-118918600I0J140900D01*
G01*
X148160200Y-118238600D01*
G75*
G02*
X148301100Y-118097700I140900J0D01*
G01*
X148301100Y-118097700D01*
G75*
G02*
X148442000Y-118238600I0J-140900D01*
G01*
X148442000Y-118918600D01*
G75*
G02*
X148301100Y-119059500I-140900J0D01*
G01*
G37*
G36*
G01*
X147801100Y-119059500D02*
X147801100Y-119059500D01*
G75*
G02*
X147660200Y-118918600I0J140900D01*
G01*
X147660200Y-118238600D01*
G75*
G02*
X147801100Y-118097700I140900J0D01*
G01*
X147801100Y-118097700D01*
G75*
G02*
X147942000Y-118238600I0J-140900D01*
G01*
X147942000Y-118918600D01*
G75*
G02*
X147801100Y-119059500I-140900J0D01*
G01*
G37*
G36*
G01*
X147301100Y-119059500D02*
X147301100Y-119059500D01*
G75*
G02*
X147160200Y-118918600I0J140900D01*
G01*
X147160200Y-118238600D01*
G75*
G02*
X147301100Y-118097700I140900J0D01*
G01*
X147301100Y-118097700D01*
G75*
G02*
X147442000Y-118238600I0J-140900D01*
G01*
X147442000Y-118918600D01*
G75*
G02*
X147301100Y-119059500I-140900J0D01*
G01*
G37*
G36*
G01*
X145945200Y-117703600D02*
X145945200Y-117703600D01*
G75*
G02*
X146086100Y-117562700I140900J0D01*
G01*
X146766100Y-117562700D01*
G75*
G02*
X146907000Y-117703600I0J-140900D01*
G01*
X146907000Y-117703600D01*
G75*
G02*
X146766100Y-117844500I-140900J0D01*
G01*
X146086100Y-117844500D01*
G75*
G02*
X145945200Y-117703600I0J140900D01*
G01*
G37*
G36*
G01*
X145945200Y-117203600D02*
X145945200Y-117203600D01*
G75*
G02*
X146086100Y-117062700I140900J0D01*
G01*
X146766100Y-117062700D01*
G75*
G02*
X146907000Y-117203600I0J-140900D01*
G01*
X146907000Y-117203600D01*
G75*
G02*
X146766100Y-117344500I-140900J0D01*
G01*
X146086100Y-117344500D01*
G75*
G02*
X145945200Y-117203600I0J140900D01*
G01*
G37*
G36*
G01*
X145945200Y-116703600D02*
X145945200Y-116703600D01*
G75*
G02*
X146086100Y-116562700I140900J0D01*
G01*
X146766100Y-116562700D01*
G75*
G02*
X146907000Y-116703600I0J-140900D01*
G01*
X146907000Y-116703600D01*
G75*
G02*
X146766100Y-116844500I-140900J0D01*
G01*
X146086100Y-116844500D01*
G75*
G02*
X145945200Y-116703600I0J140900D01*
G01*
G37*
G36*
G01*
X145945200Y-116203600D02*
X145945200Y-116203600D01*
G75*
G02*
X146086100Y-116062700I140900J0D01*
G01*
X146766100Y-116062700D01*
G75*
G02*
X146907000Y-116203600I0J-140900D01*
G01*
X146907000Y-116203600D01*
G75*
G02*
X146766100Y-116344500I-140900J0D01*
G01*
X146086100Y-116344500D01*
G75*
G02*
X145945200Y-116203600I0J140900D01*
G01*
G37*
G36*
G01*
X145945200Y-115703600D02*
X145945200Y-115703600D01*
G75*
G02*
X146086100Y-115562700I140900J0D01*
G01*
X146766100Y-115562700D01*
G75*
G02*
X146907000Y-115703600I0J-140900D01*
G01*
X146907000Y-115703600D01*
G75*
G02*
X146766100Y-115844500I-140900J0D01*
G01*
X146086100Y-115844500D01*
G75*
G02*
X145945200Y-115703600I0J140900D01*
G01*
G37*
X148501100Y-145003600D03*
G36*
G01*
X149501100Y-146397700D02*
X149501100Y-146397700D01*
G75*
G02*
X149642000Y-146538600I0J-140900D01*
G01*
X149642000Y-147218600D01*
G75*
G02*
X149501100Y-147359500I-140900J0D01*
G01*
X149501100Y-147359500D01*
G75*
G02*
X149360200Y-147218600I0J140900D01*
G01*
X149360200Y-146538600D01*
G75*
G02*
X149501100Y-146397700I140900J0D01*
G01*
G37*
G36*
G01*
X149001100Y-146397700D02*
X149001100Y-146397700D01*
G75*
G02*
X149142000Y-146538600I0J-140900D01*
G01*
X149142000Y-147218600D01*
G75*
G02*
X149001100Y-147359500I-140900J0D01*
G01*
X149001100Y-147359500D01*
G75*
G02*
X148860200Y-147218600I0J140900D01*
G01*
X148860200Y-146538600D01*
G75*
G02*
X149001100Y-146397700I140900J0D01*
G01*
G37*
G36*
G01*
X148501100Y-146397700D02*
X148501100Y-146397700D01*
G75*
G02*
X148642000Y-146538600I0J-140900D01*
G01*
X148642000Y-147218600D01*
G75*
G02*
X148501100Y-147359500I-140900J0D01*
G01*
X148501100Y-147359500D01*
G75*
G02*
X148360200Y-147218600I0J140900D01*
G01*
X148360200Y-146538600D01*
G75*
G02*
X148501100Y-146397700I140900J0D01*
G01*
G37*
G36*
G01*
X148001100Y-146397700D02*
X148001100Y-146397700D01*
G75*
G02*
X148142000Y-146538600I0J-140900D01*
G01*
X148142000Y-147218600D01*
G75*
G02*
X148001100Y-147359500I-140900J0D01*
G01*
X148001100Y-147359500D01*
G75*
G02*
X147860200Y-147218600I0J140900D01*
G01*
X147860200Y-146538600D01*
G75*
G02*
X148001100Y-146397700I140900J0D01*
G01*
G37*
G36*
G01*
X147501100Y-146397700D02*
X147501100Y-146397700D01*
G75*
G02*
X147642000Y-146538600I0J-140900D01*
G01*
X147642000Y-147218600D01*
G75*
G02*
X147501100Y-147359500I-140900J0D01*
G01*
X147501100Y-147359500D01*
G75*
G02*
X147360200Y-147218600I0J140900D01*
G01*
X147360200Y-146538600D01*
G75*
G02*
X147501100Y-146397700I140900J0D01*
G01*
G37*
G36*
G01*
X147107000Y-146003600D02*
X147107000Y-146003600D01*
G75*
G02*
X146966100Y-146144500I-140900J0D01*
G01*
X146286100Y-146144500D01*
G75*
G02*
X146145200Y-146003600I0J140900D01*
G01*
X146145200Y-146003600D01*
G75*
G02*
X146286100Y-145862700I140900J0D01*
G01*
X146966100Y-145862700D01*
G75*
G02*
X147107000Y-146003600I0J-140900D01*
G01*
G37*
G36*
G01*
X147107000Y-145503600D02*
X147107000Y-145503600D01*
G75*
G02*
X146966100Y-145644500I-140900J0D01*
G01*
X146286100Y-145644500D01*
G75*
G02*
X146145200Y-145503600I0J140900D01*
G01*
X146145200Y-145503600D01*
G75*
G02*
X146286100Y-145362700I140900J0D01*
G01*
X146966100Y-145362700D01*
G75*
G02*
X147107000Y-145503600I0J-140900D01*
G01*
G37*
G36*
G01*
X147107000Y-145003600D02*
X147107000Y-145003600D01*
G75*
G02*
X146966100Y-145144500I-140900J0D01*
G01*
X146286100Y-145144500D01*
G75*
G02*
X146145200Y-145003600I0J140900D01*
G01*
X146145200Y-145003600D01*
G75*
G02*
X146286100Y-144862700I140900J0D01*
G01*
X146966100Y-144862700D01*
G75*
G02*
X147107000Y-145003600I0J-140900D01*
G01*
G37*
G36*
G01*
X147107000Y-144503600D02*
X147107000Y-144503600D01*
G75*
G02*
X146966100Y-144644500I-140900J0D01*
G01*
X146286100Y-144644500D01*
G75*
G02*
X146145200Y-144503600I0J140900D01*
G01*
X146145200Y-144503600D01*
G75*
G02*
X146286100Y-144362700I140900J0D01*
G01*
X146966100Y-144362700D01*
G75*
G02*
X147107000Y-144503600I0J-140900D01*
G01*
G37*
G36*
G01*
X147107000Y-144003600D02*
X147107000Y-144003600D01*
G75*
G02*
X146966100Y-144144500I-140900J0D01*
G01*
X146286100Y-144144500D01*
G75*
G02*
X146145200Y-144003600I0J140900D01*
G01*
X146145200Y-144003600D01*
G75*
G02*
X146286100Y-143862700I140900J0D01*
G01*
X146966100Y-143862700D01*
G75*
G02*
X147107000Y-144003600I0J-140900D01*
G01*
G37*
G36*
G01*
X147501100Y-142647700D02*
X147501100Y-142647700D01*
G75*
G02*
X147642000Y-142788600I0J-140900D01*
G01*
X147642000Y-143468600D01*
G75*
G02*
X147501100Y-143609500I-140900J0D01*
G01*
X147501100Y-143609500D01*
G75*
G02*
X147360200Y-143468600I0J140900D01*
G01*
X147360200Y-142788600D01*
G75*
G02*
X147501100Y-142647700I140900J0D01*
G01*
G37*
G36*
G01*
X148001100Y-142647700D02*
X148001100Y-142647700D01*
G75*
G02*
X148142000Y-142788600I0J-140900D01*
G01*
X148142000Y-143468600D01*
G75*
G02*
X148001100Y-143609500I-140900J0D01*
G01*
X148001100Y-143609500D01*
G75*
G02*
X147860200Y-143468600I0J140900D01*
G01*
X147860200Y-142788600D01*
G75*
G02*
X148001100Y-142647700I140900J0D01*
G01*
G37*
G36*
G01*
X148501100Y-142647700D02*
X148501100Y-142647700D01*
G75*
G02*
X148642000Y-142788600I0J-140900D01*
G01*
X148642000Y-143468600D01*
G75*
G02*
X148501100Y-143609500I-140900J0D01*
G01*
X148501100Y-143609500D01*
G75*
G02*
X148360200Y-143468600I0J140900D01*
G01*
X148360200Y-142788600D01*
G75*
G02*
X148501100Y-142647700I140900J0D01*
G01*
G37*
G36*
G01*
X149001100Y-142647700D02*
X149001100Y-142647700D01*
G75*
G02*
X149142000Y-142788600I0J-140900D01*
G01*
X149142000Y-143468600D01*
G75*
G02*
X149001100Y-143609500I-140900J0D01*
G01*
X149001100Y-143609500D01*
G75*
G02*
X148860200Y-143468600I0J140900D01*
G01*
X148860200Y-142788600D01*
G75*
G02*
X149001100Y-142647700I140900J0D01*
G01*
G37*
G36*
G01*
X149501100Y-142647700D02*
X149501100Y-142647700D01*
G75*
G02*
X149642000Y-142788600I0J-140900D01*
G01*
X149642000Y-143468600D01*
G75*
G02*
X149501100Y-143609500I-140900J0D01*
G01*
X149501100Y-143609500D01*
G75*
G02*
X149360200Y-143468600I0J140900D01*
G01*
X149360200Y-142788600D01*
G75*
G02*
X149501100Y-142647700I140900J0D01*
G01*
G37*
G36*
G01*
X150857000Y-144003600D02*
X150857000Y-144003600D01*
G75*
G02*
X150716100Y-144144500I-140900J0D01*
G01*
X150036100Y-144144500D01*
G75*
G02*
X149895200Y-144003600I0J140900D01*
G01*
X149895200Y-144003600D01*
G75*
G02*
X150036100Y-143862700I140900J0D01*
G01*
X150716100Y-143862700D01*
G75*
G02*
X150857000Y-144003600I0J-140900D01*
G01*
G37*
G36*
G01*
X150857000Y-144503600D02*
X150857000Y-144503600D01*
G75*
G02*
X150716100Y-144644500I-140900J0D01*
G01*
X150036100Y-144644500D01*
G75*
G02*
X149895200Y-144503600I0J140900D01*
G01*
X149895200Y-144503600D01*
G75*
G02*
X150036100Y-144362700I140900J0D01*
G01*
X150716100Y-144362700D01*
G75*
G02*
X150857000Y-144503600I0J-140900D01*
G01*
G37*
G36*
G01*
X150857000Y-145003600D02*
X150857000Y-145003600D01*
G75*
G02*
X150716100Y-145144500I-140900J0D01*
G01*
X150036100Y-145144500D01*
G75*
G02*
X149895200Y-145003600I0J140900D01*
G01*
X149895200Y-145003600D01*
G75*
G02*
X150036100Y-144862700I140900J0D01*
G01*
X150716100Y-144862700D01*
G75*
G02*
X150857000Y-145003600I0J-140900D01*
G01*
G37*
G36*
G01*
X150857000Y-145503600D02*
X150857000Y-145503600D01*
G75*
G02*
X150716100Y-145644500I-140900J0D01*
G01*
X150036100Y-145644500D01*
G75*
G02*
X149895200Y-145503600I0J140900D01*
G01*
X149895200Y-145503600D01*
G75*
G02*
X150036100Y-145362700I140900J0D01*
G01*
X150716100Y-145362700D01*
G75*
G02*
X150857000Y-145503600I0J-140900D01*
G01*
G37*
G36*
G01*
X150857000Y-146003600D02*
X150857000Y-146003600D01*
G75*
G02*
X150716100Y-146144500I-140900J0D01*
G01*
X150036100Y-146144500D01*
G75*
G02*
X149895200Y-146003600I0J140900D01*
G01*
X149895200Y-146003600D01*
G75*
G02*
X150036100Y-145862700I140900J0D01*
G01*
X150716100Y-145862700D01*
G75*
G02*
X150857000Y-146003600I0J-140900D01*
G01*
G37*
D17*
G36*
X117501100Y-145460240D02*
G01*
X116044460Y-144003600D01*
X117501100Y-142546960D01*
X118957740Y-144003600D01*
X117501100Y-145460240D01*
G37*
G36*
G01*
X115808215Y-143724929D02*
X115808215Y-143724929D01*
G75*
G02*
X115608953Y-143724929I-99631J99631D01*
G01*
X115128121Y-143244097D01*
G75*
G02*
X115128121Y-143044835I99631J99631D01*
G01*
X115128121Y-143044835D01*
G75*
G02*
X115327383Y-143044835I99631J-99631D01*
G01*
X115808215Y-143525667D01*
G75*
G02*
X115808215Y-143724929I-99631J-99631D01*
G01*
G37*
G36*
G01*
X116161768Y-143371375D02*
X116161768Y-143371375D01*
G75*
G02*
X115962506Y-143371375I-99631J99631D01*
G01*
X115481674Y-142890543D01*
G75*
G02*
X115481674Y-142691281I99631J99631D01*
G01*
X115481674Y-142691281D01*
G75*
G02*
X115680936Y-142691281I99631J-99631D01*
G01*
X116161768Y-143172113D01*
G75*
G02*
X116161768Y-143371375I-99631J-99631D01*
G01*
G37*
G36*
G01*
X116515322Y-143017822D02*
X116515322Y-143017822D01*
G75*
G02*
X116316060Y-143017822I-99631J99631D01*
G01*
X115835228Y-142536990D01*
G75*
G02*
X115835228Y-142337728I99631J99631D01*
G01*
X115835228Y-142337728D01*
G75*
G02*
X116034490Y-142337728I99631J-99631D01*
G01*
X116515322Y-142818560D01*
G75*
G02*
X116515322Y-143017822I-99631J-99631D01*
G01*
G37*
G36*
G01*
X116868875Y-142664268D02*
X116868875Y-142664268D01*
G75*
G02*
X116669613Y-142664268I-99631J99631D01*
G01*
X116188781Y-142183436D01*
G75*
G02*
X116188781Y-141984174I99631J99631D01*
G01*
X116188781Y-141984174D01*
G75*
G02*
X116388043Y-141984174I99631J-99631D01*
G01*
X116868875Y-142465006D01*
G75*
G02*
X116868875Y-142664268I-99631J-99631D01*
G01*
G37*
G36*
G01*
X117222429Y-142310715D02*
X117222429Y-142310715D01*
G75*
G02*
X117023167Y-142310715I-99631J99631D01*
G01*
X116542335Y-141829883D01*
G75*
G02*
X116542335Y-141630621I99631J99631D01*
G01*
X116542335Y-141630621D01*
G75*
G02*
X116741597Y-141630621I99631J-99631D01*
G01*
X117222429Y-142111453D01*
G75*
G02*
X117222429Y-142310715I-99631J-99631D01*
G01*
G37*
G36*
G01*
X117779771Y-142310715D02*
X117779771Y-142310715D01*
G75*
G02*
X117779771Y-142111453I99631J99631D01*
G01*
X118260603Y-141630621D01*
G75*
G02*
X118459865Y-141630621I99631J-99631D01*
G01*
X118459865Y-141630621D01*
G75*
G02*
X118459865Y-141829883I-99631J-99631D01*
G01*
X117979033Y-142310715D01*
G75*
G02*
X117779771Y-142310715I-99631J99631D01*
G01*
G37*
G36*
G01*
X118133325Y-142664268D02*
X118133325Y-142664268D01*
G75*
G02*
X118133325Y-142465006I99631J99631D01*
G01*
X118614157Y-141984174D01*
G75*
G02*
X118813419Y-141984174I99631J-99631D01*
G01*
X118813419Y-141984174D01*
G75*
G02*
X118813419Y-142183436I-99631J-99631D01*
G01*
X118332587Y-142664268D01*
G75*
G02*
X118133325Y-142664268I-99631J99631D01*
G01*
G37*
G36*
G01*
X118486878Y-143017822D02*
X118486878Y-143017822D01*
G75*
G02*
X118486878Y-142818560I99631J99631D01*
G01*
X118967710Y-142337728D01*
G75*
G02*
X119166972Y-142337728I99631J-99631D01*
G01*
X119166972Y-142337728D01*
G75*
G02*
X119166972Y-142536990I-99631J-99631D01*
G01*
X118686140Y-143017822D01*
G75*
G02*
X118486878Y-143017822I-99631J99631D01*
G01*
G37*
G36*
G01*
X118840432Y-143371375D02*
X118840432Y-143371375D01*
G75*
G02*
X118840432Y-143172113I99631J99631D01*
G01*
X119321264Y-142691281D01*
G75*
G02*
X119520526Y-142691281I99631J-99631D01*
G01*
X119520526Y-142691281D01*
G75*
G02*
X119520526Y-142890543I-99631J-99631D01*
G01*
X119039694Y-143371375D01*
G75*
G02*
X118840432Y-143371375I-99631J99631D01*
G01*
G37*
G36*
G01*
X119193985Y-143724929D02*
X119193985Y-143724929D01*
G75*
G02*
X119193985Y-143525667I99631J99631D01*
G01*
X119674817Y-143044835D01*
G75*
G02*
X119874079Y-143044835I99631J-99631D01*
G01*
X119874079Y-143044835D01*
G75*
G02*
X119874079Y-143244097I-99631J-99631D01*
G01*
X119393247Y-143724929D01*
G75*
G02*
X119193985Y-143724929I-99631J99631D01*
G01*
G37*
G36*
G01*
X119874079Y-144962365D02*
X119874079Y-144962365D01*
G75*
G02*
X119674817Y-144962365I-99631J99631D01*
G01*
X119193985Y-144481533D01*
G75*
G02*
X119193985Y-144282271I99631J99631D01*
G01*
X119193985Y-144282271D01*
G75*
G02*
X119393247Y-144282271I99631J-99631D01*
G01*
X119874079Y-144763103D01*
G75*
G02*
X119874079Y-144962365I-99631J-99631D01*
G01*
G37*
G36*
G01*
X119520526Y-145315919D02*
X119520526Y-145315919D01*
G75*
G02*
X119321264Y-145315919I-99631J99631D01*
G01*
X118840432Y-144835087D01*
G75*
G02*
X118840432Y-144635825I99631J99631D01*
G01*
X118840432Y-144635825D01*
G75*
G02*
X119039694Y-144635825I99631J-99631D01*
G01*
X119520526Y-145116657D01*
G75*
G02*
X119520526Y-145315919I-99631J-99631D01*
G01*
G37*
G36*
G01*
X119166972Y-145669472D02*
X119166972Y-145669472D01*
G75*
G02*
X118967710Y-145669472I-99631J99631D01*
G01*
X118486878Y-145188640D01*
G75*
G02*
X118486878Y-144989378I99631J99631D01*
G01*
X118486878Y-144989378D01*
G75*
G02*
X118686140Y-144989378I99631J-99631D01*
G01*
X119166972Y-145470210D01*
G75*
G02*
X119166972Y-145669472I-99631J-99631D01*
G01*
G37*
G36*
G01*
X118813419Y-146023026D02*
X118813419Y-146023026D01*
G75*
G02*
X118614157Y-146023026I-99631J99631D01*
G01*
X118133325Y-145542194D01*
G75*
G02*
X118133325Y-145342932I99631J99631D01*
G01*
X118133325Y-145342932D01*
G75*
G02*
X118332587Y-145342932I99631J-99631D01*
G01*
X118813419Y-145823764D01*
G75*
G02*
X118813419Y-146023026I-99631J-99631D01*
G01*
G37*
G36*
G01*
X118459865Y-146376579D02*
X118459865Y-146376579D01*
G75*
G02*
X118260603Y-146376579I-99631J99631D01*
G01*
X117779771Y-145895747D01*
G75*
G02*
X117779771Y-145696485I99631J99631D01*
G01*
X117779771Y-145696485D01*
G75*
G02*
X117979033Y-145696485I99631J-99631D01*
G01*
X118459865Y-146177317D01*
G75*
G02*
X118459865Y-146376579I-99631J-99631D01*
G01*
G37*
G36*
G01*
X116542335Y-146376579D02*
X116542335Y-146376579D01*
G75*
G02*
X116542335Y-146177317I99631J99631D01*
G01*
X117023167Y-145696485D01*
G75*
G02*
X117222429Y-145696485I99631J-99631D01*
G01*
X117222429Y-145696485D01*
G75*
G02*
X117222429Y-145895747I-99631J-99631D01*
G01*
X116741597Y-146376579D01*
G75*
G02*
X116542335Y-146376579I-99631J99631D01*
G01*
G37*
G36*
G01*
X116188781Y-146023026D02*
X116188781Y-146023026D01*
G75*
G02*
X116188781Y-145823764I99631J99631D01*
G01*
X116669613Y-145342932D01*
G75*
G02*
X116868875Y-145342932I99631J-99631D01*
G01*
X116868875Y-145342932D01*
G75*
G02*
X116868875Y-145542194I-99631J-99631D01*
G01*
X116388043Y-146023026D01*
G75*
G02*
X116188781Y-146023026I-99631J99631D01*
G01*
G37*
G36*
G01*
X115835228Y-145669472D02*
X115835228Y-145669472D01*
G75*
G02*
X115835228Y-145470210I99631J99631D01*
G01*
X116316060Y-144989378D01*
G75*
G02*
X116515322Y-144989378I99631J-99631D01*
G01*
X116515322Y-144989378D01*
G75*
G02*
X116515322Y-145188640I-99631J-99631D01*
G01*
X116034490Y-145669472D01*
G75*
G02*
X115835228Y-145669472I-99631J99631D01*
G01*
G37*
G36*
G01*
X115481674Y-145315919D02*
X115481674Y-145315919D01*
G75*
G02*
X115481674Y-145116657I99631J99631D01*
G01*
X115962506Y-144635825D01*
G75*
G02*
X116161768Y-144635825I99631J-99631D01*
G01*
X116161768Y-144635825D01*
G75*
G02*
X116161768Y-144835087I-99631J-99631D01*
G01*
X115680936Y-145315919D01*
G75*
G02*
X115481674Y-145315919I-99631J99631D01*
G01*
G37*
G36*
G01*
X115128121Y-144962365D02*
X115128121Y-144962365D01*
G75*
G02*
X115128121Y-144763103I99631J99631D01*
G01*
X115608953Y-144282271D01*
G75*
G02*
X115808215Y-144282271I99631J-99631D01*
G01*
X115808215Y-144282271D01*
G75*
G02*
X115808215Y-144481533I-99631J-99631D01*
G01*
X115327383Y-144962365D01*
G75*
G02*
X115128121Y-144962365I-99631J99631D01*
G01*
G37*
G36*
X176501100Y-145460240D02*
G01*
X175044460Y-144003600D01*
X176501100Y-142546960D01*
X177957740Y-144003600D01*
X176501100Y-145460240D01*
G37*
G36*
G01*
X174808215Y-143724929D02*
X174808215Y-143724929D01*
G75*
G02*
X174608953Y-143724929I-99631J99631D01*
G01*
X174128121Y-143244097D01*
G75*
G02*
X174128121Y-143044835I99631J99631D01*
G01*
X174128121Y-143044835D01*
G75*
G02*
X174327383Y-143044835I99631J-99631D01*
G01*
X174808215Y-143525667D01*
G75*
G02*
X174808215Y-143724929I-99631J-99631D01*
G01*
G37*
G36*
G01*
X175161768Y-143371375D02*
X175161768Y-143371375D01*
G75*
G02*
X174962506Y-143371375I-99631J99631D01*
G01*
X174481674Y-142890543D01*
G75*
G02*
X174481674Y-142691281I99631J99631D01*
G01*
X174481674Y-142691281D01*
G75*
G02*
X174680936Y-142691281I99631J-99631D01*
G01*
X175161768Y-143172113D01*
G75*
G02*
X175161768Y-143371375I-99631J-99631D01*
G01*
G37*
G36*
G01*
X175515322Y-143017822D02*
X175515322Y-143017822D01*
G75*
G02*
X175316060Y-143017822I-99631J99631D01*
G01*
X174835228Y-142536990D01*
G75*
G02*
X174835228Y-142337728I99631J99631D01*
G01*
X174835228Y-142337728D01*
G75*
G02*
X175034490Y-142337728I99631J-99631D01*
G01*
X175515322Y-142818560D01*
G75*
G02*
X175515322Y-143017822I-99631J-99631D01*
G01*
G37*
G36*
G01*
X175868875Y-142664268D02*
X175868875Y-142664268D01*
G75*
G02*
X175669613Y-142664268I-99631J99631D01*
G01*
X175188781Y-142183436D01*
G75*
G02*
X175188781Y-141984174I99631J99631D01*
G01*
X175188781Y-141984174D01*
G75*
G02*
X175388043Y-141984174I99631J-99631D01*
G01*
X175868875Y-142465006D01*
G75*
G02*
X175868875Y-142664268I-99631J-99631D01*
G01*
G37*
G36*
G01*
X176222429Y-142310715D02*
X176222429Y-142310715D01*
G75*
G02*
X176023167Y-142310715I-99631J99631D01*
G01*
X175542335Y-141829883D01*
G75*
G02*
X175542335Y-141630621I99631J99631D01*
G01*
X175542335Y-141630621D01*
G75*
G02*
X175741597Y-141630621I99631J-99631D01*
G01*
X176222429Y-142111453D01*
G75*
G02*
X176222429Y-142310715I-99631J-99631D01*
G01*
G37*
G36*
G01*
X176779771Y-142310715D02*
X176779771Y-142310715D01*
G75*
G02*
X176779771Y-142111453I99631J99631D01*
G01*
X177260603Y-141630621D01*
G75*
G02*
X177459865Y-141630621I99631J-99631D01*
G01*
X177459865Y-141630621D01*
G75*
G02*
X177459865Y-141829883I-99631J-99631D01*
G01*
X176979033Y-142310715D01*
G75*
G02*
X176779771Y-142310715I-99631J99631D01*
G01*
G37*
G36*
G01*
X177133325Y-142664268D02*
X177133325Y-142664268D01*
G75*
G02*
X177133325Y-142465006I99631J99631D01*
G01*
X177614157Y-141984174D01*
G75*
G02*
X177813419Y-141984174I99631J-99631D01*
G01*
X177813419Y-141984174D01*
G75*
G02*
X177813419Y-142183436I-99631J-99631D01*
G01*
X177332587Y-142664268D01*
G75*
G02*
X177133325Y-142664268I-99631J99631D01*
G01*
G37*
G36*
G01*
X177486878Y-143017822D02*
X177486878Y-143017822D01*
G75*
G02*
X177486878Y-142818560I99631J99631D01*
G01*
X177967710Y-142337728D01*
G75*
G02*
X178166972Y-142337728I99631J-99631D01*
G01*
X178166972Y-142337728D01*
G75*
G02*
X178166972Y-142536990I-99631J-99631D01*
G01*
X177686140Y-143017822D01*
G75*
G02*
X177486878Y-143017822I-99631J99631D01*
G01*
G37*
G36*
G01*
X177840432Y-143371375D02*
X177840432Y-143371375D01*
G75*
G02*
X177840432Y-143172113I99631J99631D01*
G01*
X178321264Y-142691281D01*
G75*
G02*
X178520526Y-142691281I99631J-99631D01*
G01*
X178520526Y-142691281D01*
G75*
G02*
X178520526Y-142890543I-99631J-99631D01*
G01*
X178039694Y-143371375D01*
G75*
G02*
X177840432Y-143371375I-99631J99631D01*
G01*
G37*
G36*
G01*
X178193985Y-143724929D02*
X178193985Y-143724929D01*
G75*
G02*
X178193985Y-143525667I99631J99631D01*
G01*
X178674817Y-143044835D01*
G75*
G02*
X178874079Y-143044835I99631J-99631D01*
G01*
X178874079Y-143044835D01*
G75*
G02*
X178874079Y-143244097I-99631J-99631D01*
G01*
X178393247Y-143724929D01*
G75*
G02*
X178193985Y-143724929I-99631J99631D01*
G01*
G37*
G36*
G01*
X178874079Y-144962365D02*
X178874079Y-144962365D01*
G75*
G02*
X178674817Y-144962365I-99631J99631D01*
G01*
X178193985Y-144481533D01*
G75*
G02*
X178193985Y-144282271I99631J99631D01*
G01*
X178193985Y-144282271D01*
G75*
G02*
X178393247Y-144282271I99631J-99631D01*
G01*
X178874079Y-144763103D01*
G75*
G02*
X178874079Y-144962365I-99631J-99631D01*
G01*
G37*
G36*
G01*
X178520526Y-145315919D02*
X178520526Y-145315919D01*
G75*
G02*
X178321264Y-145315919I-99631J99631D01*
G01*
X177840432Y-144835087D01*
G75*
G02*
X177840432Y-144635825I99631J99631D01*
G01*
X177840432Y-144635825D01*
G75*
G02*
X178039694Y-144635825I99631J-99631D01*
G01*
X178520526Y-145116657D01*
G75*
G02*
X178520526Y-145315919I-99631J-99631D01*
G01*
G37*
G36*
G01*
X178166972Y-145669472D02*
X178166972Y-145669472D01*
G75*
G02*
X177967710Y-145669472I-99631J99631D01*
G01*
X177486878Y-145188640D01*
G75*
G02*
X177486878Y-144989378I99631J99631D01*
G01*
X177486878Y-144989378D01*
G75*
G02*
X177686140Y-144989378I99631J-99631D01*
G01*
X178166972Y-145470210D01*
G75*
G02*
X178166972Y-145669472I-99631J-99631D01*
G01*
G37*
G36*
G01*
X177813419Y-146023026D02*
X177813419Y-146023026D01*
G75*
G02*
X177614157Y-146023026I-99631J99631D01*
G01*
X177133325Y-145542194D01*
G75*
G02*
X177133325Y-145342932I99631J99631D01*
G01*
X177133325Y-145342932D01*
G75*
G02*
X177332587Y-145342932I99631J-99631D01*
G01*
X177813419Y-145823764D01*
G75*
G02*
X177813419Y-146023026I-99631J-99631D01*
G01*
G37*
G36*
G01*
X177459865Y-146376579D02*
X177459865Y-146376579D01*
G75*
G02*
X177260603Y-146376579I-99631J99631D01*
G01*
X176779771Y-145895747D01*
G75*
G02*
X176779771Y-145696485I99631J99631D01*
G01*
X176779771Y-145696485D01*
G75*
G02*
X176979033Y-145696485I99631J-99631D01*
G01*
X177459865Y-146177317D01*
G75*
G02*
X177459865Y-146376579I-99631J-99631D01*
G01*
G37*
G36*
G01*
X175542335Y-146376579D02*
X175542335Y-146376579D01*
G75*
G02*
X175542335Y-146177317I99631J99631D01*
G01*
X176023167Y-145696485D01*
G75*
G02*
X176222429Y-145696485I99631J-99631D01*
G01*
X176222429Y-145696485D01*
G75*
G02*
X176222429Y-145895747I-99631J-99631D01*
G01*
X175741597Y-146376579D01*
G75*
G02*
X175542335Y-146376579I-99631J99631D01*
G01*
G37*
G36*
G01*
X175188781Y-146023026D02*
X175188781Y-146023026D01*
G75*
G02*
X175188781Y-145823764I99631J99631D01*
G01*
X175669613Y-145342932D01*
G75*
G02*
X175868875Y-145342932I99631J-99631D01*
G01*
X175868875Y-145342932D01*
G75*
G02*
X175868875Y-145542194I-99631J-99631D01*
G01*
X175388043Y-146023026D01*
G75*
G02*
X175188781Y-146023026I-99631J99631D01*
G01*
G37*
G36*
G01*
X174835228Y-145669472D02*
X174835228Y-145669472D01*
G75*
G02*
X174835228Y-145470210I99631J99631D01*
G01*
X175316060Y-144989378D01*
G75*
G02*
X175515322Y-144989378I99631J-99631D01*
G01*
X175515322Y-144989378D01*
G75*
G02*
X175515322Y-145188640I-99631J-99631D01*
G01*
X175034490Y-145669472D01*
G75*
G02*
X174835228Y-145669472I-99631J99631D01*
G01*
G37*
G36*
G01*
X174481674Y-145315919D02*
X174481674Y-145315919D01*
G75*
G02*
X174481674Y-145116657I99631J99631D01*
G01*
X174962506Y-144635825D01*
G75*
G02*
X175161768Y-144635825I99631J-99631D01*
G01*
X175161768Y-144635825D01*
G75*
G02*
X175161768Y-144835087I-99631J-99631D01*
G01*
X174680936Y-145315919D01*
G75*
G02*
X174481674Y-145315919I-99631J99631D01*
G01*
G37*
G36*
G01*
X174128121Y-144962365D02*
X174128121Y-144962365D01*
G75*
G02*
X174128121Y-144763103I99631J99631D01*
G01*
X174608953Y-144282271D01*
G75*
G02*
X174808215Y-144282271I99631J-99631D01*
G01*
X174808215Y-144282271D01*
G75*
G02*
X174808215Y-144481533I-99631J-99631D01*
G01*
X174327383Y-144962365D01*
G75*
G02*
X174128121Y-144962365I-99631J99631D01*
G01*
G37*
D12*
X182601100Y-128863600D03*
X182601100Y-127743600D03*
X182601100Y-125343600D03*
X182601100Y-126463600D03*
D40*
X100001100Y-131403600D03*
G36*
G01*
X98751100Y-129899000D02*
X98751100Y-129899000D01*
G75*
G02*
X98619100Y-129767000I0J132000D01*
G01*
X98619100Y-129171000D01*
G75*
G02*
X98751100Y-129039000I132000J0D01*
G01*
X98751100Y-129039000D01*
G75*
G02*
X98883100Y-129171000I0J-132000D01*
G01*
X98883100Y-129767000D01*
G75*
G02*
X98751100Y-129899000I-132000J0D01*
G01*
G37*
G36*
G01*
X99251100Y-129899000D02*
X99251100Y-129899000D01*
G75*
G02*
X99119100Y-129767000I0J132000D01*
G01*
X99119100Y-129171000D01*
G75*
G02*
X99251100Y-129039000I132000J0D01*
G01*
X99251100Y-129039000D01*
G75*
G02*
X99383100Y-129171000I0J-132000D01*
G01*
X99383100Y-129767000D01*
G75*
G02*
X99251100Y-129899000I-132000J0D01*
G01*
G37*
G36*
G01*
X99751100Y-129899000D02*
X99751100Y-129899000D01*
G75*
G02*
X99619100Y-129767000I0J132000D01*
G01*
X99619100Y-129171000D01*
G75*
G02*
X99751100Y-129039000I132000J0D01*
G01*
X99751100Y-129039000D01*
G75*
G02*
X99883100Y-129171000I0J-132000D01*
G01*
X99883100Y-129767000D01*
G75*
G02*
X99751100Y-129899000I-132000J0D01*
G01*
G37*
G36*
G01*
X100251100Y-129899000D02*
X100251100Y-129899000D01*
G75*
G02*
X100119100Y-129767000I0J132000D01*
G01*
X100119100Y-129171000D01*
G75*
G02*
X100251100Y-129039000I132000J0D01*
G01*
X100251100Y-129039000D01*
G75*
G02*
X100383100Y-129171000I0J-132000D01*
G01*
X100383100Y-129767000D01*
G75*
G02*
X100251100Y-129899000I-132000J0D01*
G01*
G37*
G36*
G01*
X100751100Y-129899000D02*
X100751100Y-129899000D01*
G75*
G02*
X100619100Y-129767000I0J132000D01*
G01*
X100619100Y-129171000D01*
G75*
G02*
X100751100Y-129039000I132000J0D01*
G01*
X100751100Y-129039000D01*
G75*
G02*
X100883100Y-129171000I0J-132000D01*
G01*
X100883100Y-129767000D01*
G75*
G02*
X100751100Y-129899000I-132000J0D01*
G01*
G37*
G36*
G01*
X101251100Y-129899000D02*
X101251100Y-129899000D01*
G75*
G02*
X101119100Y-129767000I0J132000D01*
G01*
X101119100Y-129171000D01*
G75*
G02*
X101251100Y-129039000I132000J0D01*
G01*
X101251100Y-129039000D01*
G75*
G02*
X101383100Y-129171000I0J-132000D01*
G01*
X101383100Y-129767000D01*
G75*
G02*
X101251100Y-129899000I-132000J0D01*
G01*
G37*
G36*
G01*
X101505700Y-130153600D02*
X101505700Y-130153600D01*
G75*
G02*
X101637700Y-130021600I132000J0D01*
G01*
X102233700Y-130021600D01*
G75*
G02*
X102365700Y-130153600I0J-132000D01*
G01*
X102365700Y-130153600D01*
G75*
G02*
X102233700Y-130285600I-132000J0D01*
G01*
X101637700Y-130285600D01*
G75*
G02*
X101505700Y-130153600I0J132000D01*
G01*
G37*
G36*
G01*
X101505700Y-130653600D02*
X101505700Y-130653600D01*
G75*
G02*
X101637700Y-130521600I132000J0D01*
G01*
X102233700Y-130521600D01*
G75*
G02*
X102365700Y-130653600I0J-132000D01*
G01*
X102365700Y-130653600D01*
G75*
G02*
X102233700Y-130785600I-132000J0D01*
G01*
X101637700Y-130785600D01*
G75*
G02*
X101505700Y-130653600I0J132000D01*
G01*
G37*
G36*
G01*
X101505700Y-131153600D02*
X101505700Y-131153600D01*
G75*
G02*
X101637700Y-131021600I132000J0D01*
G01*
X102233700Y-131021600D01*
G75*
G02*
X102365700Y-131153600I0J-132000D01*
G01*
X102365700Y-131153600D01*
G75*
G02*
X102233700Y-131285600I-132000J0D01*
G01*
X101637700Y-131285600D01*
G75*
G02*
X101505700Y-131153600I0J132000D01*
G01*
G37*
G36*
G01*
X101505700Y-131653600D02*
X101505700Y-131653600D01*
G75*
G02*
X101637700Y-131521600I132000J0D01*
G01*
X102233700Y-131521600D01*
G75*
G02*
X102365700Y-131653600I0J-132000D01*
G01*
X102365700Y-131653600D01*
G75*
G02*
X102233700Y-131785600I-132000J0D01*
G01*
X101637700Y-131785600D01*
G75*
G02*
X101505700Y-131653600I0J132000D01*
G01*
G37*
G36*
G01*
X101505700Y-132153600D02*
X101505700Y-132153600D01*
G75*
G02*
X101637700Y-132021600I132000J0D01*
G01*
X102233700Y-132021600D01*
G75*
G02*
X102365700Y-132153600I0J-132000D01*
G01*
X102365700Y-132153600D01*
G75*
G02*
X102233700Y-132285600I-132000J0D01*
G01*
X101637700Y-132285600D01*
G75*
G02*
X101505700Y-132153600I0J132000D01*
G01*
G37*
G36*
G01*
X101505700Y-132653600D02*
X101505700Y-132653600D01*
G75*
G02*
X101637700Y-132521600I132000J0D01*
G01*
X102233700Y-132521600D01*
G75*
G02*
X102365700Y-132653600I0J-132000D01*
G01*
X102365700Y-132653600D01*
G75*
G02*
X102233700Y-132785600I-132000J0D01*
G01*
X101637700Y-132785600D01*
G75*
G02*
X101505700Y-132653600I0J132000D01*
G01*
G37*
G36*
G01*
X101251100Y-133768200D02*
X101251100Y-133768200D01*
G75*
G02*
X101119100Y-133636200I0J132000D01*
G01*
X101119100Y-133040200D01*
G75*
G02*
X101251100Y-132908200I132000J0D01*
G01*
X101251100Y-132908200D01*
G75*
G02*
X101383100Y-133040200I0J-132000D01*
G01*
X101383100Y-133636200D01*
G75*
G02*
X101251100Y-133768200I-132000J0D01*
G01*
G37*
G36*
G01*
X100751100Y-133768200D02*
X100751100Y-133768200D01*
G75*
G02*
X100619100Y-133636200I0J132000D01*
G01*
X100619100Y-133040200D01*
G75*
G02*
X100751100Y-132908200I132000J0D01*
G01*
X100751100Y-132908200D01*
G75*
G02*
X100883100Y-133040200I0J-132000D01*
G01*
X100883100Y-133636200D01*
G75*
G02*
X100751100Y-133768200I-132000J0D01*
G01*
G37*
G36*
G01*
X100251100Y-133768200D02*
X100251100Y-133768200D01*
G75*
G02*
X100119100Y-133636200I0J132000D01*
G01*
X100119100Y-133040200D01*
G75*
G02*
X100251100Y-132908200I132000J0D01*
G01*
X100251100Y-132908200D01*
G75*
G02*
X100383100Y-133040200I0J-132000D01*
G01*
X100383100Y-133636200D01*
G75*
G02*
X100251100Y-133768200I-132000J0D01*
G01*
G37*
G36*
G01*
X99751100Y-133768200D02*
X99751100Y-133768200D01*
G75*
G02*
X99619100Y-133636200I0J132000D01*
G01*
X99619100Y-133040200D01*
G75*
G02*
X99751100Y-132908200I132000J0D01*
G01*
X99751100Y-132908200D01*
G75*
G02*
X99883100Y-133040200I0J-132000D01*
G01*
X99883100Y-133636200D01*
G75*
G02*
X99751100Y-133768200I-132000J0D01*
G01*
G37*
G36*
G01*
X99251100Y-133768200D02*
X99251100Y-133768200D01*
G75*
G02*
X99119100Y-133636200I0J132000D01*
G01*
X99119100Y-133040200D01*
G75*
G02*
X99251100Y-132908200I132000J0D01*
G01*
X99251100Y-132908200D01*
G75*
G02*
X99383100Y-133040200I0J-132000D01*
G01*
X99383100Y-133636200D01*
G75*
G02*
X99251100Y-133768200I-132000J0D01*
G01*
G37*
G36*
G01*
X98751100Y-133768200D02*
X98751100Y-133768200D01*
G75*
G02*
X98619100Y-133636200I0J132000D01*
G01*
X98619100Y-133040200D01*
G75*
G02*
X98751100Y-132908200I132000J0D01*
G01*
X98751100Y-132908200D01*
G75*
G02*
X98883100Y-133040200I0J-132000D01*
G01*
X98883100Y-133636200D01*
G75*
G02*
X98751100Y-133768200I-132000J0D01*
G01*
G37*
G36*
G01*
X97636500Y-132653600D02*
X97636500Y-132653600D01*
G75*
G02*
X97768500Y-132521600I132000J0D01*
G01*
X98364500Y-132521600D01*
G75*
G02*
X98496500Y-132653600I0J-132000D01*
G01*
X98496500Y-132653600D01*
G75*
G02*
X98364500Y-132785600I-132000J0D01*
G01*
X97768500Y-132785600D01*
G75*
G02*
X97636500Y-132653600I0J132000D01*
G01*
G37*
G36*
G01*
X97636500Y-132153600D02*
X97636500Y-132153600D01*
G75*
G02*
X97768500Y-132021600I132000J0D01*
G01*
X98364500Y-132021600D01*
G75*
G02*
X98496500Y-132153600I0J-132000D01*
G01*
X98496500Y-132153600D01*
G75*
G02*
X98364500Y-132285600I-132000J0D01*
G01*
X97768500Y-132285600D01*
G75*
G02*
X97636500Y-132153600I0J132000D01*
G01*
G37*
G36*
G01*
X97636500Y-131653600D02*
X97636500Y-131653600D01*
G75*
G02*
X97768500Y-131521600I132000J0D01*
G01*
X98364500Y-131521600D01*
G75*
G02*
X98496500Y-131653600I0J-132000D01*
G01*
X98496500Y-131653600D01*
G75*
G02*
X98364500Y-131785600I-132000J0D01*
G01*
X97768500Y-131785600D01*
G75*
G02*
X97636500Y-131653600I0J132000D01*
G01*
G37*
G36*
G01*
X97636500Y-131153600D02*
X97636500Y-131153600D01*
G75*
G02*
X97768500Y-131021600I132000J0D01*
G01*
X98364500Y-131021600D01*
G75*
G02*
X98496500Y-131153600I0J-132000D01*
G01*
X98496500Y-131153600D01*
G75*
G02*
X98364500Y-131285600I-132000J0D01*
G01*
X97768500Y-131285600D01*
G75*
G02*
X97636500Y-131153600I0J132000D01*
G01*
G37*
G36*
G01*
X97636500Y-130653600D02*
X97636500Y-130653600D01*
G75*
G02*
X97768500Y-130521600I132000J0D01*
G01*
X98364500Y-130521600D01*
G75*
G02*
X98496500Y-130653600I0J-132000D01*
G01*
X98496500Y-130653600D01*
G75*
G02*
X98364500Y-130785600I-132000J0D01*
G01*
X97768500Y-130785600D01*
G75*
G02*
X97636500Y-130653600I0J132000D01*
G01*
G37*
G36*
G01*
X97636500Y-130153600D02*
X97636500Y-130153600D01*
G75*
G02*
X97768500Y-130021600I132000J0D01*
G01*
X98364500Y-130021600D01*
G75*
G02*
X98496500Y-130153600I0J-132000D01*
G01*
X98496500Y-130153600D01*
G75*
G02*
X98364500Y-130285600I-132000J0D01*
G01*
X97768500Y-130285600D01*
G75*
G02*
X97636500Y-130153600I0J132000D01*
G01*
G37*
D12*
X102901100Y-134963600D03*
X102901100Y-133843600D03*
D13*
X95141100Y-129403600D03*
X96261100Y-129403600D03*
X95141100Y-133303600D03*
X96261100Y-133303600D03*
X95141100Y-134503600D03*
X96261100Y-134503600D03*
X101061100Y-135003600D03*
X99941100Y-135003600D03*
X96261100Y-135703600D03*
X95141100Y-135703600D03*
D40*
X192501100Y-126003600D03*
G36*
G01*
X194005700Y-124753600D02*
X194005700Y-124753600D01*
G75*
G02*
X194137700Y-124621600I132000J0D01*
G01*
X194733700Y-124621600D01*
G75*
G02*
X194865700Y-124753600I0J-132000D01*
G01*
X194865700Y-124753600D01*
G75*
G02*
X194733700Y-124885600I-132000J0D01*
G01*
X194137700Y-124885600D01*
G75*
G02*
X194005700Y-124753600I0J132000D01*
G01*
G37*
G36*
G01*
X194005700Y-125253600D02*
X194005700Y-125253600D01*
G75*
G02*
X194137700Y-125121600I132000J0D01*
G01*
X194733700Y-125121600D01*
G75*
G02*
X194865700Y-125253600I0J-132000D01*
G01*
X194865700Y-125253600D01*
G75*
G02*
X194733700Y-125385600I-132000J0D01*
G01*
X194137700Y-125385600D01*
G75*
G02*
X194005700Y-125253600I0J132000D01*
G01*
G37*
G36*
G01*
X194005700Y-125753600D02*
X194005700Y-125753600D01*
G75*
G02*
X194137700Y-125621600I132000J0D01*
G01*
X194733700Y-125621600D01*
G75*
G02*
X194865700Y-125753600I0J-132000D01*
G01*
X194865700Y-125753600D01*
G75*
G02*
X194733700Y-125885600I-132000J0D01*
G01*
X194137700Y-125885600D01*
G75*
G02*
X194005700Y-125753600I0J132000D01*
G01*
G37*
G36*
G01*
X194005700Y-126253600D02*
X194005700Y-126253600D01*
G75*
G02*
X194137700Y-126121600I132000J0D01*
G01*
X194733700Y-126121600D01*
G75*
G02*
X194865700Y-126253600I0J-132000D01*
G01*
X194865700Y-126253600D01*
G75*
G02*
X194733700Y-126385600I-132000J0D01*
G01*
X194137700Y-126385600D01*
G75*
G02*
X194005700Y-126253600I0J132000D01*
G01*
G37*
G36*
G01*
X194005700Y-126753600D02*
X194005700Y-126753600D01*
G75*
G02*
X194137700Y-126621600I132000J0D01*
G01*
X194733700Y-126621600D01*
G75*
G02*
X194865700Y-126753600I0J-132000D01*
G01*
X194865700Y-126753600D01*
G75*
G02*
X194733700Y-126885600I-132000J0D01*
G01*
X194137700Y-126885600D01*
G75*
G02*
X194005700Y-126753600I0J132000D01*
G01*
G37*
G36*
G01*
X194005700Y-127253600D02*
X194005700Y-127253600D01*
G75*
G02*
X194137700Y-127121600I132000J0D01*
G01*
X194733700Y-127121600D01*
G75*
G02*
X194865700Y-127253600I0J-132000D01*
G01*
X194865700Y-127253600D01*
G75*
G02*
X194733700Y-127385600I-132000J0D01*
G01*
X194137700Y-127385600D01*
G75*
G02*
X194005700Y-127253600I0J132000D01*
G01*
G37*
G36*
G01*
X193751100Y-127508200D02*
X193751100Y-127508200D01*
G75*
G02*
X193883100Y-127640200I0J-132000D01*
G01*
X193883100Y-128236200D01*
G75*
G02*
X193751100Y-128368200I-132000J0D01*
G01*
X193751100Y-128368200D01*
G75*
G02*
X193619100Y-128236200I0J132000D01*
G01*
X193619100Y-127640200D01*
G75*
G02*
X193751100Y-127508200I132000J0D01*
G01*
G37*
G36*
G01*
X193251100Y-127508200D02*
X193251100Y-127508200D01*
G75*
G02*
X193383100Y-127640200I0J-132000D01*
G01*
X193383100Y-128236200D01*
G75*
G02*
X193251100Y-128368200I-132000J0D01*
G01*
X193251100Y-128368200D01*
G75*
G02*
X193119100Y-128236200I0J132000D01*
G01*
X193119100Y-127640200D01*
G75*
G02*
X193251100Y-127508200I132000J0D01*
G01*
G37*
G36*
G01*
X192751100Y-127508200D02*
X192751100Y-127508200D01*
G75*
G02*
X192883100Y-127640200I0J-132000D01*
G01*
X192883100Y-128236200D01*
G75*
G02*
X192751100Y-128368200I-132000J0D01*
G01*
X192751100Y-128368200D01*
G75*
G02*
X192619100Y-128236200I0J132000D01*
G01*
X192619100Y-127640200D01*
G75*
G02*
X192751100Y-127508200I132000J0D01*
G01*
G37*
G36*
G01*
X192251100Y-127508200D02*
X192251100Y-127508200D01*
G75*
G02*
X192383100Y-127640200I0J-132000D01*
G01*
X192383100Y-128236200D01*
G75*
G02*
X192251100Y-128368200I-132000J0D01*
G01*
X192251100Y-128368200D01*
G75*
G02*
X192119100Y-128236200I0J132000D01*
G01*
X192119100Y-127640200D01*
G75*
G02*
X192251100Y-127508200I132000J0D01*
G01*
G37*
G36*
G01*
X191751100Y-127508200D02*
X191751100Y-127508200D01*
G75*
G02*
X191883100Y-127640200I0J-132000D01*
G01*
X191883100Y-128236200D01*
G75*
G02*
X191751100Y-128368200I-132000J0D01*
G01*
X191751100Y-128368200D01*
G75*
G02*
X191619100Y-128236200I0J132000D01*
G01*
X191619100Y-127640200D01*
G75*
G02*
X191751100Y-127508200I132000J0D01*
G01*
G37*
G36*
G01*
X191251100Y-127508200D02*
X191251100Y-127508200D01*
G75*
G02*
X191383100Y-127640200I0J-132000D01*
G01*
X191383100Y-128236200D01*
G75*
G02*
X191251100Y-128368200I-132000J0D01*
G01*
X191251100Y-128368200D01*
G75*
G02*
X191119100Y-128236200I0J132000D01*
G01*
X191119100Y-127640200D01*
G75*
G02*
X191251100Y-127508200I132000J0D01*
G01*
G37*
G36*
G01*
X190136500Y-127253600D02*
X190136500Y-127253600D01*
G75*
G02*
X190268500Y-127121600I132000J0D01*
G01*
X190864500Y-127121600D01*
G75*
G02*
X190996500Y-127253600I0J-132000D01*
G01*
X190996500Y-127253600D01*
G75*
G02*
X190864500Y-127385600I-132000J0D01*
G01*
X190268500Y-127385600D01*
G75*
G02*
X190136500Y-127253600I0J132000D01*
G01*
G37*
G36*
G01*
X190136500Y-126753600D02*
X190136500Y-126753600D01*
G75*
G02*
X190268500Y-126621600I132000J0D01*
G01*
X190864500Y-126621600D01*
G75*
G02*
X190996500Y-126753600I0J-132000D01*
G01*
X190996500Y-126753600D01*
G75*
G02*
X190864500Y-126885600I-132000J0D01*
G01*
X190268500Y-126885600D01*
G75*
G02*
X190136500Y-126753600I0J132000D01*
G01*
G37*
G36*
G01*
X190136500Y-126253600D02*
X190136500Y-126253600D01*
G75*
G02*
X190268500Y-126121600I132000J0D01*
G01*
X190864500Y-126121600D01*
G75*
G02*
X190996500Y-126253600I0J-132000D01*
G01*
X190996500Y-126253600D01*
G75*
G02*
X190864500Y-126385600I-132000J0D01*
G01*
X190268500Y-126385600D01*
G75*
G02*
X190136500Y-126253600I0J132000D01*
G01*
G37*
G36*
G01*
X190136500Y-125753600D02*
X190136500Y-125753600D01*
G75*
G02*
X190268500Y-125621600I132000J0D01*
G01*
X190864500Y-125621600D01*
G75*
G02*
X190996500Y-125753600I0J-132000D01*
G01*
X190996500Y-125753600D01*
G75*
G02*
X190864500Y-125885600I-132000J0D01*
G01*
X190268500Y-125885600D01*
G75*
G02*
X190136500Y-125753600I0J132000D01*
G01*
G37*
G36*
G01*
X190136500Y-125253600D02*
X190136500Y-125253600D01*
G75*
G02*
X190268500Y-125121600I132000J0D01*
G01*
X190864500Y-125121600D01*
G75*
G02*
X190996500Y-125253600I0J-132000D01*
G01*
X190996500Y-125253600D01*
G75*
G02*
X190864500Y-125385600I-132000J0D01*
G01*
X190268500Y-125385600D01*
G75*
G02*
X190136500Y-125253600I0J132000D01*
G01*
G37*
G36*
G01*
X190136500Y-124753600D02*
X190136500Y-124753600D01*
G75*
G02*
X190268500Y-124621600I132000J0D01*
G01*
X190864500Y-124621600D01*
G75*
G02*
X190996500Y-124753600I0J-132000D01*
G01*
X190996500Y-124753600D01*
G75*
G02*
X190864500Y-124885600I-132000J0D01*
G01*
X190268500Y-124885600D01*
G75*
G02*
X190136500Y-124753600I0J132000D01*
G01*
G37*
G36*
G01*
X191251100Y-123639000D02*
X191251100Y-123639000D01*
G75*
G02*
X191383100Y-123771000I0J-132000D01*
G01*
X191383100Y-124367000D01*
G75*
G02*
X191251100Y-124499000I-132000J0D01*
G01*
X191251100Y-124499000D01*
G75*
G02*
X191119100Y-124367000I0J132000D01*
G01*
X191119100Y-123771000D01*
G75*
G02*
X191251100Y-123639000I132000J0D01*
G01*
G37*
G36*
G01*
X191751100Y-123639000D02*
X191751100Y-123639000D01*
G75*
G02*
X191883100Y-123771000I0J-132000D01*
G01*
X191883100Y-124367000D01*
G75*
G02*
X191751100Y-124499000I-132000J0D01*
G01*
X191751100Y-124499000D01*
G75*
G02*
X191619100Y-124367000I0J132000D01*
G01*
X191619100Y-123771000D01*
G75*
G02*
X191751100Y-123639000I132000J0D01*
G01*
G37*
G36*
G01*
X192251100Y-123639000D02*
X192251100Y-123639000D01*
G75*
G02*
X192383100Y-123771000I0J-132000D01*
G01*
X192383100Y-124367000D01*
G75*
G02*
X192251100Y-124499000I-132000J0D01*
G01*
X192251100Y-124499000D01*
G75*
G02*
X192119100Y-124367000I0J132000D01*
G01*
X192119100Y-123771000D01*
G75*
G02*
X192251100Y-123639000I132000J0D01*
G01*
G37*
G36*
G01*
X192751100Y-123639000D02*
X192751100Y-123639000D01*
G75*
G02*
X192883100Y-123771000I0J-132000D01*
G01*
X192883100Y-124367000D01*
G75*
G02*
X192751100Y-124499000I-132000J0D01*
G01*
X192751100Y-124499000D01*
G75*
G02*
X192619100Y-124367000I0J132000D01*
G01*
X192619100Y-123771000D01*
G75*
G02*
X192751100Y-123639000I132000J0D01*
G01*
G37*
G36*
G01*
X193251100Y-123639000D02*
X193251100Y-123639000D01*
G75*
G02*
X193383100Y-123771000I0J-132000D01*
G01*
X193383100Y-124367000D01*
G75*
G02*
X193251100Y-124499000I-132000J0D01*
G01*
X193251100Y-124499000D01*
G75*
G02*
X193119100Y-124367000I0J132000D01*
G01*
X193119100Y-123771000D01*
G75*
G02*
X193251100Y-123639000I132000J0D01*
G01*
G37*
G36*
G01*
X193751100Y-123639000D02*
X193751100Y-123639000D01*
G75*
G02*
X193883100Y-123771000I0J-132000D01*
G01*
X193883100Y-124367000D01*
G75*
G02*
X193751100Y-124499000I-132000J0D01*
G01*
X193751100Y-124499000D01*
G75*
G02*
X193619100Y-124367000I0J132000D01*
G01*
X193619100Y-123771000D01*
G75*
G02*
X193751100Y-123639000I132000J0D01*
G01*
G37*
D12*
X194501100Y-121543600D03*
X194501100Y-122663600D03*
X190501100Y-121543600D03*
X190501100Y-122663600D03*
D13*
X188341100Y-128803600D03*
X189461100Y-128803600D03*
D12*
X189301100Y-121543600D03*
X189301100Y-122663600D03*
X188101100Y-127063600D03*
X188101100Y-125943600D03*
X188101100Y-122663600D03*
X188101100Y-121543600D03*
D40*
X128801100Y-136003600D03*
G36*
G01*
X127551100Y-134499000D02*
X127551100Y-134499000D01*
G75*
G02*
X127419100Y-134367000I0J132000D01*
G01*
X127419100Y-133771000D01*
G75*
G02*
X127551100Y-133639000I132000J0D01*
G01*
X127551100Y-133639000D01*
G75*
G02*
X127683100Y-133771000I0J-132000D01*
G01*
X127683100Y-134367000D01*
G75*
G02*
X127551100Y-134499000I-132000J0D01*
G01*
G37*
G36*
G01*
X128051100Y-134499000D02*
X128051100Y-134499000D01*
G75*
G02*
X127919100Y-134367000I0J132000D01*
G01*
X127919100Y-133771000D01*
G75*
G02*
X128051100Y-133639000I132000J0D01*
G01*
X128051100Y-133639000D01*
G75*
G02*
X128183100Y-133771000I0J-132000D01*
G01*
X128183100Y-134367000D01*
G75*
G02*
X128051100Y-134499000I-132000J0D01*
G01*
G37*
G36*
G01*
X128551100Y-134499000D02*
X128551100Y-134499000D01*
G75*
G02*
X128419100Y-134367000I0J132000D01*
G01*
X128419100Y-133771000D01*
G75*
G02*
X128551100Y-133639000I132000J0D01*
G01*
X128551100Y-133639000D01*
G75*
G02*
X128683100Y-133771000I0J-132000D01*
G01*
X128683100Y-134367000D01*
G75*
G02*
X128551100Y-134499000I-132000J0D01*
G01*
G37*
G36*
G01*
X129051100Y-134499000D02*
X129051100Y-134499000D01*
G75*
G02*
X128919100Y-134367000I0J132000D01*
G01*
X128919100Y-133771000D01*
G75*
G02*
X129051100Y-133639000I132000J0D01*
G01*
X129051100Y-133639000D01*
G75*
G02*
X129183100Y-133771000I0J-132000D01*
G01*
X129183100Y-134367000D01*
G75*
G02*
X129051100Y-134499000I-132000J0D01*
G01*
G37*
G36*
G01*
X129551100Y-134499000D02*
X129551100Y-134499000D01*
G75*
G02*
X129419100Y-134367000I0J132000D01*
G01*
X129419100Y-133771000D01*
G75*
G02*
X129551100Y-133639000I132000J0D01*
G01*
X129551100Y-133639000D01*
G75*
G02*
X129683100Y-133771000I0J-132000D01*
G01*
X129683100Y-134367000D01*
G75*
G02*
X129551100Y-134499000I-132000J0D01*
G01*
G37*
G36*
G01*
X130051100Y-134499000D02*
X130051100Y-134499000D01*
G75*
G02*
X129919100Y-134367000I0J132000D01*
G01*
X129919100Y-133771000D01*
G75*
G02*
X130051100Y-133639000I132000J0D01*
G01*
X130051100Y-133639000D01*
G75*
G02*
X130183100Y-133771000I0J-132000D01*
G01*
X130183100Y-134367000D01*
G75*
G02*
X130051100Y-134499000I-132000J0D01*
G01*
G37*
G36*
G01*
X130305700Y-134753600D02*
X130305700Y-134753600D01*
G75*
G02*
X130437700Y-134621600I132000J0D01*
G01*
X131033700Y-134621600D01*
G75*
G02*
X131165700Y-134753600I0J-132000D01*
G01*
X131165700Y-134753600D01*
G75*
G02*
X131033700Y-134885600I-132000J0D01*
G01*
X130437700Y-134885600D01*
G75*
G02*
X130305700Y-134753600I0J132000D01*
G01*
G37*
G36*
G01*
X130305700Y-135253600D02*
X130305700Y-135253600D01*
G75*
G02*
X130437700Y-135121600I132000J0D01*
G01*
X131033700Y-135121600D01*
G75*
G02*
X131165700Y-135253600I0J-132000D01*
G01*
X131165700Y-135253600D01*
G75*
G02*
X131033700Y-135385600I-132000J0D01*
G01*
X130437700Y-135385600D01*
G75*
G02*
X130305700Y-135253600I0J132000D01*
G01*
G37*
G36*
G01*
X130305700Y-135753600D02*
X130305700Y-135753600D01*
G75*
G02*
X130437700Y-135621600I132000J0D01*
G01*
X131033700Y-135621600D01*
G75*
G02*
X131165700Y-135753600I0J-132000D01*
G01*
X131165700Y-135753600D01*
G75*
G02*
X131033700Y-135885600I-132000J0D01*
G01*
X130437700Y-135885600D01*
G75*
G02*
X130305700Y-135753600I0J132000D01*
G01*
G37*
G36*
G01*
X130305700Y-136253600D02*
X130305700Y-136253600D01*
G75*
G02*
X130437700Y-136121600I132000J0D01*
G01*
X131033700Y-136121600D01*
G75*
G02*
X131165700Y-136253600I0J-132000D01*
G01*
X131165700Y-136253600D01*
G75*
G02*
X131033700Y-136385600I-132000J0D01*
G01*
X130437700Y-136385600D01*
G75*
G02*
X130305700Y-136253600I0J132000D01*
G01*
G37*
G36*
G01*
X130305700Y-136753600D02*
X130305700Y-136753600D01*
G75*
G02*
X130437700Y-136621600I132000J0D01*
G01*
X131033700Y-136621600D01*
G75*
G02*
X131165700Y-136753600I0J-132000D01*
G01*
X131165700Y-136753600D01*
G75*
G02*
X131033700Y-136885600I-132000J0D01*
G01*
X130437700Y-136885600D01*
G75*
G02*
X130305700Y-136753600I0J132000D01*
G01*
G37*
G36*
G01*
X130305700Y-137253600D02*
X130305700Y-137253600D01*
G75*
G02*
X130437700Y-137121600I132000J0D01*
G01*
X131033700Y-137121600D01*
G75*
G02*
X131165700Y-137253600I0J-132000D01*
G01*
X131165700Y-137253600D01*
G75*
G02*
X131033700Y-137385600I-132000J0D01*
G01*
X130437700Y-137385600D01*
G75*
G02*
X130305700Y-137253600I0J132000D01*
G01*
G37*
G36*
G01*
X130051100Y-138368200D02*
X130051100Y-138368200D01*
G75*
G02*
X129919100Y-138236200I0J132000D01*
G01*
X129919100Y-137640200D01*
G75*
G02*
X130051100Y-137508200I132000J0D01*
G01*
X130051100Y-137508200D01*
G75*
G02*
X130183100Y-137640200I0J-132000D01*
G01*
X130183100Y-138236200D01*
G75*
G02*
X130051100Y-138368200I-132000J0D01*
G01*
G37*
G36*
G01*
X129551100Y-138368200D02*
X129551100Y-138368200D01*
G75*
G02*
X129419100Y-138236200I0J132000D01*
G01*
X129419100Y-137640200D01*
G75*
G02*
X129551100Y-137508200I132000J0D01*
G01*
X129551100Y-137508200D01*
G75*
G02*
X129683100Y-137640200I0J-132000D01*
G01*
X129683100Y-138236200D01*
G75*
G02*
X129551100Y-138368200I-132000J0D01*
G01*
G37*
G36*
G01*
X129051100Y-138368200D02*
X129051100Y-138368200D01*
G75*
G02*
X128919100Y-138236200I0J132000D01*
G01*
X128919100Y-137640200D01*
G75*
G02*
X129051100Y-137508200I132000J0D01*
G01*
X129051100Y-137508200D01*
G75*
G02*
X129183100Y-137640200I0J-132000D01*
G01*
X129183100Y-138236200D01*
G75*
G02*
X129051100Y-138368200I-132000J0D01*
G01*
G37*
G36*
G01*
X128551100Y-138368200D02*
X128551100Y-138368200D01*
G75*
G02*
X128419100Y-138236200I0J132000D01*
G01*
X128419100Y-137640200D01*
G75*
G02*
X128551100Y-137508200I132000J0D01*
G01*
X128551100Y-137508200D01*
G75*
G02*
X128683100Y-137640200I0J-132000D01*
G01*
X128683100Y-138236200D01*
G75*
G02*
X128551100Y-138368200I-132000J0D01*
G01*
G37*
G36*
G01*
X128051100Y-138368200D02*
X128051100Y-138368200D01*
G75*
G02*
X127919100Y-138236200I0J132000D01*
G01*
X127919100Y-137640200D01*
G75*
G02*
X128051100Y-137508200I132000J0D01*
G01*
X128051100Y-137508200D01*
G75*
G02*
X128183100Y-137640200I0J-132000D01*
G01*
X128183100Y-138236200D01*
G75*
G02*
X128051100Y-138368200I-132000J0D01*
G01*
G37*
G36*
G01*
X127551100Y-138368200D02*
X127551100Y-138368200D01*
G75*
G02*
X127419100Y-138236200I0J132000D01*
G01*
X127419100Y-137640200D01*
G75*
G02*
X127551100Y-137508200I132000J0D01*
G01*
X127551100Y-137508200D01*
G75*
G02*
X127683100Y-137640200I0J-132000D01*
G01*
X127683100Y-138236200D01*
G75*
G02*
X127551100Y-138368200I-132000J0D01*
G01*
G37*
G36*
G01*
X126436500Y-137253600D02*
X126436500Y-137253600D01*
G75*
G02*
X126568500Y-137121600I132000J0D01*
G01*
X127164500Y-137121600D01*
G75*
G02*
X127296500Y-137253600I0J-132000D01*
G01*
X127296500Y-137253600D01*
G75*
G02*
X127164500Y-137385600I-132000J0D01*
G01*
X126568500Y-137385600D01*
G75*
G02*
X126436500Y-137253600I0J132000D01*
G01*
G37*
G36*
G01*
X126436500Y-136753600D02*
X126436500Y-136753600D01*
G75*
G02*
X126568500Y-136621600I132000J0D01*
G01*
X127164500Y-136621600D01*
G75*
G02*
X127296500Y-136753600I0J-132000D01*
G01*
X127296500Y-136753600D01*
G75*
G02*
X127164500Y-136885600I-132000J0D01*
G01*
X126568500Y-136885600D01*
G75*
G02*
X126436500Y-136753600I0J132000D01*
G01*
G37*
G36*
G01*
X126436500Y-136253600D02*
X126436500Y-136253600D01*
G75*
G02*
X126568500Y-136121600I132000J0D01*
G01*
X127164500Y-136121600D01*
G75*
G02*
X127296500Y-136253600I0J-132000D01*
G01*
X127296500Y-136253600D01*
G75*
G02*
X127164500Y-136385600I-132000J0D01*
G01*
X126568500Y-136385600D01*
G75*
G02*
X126436500Y-136253600I0J132000D01*
G01*
G37*
G36*
G01*
X126436500Y-135753600D02*
X126436500Y-135753600D01*
G75*
G02*
X126568500Y-135621600I132000J0D01*
G01*
X127164500Y-135621600D01*
G75*
G02*
X127296500Y-135753600I0J-132000D01*
G01*
X127296500Y-135753600D01*
G75*
G02*
X127164500Y-135885600I-132000J0D01*
G01*
X126568500Y-135885600D01*
G75*
G02*
X126436500Y-135753600I0J132000D01*
G01*
G37*
G36*
G01*
X126436500Y-135253600D02*
X126436500Y-135253600D01*
G75*
G02*
X126568500Y-135121600I132000J0D01*
G01*
X127164500Y-135121600D01*
G75*
G02*
X127296500Y-135253600I0J-132000D01*
G01*
X127296500Y-135253600D01*
G75*
G02*
X127164500Y-135385600I-132000J0D01*
G01*
X126568500Y-135385600D01*
G75*
G02*
X126436500Y-135253600I0J132000D01*
G01*
G37*
G36*
G01*
X126436500Y-134753600D02*
X126436500Y-134753600D01*
G75*
G02*
X126568500Y-134621600I132000J0D01*
G01*
X127164500Y-134621600D01*
G75*
G02*
X127296500Y-134753600I0J-132000D01*
G01*
X127296500Y-134753600D01*
G75*
G02*
X127164500Y-134885600I-132000J0D01*
G01*
X126568500Y-134885600D01*
G75*
G02*
X126436500Y-134753600I0J132000D01*
G01*
G37*
D13*
X133161100Y-139703600D03*
X132041100Y-139703600D03*
X133661100Y-132803600D03*
X132541100Y-132803600D03*
X124341100Y-134003600D03*
X125461100Y-134003600D03*
X124341100Y-139203600D03*
X125461100Y-139203600D03*
X130161100Y-139703600D03*
X129041100Y-139703600D03*
X125461100Y-140403600D03*
X124341100Y-140403600D03*
D12*
X98401100Y-103463600D03*
X98401100Y-102343600D03*
X101901100Y-103363600D03*
X101901100Y-102243600D03*
X198501100Y-98163600D03*
X198501100Y-97043600D03*
X202501100Y-98163600D03*
X202501100Y-97043600D03*
X118801100Y-115163600D03*
X118801100Y-114043600D03*
X122601100Y-115163600D03*
X122601100Y-114043600D03*
D41*
X104751100Y-138018600D03*
X106001100Y-138018600D03*
X107251100Y-138018600D03*
X107251100Y-134588600D03*
X106001100Y-134588600D03*
X104751100Y-134588600D03*
D42*
X139216100Y-137853600D03*
X139216100Y-136603600D03*
X139216100Y-135353600D03*
X135786100Y-135353600D03*
X135786100Y-136603600D03*
X135786100Y-137853600D03*
D43*
X179006500Y-58315400D03*
X185995700Y-58315400D03*
D44*
X182501100Y-58315400D03*
D43*
X195006500Y-58315400D03*
X201995700Y-58315400D03*
D44*
X198501100Y-58315400D03*
D13*
X99561100Y-138103600D03*
X98441100Y-138103600D03*
X100861100Y-139203600D03*
X99741100Y-139203600D03*
D12*
X99601100Y-140343600D03*
X99601100Y-141463600D03*
D13*
X99461100Y-142603600D03*
X98341100Y-142603600D03*
X100761100Y-143703600D03*
X99641100Y-143703600D03*
D45*
X103920700Y-151338200D03*
X95081500Y-151338200D03*
D46*
X99501100Y-151338200D03*
D12*
X197501100Y-144743600D03*
X197501100Y-145863600D03*
D17*
G36*
X192476831Y-138718455D02*
G01*
X193100369Y-139078455D01*
X192765369Y-139658693D01*
X192141831Y-139298693D01*
X192476831Y-138718455D01*
G37*
G36*
X193036831Y-137748507D02*
G01*
X193660369Y-138108507D01*
X193325369Y-138688745D01*
X192701831Y-138328745D01*
X193036831Y-137748507D01*
G37*
G36*
X190701831Y-139078455D02*
G01*
X191325369Y-138718455D01*
X191660369Y-139298693D01*
X191036831Y-139658693D01*
X190701831Y-139078455D01*
G37*
G36*
X190141831Y-138108507D02*
G01*
X190765369Y-137748507D01*
X191100369Y-138328745D01*
X190476831Y-138688745D01*
X190141831Y-138108507D01*
G37*
D13*
X187841100Y-136803600D03*
X188961100Y-136803600D03*
D41*
X190651100Y-136718600D03*
X191901100Y-136718600D03*
X193151100Y-136718600D03*
X193151100Y-133288600D03*
X191901100Y-133288600D03*
X190651100Y-133288600D03*
D13*
X197361100Y-139103600D03*
X196241100Y-139103600D03*
X198661100Y-138003600D03*
X197541100Y-138003600D03*
D12*
X197501100Y-140243600D03*
X197501100Y-141363600D03*
D13*
X197361100Y-143603600D03*
X196241100Y-143603600D03*
X198661100Y-142503600D03*
X197541100Y-142503600D03*
D45*
X201920700Y-151338200D03*
X193081500Y-151338200D03*
D46*
X197501100Y-151338200D03*
D12*
X171501100Y-142963600D03*
X171501100Y-141843600D03*
X151801100Y-146943600D03*
X151801100Y-148063600D03*
D28*
X170152700Y-116003600D03*
X171249500Y-116003600D03*
D12*
X168701100Y-114743600D03*
X168701100Y-115863600D03*
X172701100Y-114743600D03*
X172701100Y-115863600D03*
D28*
X174152700Y-116003600D03*
X175249500Y-116003600D03*
D12*
X176701100Y-114743600D03*
X176701100Y-115863600D03*
D13*
X114361100Y-98803600D03*
X113241100Y-98803600D03*
D12*
X107501100Y-90143600D03*
X107501100Y-91263600D03*
X109801100Y-91263600D03*
X109801100Y-90143600D03*
D13*
X136141100Y-91803600D03*
X137261100Y-91803600D03*
D12*
X202601100Y-91963600D03*
X202601100Y-90843600D03*
D13*
X137161100Y-82803600D03*
X136041100Y-82803600D03*
D12*
X123601100Y-71043600D03*
X123601100Y-72163600D03*
D13*
X137141100Y-87803600D03*
X138261100Y-87803600D03*
X131061100Y-72203600D03*
X129941100Y-72203600D03*
X114441100Y-72203600D03*
X115561100Y-72203600D03*
X108341100Y-83403600D03*
X109461100Y-83403600D03*
X140841100Y-78303600D03*
X141961100Y-78303600D03*
X140841100Y-80703600D03*
X141961100Y-80703600D03*
X140841100Y-79503600D03*
X141961100Y-79503600D03*
X140841100Y-81903600D03*
X141961100Y-81903600D03*
X140841100Y-83103600D03*
X141961100Y-83103600D03*
X143841100Y-83103600D03*
X144961100Y-83103600D03*
X143841100Y-81903600D03*
X144961100Y-81903600D03*
X143841100Y-79503600D03*
X144961100Y-79503600D03*
X143841100Y-80703600D03*
X144961100Y-80703600D03*
X143841100Y-78303600D03*
X144961100Y-78303600D03*
X143841100Y-77103600D03*
X144961100Y-77103600D03*
X143841100Y-75903600D03*
X144961100Y-75903600D03*
D47*
X152601100Y-74203600D03*
G36*
G01*
X149596500Y-76953600D02*
X149596500Y-76953600D01*
G75*
G02*
X149461500Y-77088600I-135000J0D01*
G01*
X148871500Y-77088600D01*
G75*
G02*
X148736500Y-76953600I0J135000D01*
G01*
X148736500Y-76953600D01*
G75*
G02*
X148871500Y-76818600I135000J0D01*
G01*
X149461500Y-76818600D01*
G75*
G02*
X149596500Y-76953600I0J-135000D01*
G01*
G37*
G36*
G01*
X149596500Y-76453600D02*
X149596500Y-76453600D01*
G75*
G02*
X149461500Y-76588600I-135000J0D01*
G01*
X148871500Y-76588600D01*
G75*
G02*
X148736500Y-76453600I0J135000D01*
G01*
X148736500Y-76453600D01*
G75*
G02*
X148871500Y-76318600I135000J0D01*
G01*
X149461500Y-76318600D01*
G75*
G02*
X149596500Y-76453600I0J-135000D01*
G01*
G37*
G36*
G01*
X149596500Y-75953600D02*
X149596500Y-75953600D01*
G75*
G02*
X149461500Y-76088600I-135000J0D01*
G01*
X148871500Y-76088600D01*
G75*
G02*
X148736500Y-75953600I0J135000D01*
G01*
X148736500Y-75953600D01*
G75*
G02*
X148871500Y-75818600I135000J0D01*
G01*
X149461500Y-75818600D01*
G75*
G02*
X149596500Y-75953600I0J-135000D01*
G01*
G37*
G36*
G01*
X149596500Y-75453600D02*
X149596500Y-75453600D01*
G75*
G02*
X149461500Y-75588600I-135000J0D01*
G01*
X148871500Y-75588600D01*
G75*
G02*
X148736500Y-75453600I0J135000D01*
G01*
X148736500Y-75453600D01*
G75*
G02*
X148871500Y-75318600I135000J0D01*
G01*
X149461500Y-75318600D01*
G75*
G02*
X149596500Y-75453600I0J-135000D01*
G01*
G37*
G36*
G01*
X149596500Y-74953600D02*
X149596500Y-74953600D01*
G75*
G02*
X149461500Y-75088600I-135000J0D01*
G01*
X148871500Y-75088600D01*
G75*
G02*
X148736500Y-74953600I0J135000D01*
G01*
X148736500Y-74953600D01*
G75*
G02*
X148871500Y-74818600I135000J0D01*
G01*
X149461500Y-74818600D01*
G75*
G02*
X149596500Y-74953600I0J-135000D01*
G01*
G37*
G36*
G01*
X149596500Y-74453600D02*
X149596500Y-74453600D01*
G75*
G02*
X149461500Y-74588600I-135000J0D01*
G01*
X148871500Y-74588600D01*
G75*
G02*
X148736500Y-74453600I0J135000D01*
G01*
X148736500Y-74453600D01*
G75*
G02*
X148871500Y-74318600I135000J0D01*
G01*
X149461500Y-74318600D01*
G75*
G02*
X149596500Y-74453600I0J-135000D01*
G01*
G37*
G36*
G01*
X149596500Y-73953600D02*
X149596500Y-73953600D01*
G75*
G02*
X149461500Y-74088600I-135000J0D01*
G01*
X148871500Y-74088600D01*
G75*
G02*
X148736500Y-73953600I0J135000D01*
G01*
X148736500Y-73953600D01*
G75*
G02*
X148871500Y-73818600I135000J0D01*
G01*
X149461500Y-73818600D01*
G75*
G02*
X149596500Y-73953600I0J-135000D01*
G01*
G37*
G36*
G01*
X149596500Y-73453600D02*
X149596500Y-73453600D01*
G75*
G02*
X149461500Y-73588600I-135000J0D01*
G01*
X148871500Y-73588600D01*
G75*
G02*
X148736500Y-73453600I0J135000D01*
G01*
X148736500Y-73453600D01*
G75*
G02*
X148871500Y-73318600I135000J0D01*
G01*
X149461500Y-73318600D01*
G75*
G02*
X149596500Y-73453600I0J-135000D01*
G01*
G37*
G36*
G01*
X149596500Y-72953600D02*
X149596500Y-72953600D01*
G75*
G02*
X149461500Y-73088600I-135000J0D01*
G01*
X148871500Y-73088600D01*
G75*
G02*
X148736500Y-72953600I0J135000D01*
G01*
X148736500Y-72953600D01*
G75*
G02*
X148871500Y-72818600I135000J0D01*
G01*
X149461500Y-72818600D01*
G75*
G02*
X149596500Y-72953600I0J-135000D01*
G01*
G37*
G36*
G01*
X149596500Y-72453600D02*
X149596500Y-72453600D01*
G75*
G02*
X149461500Y-72588600I-135000J0D01*
G01*
X148871500Y-72588600D01*
G75*
G02*
X148736500Y-72453600I0J135000D01*
G01*
X148736500Y-72453600D01*
G75*
G02*
X148871500Y-72318600I135000J0D01*
G01*
X149461500Y-72318600D01*
G75*
G02*
X149596500Y-72453600I0J-135000D01*
G01*
G37*
G36*
G01*
X149596500Y-71953600D02*
X149596500Y-71953600D01*
G75*
G02*
X149461500Y-72088600I-135000J0D01*
G01*
X148871500Y-72088600D01*
G75*
G02*
X148736500Y-71953600I0J135000D01*
G01*
X148736500Y-71953600D01*
G75*
G02*
X148871500Y-71818600I135000J0D01*
G01*
X149461500Y-71818600D01*
G75*
G02*
X149596500Y-71953600I0J-135000D01*
G01*
G37*
G36*
G01*
X149596500Y-71453600D02*
X149596500Y-71453600D01*
G75*
G02*
X149461500Y-71588600I-135000J0D01*
G01*
X148871500Y-71588600D01*
G75*
G02*
X148736500Y-71453600I0J135000D01*
G01*
X148736500Y-71453600D01*
G75*
G02*
X148871500Y-71318600I135000J0D01*
G01*
X149461500Y-71318600D01*
G75*
G02*
X149596500Y-71453600I0J-135000D01*
G01*
G37*
G36*
G01*
X149851100Y-71199000D02*
X149851100Y-71199000D01*
G75*
G02*
X149716100Y-71064000I0J135000D01*
G01*
X149716100Y-70474000D01*
G75*
G02*
X149851100Y-70339000I135000J0D01*
G01*
X149851100Y-70339000D01*
G75*
G02*
X149986100Y-70474000I0J-135000D01*
G01*
X149986100Y-71064000D01*
G75*
G02*
X149851100Y-71199000I-135000J0D01*
G01*
G37*
G36*
G01*
X150351100Y-71199000D02*
X150351100Y-71199000D01*
G75*
G02*
X150216100Y-71064000I0J135000D01*
G01*
X150216100Y-70474000D01*
G75*
G02*
X150351100Y-70339000I135000J0D01*
G01*
X150351100Y-70339000D01*
G75*
G02*
X150486100Y-70474000I0J-135000D01*
G01*
X150486100Y-71064000D01*
G75*
G02*
X150351100Y-71199000I-135000J0D01*
G01*
G37*
G36*
G01*
X150851100Y-71199000D02*
X150851100Y-71199000D01*
G75*
G02*
X150716100Y-71064000I0J135000D01*
G01*
X150716100Y-70474000D01*
G75*
G02*
X150851100Y-70339000I135000J0D01*
G01*
X150851100Y-70339000D01*
G75*
G02*
X150986100Y-70474000I0J-135000D01*
G01*
X150986100Y-71064000D01*
G75*
G02*
X150851100Y-71199000I-135000J0D01*
G01*
G37*
G36*
G01*
X151351100Y-71199000D02*
X151351100Y-71199000D01*
G75*
G02*
X151216100Y-71064000I0J135000D01*
G01*
X151216100Y-70474000D01*
G75*
G02*
X151351100Y-70339000I135000J0D01*
G01*
X151351100Y-70339000D01*
G75*
G02*
X151486100Y-70474000I0J-135000D01*
G01*
X151486100Y-71064000D01*
G75*
G02*
X151351100Y-71199000I-135000J0D01*
G01*
G37*
G36*
G01*
X151851100Y-71199000D02*
X151851100Y-71199000D01*
G75*
G02*
X151716100Y-71064000I0J135000D01*
G01*
X151716100Y-70474000D01*
G75*
G02*
X151851100Y-70339000I135000J0D01*
G01*
X151851100Y-70339000D01*
G75*
G02*
X151986100Y-70474000I0J-135000D01*
G01*
X151986100Y-71064000D01*
G75*
G02*
X151851100Y-71199000I-135000J0D01*
G01*
G37*
G36*
G01*
X152351100Y-71199000D02*
X152351100Y-71199000D01*
G75*
G02*
X152216100Y-71064000I0J135000D01*
G01*
X152216100Y-70474000D01*
G75*
G02*
X152351100Y-70339000I135000J0D01*
G01*
X152351100Y-70339000D01*
G75*
G02*
X152486100Y-70474000I0J-135000D01*
G01*
X152486100Y-71064000D01*
G75*
G02*
X152351100Y-71199000I-135000J0D01*
G01*
G37*
G36*
G01*
X152851100Y-71199000D02*
X152851100Y-71199000D01*
G75*
G02*
X152716100Y-71064000I0J135000D01*
G01*
X152716100Y-70474000D01*
G75*
G02*
X152851100Y-70339000I135000J0D01*
G01*
X152851100Y-70339000D01*
G75*
G02*
X152986100Y-70474000I0J-135000D01*
G01*
X152986100Y-71064000D01*
G75*
G02*
X152851100Y-71199000I-135000J0D01*
G01*
G37*
G36*
G01*
X153351100Y-71199000D02*
X153351100Y-71199000D01*
G75*
G02*
X153216100Y-71064000I0J135000D01*
G01*
X153216100Y-70474000D01*
G75*
G02*
X153351100Y-70339000I135000J0D01*
G01*
X153351100Y-70339000D01*
G75*
G02*
X153486100Y-70474000I0J-135000D01*
G01*
X153486100Y-71064000D01*
G75*
G02*
X153351100Y-71199000I-135000J0D01*
G01*
G37*
G36*
G01*
X153851100Y-71199000D02*
X153851100Y-71199000D01*
G75*
G02*
X153716100Y-71064000I0J135000D01*
G01*
X153716100Y-70474000D01*
G75*
G02*
X153851100Y-70339000I135000J0D01*
G01*
X153851100Y-70339000D01*
G75*
G02*
X153986100Y-70474000I0J-135000D01*
G01*
X153986100Y-71064000D01*
G75*
G02*
X153851100Y-71199000I-135000J0D01*
G01*
G37*
G36*
G01*
X154351100Y-71199000D02*
X154351100Y-71199000D01*
G75*
G02*
X154216100Y-71064000I0J135000D01*
G01*
X154216100Y-70474000D01*
G75*
G02*
X154351100Y-70339000I135000J0D01*
G01*
X154351100Y-70339000D01*
G75*
G02*
X154486100Y-70474000I0J-135000D01*
G01*
X154486100Y-71064000D01*
G75*
G02*
X154351100Y-71199000I-135000J0D01*
G01*
G37*
G36*
G01*
X154851100Y-71199000D02*
X154851100Y-71199000D01*
G75*
G02*
X154716100Y-71064000I0J135000D01*
G01*
X154716100Y-70474000D01*
G75*
G02*
X154851100Y-70339000I135000J0D01*
G01*
X154851100Y-70339000D01*
G75*
G02*
X154986100Y-70474000I0J-135000D01*
G01*
X154986100Y-71064000D01*
G75*
G02*
X154851100Y-71199000I-135000J0D01*
G01*
G37*
G36*
G01*
X155351100Y-71199000D02*
X155351100Y-71199000D01*
G75*
G02*
X155216100Y-71064000I0J135000D01*
G01*
X155216100Y-70474000D01*
G75*
G02*
X155351100Y-70339000I135000J0D01*
G01*
X155351100Y-70339000D01*
G75*
G02*
X155486100Y-70474000I0J-135000D01*
G01*
X155486100Y-71064000D01*
G75*
G02*
X155351100Y-71199000I-135000J0D01*
G01*
G37*
G36*
G01*
X156465700Y-71453600D02*
X156465700Y-71453600D01*
G75*
G02*
X156330700Y-71588600I-135000J0D01*
G01*
X155740700Y-71588600D01*
G75*
G02*
X155605700Y-71453600I0J135000D01*
G01*
X155605700Y-71453600D01*
G75*
G02*
X155740700Y-71318600I135000J0D01*
G01*
X156330700Y-71318600D01*
G75*
G02*
X156465700Y-71453600I0J-135000D01*
G01*
G37*
G36*
G01*
X156465700Y-71953600D02*
X156465700Y-71953600D01*
G75*
G02*
X156330700Y-72088600I-135000J0D01*
G01*
X155740700Y-72088600D01*
G75*
G02*
X155605700Y-71953600I0J135000D01*
G01*
X155605700Y-71953600D01*
G75*
G02*
X155740700Y-71818600I135000J0D01*
G01*
X156330700Y-71818600D01*
G75*
G02*
X156465700Y-71953600I0J-135000D01*
G01*
G37*
G36*
G01*
X156465700Y-72453600D02*
X156465700Y-72453600D01*
G75*
G02*
X156330700Y-72588600I-135000J0D01*
G01*
X155740700Y-72588600D01*
G75*
G02*
X155605700Y-72453600I0J135000D01*
G01*
X155605700Y-72453600D01*
G75*
G02*
X155740700Y-72318600I135000J0D01*
G01*
X156330700Y-72318600D01*
G75*
G02*
X156465700Y-72453600I0J-135000D01*
G01*
G37*
G36*
G01*
X156465700Y-72953600D02*
X156465700Y-72953600D01*
G75*
G02*
X156330700Y-73088600I-135000J0D01*
G01*
X155740700Y-73088600D01*
G75*
G02*
X155605700Y-72953600I0J135000D01*
G01*
X155605700Y-72953600D01*
G75*
G02*
X155740700Y-72818600I135000J0D01*
G01*
X156330700Y-72818600D01*
G75*
G02*
X156465700Y-72953600I0J-135000D01*
G01*
G37*
G36*
G01*
X156465700Y-73453600D02*
X156465700Y-73453600D01*
G75*
G02*
X156330700Y-73588600I-135000J0D01*
G01*
X155740700Y-73588600D01*
G75*
G02*
X155605700Y-73453600I0J135000D01*
G01*
X155605700Y-73453600D01*
G75*
G02*
X155740700Y-73318600I135000J0D01*
G01*
X156330700Y-73318600D01*
G75*
G02*
X156465700Y-73453600I0J-135000D01*
G01*
G37*
G36*
G01*
X156465700Y-73953600D02*
X156465700Y-73953600D01*
G75*
G02*
X156330700Y-74088600I-135000J0D01*
G01*
X155740700Y-74088600D01*
G75*
G02*
X155605700Y-73953600I0J135000D01*
G01*
X155605700Y-73953600D01*
G75*
G02*
X155740700Y-73818600I135000J0D01*
G01*
X156330700Y-73818600D01*
G75*
G02*
X156465700Y-73953600I0J-135000D01*
G01*
G37*
G36*
G01*
X156465700Y-74453600D02*
X156465700Y-74453600D01*
G75*
G02*
X156330700Y-74588600I-135000J0D01*
G01*
X155740700Y-74588600D01*
G75*
G02*
X155605700Y-74453600I0J135000D01*
G01*
X155605700Y-74453600D01*
G75*
G02*
X155740700Y-74318600I135000J0D01*
G01*
X156330700Y-74318600D01*
G75*
G02*
X156465700Y-74453600I0J-135000D01*
G01*
G37*
G36*
G01*
X156465700Y-74953600D02*
X156465700Y-74953600D01*
G75*
G02*
X156330700Y-75088600I-135000J0D01*
G01*
X155740700Y-75088600D01*
G75*
G02*
X155605700Y-74953600I0J135000D01*
G01*
X155605700Y-74953600D01*
G75*
G02*
X155740700Y-74818600I135000J0D01*
G01*
X156330700Y-74818600D01*
G75*
G02*
X156465700Y-74953600I0J-135000D01*
G01*
G37*
G36*
G01*
X156465700Y-75453600D02*
X156465700Y-75453600D01*
G75*
G02*
X156330700Y-75588600I-135000J0D01*
G01*
X155740700Y-75588600D01*
G75*
G02*
X155605700Y-75453600I0J135000D01*
G01*
X155605700Y-75453600D01*
G75*
G02*
X155740700Y-75318600I135000J0D01*
G01*
X156330700Y-75318600D01*
G75*
G02*
X156465700Y-75453600I0J-135000D01*
G01*
G37*
G36*
G01*
X156465700Y-75953600D02*
X156465700Y-75953600D01*
G75*
G02*
X156330700Y-76088600I-135000J0D01*
G01*
X155740700Y-76088600D01*
G75*
G02*
X155605700Y-75953600I0J135000D01*
G01*
X155605700Y-75953600D01*
G75*
G02*
X155740700Y-75818600I135000J0D01*
G01*
X156330700Y-75818600D01*
G75*
G02*
X156465700Y-75953600I0J-135000D01*
G01*
G37*
G36*
G01*
X156465700Y-76453600D02*
X156465700Y-76453600D01*
G75*
G02*
X156330700Y-76588600I-135000J0D01*
G01*
X155740700Y-76588600D01*
G75*
G02*
X155605700Y-76453600I0J135000D01*
G01*
X155605700Y-76453600D01*
G75*
G02*
X155740700Y-76318600I135000J0D01*
G01*
X156330700Y-76318600D01*
G75*
G02*
X156465700Y-76453600I0J-135000D01*
G01*
G37*
G36*
G01*
X156465700Y-76953600D02*
X156465700Y-76953600D01*
G75*
G02*
X156330700Y-77088600I-135000J0D01*
G01*
X155740700Y-77088600D01*
G75*
G02*
X155605700Y-76953600I0J135000D01*
G01*
X155605700Y-76953600D01*
G75*
G02*
X155740700Y-76818600I135000J0D01*
G01*
X156330700Y-76818600D01*
G75*
G02*
X156465700Y-76953600I0J-135000D01*
G01*
G37*
G36*
G01*
X155351100Y-78068200D02*
X155351100Y-78068200D01*
G75*
G02*
X155216100Y-77933200I0J135000D01*
G01*
X155216100Y-77343200D01*
G75*
G02*
X155351100Y-77208200I135000J0D01*
G01*
X155351100Y-77208200D01*
G75*
G02*
X155486100Y-77343200I0J-135000D01*
G01*
X155486100Y-77933200D01*
G75*
G02*
X155351100Y-78068200I-135000J0D01*
G01*
G37*
G36*
G01*
X154851100Y-78068200D02*
X154851100Y-78068200D01*
G75*
G02*
X154716100Y-77933200I0J135000D01*
G01*
X154716100Y-77343200D01*
G75*
G02*
X154851100Y-77208200I135000J0D01*
G01*
X154851100Y-77208200D01*
G75*
G02*
X154986100Y-77343200I0J-135000D01*
G01*
X154986100Y-77933200D01*
G75*
G02*
X154851100Y-78068200I-135000J0D01*
G01*
G37*
G36*
G01*
X154351100Y-78068200D02*
X154351100Y-78068200D01*
G75*
G02*
X154216100Y-77933200I0J135000D01*
G01*
X154216100Y-77343200D01*
G75*
G02*
X154351100Y-77208200I135000J0D01*
G01*
X154351100Y-77208200D01*
G75*
G02*
X154486100Y-77343200I0J-135000D01*
G01*
X154486100Y-77933200D01*
G75*
G02*
X154351100Y-78068200I-135000J0D01*
G01*
G37*
G36*
G01*
X153851100Y-78068200D02*
X153851100Y-78068200D01*
G75*
G02*
X153716100Y-77933200I0J135000D01*
G01*
X153716100Y-77343200D01*
G75*
G02*
X153851100Y-77208200I135000J0D01*
G01*
X153851100Y-77208200D01*
G75*
G02*
X153986100Y-77343200I0J-135000D01*
G01*
X153986100Y-77933200D01*
G75*
G02*
X153851100Y-78068200I-135000J0D01*
G01*
G37*
G36*
G01*
X153351100Y-78068200D02*
X153351100Y-78068200D01*
G75*
G02*
X153216100Y-77933200I0J135000D01*
G01*
X153216100Y-77343200D01*
G75*
G02*
X153351100Y-77208200I135000J0D01*
G01*
X153351100Y-77208200D01*
G75*
G02*
X153486100Y-77343200I0J-135000D01*
G01*
X153486100Y-77933200D01*
G75*
G02*
X153351100Y-78068200I-135000J0D01*
G01*
G37*
G36*
G01*
X152851100Y-78068200D02*
X152851100Y-78068200D01*
G75*
G02*
X152716100Y-77933200I0J135000D01*
G01*
X152716100Y-77343200D01*
G75*
G02*
X152851100Y-77208200I135000J0D01*
G01*
X152851100Y-77208200D01*
G75*
G02*
X152986100Y-77343200I0J-135000D01*
G01*
X152986100Y-77933200D01*
G75*
G02*
X152851100Y-78068200I-135000J0D01*
G01*
G37*
G36*
G01*
X152351100Y-78068200D02*
X152351100Y-78068200D01*
G75*
G02*
X152216100Y-77933200I0J135000D01*
G01*
X152216100Y-77343200D01*
G75*
G02*
X152351100Y-77208200I135000J0D01*
G01*
X152351100Y-77208200D01*
G75*
G02*
X152486100Y-77343200I0J-135000D01*
G01*
X152486100Y-77933200D01*
G75*
G02*
X152351100Y-78068200I-135000J0D01*
G01*
G37*
G36*
G01*
X151851100Y-78068200D02*
X151851100Y-78068200D01*
G75*
G02*
X151716100Y-77933200I0J135000D01*
G01*
X151716100Y-77343200D01*
G75*
G02*
X151851100Y-77208200I135000J0D01*
G01*
X151851100Y-77208200D01*
G75*
G02*
X151986100Y-77343200I0J-135000D01*
G01*
X151986100Y-77933200D01*
G75*
G02*
X151851100Y-78068200I-135000J0D01*
G01*
G37*
G36*
G01*
X151351100Y-78068200D02*
X151351100Y-78068200D01*
G75*
G02*
X151216100Y-77933200I0J135000D01*
G01*
X151216100Y-77343200D01*
G75*
G02*
X151351100Y-77208200I135000J0D01*
G01*
X151351100Y-77208200D01*
G75*
G02*
X151486100Y-77343200I0J-135000D01*
G01*
X151486100Y-77933200D01*
G75*
G02*
X151351100Y-78068200I-135000J0D01*
G01*
G37*
G36*
G01*
X150851100Y-78068200D02*
X150851100Y-78068200D01*
G75*
G02*
X150716100Y-77933200I0J135000D01*
G01*
X150716100Y-77343200D01*
G75*
G02*
X150851100Y-77208200I135000J0D01*
G01*
X150851100Y-77208200D01*
G75*
G02*
X150986100Y-77343200I0J-135000D01*
G01*
X150986100Y-77933200D01*
G75*
G02*
X150851100Y-78068200I-135000J0D01*
G01*
G37*
G36*
G01*
X150351100Y-78068200D02*
X150351100Y-78068200D01*
G75*
G02*
X150216100Y-77933200I0J135000D01*
G01*
X150216100Y-77343200D01*
G75*
G02*
X150351100Y-77208200I135000J0D01*
G01*
X150351100Y-77208200D01*
G75*
G02*
X150486100Y-77343200I0J-135000D01*
G01*
X150486100Y-77933200D01*
G75*
G02*
X150351100Y-78068200I-135000J0D01*
G01*
G37*
G36*
G01*
X149851100Y-78068200D02*
X149851100Y-78068200D01*
G75*
G02*
X149716100Y-77933200I0J135000D01*
G01*
X149716100Y-77343200D01*
G75*
G02*
X149851100Y-77208200I135000J0D01*
G01*
X149851100Y-77208200D01*
G75*
G02*
X149986100Y-77343200I0J-135000D01*
G01*
X149986100Y-77933200D01*
G75*
G02*
X149851100Y-78068200I-135000J0D01*
G01*
G37*
D12*
X148801100Y-67143600D03*
X148801100Y-68263600D03*
D38*
X122101100Y-70053600D03*
X122101100Y-68553600D03*
D12*
X123601100Y-68643600D03*
X123601100Y-69763600D03*
D48*
X172301100Y-73003600D03*
G36*
G01*
X170796500Y-74753600D02*
X170796500Y-74753600D01*
G75*
G02*
X170661500Y-74888600I-135000J0D01*
G01*
X170071500Y-74888600D01*
G75*
G02*
X169936500Y-74753600I0J135000D01*
G01*
X169936500Y-74753600D01*
G75*
G02*
X170071500Y-74618600I135000J0D01*
G01*
X170661500Y-74618600D01*
G75*
G02*
X170796500Y-74753600I0J-135000D01*
G01*
G37*
G36*
G01*
X170796500Y-74253600D02*
X170796500Y-74253600D01*
G75*
G02*
X170661500Y-74388600I-135000J0D01*
G01*
X170071500Y-74388600D01*
G75*
G02*
X169936500Y-74253600I0J135000D01*
G01*
X169936500Y-74253600D01*
G75*
G02*
X170071500Y-74118600I135000J0D01*
G01*
X170661500Y-74118600D01*
G75*
G02*
X170796500Y-74253600I0J-135000D01*
G01*
G37*
G36*
G01*
X170796500Y-73753600D02*
X170796500Y-73753600D01*
G75*
G02*
X170661500Y-73888600I-135000J0D01*
G01*
X170071500Y-73888600D01*
G75*
G02*
X169936500Y-73753600I0J135000D01*
G01*
X169936500Y-73753600D01*
G75*
G02*
X170071500Y-73618600I135000J0D01*
G01*
X170661500Y-73618600D01*
G75*
G02*
X170796500Y-73753600I0J-135000D01*
G01*
G37*
G36*
G01*
X170796500Y-73253600D02*
X170796500Y-73253600D01*
G75*
G02*
X170661500Y-73388600I-135000J0D01*
G01*
X170071500Y-73388600D01*
G75*
G02*
X169936500Y-73253600I0J135000D01*
G01*
X169936500Y-73253600D01*
G75*
G02*
X170071500Y-73118600I135000J0D01*
G01*
X170661500Y-73118600D01*
G75*
G02*
X170796500Y-73253600I0J-135000D01*
G01*
G37*
G36*
G01*
X170796500Y-72753600D02*
X170796500Y-72753600D01*
G75*
G02*
X170661500Y-72888600I-135000J0D01*
G01*
X170071500Y-72888600D01*
G75*
G02*
X169936500Y-72753600I0J135000D01*
G01*
X169936500Y-72753600D01*
G75*
G02*
X170071500Y-72618600I135000J0D01*
G01*
X170661500Y-72618600D01*
G75*
G02*
X170796500Y-72753600I0J-135000D01*
G01*
G37*
G36*
G01*
X170796500Y-72253600D02*
X170796500Y-72253600D01*
G75*
G02*
X170661500Y-72388600I-135000J0D01*
G01*
X170071500Y-72388600D01*
G75*
G02*
X169936500Y-72253600I0J135000D01*
G01*
X169936500Y-72253600D01*
G75*
G02*
X170071500Y-72118600I135000J0D01*
G01*
X170661500Y-72118600D01*
G75*
G02*
X170796500Y-72253600I0J-135000D01*
G01*
G37*
G36*
G01*
X170796500Y-71753600D02*
X170796500Y-71753600D01*
G75*
G02*
X170661500Y-71888600I-135000J0D01*
G01*
X170071500Y-71888600D01*
G75*
G02*
X169936500Y-71753600I0J135000D01*
G01*
X169936500Y-71753600D01*
G75*
G02*
X170071500Y-71618600I135000J0D01*
G01*
X170661500Y-71618600D01*
G75*
G02*
X170796500Y-71753600I0J-135000D01*
G01*
G37*
G36*
G01*
X170796500Y-71253600D02*
X170796500Y-71253600D01*
G75*
G02*
X170661500Y-71388600I-135000J0D01*
G01*
X170071500Y-71388600D01*
G75*
G02*
X169936500Y-71253600I0J135000D01*
G01*
X169936500Y-71253600D01*
G75*
G02*
X170071500Y-71118600I135000J0D01*
G01*
X170661500Y-71118600D01*
G75*
G02*
X170796500Y-71253600I0J-135000D01*
G01*
G37*
G36*
G01*
X174665700Y-71253600D02*
X174665700Y-71253600D01*
G75*
G02*
X174530700Y-71388600I-135000J0D01*
G01*
X173940700Y-71388600D01*
G75*
G02*
X173805700Y-71253600I0J135000D01*
G01*
X173805700Y-71253600D01*
G75*
G02*
X173940700Y-71118600I135000J0D01*
G01*
X174530700Y-71118600D01*
G75*
G02*
X174665700Y-71253600I0J-135000D01*
G01*
G37*
G36*
G01*
X174665700Y-71753600D02*
X174665700Y-71753600D01*
G75*
G02*
X174530700Y-71888600I-135000J0D01*
G01*
X173940700Y-71888600D01*
G75*
G02*
X173805700Y-71753600I0J135000D01*
G01*
X173805700Y-71753600D01*
G75*
G02*
X173940700Y-71618600I135000J0D01*
G01*
X174530700Y-71618600D01*
G75*
G02*
X174665700Y-71753600I0J-135000D01*
G01*
G37*
G36*
G01*
X174665700Y-72253600D02*
X174665700Y-72253600D01*
G75*
G02*
X174530700Y-72388600I-135000J0D01*
G01*
X173940700Y-72388600D01*
G75*
G02*
X173805700Y-72253600I0J135000D01*
G01*
X173805700Y-72253600D01*
G75*
G02*
X173940700Y-72118600I135000J0D01*
G01*
X174530700Y-72118600D01*
G75*
G02*
X174665700Y-72253600I0J-135000D01*
G01*
G37*
G36*
G01*
X174665700Y-72753600D02*
X174665700Y-72753600D01*
G75*
G02*
X174530700Y-72888600I-135000J0D01*
G01*
X173940700Y-72888600D01*
G75*
G02*
X173805700Y-72753600I0J135000D01*
G01*
X173805700Y-72753600D01*
G75*
G02*
X173940700Y-72618600I135000J0D01*
G01*
X174530700Y-72618600D01*
G75*
G02*
X174665700Y-72753600I0J-135000D01*
G01*
G37*
G36*
G01*
X174665700Y-73253600D02*
X174665700Y-73253600D01*
G75*
G02*
X174530700Y-73388600I-135000J0D01*
G01*
X173940700Y-73388600D01*
G75*
G02*
X173805700Y-73253600I0J135000D01*
G01*
X173805700Y-73253600D01*
G75*
G02*
X173940700Y-73118600I135000J0D01*
G01*
X174530700Y-73118600D01*
G75*
G02*
X174665700Y-73253600I0J-135000D01*
G01*
G37*
G36*
G01*
X174665700Y-73753600D02*
X174665700Y-73753600D01*
G75*
G02*
X174530700Y-73888600I-135000J0D01*
G01*
X173940700Y-73888600D01*
G75*
G02*
X173805700Y-73753600I0J135000D01*
G01*
X173805700Y-73753600D01*
G75*
G02*
X173940700Y-73618600I135000J0D01*
G01*
X174530700Y-73618600D01*
G75*
G02*
X174665700Y-73753600I0J-135000D01*
G01*
G37*
G36*
G01*
X174665700Y-74253600D02*
X174665700Y-74253600D01*
G75*
G02*
X174530700Y-74388600I-135000J0D01*
G01*
X173940700Y-74388600D01*
G75*
G02*
X173805700Y-74253600I0J135000D01*
G01*
X173805700Y-74253600D01*
G75*
G02*
X173940700Y-74118600I135000J0D01*
G01*
X174530700Y-74118600D01*
G75*
G02*
X174665700Y-74253600I0J-135000D01*
G01*
G37*
G36*
G01*
X174665700Y-74753600D02*
X174665700Y-74753600D01*
G75*
G02*
X174530700Y-74888600I-135000J0D01*
G01*
X173940700Y-74888600D01*
G75*
G02*
X173805700Y-74753600I0J135000D01*
G01*
X173805700Y-74753600D01*
G75*
G02*
X173940700Y-74618600I135000J0D01*
G01*
X174530700Y-74618600D01*
G75*
G02*
X174665700Y-74753600I0J-135000D01*
G01*
G37*
D33*
X177801100Y-67203600D03*
X177801100Y-70803600D03*
D31*
X186001100Y-75003600D03*
G36*
G01*
X184751100Y-73958350D02*
X184751100Y-73958350D01*
G75*
G02*
X184626100Y-73833350I0J125000D01*
G01*
X184626100Y-73272650D01*
G75*
G02*
X184751100Y-73147650I125000J0D01*
G01*
X184751100Y-73147650D01*
G75*
G02*
X184876100Y-73272650I0J-125000D01*
G01*
X184876100Y-73833350D01*
G75*
G02*
X184751100Y-73958350I-125000J0D01*
G01*
G37*
G36*
G01*
X185251100Y-73958350D02*
X185251100Y-73958350D01*
G75*
G02*
X185126100Y-73833350I0J125000D01*
G01*
X185126100Y-73272650D01*
G75*
G02*
X185251100Y-73147650I125000J0D01*
G01*
X185251100Y-73147650D01*
G75*
G02*
X185376100Y-73272650I0J-125000D01*
G01*
X185376100Y-73833350D01*
G75*
G02*
X185251100Y-73958350I-125000J0D01*
G01*
G37*
G36*
G01*
X185751100Y-73958350D02*
X185751100Y-73958350D01*
G75*
G02*
X185626100Y-73833350I0J125000D01*
G01*
X185626100Y-73272650D01*
G75*
G02*
X185751100Y-73147650I125000J0D01*
G01*
X185751100Y-73147650D01*
G75*
G02*
X185876100Y-73272650I0J-125000D01*
G01*
X185876100Y-73833350D01*
G75*
G02*
X185751100Y-73958350I-125000J0D01*
G01*
G37*
G36*
G01*
X186251100Y-73958350D02*
X186251100Y-73958350D01*
G75*
G02*
X186126100Y-73833350I0J125000D01*
G01*
X186126100Y-73272650D01*
G75*
G02*
X186251100Y-73147650I125000J0D01*
G01*
X186251100Y-73147650D01*
G75*
G02*
X186376100Y-73272650I0J-125000D01*
G01*
X186376100Y-73833350D01*
G75*
G02*
X186251100Y-73958350I-125000J0D01*
G01*
G37*
G36*
G01*
X186751100Y-73958350D02*
X186751100Y-73958350D01*
G75*
G02*
X186626100Y-73833350I0J125000D01*
G01*
X186626100Y-73272650D01*
G75*
G02*
X186751100Y-73147650I125000J0D01*
G01*
X186751100Y-73147650D01*
G75*
G02*
X186876100Y-73272650I0J-125000D01*
G01*
X186876100Y-73833350D01*
G75*
G02*
X186751100Y-73958350I-125000J0D01*
G01*
G37*
G36*
G01*
X187251100Y-73958350D02*
X187251100Y-73958350D01*
G75*
G02*
X187126100Y-73833350I0J125000D01*
G01*
X187126100Y-73272650D01*
G75*
G02*
X187251100Y-73147650I125000J0D01*
G01*
X187251100Y-73147650D01*
G75*
G02*
X187376100Y-73272650I0J-125000D01*
G01*
X187376100Y-73833350D01*
G75*
G02*
X187251100Y-73958350I-125000J0D01*
G01*
G37*
G36*
G01*
X187251100Y-76859550D02*
X187251100Y-76859550D01*
G75*
G02*
X187126100Y-76734550I0J125000D01*
G01*
X187126100Y-76173850D01*
G75*
G02*
X187251100Y-76048850I125000J0D01*
G01*
X187251100Y-76048850D01*
G75*
G02*
X187376100Y-76173850I0J-125000D01*
G01*
X187376100Y-76734550D01*
G75*
G02*
X187251100Y-76859550I-125000J0D01*
G01*
G37*
G36*
G01*
X186751100Y-76859550D02*
X186751100Y-76859550D01*
G75*
G02*
X186626100Y-76734550I0J125000D01*
G01*
X186626100Y-76173850D01*
G75*
G02*
X186751100Y-76048850I125000J0D01*
G01*
X186751100Y-76048850D01*
G75*
G02*
X186876100Y-76173850I0J-125000D01*
G01*
X186876100Y-76734550D01*
G75*
G02*
X186751100Y-76859550I-125000J0D01*
G01*
G37*
G36*
G01*
X186251100Y-76859550D02*
X186251100Y-76859550D01*
G75*
G02*
X186126100Y-76734550I0J125000D01*
G01*
X186126100Y-76173850D01*
G75*
G02*
X186251100Y-76048850I125000J0D01*
G01*
X186251100Y-76048850D01*
G75*
G02*
X186376100Y-76173850I0J-125000D01*
G01*
X186376100Y-76734550D01*
G75*
G02*
X186251100Y-76859550I-125000J0D01*
G01*
G37*
G36*
G01*
X185751100Y-76859550D02*
X185751100Y-76859550D01*
G75*
G02*
X185626100Y-76734550I0J125000D01*
G01*
X185626100Y-76173850D01*
G75*
G02*
X185751100Y-76048850I125000J0D01*
G01*
X185751100Y-76048850D01*
G75*
G02*
X185876100Y-76173850I0J-125000D01*
G01*
X185876100Y-76734550D01*
G75*
G02*
X185751100Y-76859550I-125000J0D01*
G01*
G37*
G36*
G01*
X185251100Y-76859550D02*
X185251100Y-76859550D01*
G75*
G02*
X185126100Y-76734550I0J125000D01*
G01*
X185126100Y-76173850D01*
G75*
G02*
X185251100Y-76048850I125000J0D01*
G01*
X185251100Y-76048850D01*
G75*
G02*
X185376100Y-76173850I0J-125000D01*
G01*
X185376100Y-76734550D01*
G75*
G02*
X185251100Y-76859550I-125000J0D01*
G01*
G37*
G36*
G01*
X184751100Y-76859550D02*
X184751100Y-76859550D01*
G75*
G02*
X184626100Y-76734550I0J125000D01*
G01*
X184626100Y-76173850D01*
G75*
G02*
X184751100Y-76048850I125000J0D01*
G01*
X184751100Y-76048850D01*
G75*
G02*
X184876100Y-76173850I0J-125000D01*
G01*
X184876100Y-76734550D01*
G75*
G02*
X184751100Y-76859550I-125000J0D01*
G01*
G37*
D49*
X190801100Y-70103600D03*
X187201100Y-70103600D03*
D50*
X190528100Y-78615000D03*
X190502700Y-74195400D03*
D13*
X187561100Y-81803600D03*
X186441100Y-81803600D03*
X184461100Y-81803600D03*
X183341100Y-81803600D03*
X184461100Y-79203600D03*
X183341100Y-79203600D03*
X176741100Y-73003600D03*
X177861100Y-73003600D03*
D51*
X188876100Y-112053600D03*
X188876100Y-109953600D03*
X190326100Y-109953600D03*
X190326100Y-112053600D03*
D52*
X156430700Y-66003600D03*
X158571500Y-65053600D03*
X158571500Y-66953600D03*
X161871500Y-64103600D03*
X159730700Y-65053600D03*
X159730700Y-63153600D03*
D12*
X158401100Y-63063600D03*
X158401100Y-61943600D03*
X115901100Y-110243600D03*
X115901100Y-111363600D03*
X115901100Y-107743600D03*
X115901100Y-108863600D03*
D13*
X115841100Y-112603600D03*
X116961100Y-112603600D03*
D12*
X117001100Y-117563600D03*
X117001100Y-116443600D03*
D13*
X115841100Y-115203600D03*
X116961100Y-115203600D03*
X115841100Y-118803600D03*
X116961100Y-118803600D03*
D12*
X104101100Y-98443600D03*
X104101100Y-99563600D03*
X102901100Y-97143600D03*
X102901100Y-98263600D03*
X102901100Y-100863600D03*
X102901100Y-99743600D03*
X106701100Y-102863600D03*
X106701100Y-101743600D03*
D13*
X105441100Y-100503600D03*
X106561100Y-100503600D03*
D12*
X108101100Y-101743600D03*
X108101100Y-102863600D03*
X196801100Y-100463600D03*
X196801100Y-99343600D03*
D13*
X195641100Y-101703600D03*
X196761100Y-101703600D03*
D12*
X195501100Y-100463600D03*
X195501100Y-99343600D03*
X192601100Y-98343600D03*
X192601100Y-99463600D03*
D13*
X193861100Y-101003600D03*
X192741100Y-101003600D03*
X193561100Y-96903600D03*
X192441100Y-96903600D03*
D12*
X172901100Y-140643600D03*
X172901100Y-141763600D03*
D13*
X168061100Y-131703600D03*
X166941100Y-131703600D03*
D17*
G36*
X175356176Y-141040481D02*
G01*
X174847059Y-140531364D01*
X175320820Y-140057603D01*
X175829937Y-140566720D01*
X175356176Y-141040481D01*
G37*
G36*
X174564216Y-141832441D02*
G01*
X174055099Y-141323324D01*
X174528860Y-140849563D01*
X175037977Y-141358680D01*
X174564216Y-141832441D01*
G37*
D12*
X136801100Y-130443600D03*
X136801100Y-131563600D03*
D13*
X135641100Y-129303600D03*
X136761100Y-129303600D03*
X135641100Y-132803600D03*
X136761100Y-132803600D03*
D12*
X138001100Y-130443600D03*
X138001100Y-131563600D03*
D13*
X139161100Y-129303600D03*
X138041100Y-129303600D03*
X139161100Y-132803600D03*
X138041100Y-132803600D03*
D12*
X106401100Y-120143600D03*
X106401100Y-121263600D03*
D13*
X105141100Y-118803600D03*
X106261100Y-118803600D03*
X105141100Y-122503600D03*
X106261100Y-122503600D03*
D12*
X141501100Y-130343600D03*
X141501100Y-131463600D03*
X141501100Y-127943600D03*
X141501100Y-129063600D03*
X141501100Y-134463600D03*
X141501100Y-133343600D03*
X154801100Y-112943600D03*
X154801100Y-114063600D03*
X156801100Y-114063600D03*
X156801100Y-112943600D03*
X153501100Y-112943600D03*
X153501100Y-114063600D03*
X159901100Y-112943600D03*
X159901100Y-114063600D03*
X161101100Y-114063600D03*
X161101100Y-112943600D03*
X158001100Y-112943600D03*
X158001100Y-114063600D03*
D13*
X135441100Y-122803600D03*
X136561100Y-122803600D03*
X132441100Y-122403600D03*
X133561100Y-122403600D03*
D12*
X154001100Y-117943600D03*
X154001100Y-119063600D03*
D13*
X137841100Y-123603600D03*
X138961100Y-123603600D03*
X132841100Y-123603600D03*
X133961100Y-123603600D03*
D12*
X154501100Y-120343600D03*
X154501100Y-121463600D03*
D13*
X135441100Y-124403600D03*
X136561100Y-124403600D03*
X128941100Y-120803600D03*
X130061100Y-120803600D03*
X154361100Y-122803600D03*
X153241100Y-122803600D03*
X137841100Y-125203600D03*
X138961100Y-125203600D03*
X128941100Y-122003600D03*
X130061100Y-122003600D03*
X154361100Y-124003600D03*
X153241100Y-124003600D03*
X136561100Y-127603600D03*
X135441100Y-127603600D03*
X150841100Y-128003600D03*
X151961100Y-128003600D03*
D12*
X133601100Y-129063600D03*
X133601100Y-127943600D03*
D13*
X138961100Y-126803600D03*
X137841100Y-126803600D03*
D12*
X153201100Y-128063600D03*
X153201100Y-126943600D03*
X133601100Y-125543600D03*
X133601100Y-126663600D03*
D13*
X136561100Y-126003600D03*
X135441100Y-126003600D03*
D12*
X154401100Y-128063600D03*
X154401100Y-126943600D03*
D13*
X128941100Y-123203600D03*
X130061100Y-123203600D03*
D12*
X126601100Y-100063600D03*
X126601100Y-98943600D03*
X125401100Y-100063600D03*
X125401100Y-98943600D03*
D13*
X141461100Y-110003600D03*
X140341100Y-110003600D03*
D12*
X124201100Y-100063600D03*
X124201100Y-98943600D03*
D13*
X144241100Y-94403600D03*
X145361100Y-94403600D03*
X147061100Y-91703600D03*
X145941100Y-91703600D03*
D12*
X157701100Y-95843600D03*
X157701100Y-96963600D03*
D13*
X138541100Y-92903600D03*
X139661100Y-92903600D03*
X142741100Y-91703600D03*
X143861100Y-91703600D03*
X139741100Y-91703600D03*
X140861100Y-91703600D03*
X162261100Y-104703600D03*
X161141100Y-104703600D03*
X135941100Y-96103600D03*
X137061100Y-96103600D03*
X132941100Y-96103600D03*
X134061100Y-96103600D03*
X162261100Y-106003600D03*
X161141100Y-106003600D03*
X139741100Y-96103600D03*
X140861100Y-96103600D03*
X142341100Y-92903600D03*
X143461100Y-92903600D03*
X142941100Y-96103600D03*
X144061100Y-96103600D03*
D12*
X92601100Y-133363600D03*
X92601100Y-132243600D03*
D13*
X91341100Y-130903600D03*
X92461100Y-130903600D03*
X91341100Y-134703600D03*
X92461100Y-134703600D03*
D12*
X92601100Y-136043600D03*
X92601100Y-137163600D03*
D13*
X121641100Y-134203600D03*
X122761100Y-134203600D03*
D12*
X122901100Y-131843600D03*
X122901100Y-132963600D03*
X120401100Y-132443600D03*
X120401100Y-133563600D03*
D17*
G36*
X122296559Y-135689942D02*
G01*
X121787442Y-136199059D01*
X121313681Y-135725298D01*
X121822798Y-135216181D01*
X122296559Y-135689942D01*
G37*
G36*
X123088519Y-136481902D02*
G01*
X122579402Y-136991019D01*
X122105641Y-136517258D01*
X122614758Y-136008141D01*
X123088519Y-136481902D01*
G37*
D13*
X174141100Y-108003600D03*
X175261100Y-108003600D03*
X170141100Y-108003600D03*
X171261100Y-108003600D03*
X170141100Y-112403600D03*
X171261100Y-112403600D03*
X174141100Y-112403600D03*
X175261100Y-112403600D03*
D12*
X186201100Y-115163600D03*
X186201100Y-114043600D03*
X188601100Y-114043600D03*
X188601100Y-115163600D03*
M02*
