M48
;GenerationSoftware,Autodesk,EAGLE,9.3.1*%
;CreationDate,2022-11-19T14:50:40Z*%
FMAT,2
ICI,OFF
METRIC,TZ,000.000
T7C0.250
T6C0.600
T5C0.800
T4C1.016
T3C1.200
T2C3.200
%
G90
M71
T2
X44000Y500
X119500Y21500
X119500Y63500
X119500Y93500
X95500Y12500
X78000Y500
X70500Y10000
X70500Y32500
X55500Y30500
X50000Y10000
X97500Y62500
X32500Y13500
X24000Y28500
X26500Y48000
X2500Y57500
X2500Y28500
X2500Y500
X2500Y93500
X61500Y42500
X107500Y35500
X119500Y500
T3
X51500Y93000
T4
X5430Y72590
X5430Y67510
X7970Y75130
X5430Y75130
X7970Y77670
X5430Y77670
X7970Y80210
X5430Y80210
X7970Y82750
X5430Y82750
X7970Y85290
X5430Y85290
X7970Y87830
X5430Y87830
X5430Y70050
X7970Y70050
X7970Y67510
X5430Y64970
X7970Y64970
X44130Y89790
X41590Y89790
X39050Y89790
X36510Y89790
X33970Y89790
X31430Y89790
X28890Y89790
X26350Y89790
X23810Y89790
X21270Y89790
X7970Y72590
T5
X47750Y88000
X51450Y88000
X55250Y88000
T6
X59680Y89200
X59680Y93400
X68320Y89200
X68300Y93400
X61110Y89700
X66890Y89700
T7
X105000Y37000
X101000Y34000
X105000Y36000
X105000Y35000
X105000Y34000
X110000Y33000
X106000Y33000
X107000Y33000
X108000Y33000
X104000Y35000
X104000Y33000
X103000Y34000
X102000Y33000
X108000Y39000
X100000Y33000
X98000Y33000
X99000Y34000
X97000Y34000
X82000Y15000
X77000Y9000
X64000Y60000
X78000Y8000
X80000Y8000
X79000Y9000
X78000Y10000
X77000Y11000
X82000Y14000
X110000Y34000
X84000Y14000
X83000Y15000
X86000Y14000
X87000Y15000
X96000Y33000
X110000Y38000
X110000Y36000
X110000Y35000
X96000Y15000
X98000Y21000
X97000Y21000
X98000Y20000
X97000Y19000
X98000Y18000
X97000Y17000
X96000Y16000
X98000Y16000
X97000Y15000
X95000Y15000
X98000Y22000
X93000Y13000
X93000Y11000
X95000Y10000
X96000Y10000
X97000Y10000
X98000Y12000
X98000Y13000
X98000Y14000
X92000Y12000
X89000Y15000
X98000Y30000
X95000Y33000
X94000Y34000
X93000Y33000
X91000Y33000
X90000Y33000
X90000Y34000
X96000Y32000
X98000Y32000
X99000Y32000
X97000Y31000
X88000Y14000
X97000Y29000
X97000Y28000
X98000Y28000
X98000Y29000
X97000Y24000
X98000Y24000
X98000Y23000
X97000Y23000
X97000Y22000
X84000Y48000
X77000Y41000
X77000Y42000
X77000Y43000
X78000Y44000
X78000Y42000
X79000Y43000
X79000Y45000
X78000Y46000
X79000Y47000
X80000Y46000
X81000Y47000
X76000Y41000
X83000Y49000
X81000Y49000
X80000Y48000
X56000Y20000
X57000Y20000
X86000Y34000
X75000Y34000
X76000Y34000
X77000Y34000
X75000Y33000
X76000Y33000
X68000Y41000
X58000Y95000
X63000Y59000
X61000Y59000
X62000Y60000
X63000Y61000
X62000Y58000
X60000Y46000
X61000Y46000
X61000Y45000
X65000Y42000
X64000Y41000
X77000Y33000
X69000Y42000
X70000Y41000
X71000Y42000
X71000Y41000
X72000Y41000
X73000Y42000
X74000Y41000
X75000Y41000
X75000Y42000
X76000Y42000
X104000Y45000
X113000Y65000
X113000Y64000
X114000Y64000
X115000Y65000
X116200Y64500
X99000Y48000
X98000Y47000
X100000Y47000
X101000Y47000
X104000Y47000
X103000Y46000
X112000Y65000
X105000Y46000
X106000Y47000
X106000Y45000
X105000Y44000
X106000Y43000
X105000Y42000
X106000Y38000
X106000Y39000
X107000Y39000
X107000Y38000
X104000Y65000
X85000Y34000
X85000Y33000
X86000Y33000
X92000Y34000
X93000Y12000
X60000Y57000
X61000Y57000
X62000Y57000
X101000Y65000
X102000Y64000
X103000Y65000
X108000Y38000
X105000Y65000
X104000Y64000
X105000Y64000
X106000Y64000
X107000Y65000
X108000Y64000
X109000Y65000
X110000Y64000
X111000Y65000
X112000Y64000
X6000Y94000
X15000Y59000
X23000Y54000
X23000Y52000
X24000Y53000
X37000Y47000
X37000Y49000
X36000Y50000
X35000Y49000
X36000Y48000
X71800Y80000
X13000Y59000
X7000Y95000
X8000Y94000
X9000Y95000
X10000Y94000
X11000Y95000
X12000Y94000
X13000Y95000
X14000Y94000
X15000Y95000
X16000Y94000
X26000Y36000
X30000Y13000
X25000Y45000
X26000Y44000
X25000Y43000
X26000Y42000
X25000Y41000
X26000Y40000
X25000Y39000
X26000Y38000
X25000Y37000
X17000Y95000
X24000Y31000
X26000Y25000
X6000Y58000
X7000Y59000
X8000Y58000
X9000Y59000
X10000Y58000
X11000Y59000
X12000Y58000
X49000Y95000
X39000Y95000
X40000Y94000
X41000Y95000
X42000Y94000
X43000Y95000
X44000Y94000
X45000Y95000
X46000Y94000
X47000Y95000
X48000Y94000
X38000Y94000
X50000Y94000
X51000Y95000
X52000Y94000
X53000Y95000
X54000Y94000
X55000Y95000
X56000Y94000
X57000Y95000
X58000Y94000
X20000Y4800
X28000Y94000
X18000Y94000
X19000Y95000
X20000Y94000
X21000Y95000
X22000Y94000
X23000Y95000
X24000Y94000
X25000Y95000
X26000Y94000
X27000Y95000
X30000Y14000
X29000Y95000
X30000Y94000
X31000Y95000
X32000Y94000
X33000Y95000
X34000Y94000
X35000Y95000
X36000Y94000
X37000Y95000
X81000Y13000
X78000Y13000
X79000Y13000
X80000Y14000
X81000Y15000
X78000Y14000
X77000Y14000
X79000Y11000
X78000Y12000
X79000Y12000
X80000Y12000
X77000Y13000
X82000Y11000
X82000Y10000
X82000Y8000
X81000Y9000
X80000Y10000
X80000Y11000
X81000Y11000
X82000Y12000
X83000Y13000
X53000Y10000
X75000Y13000
X76000Y8000
X75000Y9000
X74000Y8000
X73000Y9000
X74000Y10000
X73000Y10000
X73000Y11000
X74000Y12000
X75000Y11000
X76000Y12000
X54000Y9000
X73000Y13000
X71000Y13000
X72000Y14000
X70000Y14000
X69000Y13000
X69000Y15000
X70000Y16000
X74000Y14000
X76000Y14000
X25000Y20000
X37000Y10000
X37000Y9000
X38000Y8000
X39000Y8000
X34000Y11000
X36000Y8000
X36000Y10000
X35000Y10000
X26000Y21000
X25000Y22000
X38000Y10000
X26000Y19000
X25000Y18000
X26000Y17000
X25000Y16000
X26000Y15000
X28000Y15000
X27000Y14000
X28000Y13000
X29000Y14000
X30000Y15000
X43000Y10000
X55000Y10000
X56000Y9000
X55000Y8000
X53000Y8000
X47000Y10000
X47000Y8000
X46000Y9000
X45000Y10000
X45000Y8000
X44000Y9000
X76000Y10000
X43000Y8000
X42000Y9000
X41000Y10000
X41000Y8000
X40000Y8000
X40000Y9000
X39000Y10000
X39000Y9000
X38000Y9000
X79100Y4200
X66900Y5100
X67800Y4600
X71100Y4200
X72100Y4200
X73100Y4200
X74100Y4200
X75100Y4200
X76100Y4200
X77100Y4200
X78100Y4200
X66000Y5600
X80100Y4200
X81100Y4200
X82100Y4200
X83100Y4200
X84100Y4200
X85100Y4300
X86000Y4500
X86700Y4900
X87400Y5300
X86200Y6600
X91600Y14400
X80500Y5800
X81300Y6300
X81900Y6900
X82500Y7500
X83100Y8100
X90600Y15600
X89500Y14500
X88500Y13500
X90600Y13400
X89600Y12300
X85400Y6100
X92700Y15500
X94000Y21000
X94000Y20000
X94000Y19000
X94000Y18000
X94000Y17000
X93400Y16200
X63100Y5000
X65200Y5900
X104100Y9950
X96000Y4750
X97000Y4750
X98000Y4750
X99000Y4950
X100000Y5350
X100900Y5950
X101600Y6650
X102300Y7450
X102900Y8250
X103500Y9050
X95000Y4750
X104700Y10850
X105100Y11650
X105900Y12150
X106400Y13050
X106700Y14250
X107500Y13950
X108200Y13350
X108800Y12550
X109100Y11650
X108500Y10000
X59000Y55000
X84500Y5800
X83700Y5800
X83000Y5800
X83900Y6600
X62000Y56000
X61000Y56000
X60000Y56000
X60000Y55000
X61000Y55000
X62000Y55000
X79500Y5800
X95000Y6550
X94000Y6650
X93000Y6650
X92000Y6550
X90500Y5350
X91100Y4850
X92000Y4650
X93000Y4550
X94000Y4550
X50800Y4200
X40800Y4200
X41800Y4200
X42800Y4200
X43800Y4200
X44800Y4200
X45800Y4200
X46800Y4200
X47800Y4200
X48800Y4200
X49800Y4200
X39800Y4200
X51800Y4200
X52800Y4200
X53800Y4200
X56500Y5400
X57100Y5800
X24700Y6400
X25500Y6500
X26300Y6600
X27200Y6600
X32600Y6600
X29900Y4400
X7600Y6400
X21000Y4800
X22000Y4800
X23000Y4800
X24000Y4800
X25000Y4800
X26000Y4600
X27000Y4600
X28000Y4700
X29000Y4800
X33300Y6200
X30800Y4200
X31800Y4200
X32800Y4200
X33800Y4200
X34800Y4200
X35800Y4200
X36800Y4200
X37800Y4200
X38800Y4200
X68600Y6100
X54700Y6100
X55400Y6600
X56100Y7100
X56900Y7700
X57800Y7800
X64000Y7800
X65000Y7600
X66000Y7300
X66900Y7000
X67700Y6500
X53800Y5900
X69500Y5900
X70500Y5800
X71500Y5800
X72500Y5800
X73500Y5800
X74500Y5800
X75500Y5800
X76500Y5800
X77500Y5800
X78500Y5800
X43800Y5800
X34000Y5900
X34800Y5800
X35800Y5800
X36800Y5800
X37800Y5800
X38800Y5800
X39800Y5800
X40800Y5800
X41800Y5800
X42800Y5800
X108500Y11000
X44800Y5800
X45800Y5800
X46800Y5800
X47800Y5800
X48800Y5800
X49800Y5800
X50800Y5800
X51800Y5800
X52900Y5800
X97000Y50000
X43000Y51500
X45900Y51100
X87000Y49000
X86000Y49000
X86000Y48000
X88000Y48000
X89000Y49000
X90000Y48000
X94000Y49000
X95000Y48000
X44500Y49900
X92000Y49000
X93000Y48000
X96000Y50000
X97000Y48000
X99000Y50000
X99000Y52000
X98000Y53000
X99000Y54000
X99000Y56000
X98000Y55000
X51000Y53000
X61000Y53000
X60000Y54000
X58000Y54000
X59000Y53000
X57000Y53000
X56000Y54000
X55000Y53000
X54000Y54000
X53000Y53000
X52000Y54000
X98000Y57000
X50000Y54000
X49000Y53000
X48000Y54000
X47000Y53000
X45000Y53000
X46000Y52000
X48000Y52000
X45000Y51000
X44000Y52000
X71000Y61000
X82000Y61000
X81000Y62000
X79000Y62000
X80000Y61000
X78000Y61000
X77000Y62000
X76000Y61000
X75000Y62000
X72000Y61000
X71000Y62000
X82000Y62000
X70000Y61000
X70000Y62000
X69000Y61000
X69000Y62000
X68000Y62000
X67000Y62000
X67000Y61000
X66000Y62000
X65000Y62000
X65000Y61000
X87000Y62000
X99000Y58000
X98000Y58900
X98000Y60000
X99000Y60000
X94000Y61000
X93000Y62000
X94000Y63000
X97000Y60000
X95900Y60300
X86000Y62000
X40000Y46000
X88000Y62000
X89000Y61000
X91000Y62000
X92000Y61000
X88000Y61000
X87000Y61000
X86000Y61000
X84000Y62000
X83000Y61000
X110800Y9000
X109200Y2000
X109200Y1000
X110800Y1000
X110800Y2000
X110800Y3000
X110800Y4000
X110800Y5000
X111000Y6000
X111000Y7000
X110900Y8000
X109200Y3000
X110800Y10000
X110800Y11000
X110700Y12000
X110400Y12900
X110000Y13700
X109500Y14400
X108700Y15100
X108000Y15500
X107100Y15900
X64300Y6100
X102800Y12300
X108500Y9000
X98000Y6400
X98900Y6600
X99700Y7000
X100300Y7600
X100900Y8300
X101500Y9000
X102000Y9700
X102500Y10500
X103000Y11300
X41100Y49500
X102300Y13200
X102000Y14200
X101000Y14200
X109100Y8300
X109000Y7500
X109000Y6600
X109000Y5700
X109200Y5000
X109200Y4000
X41000Y45000
X42700Y35000
X43900Y34000
X42000Y38000
X41000Y39000
X42000Y40000
X41000Y41000
X42000Y42000
X42100Y36000
X42000Y44000
X42000Y46000
X43400Y37000
X41000Y43000
X60000Y32000
X60000Y31000
X61600Y32000
X61600Y31000
X41000Y47000
X40000Y48000
X39000Y49000
X38000Y48000
X39000Y47000
X49300Y32800
X42000Y50400
X42700Y49600
X42000Y48700
X43600Y48800
X42900Y47700
X53000Y32000
X51000Y32000
X52000Y31000
X52400Y30300
X50000Y31000
X66000Y60000
X48000Y31800
X48100Y30800
X47200Y31200
X46100Y31900
X45100Y32600
X45900Y34100
X47000Y33400
X44800Y34900
X44000Y35900
X87500Y85500
X113500Y79000
X112500Y80100
X111400Y80100
X111400Y79000
X111400Y81200
X22000Y58000
X41000Y65800
X35700Y74000
X29100Y66100
X35200Y60800
X38700Y63100
X112500Y79000
X87500Y86400
X88400Y86400
X89300Y86400
X90200Y86400
X82000Y81100
X67700Y70500
X47400Y59700
X72100Y74900
X47000Y57600
X52400Y71400
X31100Y27900
X38900Y12800
X47000Y12200
X38800Y22600
X39600Y29100
X38700Y38400
X90500Y21300
X88750Y20900
X84400Y19400
X83600Y19400
X30700Y27300
X58371Y72171
X31700Y27300
X21800Y47900
X21800Y48600
X21800Y49300
X94000Y51000
X94800Y51000
X93000Y51000
X100800Y49700
X101600Y49700
X102400Y49700
X34600Y41200
X50600Y42500
X37700Y54600
X51800Y42500
X38700Y57200
X51800Y41500
X37300Y57200
X50600Y41500
X36700Y54600
X5000Y54000
X113000Y58700
X110900Y67900
X57500Y6900
X32200Y5900
X65100Y6800
X84000Y5000
X12100Y35150
X11700Y43400
X13900Y52500
X12200Y17850
X16800Y48400
X102000Y26500
X40800Y76700
X52000Y72750
X58900Y72800
X51700Y70900
X58471Y70871
X59100Y69500
X44500Y69100
X65600Y73500
X58900Y80000
X42600Y76800
X67393Y72300
X32700Y17200
X66100Y73000
X43400Y76800
X66700Y72650
X12100Y54400
X25600Y62400
X13700Y54400
X25600Y61000
X112600Y60000
X112000Y67000
X114200Y62300
X30200Y54600
X47000Y27400
X43500Y31200
X31700Y57200
X48500Y26800
X43500Y30000
X31200Y54600
X47000Y26000
X43500Y28800
X30700Y57200
X48500Y25200
X32700Y57200
X47000Y24400
X29700Y57200
X53000Y21700
X88200Y27900
X92000Y20500
X81500Y29000
X82200Y29000
X90487Y26900
X90487Y27600
X93700Y22100
X81700Y57900
X51700Y57000
X42700Y57200
X54300Y60300
X43200Y54600
X47500Y55900
X42200Y54600
X51300Y55900
X81400Y27600
X80200Y27600
X80800Y27600
X92900Y22100
X82400Y57900
X83100Y57900
X34300Y54600
X71500Y39100
X62200Y24500
X63100Y30700
X33700Y57200
X47000Y29500
X33200Y54600
X48500Y28400
X103600Y61300
X7700Y28400
X17500Y27100
X9800Y17500
X5400Y44600
X34000Y43278
X27900Y57200
X12900Y54400
X25600Y61700
X32500Y43000
X26200Y57200
X19000Y37000
X102700Y61300
X116300Y52600
X118100Y45800
X102200Y27500
X110500Y30400
X114900Y22200
X109600Y56400
X33204Y42996
X26500Y57900
X32000Y17200
X83400Y21100
X5100Y13700
X91600Y23700
X91600Y25300
X105600Y31400
X83900Y20300
X47400Y62225
X84800Y21900
X44800Y63700
X84100Y21500
X47400Y63200
X106300Y49000
X44800Y62700
X84600Y25900
X44800Y67300
X85100Y27000
X47400Y67700
X84600Y23600
X44800Y65200
X35700Y14600
X91600Y24500
X19000Y38000
X71500Y48600
X52400Y28400
X64700Y28800
X50900Y27600
X64800Y28000
X52400Y26800
X64700Y25600
X50900Y24400
X64800Y26400
X52400Y25200
X64800Y27200
X50900Y26000
X64200Y29500
X56900Y59100
X71000Y47500
X50500Y55900
X68300Y54100
X58800Y57600
X70500Y52700
X53100Y58300
X70200Y53700
X55700Y57300
X68900Y53700
X48300Y20300
X25700Y52200
X16600Y54500
X21300Y60400
X18000Y53000
X20800Y59800
X44700Y68200
X106200Y53800
X47600Y69100
X104800Y56100
X59190Y4310
X57600Y56100
X53700Y16400
X59200Y5200
X51400Y20300
X54400Y16400
X27500Y10500
X18800Y25800
X54000Y19600
X59000Y19600
X64100Y30300
X50900Y29200
X36400Y28700
X110600Y43800
X117000Y43400
X106975Y57000
X45000Y22600
X39300Y14000
X43700Y13400
X44200Y17700
X39011Y17989
X38900Y19200
X43400Y18150
X117300Y50400
X33600Y24000
X34000Y32000
X36400Y33200
X31200Y40200
X35500Y39500
X39000Y42000
X72800Y48300
X72800Y52700
X84500Y24900
X84500Y22650
X9700Y25000
X71500Y51100
X54300Y55900
X15700Y39400
X10000Y39600
X13500Y44500
X15800Y42000
X9700Y23800
X16300Y24800
X14892Y18892
X10700Y18665
X30300Y36800
X15050Y22600
X9800Y22535
X103065Y27900
X107000Y27900
X102775Y23925
X111600Y22300
X106975Y23825
X109400Y23700
X108200Y28300
X113600Y49200
X39300Y76700
X36500Y57400
X68300Y39200
X84000Y66400
X93000Y36800
X114200Y59400
X111600Y67600
X24200Y84700
X20000Y81000
X87600Y72600
X81900Y76800
X85400Y12300
X12100Y81200
X38700Y79400
X15100Y81200
X38200Y76700
X18100Y81200
X37800Y79400
X21100Y81200
X37100Y79400
X24100Y81200
X36400Y76600
X58900Y78100
X112000Y47700
X113100Y39100
X110200Y50300
X40000Y12500
X30400Y33200
X38000Y24000
X32200Y30600
X30500Y39400
X28700Y57200
X51400Y21600
X27500Y81400
X65000Y83500
X62400Y87600
X64400Y82700
X60100Y78100
X29200Y54600
X48300Y21600
X21000Y59000
X20100Y33200
X44700Y61700
X78800Y20200
X74400Y86900
X88000Y78750
X86900Y81650
X85700Y81650
X86300Y81350
X87000Y76350
X85600Y76350
X86300Y76350
X81900Y78000
X88000Y79500
X74400Y88900
X96100Y79700
X75200Y86900
X75200Y88900
X75700Y88300
X75700Y87500
X70000Y82000
X97500Y79300
X98800Y79300
X98000Y70200
X29500Y41700
X24900Y54400
X66400Y82100
X44800Y69800
X55400Y68900
X52400Y70100
X44500Y58800
X54400Y67100
X55400Y71300
X56000Y67200
X55400Y70100
X52000Y73500
X68600Y71800
X40200Y54600
X58500Y76400
X67200Y82100
X59100Y75800
X25600Y66900
X25600Y67700
X25600Y68500
X25600Y69300
X25600Y70100
X96100Y81300
X96100Y80500
X1000Y91000
X120000Y10000
X121000Y9000
X120000Y8000
X121000Y7000
X120000Y6000
X120000Y4000
X121000Y5000
X117000Y2000
X116000Y1000
X116000Y2000
X2000Y90000
X121000Y11000
X5000Y95000
X1000Y89000
X2000Y88000
X1000Y87000
X2000Y86000
X1000Y85000
X2000Y84000
X1000Y83000
X2000Y82000
X1000Y81000
X121000Y26000
X121000Y36000
X120000Y35000
X121000Y34000
X120000Y33000
X121000Y32000
X120000Y31000
X121000Y30000
X120000Y29000
X121000Y28000
X120000Y27000
X2000Y80000
X120000Y25000
X119000Y25000
X120000Y18000
X119000Y18000
X120000Y16000
X121000Y17000
X121000Y15000
X120000Y14000
X121000Y13000
X120000Y12000
X2000Y41000
X2000Y51000
X1000Y50000
X2000Y49000
X1000Y48000
X2000Y47000
X1000Y46000
X2000Y45000
X1000Y44000
X2000Y43000
X1000Y42000
X1000Y52000
X1000Y40000
X2000Y39000
X1000Y38000
X2000Y37000
X1000Y36000
X2000Y35000
X1000Y34000
X2000Y33000
X1000Y32000
X3000Y32000
X1000Y69000
X1000Y79000
X2000Y78000
X1000Y77000
X2000Y76000
X1000Y75000
X2000Y74000
X1000Y73000
X2000Y72000
X1000Y71000
X2000Y70000
X120000Y37000
X2000Y68000
X1000Y67000
X2000Y66000
X1000Y65000
X2000Y64000
X1000Y63000
X2000Y62000
X1000Y61000
X1000Y54000
X2000Y53000
X112000Y89000
X83000Y95000
X84000Y94000
X85000Y95000
X86000Y94000
X87000Y95000
X88000Y94000
X89000Y95000
X94000Y89000
X96000Y89000
X110000Y89000
X82000Y94000
X104000Y95000
X105000Y94000
X103000Y94000
X102000Y95000
X101000Y94000
X120000Y90000
X121000Y91000
X121000Y89000
X120000Y88000
X121000Y87000
X71000Y95000
X62000Y95000
X61000Y94000
X63000Y94000
X64000Y95000
X65000Y94000
X66000Y95000
X67000Y94000
X68000Y95000
X69000Y95000
X70000Y94000
X120000Y86000
X72000Y94000
X73000Y95000
X74000Y94000
X75000Y95000
X76000Y94000
X77000Y95000
X78000Y94000
X79000Y95000
X80000Y94000
X81000Y95000
X121000Y48000
X120000Y57000
X121000Y58000
X121000Y56000
X120000Y55000
X121000Y54000
X120000Y53000
X121000Y52000
X120000Y51000
X121000Y50000
X120000Y49000
X120000Y59000
X120000Y47000
X121000Y46000
X120000Y45000
X121000Y44000
X120000Y43000
X121000Y42000
X120000Y41000
X121000Y40000
X120000Y39000
X121000Y38000
X121000Y75000
X121000Y85000
X120000Y84000
X121000Y83000
X120000Y82000
X121000Y81000
X120000Y80000
X121000Y79000
X120000Y78000
X121000Y77000
X120000Y76000
X3000Y25000
X120000Y74000
X120000Y73000
X120000Y72000
X121000Y73000
X121000Y71000
X120000Y70000
X121000Y69000
X120000Y68000
X121000Y67000
X121000Y60000
X58400Y68900
X37600Y84500
X31600Y84500
X28600Y84500
X25600Y84500
X22600Y84500
X19600Y84500
X16600Y84500
X13600Y84500
X10600Y84500
X30400Y86600
X59700Y65800
X48000Y77000
X61200Y72000
X51300Y65300
X61200Y82000
X35100Y84500
X37400Y76700
X73000Y74800
X73800Y74800
X74600Y74800
X75300Y75100
X74600Y75600
X50600Y69200
X27000Y51100
X23000Y44400
X65400Y4800
X66600Y19400
X65000Y39000
X110900Y60400
X93100Y45800
X98700Y39900
X44800Y66500
X44700Y71100
X73800Y75600
X34700Y57200
X41200Y57900
X43700Y57700
X44800Y60900
X17400Y61900
X22000Y67700
X22000Y69600
X42400Y80800
X30200Y79800
X35000Y76600
X52100Y45600
X81200Y40500
X34200Y20800
X67800Y46800
X64300Y54000
X78400Y53000
X77600Y53000
X64000Y52500
X65563Y47000
X65563Y47700
X50300Y38500
X108100Y42200
X67300Y53700
X64600Y51500
X72200Y56200
X73000Y56200
X39200Y54600
X52300Y57600
X41900Y57200
X50100Y59100
X40700Y57200
X53900Y59100
X74200Y77000
X73000Y75600
X65200Y33600
X84000Y11200
X25700Y65400
X75000Y53800
X36000Y58100
X83800Y30200
X98900Y42300
X70000Y76400
X67300Y82900
X29500Y44400
X92700Y66400
X92700Y68000
X98900Y43200
X65700Y82700
X74200Y77800
X93500Y66400
X93500Y68000
X7800Y38100
X81200Y44800
X103300Y38000
X24000Y49000
X1000Y3000
X6000Y1000
X6000Y2000
X5000Y2000
X20000Y55000
X21000Y56000
X20000Y57000
X19000Y56000
X24000Y51000
X22000Y53000
X2000Y4000
X29000Y47000
X29000Y48000
X29000Y49000
X28000Y50000
X25000Y51000
X25000Y50000
X24000Y48000
X24000Y47000
X24000Y46000
X23000Y26000
X1000Y15000
X1000Y25000
X2000Y24000
X1000Y23000
X2000Y22000
X1000Y21000
X2000Y20000
X1000Y19000
X2000Y18000
X1000Y17000
X2000Y16000
X22000Y30000
X2000Y14000
X1000Y13000
X2000Y12000
X1000Y11000
X2000Y10000
X1000Y9000
X2000Y8000
X1000Y7000
X2000Y6000
X1000Y5000
X95000Y46100
X67800Y2700
X66000Y2200
X64000Y2200
X62000Y2200
X60000Y2200
X57700Y2400
X56200Y2900
X55400Y3500
X54600Y4000
X92000Y51000
X68700Y3200
X94000Y31400
X95000Y36000
X94200Y38900
X95000Y88900
X100400Y44300
X111000Y88800
X96200Y38900
X93100Y43450
X93000Y41000
X10000Y54700
X17500Y6400
X22000Y27000
X25000Y26000
X24000Y26000
X25000Y15000
X27000Y16000
X33000Y11000
X14000Y5800
X15000Y5800
X15800Y5800
X16500Y6400
X60000Y95000
X18500Y6400
X55900Y5000
X56700Y4500
X57400Y4100
X58300Y3900
X60400Y3700
X66000Y3800
X67000Y4100
X70300Y4100
X69500Y3700
X1000Y62000
X60500Y85000
X27000Y65000
X1000Y70000
X2000Y71000
X2000Y69000
X1000Y68000
X2000Y67000
X1000Y66000
X2000Y65000
X1000Y64000
X2000Y63000
X60100Y72000
X2000Y61000
X1000Y60000
X1000Y55000
X2000Y54000
X2000Y52000
X1000Y53000
X1000Y51000
X2000Y50000
X1000Y49000
X2000Y48000
X65100Y76600
X62700Y80200
X62700Y75400
X67500Y75400
X65100Y75400
X62700Y77800
X65100Y79000
X66300Y80200
X66300Y79000
X67500Y79000
X66300Y77800
X1000Y47000
X66300Y76600
X67500Y76600
X66300Y75400
X63900Y75400
X63900Y76600
X63900Y77800
X62700Y76600
X62700Y79000
X63900Y79000
X63900Y80200
X2000Y13000
X1000Y24000
X1000Y22000
X1000Y20000
X1000Y18000
X1000Y16000
X1000Y14000
X2000Y15000
X2000Y17000
X2000Y19000
X2000Y21000
X2000Y23000
X5000Y27000
X2000Y11000
X1000Y12000
X1000Y10000
X1000Y8000
X2000Y9000
X2000Y7000
X1000Y6000
X2000Y5000
X5000Y3000
X1000Y72000
X1000Y35000
X2000Y46000
X1000Y45000
X2000Y44000
X1000Y43000
X2000Y42000
X1000Y41000
X2000Y40000
X1000Y39000
X2000Y38000
X1000Y37000
X65100Y80200
X1000Y33000
X1000Y31000
X2000Y32000
X2000Y34000
X2000Y36000
X4000Y31000
X5000Y30000
X4000Y26000
X1000Y26000
X2000Y25000
X100600Y31400
X102900Y53300
X101100Y53300
X101100Y54300
X103900Y56400
X103900Y57200
X104700Y57600
X105400Y57600
X109700Y57600
X110500Y57600
X108500Y61300
X107700Y61300
X102900Y54300
X103000Y31400
X107000Y31400
X108200Y31400
X108200Y20200
X109400Y20200
X110600Y20200
X114400Y56900
X96000Y42000
X97000Y43000
X97000Y42000
X117000Y37800
X105900Y25100
X113600Y41500
X114500Y42000
X114500Y41000
X112700Y41000
X112700Y42000
X108500Y44400
X108500Y45200
X115700Y41200
X116500Y41200
X97000Y41000
X117000Y38700
X111200Y37800
X112000Y48700
X112400Y52500
X113600Y52500
X118500Y55600
X118500Y54500
X107400Y54500
X107400Y55400
X102000Y53800
X26900Y80800
X82200Y38300
X82200Y37400
X83300Y37400
X77700Y37300
X74500Y37400
X44700Y73700
X44800Y64450
X17400Y60700
X19900Y68600
X19900Y66600
X43600Y80800
X84300Y38300
X41700Y76600
X32200Y76700
X25500Y73700
X21600Y33900
X59700Y67200
X52400Y68900
X71000Y80300
X65100Y77800
X67500Y77800
X67500Y80200
X90000Y46200
X96000Y41000
X95000Y41000
X95000Y42000
X95000Y43000
X96000Y43000
X96300Y35900
X97500Y35900
X102200Y35900
X99000Y45500
X99000Y44600
X2000Y73000
X90000Y45300
X85200Y41800
X89200Y41800
X81200Y41800
X88200Y38300
X86600Y38300
X86600Y37400
X88200Y37400
X90200Y37400
X90200Y38200
X43000Y38000
X42000Y37000
X41000Y38000
X42000Y39000
X41000Y40000
X42000Y41000
X41000Y42000
X42000Y43000
X41000Y44000
X42000Y45000
X43000Y34000
X44000Y33000
X43000Y36000
X41000Y46000
X40000Y47000
X38000Y47000
X36000Y47000
X35000Y48000
X37000Y48000
X39000Y48000
X41000Y48000
X42000Y47000
X40000Y49000
X57000Y27000
X55000Y9000
X57000Y16000
X56000Y17000
X56000Y16000
X57000Y17000
X57000Y21000
X56000Y21000
X56000Y22000
X57000Y22000
X56000Y27000
X38000Y49000
X52000Y32000
X51000Y31000
X50000Y32000
X49000Y31000
X49000Y32000
X48000Y33000
X47000Y32000
X46000Y33000
X45000Y34000
X44000Y35000
X72000Y62000
X47000Y52000
X61000Y58000
X62000Y59000
X63000Y60000
X64000Y61000
X66000Y61000
X68000Y61000
X65000Y60000
X64000Y59000
X63000Y58000
X73000Y61000
X51000Y54000
X74000Y62000
X76000Y62000
X78000Y62000
X80000Y62000
X81000Y61000
X79000Y61000
X77000Y61000
X75000Y61000
X83000Y62000
X85000Y62000
X50000Y53000
X36000Y49000
X35000Y50000
X37000Y50000
X39000Y50000
X44000Y51000
X45000Y52000
X46000Y53000
X48000Y53000
X47000Y54000
X49000Y54000
X53000Y9000
X52000Y53000
X54000Y53000
X56000Y53000
X58000Y53000
X60000Y53000
X61000Y54000
X59000Y54000
X57000Y54000
X55000Y54000
X53000Y54000
X21000Y53000
X14000Y59000
X14000Y58000
X19000Y55000
X20000Y56000
X21000Y55000
X22000Y54000
X23000Y53000
X24000Y52000
X24000Y50000
X23000Y51000
X22000Y52000
X13000Y58000
X20000Y54000
X26000Y45000
X26000Y43000
X25000Y44000
X25000Y42000
X25000Y40000
X25000Y38000
X25000Y36000
X25000Y34000
X25000Y32000
X1000Y84000
X2000Y75000
X2000Y77000
X2000Y79000
X1000Y78000
X1000Y76000
X1000Y74000
X1000Y80000
X2000Y81000
X1000Y82000
X2000Y83000
X26000Y33000
X2000Y85000
X2000Y87000
X2000Y89000
X1000Y88000
X1000Y86000
X1000Y90000
X4500Y59500
X10000Y59000
X11000Y58000
X12000Y59000
X56000Y10000
X35000Y9000
X36000Y9000
X36800Y8000
X42000Y8000
X41000Y9000
X40000Y10000
X42000Y10000
X44000Y10000
X46000Y10000
X54000Y10000
X35000Y11000
X57000Y9000
X56000Y8000
X54000Y8000
X52000Y8000
X48000Y8000
X46000Y8000
X44000Y8000
X43000Y9000
X45000Y9000
X47000Y9000
X25000Y21000
X26000Y35000
X26000Y37000
X26000Y39000
X26000Y41000
X26000Y31000
X23000Y31000
X26000Y26000
X25000Y25000
X26000Y24000
X26000Y20000
X105000Y25100
X25000Y19000
X25000Y17000
X26000Y18000
X26000Y16000
X26000Y14000
X27000Y15000
X27000Y13000
X28000Y14000
X29000Y13000
X34000Y10000
X57400Y37900
X59000Y41500
X56600Y42700
X56600Y41500
X48700Y42500
X48700Y41400
X56300Y43900
X55900Y45100
X56300Y40300
X56000Y39200
X57600Y36700
X56400Y36700
X58700Y44000
X58200Y39000
X58800Y40200
X26000Y12000
X53000Y16000
X38900Y24000
X47100Y19400
X47100Y20400
X47100Y21600
X32200Y31600
X32600Y35500
X52500Y34000
X46900Y38100
X44100Y38700
X44500Y37500
X45300Y36500
X46400Y35800
X47500Y35500
X48600Y35500
X49700Y35500
X50500Y34500
X51500Y34000
X33800Y35500
X53500Y34000
X54500Y34000
X55500Y34000
X56500Y34000
X57500Y34000
X54500Y48500
X55700Y48000
X56900Y47100
X58000Y46200
X58500Y45000
X21800Y44400
X36200Y26300
X41300Y16000
X42200Y16000
X42200Y16900
X40400Y16900
X40400Y16000
X41300Y16900
X41300Y15100
X42200Y15100
X40400Y15100
X21800Y43400
X35200Y26300
X20200Y44400
X20200Y43400
X30800Y23800
X30800Y22800
X29000Y22800
X29000Y23800
X38700Y36700
X38500Y39500
X38600Y44800
X38800Y43800
X54000Y11000
X28000Y38100
X58000Y14500
X57000Y14500
X56000Y14500
X55000Y15000
X54000Y15500
X58000Y11000
X57000Y11000
X56000Y11000
X55000Y11000
X46400Y39000
X53000Y11500
X52000Y12000
X51000Y12500
X50000Y13000
X44800Y23900
X37700Y20800
X36000Y21500
X35700Y25400
X36200Y24500
X35200Y24500
X11600Y38000
X13400Y21500
X12500Y21500
X11600Y21500
X11600Y20600
X11600Y19700
X12500Y19700
X13400Y19700
X12500Y37500
X13400Y38000
X13400Y37000
X11600Y37000
X13400Y20600
X15000Y37000
X16000Y26000
X16000Y27000
X16000Y28000
X16000Y29000
X16000Y30000
X16000Y31000
X16000Y32000
X16000Y33000
X16000Y34000
X20000Y21500
X21000Y15500
X22000Y15500
X22500Y12900
X23250Y7050
X27000Y7500
X22000Y17000
X22000Y18000
X22000Y19000
X21500Y20000
X21000Y21000
X16000Y35000
X19000Y22000
X19000Y23000
X19000Y24000
X6600Y16300
X6600Y18700
X6600Y20000
X6600Y22600
X6600Y23800
X6600Y25000
X12500Y20600
X44000Y44000
X7000Y47000
X18000Y50100
X18000Y49300
X19000Y47000
X19000Y46000
X48500Y48500
X47500Y48200
X46500Y47700
X45500Y47000
X44600Y46100
X44000Y45000
X8000Y48000
X44000Y43000
X44000Y42000
X44000Y41000
X44000Y40000
X46000Y43000
X46000Y42000
X46000Y41000
X46300Y44100
X46700Y45100
X46000Y40000
X9000Y35500
X10000Y26000
X10000Y27000
X10000Y28000
X10000Y29000
X10000Y30000
X10000Y31000
X10000Y32000
X10000Y33000
X10000Y34000
X10000Y35000
X29500Y43300
X8000Y35500
X11700Y44300
X14200Y47300
X11150Y47150
X7900Y55600
X7600Y53000
X8400Y53000
X14200Y51700
X14200Y50900
X8500Y48700
X64150Y22900
X47400Y66900
X50600Y65600
X50600Y66800
X89000Y8000
X89900Y8000
X89000Y8900
X88100Y8000
X89000Y7100
X60650Y20600
X61250Y20600
X60050Y20600
X95000Y28850
X64950Y22900
X59000Y15000
X59000Y16000
X59000Y17000
X59000Y21000
X59000Y22000
X59000Y23000
X63500Y33600
X64300Y33600
X85400Y6900
X73100Y29000
X88600Y25000
X87400Y25000
X87400Y23800
X88200Y29650
X91300Y29650
X95000Y27950
X95500Y22050
X94700Y22050
X86000Y17300
X73100Y29800
X82700Y19700
X73100Y28200
X73000Y15200
X73800Y15200
X72200Y15200
X75500Y16500
X75500Y17300
X82800Y16100
X81600Y15900
X82200Y26200
X82300Y26950
X115600Y25000
X116000Y36000
X116000Y35000
X116000Y34000
X116000Y33000
X116000Y32000
X116000Y31000
X116000Y30000
X116000Y29000
X116000Y28000
X116000Y27000
X116000Y26000
X116000Y37000
X114700Y24300
X113600Y23800
X112500Y23600
X105000Y26000
X105900Y26000
X105900Y26900
X105000Y26900
X104100Y26900
X104100Y26000
X104100Y25100
X111000Y28000
X81900Y19700
X109000Y16800
X108000Y17000
X107400Y18000
X107400Y19000
X107400Y20000
X102000Y20000
X102500Y21000
X101700Y21400
X110000Y28000
X88600Y23800
X112000Y28000
X112000Y29000
X112000Y30000
X112000Y31000
X112000Y32000
X112000Y33000
X112000Y34000
X112000Y35000
X112000Y36000
X112000Y37000
X61500Y34600
X33000Y53000
X61600Y27500
X62500Y27500
X62500Y28400
X61600Y28400
X60700Y28400
X60700Y27500
X60700Y26600
X61500Y26600
X60800Y35300
X61500Y36000
X29246Y52246
X60100Y34600
X60100Y36000
X63100Y45300
X64300Y45300
X65700Y44000
X66900Y44000
X68700Y44000
X69900Y44000
X71100Y44000
X74400Y49300
X53900Y39400
X29500Y42500
X34700Y40200
X29000Y27600
X28000Y26300
X38500Y28000
X32500Y20800
X33300Y20800
X48500Y44700
X53900Y44700
X48500Y39400
X74400Y51700
X51200Y46800
X51200Y37200
X30000Y8000
X31000Y8000
X30000Y8900
X29200Y8200
X60300Y7800
X61700Y7800
X61700Y6200
X60300Y6200
X81000Y59800
X92000Y51900
X91000Y51900
X96900Y51500
X96900Y52300
X79100Y54900
X79100Y55700
X79100Y54100
X75000Y59800
X76000Y59800
X80000Y59800
X93000Y51900
X90200Y17400
X88000Y24400
X89200Y24400
X89200Y25600
X88000Y25600
X86800Y25600
X86800Y24400
X86800Y23200
X88000Y23200
X89200Y23200
X66850Y50250
X70200Y57100
X66200Y57000
X63100Y55200
X68050Y50250
X69250Y50250
X69250Y51450
X66850Y51450
X66850Y49050
X69250Y49050
X68050Y49050
X84000Y61000
X68050Y51450
X67450Y50850
X68650Y50850
X68650Y49650
X67450Y49650
X95000Y55000
X95900Y55500
X95900Y54500
X94100Y54500
X94100Y55500
X106400Y78500
X84700Y69200
X82000Y88600
X82000Y87300
X82000Y86100
X82000Y85000
X82000Y83600
X82000Y82500
X98200Y82400
X97500Y82400
X96800Y82400
X105600Y78500
X84700Y70800
X107200Y78500
X108000Y78500
X108800Y78500
X107900Y79400
X107900Y80200
X107900Y81000
X107900Y81800
X107900Y82600
X94800Y70200
X94800Y71500
X97600Y76500
X83900Y79000
X84800Y77400
X84800Y78200
X83900Y78200
X83900Y77400
X85700Y77400
X85700Y78200
X98500Y77000
X99400Y77500
X99400Y76500
X94800Y72800
X97600Y77500
X72200Y69200
X73000Y69200
X73800Y69200
X74600Y69200
X75400Y69200
X76200Y69200
X84700Y75600
X84700Y74000
X84700Y72400
X73000Y0
X89000Y0
X88000Y-1000
X87000Y0
X86000Y-1000
X85000Y0
X84000Y-1000
X83000Y0
X82000Y-1000
X81000Y0
X75000Y0
X74000Y-1000
X90000Y-1000
X72000Y-1000
X71000Y0
X70000Y-1000
X69000Y0
X68000Y-1000
X67000Y0
X66000Y-1000
X65000Y0
X64000Y-1000
X63000Y0
X101000Y0
X94800Y74200
X91500Y79000
X98900Y39100
X102800Y43200
X102800Y39000
X29000Y15000
X47500Y11000
X103000Y0
X104000Y-1000
X102000Y-1000
X83900Y79800
X100000Y-1000
X99000Y0
X98000Y-1000
X97000Y0
X96000Y-1000
X95000Y0
X93000Y0
X94000Y-1000
X91000Y0
X92000Y-1000
X31000Y2000
X57000Y2000
X55000Y2000
X53000Y2000
X51000Y2000
X49000Y2000
X47000Y2000
X41000Y2000
X39000Y2000
X37000Y2000
X35000Y2000
X33000Y2000
X59000Y2000
X29000Y2000
X27000Y2000
X25000Y2000
X23000Y2000
X21000Y2000
X7800Y40500
X47000Y13400
X99800Y23200
X108400Y40800
X104000Y51300
X85000Y2000
X102000Y1000
X104000Y1000
X101000Y2000
X99000Y2000
X97000Y2000
X95000Y2000
X93000Y2000
X91000Y2000
X89000Y2000
X87000Y2000
X104000Y50300
X83000Y2000
X81000Y2000
X75000Y2000
X73000Y2000
X71000Y2000
X69000Y2000
X67000Y2000
X65000Y2000
X63000Y2000
X61000Y2000
X63000Y95000
X46000Y95000
X50000Y95000
X52000Y95000
X54000Y95000
X55000Y94000
X53000Y94000
X51000Y94000
X67000Y95000
X66000Y94000
X65000Y95000
X64000Y94000
X70000Y95000
X62000Y94000
X61000Y95000
X59000Y95000
X84800Y79000
X85700Y79000
X85700Y80600
X85700Y79800
X84800Y79800
X84800Y80600
X83900Y80600
X81000Y94000
X100000Y16300
X100000Y14200
X94000Y7900
X38000Y80800
X39300Y80800
X41000Y83000
X43000Y83000
X39900Y84600
X40500Y86400
X27000Y84900
X62000Y-1000
X80000Y95000
X79000Y94000
X78000Y95000
X77000Y94000
X76000Y95000
X75000Y94000
X74000Y95000
X73000Y94000
X72000Y95000
X71000Y94000
X12800Y10600
X11600Y12400
X12100Y13200
X12800Y13900
X13600Y14400
X14500Y14700
X15500Y14800
X16000Y13100
X15000Y13100
X14100Y12800
X13400Y12200
X13000Y11400
X11300Y11500
X12800Y9700
X12800Y8700
X12900Y7900
X13000Y7000
X13000Y6000
X12800Y4000
X12800Y3000
X12800Y2000
X12800Y1000
X19500Y10300
X96500Y7050
X57000Y26000
X56000Y26000
X69000Y23000
X70000Y23000
X69000Y25000
X70000Y26000
X69000Y27000
X70000Y28000
X22450Y7050
X24050Y7050
X19900Y9400
X95700Y7050
X97300Y7050
X11200Y1000
X11200Y2000
X11200Y3000
X11200Y4000
X11000Y6000
X11000Y7000
X11200Y8000
X10600Y8500
X10500Y10000
X5900Y13000
X6000Y14000
X4200Y14000
X4300Y13000
X4300Y12000
X4300Y11000
X4300Y10000
X4800Y9200
X5500Y8500
X6200Y7800
X6900Y7100
X5900Y12000
X8300Y5700
X9000Y5000
X9700Y4300
X10600Y4200
X13500Y4200
X14500Y4200
X15500Y4200
X16400Y4200
X17000Y4800
X18000Y4800
X19000Y7300
X20300Y8500
X20700Y7600
X21100Y6900
X21800Y6500
X16100Y12100
X16600Y11300
X17100Y10500
X17900Y9900
X18300Y9000
X18600Y8200
X57000Y25000
X19500Y6400
X10200Y6000
X9600Y6600
X9000Y7200
X8400Y7800
X7800Y8400
X7200Y9000
X6600Y9600
X6000Y10200
X5900Y11000
X23000Y0
X34000Y-1000
X33000Y0
X32000Y-1000
X31000Y0
X30000Y-1000
X29000Y0
X28000Y-1000
X27000Y0
X26000Y-1000
X25000Y0
X24000Y-1000
X35000Y0
X22000Y-1000
X21000Y0
X20000Y-1000
X18000Y-1000
X1000Y4000
X3000Y4000
X4000Y3000
X6000Y0
X5000Y-1000
X121000Y4000
X51000Y0
X61000Y0
X60000Y-1000
X59000Y0
X58000Y-1000
X57000Y0
X56000Y-1000
X55000Y0
X54000Y-1000
X53000Y0
X52000Y-1000
X119000Y4000
X50000Y-1000
X49000Y0
X48000Y-1000
X47000Y0
X41000Y0
X40000Y-1000
X39000Y0
X38000Y-1000
X37000Y0
X36000Y-1000
X51300Y60300
X67600Y32700
X56000Y23000
X57000Y23000
X46000Y27400
X40500Y30000
X40500Y28800
X40500Y31200
X54000Y43000
X38000Y57800
X74400Y44900
X65500Y34500
X44500Y55900
X3600Y16300
X3600Y18300
X3600Y20100
X3600Y22100
X27400Y57900
X14600Y54300
X10500Y10700
X10500Y9300
X56000Y25000
X28200Y35800
X118000Y3000
X116000Y0
X117000Y-1000
X19000Y0
X47000Y94000
X48000Y95000
X49000Y94000
X56000Y95000
X57000Y94000
X28200Y34200
X100000Y1000
X27400Y39400
X28400Y45200
X16700Y51100
X21600Y50600
X107000Y50000
X68300Y38000
X52600Y22700
X52600Y20100
X63350Y22900
X69000Y29000
X92100Y14900
X74000Y9000
X79000Y14000
X81000Y14000
X80000Y13000
X81000Y12000
X82000Y13000
X83000Y14000
X84000Y15000
X86000Y15000
X88000Y15000
X90000Y15000
X74000Y13000
X94000Y15000
X93000Y14000
X91100Y13900
X89000Y14000
X87000Y14000
X88000Y13000
X90100Y12900
X92000Y13000
X91000Y12000
X92000Y11000
X73000Y8000
X76000Y13000
X77000Y12000
X78000Y11000
X79000Y10000
X81000Y10000
X82000Y9000
X80000Y9000
X78000Y9000
X72000Y13000
X73000Y12000
X94000Y10000
X75000Y8000
X75000Y10000
X75000Y12000
X77000Y10000
X77000Y8000
X79000Y8000
X81000Y8000
X76000Y9000
X76000Y11000
X74000Y11000
X70000Y42000
X79000Y48000
X78000Y47000
X79000Y46000
X78000Y45000
X79000Y44000
X78000Y43000
X79000Y42000
X78000Y41000
X74000Y42000
X73000Y41000
X72000Y42000
X82000Y48000
X69000Y41000
X68000Y42000
X67000Y41000
X66000Y42000
X65000Y41000
X60000Y47000
X61000Y47000
X60000Y45000
X6000Y95000
X7000Y94000
X98000Y31000
X98000Y11000
X98000Y15000
X97000Y16000
X98000Y17000
X97000Y18000
X98000Y19000
X97000Y20000
X97000Y25000
X98000Y25000
X97000Y30000
X75000Y14000
X97000Y32000
X93000Y49000
X94000Y48000
X91000Y48000
X90000Y49000
X89000Y48000
X88000Y49000
X87000Y48000
X85000Y49000
X85000Y48000
X110000Y37000
X104000Y46000
X105000Y47000
X106000Y46000
X105000Y45000
X106000Y44000
X106000Y42000
X105000Y41000
X105000Y43000
X106000Y39600
X105000Y38600
X109000Y38000
X100000Y46000
X109000Y33000
X105000Y33000
X104000Y36000
X104000Y34000
X103000Y33000
X103000Y35000
X102000Y34000
X101000Y33000
X100000Y34000
X99000Y33000
X99000Y55000
X85000Y61000
X90000Y62000
X91000Y61000
X92000Y62000
X93000Y61000
X94000Y62000
X95000Y61000
X99000Y59000
X98000Y58000
X99000Y57000
X98000Y34000
X98000Y56000
X98000Y54000
X99000Y53000
X98000Y52000
X98000Y50000
X96000Y48000
X95000Y49000
X98000Y48000
X100000Y48000
X99000Y47000
X70000Y20000
X74000Y33000
X73000Y34000
X69000Y30000
X70000Y29000
X69000Y28000
X70000Y27000
X69000Y26000
X70000Y25000
X69000Y22000
X70000Y21000
X69000Y20000
X74000Y34000
X69000Y21000
X70000Y22000
X69000Y17000
X70000Y17000
X69000Y16000
X70000Y15000
X69000Y14000
X70000Y13000
X71000Y14000
X73000Y14000
X89000Y33000
X97000Y33000
X96000Y34000
X93000Y34000
X92000Y33000
X91000Y34000
X87000Y33000
X88000Y34000
X88000Y33000
X87000Y34000
X89000Y34000
X8000Y95000
X84000Y34000
X83000Y33000
X82000Y34000
X82000Y33000
X83000Y34000
X84000Y33000
X79000Y34000
X79000Y33000
X78000Y34000
X78000Y33000
X121000Y16000
X120000Y15000
X120000Y13000
X120000Y11000
X120000Y9000
X120000Y7000
X120000Y5000
X121000Y6000
X121000Y8000
X121000Y10000
X121000Y12000
X121000Y14000
X120000Y17000
X121000Y18000
X121000Y25000
X121000Y27000
X121000Y29000
X121000Y31000
X121000Y33000
X121000Y35000
X121000Y37000
X121000Y39000
X121000Y41000
X120000Y38000
X120000Y58000
X120000Y56000
X120000Y54000
X120000Y52000
X120000Y50000
X120000Y48000
X120000Y46000
X120000Y44000
X120000Y42000
X120000Y40000
X121000Y43000
X120000Y36000
X120000Y34000
X120000Y32000
X120000Y30000
X120000Y28000
X120000Y26000
X118000Y24000
X117000Y23000
X117000Y20000
X118000Y19000
X72000Y1000
X50000Y1000
X52000Y1000
X54000Y1000
X56000Y1000
X58000Y1000
X60000Y1000
X62000Y1000
X64000Y1000
X66000Y1000
X68000Y1000
X70000Y1000
X48000Y1000
X74000Y1000
X82000Y1000
X84000Y1000
X86000Y1000
X88000Y1000
X90000Y1000
X92000Y1000
X94000Y1000
X96000Y1000
X98000Y1000
X20000Y1000
X121000Y45000
X121000Y47000
X121000Y49000
X121000Y51000
X121000Y53000
X121000Y55000
X121000Y57000
X121000Y59000
X117000Y3000
X18000Y1000
X120000Y60000
X22000Y1000
X24000Y1000
X26000Y1000
X28000Y1000
X30000Y1000
X32000Y1000
X34000Y1000
X36000Y1000
X38000Y1000
X40000Y1000
X41000Y94000
X28000Y95000
X26000Y95000
X24000Y95000
X34000Y95000
X36000Y95000
X38000Y95000
X40000Y95000
X42000Y95000
X44000Y95000
X45000Y94000
X43000Y94000
X30000Y95000
X39000Y94000
X37000Y94000
X35000Y94000
X82000Y95000
X83000Y94000
X84000Y95000
X85000Y94000
X86000Y95000
X87000Y94000
X88000Y95000
X15000Y94000
X10000Y95000
X12000Y95000
X14000Y95000
X16000Y95000
X18000Y95000
X20000Y95000
X22000Y95000
X21000Y94000
X19000Y94000
X17000Y94000
X89000Y94000
X13000Y94000
X11000Y94000
X9000Y94000
X23000Y94000
X25000Y94000
X27000Y94000
X29000Y94000
X31000Y94000
X33000Y94000
X32000Y95000
X121000Y86000
X120000Y67000
X120000Y69000
X120000Y71000
X120000Y75000
X120000Y77000
X120000Y79000
X120000Y81000
X120000Y83000
X120000Y85000
X121000Y88000
X121000Y66000
X121000Y84000
X121000Y82000
X121000Y80000
X121000Y78000
X121000Y76000
X121000Y74000
X121000Y72000
X121000Y70000
X121000Y68000
X121000Y61000
X101000Y64000
X101000Y95000
X102000Y94000
X103000Y95000
X104000Y94000
X105000Y95000
X117000Y95000
X120000Y89000
X121000Y90000
X120000Y87000
X100000Y65000
X19000Y4800
X102000Y65000
X103000Y64000
X106000Y65000
X107000Y64000
X108000Y65000
X109000Y64000
X110000Y65000
X111000Y64000
X114000Y65000
X115000Y64000
M30