G04 #@! TF.GenerationSoftware,KiCad,Pcbnew,(5.1.7)-1*
G04 #@! TF.CreationDate,2020-10-25T18:45:03+01:00*
G04 #@! TF.ProjectId,VNA,564e412e-6b69-4636-9164-5f7063625858,0.1*
G04 #@! TF.SameCoordinates,Original*
G04 #@! TF.FileFunction,Legend,Bot*
G04 #@! TF.FilePolarity,Positive*
%FSLAX46Y46*%
G04 Gerber Fmt 4.6, Leading zero omitted, Abs format (unit mm)*
G04 Created by KiCad (PCBNEW (5.1.7)-1) date 2020-10-25 18:45:03*
%MOMM*%
%LPD*%
G01*
G04 APERTURE LIST*
%ADD10C,0.081280*%
%ADD11C,0.142240*%
G04 APERTURE END LIST*
D10*
X118912877Y-85538400D02*
X119004801Y-85492438D01*
X119142687Y-85492438D01*
X119280572Y-85538400D01*
X119372496Y-85630323D01*
X119418458Y-85722247D01*
X119464420Y-85906095D01*
X119464420Y-86043980D01*
X119418458Y-86227828D01*
X119372496Y-86319752D01*
X119280572Y-86411676D01*
X119142687Y-86457638D01*
X119050763Y-86457638D01*
X118912877Y-86411676D01*
X118866915Y-86365714D01*
X118866915Y-86043980D01*
X119050763Y-86043980D01*
X118453258Y-86457638D02*
X118453258Y-85492438D01*
X117901715Y-86457638D01*
X117901715Y-85492438D01*
X117442096Y-86457638D02*
X117442096Y-85492438D01*
X117212287Y-85492438D01*
X117074401Y-85538400D01*
X116982477Y-85630323D01*
X116936515Y-85722247D01*
X116890553Y-85906095D01*
X116890553Y-86043980D01*
X116936515Y-86227828D01*
X116982477Y-86319752D01*
X117074401Y-86411676D01*
X117212287Y-86457638D01*
X117442096Y-86457638D01*
X120218458Y-88089942D02*
X119483068Y-88089942D01*
X119850763Y-88457638D02*
X119850763Y-87722247D01*
X118517868Y-88457638D02*
X119069410Y-88457638D01*
X118793639Y-88457638D02*
X118793639Y-87492438D01*
X118885563Y-87630323D01*
X118977487Y-87722247D01*
X119069410Y-87768209D01*
X118242096Y-87492438D02*
X117920363Y-88457638D01*
X117598629Y-87492438D01*
X117139010Y-87906095D02*
X117230934Y-87860133D01*
X117276896Y-87814171D01*
X117322858Y-87722247D01*
X117322858Y-87676285D01*
X117276896Y-87584361D01*
X117230934Y-87538400D01*
X117139010Y-87492438D01*
X116955163Y-87492438D01*
X116863239Y-87538400D01*
X116817277Y-87584361D01*
X116771315Y-87676285D01*
X116771315Y-87722247D01*
X116817277Y-87814171D01*
X116863239Y-87860133D01*
X116955163Y-87906095D01*
X117139010Y-87906095D01*
X117230934Y-87952057D01*
X117276896Y-87998019D01*
X117322858Y-88089942D01*
X117322858Y-88273790D01*
X117276896Y-88365714D01*
X117230934Y-88411676D01*
X117139010Y-88457638D01*
X116955163Y-88457638D01*
X116863239Y-88411676D01*
X116817277Y-88365714D01*
X116771315Y-88273790D01*
X116771315Y-88089942D01*
X116817277Y-87998019D01*
X116863239Y-87952057D01*
X116955163Y-87906095D01*
X120118458Y-90089942D02*
X119383068Y-90089942D01*
X119750763Y-90457638D02*
X119750763Y-89722247D01*
X119015372Y-89492438D02*
X118417868Y-89492438D01*
X118739601Y-89860133D01*
X118601715Y-89860133D01*
X118509791Y-89906095D01*
X118463829Y-89952057D01*
X118417868Y-90043980D01*
X118417868Y-90273790D01*
X118463829Y-90365714D01*
X118509791Y-90411676D01*
X118601715Y-90457638D01*
X118877487Y-90457638D01*
X118969410Y-90411676D01*
X119015372Y-90365714D01*
X118142096Y-89492438D02*
X117820363Y-90457638D01*
X117498629Y-89492438D01*
X117268820Y-89492438D02*
X116671315Y-89492438D01*
X116993048Y-89860133D01*
X116855163Y-89860133D01*
X116763239Y-89906095D01*
X116717277Y-89952057D01*
X116671315Y-90043980D01*
X116671315Y-90273790D01*
X116717277Y-90365714D01*
X116763239Y-90411676D01*
X116855163Y-90457638D01*
X117130934Y-90457638D01*
X117222858Y-90411676D01*
X117268820Y-90365714D01*
X119218458Y-92089942D02*
X118483068Y-92089942D01*
X118850763Y-92457638D02*
X118850763Y-91722247D01*
X117609791Y-91492438D02*
X117793639Y-91492438D01*
X117885563Y-91538400D01*
X117931525Y-91584361D01*
X118023448Y-91722247D01*
X118069410Y-91906095D01*
X118069410Y-92273790D01*
X118023448Y-92365714D01*
X117977487Y-92411676D01*
X117885563Y-92457638D01*
X117701715Y-92457638D01*
X117609791Y-92411676D01*
X117563829Y-92365714D01*
X117517868Y-92273790D01*
X117517868Y-92043980D01*
X117563829Y-91952057D01*
X117609791Y-91906095D01*
X117701715Y-91860133D01*
X117885563Y-91860133D01*
X117977487Y-91906095D01*
X118023448Y-91952057D01*
X118069410Y-92043980D01*
X117242096Y-91492438D02*
X116920363Y-92457638D01*
X116598629Y-91492438D01*
X109966300Y-115115377D02*
X110012261Y-115207301D01*
X110012261Y-115345187D01*
X109966300Y-115483072D01*
X109874376Y-115574996D01*
X109782452Y-115620958D01*
X109598604Y-115666920D01*
X109460719Y-115666920D01*
X109276871Y-115620958D01*
X109184947Y-115574996D01*
X109093023Y-115483072D01*
X109047061Y-115345187D01*
X109047061Y-115253263D01*
X109093023Y-115115377D01*
X109138985Y-115069415D01*
X109460719Y-115069415D01*
X109460719Y-115253263D01*
X109047061Y-114655758D02*
X110012261Y-114655758D01*
X109047061Y-114104215D01*
X110012261Y-114104215D01*
X109047061Y-113644596D02*
X110012261Y-113644596D01*
X110012261Y-113414787D01*
X109966300Y-113276901D01*
X109874376Y-113184977D01*
X109782452Y-113139015D01*
X109598604Y-113093053D01*
X109460719Y-113093053D01*
X109276871Y-113139015D01*
X109184947Y-113184977D01*
X109093023Y-113276901D01*
X109047061Y-113414787D01*
X109047061Y-113644596D01*
X107414757Y-115720958D02*
X107414757Y-114985568D01*
X107047061Y-115353263D02*
X107782452Y-115353263D01*
X108012261Y-114066329D02*
X108012261Y-114525948D01*
X107552642Y-114571910D01*
X107598604Y-114525948D01*
X107644566Y-114434025D01*
X107644566Y-114204215D01*
X107598604Y-114112291D01*
X107552642Y-114066329D01*
X107460719Y-114020368D01*
X107230909Y-114020368D01*
X107138985Y-114066329D01*
X107093023Y-114112291D01*
X107047061Y-114204215D01*
X107047061Y-114434025D01*
X107093023Y-114525948D01*
X107138985Y-114571910D01*
X108012261Y-113744596D02*
X107047061Y-113422863D01*
X108012261Y-113101129D01*
X123949557Y-113768184D02*
X123949557Y-113032793D01*
X123581861Y-113400489D02*
X124317252Y-113400489D01*
X124547061Y-112113555D02*
X124547061Y-112573174D01*
X124087442Y-112619136D01*
X124133404Y-112573174D01*
X124179366Y-112481251D01*
X124179366Y-112251441D01*
X124133404Y-112159517D01*
X124087442Y-112113555D01*
X123995519Y-112067593D01*
X123765709Y-112067593D01*
X123673785Y-112113555D01*
X123627823Y-112159517D01*
X123581861Y-112251441D01*
X123581861Y-112481251D01*
X123627823Y-112573174D01*
X123673785Y-112619136D01*
X124547061Y-111791822D02*
X123581861Y-111470089D01*
X124547061Y-111148355D01*
X177665684Y-94055142D02*
X176930293Y-94055142D01*
X177297989Y-94422838D02*
X177297989Y-93687447D01*
X176011055Y-93457638D02*
X176470674Y-93457638D01*
X176516636Y-93917257D01*
X176470674Y-93871295D01*
X176378751Y-93825333D01*
X176148941Y-93825333D01*
X176057017Y-93871295D01*
X176011055Y-93917257D01*
X175965093Y-94009180D01*
X175965093Y-94238990D01*
X176011055Y-94330914D01*
X176057017Y-94376876D01*
X176148941Y-94422838D01*
X176378751Y-94422838D01*
X176470674Y-94376876D01*
X176516636Y-94330914D01*
X175689322Y-93457638D02*
X175367589Y-94422838D01*
X175045855Y-93457638D01*
X192318458Y-96789942D02*
X191583068Y-96789942D01*
X191950763Y-97157638D02*
X191950763Y-96422247D01*
X190663829Y-96192438D02*
X191123448Y-96192438D01*
X191169410Y-96652057D01*
X191123448Y-96606095D01*
X191031525Y-96560133D01*
X190801715Y-96560133D01*
X190709791Y-96606095D01*
X190663829Y-96652057D01*
X190617868Y-96743980D01*
X190617868Y-96973790D01*
X190663829Y-97065714D01*
X190709791Y-97111676D01*
X190801715Y-97157638D01*
X191031525Y-97157638D01*
X191123448Y-97111676D01*
X191169410Y-97065714D01*
X190342096Y-96192438D02*
X190020363Y-97157638D01*
X189698629Y-96192438D01*
X192812877Y-98638400D02*
X192904801Y-98592438D01*
X193042687Y-98592438D01*
X193180572Y-98638400D01*
X193272496Y-98730323D01*
X193318458Y-98822247D01*
X193364420Y-99006095D01*
X193364420Y-99143980D01*
X193318458Y-99327828D01*
X193272496Y-99419752D01*
X193180572Y-99511676D01*
X193042687Y-99557638D01*
X192950763Y-99557638D01*
X192812877Y-99511676D01*
X192766915Y-99465714D01*
X192766915Y-99143980D01*
X192950763Y-99143980D01*
X192353258Y-99557638D02*
X192353258Y-98592438D01*
X191801715Y-99557638D01*
X191801715Y-98592438D01*
X191342096Y-99557638D02*
X191342096Y-98592438D01*
X191112287Y-98592438D01*
X190974401Y-98638400D01*
X190882477Y-98730323D01*
X190836515Y-98822247D01*
X190790553Y-99006095D01*
X190790553Y-99143980D01*
X190836515Y-99327828D01*
X190882477Y-99419752D01*
X190974401Y-99511676D01*
X191112287Y-99557638D01*
X191342096Y-99557638D01*
X175512877Y-99638400D02*
X175604801Y-99592438D01*
X175742687Y-99592438D01*
X175880572Y-99638400D01*
X175972496Y-99730323D01*
X176018458Y-99822247D01*
X176064420Y-100006095D01*
X176064420Y-100143980D01*
X176018458Y-100327828D01*
X175972496Y-100419752D01*
X175880572Y-100511676D01*
X175742687Y-100557638D01*
X175650763Y-100557638D01*
X175512877Y-100511676D01*
X175466915Y-100465714D01*
X175466915Y-100143980D01*
X175650763Y-100143980D01*
X175053258Y-100557638D02*
X175053258Y-99592438D01*
X174501715Y-100557638D01*
X174501715Y-99592438D01*
X174042096Y-100557638D02*
X174042096Y-99592438D01*
X173812287Y-99592438D01*
X173674401Y-99638400D01*
X173582477Y-99730323D01*
X173536515Y-99822247D01*
X173490553Y-100006095D01*
X173490553Y-100143980D01*
X173536515Y-100327828D01*
X173582477Y-100419752D01*
X173674401Y-100511676D01*
X173812287Y-100557638D01*
X174042096Y-100557638D01*
X118601100Y-110262603D02*
X118647061Y-110354527D01*
X118647061Y-110492412D01*
X118601100Y-110630298D01*
X118509176Y-110722222D01*
X118417252Y-110768184D01*
X118233404Y-110814146D01*
X118095519Y-110814146D01*
X117911671Y-110768184D01*
X117819747Y-110722222D01*
X117727823Y-110630298D01*
X117681861Y-110492412D01*
X117681861Y-110400489D01*
X117727823Y-110262603D01*
X117773785Y-110216641D01*
X118095519Y-110216641D01*
X118095519Y-110400489D01*
X117681861Y-109802984D02*
X118647061Y-109802984D01*
X117681861Y-109251441D01*
X118647061Y-109251441D01*
X117681861Y-108791822D02*
X118647061Y-108791822D01*
X118647061Y-108562012D01*
X118601100Y-108424127D01*
X118509176Y-108332203D01*
X118417252Y-108286241D01*
X118233404Y-108240279D01*
X118095519Y-108240279D01*
X117911671Y-108286241D01*
X117819747Y-108332203D01*
X117727823Y-108424127D01*
X117681861Y-108562012D01*
X117681861Y-108791822D01*
X198218458Y-93189942D02*
X197483068Y-93189942D01*
X197850763Y-93557638D02*
X197850763Y-92822247D01*
X196517868Y-93557638D02*
X197069410Y-93557638D01*
X196793639Y-93557638D02*
X196793639Y-92592438D01*
X196885563Y-92730323D01*
X196977487Y-92822247D01*
X197069410Y-92868209D01*
X196242096Y-92592438D02*
X195920363Y-93557638D01*
X195598629Y-92592438D01*
X195139010Y-93006095D02*
X195230934Y-92960133D01*
X195276896Y-92914171D01*
X195322858Y-92822247D01*
X195322858Y-92776285D01*
X195276896Y-92684361D01*
X195230934Y-92638400D01*
X195139010Y-92592438D01*
X194955163Y-92592438D01*
X194863239Y-92638400D01*
X194817277Y-92684361D01*
X194771315Y-92776285D01*
X194771315Y-92822247D01*
X194817277Y-92914171D01*
X194863239Y-92960133D01*
X194955163Y-93006095D01*
X195139010Y-93006095D01*
X195230934Y-93052057D01*
X195276896Y-93098019D01*
X195322858Y-93189942D01*
X195322858Y-93373790D01*
X195276896Y-93465714D01*
X195230934Y-93511676D01*
X195139010Y-93557638D01*
X194955163Y-93557638D01*
X194863239Y-93511676D01*
X194817277Y-93465714D01*
X194771315Y-93373790D01*
X194771315Y-93189942D01*
X194817277Y-93098019D01*
X194863239Y-93052057D01*
X194955163Y-93006095D01*
X120949557Y-114687422D02*
X120949557Y-113952032D01*
X120581861Y-114319727D02*
X121317252Y-114319727D01*
X120581861Y-112986832D02*
X120581861Y-113538374D01*
X120581861Y-113262603D02*
X121547061Y-113262603D01*
X121409176Y-113354527D01*
X121317252Y-113446451D01*
X121271290Y-113538374D01*
X121547061Y-112711060D02*
X120581861Y-112389327D01*
X121547061Y-112067593D01*
X121133404Y-111607974D02*
X121179366Y-111699898D01*
X121225328Y-111745860D01*
X121317252Y-111791822D01*
X121363214Y-111791822D01*
X121455138Y-111745860D01*
X121501100Y-111699898D01*
X121547061Y-111607974D01*
X121547061Y-111424127D01*
X121501100Y-111332203D01*
X121455138Y-111286241D01*
X121363214Y-111240279D01*
X121317252Y-111240279D01*
X121225328Y-111286241D01*
X121179366Y-111332203D01*
X121133404Y-111424127D01*
X121133404Y-111607974D01*
X121087442Y-111699898D01*
X121041480Y-111745860D01*
X120949557Y-111791822D01*
X120765709Y-111791822D01*
X120673785Y-111745860D01*
X120627823Y-111699898D01*
X120581861Y-111607974D01*
X120581861Y-111424127D01*
X120627823Y-111332203D01*
X120673785Y-111286241D01*
X120765709Y-111240279D01*
X120949557Y-111240279D01*
X121041480Y-111286241D01*
X121087442Y-111332203D01*
X121133404Y-111424127D01*
X92349557Y-104287422D02*
X92349557Y-103552032D01*
X91981861Y-103919727D02*
X92717252Y-103919727D01*
X91981861Y-102586832D02*
X91981861Y-103138374D01*
X91981861Y-102862603D02*
X92947061Y-102862603D01*
X92809176Y-102954527D01*
X92717252Y-103046451D01*
X92671290Y-103138374D01*
X92947061Y-102311060D02*
X91981861Y-101989327D01*
X92947061Y-101667593D01*
X92533404Y-101207974D02*
X92579366Y-101299898D01*
X92625328Y-101345860D01*
X92717252Y-101391822D01*
X92763214Y-101391822D01*
X92855138Y-101345860D01*
X92901100Y-101299898D01*
X92947061Y-101207974D01*
X92947061Y-101024127D01*
X92901100Y-100932203D01*
X92855138Y-100886241D01*
X92763214Y-100840279D01*
X92717252Y-100840279D01*
X92625328Y-100886241D01*
X92579366Y-100932203D01*
X92533404Y-101024127D01*
X92533404Y-101207974D01*
X92487442Y-101299898D01*
X92441480Y-101345860D01*
X92349557Y-101391822D01*
X92165709Y-101391822D01*
X92073785Y-101345860D01*
X92027823Y-101299898D01*
X91981861Y-101207974D01*
X91981861Y-101024127D01*
X92027823Y-100932203D01*
X92073785Y-100886241D01*
X92165709Y-100840279D01*
X92349557Y-100840279D01*
X92441480Y-100886241D01*
X92487442Y-100932203D01*
X92533404Y-101024127D01*
X169918458Y-134389942D02*
X169183068Y-134389942D01*
X169550763Y-134757638D02*
X169550763Y-134022247D01*
X168815372Y-133792438D02*
X168217868Y-133792438D01*
X168539601Y-134160133D01*
X168401715Y-134160133D01*
X168309791Y-134206095D01*
X168263829Y-134252057D01*
X168217868Y-134343980D01*
X168217868Y-134573790D01*
X168263829Y-134665714D01*
X168309791Y-134711676D01*
X168401715Y-134757638D01*
X168677487Y-134757638D01*
X168769410Y-134711676D01*
X168815372Y-134665714D01*
X167942096Y-133792438D02*
X167620363Y-134757638D01*
X167298629Y-133792438D01*
X167068820Y-133792438D02*
X166471315Y-133792438D01*
X166793048Y-134160133D01*
X166655163Y-134160133D01*
X166563239Y-134206095D01*
X166517277Y-134252057D01*
X166471315Y-134343980D01*
X166471315Y-134573790D01*
X166517277Y-134665714D01*
X166563239Y-134711676D01*
X166655163Y-134757638D01*
X166930934Y-134757638D01*
X167022858Y-134711676D01*
X167068820Y-134665714D01*
X166018458Y-123089942D02*
X165283068Y-123089942D01*
X165650763Y-123457638D02*
X165650763Y-122722247D01*
X164915372Y-122492438D02*
X164317868Y-122492438D01*
X164639601Y-122860133D01*
X164501715Y-122860133D01*
X164409791Y-122906095D01*
X164363829Y-122952057D01*
X164317868Y-123043980D01*
X164317868Y-123273790D01*
X164363829Y-123365714D01*
X164409791Y-123411676D01*
X164501715Y-123457638D01*
X164777487Y-123457638D01*
X164869410Y-123411676D01*
X164915372Y-123365714D01*
X164042096Y-122492438D02*
X163720363Y-123457638D01*
X163398629Y-122492438D01*
X163168820Y-122492438D02*
X162571315Y-122492438D01*
X162893048Y-122860133D01*
X162755163Y-122860133D01*
X162663239Y-122906095D01*
X162617277Y-122952057D01*
X162571315Y-123043980D01*
X162571315Y-123273790D01*
X162617277Y-123365714D01*
X162663239Y-123411676D01*
X162755163Y-123457638D01*
X163030934Y-123457638D01*
X163122858Y-123411676D01*
X163168820Y-123365714D01*
X158918458Y-96889942D02*
X158183068Y-96889942D01*
X158550763Y-97257638D02*
X158550763Y-96522247D01*
X157815372Y-96292438D02*
X157217868Y-96292438D01*
X157539601Y-96660133D01*
X157401715Y-96660133D01*
X157309791Y-96706095D01*
X157263829Y-96752057D01*
X157217868Y-96843980D01*
X157217868Y-97073790D01*
X157263829Y-97165714D01*
X157309791Y-97211676D01*
X157401715Y-97257638D01*
X157677487Y-97257638D01*
X157769410Y-97211676D01*
X157815372Y-97165714D01*
X156942096Y-96292438D02*
X156620363Y-97257638D01*
X156298629Y-96292438D01*
X156068820Y-96292438D02*
X155471315Y-96292438D01*
X155793048Y-96660133D01*
X155655163Y-96660133D01*
X155563239Y-96706095D01*
X155517277Y-96752057D01*
X155471315Y-96843980D01*
X155471315Y-97073790D01*
X155517277Y-97165714D01*
X155563239Y-97211676D01*
X155655163Y-97257638D01*
X155930934Y-97257638D01*
X156022858Y-97211676D01*
X156068820Y-97165714D01*
X164218458Y-98489942D02*
X163483068Y-98489942D01*
X163850763Y-98857638D02*
X163850763Y-98122247D01*
X163115372Y-97892438D02*
X162517868Y-97892438D01*
X162839601Y-98260133D01*
X162701715Y-98260133D01*
X162609791Y-98306095D01*
X162563829Y-98352057D01*
X162517868Y-98443980D01*
X162517868Y-98673790D01*
X162563829Y-98765714D01*
X162609791Y-98811676D01*
X162701715Y-98857638D01*
X162977487Y-98857638D01*
X163069410Y-98811676D01*
X163115372Y-98765714D01*
X162242096Y-97892438D02*
X161920363Y-98857638D01*
X161598629Y-97892438D01*
X161368820Y-97892438D02*
X160771315Y-97892438D01*
X161093048Y-98260133D01*
X160955163Y-98260133D01*
X160863239Y-98306095D01*
X160817277Y-98352057D01*
X160771315Y-98443980D01*
X160771315Y-98673790D01*
X160817277Y-98765714D01*
X160863239Y-98811676D01*
X160955163Y-98857638D01*
X161230934Y-98857638D01*
X161322858Y-98811676D01*
X161368820Y-98765714D01*
D11*
X196892433Y-151817656D02*
X198581533Y-151817656D01*
X198581533Y-151174189D01*
X198501100Y-151013322D01*
X198420666Y-150932889D01*
X198259800Y-150852456D01*
X198018500Y-150852456D01*
X197857633Y-150932889D01*
X197777200Y-151013322D01*
X197696766Y-151174189D01*
X197696766Y-151817656D01*
X196892433Y-149887256D02*
X196972866Y-150048122D01*
X197053300Y-150128556D01*
X197214166Y-150208989D01*
X197696766Y-150208989D01*
X197857633Y-150128556D01*
X197938066Y-150048122D01*
X198018500Y-149887256D01*
X198018500Y-149645956D01*
X197938066Y-149485089D01*
X197857633Y-149404656D01*
X197696766Y-149324222D01*
X197214166Y-149324222D01*
X197053300Y-149404656D01*
X196972866Y-149485089D01*
X196892433Y-149645956D01*
X196892433Y-149887256D01*
X196892433Y-148600322D02*
X198018500Y-148600322D01*
X197696766Y-148600322D02*
X197857633Y-148519889D01*
X197938066Y-148439456D01*
X198018500Y-148278589D01*
X198018500Y-148117722D01*
X198018500Y-147795989D02*
X198018500Y-147152522D01*
X198581533Y-147554689D02*
X197133733Y-147554689D01*
X196972866Y-147474256D01*
X196892433Y-147313389D01*
X196892433Y-147152522D01*
X198420666Y-145382989D02*
X198501100Y-145302556D01*
X198581533Y-145141689D01*
X198581533Y-144739522D01*
X198501100Y-144578656D01*
X198420666Y-144498222D01*
X198259800Y-144417789D01*
X198098933Y-144417789D01*
X197857633Y-144498222D01*
X196892433Y-145463422D01*
X196892433Y-144417789D01*
X98892433Y-151817656D02*
X100581533Y-151817656D01*
X100581533Y-151174189D01*
X100501100Y-151013322D01*
X100420666Y-150932889D01*
X100259800Y-150852456D01*
X100018500Y-150852456D01*
X99857633Y-150932889D01*
X99777200Y-151013322D01*
X99696766Y-151174189D01*
X99696766Y-151817656D01*
X98892433Y-149887256D02*
X98972866Y-150048122D01*
X99053300Y-150128556D01*
X99214166Y-150208989D01*
X99696766Y-150208989D01*
X99857633Y-150128556D01*
X99938066Y-150048122D01*
X100018500Y-149887256D01*
X100018500Y-149645956D01*
X99938066Y-149485089D01*
X99857633Y-149404656D01*
X99696766Y-149324222D01*
X99214166Y-149324222D01*
X99053300Y-149404656D01*
X98972866Y-149485089D01*
X98892433Y-149645956D01*
X98892433Y-149887256D01*
X98892433Y-148600322D02*
X100018500Y-148600322D01*
X99696766Y-148600322D02*
X99857633Y-148519889D01*
X99938066Y-148439456D01*
X100018500Y-148278589D01*
X100018500Y-148117722D01*
X100018500Y-147795989D02*
X100018500Y-147152522D01*
X100581533Y-147554689D02*
X99133733Y-147554689D01*
X98972866Y-147474256D01*
X98892433Y-147313389D01*
X98892433Y-147152522D01*
X98892433Y-144417789D02*
X98892433Y-145382989D01*
X98892433Y-144900389D02*
X100581533Y-144900389D01*
X100340233Y-145061256D01*
X100179366Y-145222122D01*
X100098933Y-145382989D01*
X200241277Y-62423166D02*
X200804310Y-61618833D01*
X201206477Y-62423166D02*
X201206477Y-60734066D01*
X200563010Y-60734066D01*
X200402144Y-60814500D01*
X200321710Y-60894933D01*
X200241277Y-61055800D01*
X200241277Y-61297100D01*
X200321710Y-61457966D01*
X200402144Y-61538400D01*
X200563010Y-61618833D01*
X201206477Y-61618833D01*
X198873910Y-62342733D02*
X199034777Y-62423166D01*
X199356510Y-62423166D01*
X199517377Y-62342733D01*
X199597810Y-62181866D01*
X199597810Y-61538400D01*
X199517377Y-61377533D01*
X199356510Y-61297100D01*
X199034777Y-61297100D01*
X198873910Y-61377533D01*
X198793477Y-61538400D01*
X198793477Y-61699266D01*
X199597810Y-61860133D01*
X198310877Y-61297100D02*
X197667410Y-61297100D01*
X198069577Y-62423166D02*
X198069577Y-60975366D01*
X197989144Y-60814500D01*
X197828277Y-60734066D01*
X197667410Y-60734066D01*
X195817444Y-62423166D02*
X195817444Y-60734066D01*
X195013110Y-61297100D02*
X195013110Y-62423166D01*
X195013110Y-61457966D02*
X194932677Y-61377533D01*
X194771810Y-61297100D01*
X194530510Y-61297100D01*
X194369644Y-61377533D01*
X194289210Y-61538400D01*
X194289210Y-62423166D01*
X185141277Y-62423166D02*
X185704310Y-61618833D01*
X186106477Y-62423166D02*
X186106477Y-60734066D01*
X185463010Y-60734066D01*
X185302144Y-60814500D01*
X185221710Y-60894933D01*
X185141277Y-61055800D01*
X185141277Y-61297100D01*
X185221710Y-61457966D01*
X185302144Y-61538400D01*
X185463010Y-61618833D01*
X186106477Y-61618833D01*
X183773910Y-62342733D02*
X183934777Y-62423166D01*
X184256510Y-62423166D01*
X184417377Y-62342733D01*
X184497810Y-62181866D01*
X184497810Y-61538400D01*
X184417377Y-61377533D01*
X184256510Y-61297100D01*
X183934777Y-61297100D01*
X183773910Y-61377533D01*
X183693477Y-61538400D01*
X183693477Y-61699266D01*
X184497810Y-61860133D01*
X183210877Y-61297100D02*
X182567410Y-61297100D01*
X182969577Y-62423166D02*
X182969577Y-60975366D01*
X182889144Y-60814500D01*
X182728277Y-60734066D01*
X182567410Y-60734066D01*
X180395710Y-60734066D02*
X180073977Y-60734066D01*
X179913110Y-60814500D01*
X179752244Y-60975366D01*
X179671810Y-61297100D01*
X179671810Y-61860133D01*
X179752244Y-62181866D01*
X179913110Y-62342733D01*
X180073977Y-62423166D01*
X180395710Y-62423166D01*
X180556577Y-62342733D01*
X180717444Y-62181866D01*
X180797877Y-61860133D01*
X180797877Y-61297100D01*
X180717444Y-60975366D01*
X180556577Y-60814500D01*
X180395710Y-60734066D01*
X178224010Y-61297100D02*
X178224010Y-62423166D01*
X178947910Y-61297100D02*
X178947910Y-62181866D01*
X178867477Y-62342733D01*
X178706610Y-62423166D01*
X178465310Y-62423166D01*
X178304444Y-62342733D01*
X178224010Y-62262300D01*
X177660977Y-61297100D02*
X177017510Y-61297100D01*
X177419677Y-60734066D02*
X177419677Y-62181866D01*
X177339244Y-62342733D01*
X177178377Y-62423166D01*
X177017510Y-62423166D01*
D10*
X132247061Y-65619136D02*
X132247061Y-65067593D01*
X131281861Y-65343365D02*
X132247061Y-65343365D01*
X132247061Y-64837784D02*
X131281861Y-64194317D01*
X132247061Y-64194317D02*
X131281861Y-64837784D01*
X128581861Y-67457612D02*
X129547061Y-67457612D01*
X128581861Y-66906070D01*
X129547061Y-66906070D01*
X128581861Y-65894908D02*
X129041480Y-66216641D01*
X128581861Y-66446451D02*
X129547061Y-66446451D01*
X129547061Y-66078755D01*
X129501100Y-65986832D01*
X129455138Y-65940870D01*
X129363214Y-65894908D01*
X129225328Y-65894908D01*
X129133404Y-65940870D01*
X129087442Y-65986832D01*
X129041480Y-66078755D01*
X129041480Y-66446451D01*
X128627823Y-65527212D02*
X128581861Y-65389327D01*
X128581861Y-65159517D01*
X128627823Y-65067593D01*
X128673785Y-65021632D01*
X128765709Y-64975670D01*
X128857633Y-64975670D01*
X128949557Y-65021632D01*
X128995519Y-65067593D01*
X129041480Y-65159517D01*
X129087442Y-65343365D01*
X129133404Y-65435289D01*
X129179366Y-65481251D01*
X129271290Y-65527212D01*
X129363214Y-65527212D01*
X129455138Y-65481251D01*
X129501100Y-65435289D01*
X129547061Y-65343365D01*
X129547061Y-65113555D01*
X129501100Y-64975670D01*
X129547061Y-64699898D02*
X129547061Y-64148355D01*
X128581861Y-64424127D02*
X129547061Y-64424127D01*
X126127823Y-68330889D02*
X126081861Y-68193003D01*
X126081861Y-67963193D01*
X126127823Y-67871270D01*
X126173785Y-67825308D01*
X126265709Y-67779346D01*
X126357633Y-67779346D01*
X126449557Y-67825308D01*
X126495519Y-67871270D01*
X126541480Y-67963193D01*
X126587442Y-68147041D01*
X126633404Y-68238965D01*
X126679366Y-68284927D01*
X126771290Y-68330889D01*
X126863214Y-68330889D01*
X126955138Y-68284927D01*
X127001100Y-68238965D01*
X127047061Y-68147041D01*
X127047061Y-67917232D01*
X127001100Y-67779346D01*
X127047061Y-67457612D02*
X126081861Y-67227803D01*
X126771290Y-67043955D01*
X126081861Y-66860108D01*
X127047061Y-66630298D01*
X126081861Y-66262603D02*
X127047061Y-66262603D01*
X127047061Y-66032793D01*
X127001100Y-65894908D01*
X126909176Y-65802984D01*
X126817252Y-65757022D01*
X126633404Y-65711060D01*
X126495519Y-65711060D01*
X126311671Y-65757022D01*
X126219747Y-65802984D01*
X126127823Y-65894908D01*
X126081861Y-66032793D01*
X126081861Y-66262603D01*
X126081861Y-65297403D02*
X127047061Y-65297403D01*
X127047061Y-64653936D02*
X127047061Y-64470089D01*
X127001100Y-64378165D01*
X126909176Y-64286241D01*
X126725328Y-64240279D01*
X126403595Y-64240279D01*
X126219747Y-64286241D01*
X126127823Y-64378165D01*
X126081861Y-64470089D01*
X126081861Y-64653936D01*
X126127823Y-64745860D01*
X126219747Y-64837784D01*
X126403595Y-64883746D01*
X126725328Y-64883746D01*
X126909176Y-64837784D01*
X127001100Y-64745860D01*
X127047061Y-64653936D01*
X124501100Y-66262603D02*
X124547061Y-66354527D01*
X124547061Y-66492412D01*
X124501100Y-66630298D01*
X124409176Y-66722222D01*
X124317252Y-66768184D01*
X124133404Y-66814146D01*
X123995519Y-66814146D01*
X123811671Y-66768184D01*
X123719747Y-66722222D01*
X123627823Y-66630298D01*
X123581861Y-66492412D01*
X123581861Y-66400489D01*
X123627823Y-66262603D01*
X123673785Y-66216641D01*
X123995519Y-66216641D01*
X123995519Y-66400489D01*
X123581861Y-65802984D02*
X124547061Y-65802984D01*
X123581861Y-65251441D01*
X124547061Y-65251441D01*
X123581861Y-64791822D02*
X124547061Y-64791822D01*
X124547061Y-64562012D01*
X124501100Y-64424127D01*
X124409176Y-64332203D01*
X124317252Y-64286241D01*
X124133404Y-64240279D01*
X123995519Y-64240279D01*
X123811671Y-64286241D01*
X123719747Y-64332203D01*
X123627823Y-64424127D01*
X123581861Y-64562012D01*
X123581861Y-64791822D01*
X121127823Y-68606660D02*
X121081861Y-68468774D01*
X121081861Y-68238965D01*
X121127823Y-68147041D01*
X121173785Y-68101079D01*
X121265709Y-68055117D01*
X121357633Y-68055117D01*
X121449557Y-68101079D01*
X121495519Y-68147041D01*
X121541480Y-68238965D01*
X121587442Y-68422812D01*
X121633404Y-68514736D01*
X121679366Y-68560698D01*
X121771290Y-68606660D01*
X121863214Y-68606660D01*
X121955138Y-68560698D01*
X122001100Y-68514736D01*
X122047061Y-68422812D01*
X122047061Y-68193003D01*
X122001100Y-68055117D01*
X122047061Y-67733384D02*
X121081861Y-67503574D01*
X121771290Y-67319727D01*
X121081861Y-67135879D01*
X122047061Y-66906070D01*
X121173785Y-65986832D02*
X121127823Y-66032793D01*
X121081861Y-66170679D01*
X121081861Y-66262603D01*
X121127823Y-66400489D01*
X121219747Y-66492412D01*
X121311671Y-66538374D01*
X121495519Y-66584336D01*
X121633404Y-66584336D01*
X121817252Y-66538374D01*
X121909176Y-66492412D01*
X122001100Y-66400489D01*
X122047061Y-66262603D01*
X122047061Y-66170679D01*
X122001100Y-66032793D01*
X121955138Y-65986832D01*
X121081861Y-65113555D02*
X121081861Y-65573174D01*
X122047061Y-65573174D01*
X121081861Y-64791822D02*
X122047061Y-64791822D01*
X121081861Y-64240279D02*
X121633404Y-64653936D01*
X122047061Y-64240279D02*
X121495519Y-64791822D01*
X118949557Y-67687422D02*
X118949557Y-66952032D01*
X118581861Y-67319727D02*
X119317252Y-67319727D01*
X119547061Y-66584336D02*
X119547061Y-65986832D01*
X119179366Y-66308565D01*
X119179366Y-66170679D01*
X119133404Y-66078755D01*
X119087442Y-66032793D01*
X118995519Y-65986832D01*
X118765709Y-65986832D01*
X118673785Y-66032793D01*
X118627823Y-66078755D01*
X118581861Y-66170679D01*
X118581861Y-66446451D01*
X118627823Y-66538374D01*
X118673785Y-66584336D01*
X119547061Y-65711060D02*
X118581861Y-65389327D01*
X119547061Y-65067593D01*
X119547061Y-64837784D02*
X119547061Y-64240279D01*
X119179366Y-64562012D01*
X119179366Y-64424127D01*
X119133404Y-64332203D01*
X119087442Y-64286241D01*
X118995519Y-64240279D01*
X118765709Y-64240279D01*
X118673785Y-64286241D01*
X118627823Y-64332203D01*
X118581861Y-64424127D01*
X118581861Y-64699898D01*
X118627823Y-64791822D01*
X118673785Y-64837784D01*
X116947061Y-66722222D02*
X116947061Y-66170679D01*
X115981861Y-66446451D02*
X116947061Y-66446451D01*
X115981861Y-65848946D02*
X116947061Y-65848946D01*
X116257633Y-65527212D01*
X116947061Y-65205479D01*
X115981861Y-65205479D01*
X116027823Y-64791822D02*
X115981861Y-64653936D01*
X115981861Y-64424127D01*
X116027823Y-64332203D01*
X116073785Y-64286241D01*
X116165709Y-64240279D01*
X116257633Y-64240279D01*
X116349557Y-64286241D01*
X116395519Y-64332203D01*
X116441480Y-64424127D01*
X116487442Y-64607974D01*
X116533404Y-64699898D01*
X116579366Y-64745860D01*
X116671290Y-64791822D01*
X116763214Y-64791822D01*
X116855138Y-64745860D01*
X116901100Y-64699898D01*
X116947061Y-64607974D01*
X116947061Y-64378165D01*
X116901100Y-64240279D01*
X114347061Y-66124717D02*
X114347061Y-65573174D01*
X113381861Y-65848946D02*
X114347061Y-65848946D01*
X113381861Y-65251441D02*
X114347061Y-65251441D01*
X114347061Y-65021632D01*
X114301100Y-64883746D01*
X114209176Y-64791822D01*
X114117252Y-64745860D01*
X113933404Y-64699898D01*
X113795519Y-64699898D01*
X113611671Y-64745860D01*
X113519747Y-64791822D01*
X113427823Y-64883746D01*
X113381861Y-65021632D01*
X113381861Y-65251441D01*
X113381861Y-64286241D02*
X114347061Y-64286241D01*
X111847061Y-66676260D02*
X111847061Y-66124717D01*
X110881861Y-66400489D02*
X111847061Y-66400489D01*
X110881861Y-65802984D02*
X111847061Y-65802984D01*
X111847061Y-65573174D01*
X111801100Y-65435289D01*
X111709176Y-65343365D01*
X111617252Y-65297403D01*
X111433404Y-65251441D01*
X111295519Y-65251441D01*
X111111671Y-65297403D01*
X111019747Y-65343365D01*
X110927823Y-65435289D01*
X110881861Y-65573174D01*
X110881861Y-65802984D01*
X111847061Y-64653936D02*
X111847061Y-64470089D01*
X111801100Y-64378165D01*
X111709176Y-64286241D01*
X111525328Y-64240279D01*
X111203595Y-64240279D01*
X111019747Y-64286241D01*
X110927823Y-64378165D01*
X110881861Y-64470089D01*
X110881861Y-64653936D01*
X110927823Y-64745860D01*
X111019747Y-64837784D01*
X111203595Y-64883746D01*
X111525328Y-64883746D01*
X111709176Y-64837784D01*
X111801100Y-64745860D01*
X111847061Y-64653936D01*
X109247061Y-66630298D02*
X109247061Y-66078755D01*
X108281861Y-66354527D02*
X109247061Y-66354527D01*
X108373785Y-65205479D02*
X108327823Y-65251441D01*
X108281861Y-65389327D01*
X108281861Y-65481251D01*
X108327823Y-65619136D01*
X108419747Y-65711060D01*
X108511671Y-65757022D01*
X108695519Y-65802984D01*
X108833404Y-65802984D01*
X109017252Y-65757022D01*
X109109176Y-65711060D01*
X109201100Y-65619136D01*
X109247061Y-65481251D01*
X109247061Y-65389327D01*
X109201100Y-65251441D01*
X109155138Y-65205479D01*
X108281861Y-64791822D02*
X109247061Y-64791822D01*
X108281861Y-64240279D02*
X108833404Y-64653936D01*
X109247061Y-64240279D02*
X108695519Y-64791822D01*
M02*
