%TF.GenerationSoftware,KiCad,Pcbnew,9.0.0*%
%TF.CreationDate,2025-02-25T23:04:32-05:00*%
%TF.ProjectId,VNA,564e412e-6b69-4636-9164-5f7063625858,rev?*%
%TF.SameCoordinates,PX535a28cPY8422900*%
%TF.FileFunction,Soldermask,Top*%
%TF.FilePolarity,Negative*%
%FSLAX46Y46*%
G04 Gerber Fmt 4.6, Leading zero omitted, Abs format (unit mm)*
G04 Created by KiCad (PCBNEW 9.0.0) date 2025-02-25 23:04:32*
%MOMM*%
%LPD*%
G01*
G04 APERTURE LIST*
G04 Aperture macros list*
%AMRoundRect*
0 Rectangle with rounded corners*
0 $1 Rounding radius*
0 $2 $3 $4 $5 $6 $7 $8 $9 X,Y pos of 4 corners*
0 Add a 4 corners polygon primitive as box body*
4,1,4,$2,$3,$4,$5,$6,$7,$8,$9,$2,$3,0*
0 Add four circle primitives for the rounded corners*
1,1,$1+$1,$2,$3*
1,1,$1+$1,$4,$5*
1,1,$1+$1,$6,$7*
1,1,$1+$1,$8,$9*
0 Add four rect primitives between the rounded corners*
20,1,$1+$1,$2,$3,$4,$5,0*
20,1,$1+$1,$4,$5,$6,$7,0*
20,1,$1+$1,$6,$7,$8,$9,0*
20,1,$1+$1,$8,$9,$2,$3,0*%
%AMRotRect*
0 Rectangle, with rotation*
0 The origin of the aperture is its center*
0 $1 length*
0 $2 width*
0 $3 Rotation angle, in degrees counterclockwise*
0 Add horizontal line*
21,1,$1,$2,0,0,$3*%
G04 Aperture macros list end*
%ADD10C,0.100000*%
%ADD11RoundRect,0.140000X-0.140000X-0.170000X0.140000X-0.170000X0.140000X0.170000X-0.140000X0.170000X0*%
%ADD12RoundRect,0.140000X0.170000X-0.140000X0.170000X0.140000X-0.170000X0.140000X-0.170000X-0.140000X0*%
%ADD13RoundRect,0.140000X-0.170000X0.140000X-0.170000X-0.140000X0.170000X-0.140000X0.170000X0.140000X0*%
%ADD14RoundRect,0.112500X-0.112500X0.202500X-0.112500X-0.202500X0.112500X-0.202500X0.112500X0.202500X0*%
%ADD15R,1.050000X0.800000*%
%ADD16RoundRect,0.135000X0.135000X0.185000X-0.135000X0.185000X-0.135000X-0.185000X0.135000X-0.185000X0*%
%ADD17RoundRect,0.135000X-0.135000X-0.185000X0.135000X-0.185000X0.135000X0.185000X-0.135000X0.185000X0*%
%ADD18RoundRect,0.135000X0.185000X-0.135000X0.185000X0.135000X-0.185000X0.135000X-0.185000X-0.135000X0*%
%ADD19RoundRect,0.147500X-0.172500X0.147500X-0.172500X-0.147500X0.172500X-0.147500X0.172500X0.147500X0*%
%ADD20RoundRect,0.140000X0.140000X0.170000X-0.140000X0.170000X-0.140000X-0.170000X0.140000X-0.170000X0*%
%ADD21RoundRect,0.150000X-0.512500X-0.150000X0.512500X-0.150000X0.512500X0.150000X-0.512500X0.150000X0*%
%ADD22RoundRect,0.250000X0.325000X0.650000X-0.325000X0.650000X-0.325000X-0.650000X0.325000X-0.650000X0*%
%ADD23RoundRect,0.135000X-0.185000X0.135000X-0.185000X-0.135000X0.185000X-0.135000X0.185000X0.135000X0*%
%ADD24RoundRect,0.225000X-0.225000X-0.250000X0.225000X-0.250000X0.225000X0.250000X-0.225000X0.250000X0*%
%ADD25R,1.400000X4.200000*%
%ADD26RoundRect,0.062500X0.350000X0.062500X-0.350000X0.062500X-0.350000X-0.062500X0.350000X-0.062500X0*%
%ADD27RoundRect,0.062500X0.062500X0.350000X-0.062500X0.350000X-0.062500X-0.350000X0.062500X-0.350000X0*%
%ADD28R,2.500000X2.500000*%
%ADD29RoundRect,0.225000X0.225000X0.250000X-0.225000X0.250000X-0.225000X-0.250000X0.225000X-0.250000X0*%
%ADD30RoundRect,0.147500X0.172500X-0.147500X0.172500X0.147500X-0.172500X0.147500X-0.172500X-0.147500X0*%
%ADD31R,1.700000X1.700000*%
%ADD32O,1.700000X1.700000*%
%ADD33RoundRect,0.250000X0.325000X0.450000X-0.325000X0.450000X-0.325000X-0.450000X0.325000X-0.450000X0*%
%ADD34RoundRect,0.200000X-0.500000X-0.200000X0.500000X-0.200000X0.500000X0.200000X-0.500000X0.200000X0*%
%ADD35RoundRect,0.105975X0.105975X-0.179475X0.105975X0.179475X-0.105975X0.179475X-0.105975X-0.179475X0*%
%ADD36RoundRect,0.218750X0.256250X-0.218750X0.256250X0.218750X-0.256250X0.218750X-0.256250X-0.218750X0*%
%ADD37C,0.650000*%
%ADD38RoundRect,0.150000X0.150000X0.425000X-0.150000X0.425000X-0.150000X-0.425000X0.150000X-0.425000X0*%
%ADD39RoundRect,0.075000X0.075000X0.500000X-0.075000X0.500000X-0.075000X-0.500000X0.075000X-0.500000X0*%
%ADD40O,1.000000X2.100000*%
%ADD41O,1.000000X1.800000*%
%ADD42RoundRect,0.075000X0.075000X-0.662500X0.075000X0.662500X-0.075000X0.662500X-0.075000X-0.662500X0*%
%ADD43RoundRect,0.075000X0.662500X-0.075000X0.662500X0.075000X-0.662500X0.075000X-0.662500X-0.075000X0*%
%ADD44RoundRect,0.225000X-0.250000X0.225000X-0.250000X-0.225000X0.250000X-0.225000X0.250000X0.225000X0*%
%ADD45RoundRect,0.250000X0.650000X-0.325000X0.650000X0.325000X-0.650000X0.325000X-0.650000X-0.325000X0*%
%ADD46RoundRect,0.062500X0.412500X0.062500X-0.412500X0.062500X-0.412500X-0.062500X0.412500X-0.062500X0*%
%ADD47R,1.450000X2.400000*%
%ADD48R,1.450000X0.450000*%
%ADD49RoundRect,0.147500X0.147500X0.172500X-0.147500X0.172500X-0.147500X-0.172500X0.147500X-0.172500X0*%
%ADD50R,4.200000X1.400000*%
%ADD51RoundRect,0.147500X-0.147500X-0.172500X0.147500X-0.172500X0.147500X0.172500X-0.147500X0.172500X0*%
%ADD52RoundRect,0.140000X0.219203X0.021213X0.021213X0.219203X-0.219203X-0.021213X-0.021213X-0.219203X0*%
%ADD53RoundRect,0.062500X0.062500X-0.375000X0.062500X0.375000X-0.062500X0.375000X-0.062500X-0.375000X0*%
%ADD54RoundRect,0.062500X0.375000X-0.062500X0.375000X0.062500X-0.375000X0.062500X-0.375000X-0.062500X0*%
%ADD55R,3.100000X3.100000*%
%ADD56RoundRect,0.150000X0.587500X0.150000X-0.587500X0.150000X-0.587500X-0.150000X0.587500X-0.150000X0*%
%ADD57RoundRect,0.225000X0.250000X-0.225000X0.250000X0.225000X-0.250000X0.225000X-0.250000X-0.225000X0*%
%ADD58RoundRect,0.062500X-0.062500X0.350000X-0.062500X-0.350000X0.062500X-0.350000X0.062500X0.350000X0*%
%ADD59RoundRect,0.062500X-0.350000X0.062500X-0.350000X-0.062500X0.350000X-0.062500X0.350000X0.062500X0*%
%ADD60R,2.600000X2.600000*%
%ADD61RoundRect,0.062500X0.062500X-0.412500X0.062500X0.412500X-0.062500X0.412500X-0.062500X-0.412500X0*%
%ADD62R,2.400000X1.450000*%
%ADD63RoundRect,0.135000X-0.092715X0.209413X-0.227715X-0.024413X0.092715X-0.209413X0.227715X0.024413X0*%
%ADD64R,5.600000X5.600000*%
%ADD65RoundRect,0.101600X0.300000X-1.050000X0.300000X1.050000X-0.300000X1.050000X-0.300000X-1.050000X0*%
%ADD66RoundRect,0.101600X1.143000X-2.540000X1.143000X2.540000X-1.143000X2.540000X-1.143000X-2.540000X0*%
%ADD67RoundRect,0.062500X-0.062500X0.375000X-0.062500X-0.375000X0.062500X-0.375000X0.062500X0.375000X0*%
%ADD68RoundRect,0.062500X-0.375000X0.062500X-0.375000X-0.062500X0.375000X-0.062500X0.375000X0.062500X0*%
%ADD69RoundRect,0.075000X0.075000X-0.650000X0.075000X0.650000X-0.075000X0.650000X-0.075000X-0.650000X0*%
%ADD70RoundRect,0.140000X-0.021213X0.219203X-0.219203X0.021213X0.021213X-0.219203X0.219203X-0.021213X0*%
%ADD71RoundRect,0.157500X0.255000X0.157500X-0.255000X0.157500X-0.255000X-0.157500X0.255000X-0.157500X0*%
%ADD72RoundRect,0.062500X-0.350000X-0.062500X0.350000X-0.062500X0.350000X0.062500X-0.350000X0.062500X0*%
%ADD73RoundRect,0.062500X-0.062500X-0.350000X0.062500X-0.350000X0.062500X0.350000X-0.062500X0.350000X0*%
%ADD74RoundRect,0.150000X0.150000X-0.512500X0.150000X0.512500X-0.150000X0.512500X-0.150000X-0.512500X0*%
%ADD75C,1.200000*%
%ADD76O,1.308000X2.616000*%
%ADD77RoundRect,0.075000X0.225000X0.075000X-0.225000X0.075000X-0.225000X-0.075000X0.225000X-0.075000X0*%
%ADD78RoundRect,0.087500X0.762500X0.087500X-0.762500X0.087500X-0.762500X-0.087500X0.762500X-0.087500X0*%
%ADD79RoundRect,0.250000X-0.650000X0.325000X-0.650000X-0.325000X0.650000X-0.325000X0.650000X0.325000X0*%
%ADD80RoundRect,0.150000X0.512500X0.150000X-0.512500X0.150000X-0.512500X-0.150000X0.512500X-0.150000X0*%
%ADD81RoundRect,0.112500X0.112500X-0.202500X0.112500X0.202500X-0.112500X0.202500X-0.112500X-0.202500X0*%
%ADD82RoundRect,0.075000X-0.075000X0.225000X-0.075000X-0.225000X0.075000X-0.225000X0.075000X0.225000X0*%
%ADD83RoundRect,0.087500X-0.087500X0.762500X-0.087500X-0.762500X0.087500X-0.762500X0.087500X0.762500X0*%
%ADD84RoundRect,0.135000X-0.227715X0.024413X-0.092715X-0.209413X0.227715X-0.024413X0.092715X0.209413X0*%
%ADD85RoundRect,0.101600X-0.500000X2.000000X-0.500000X-2.000000X0.500000X-2.000000X0.500000X2.000000X0*%
%ADD86RoundRect,0.101600X-1.333500X2.095500X-1.333500X-2.095500X1.333500X-2.095500X1.333500X2.095500X0*%
%ADD87RoundRect,0.250000X0.900000X-1.000000X0.900000X1.000000X-0.900000X1.000000X-0.900000X-1.000000X0*%
%ADD88RoundRect,0.100000X0.000010X-0.244000X0.000010X0.244000X-0.000010X0.244000X-0.000010X-0.244000X0*%
%ADD89RoundRect,0.100000X0.244000X0.000010X-0.244000X0.000010X-0.244000X-0.000010X0.244000X-0.000010X0*%
%ADD90R,0.760000X0.760000*%
%ADD91RoundRect,0.375000X0.625000X0.375000X-0.625000X0.375000X-0.625000X-0.375000X0.625000X-0.375000X0*%
%ADD92RoundRect,0.500000X0.500000X1.400000X-0.500000X1.400000X-0.500000X-1.400000X0.500000X-1.400000X0*%
%ADD93RoundRect,0.150000X0.825000X0.150000X-0.825000X0.150000X-0.825000X-0.150000X0.825000X-0.150000X0*%
%ADD94RoundRect,0.062500X-0.062500X0.300000X-0.062500X-0.300000X0.062500X-0.300000X0.062500X0.300000X0*%
%ADD95R,1.600000X0.900000*%
%ADD96RoundRect,0.100000X-0.000010X0.244000X-0.000010X-0.244000X0.000010X-0.244000X0.000010X0.244000X0*%
%ADD97RoundRect,0.100000X-0.244000X-0.000010X0.244000X-0.000010X0.244000X0.000010X-0.244000X0.000010X0*%
%ADD98RoundRect,0.200000X-0.200000X0.500000X-0.200000X-0.500000X0.200000X-0.500000X0.200000X0.500000X0*%
%ADD99RoundRect,0.150000X-0.587500X-0.150000X0.587500X-0.150000X0.587500X0.150000X-0.587500X0.150000X0*%
%ADD100RoundRect,0.062500X-0.203293X-0.291682X0.291682X0.203293X0.203293X0.291682X-0.291682X-0.203293X0*%
%ADD101RoundRect,0.062500X0.203293X-0.291682X0.291682X-0.203293X-0.203293X0.291682X-0.291682X0.203293X0*%
%ADD102RotRect,2.500000X2.500000X45.000000*%
%ADD103R,0.700000X0.250000*%
%ADD104R,2.440000X4.340000*%
%ADD105RoundRect,0.062500X0.337500X0.062500X-0.337500X0.062500X-0.337500X-0.062500X0.337500X-0.062500X0*%
%ADD106RoundRect,0.062500X0.062500X0.337500X-0.062500X0.337500X-0.062500X-0.337500X0.062500X-0.337500X0*%
%ADD107R,2.700000X2.700000*%
%ADD108RoundRect,0.140000X0.021213X-0.219203X0.219203X-0.021213X-0.021213X0.219203X-0.219203X0.021213X0*%
%ADD109RoundRect,0.375000X-0.625000X-0.375000X0.625000X-0.375000X0.625000X0.375000X-0.625000X0.375000X0*%
%ADD110RoundRect,0.500000X-0.500000X-1.400000X0.500000X-1.400000X0.500000X1.400000X-0.500000X1.400000X0*%
%ADD111RoundRect,0.062500X0.062500X-0.362500X0.062500X0.362500X-0.062500X0.362500X-0.062500X-0.362500X0*%
%ADD112R,2.500000X1.600000*%
G04 APERTURE END LIST*
D10*
X90018900Y92983600D02*
X70018900Y92983600D01*
X70018900Y95983600D01*
X90018900Y95983600D01*
X90018900Y92983600D01*
G36*
X90018900Y92983600D02*
G01*
X70018900Y92983600D01*
X70018900Y95983600D01*
X90018900Y95983600D01*
X90018900Y92983600D01*
G37*
X106018900Y92983600D02*
X100018900Y92983600D01*
X100018900Y95983600D01*
X106018900Y95983600D01*
X106018900Y92983600D01*
G36*
X106018900Y92983600D02*
G01*
X100018900Y92983600D01*
X100018900Y95983600D01*
X106018900Y95983600D01*
X106018900Y92983600D01*
G37*
X47018900Y92983600D02*
X7018900Y92983600D01*
X6238539Y92906741D01*
X5857761Y92811361D01*
X5488166Y92679118D01*
X5133313Y92511285D01*
X4796619Y92309478D01*
X4481327Y92075642D01*
X4190473Y91812027D01*
X3926858Y91521173D01*
X3693022Y91205881D01*
X3491215Y90869187D01*
X3323382Y90514334D01*
X3191139Y90144739D01*
X3095759Y89763961D01*
X3038161Y89375669D01*
X3018900Y88983600D01*
X3018900Y61983600D01*
X3039257Y61698970D01*
X3099914Y61420135D01*
X3199636Y61152770D01*
X3336393Y60902318D01*
X3507401Y60673879D01*
X3709179Y60472101D01*
X3937618Y60301093D01*
X4188070Y60164336D01*
X4455435Y60064614D01*
X4734270Y60003957D01*
X5018900Y59983600D01*
X9018900Y59983600D01*
X11018900Y59983600D01*
X12556292Y60007720D01*
X13323765Y59958267D01*
X14087508Y59867955D01*
X14845347Y59737040D01*
X15595127Y59565895D01*
X16334712Y59355008D01*
X17061998Y59104978D01*
X17774915Y58816517D01*
X18471433Y58490446D01*
X19149570Y58127693D01*
X19807397Y57729292D01*
X20443040Y57296374D01*
X21054691Y56830173D01*
X21640608Y56332016D01*
X22199125Y55803321D01*
X22728651Y55245592D01*
X23227679Y54660416D01*
X23694789Y54049459D01*
X24128652Y53414461D01*
X24528032Y52757228D01*
X24891794Y52079631D01*
X25218900Y51383599D01*
X25218900Y51383600D01*
X25266350Y51282325D01*
X25318900Y51183600D01*
X25456272Y50983945D01*
X25626485Y50811431D01*
X25824278Y50671391D01*
X26043537Y50568151D01*
X26277488Y50504902D01*
X26518899Y50483600D01*
X26518900Y50483600D01*
X40318900Y50483600D01*
X40642700Y50495125D01*
X40962321Y50548238D01*
X41272446Y50642055D01*
X41567913Y50775015D01*
X41843804Y50944905D01*
X42095530Y51148899D01*
X42318900Y51383600D01*
X42735682Y51851805D01*
X43180884Y52293074D01*
X43652770Y52705684D01*
X44149496Y53088027D01*
X44669125Y53438611D01*
X45209629Y53756067D01*
X45768900Y54039156D01*
X46344754Y54286774D01*
X46934946Y54497955D01*
X47537171Y54671875D01*
X48149080Y54807855D01*
X48768285Y54905364D01*
X49392370Y54964022D01*
X50018900Y54983600D01*
X57018900Y54983600D01*
X57570205Y54976671D01*
X57841431Y55029476D01*
X58102943Y55118716D01*
X58349870Y55242728D01*
X58577614Y55399203D01*
X58781934Y55585228D01*
X58959026Y55797337D01*
X59105591Y56031582D01*
X59218900Y56283600D01*
X59518900Y57083600D01*
X59751478Y57641519D01*
X60018900Y58183600D01*
X60666497Y59222273D01*
X61041383Y59706468D01*
X61448097Y60164253D01*
X61884784Y60593540D01*
X62349453Y60992371D01*
X62839983Y61358927D01*
X63354138Y61691536D01*
X63889572Y61988680D01*
X64443841Y62249004D01*
X65014419Y62471321D01*
X65598702Y62654616D01*
X66194025Y62798053D01*
X66797672Y62900977D01*
X67406890Y62962921D01*
X68018900Y62983600D01*
X75018900Y62983600D01*
X92018900Y62983600D01*
X92503391Y63002923D01*
X92984804Y63060771D01*
X93460081Y63156777D01*
X93926202Y63290330D01*
X94380206Y63460581D01*
X94819208Y63666450D01*
X95240421Y63906628D01*
X95641166Y64179589D01*
X96018900Y64483600D01*
X96797379Y65060572D01*
X97218592Y65300750D01*
X97657594Y65506618D01*
X98111598Y65676870D01*
X98577719Y65810423D01*
X99052996Y65906428D01*
X99534409Y65964276D01*
X100018900Y65983600D01*
X117018900Y65983600D01*
X117303530Y66003957D01*
X117582365Y66064614D01*
X117849730Y66164336D01*
X118100182Y66301093D01*
X118328621Y66472101D01*
X118530399Y66673879D01*
X118701407Y66902318D01*
X118838164Y67152770D01*
X118937886Y67420135D01*
X118998543Y67698970D01*
X119018900Y67983600D01*
X119018900Y89783600D01*
X118943684Y90451163D01*
X118850550Y90774437D01*
X118721807Y91085251D01*
X118559073Y91379696D01*
X118364394Y91654069D01*
X118140220Y91904920D01*
X117889369Y92129094D01*
X117614996Y92323773D01*
X117320551Y92486507D01*
X117009737Y92615250D01*
X116686463Y92708384D01*
X116354793Y92764737D01*
X116018900Y92783600D01*
X116018900Y95983600D01*
X122018900Y95983600D01*
X122018900Y65983600D01*
X122018900Y-2016400D01*
X115018900Y-2016400D01*
X115018900Y2983600D01*
X115799261Y3060459D01*
X116180039Y3155839D01*
X116549634Y3288082D01*
X116904487Y3455915D01*
X117241181Y3657722D01*
X117556473Y3891558D01*
X117847327Y4155173D01*
X118110942Y4446027D01*
X118344778Y4761319D01*
X118546585Y5098013D01*
X118714418Y5452866D01*
X118846661Y5822461D01*
X118942041Y6203239D01*
X118999639Y6591531D01*
X119018900Y6983600D01*
X119018900Y15983600D01*
X118998493Y16323047D01*
X118937566Y16657604D01*
X118836996Y16982452D01*
X118698231Y17292912D01*
X118523272Y17584511D01*
X118314638Y17853048D01*
X118075334Y18094656D01*
X117808808Y18305855D01*
X117518899Y18483600D01*
X117518900Y18483600D01*
X117228991Y18661346D01*
X116962466Y18872544D01*
X116723162Y19114152D01*
X116514528Y19382690D01*
X116339569Y19674288D01*
X116200805Y19984748D01*
X116100235Y20309596D01*
X116039307Y20644153D01*
X116018900Y20983600D01*
X116018900Y21983600D01*
X116100234Y22657604D01*
X116200804Y22982452D01*
X116339568Y23292912D01*
X116514528Y23584511D01*
X116723162Y23853048D01*
X116962465Y24094656D01*
X117228991Y24305854D01*
X117518900Y24483600D01*
X117808809Y24661345D01*
X118075335Y24872544D01*
X118314638Y25114152D01*
X118523272Y25382690D01*
X118698231Y25674289D01*
X118836995Y25984748D01*
X118937565Y26309596D01*
X118998493Y26644154D01*
X119018900Y26983601D01*
X119018900Y57983600D01*
X118999873Y58419379D01*
X118942939Y58851841D01*
X118848529Y59277695D01*
X118717363Y59693701D01*
X118550439Y60096691D01*
X118349027Y60483600D01*
X118114660Y60851482D01*
X117849122Y61197538D01*
X117554434Y61519134D01*
X117232838Y61813822D01*
X116886782Y62079360D01*
X116518900Y62313727D01*
X116131991Y62515139D01*
X115729001Y62682063D01*
X115312995Y62813229D01*
X114887141Y62907639D01*
X114454679Y62964573D01*
X114018900Y62983600D01*
X103018900Y62983600D01*
X102351337Y62908384D01*
X102028063Y62815250D01*
X101717249Y62686507D01*
X101422804Y62523773D01*
X101148431Y62329094D01*
X100897580Y62104920D01*
X100673406Y61854069D01*
X100478727Y61579696D01*
X100315993Y61285251D01*
X100187250Y60974437D01*
X100094116Y60651163D01*
X100037763Y60319493D01*
X100018900Y59983600D01*
X100018900Y49983600D01*
X100039257Y49698970D01*
X100099914Y49420135D01*
X100199636Y49152770D01*
X100336393Y48902318D01*
X100507401Y48673879D01*
X100709179Y48472101D01*
X100937618Y48301093D01*
X101188070Y48164336D01*
X101455435Y48064614D01*
X101734270Y48003957D01*
X102018900Y47983600D01*
X105018900Y47983600D01*
X105303530Y47963243D01*
X105582365Y47902586D01*
X105849730Y47802864D01*
X106100182Y47666107D01*
X106328621Y47495099D01*
X106530399Y47293321D01*
X106701407Y47064882D01*
X106838164Y46814430D01*
X106937886Y46547065D01*
X106998543Y46268230D01*
X107018900Y45983600D01*
X107018900Y40983600D01*
X107039257Y40698970D01*
X107099914Y40420135D01*
X107199636Y40152770D01*
X107336393Y39902318D01*
X107507401Y39673879D01*
X107709179Y39472101D01*
X107937618Y39301093D01*
X108188070Y39164336D01*
X108455435Y39064614D01*
X108734270Y39003957D01*
X109018900Y38983600D01*
X109303530Y38963243D01*
X109582365Y38902586D01*
X109849730Y38802864D01*
X110100182Y38666107D01*
X110328621Y38495099D01*
X110530399Y38293321D01*
X110701407Y38064882D01*
X110838164Y37814430D01*
X110937886Y37547065D01*
X110998543Y37268230D01*
X111018900Y36983600D01*
X111018900Y33983600D01*
X110998543Y33698970D01*
X110937886Y33420135D01*
X110838164Y33152770D01*
X110701407Y32902318D01*
X110530399Y32673879D01*
X110328621Y32472101D01*
X110100182Y32301093D01*
X109849730Y32164336D01*
X109582365Y32064614D01*
X109303530Y32003957D01*
X109018900Y31983600D01*
X101018900Y31983600D01*
X100734270Y31963243D01*
X100455435Y31902586D01*
X100188070Y31802864D01*
X99937618Y31666107D01*
X99709179Y31495099D01*
X99507401Y31293321D01*
X99336393Y31064882D01*
X99199636Y30814430D01*
X99099914Y30547065D01*
X99039257Y30268230D01*
X99018900Y29983600D01*
X99018900Y15983600D01*
X99018900Y10983600D01*
X98998543Y10698970D01*
X98937886Y10420135D01*
X98838164Y10152770D01*
X98701407Y9902318D01*
X98530399Y9673879D01*
X98328621Y9472101D01*
X98100182Y9301093D01*
X97849730Y9164336D01*
X97582365Y9064614D01*
X97303530Y9003957D01*
X97018900Y8983600D01*
X96310010Y9008758D01*
X95604686Y9084105D01*
X94906479Y9209262D01*
X94218900Y9383600D01*
X93621338Y9578565D01*
X93037274Y9810862D01*
X91918900Y10383600D01*
X91018900Y10983600D01*
X90490946Y11350843D01*
X89940733Y11683812D01*
X89370481Y11981160D01*
X88782495Y12241688D01*
X88179148Y12464344D01*
X87562877Y12648228D01*
X86936171Y12792597D01*
X86301561Y12896869D01*
X85661609Y12960623D01*
X85018900Y12983600D01*
X85018899Y12983600D01*
X84733892Y12964246D01*
X84454583Y12904327D01*
X84186716Y12805076D01*
X83935798Y12668532D01*
X83706989Y12497505D01*
X83504994Y12295510D01*
X83333967Y12066702D01*
X83197423Y11815784D01*
X83098172Y11547916D01*
X83038253Y11268607D01*
X83018900Y10983600D01*
X83018900Y7483600D01*
X83018900Y4983600D01*
X83039257Y4698970D01*
X83099914Y4420135D01*
X83199636Y4152770D01*
X83336393Y3902318D01*
X83507401Y3673879D01*
X83709179Y3472101D01*
X83937618Y3301093D01*
X84188070Y3164336D01*
X84455435Y3064614D01*
X84734270Y3003957D01*
X85018900Y2983600D01*
X105018900Y2983600D01*
X105018900Y-2016400D01*
X16818900Y-2016400D01*
X16818900Y2983600D01*
X32018900Y2983600D01*
X32614184Y3061971D01*
X32899072Y3158677D01*
X33168900Y3291742D01*
X33419051Y3458887D01*
X33645246Y3657254D01*
X33843613Y3883449D01*
X34010758Y4133600D01*
X34143823Y4403428D01*
X34240529Y4688316D01*
X34299223Y4983390D01*
X34318900Y5283600D01*
X34318900Y6983600D01*
X34233837Y7750808D01*
X34137682Y8125033D01*
X34006807Y8488575D01*
X33842368Y8838219D01*
X33645820Y9170874D01*
X33418900Y9483600D01*
X33409398Y9495477D01*
X33018900Y9983600D01*
X32397113Y10669746D01*
X32041274Y10966721D01*
X31659465Y11229470D01*
X31254967Y11455736D01*
X30831255Y11643575D01*
X30391971Y11791372D01*
X29940888Y11897859D01*
X29481882Y11962119D01*
X29018899Y11983600D01*
X29018900Y11983600D01*
X28583121Y12002627D01*
X28150659Y12059561D01*
X27724805Y12153971D01*
X27308799Y12285137D01*
X26905809Y12452061D01*
X26518900Y12653473D01*
X26151018Y12887840D01*
X25804962Y13153378D01*
X25483366Y13448066D01*
X25188678Y13769662D01*
X24923140Y14115718D01*
X24688773Y14483600D01*
X24487361Y14870509D01*
X24320437Y15273499D01*
X24189271Y15689505D01*
X24094861Y16115359D01*
X24037927Y16547821D01*
X24018900Y16983600D01*
X24018900Y22983600D01*
X23998493Y23323047D01*
X23937566Y23657604D01*
X23836996Y23982452D01*
X23698231Y24292912D01*
X23523272Y24584511D01*
X23314638Y24853048D01*
X23075334Y25094656D01*
X22808808Y25305855D01*
X22518899Y25483600D01*
X22518900Y25483600D01*
X22228991Y25661346D01*
X21962466Y25872544D01*
X21723162Y26114152D01*
X21514528Y26382690D01*
X21339569Y26674288D01*
X21200805Y26984748D01*
X21100235Y27309596D01*
X21039307Y27644153D01*
X21018900Y27983600D01*
X21018900Y28983600D01*
X21100234Y29657604D01*
X21200804Y29982452D01*
X21339568Y30292912D01*
X21514528Y30584511D01*
X21723162Y30853048D01*
X21962465Y31094656D01*
X22228991Y31305854D01*
X22518900Y31483600D01*
X22808809Y31661345D01*
X23075335Y31872544D01*
X23314638Y32114152D01*
X23523272Y32382690D01*
X23698231Y32674289D01*
X23836995Y32984748D01*
X23937565Y33309596D01*
X23998493Y33644154D01*
X24018900Y33983601D01*
X24018900Y43983600D01*
X27018900Y43983600D01*
X27018900Y16983600D01*
X27095020Y16600917D01*
X27187430Y16428030D01*
X27311793Y16276493D01*
X27463330Y16152130D01*
X27636217Y16059720D01*
X27823810Y16002815D01*
X28018900Y15983600D01*
X32018900Y15983600D01*
X32686463Y15908384D01*
X33009737Y15815250D01*
X33320551Y15686507D01*
X33614996Y15523773D01*
X33889369Y15329094D01*
X34140220Y15104920D01*
X34364394Y14854069D01*
X34559073Y14579696D01*
X34721807Y14285251D01*
X34850550Y13974437D01*
X34943684Y13651163D01*
X35000037Y13319493D01*
X35018900Y12983600D01*
X35018900Y12483600D01*
X35039257Y12198970D01*
X35099914Y11920135D01*
X35199636Y11652770D01*
X35336393Y11402318D01*
X35507401Y11173879D01*
X35709179Y10972101D01*
X35937618Y10801093D01*
X36188070Y10664336D01*
X36455435Y10564614D01*
X36734270Y10503957D01*
X37018900Y10483600D01*
X45518900Y10483600D01*
X46173532Y10570830D01*
X46486484Y10678436D01*
X46782481Y10826434D01*
X47056337Y11012233D01*
X47303252Y11232575D01*
X47518900Y11483600D01*
X47981464Y11954968D01*
X48255319Y12140766D01*
X48551316Y12288764D01*
X48864268Y12396370D01*
X49188692Y12461697D01*
X49518901Y12483600D01*
X50518900Y12483600D01*
X51173532Y12396370D01*
X51486484Y12288764D01*
X51782481Y12140765D01*
X52056337Y11954967D01*
X52303252Y11734624D01*
X52518901Y11483599D01*
X52518900Y11483600D01*
X52981464Y11012233D01*
X53255319Y10826434D01*
X53551316Y10678436D01*
X53864268Y10570830D01*
X54188691Y10505504D01*
X54518900Y10483600D01*
X57018900Y10483600D01*
X57401583Y10407480D01*
X57574470Y10315070D01*
X57726007Y10190707D01*
X57850370Y10039170D01*
X57942780Y9866283D01*
X57999685Y9678690D01*
X58018900Y9483600D01*
X58018900Y8483600D01*
X57942780Y8100917D01*
X57850370Y7928030D01*
X57726007Y7776493D01*
X57574470Y7652130D01*
X57401583Y7559720D01*
X57213990Y7502815D01*
X57018900Y7483600D01*
X56636217Y7407480D01*
X56463330Y7315070D01*
X56311793Y7190707D01*
X56187430Y7039170D01*
X56095020Y6866283D01*
X56038115Y6678690D01*
X56018900Y6483600D01*
X56018900Y4983600D01*
X56039257Y4698970D01*
X56099914Y4420135D01*
X56199636Y4152770D01*
X56336393Y3902318D01*
X56507401Y3673879D01*
X56709179Y3472101D01*
X56937618Y3301093D01*
X57188070Y3164336D01*
X57455435Y3064614D01*
X57734270Y3003957D01*
X58018900Y2983600D01*
X66018900Y2983600D01*
X66303530Y3003957D01*
X66582365Y3064614D01*
X66849730Y3164336D01*
X67100182Y3301093D01*
X67328621Y3472101D01*
X67530399Y3673879D01*
X67701407Y3902318D01*
X67838164Y4152770D01*
X67937886Y4420135D01*
X67998543Y4698970D01*
X68018900Y4983600D01*
X68018900Y7483600D01*
X68018900Y27983600D01*
X71018900Y27983600D01*
X71018900Y27883600D01*
X71018900Y16983600D01*
X71018900Y16483600D01*
X71039257Y16198970D01*
X71099914Y15920135D01*
X71199636Y15652770D01*
X71336393Y15402318D01*
X71507401Y15173879D01*
X71709179Y14972101D01*
X71937618Y14801093D01*
X72188070Y14664336D01*
X72455435Y14564614D01*
X72734270Y14503957D01*
X73018900Y14483600D01*
X74084927Y14503657D01*
X75149444Y14563799D01*
X76210946Y14663940D01*
X78318900Y14983600D01*
X79718900Y15283600D01*
X80785203Y15514258D01*
X81860262Y15699876D01*
X82942175Y15840124D01*
X84822446Y15964060D01*
X85118900Y15983600D01*
X94018900Y15983600D01*
X94303530Y16003957D01*
X94582365Y16064614D01*
X94849730Y16164336D01*
X95100182Y16301093D01*
X95328621Y16472101D01*
X95530399Y16673879D01*
X95701407Y16902318D01*
X95838164Y17152770D01*
X95937886Y17420135D01*
X95998543Y17698970D01*
X96018900Y17983600D01*
X96018900Y29983600D01*
X95998543Y30268230D01*
X95937886Y30547065D01*
X95838164Y30814430D01*
X95701407Y31064882D01*
X95530399Y31293321D01*
X95328621Y31495099D01*
X95100182Y31666107D01*
X94849730Y31802864D01*
X94582365Y31902586D01*
X94303530Y31963243D01*
X94018900Y31983600D01*
X75018900Y31983600D01*
X74238539Y31906741D01*
X73857761Y31811361D01*
X73488166Y31679118D01*
X73133313Y31511285D01*
X72796619Y31309478D01*
X72481327Y31075642D01*
X72190473Y30812027D01*
X71926858Y30521173D01*
X71693022Y30205881D01*
X71491215Y29869187D01*
X71323382Y29514334D01*
X71191139Y29144739D01*
X71095759Y28763961D01*
X71038161Y28375669D01*
X71018900Y27983600D01*
X68018900Y27983600D01*
X68018900Y33983600D01*
X68095020Y34366283D01*
X68187430Y34539170D01*
X68311793Y34690707D01*
X68463330Y34815070D01*
X68636217Y34907480D01*
X68823810Y34964385D01*
X69018900Y34983600D01*
X99018900Y34983600D01*
X101018900Y34983600D01*
X101686463Y35058816D01*
X102009737Y35151950D01*
X102320551Y35280693D01*
X102614996Y35443427D01*
X102889369Y35638106D01*
X103140220Y35862280D01*
X103364394Y36113131D01*
X103559073Y36387504D01*
X103721807Y36681949D01*
X103850550Y36992763D01*
X103943684Y37316037D01*
X104000037Y37647707D01*
X104018900Y37983600D01*
X104018900Y42983600D01*
X103998543Y43268230D01*
X103937886Y43547065D01*
X103838164Y43814430D01*
X103701407Y44064882D01*
X103530399Y44293321D01*
X103328621Y44495099D01*
X103100182Y44666107D01*
X102849730Y44802864D01*
X102582365Y44902586D01*
X102303530Y44963243D01*
X102018900Y44983600D01*
X101559904Y45004713D01*
X101104783Y45067871D01*
X100657383Y45172543D01*
X100221480Y45317844D01*
X99800757Y45502547D01*
X99398765Y45725092D01*
X99018901Y45983600D01*
X99018900Y45983600D01*
X98237044Y46464653D01*
X97816320Y46649356D01*
X97380417Y46794657D01*
X96933017Y46899329D01*
X96477896Y46962488D01*
X96018900Y46983600D01*
X83018900Y46983600D01*
X82351337Y46908384D01*
X82028063Y46815250D01*
X81717249Y46686507D01*
X81422804Y46523773D01*
X81148431Y46329094D01*
X80897580Y46104920D01*
X80673406Y45854069D01*
X80478727Y45579696D01*
X80315993Y45285251D01*
X80187250Y44974437D01*
X80094116Y44651163D01*
X80037763Y44319493D01*
X80018900Y43983600D01*
X79942041Y43203239D01*
X79846661Y42822461D01*
X79714418Y42452866D01*
X79546585Y42098013D01*
X79344778Y41761319D01*
X79110942Y41446027D01*
X78847327Y41155173D01*
X78556473Y40891558D01*
X78241181Y40657722D01*
X77904487Y40455915D01*
X77549634Y40288082D01*
X77180039Y40155839D01*
X76799261Y40060459D01*
X76410969Y40002861D01*
X76018900Y39983600D01*
X61018900Y39983600D01*
X60734270Y40003957D01*
X60455435Y40064614D01*
X60188070Y40164336D01*
X59937618Y40301093D01*
X59709179Y40472101D01*
X59507401Y40673879D01*
X59336393Y40902318D01*
X59199636Y41152770D01*
X59099914Y41420135D01*
X59039257Y41698970D01*
X59018900Y41983600D01*
X59018900Y47483600D01*
X62018900Y47483600D01*
X62018900Y46983600D01*
X62095759Y46203239D01*
X62191139Y45822461D01*
X62323382Y45452866D01*
X62491215Y45098013D01*
X62693022Y44761319D01*
X62926858Y44446027D01*
X63190473Y44155173D01*
X63481327Y43891558D01*
X63796619Y43657722D01*
X64133313Y43455915D01*
X64488166Y43288082D01*
X64857761Y43155839D01*
X65238539Y43060459D01*
X65626831Y43002861D01*
X66018900Y42983600D01*
X75018900Y42983600D01*
X75303530Y43003957D01*
X75582365Y43064614D01*
X75849730Y43164336D01*
X76100182Y43301093D01*
X76328621Y43472101D01*
X76530399Y43673879D01*
X76701407Y43902318D01*
X76838164Y44152770D01*
X76937886Y44420135D01*
X76998543Y44698970D01*
X77018900Y44983600D01*
X77037927Y45419379D01*
X77094861Y45851841D01*
X77189271Y46277695D01*
X77320437Y46693701D01*
X77487361Y47096691D01*
X77688773Y47483600D01*
X77923140Y47851482D01*
X78188678Y48197538D01*
X78483366Y48519134D01*
X78804962Y48813822D01*
X79151018Y49079360D01*
X79518900Y49313727D01*
X79905809Y49515139D01*
X80308799Y49682063D01*
X80724805Y49813229D01*
X81150659Y49907639D01*
X81583121Y49964573D01*
X82018900Y49983600D01*
X95018900Y49983600D01*
X95303530Y50003957D01*
X95582365Y50064614D01*
X95849730Y50164336D01*
X96100182Y50301093D01*
X96328621Y50472101D01*
X96530399Y50673879D01*
X96701407Y50902318D01*
X96838164Y51152770D01*
X96937886Y51420135D01*
X96998543Y51698970D01*
X97018900Y51983600D01*
X97018900Y57983600D01*
X96998543Y58268230D01*
X96937886Y58547065D01*
X96838164Y58814430D01*
X96701407Y59064882D01*
X96530399Y59293321D01*
X96328621Y59495099D01*
X96100182Y59666107D01*
X95849730Y59802864D01*
X95582365Y59902586D01*
X95303530Y59963243D01*
X95018900Y59983600D01*
X75018900Y59983600D01*
X68018900Y59983600D01*
X67523424Y59963107D01*
X67031332Y59901768D01*
X66545987Y59800002D01*
X66070703Y59658503D01*
X65608727Y59478240D01*
X65163216Y59260443D01*
X64737211Y59006599D01*
X64333624Y58718443D01*
X63955211Y58397943D01*
X63604557Y58047289D01*
X63284057Y57668876D01*
X62995901Y57265289D01*
X62742057Y56839284D01*
X62524260Y56393773D01*
X62343997Y55931797D01*
X62202498Y55456513D01*
X62100732Y54971168D01*
X62039393Y54479076D01*
X62018900Y53983600D01*
X62018900Y51983600D01*
X50018900Y51983600D01*
X49495789Y51964027D01*
X48975604Y51905416D01*
X48461253Y51808095D01*
X47955614Y51672610D01*
X47461513Y51499716D01*
X46981714Y51290382D01*
X46518900Y51045778D01*
X46075660Y50767271D01*
X45654471Y50456420D01*
X45257691Y50114963D01*
X44887537Y49744809D01*
X44546080Y49348029D01*
X44235229Y48926840D01*
X43956722Y48483600D01*
X43712118Y48020786D01*
X43502784Y47540987D01*
X43329890Y47046886D01*
X43194405Y46541247D01*
X43097084Y46026896D01*
X43038473Y45506711D01*
X43018900Y44983600D01*
X43018900Y40983600D01*
X43039283Y40412887D01*
X43100328Y39845081D01*
X43201725Y39283078D01*
X43342956Y38729740D01*
X43523302Y38187887D01*
X43741844Y37660280D01*
X43997468Y37149608D01*
X44288872Y36658473D01*
X44614570Y36189379D01*
X44972903Y35744714D01*
X45362046Y35326746D01*
X45780014Y34937603D01*
X46224679Y34579270D01*
X46693773Y34253572D01*
X47184908Y33962168D01*
X47695580Y33706544D01*
X48223187Y33488002D01*
X48765040Y33307656D01*
X49318378Y33166425D01*
X49880381Y33065028D01*
X50448187Y33003983D01*
X51018900Y32983600D01*
X57018900Y32983600D01*
X57401583Y32907480D01*
X57574470Y32815070D01*
X57726007Y32690707D01*
X57850370Y32539170D01*
X57942780Y32366283D01*
X57999685Y32178690D01*
X58018900Y31983600D01*
X58018900Y14983600D01*
X55018900Y14983600D01*
X55018900Y25983600D01*
X54942041Y26763961D01*
X54846661Y27144739D01*
X54714418Y27514334D01*
X54546585Y27869187D01*
X54344778Y28205881D01*
X54110942Y28521173D01*
X53847327Y28812027D01*
X53556473Y29075642D01*
X53241181Y29309478D01*
X52904487Y29511285D01*
X52549634Y29679118D01*
X52180039Y29811361D01*
X51799261Y29906741D01*
X51410969Y29964339D01*
X51018900Y29983600D01*
X49692997Y30063802D01*
X49036095Y30163781D01*
X48386428Y30303240D01*
X47746366Y30481670D01*
X47118246Y30698421D01*
X46504359Y30952702D01*
X45906945Y31243584D01*
X45328184Y31570006D01*
X44770188Y31930777D01*
X44234992Y32324582D01*
X43724551Y32749982D01*
X43240725Y33205425D01*
X42785282Y33689251D01*
X42359882Y34199692D01*
X41966077Y34734888D01*
X41605306Y35292884D01*
X41278884Y35871645D01*
X40988002Y36469059D01*
X40733721Y37082946D01*
X40516970Y37711066D01*
X40338540Y38351128D01*
X40199081Y39000795D01*
X40099102Y39657697D01*
X40038969Y40319437D01*
X40018900Y40983600D01*
X40018900Y43983600D01*
X39998543Y44268230D01*
X39937886Y44547065D01*
X39838164Y44814430D01*
X39701407Y45064882D01*
X39530399Y45293321D01*
X39328621Y45495099D01*
X39100182Y45666107D01*
X38849730Y45802864D01*
X38582365Y45902586D01*
X38303530Y45963243D01*
X38018900Y45983600D01*
X29018900Y45983600D01*
X28734270Y45963243D01*
X28455435Y45902586D01*
X28188070Y45802864D01*
X27937618Y45666107D01*
X27709179Y45495099D01*
X27507401Y45293321D01*
X27336393Y45064882D01*
X27199636Y44814430D01*
X27099914Y44547065D01*
X27039257Y44268230D01*
X27018900Y43983600D01*
X24018900Y43983600D01*
X23937159Y45439138D01*
X23835223Y46161181D01*
X23692963Y46876372D01*
X23510825Y47582462D01*
X23289383Y48277228D01*
X23029334Y48958485D01*
X22731495Y49624089D01*
X22396804Y50271946D01*
X22026315Y50900017D01*
X21621191Y51506327D01*
X21182709Y52088967D01*
X20712248Y52646106D01*
X20211288Y53175988D01*
X19681406Y53676948D01*
X19124267Y54147409D01*
X18541627Y54585891D01*
X17935317Y54991015D01*
X17307246Y55361504D01*
X16659389Y55696195D01*
X15993785Y55994034D01*
X15312528Y56254083D01*
X14617762Y56475525D01*
X13911672Y56657663D01*
X13196481Y56799923D01*
X12474438Y56901859D01*
X11747816Y56963149D01*
X11018900Y56983600D01*
X9018900Y56983600D01*
X7018900Y56983600D01*
X6238539Y56906741D01*
X5857761Y56811361D01*
X5488166Y56679118D01*
X5133313Y56511285D01*
X4796619Y56309478D01*
X4481327Y56075642D01*
X4190473Y55812027D01*
X3926858Y55521173D01*
X3693022Y55205881D01*
X3491215Y54869187D01*
X3323382Y54514334D01*
X3191139Y54144739D01*
X3095759Y53763961D01*
X3038161Y53375669D01*
X3018900Y52983600D01*
X3018900Y33983600D01*
X3100234Y33309596D01*
X3200804Y32984748D01*
X3339569Y32674289D01*
X3514528Y32382690D01*
X3723162Y32114152D01*
X3962465Y31872544D01*
X4228991Y31661346D01*
X4518900Y31483600D01*
X4808809Y31305854D01*
X5075334Y31094656D01*
X5314638Y30853047D01*
X5523272Y30584510D01*
X5698231Y30292911D01*
X5836995Y29982451D01*
X5937565Y29657603D01*
X5998493Y29323046D01*
X6018900Y28983599D01*
X6018900Y27983600D01*
X5998493Y27644153D01*
X5937565Y27309596D01*
X5836995Y26984748D01*
X5698231Y26674288D01*
X5523272Y26382690D01*
X5314638Y26114152D01*
X5075334Y25872544D01*
X4808808Y25661346D01*
X4518900Y25483600D01*
X4228992Y25305854D01*
X3962466Y25094655D01*
X3723163Y24853047D01*
X3514529Y24584510D01*
X3339569Y24292911D01*
X3200805Y23982452D01*
X3100235Y23657604D01*
X3039307Y23323047D01*
X3018900Y22983600D01*
X3018900Y6983600D01*
X3095759Y6203239D01*
X3191139Y5822461D01*
X3323382Y5452866D01*
X3491215Y5098013D01*
X3693022Y4761319D01*
X3926858Y4446027D01*
X4190473Y4155173D01*
X4481327Y3891558D01*
X4796619Y3657722D01*
X5133313Y3455915D01*
X5488166Y3288082D01*
X5857761Y3155839D01*
X6238539Y3060459D01*
X6626831Y3002861D01*
X7018900Y2983600D01*
X7018900Y-2016400D01*
X18900Y-2016400D01*
X18900Y95983600D01*
X47018900Y95983600D01*
X47018900Y92983600D01*
G36*
X47018900Y92983600D02*
G01*
X7018900Y92983600D01*
X6238539Y92906741D01*
X5857761Y92811361D01*
X5488166Y92679118D01*
X5133313Y92511285D01*
X4796619Y92309478D01*
X4481327Y92075642D01*
X4190473Y91812027D01*
X3926858Y91521173D01*
X3693022Y91205881D01*
X3491215Y90869187D01*
X3323382Y90514334D01*
X3191139Y90144739D01*
X3095759Y89763961D01*
X3038161Y89375669D01*
X3018900Y88983600D01*
X3018900Y61983600D01*
X3039257Y61698970D01*
X3099914Y61420135D01*
X3199636Y61152770D01*
X3336393Y60902318D01*
X3507401Y60673879D01*
X3709179Y60472101D01*
X3937618Y60301093D01*
X4188070Y60164336D01*
X4455435Y60064614D01*
X4734270Y60003957D01*
X5018900Y59983600D01*
X9018900Y59983600D01*
X11018900Y59983600D01*
X12556292Y60007720D01*
X13323765Y59958267D01*
X14087508Y59867955D01*
X14845347Y59737040D01*
X15595127Y59565895D01*
X16334712Y59355008D01*
X17061998Y59104978D01*
X17774915Y58816517D01*
X18471433Y58490446D01*
X19149570Y58127693D01*
X19807397Y57729292D01*
X20443040Y57296374D01*
X21054691Y56830173D01*
X21640608Y56332016D01*
X22199125Y55803321D01*
X22728651Y55245592D01*
X23227679Y54660416D01*
X23694789Y54049459D01*
X24128652Y53414461D01*
X24528032Y52757228D01*
X24891794Y52079631D01*
X25218900Y51383599D01*
X25218900Y51383600D01*
X25266350Y51282325D01*
X25318900Y51183600D01*
X25456272Y50983945D01*
X25626485Y50811431D01*
X25824278Y50671391D01*
X26043537Y50568151D01*
X26277488Y50504902D01*
X26518899Y50483600D01*
X26518900Y50483600D01*
X40318900Y50483600D01*
X40642700Y50495125D01*
X40962321Y50548238D01*
X41272446Y50642055D01*
X41567913Y50775015D01*
X41843804Y50944905D01*
X42095530Y51148899D01*
X42318900Y51383600D01*
X42735682Y51851805D01*
X43180884Y52293074D01*
X43652770Y52705684D01*
X44149496Y53088027D01*
X44669125Y53438611D01*
X45209629Y53756067D01*
X45768900Y54039156D01*
X46344754Y54286774D01*
X46934946Y54497955D01*
X47537171Y54671875D01*
X48149080Y54807855D01*
X48768285Y54905364D01*
X49392370Y54964022D01*
X50018900Y54983600D01*
X57018900Y54983600D01*
X57570205Y54976671D01*
X57841431Y55029476D01*
X58102943Y55118716D01*
X58349870Y55242728D01*
X58577614Y55399203D01*
X58781934Y55585228D01*
X58959026Y55797337D01*
X59105591Y56031582D01*
X59218900Y56283600D01*
X59518900Y57083600D01*
X59751478Y57641519D01*
X60018900Y58183600D01*
X60666497Y59222273D01*
X61041383Y59706468D01*
X61448097Y60164253D01*
X61884784Y60593540D01*
X62349453Y60992371D01*
X62839983Y61358927D01*
X63354138Y61691536D01*
X63889572Y61988680D01*
X64443841Y62249004D01*
X65014419Y62471321D01*
X65598702Y62654616D01*
X66194025Y62798053D01*
X66797672Y62900977D01*
X67406890Y62962921D01*
X68018900Y62983600D01*
X75018900Y62983600D01*
X92018900Y62983600D01*
X92503391Y63002923D01*
X92984804Y63060771D01*
X93460081Y63156777D01*
X93926202Y63290330D01*
X94380206Y63460581D01*
X94819208Y63666450D01*
X95240421Y63906628D01*
X95641166Y64179589D01*
X96018900Y64483600D01*
X96797379Y65060572D01*
X97218592Y65300750D01*
X97657594Y65506618D01*
X98111598Y65676870D01*
X98577719Y65810423D01*
X99052996Y65906428D01*
X99534409Y65964276D01*
X100018900Y65983600D01*
X117018900Y65983600D01*
X117303530Y66003957D01*
X117582365Y66064614D01*
X117849730Y66164336D01*
X118100182Y66301093D01*
X118328621Y66472101D01*
X118530399Y66673879D01*
X118701407Y66902318D01*
X118838164Y67152770D01*
X118937886Y67420135D01*
X118998543Y67698970D01*
X119018900Y67983600D01*
X119018900Y89783600D01*
X118943684Y90451163D01*
X118850550Y90774437D01*
X118721807Y91085251D01*
X118559073Y91379696D01*
X118364394Y91654069D01*
X118140220Y91904920D01*
X117889369Y92129094D01*
X117614996Y92323773D01*
X117320551Y92486507D01*
X117009737Y92615250D01*
X116686463Y92708384D01*
X116354793Y92764737D01*
X116018900Y92783600D01*
X116018900Y95983600D01*
X122018900Y95983600D01*
X122018900Y65983600D01*
X122018900Y-2016400D01*
X115018900Y-2016400D01*
X115018900Y2983600D01*
X115799261Y3060459D01*
X116180039Y3155839D01*
X116549634Y3288082D01*
X116904487Y3455915D01*
X117241181Y3657722D01*
X117556473Y3891558D01*
X117847327Y4155173D01*
X118110942Y4446027D01*
X118344778Y4761319D01*
X118546585Y5098013D01*
X118714418Y5452866D01*
X118846661Y5822461D01*
X118942041Y6203239D01*
X118999639Y6591531D01*
X119018900Y6983600D01*
X119018900Y15983600D01*
X118998493Y16323047D01*
X118937566Y16657604D01*
X118836996Y16982452D01*
X118698231Y17292912D01*
X118523272Y17584511D01*
X118314638Y17853048D01*
X118075334Y18094656D01*
X117808808Y18305855D01*
X117518899Y18483600D01*
X117518900Y18483600D01*
X117228991Y18661346D01*
X116962466Y18872544D01*
X116723162Y19114152D01*
X116514528Y19382690D01*
X116339569Y19674288D01*
X116200805Y19984748D01*
X116100235Y20309596D01*
X116039307Y20644153D01*
X116018900Y20983600D01*
X116018900Y21983600D01*
X116100234Y22657604D01*
X116200804Y22982452D01*
X116339568Y23292912D01*
X116514528Y23584511D01*
X116723162Y23853048D01*
X116962465Y24094656D01*
X117228991Y24305854D01*
X117518900Y24483600D01*
X117808809Y24661345D01*
X118075335Y24872544D01*
X118314638Y25114152D01*
X118523272Y25382690D01*
X118698231Y25674289D01*
X118836995Y25984748D01*
X118937565Y26309596D01*
X118998493Y26644154D01*
X119018900Y26983601D01*
X119018900Y57983600D01*
X118999873Y58419379D01*
X118942939Y58851841D01*
X118848529Y59277695D01*
X118717363Y59693701D01*
X118550439Y60096691D01*
X118349027Y60483600D01*
X118114660Y60851482D01*
X117849122Y61197538D01*
X117554434Y61519134D01*
X117232838Y61813822D01*
X116886782Y62079360D01*
X116518900Y62313727D01*
X116131991Y62515139D01*
X115729001Y62682063D01*
X115312995Y62813229D01*
X114887141Y62907639D01*
X114454679Y62964573D01*
X114018900Y62983600D01*
X103018900Y62983600D01*
X102351337Y62908384D01*
X102028063Y62815250D01*
X101717249Y62686507D01*
X101422804Y62523773D01*
X101148431Y62329094D01*
X100897580Y62104920D01*
X100673406Y61854069D01*
X100478727Y61579696D01*
X100315993Y61285251D01*
X100187250Y60974437D01*
X100094116Y60651163D01*
X100037763Y60319493D01*
X100018900Y59983600D01*
X100018900Y49983600D01*
X100039257Y49698970D01*
X100099914Y49420135D01*
X100199636Y49152770D01*
X100336393Y48902318D01*
X100507401Y48673879D01*
X100709179Y48472101D01*
X100937618Y48301093D01*
X101188070Y48164336D01*
X101455435Y48064614D01*
X101734270Y48003957D01*
X102018900Y47983600D01*
X105018900Y47983600D01*
X105303530Y47963243D01*
X105582365Y47902586D01*
X105849730Y47802864D01*
X106100182Y47666107D01*
X106328621Y47495099D01*
X106530399Y47293321D01*
X106701407Y47064882D01*
X106838164Y46814430D01*
X106937886Y46547065D01*
X106998543Y46268230D01*
X107018900Y45983600D01*
X107018900Y40983600D01*
X107039257Y40698970D01*
X107099914Y40420135D01*
X107199636Y40152770D01*
X107336393Y39902318D01*
X107507401Y39673879D01*
X107709179Y39472101D01*
X107937618Y39301093D01*
X108188070Y39164336D01*
X108455435Y39064614D01*
X108734270Y39003957D01*
X109018900Y38983600D01*
X109303530Y38963243D01*
X109582365Y38902586D01*
X109849730Y38802864D01*
X110100182Y38666107D01*
X110328621Y38495099D01*
X110530399Y38293321D01*
X110701407Y38064882D01*
X110838164Y37814430D01*
X110937886Y37547065D01*
X110998543Y37268230D01*
X111018900Y36983600D01*
X111018900Y33983600D01*
X110998543Y33698970D01*
X110937886Y33420135D01*
X110838164Y33152770D01*
X110701407Y32902318D01*
X110530399Y32673879D01*
X110328621Y32472101D01*
X110100182Y32301093D01*
X109849730Y32164336D01*
X109582365Y32064614D01*
X109303530Y32003957D01*
X109018900Y31983600D01*
X101018900Y31983600D01*
X100734270Y31963243D01*
X100455435Y31902586D01*
X100188070Y31802864D01*
X99937618Y31666107D01*
X99709179Y31495099D01*
X99507401Y31293321D01*
X99336393Y31064882D01*
X99199636Y30814430D01*
X99099914Y30547065D01*
X99039257Y30268230D01*
X99018900Y29983600D01*
X99018900Y15983600D01*
X99018900Y10983600D01*
X98998543Y10698970D01*
X98937886Y10420135D01*
X98838164Y10152770D01*
X98701407Y9902318D01*
X98530399Y9673879D01*
X98328621Y9472101D01*
X98100182Y9301093D01*
X97849730Y9164336D01*
X97582365Y9064614D01*
X97303530Y9003957D01*
X97018900Y8983600D01*
X96310010Y9008758D01*
X95604686Y9084105D01*
X94906479Y9209262D01*
X94218900Y9383600D01*
X93621338Y9578565D01*
X93037274Y9810862D01*
X91918900Y10383600D01*
X91018900Y10983600D01*
X90490946Y11350843D01*
X89940733Y11683812D01*
X89370481Y11981160D01*
X88782495Y12241688D01*
X88179148Y12464344D01*
X87562877Y12648228D01*
X86936171Y12792597D01*
X86301561Y12896869D01*
X85661609Y12960623D01*
X85018900Y12983600D01*
X85018899Y12983600D01*
X84733892Y12964246D01*
X84454583Y12904327D01*
X84186716Y12805076D01*
X83935798Y12668532D01*
X83706989Y12497505D01*
X83504994Y12295510D01*
X83333967Y12066702D01*
X83197423Y11815784D01*
X83098172Y11547916D01*
X83038253Y11268607D01*
X83018900Y10983600D01*
X83018900Y7483600D01*
X83018900Y4983600D01*
X83039257Y4698970D01*
X83099914Y4420135D01*
X83199636Y4152770D01*
X83336393Y3902318D01*
X83507401Y3673879D01*
X83709179Y3472101D01*
X83937618Y3301093D01*
X84188070Y3164336D01*
X84455435Y3064614D01*
X84734270Y3003957D01*
X85018900Y2983600D01*
X105018900Y2983600D01*
X105018900Y-2016400D01*
X16818900Y-2016400D01*
X16818900Y2983600D01*
X32018900Y2983600D01*
X32614184Y3061971D01*
X32899072Y3158677D01*
X33168900Y3291742D01*
X33419051Y3458887D01*
X33645246Y3657254D01*
X33843613Y3883449D01*
X34010758Y4133600D01*
X34143823Y4403428D01*
X34240529Y4688316D01*
X34299223Y4983390D01*
X34318900Y5283600D01*
X34318900Y6983600D01*
X34233837Y7750808D01*
X34137682Y8125033D01*
X34006807Y8488575D01*
X33842368Y8838219D01*
X33645820Y9170874D01*
X33418900Y9483600D01*
X33409398Y9495477D01*
X33018900Y9983600D01*
X32397113Y10669746D01*
X32041274Y10966721D01*
X31659465Y11229470D01*
X31254967Y11455736D01*
X30831255Y11643575D01*
X30391971Y11791372D01*
X29940888Y11897859D01*
X29481882Y11962119D01*
X29018899Y11983600D01*
X29018900Y11983600D01*
X28583121Y12002627D01*
X28150659Y12059561D01*
X27724805Y12153971D01*
X27308799Y12285137D01*
X26905809Y12452061D01*
X26518900Y12653473D01*
X26151018Y12887840D01*
X25804962Y13153378D01*
X25483366Y13448066D01*
X25188678Y13769662D01*
X24923140Y14115718D01*
X24688773Y14483600D01*
X24487361Y14870509D01*
X24320437Y15273499D01*
X24189271Y15689505D01*
X24094861Y16115359D01*
X24037927Y16547821D01*
X24018900Y16983600D01*
X24018900Y22983600D01*
X23998493Y23323047D01*
X23937566Y23657604D01*
X23836996Y23982452D01*
X23698231Y24292912D01*
X23523272Y24584511D01*
X23314638Y24853048D01*
X23075334Y25094656D01*
X22808808Y25305855D01*
X22518899Y25483600D01*
X22518900Y25483600D01*
X22228991Y25661346D01*
X21962466Y25872544D01*
X21723162Y26114152D01*
X21514528Y26382690D01*
X21339569Y26674288D01*
X21200805Y26984748D01*
X21100235Y27309596D01*
X21039307Y27644153D01*
X21018900Y27983600D01*
X21018900Y28983600D01*
X21100234Y29657604D01*
X21200804Y29982452D01*
X21339568Y30292912D01*
X21514528Y30584511D01*
X21723162Y30853048D01*
X21962465Y31094656D01*
X22228991Y31305854D01*
X22518900Y31483600D01*
X22808809Y31661345D01*
X23075335Y31872544D01*
X23314638Y32114152D01*
X23523272Y32382690D01*
X23698231Y32674289D01*
X23836995Y32984748D01*
X23937565Y33309596D01*
X23998493Y33644154D01*
X24018900Y33983601D01*
X24018900Y43983600D01*
X27018900Y43983600D01*
X27018900Y16983600D01*
X27095020Y16600917D01*
X27187430Y16428030D01*
X27311793Y16276493D01*
X27463330Y16152130D01*
X27636217Y16059720D01*
X27823810Y16002815D01*
X28018900Y15983600D01*
X32018900Y15983600D01*
X32686463Y15908384D01*
X33009737Y15815250D01*
X33320551Y15686507D01*
X33614996Y15523773D01*
X33889369Y15329094D01*
X34140220Y15104920D01*
X34364394Y14854069D01*
X34559073Y14579696D01*
X34721807Y14285251D01*
X34850550Y13974437D01*
X34943684Y13651163D01*
X35000037Y13319493D01*
X35018900Y12983600D01*
X35018900Y12483600D01*
X35039257Y12198970D01*
X35099914Y11920135D01*
X35199636Y11652770D01*
X35336393Y11402318D01*
X35507401Y11173879D01*
X35709179Y10972101D01*
X35937618Y10801093D01*
X36188070Y10664336D01*
X36455435Y10564614D01*
X36734270Y10503957D01*
X37018900Y10483600D01*
X45518900Y10483600D01*
X46173532Y10570830D01*
X46486484Y10678436D01*
X46782481Y10826434D01*
X47056337Y11012233D01*
X47303252Y11232575D01*
X47518900Y11483600D01*
X47981464Y11954968D01*
X48255319Y12140766D01*
X48551316Y12288764D01*
X48864268Y12396370D01*
X49188692Y12461697D01*
X49518901Y12483600D01*
X50518900Y12483600D01*
X51173532Y12396370D01*
X51486484Y12288764D01*
X51782481Y12140765D01*
X52056337Y11954967D01*
X52303252Y11734624D01*
X52518901Y11483599D01*
X52518900Y11483600D01*
X52981464Y11012233D01*
X53255319Y10826434D01*
X53551316Y10678436D01*
X53864268Y10570830D01*
X54188691Y10505504D01*
X54518900Y10483600D01*
X57018900Y10483600D01*
X57401583Y10407480D01*
X57574470Y10315070D01*
X57726007Y10190707D01*
X57850370Y10039170D01*
X57942780Y9866283D01*
X57999685Y9678690D01*
X58018900Y9483600D01*
X58018900Y8483600D01*
X57942780Y8100917D01*
X57850370Y7928030D01*
X57726007Y7776493D01*
X57574470Y7652130D01*
X57401583Y7559720D01*
X57213990Y7502815D01*
X57018900Y7483600D01*
X56636217Y7407480D01*
X56463330Y7315070D01*
X56311793Y7190707D01*
X56187430Y7039170D01*
X56095020Y6866283D01*
X56038115Y6678690D01*
X56018900Y6483600D01*
X56018900Y4983600D01*
X56039257Y4698970D01*
X56099914Y4420135D01*
X56199636Y4152770D01*
X56336393Y3902318D01*
X56507401Y3673879D01*
X56709179Y3472101D01*
X56937618Y3301093D01*
X57188070Y3164336D01*
X57455435Y3064614D01*
X57734270Y3003957D01*
X58018900Y2983600D01*
X66018900Y2983600D01*
X66303530Y3003957D01*
X66582365Y3064614D01*
X66849730Y3164336D01*
X67100182Y3301093D01*
X67328621Y3472101D01*
X67530399Y3673879D01*
X67701407Y3902318D01*
X67838164Y4152770D01*
X67937886Y4420135D01*
X67998543Y4698970D01*
X68018900Y4983600D01*
X68018900Y7483600D01*
X68018900Y27983600D01*
X71018900Y27983600D01*
X71018900Y27883600D01*
X71018900Y16983600D01*
X71018900Y16483600D01*
X71039257Y16198970D01*
X71099914Y15920135D01*
X71199636Y15652770D01*
X71336393Y15402318D01*
X71507401Y15173879D01*
X71709179Y14972101D01*
X71937618Y14801093D01*
X72188070Y14664336D01*
X72455435Y14564614D01*
X72734270Y14503957D01*
X73018900Y14483600D01*
X74084927Y14503657D01*
X75149444Y14563799D01*
X76210946Y14663940D01*
X78318900Y14983600D01*
X79718900Y15283600D01*
X80785203Y15514258D01*
X81860262Y15699876D01*
X82942175Y15840124D01*
X84822446Y15964060D01*
X85118900Y15983600D01*
X94018900Y15983600D01*
X94303530Y16003957D01*
X94582365Y16064614D01*
X94849730Y16164336D01*
X95100182Y16301093D01*
X95328621Y16472101D01*
X95530399Y16673879D01*
X95701407Y16902318D01*
X95838164Y17152770D01*
X95937886Y17420135D01*
X95998543Y17698970D01*
X96018900Y17983600D01*
X96018900Y29983600D01*
X95998543Y30268230D01*
X95937886Y30547065D01*
X95838164Y30814430D01*
X95701407Y31064882D01*
X95530399Y31293321D01*
X95328621Y31495099D01*
X95100182Y31666107D01*
X94849730Y31802864D01*
X94582365Y31902586D01*
X94303530Y31963243D01*
X94018900Y31983600D01*
X75018900Y31983600D01*
X74238539Y31906741D01*
X73857761Y31811361D01*
X73488166Y31679118D01*
X73133313Y31511285D01*
X72796619Y31309478D01*
X72481327Y31075642D01*
X72190473Y30812027D01*
X71926858Y30521173D01*
X71693022Y30205881D01*
X71491215Y29869187D01*
X71323382Y29514334D01*
X71191139Y29144739D01*
X71095759Y28763961D01*
X71038161Y28375669D01*
X71018900Y27983600D01*
X68018900Y27983600D01*
X68018900Y33983600D01*
X68095020Y34366283D01*
X68187430Y34539170D01*
X68311793Y34690707D01*
X68463330Y34815070D01*
X68636217Y34907480D01*
X68823810Y34964385D01*
X69018900Y34983600D01*
X99018900Y34983600D01*
X101018900Y34983600D01*
X101686463Y35058816D01*
X102009737Y35151950D01*
X102320551Y35280693D01*
X102614996Y35443427D01*
X102889369Y35638106D01*
X103140220Y35862280D01*
X103364394Y36113131D01*
X103559073Y36387504D01*
X103721807Y36681949D01*
X103850550Y36992763D01*
X103943684Y37316037D01*
X104000037Y37647707D01*
X104018900Y37983600D01*
X104018900Y42983600D01*
X103998543Y43268230D01*
X103937886Y43547065D01*
X103838164Y43814430D01*
X103701407Y44064882D01*
X103530399Y44293321D01*
X103328621Y44495099D01*
X103100182Y44666107D01*
X102849730Y44802864D01*
X102582365Y44902586D01*
X102303530Y44963243D01*
X102018900Y44983600D01*
X101559904Y45004713D01*
X101104783Y45067871D01*
X100657383Y45172543D01*
X100221480Y45317844D01*
X99800757Y45502547D01*
X99398765Y45725092D01*
X99018901Y45983600D01*
X99018900Y45983600D01*
X98237044Y46464653D01*
X97816320Y46649356D01*
X97380417Y46794657D01*
X96933017Y46899329D01*
X96477896Y46962488D01*
X96018900Y46983600D01*
X83018900Y46983600D01*
X82351337Y46908384D01*
X82028063Y46815250D01*
X81717249Y46686507D01*
X81422804Y46523773D01*
X81148431Y46329094D01*
X80897580Y46104920D01*
X80673406Y45854069D01*
X80478727Y45579696D01*
X80315993Y45285251D01*
X80187250Y44974437D01*
X80094116Y44651163D01*
X80037763Y44319493D01*
X80018900Y43983600D01*
X79942041Y43203239D01*
X79846661Y42822461D01*
X79714418Y42452866D01*
X79546585Y42098013D01*
X79344778Y41761319D01*
X79110942Y41446027D01*
X78847327Y41155173D01*
X78556473Y40891558D01*
X78241181Y40657722D01*
X77904487Y40455915D01*
X77549634Y40288082D01*
X77180039Y40155839D01*
X76799261Y40060459D01*
X76410969Y40002861D01*
X76018900Y39983600D01*
X61018900Y39983600D01*
X60734270Y40003957D01*
X60455435Y40064614D01*
X60188070Y40164336D01*
X59937618Y40301093D01*
X59709179Y40472101D01*
X59507401Y40673879D01*
X59336393Y40902318D01*
X59199636Y41152770D01*
X59099914Y41420135D01*
X59039257Y41698970D01*
X59018900Y41983600D01*
X59018900Y47483600D01*
X62018900Y47483600D01*
X62018900Y46983600D01*
X62095759Y46203239D01*
X62191139Y45822461D01*
X62323382Y45452866D01*
X62491215Y45098013D01*
X62693022Y44761319D01*
X62926858Y44446027D01*
X63190473Y44155173D01*
X63481327Y43891558D01*
X63796619Y43657722D01*
X64133313Y43455915D01*
X64488166Y43288082D01*
X64857761Y43155839D01*
X65238539Y43060459D01*
X65626831Y43002861D01*
X66018900Y42983600D01*
X75018900Y42983600D01*
X75303530Y43003957D01*
X75582365Y43064614D01*
X75849730Y43164336D01*
X76100182Y43301093D01*
X76328621Y43472101D01*
X76530399Y43673879D01*
X76701407Y43902318D01*
X76838164Y44152770D01*
X76937886Y44420135D01*
X76998543Y44698970D01*
X77018900Y44983600D01*
X77037927Y45419379D01*
X77094861Y45851841D01*
X77189271Y46277695D01*
X77320437Y46693701D01*
X77487361Y47096691D01*
X77688773Y47483600D01*
X77923140Y47851482D01*
X78188678Y48197538D01*
X78483366Y48519134D01*
X78804962Y48813822D01*
X79151018Y49079360D01*
X79518900Y49313727D01*
X79905809Y49515139D01*
X80308799Y49682063D01*
X80724805Y49813229D01*
X81150659Y49907639D01*
X81583121Y49964573D01*
X82018900Y49983600D01*
X95018900Y49983600D01*
X95303530Y50003957D01*
X95582365Y50064614D01*
X95849730Y50164336D01*
X96100182Y50301093D01*
X96328621Y50472101D01*
X96530399Y50673879D01*
X96701407Y50902318D01*
X96838164Y51152770D01*
X96937886Y51420135D01*
X96998543Y51698970D01*
X97018900Y51983600D01*
X97018900Y57983600D01*
X96998543Y58268230D01*
X96937886Y58547065D01*
X96838164Y58814430D01*
X96701407Y59064882D01*
X96530399Y59293321D01*
X96328621Y59495099D01*
X96100182Y59666107D01*
X95849730Y59802864D01*
X95582365Y59902586D01*
X95303530Y59963243D01*
X95018900Y59983600D01*
X75018900Y59983600D01*
X68018900Y59983600D01*
X67523424Y59963107D01*
X67031332Y59901768D01*
X66545987Y59800002D01*
X66070703Y59658503D01*
X65608727Y59478240D01*
X65163216Y59260443D01*
X64737211Y59006599D01*
X64333624Y58718443D01*
X63955211Y58397943D01*
X63604557Y58047289D01*
X63284057Y57668876D01*
X62995901Y57265289D01*
X62742057Y56839284D01*
X62524260Y56393773D01*
X62343997Y55931797D01*
X62202498Y55456513D01*
X62100732Y54971168D01*
X62039393Y54479076D01*
X62018900Y53983600D01*
X62018900Y51983600D01*
X50018900Y51983600D01*
X49495789Y51964027D01*
X48975604Y51905416D01*
X48461253Y51808095D01*
X47955614Y51672610D01*
X47461513Y51499716D01*
X46981714Y51290382D01*
X46518900Y51045778D01*
X46075660Y50767271D01*
X45654471Y50456420D01*
X45257691Y50114963D01*
X44887537Y49744809D01*
X44546080Y49348029D01*
X44235229Y48926840D01*
X43956722Y48483600D01*
X43712118Y48020786D01*
X43502784Y47540987D01*
X43329890Y47046886D01*
X43194405Y46541247D01*
X43097084Y46026896D01*
X43038473Y45506711D01*
X43018900Y44983600D01*
X43018900Y40983600D01*
X43039283Y40412887D01*
X43100328Y39845081D01*
X43201725Y39283078D01*
X43342956Y38729740D01*
X43523302Y38187887D01*
X43741844Y37660280D01*
X43997468Y37149608D01*
X44288872Y36658473D01*
X44614570Y36189379D01*
X44972903Y35744714D01*
X45362046Y35326746D01*
X45780014Y34937603D01*
X46224679Y34579270D01*
X46693773Y34253572D01*
X47184908Y33962168D01*
X47695580Y33706544D01*
X48223187Y33488002D01*
X48765040Y33307656D01*
X49318378Y33166425D01*
X49880381Y33065028D01*
X50448187Y33003983D01*
X51018900Y32983600D01*
X57018900Y32983600D01*
X57401583Y32907480D01*
X57574470Y32815070D01*
X57726007Y32690707D01*
X57850370Y32539170D01*
X57942780Y32366283D01*
X57999685Y32178690D01*
X58018900Y31983600D01*
X58018900Y14983600D01*
X55018900Y14983600D01*
X55018900Y25983600D01*
X54942041Y26763961D01*
X54846661Y27144739D01*
X54714418Y27514334D01*
X54546585Y27869187D01*
X54344778Y28205881D01*
X54110942Y28521173D01*
X53847327Y28812027D01*
X53556473Y29075642D01*
X53241181Y29309478D01*
X52904487Y29511285D01*
X52549634Y29679118D01*
X52180039Y29811361D01*
X51799261Y29906741D01*
X51410969Y29964339D01*
X51018900Y29983600D01*
X49692997Y30063802D01*
X49036095Y30163781D01*
X48386428Y30303240D01*
X47746366Y30481670D01*
X47118246Y30698421D01*
X46504359Y30952702D01*
X45906945Y31243584D01*
X45328184Y31570006D01*
X44770188Y31930777D01*
X44234992Y32324582D01*
X43724551Y32749982D01*
X43240725Y33205425D01*
X42785282Y33689251D01*
X42359882Y34199692D01*
X41966077Y34734888D01*
X41605306Y35292884D01*
X41278884Y35871645D01*
X40988002Y36469059D01*
X40733721Y37082946D01*
X40516970Y37711066D01*
X40338540Y38351128D01*
X40199081Y39000795D01*
X40099102Y39657697D01*
X40038969Y40319437D01*
X40018900Y40983600D01*
X40018900Y43983600D01*
X39998543Y44268230D01*
X39937886Y44547065D01*
X39838164Y44814430D01*
X39701407Y45064882D01*
X39530399Y45293321D01*
X39328621Y45495099D01*
X39100182Y45666107D01*
X38849730Y45802864D01*
X38582365Y45902586D01*
X38303530Y45963243D01*
X38018900Y45983600D01*
X29018900Y45983600D01*
X28734270Y45963243D01*
X28455435Y45902586D01*
X28188070Y45802864D01*
X27937618Y45666107D01*
X27709179Y45495099D01*
X27507401Y45293321D01*
X27336393Y45064882D01*
X27199636Y44814430D01*
X27099914Y44547065D01*
X27039257Y44268230D01*
X27018900Y43983600D01*
X24018900Y43983600D01*
X23937159Y45439138D01*
X23835223Y46161181D01*
X23692963Y46876372D01*
X23510825Y47582462D01*
X23289383Y48277228D01*
X23029334Y48958485D01*
X22731495Y49624089D01*
X22396804Y50271946D01*
X22026315Y50900017D01*
X21621191Y51506327D01*
X21182709Y52088967D01*
X20712248Y52646106D01*
X20211288Y53175988D01*
X19681406Y53676948D01*
X19124267Y54147409D01*
X18541627Y54585891D01*
X17935317Y54991015D01*
X17307246Y55361504D01*
X16659389Y55696195D01*
X15993785Y55994034D01*
X15312528Y56254083D01*
X14617762Y56475525D01*
X13911672Y56657663D01*
X13196481Y56799923D01*
X12474438Y56901859D01*
X11747816Y56963149D01*
X11018900Y56983600D01*
X9018900Y56983600D01*
X7018900Y56983600D01*
X6238539Y56906741D01*
X5857761Y56811361D01*
X5488166Y56679118D01*
X5133313Y56511285D01*
X4796619Y56309478D01*
X4481327Y56075642D01*
X4190473Y55812027D01*
X3926858Y55521173D01*
X3693022Y55205881D01*
X3491215Y54869187D01*
X3323382Y54514334D01*
X3191139Y54144739D01*
X3095759Y53763961D01*
X3038161Y53375669D01*
X3018900Y52983600D01*
X3018900Y33983600D01*
X3100234Y33309596D01*
X3200804Y32984748D01*
X3339569Y32674289D01*
X3514528Y32382690D01*
X3723162Y32114152D01*
X3962465Y31872544D01*
X4228991Y31661346D01*
X4518900Y31483600D01*
X4808809Y31305854D01*
X5075334Y31094656D01*
X5314638Y30853047D01*
X5523272Y30584510D01*
X5698231Y30292911D01*
X5836995Y29982451D01*
X5937565Y29657603D01*
X5998493Y29323046D01*
X6018900Y28983599D01*
X6018900Y27983600D01*
X5998493Y27644153D01*
X5937565Y27309596D01*
X5836995Y26984748D01*
X5698231Y26674288D01*
X5523272Y26382690D01*
X5314638Y26114152D01*
X5075334Y25872544D01*
X4808808Y25661346D01*
X4518900Y25483600D01*
X4228992Y25305854D01*
X3962466Y25094655D01*
X3723163Y24853047D01*
X3514529Y24584510D01*
X3339569Y24292911D01*
X3200805Y23982452D01*
X3100235Y23657604D01*
X3039307Y23323047D01*
X3018900Y22983600D01*
X3018900Y6983600D01*
X3095759Y6203239D01*
X3191139Y5822461D01*
X3323382Y5452866D01*
X3491215Y5098013D01*
X3693022Y4761319D01*
X3926858Y4446027D01*
X4190473Y4155173D01*
X4481327Y3891558D01*
X4796619Y3657722D01*
X5133313Y3455915D01*
X5488166Y3288082D01*
X5857761Y3155839D01*
X6238539Y3060459D01*
X6626831Y3002861D01*
X7018900Y2983600D01*
X7018900Y-2016400D01*
X18900Y-2016400D01*
X18900Y95983600D01*
X47018900Y95983600D01*
X47018900Y92983600D01*
G37*
D11*
X16520000Y23800000D03*
X17480000Y23800000D03*
D12*
X64000000Y31520000D03*
X64000000Y32480000D03*
D13*
X85200000Y43780000D03*
X85200000Y42820000D03*
D14*
X95950000Y56340000D03*
X95000000Y56340000D03*
X94050000Y56340000D03*
X94050000Y53660000D03*
X95000000Y53660000D03*
X95950000Y53660000D03*
D15*
X95525000Y55400000D03*
X94475000Y55400000D03*
X95525000Y54600000D03*
X94475000Y54600000D03*
D16*
X87710000Y44000000D03*
X86690000Y44000000D03*
D17*
X41590000Y12300000D03*
X42610000Y12300000D03*
D18*
X51800000Y39490000D03*
X51800000Y40510000D03*
D19*
X44790000Y26115000D03*
X44790000Y25145000D03*
D20*
X50680000Y64200000D03*
X49720000Y64200000D03*
D21*
X106362500Y60050000D03*
X106362500Y59100000D03*
X106362500Y58150000D03*
X108637500Y58150000D03*
X108637500Y60050000D03*
D12*
X95700000Y74420000D03*
X95700000Y75380000D03*
D22*
X86275000Y72600000D03*
X83325000Y72600000D03*
D20*
X42230000Y21650000D03*
X41270000Y21650000D03*
D23*
X22300000Y61810000D03*
X22300000Y60790000D03*
D20*
X8680000Y23800000D03*
X7720000Y23800000D03*
D24*
X29125000Y26300000D03*
X30675000Y26300000D03*
D11*
X63420000Y21900000D03*
X64380000Y21900000D03*
D20*
X49180000Y22700000D03*
X48220000Y22700000D03*
D11*
X109520000Y42200000D03*
X110480000Y42200000D03*
X16520000Y22600000D03*
X17480000Y22600000D03*
D13*
X40300000Y52980000D03*
X40300000Y52020000D03*
D17*
X47990000Y26000000D03*
X49010000Y26000000D03*
D25*
X99650000Y81900000D03*
X103350000Y81900000D03*
D26*
X62937500Y6000000D03*
X62937500Y6500000D03*
X62937500Y7000000D03*
X62937500Y7500000D03*
X62937500Y8000000D03*
D27*
X62000000Y8937500D03*
X61500000Y8937500D03*
X61000000Y8937500D03*
X60500000Y8937500D03*
X60000000Y8937500D03*
D26*
X59062500Y8000000D03*
X59062500Y7500000D03*
X59062500Y7000000D03*
X59062500Y6500000D03*
X59062500Y6000000D03*
D27*
X60000000Y5062500D03*
X60500000Y5062500D03*
X61000000Y5062500D03*
X61500000Y5062500D03*
X62000000Y5062500D03*
D28*
X61000000Y7000000D03*
D11*
X5520000Y53000000D03*
X6480000Y53000000D03*
D18*
X54000000Y20590000D03*
X54000000Y21610000D03*
D29*
X102775000Y56800000D03*
X101225000Y56800000D03*
D11*
X48620000Y66800000D03*
X49580000Y66800000D03*
D16*
X4910000Y17300000D03*
X3890000Y17300000D03*
D20*
X83980000Y17100000D03*
X83020000Y17100000D03*
D16*
X8710000Y17500000D03*
X7690000Y17500000D03*
D12*
X66600000Y55120000D03*
X66600000Y56080000D03*
D20*
X49180000Y19200000D03*
X48220000Y19200000D03*
D22*
X109475000Y80000000D03*
X106525000Y80000000D03*
D23*
X84000000Y10110000D03*
X84000000Y9090000D03*
D16*
X35210000Y17800000D03*
X34190000Y17800000D03*
D13*
X15400000Y52180000D03*
X15400000Y51220000D03*
D12*
X5100000Y14920000D03*
X5100000Y15880000D03*
D30*
X40000000Y25115000D03*
X40000000Y26085000D03*
D23*
X64000000Y84810000D03*
X64000000Y83790000D03*
D16*
X87710000Y39600000D03*
X86690000Y39600000D03*
D31*
X21298900Y89803600D03*
D32*
X23838900Y89803600D03*
X26378900Y89803600D03*
X28918900Y89803600D03*
X31458900Y89803600D03*
X33998900Y89803600D03*
X36538900Y89803600D03*
X39078900Y89803600D03*
X41618900Y89803600D03*
X44158900Y89803600D03*
D12*
X46100000Y25420000D03*
X46100000Y26380000D03*
D13*
X73600000Y38980000D03*
X73600000Y38020000D03*
D12*
X61300000Y83820000D03*
X61300000Y84780000D03*
D13*
X64468900Y56023600D03*
X64468900Y55063600D03*
D23*
X22000000Y38910000D03*
X22000000Y37890000D03*
D22*
X86275000Y87900000D03*
X83325000Y87900000D03*
D16*
X101410000Y15200000D03*
X100390000Y15200000D03*
D12*
X96300000Y36920000D03*
X96300000Y37880000D03*
D11*
X105020000Y55100000D03*
X105980000Y55100000D03*
D33*
X65325000Y18400000D03*
X63275000Y18400000D03*
D23*
X15100000Y83310000D03*
X15100000Y82290000D03*
D13*
X54000000Y18580000D03*
X54000000Y17620000D03*
D12*
X104400000Y21320000D03*
X104400000Y22280000D03*
D11*
X8720000Y49700000D03*
X9680000Y49700000D03*
D17*
X92790000Y22700000D03*
X93810000Y22700000D03*
D16*
X115710000Y44800000D03*
X114690000Y44800000D03*
D20*
X64280000Y20400000D03*
X63320000Y20400000D03*
D18*
X16600000Y52490000D03*
X16600000Y53510000D03*
X72400000Y37990000D03*
X72400000Y39010000D03*
D11*
X112520000Y53700000D03*
X113480000Y53700000D03*
D17*
X44890000Y12200000D03*
X45910000Y12200000D03*
D20*
X42480000Y30000000D03*
X41520000Y30000000D03*
D13*
X65700000Y45980000D03*
X65700000Y45020000D03*
D34*
X48285000Y14150000D03*
X48285000Y15400000D03*
X48285000Y16650000D03*
X51715000Y16650000D03*
X51715000Y15400000D03*
X51715000Y14150000D03*
D12*
X11300000Y25120000D03*
X11300000Y26080000D03*
X110000000Y6220000D03*
X110000000Y7180000D03*
D11*
X15620000Y49800000D03*
X16580000Y49800000D03*
D12*
X54000000Y12920000D03*
X54000000Y13880000D03*
D17*
X50390000Y25200000D03*
X51410000Y25200000D03*
D13*
X60800000Y23980000D03*
X60800000Y23020000D03*
D16*
X114610000Y37000000D03*
X113590000Y37000000D03*
D13*
X92725000Y29530000D03*
X92725000Y28570000D03*
D20*
X73380000Y50500000D03*
X72420000Y50500000D03*
D13*
X110600000Y22180000D03*
X110600000Y21220000D03*
D23*
X31300000Y37910000D03*
X31300000Y36890000D03*
D35*
X47350000Y41300400D03*
X48050000Y41300400D03*
X48050000Y42499600D03*
X47350000Y42499600D03*
D36*
X10620000Y82032500D03*
X10620000Y83607500D03*
D18*
X9000000Y43390000D03*
X9000000Y44410000D03*
D16*
X53310000Y55900000D03*
X52290000Y55900000D03*
D18*
X50600000Y39490000D03*
X50600000Y40510000D03*
D20*
X28678900Y79283600D03*
X27718900Y79283600D03*
D37*
X66888900Y89698600D03*
X61108900Y89698600D03*
D38*
X67198900Y88623600D03*
X66398900Y88623600D03*
D39*
X65248900Y88623600D03*
X64248900Y88623600D03*
X63748900Y88623600D03*
X62748900Y88623600D03*
D38*
X61598900Y88623600D03*
X60798900Y88623600D03*
X60798900Y88623600D03*
X61598900Y88623600D03*
D39*
X62248900Y88623600D03*
X63248900Y88623600D03*
X64748900Y88623600D03*
X65748900Y88623600D03*
D38*
X66398900Y88623600D03*
X67198900Y88623600D03*
D40*
X68318900Y89198600D03*
D41*
X68318900Y93378600D03*
D40*
X59678900Y89198600D03*
D41*
X59678900Y93378600D03*
D42*
X26250000Y56337500D03*
X26750000Y56337500D03*
X27250000Y56337500D03*
X27750000Y56337500D03*
X28250000Y56337500D03*
X28750000Y56337500D03*
X29250000Y56337500D03*
X29750000Y56337500D03*
X30250000Y56337500D03*
X30750000Y56337500D03*
X31250000Y56337500D03*
X31750000Y56337500D03*
X32250000Y56337500D03*
X32750000Y56337500D03*
X33250000Y56337500D03*
X33750000Y56337500D03*
X34250000Y56337500D03*
X34750000Y56337500D03*
X35250000Y56337500D03*
X35750000Y56337500D03*
X36250000Y56337500D03*
X36750000Y56337500D03*
X37250000Y56337500D03*
X37750000Y56337500D03*
X38250000Y56337500D03*
X38750000Y56337500D03*
X39250000Y56337500D03*
X39750000Y56337500D03*
X40250000Y56337500D03*
X40750000Y56337500D03*
X41250000Y56337500D03*
X41750000Y56337500D03*
X42250000Y56337500D03*
X42750000Y56337500D03*
X43250000Y56337500D03*
X43750000Y56337500D03*
D43*
X45662500Y58250000D03*
X45662500Y58750000D03*
X45662500Y59250000D03*
X45662500Y59750000D03*
X45662500Y60250000D03*
X45662500Y60750000D03*
X45662500Y61250000D03*
X45662500Y61750000D03*
X45662500Y62250000D03*
X45662500Y62750000D03*
X45662500Y63250000D03*
X45662500Y63750000D03*
X45662500Y64250000D03*
X45662500Y64750000D03*
X45662500Y65250000D03*
X45662500Y65750000D03*
X45662500Y66250000D03*
X45662500Y66750000D03*
X45662500Y67250000D03*
X45662500Y67750000D03*
X45662500Y68250000D03*
X45662500Y68750000D03*
X45662500Y69250000D03*
X45662500Y69750000D03*
X45662500Y70250000D03*
X45662500Y70750000D03*
X45662500Y71250000D03*
X45662500Y71750000D03*
X45662500Y72250000D03*
X45662500Y72750000D03*
X45662500Y73250000D03*
X45662500Y73750000D03*
X45662500Y74250000D03*
X45662500Y74750000D03*
X45662500Y75250000D03*
X45662500Y75750000D03*
D42*
X43750000Y77662500D03*
X43250000Y77662500D03*
X42750000Y77662500D03*
X42250000Y77662500D03*
X41750000Y77662500D03*
X41250000Y77662500D03*
X40750000Y77662500D03*
X40250000Y77662500D03*
X39750000Y77662500D03*
X39250000Y77662500D03*
X38750000Y77662500D03*
X38250000Y77662500D03*
X37750000Y77662500D03*
X37250000Y77662500D03*
X36750000Y77662500D03*
X36250000Y77662500D03*
X35750000Y77662500D03*
X35250000Y77662500D03*
X34750000Y77662500D03*
X34250000Y77662500D03*
X33750000Y77662500D03*
X33250000Y77662500D03*
X32750000Y77662500D03*
X32250000Y77662500D03*
X31750000Y77662500D03*
X31250000Y77662500D03*
X30750000Y77662500D03*
X30250000Y77662500D03*
X29750000Y77662500D03*
X29250000Y77662500D03*
X28750000Y77662500D03*
X28250000Y77662500D03*
X27750000Y77662500D03*
X27250000Y77662500D03*
X26750000Y77662500D03*
X26250000Y77662500D03*
D43*
X24337500Y75750000D03*
X24337500Y75250000D03*
X24337500Y74750000D03*
X24337500Y74250000D03*
X24337500Y73750000D03*
X24337500Y73250000D03*
X24337500Y72750000D03*
X24337500Y72250000D03*
X24337500Y71750000D03*
X24337500Y71250000D03*
X24337500Y70750000D03*
X24337500Y70250000D03*
X24337500Y69750000D03*
X24337500Y69250000D03*
X24337500Y68750000D03*
X24337500Y68250000D03*
X24337500Y67750000D03*
X24337500Y67250000D03*
X24337500Y66750000D03*
X24337500Y66250000D03*
X24337500Y65750000D03*
X24337500Y65250000D03*
X24337500Y64750000D03*
X24337500Y64250000D03*
X24337500Y63750000D03*
X24337500Y63250000D03*
X24337500Y62750000D03*
X24337500Y62250000D03*
X24337500Y61750000D03*
X24337500Y61250000D03*
X24337500Y60750000D03*
X24337500Y60250000D03*
X24337500Y59750000D03*
X24337500Y59250000D03*
X24337500Y58750000D03*
X24337500Y58250000D03*
D11*
X95920000Y72800000D03*
X96880000Y72800000D03*
D20*
X60480000Y39000000D03*
X59520000Y39000000D03*
D30*
X40000000Y22815000D03*
X40000000Y23785000D03*
D20*
X45980000Y29600000D03*
X45020000Y29600000D03*
D44*
X20000000Y39175000D03*
X20000000Y37625000D03*
D20*
X42480000Y31200000D03*
X41520000Y31200000D03*
X12180000Y41700000D03*
X11220000Y41700000D03*
D12*
X104400000Y29420000D03*
X104400000Y30380000D03*
D20*
X109180000Y50300000D03*
X108220000Y50300000D03*
D11*
X52920000Y42000000D03*
X53880000Y42000000D03*
D20*
X99980000Y72800000D03*
X99020000Y72800000D03*
D23*
X61000000Y11510000D03*
X61000000Y10490000D03*
D18*
X116300000Y50490000D03*
X116300000Y51510000D03*
D16*
X91998900Y44813600D03*
X90978900Y44813600D03*
D11*
X44920000Y13400000D03*
X45880000Y13400000D03*
D45*
X108500000Y74225000D03*
X108500000Y77175000D03*
D46*
X37100000Y24650000D03*
X37100000Y25150000D03*
X37100000Y25650000D03*
X37100000Y26150000D03*
X34300000Y26150000D03*
X34300000Y25650000D03*
X34300000Y25150000D03*
X34300000Y24650000D03*
D47*
X35700000Y25400000D03*
D48*
X35400000Y30125000D03*
X35400000Y30775000D03*
X35400000Y31425000D03*
X35400000Y32075000D03*
X31000000Y32075000D03*
X31000000Y31425000D03*
X31000000Y30775000D03*
X31000000Y30125000D03*
D49*
X43685000Y19200000D03*
X42715000Y19200000D03*
D11*
X45120000Y19200000D03*
X46080000Y19200000D03*
D18*
X83800000Y27490000D03*
X83800000Y28510000D03*
X109400000Y29390000D03*
X109400000Y30410000D03*
D50*
X90300000Y81150000D03*
X90300000Y84850000D03*
D51*
X11115000Y23800000D03*
X12085000Y23800000D03*
D30*
X43500000Y25115000D03*
X43500000Y26085000D03*
D11*
X32720000Y38100000D03*
X33680000Y38100000D03*
D22*
X86275000Y83000000D03*
X83325000Y83000000D03*
D11*
X8820000Y36800000D03*
X9780000Y36800000D03*
D44*
X81600000Y18575000D03*
X81600000Y17025000D03*
D17*
X25790000Y53200000D03*
X26810000Y53200000D03*
D29*
X102775000Y50800000D03*
X101225000Y50800000D03*
D18*
X62700000Y83790000D03*
X62700000Y84810000D03*
D12*
X70200000Y55120000D03*
X70200000Y56080000D03*
D52*
X35039411Y15560589D03*
X34360589Y16239411D03*
D23*
X93000000Y39010000D03*
X93000000Y37990000D03*
D18*
X68700000Y44990000D03*
X68700000Y46010000D03*
D36*
X25620000Y82032500D03*
X25620000Y83607500D03*
D20*
X83380000Y22900000D03*
X82420000Y22900000D03*
D11*
X92720000Y5600000D03*
X93680000Y5600000D03*
D23*
X114700000Y35710000D03*
X114700000Y34690000D03*
D18*
X101800000Y29390000D03*
X101800000Y30410000D03*
D11*
X45120000Y20400000D03*
X46080000Y20400000D03*
D13*
X13300000Y47180000D03*
X13300000Y46220000D03*
D18*
X53000000Y43490000D03*
X53000000Y44510000D03*
D11*
X36920000Y11600000D03*
X37880000Y11600000D03*
D23*
X87300000Y29510000D03*
X87300000Y28490000D03*
D12*
X95100000Y25620000D03*
X95100000Y26580000D03*
D53*
X86250000Y21962500D03*
X86750000Y21962500D03*
X87250000Y21962500D03*
X87750000Y21962500D03*
X88250000Y21962500D03*
X88750000Y21962500D03*
X89250000Y21962500D03*
X89750000Y21962500D03*
D54*
X90437500Y22650000D03*
X90437500Y23150000D03*
X90437500Y23650000D03*
X90437500Y24150000D03*
X90437500Y24650000D03*
X90437500Y25150000D03*
X90437500Y25650000D03*
X90437500Y26150000D03*
D53*
X89750000Y26837500D03*
X89250000Y26837500D03*
X88750000Y26837500D03*
X88250000Y26837500D03*
X87750000Y26837500D03*
X87250000Y26837500D03*
X86750000Y26837500D03*
X86250000Y26837500D03*
D54*
X85562500Y26150000D03*
X85562500Y25650000D03*
X85562500Y25150000D03*
X85562500Y24650000D03*
X85562500Y24150000D03*
X85562500Y23650000D03*
X85562500Y23150000D03*
X85562500Y22650000D03*
D55*
X88000000Y24400000D03*
D56*
X70816400Y85063600D03*
X70816400Y86963600D03*
X68941400Y86013600D03*
D57*
X103000000Y58525000D03*
X103000000Y60075000D03*
D20*
X32380000Y28900000D03*
X31420000Y28900000D03*
D17*
X116990000Y44800000D03*
X118010000Y44800000D03*
X98990000Y71500000D03*
X100010000Y71500000D03*
D13*
X71100000Y45980000D03*
X71100000Y45020000D03*
D18*
X28400000Y40690000D03*
X28400000Y41710000D03*
D58*
X62850000Y29437500D03*
X62350000Y29437500D03*
X61850000Y29437500D03*
X61350000Y29437500D03*
X60850000Y29437500D03*
X60350000Y29437500D03*
D59*
X59662500Y28750000D03*
X59662500Y28250000D03*
X59662500Y27750000D03*
X59662500Y27250000D03*
X59662500Y26750000D03*
X59662500Y26250000D03*
D58*
X60350000Y25562500D03*
X60850000Y25562500D03*
X61350000Y25562500D03*
X61850000Y25562500D03*
X62350000Y25562500D03*
X62850000Y25562500D03*
D59*
X63537500Y26250000D03*
X63537500Y26750000D03*
X63537500Y27250000D03*
X63537500Y27750000D03*
X63537500Y28250000D03*
X63537500Y28750000D03*
D60*
X61600000Y27500000D03*
D30*
X114700000Y29915000D03*
X114700000Y30885000D03*
D12*
X89200000Y36220000D03*
X89200000Y37180000D03*
D23*
X50600000Y44510000D03*
X50600000Y43490000D03*
D13*
X69300000Y38980000D03*
X69300000Y38020000D03*
D61*
X112850000Y40100000D03*
X113350000Y40100000D03*
X113850000Y40100000D03*
X114350000Y40100000D03*
X114350000Y42900000D03*
X113850000Y42900000D03*
X113350000Y42900000D03*
X112850000Y42900000D03*
D62*
X113600000Y41500000D03*
D30*
X11300000Y27415000D03*
X11300000Y28385000D03*
D17*
X72890000Y53800000D03*
X73910000Y53800000D03*
D20*
X13480000Y26300000D03*
X12520000Y26300000D03*
D35*
X55250000Y41500400D03*
X55950000Y41500400D03*
X55950000Y42699600D03*
X55250000Y42699600D03*
D11*
X110020000Y26100000D03*
X110980000Y26100000D03*
X28120000Y53200000D03*
X29080000Y53200000D03*
D12*
X14800000Y38220000D03*
X14800000Y39180000D03*
D13*
X97500000Y37880000D03*
X97500000Y36920000D03*
D18*
X20000000Y60790000D03*
X20000000Y61810000D03*
D11*
X109520000Y61300000D03*
X110480000Y61300000D03*
D57*
X75500000Y57125000D03*
X75500000Y58675000D03*
D16*
X49510000Y55900000D03*
X48490000Y55900000D03*
D12*
X108200000Y29420000D03*
X108200000Y30380000D03*
D11*
X50620000Y22700000D03*
X51580000Y22700000D03*
D63*
X19755000Y12441673D03*
X19245000Y11558327D03*
D49*
X62085000Y18400000D03*
X61115000Y18400000D03*
D53*
X62350000Y74362500D03*
X62850000Y74362500D03*
X63350000Y74362500D03*
X63850000Y74362500D03*
X64350000Y74362500D03*
X64850000Y74362500D03*
X65350000Y74362500D03*
X65850000Y74362500D03*
X66350000Y74362500D03*
X66850000Y74362500D03*
X67350000Y74362500D03*
X67850000Y74362500D03*
D54*
X68537500Y75050000D03*
X68537500Y75550000D03*
X68537500Y76050000D03*
X68537500Y76550000D03*
X68537500Y77050000D03*
X68537500Y77550000D03*
X68537500Y78050000D03*
X68537500Y78550000D03*
X68537500Y79050000D03*
X68537500Y79550000D03*
X68537500Y80050000D03*
X68537500Y80550000D03*
D53*
X67850000Y81237500D03*
X67350000Y81237500D03*
X66850000Y81237500D03*
X66350000Y81237500D03*
X65850000Y81237500D03*
X65350000Y81237500D03*
X64850000Y81237500D03*
X64350000Y81237500D03*
X63850000Y81237500D03*
X63350000Y81237500D03*
X62850000Y81237500D03*
X62350000Y81237500D03*
D54*
X61662500Y80550000D03*
X61662500Y80050000D03*
X61662500Y79550000D03*
X61662500Y79050000D03*
X61662500Y78550000D03*
X61662500Y78050000D03*
X61662500Y77550000D03*
X61662500Y77050000D03*
X61662500Y76550000D03*
X61662500Y76050000D03*
X61662500Y75550000D03*
X61662500Y75050000D03*
D64*
X65100000Y77800000D03*
D16*
X14510000Y40500000D03*
X13490000Y40500000D03*
D12*
X12000000Y6120000D03*
X12000000Y7080000D03*
D18*
X108200000Y47690000D03*
X108200000Y48710000D03*
D17*
X48588900Y69253600D03*
X49608900Y69253600D03*
D13*
X46100000Y23980000D03*
X46100000Y23020000D03*
D65*
X12000000Y-900000D03*
D66*
X7580400Y665400D03*
X16419600Y665400D03*
D20*
X64380000Y24000000D03*
X63420000Y24000000D03*
D17*
X47990000Y58900000D03*
X49010000Y58900000D03*
D67*
X69800000Y52687500D03*
X69300000Y52687500D03*
X68800000Y52687500D03*
X68300000Y52687500D03*
X67800000Y52687500D03*
X67300000Y52687500D03*
X66800000Y52687500D03*
X66300000Y52687500D03*
D68*
X65612500Y52000000D03*
X65612500Y51500000D03*
X65612500Y51000000D03*
X65612500Y50500000D03*
X65612500Y50000000D03*
X65612500Y49500000D03*
X65612500Y49000000D03*
X65612500Y48500000D03*
D67*
X66300000Y47812500D03*
X66800000Y47812500D03*
X67300000Y47812500D03*
X67800000Y47812500D03*
X68300000Y47812500D03*
X68800000Y47812500D03*
X69300000Y47812500D03*
X69800000Y47812500D03*
D68*
X70487500Y48500000D03*
X70487500Y49000000D03*
X70487500Y49500000D03*
X70487500Y50000000D03*
X70487500Y50500000D03*
X70487500Y51000000D03*
X70487500Y51500000D03*
X70487500Y52000000D03*
D55*
X68050000Y50250000D03*
D16*
X54410000Y70100000D03*
X53390000Y70100000D03*
D24*
X29125000Y20300000D03*
X30675000Y20300000D03*
D13*
X64300000Y47280000D03*
X64300000Y46320000D03*
X109400000Y22180000D03*
X109400000Y21220000D03*
D12*
X112300000Y25020000D03*
X112300000Y25980000D03*
D23*
X36900000Y31510000D03*
X36900000Y30490000D03*
D16*
X49010000Y27600000D03*
X47990000Y27600000D03*
D12*
X70000000Y79220000D03*
X70000000Y80180000D03*
D20*
X29380000Y39400000D03*
X28420000Y39400000D03*
D18*
X101000000Y58790000D03*
X101000000Y59810000D03*
D23*
X111000000Y52510000D03*
X111000000Y51490000D03*
D16*
X57410000Y76100000D03*
X56390000Y76100000D03*
D69*
X32000000Y40100000D03*
X32500000Y40100000D03*
X33000000Y40100000D03*
X33500000Y40100000D03*
X34000000Y40100000D03*
X34000000Y44500000D03*
X33500000Y44500000D03*
X33000000Y44500000D03*
X32500000Y44500000D03*
X32000000Y44500000D03*
D70*
X85239411Y8280829D03*
X84560589Y7602007D03*
D23*
X115100000Y61110000D03*
X115100000Y60090000D03*
D16*
X56510000Y55900000D03*
X55490000Y55900000D03*
D14*
X102950000Y55140000D03*
X102000000Y55140000D03*
X101050000Y55140000D03*
X101050000Y52460000D03*
X102000000Y52460000D03*
X102950000Y52460000D03*
D15*
X102525000Y54200000D03*
X101475000Y54200000D03*
X102525000Y53400000D03*
X101475000Y53400000D03*
D20*
X8680000Y20000000D03*
X7720000Y20000000D03*
D16*
X63510000Y39000000D03*
X62490000Y39000000D03*
D11*
X88020000Y17000000D03*
X88980000Y17000000D03*
X8820000Y40500000D03*
X9780000Y40500000D03*
D12*
X37200000Y21920000D03*
X37200000Y22880000D03*
D17*
X112290000Y44800000D03*
X113310000Y44800000D03*
D12*
X32600000Y33520000D03*
X32600000Y34480000D03*
X99900000Y41195000D03*
X99900000Y42155000D03*
D11*
X42520000Y79800000D03*
X43480000Y79800000D03*
D12*
X32600000Y21920000D03*
X32600000Y22880000D03*
D71*
X102662500Y40115000D03*
X102662500Y41935000D03*
X101437500Y41935000D03*
X101437500Y40115000D03*
D11*
X72820000Y58700000D03*
X73780000Y58700000D03*
D17*
X112690000Y22200000D03*
X113710000Y22200000D03*
D23*
X76000000Y37210000D03*
X76000000Y36190000D03*
D11*
X36920000Y16600000D03*
X37880000Y16600000D03*
D16*
X37910000Y12800000D03*
X36890000Y12800000D03*
D20*
X18980000Y51500000D03*
X18020000Y51500000D03*
D12*
X7800000Y43420000D03*
X7800000Y44380000D03*
D11*
X72420000Y51700000D03*
X73380000Y51700000D03*
D13*
X17600000Y44380000D03*
X17600000Y43420000D03*
D23*
X24800000Y11010000D03*
X24800000Y9990000D03*
D13*
X117900000Y48680000D03*
X117900000Y47720000D03*
D72*
X58862500Y36300000D03*
X58862500Y35800000D03*
X58862500Y35300000D03*
X58862500Y34800000D03*
X58862500Y34300000D03*
D73*
X59800000Y33362500D03*
X60300000Y33362500D03*
X60800000Y33362500D03*
X61300000Y33362500D03*
X61800000Y33362500D03*
D72*
X62737500Y34300000D03*
X62737500Y34800000D03*
X62737500Y35300000D03*
X62737500Y35800000D03*
X62737500Y36300000D03*
D73*
X61800000Y37237500D03*
X61300000Y37237500D03*
X60800000Y37237500D03*
X60300000Y37237500D03*
X59800000Y37237500D03*
D28*
X60800000Y35300000D03*
D11*
X7720000Y21200000D03*
X8680000Y21200000D03*
X110020000Y24900000D03*
X110980000Y24900000D03*
D18*
X35400000Y19090000D03*
X35400000Y20110000D03*
D74*
X36050000Y40862500D03*
X37000000Y40862500D03*
X37950000Y40862500D03*
X37950000Y43137500D03*
X36050000Y43137500D03*
D11*
X8920000Y55600000D03*
X9880000Y55600000D03*
D17*
X82990000Y18500000D03*
X84010000Y18500000D03*
D48*
X115200000Y47225000D03*
X115200000Y47875000D03*
X115200000Y48525000D03*
X115200000Y49175000D03*
X110800000Y49175000D03*
X110800000Y48525000D03*
X110800000Y47875000D03*
X110800000Y47225000D03*
D23*
X14700000Y33010000D03*
X14700000Y31990000D03*
D30*
X43500000Y22815000D03*
X43500000Y23785000D03*
D12*
X112400000Y50520000D03*
X112400000Y51480000D03*
D23*
X100600000Y26010000D03*
X100600000Y24990000D03*
X109300000Y52610000D03*
X109300000Y51590000D03*
D22*
X80675000Y54900000D03*
X77725000Y54900000D03*
D12*
X84900000Y28520000D03*
X84900000Y29480000D03*
D16*
X49610000Y68000000D03*
X48590000Y68000000D03*
D30*
X14700000Y27415000D03*
X14700000Y28385000D03*
D18*
X80000000Y36190000D03*
X80000000Y37210000D03*
D16*
X13510000Y33100000D03*
X12490000Y33100000D03*
D11*
X5520000Y48000000D03*
X6480000Y48000000D03*
D75*
X51500000Y93000000D03*
D76*
X47750000Y88000000D03*
X55250000Y88000000D03*
X51450000Y88000000D03*
D11*
X91038900Y45800000D03*
X91998900Y45800000D03*
D72*
X10562500Y21850000D03*
X10562500Y21350000D03*
X10562500Y20850000D03*
X10562500Y20350000D03*
X10562500Y19850000D03*
X10562500Y19350000D03*
D73*
X11250000Y18662500D03*
X11750000Y18662500D03*
X12250000Y18662500D03*
X12750000Y18662500D03*
X13250000Y18662500D03*
X13750000Y18662500D03*
D72*
X14437500Y19350000D03*
X14437500Y19850000D03*
X14437500Y20350000D03*
X14437500Y20850000D03*
X14437500Y21350000D03*
X14437500Y21850000D03*
D73*
X13750000Y22537500D03*
X13250000Y22537500D03*
X12750000Y22537500D03*
X12250000Y22537500D03*
X11750000Y22537500D03*
X11250000Y22537500D03*
D60*
X12500000Y20600000D03*
D11*
X105320000Y51000000D03*
X106280000Y51000000D03*
D16*
X4910000Y21100000D03*
X3890000Y21100000D03*
D20*
X37880000Y18000000D03*
X36920000Y18000000D03*
X105480000Y20100000D03*
X104520000Y20100000D03*
D16*
X97910000Y45200000D03*
X96890000Y45200000D03*
D22*
X77475000Y29000000D03*
X74525000Y29000000D03*
D49*
X113285000Y38200000D03*
X112315000Y38200000D03*
D18*
X50500000Y20490000D03*
X50500000Y21510000D03*
D20*
X37880000Y19200000D03*
X36920000Y19200000D03*
D17*
X98990000Y70200000D03*
X100010000Y70200000D03*
D19*
X108200000Y27185000D03*
X108200000Y26215000D03*
D17*
X113590000Y33400000D03*
X114610000Y33400000D03*
D18*
X64300000Y3990000D03*
X64300000Y5010000D03*
D23*
X35100000Y35510000D03*
X35100000Y34490000D03*
D77*
X23800000Y5600000D03*
X22700000Y5600000D03*
D78*
X23250000Y6300000D03*
D23*
X15200000Y47210000D03*
X15200000Y46190000D03*
D11*
X114720000Y46000000D03*
X115680000Y46000000D03*
D50*
X79300000Y70150000D03*
X79300000Y73850000D03*
D21*
X77962500Y18750000D03*
X77962500Y17800000D03*
X77962500Y16850000D03*
X80237500Y16850000D03*
X80237500Y18750000D03*
D23*
X27100000Y83310000D03*
X27100000Y82290000D03*
D20*
X62380000Y3800000D03*
X61420000Y3800000D03*
D11*
X65820000Y28000000D03*
X66780000Y28000000D03*
D17*
X79490000Y29000000D03*
X80510000Y29000000D03*
D23*
X14400000Y49710000D03*
X14400000Y48690000D03*
D79*
X75300000Y73475000D03*
X75300000Y70525000D03*
D23*
X19200000Y50210000D03*
X19200000Y49190000D03*
D20*
X114580000Y28600000D03*
X113620000Y28600000D03*
D17*
X59790000Y12700000D03*
X60810000Y12700000D03*
D23*
X29500000Y35510000D03*
X29500000Y34490000D03*
X10000000Y47210000D03*
X10000000Y46190000D03*
D11*
X73720000Y47300000D03*
X74680000Y47300000D03*
D18*
X17500000Y25090000D03*
X17500000Y26110000D03*
D16*
X54410000Y73700000D03*
X53390000Y73700000D03*
D23*
X24100000Y83310000D03*
X24100000Y82290000D03*
D36*
X31620000Y82032500D03*
X31620000Y83607500D03*
D13*
X89200000Y39480000D03*
X89200000Y38520000D03*
D24*
X20225000Y46900000D03*
X21775000Y46900000D03*
D12*
X66500000Y33020000D03*
X66500000Y33980000D03*
D18*
X85400000Y10290000D03*
X85400000Y11310000D03*
D20*
X13480000Y30600000D03*
X12520000Y30600000D03*
D23*
X16800000Y39210000D03*
X16800000Y38190000D03*
D18*
X46000000Y77490000D03*
X46000000Y78510000D03*
D23*
X11300000Y33010000D03*
X11300000Y31990000D03*
X5400000Y46710000D03*
X5400000Y45690000D03*
D11*
X65820000Y29200000D03*
X66780000Y29200000D03*
D18*
X7700000Y26290000D03*
X7700000Y27310000D03*
D16*
X49010000Y29200000D03*
X47990000Y29200000D03*
D11*
X112520000Y55000000D03*
X113480000Y55000000D03*
D36*
X19620000Y82032500D03*
X19620000Y83607500D03*
D58*
X106250000Y27937500D03*
X105750000Y27937500D03*
X105250000Y27937500D03*
X104750000Y27937500D03*
X104250000Y27937500D03*
X103750000Y27937500D03*
D59*
X103062500Y27250000D03*
X103062500Y26750000D03*
X103062500Y26250000D03*
X103062500Y25750000D03*
X103062500Y25250000D03*
X103062500Y24750000D03*
D58*
X103750000Y24062500D03*
X104250000Y24062500D03*
X104750000Y24062500D03*
X105250000Y24062500D03*
X105750000Y24062500D03*
X106250000Y24062500D03*
D59*
X106937500Y24750000D03*
X106937500Y25250000D03*
X106937500Y25750000D03*
X106937500Y26250000D03*
X106937500Y26750000D03*
X106937500Y27250000D03*
D60*
X105000000Y26000000D03*
D72*
X39362500Y17250000D03*
X39362500Y16750000D03*
X39362500Y16250000D03*
X39362500Y15750000D03*
X39362500Y15250000D03*
X39362500Y14750000D03*
D73*
X40050000Y14062500D03*
X40550000Y14062500D03*
X41050000Y14062500D03*
X41550000Y14062500D03*
X42050000Y14062500D03*
X42550000Y14062500D03*
D72*
X43237500Y14750000D03*
X43237500Y15250000D03*
X43237500Y15750000D03*
X43237500Y16250000D03*
X43237500Y16750000D03*
X43237500Y17250000D03*
D73*
X42550000Y17937500D03*
X42050000Y17937500D03*
X41550000Y17937500D03*
X41050000Y17937500D03*
X40550000Y17937500D03*
X40050000Y17937500D03*
D60*
X41300000Y16000000D03*
D12*
X90300000Y28520000D03*
X90300000Y29480000D03*
D36*
X37620000Y82032500D03*
X37620000Y83607500D03*
D11*
X91018900Y43263600D03*
X91978900Y43263600D03*
D20*
X18680000Y33200000D03*
X17720000Y33200000D03*
D13*
X37900000Y52980000D03*
X37900000Y52020000D03*
D77*
X97050000Y5600000D03*
X95950000Y5600000D03*
D78*
X96500000Y6300000D03*
D23*
X12100000Y83310000D03*
X12100000Y82290000D03*
D45*
X97500000Y80725000D03*
X97500000Y83675000D03*
D19*
X38700000Y26085000D03*
X38700000Y25115000D03*
D13*
X46800000Y16480000D03*
X46800000Y15520000D03*
D65*
X110000000Y-900000D03*
D66*
X105580400Y665400D03*
X114419600Y665400D03*
D29*
X95775000Y58000000D03*
X94225000Y58000000D03*
D45*
X106300000Y74225000D03*
X106300000Y77175000D03*
D17*
X92790000Y25925000D03*
X93810000Y25925000D03*
D11*
X7720000Y16300000D03*
X8680000Y16300000D03*
D17*
X92790000Y27275000D03*
X93810000Y27275000D03*
D16*
X35110000Y27700000D03*
X34090000Y27700000D03*
D20*
X101880000Y23200000D03*
X100920000Y23200000D03*
D13*
X113600000Y51480000D03*
X113600000Y50520000D03*
D11*
X29020000Y38100000D03*
X29980000Y38100000D03*
D16*
X57810000Y57600000D03*
X56790000Y57600000D03*
D20*
X37480000Y27700000D03*
X36520000Y27700000D03*
D16*
X57410000Y73700000D03*
X56390000Y73700000D03*
D11*
X67320000Y57400000D03*
X68280000Y57400000D03*
X73520000Y36000000D03*
X74480000Y36000000D03*
D20*
X17280000Y21200000D03*
X16320000Y21200000D03*
D17*
X12490000Y17000000D03*
X13510000Y17000000D03*
D80*
X79237500Y56950000D03*
X79237500Y57900000D03*
X79237500Y58850000D03*
X76962500Y58850000D03*
X76962500Y56950000D03*
D11*
X32720000Y36700000D03*
X33680000Y36700000D03*
D20*
X42240000Y26420000D03*
X41280000Y26420000D03*
D69*
X111700000Y56900000D03*
X112200000Y56900000D03*
X112700000Y56900000D03*
X113200000Y56900000D03*
X113700000Y56900000D03*
X113700000Y61300000D03*
X113200000Y61300000D03*
X112700000Y61300000D03*
X112200000Y61300000D03*
X111700000Y61300000D03*
D23*
X69000000Y56110000D03*
X69000000Y55090000D03*
D81*
X28950000Y21960000D03*
X29900000Y21960000D03*
X30850000Y21960000D03*
X30850000Y24640000D03*
X29900000Y24640000D03*
X28950000Y24640000D03*
D15*
X29375000Y22900000D03*
X30425000Y22900000D03*
X29375000Y23700000D03*
X30425000Y23700000D03*
D22*
X86275000Y85500000D03*
X83325000Y85500000D03*
D82*
X12000000Y10550000D03*
X12000000Y9450000D03*
D83*
X11300000Y10000000D03*
D23*
X10900000Y49610000D03*
X10900000Y48590000D03*
X30100000Y83310000D03*
X30100000Y82290000D03*
D13*
X69900000Y45980000D03*
X69900000Y45020000D03*
D12*
X103000000Y29420000D03*
X103000000Y30380000D03*
D11*
X34120000Y28900000D03*
X35080000Y28900000D03*
D16*
X51410000Y28400000D03*
X50390000Y28400000D03*
D13*
X51400000Y50080000D03*
X51400000Y49120000D03*
D20*
X34980000Y53000000D03*
X34020000Y53000000D03*
D16*
X105710000Y61100000D03*
X104690000Y61100000D03*
D13*
X33800000Y34480000D03*
X33800000Y33520000D03*
D44*
X76600000Y18575000D03*
X76600000Y17025000D03*
D16*
X83710000Y44000000D03*
X82690000Y44000000D03*
X49710000Y60200000D03*
X48690000Y60200000D03*
D23*
X33100000Y83310000D03*
X33100000Y82290000D03*
D79*
X73000000Y73475000D03*
X73000000Y70525000D03*
D84*
X103145000Y13741673D03*
X103655000Y12858327D03*
D13*
X111000000Y90980000D03*
X111000000Y90020000D03*
D12*
X95000000Y90020000D03*
X95000000Y90980000D03*
D20*
X46380000Y28400000D03*
X45420000Y28400000D03*
D11*
X50620000Y19200000D03*
X51580000Y19200000D03*
D17*
X95890000Y71500000D03*
X96910000Y71500000D03*
D30*
X113500000Y26315000D03*
X113500000Y27285000D03*
D11*
X36520000Y39500000D03*
X37480000Y39500000D03*
D16*
X52110000Y59100000D03*
X51090000Y59100000D03*
D20*
X17280000Y20000000D03*
X16320000Y20000000D03*
D16*
X26810000Y54400000D03*
X25790000Y54400000D03*
D30*
X113500000Y29915000D03*
X113500000Y30885000D03*
D16*
X73810000Y57200000D03*
X72790000Y57200000D03*
X94710000Y29850000D03*
X93690000Y29850000D03*
D18*
X67800000Y55090000D03*
X67800000Y56110000D03*
D11*
X45120000Y21600000D03*
X46080000Y21600000D03*
D85*
X95000000Y93784600D03*
D86*
X98494600Y93784600D03*
X91505400Y93784600D03*
D18*
X63100000Y50890000D03*
X63100000Y51910000D03*
D16*
X54410000Y71300000D03*
X53390000Y71300000D03*
D20*
X114580000Y32200000D03*
X113620000Y32200000D03*
D13*
X85200000Y39480000D03*
X85200000Y38520000D03*
D79*
X73000000Y19475000D03*
X73000000Y16525000D03*
D13*
X89200000Y43780000D03*
X89200000Y42820000D03*
D18*
X95700000Y77090000D03*
X95700000Y78110000D03*
D12*
X107000000Y29420000D03*
X107000000Y30380000D03*
X109400000Y47720000D03*
X109400000Y48680000D03*
D23*
X30900000Y18310000D03*
X30900000Y17290000D03*
D12*
X36100000Y79920000D03*
X36100000Y80880000D03*
D17*
X36490000Y34100000D03*
X37510000Y34100000D03*
D13*
X95100000Y24180000D03*
X95100000Y23220000D03*
D12*
X34200000Y21920000D03*
X34200000Y22880000D03*
X91738900Y18293600D03*
X91738900Y19253600D03*
D18*
X49400000Y43490000D03*
X49400000Y44510000D03*
D16*
X59010000Y59100000D03*
X57990000Y59100000D03*
D20*
X21880000Y68600000D03*
X20920000Y68600000D03*
D13*
X110000000Y59580000D03*
X110000000Y58620000D03*
D20*
X27280000Y5600000D03*
X26320000Y5600000D03*
D23*
X53000000Y40510000D03*
X53000000Y39490000D03*
D18*
X67300000Y37990000D03*
X67300000Y39010000D03*
D20*
X8680000Y18700000D03*
X7720000Y18700000D03*
D11*
X58520000Y60300000D03*
X59480000Y60300000D03*
D20*
X8680000Y22600000D03*
X7720000Y22600000D03*
D16*
X83710000Y39600000D03*
X82690000Y39600000D03*
D51*
X114915000Y38200000D03*
X115885000Y38200000D03*
D16*
X57410000Y68900000D03*
X56390000Y68900000D03*
D51*
X13715000Y34300000D03*
X14685000Y34300000D03*
D23*
X88500000Y19310000D03*
X88500000Y18290000D03*
D12*
X20600000Y49220000D03*
X20600000Y50180000D03*
D87*
X102900000Y73550000D03*
X102900000Y77850000D03*
D88*
X51000000Y45879400D03*
X51400000Y45879400D03*
D89*
X52120600Y46200000D03*
X52120600Y46600000D03*
X52120600Y47000000D03*
X52120600Y47400000D03*
D88*
X51400000Y47720600D03*
X51000000Y47720600D03*
D89*
X50279400Y47400000D03*
X50279400Y47000000D03*
X50279400Y46600000D03*
X50279400Y46200000D03*
D90*
X51200000Y46800000D03*
D20*
X60980000Y73000000D03*
X60020000Y73000000D03*
D16*
X57410000Y71300000D03*
X56390000Y71300000D03*
D11*
X56320000Y35300000D03*
X57280000Y35300000D03*
D12*
X99898900Y38943600D03*
X99898900Y39903600D03*
D91*
X89450000Y53300000D03*
X89450000Y55600000D03*
D92*
X83150000Y55600000D03*
D91*
X89450000Y57900000D03*
D18*
X101100000Y36890000D03*
X101100000Y37910000D03*
D12*
X28400000Y43220000D03*
X28400000Y44180000D03*
X63100000Y48620000D03*
X63100000Y49580000D03*
D82*
X110000000Y10550000D03*
X110000000Y9450000D03*
D83*
X109300000Y10000000D03*
D35*
X57650000Y42700000D03*
X58350000Y42700000D03*
X58350000Y41500800D03*
X57650000Y41500800D03*
D18*
X32600000Y24290000D03*
X32600000Y25310000D03*
D30*
X11300000Y29715000D03*
X11300000Y30685000D03*
D11*
X36520000Y44500000D03*
X37480000Y44500000D03*
D74*
X5050000Y49362500D03*
X6000000Y49362500D03*
X6950000Y49362500D03*
X6950000Y51637500D03*
X5050000Y51637500D03*
D29*
X95775000Y52000000D03*
X94225000Y52000000D03*
D18*
X36100000Y82290000D03*
X36100000Y83310000D03*
D20*
X18680000Y29500000D03*
X17720000Y29500000D03*
D13*
X108200000Y22180000D03*
X108200000Y21220000D03*
D23*
X65200000Y32510000D03*
X65200000Y31490000D03*
D13*
X66900000Y24980000D03*
X66900000Y24020000D03*
D16*
X37510000Y38400000D03*
X36490000Y38400000D03*
D20*
X21880000Y66600000D03*
X20920000Y66600000D03*
D22*
X86275000Y70200000D03*
X83325000Y70200000D03*
D49*
X12285000Y34300000D03*
X11315000Y34300000D03*
D23*
X51800000Y44510000D03*
X51800000Y43490000D03*
D11*
X108520000Y55000000D03*
X109480000Y55000000D03*
D22*
X109475000Y82300000D03*
X106525000Y82300000D03*
D11*
X79920000Y20200000D03*
X80880000Y20200000D03*
D16*
X51410000Y26800000D03*
X50390000Y26800000D03*
X66610000Y20400000D03*
X65590000Y20400000D03*
X80410000Y53000000D03*
X79390000Y53000000D03*
D12*
X70500000Y38020000D03*
X70500000Y38980000D03*
D23*
X98700000Y37910000D03*
X98700000Y36890000D03*
D13*
X102300000Y37880000D03*
X102300000Y36920000D03*
D16*
X55910000Y59100000D03*
X54890000Y59100000D03*
D63*
X105655000Y13741673D03*
X105145000Y12858327D03*
D36*
X22620000Y82032500D03*
X22620000Y83607500D03*
D85*
X111000000Y93784600D03*
D86*
X114494600Y93784600D03*
X107505400Y93784600D03*
D13*
X18700000Y61780000D03*
X18700000Y60820000D03*
D16*
X54410000Y72500000D03*
X53390000Y72500000D03*
D18*
X67300000Y83790000D03*
X67300000Y84810000D03*
D81*
X20050000Y42560000D03*
X21000000Y42560000D03*
X21950000Y42560000D03*
X21950000Y45240000D03*
X21000000Y45240000D03*
X20050000Y45240000D03*
D15*
X20475000Y43500000D03*
X21525000Y43500000D03*
X20475000Y44300000D03*
X21525000Y44300000D03*
D13*
X89700000Y19280000D03*
X89700000Y18320000D03*
D12*
X12100000Y46220000D03*
X12100000Y47180000D03*
D20*
X8680000Y25000000D03*
X7720000Y25000000D03*
D18*
X49300000Y20490000D03*
X49300000Y21510000D03*
D13*
X41500000Y53280000D03*
X41500000Y52320000D03*
D57*
X80600000Y57125000D03*
X80600000Y58675000D03*
D20*
X42230000Y23950000D03*
X41270000Y23950000D03*
D13*
X100600000Y30380000D03*
X100600000Y29420000D03*
D51*
X40015000Y19200000D03*
X40985000Y19200000D03*
D13*
X105600000Y30380000D03*
X105600000Y29420000D03*
D20*
X19580000Y18900000D03*
X18620000Y18900000D03*
D61*
X11750000Y36100000D03*
X12250000Y36100000D03*
X12750000Y36100000D03*
X13250000Y36100000D03*
X13250000Y38900000D03*
X12750000Y38900000D03*
X12250000Y38900000D03*
X11750000Y38900000D03*
D62*
X12500000Y37500000D03*
D13*
X36700000Y52980000D03*
X36700000Y52020000D03*
D12*
X40000000Y20520000D03*
X40000000Y21480000D03*
D23*
X70900000Y90010000D03*
X70900000Y88990000D03*
D20*
X90280000Y79000000D03*
X89320000Y79000000D03*
D30*
X114700000Y26315000D03*
X114700000Y27285000D03*
D12*
X116000000Y42220000D03*
X116000000Y43180000D03*
D20*
X113280000Y46000000D03*
X112320000Y46000000D03*
D12*
X15400000Y53820000D03*
X15400000Y54780000D03*
D18*
X18900000Y30790000D03*
X18900000Y31810000D03*
D11*
X36520000Y36700000D03*
X37480000Y36700000D03*
D20*
X45480000Y15400000D03*
X44520000Y15400000D03*
D11*
X48620000Y65600000D03*
X49580000Y65600000D03*
D12*
X26000000Y10020000D03*
X26000000Y10980000D03*
D11*
X116520000Y55000000D03*
X117480000Y55000000D03*
D23*
X115000000Y54910000D03*
X115000000Y53890000D03*
D48*
X14900000Y42925000D03*
X14900000Y43575000D03*
X14900000Y44225000D03*
X14900000Y44875000D03*
X10500000Y44875000D03*
X10500000Y44225000D03*
X10500000Y43575000D03*
X10500000Y42925000D03*
D17*
X92790000Y24350000D03*
X93810000Y24350000D03*
D24*
X20225000Y40900000D03*
X21775000Y40900000D03*
D16*
X57410000Y74900000D03*
X56390000Y74900000D03*
D18*
X87300000Y18290000D03*
X87300000Y19310000D03*
D12*
X14700000Y25120000D03*
X14700000Y26080000D03*
D13*
X105000000Y59580000D03*
X105000000Y58620000D03*
D23*
X61000000Y14910000D03*
X61000000Y13890000D03*
D17*
X12490000Y31800000D03*
X13510000Y31800000D03*
D49*
X83685000Y36000000D03*
X82715000Y36000000D03*
D16*
X54410000Y68900000D03*
X53390000Y68900000D03*
D17*
X11190000Y40500000D03*
X12210000Y40500000D03*
D30*
X108200000Y23765000D03*
X108200000Y24735000D03*
D36*
X13620000Y82032500D03*
X13620000Y83607500D03*
D16*
X57410000Y70100000D03*
X56390000Y70100000D03*
D11*
X73720000Y46000000D03*
X74680000Y46000000D03*
D50*
X112450000Y73800000D03*
X112450000Y77500000D03*
D17*
X95890000Y70200000D03*
X96910000Y70200000D03*
D23*
X16400000Y44410000D03*
X16400000Y43390000D03*
D11*
X12170000Y49800000D03*
X13130000Y49800000D03*
D93*
X57810000Y63360000D03*
X57810000Y64630000D03*
X57810000Y65900000D03*
X57810000Y67170000D03*
X52860000Y67170000D03*
X52860000Y65900000D03*
X52860000Y64630000D03*
X52860000Y63360000D03*
D13*
X81200000Y39480000D03*
X81200000Y38520000D03*
D23*
X115000000Y52510000D03*
X115000000Y51490000D03*
D12*
X28300000Y30620000D03*
X28300000Y31580000D03*
D94*
X61400000Y21612500D03*
X60900000Y21612500D03*
X60400000Y21612500D03*
X59900000Y21612500D03*
X59900000Y19587500D03*
X60400000Y19587500D03*
X60900000Y19587500D03*
X61400000Y19587500D03*
D95*
X60650000Y20600000D03*
D13*
X39100000Y52980000D03*
X39100000Y52020000D03*
D12*
X89100000Y28520000D03*
X89100000Y29480000D03*
D96*
X51400000Y38120600D03*
X51000000Y38120600D03*
D97*
X50279400Y37800000D03*
X50279400Y37400000D03*
X50279400Y37000000D03*
X50279400Y36600000D03*
D96*
X51000000Y36279400D03*
X51400000Y36279400D03*
D97*
X52120600Y36600000D03*
X52120600Y37000000D03*
X52120600Y37400000D03*
X52120600Y37800000D03*
D90*
X51200000Y37200000D03*
D84*
X17145000Y12441673D03*
X17655000Y11558327D03*
D16*
X78510000Y36000000D03*
X77490000Y36000000D03*
D18*
X29500000Y30590000D03*
X29500000Y31610000D03*
D13*
X108000000Y52580000D03*
X108000000Y51620000D03*
D36*
X16620000Y82032500D03*
X16620000Y83607500D03*
D98*
X17250000Y17415000D03*
X18500000Y17415000D03*
X19750000Y17415000D03*
X19750000Y13985000D03*
X18500000Y13985000D03*
X17250000Y13985000D03*
D12*
X105600000Y21320000D03*
X105600000Y22280000D03*
X66000000Y38020000D03*
X66000000Y38980000D03*
D23*
X35100000Y37910000D03*
X35100000Y36890000D03*
D12*
X63100000Y53220000D03*
X63100000Y54180000D03*
D13*
X38100000Y31480000D03*
X38100000Y30520000D03*
D23*
X39100000Y83310000D03*
X39100000Y82290000D03*
D99*
X72581400Y88833600D03*
X72581400Y86933600D03*
X74456400Y87883600D03*
D23*
X111000000Y54910000D03*
X111000000Y53890000D03*
D18*
X59700000Y10490000D03*
X59700000Y11510000D03*
D20*
X29380000Y33200000D03*
X28420000Y33200000D03*
D23*
X21100000Y83310000D03*
X21100000Y82290000D03*
D100*
X27922874Y7337087D03*
X28276427Y6983534D03*
X28629981Y6629981D03*
X28983534Y6276427D03*
X29337087Y5922874D03*
D101*
X30662913Y5922874D03*
X31016466Y6276427D03*
X31370019Y6629981D03*
X31723573Y6983534D03*
X32077126Y7337087D03*
D100*
X32077126Y8662913D03*
X31723573Y9016466D03*
X31370019Y9370019D03*
X31016466Y9723573D03*
X30662913Y10077126D03*
D101*
X29337087Y10077126D03*
X28983534Y9723573D03*
X28629981Y9370019D03*
X28276427Y9016466D03*
X27922874Y8662913D03*
D102*
X30000000Y8000000D03*
D23*
X116700000Y48710000D03*
X116700000Y47690000D03*
X18100000Y83310000D03*
X18100000Y82290000D03*
D103*
X86700000Y77250000D03*
X86700000Y77750000D03*
X86700000Y78250000D03*
X86700000Y78750000D03*
X86700000Y79250000D03*
X86700000Y79750000D03*
X86700000Y80250000D03*
X86700000Y80750000D03*
X82900000Y80750000D03*
X82900000Y80250000D03*
X82900000Y79750000D03*
X82900000Y79250000D03*
X82900000Y78750000D03*
X82900000Y78250000D03*
X82900000Y77750000D03*
X82900000Y77250000D03*
D104*
X84800000Y79000000D03*
D20*
X13480000Y28500000D03*
X12520000Y28500000D03*
X53280000Y60300000D03*
X52320000Y60300000D03*
D11*
X82420000Y24100000D03*
X83380000Y24100000D03*
D20*
X45480000Y16700000D03*
X44520000Y16700000D03*
D13*
X81200000Y43780000D03*
X81200000Y42820000D03*
D12*
X30500000Y43220000D03*
X30500000Y44180000D03*
D18*
X86060000Y18300000D03*
X86060000Y19320000D03*
D16*
X57410000Y72500000D03*
X56390000Y72500000D03*
D20*
X34980000Y51800000D03*
X34020000Y51800000D03*
D11*
X109520000Y40703600D03*
X110480000Y40703600D03*
D49*
X14885000Y23800000D03*
X13915000Y23800000D03*
D30*
X14700000Y29715000D03*
X14700000Y30685000D03*
D49*
X87685000Y36000000D03*
X86715000Y36000000D03*
D18*
X105100000Y52590000D03*
X105100000Y53610000D03*
D12*
X43500000Y20520000D03*
X43500000Y21480000D03*
D13*
X66900000Y45980000D03*
X66900000Y45020000D03*
D100*
X86922874Y7337087D03*
X87276427Y6983534D03*
X87629981Y6629981D03*
X87983534Y6276427D03*
X88337087Y5922874D03*
D101*
X89662913Y5922874D03*
X90016466Y6276427D03*
X90370019Y6629981D03*
X90723573Y6983534D03*
X91077126Y7337087D03*
D100*
X91077126Y8662913D03*
X90723573Y9016466D03*
X90370019Y9370019D03*
X90016466Y9723573D03*
X89662913Y10077126D03*
D101*
X88337087Y10077126D03*
X87983534Y9723573D03*
X87629981Y9370019D03*
X87276427Y9016466D03*
X86922874Y8662913D03*
D102*
X89000000Y8000000D03*
D11*
X12170000Y48500000D03*
X13130000Y48500000D03*
D12*
X86100000Y28520000D03*
X86100000Y29480000D03*
D18*
X90718900Y19283600D03*
X90718900Y20303600D03*
D17*
X37490000Y29100000D03*
X38510000Y29100000D03*
D20*
X46480000Y55900000D03*
X45520000Y55900000D03*
X37880000Y14000000D03*
X36920000Y14000000D03*
D12*
X54000000Y23020000D03*
X54000000Y23980000D03*
D79*
X92000000Y56075000D03*
X92000000Y53125000D03*
D11*
X72420000Y49300000D03*
X73380000Y49300000D03*
D23*
X5100000Y19710000D03*
X5100000Y18690000D03*
D50*
X90300000Y76850000D03*
X90300000Y73150000D03*
D17*
X47990000Y57600000D03*
X49010000Y57600000D03*
D13*
X65700000Y24980000D03*
X65700000Y24020000D03*
D18*
X66000000Y83790000D03*
X66000000Y84810000D03*
D23*
X65508900Y55033600D03*
X65508900Y54013600D03*
D31*
X7973900Y64978600D03*
D32*
X5433900Y64978600D03*
X7973900Y67518600D03*
X5433900Y67518600D03*
X7973900Y70058600D03*
X5433900Y70058600D03*
X7973900Y72598600D03*
X5433900Y72598600D03*
X7973900Y75138600D03*
X5433900Y75138600D03*
X7973900Y77678600D03*
X5433900Y77678600D03*
X7973900Y80218600D03*
X5433900Y80218600D03*
X7973900Y82758600D03*
X5433900Y82758600D03*
X7973900Y85298600D03*
X5433900Y85298600D03*
X7973900Y87838600D03*
X5433900Y87838600D03*
D23*
X49400000Y40510000D03*
X49400000Y39490000D03*
D12*
X67000000Y30620000D03*
X67000000Y31580000D03*
D105*
X97950000Y41000000D03*
X97950000Y41500000D03*
X97950000Y42000000D03*
X97950000Y42500000D03*
X97950000Y43000000D03*
D106*
X97000000Y43950000D03*
X96500000Y43950000D03*
X96000000Y43950000D03*
X95500000Y43950000D03*
X95000000Y43950000D03*
D105*
X94050000Y43000000D03*
X94050000Y42500000D03*
X94050000Y42000000D03*
X94050000Y41500000D03*
X94050000Y41000000D03*
D106*
X95000000Y40050000D03*
X95500000Y40050000D03*
X96000000Y40050000D03*
X96500000Y40050000D03*
X97000000Y40050000D03*
D107*
X96000000Y42000000D03*
D36*
X34620000Y81932500D03*
X34620000Y83507500D03*
D23*
X31300000Y35410000D03*
X31300000Y34390000D03*
D12*
X83698900Y25023600D03*
X83698900Y25983600D03*
D11*
X8820000Y38100000D03*
X9780000Y38100000D03*
D69*
X11400000Y51300000D03*
X11900000Y51300000D03*
X12400000Y51300000D03*
X12900000Y51300000D03*
X13400000Y51300000D03*
X13400000Y55700000D03*
X12900000Y55700000D03*
X12400000Y55700000D03*
X11900000Y55700000D03*
X11400000Y55700000D03*
D13*
X61000000Y17180000D03*
X61000000Y16220000D03*
D20*
X37880000Y15400000D03*
X36920000Y15400000D03*
D18*
X32900000Y18490000D03*
X32900000Y19510000D03*
X63100000Y46290000D03*
X63100000Y47310000D03*
D13*
X15400000Y18080000D03*
X15400000Y17120000D03*
D16*
X92510000Y58000000D03*
X91490000Y58000000D03*
D108*
X87102007Y10719167D03*
X87780829Y11397989D03*
D98*
X103150000Y18715000D03*
X104400000Y18715000D03*
X105650000Y18715000D03*
X105650000Y15285000D03*
X104400000Y15285000D03*
X103150000Y15285000D03*
D22*
X86275000Y75000000D03*
X83325000Y75000000D03*
D109*
X72850000Y26300000D03*
X72850000Y24000000D03*
D110*
X79150000Y24000000D03*
D109*
X72850000Y21700000D03*
D23*
X16800000Y41910000D03*
X16800000Y40890000D03*
X64300000Y49610000D03*
X64300000Y48590000D03*
D44*
X28900000Y18875000D03*
X28900000Y17325000D03*
D20*
X42480000Y28800000D03*
X41520000Y28800000D03*
X29380000Y36800000D03*
X28420000Y36800000D03*
D36*
X28620000Y82032500D03*
X28620000Y83607500D03*
D16*
X56310000Y60300000D03*
X55290000Y60300000D03*
D17*
X47990000Y24400000D03*
X49010000Y24400000D03*
D18*
X38800000Y20490000D03*
X38800000Y21510000D03*
D17*
X21590000Y14000000D03*
X22610000Y14000000D03*
D12*
X85200000Y36220000D03*
X85200000Y37180000D03*
D11*
X109520000Y44800000D03*
X110480000Y44800000D03*
X13520000Y41700000D03*
X14480000Y41700000D03*
D12*
X81200000Y36220000D03*
X81200000Y37180000D03*
X99900000Y36920000D03*
X99900000Y37880000D03*
D23*
X113500000Y35710000D03*
X113500000Y34690000D03*
D111*
X97250000Y75575000D03*
X97750000Y75575000D03*
X98250000Y75575000D03*
X98750000Y75575000D03*
X99250000Y75575000D03*
X99750000Y75575000D03*
X99750000Y78425000D03*
X99250000Y78425000D03*
X98750000Y78425000D03*
X98250000Y78425000D03*
X97750000Y78425000D03*
X97250000Y78425000D03*
D112*
X98500000Y77000000D03*
M02*
