%TF.GenerationSoftware,KiCad,Pcbnew,9.0.0*%
%TF.CreationDate,2025-02-25T23:04:32-05:00*%
%TF.ProjectId,VNA,564e412e-6b69-4636-9164-5f7063625858,rev?*%
%TF.SameCoordinates,PX535a28cPY8422900*%
%TF.FileFunction,Legend,Bot*%
%TF.FilePolarity,Positive*%
%FSLAX46Y46*%
G04 Gerber Fmt 4.6, Leading zero omitted, Abs format (unit mm)*
G04 Created by KiCad (PCBNEW 9.0.0) date 2025-02-25 23:04:32*
%MOMM*%
%LPD*%
G01*
G04 APERTURE LIST*
G04 Aperture macros list*
%AMRoundRect*
0 Rectangle with rounded corners*
0 $1 Rounding radius*
0 $2 $3 $4 $5 $6 $7 $8 $9 X,Y pos of 4 corners*
0 Add a 4 corners polygon primitive as box body*
4,1,4,$2,$3,$4,$5,$6,$7,$8,$9,$2,$3,0*
0 Add four circle primitives for the rounded corners*
1,1,$1+$1,$2,$3*
1,1,$1+$1,$4,$5*
1,1,$1+$1,$6,$7*
1,1,$1+$1,$8,$9*
0 Add four rect primitives between the rounded corners*
20,1,$1+$1,$2,$3,$4,$5,0*
20,1,$1+$1,$4,$5,$6,$7,0*
20,1,$1+$1,$6,$7,$8,$9,0*
20,1,$1+$1,$8,$9,$2,$3,0*%
G04 Aperture macros list end*
%ADD10C,0.081280*%
%ADD11C,0.142240*%
%ADD12C,0.100000*%
%ADD13R,1.700000X1.700000*%
%ADD14O,1.700000X1.700000*%
%ADD15C,0.650000*%
%ADD16O,1.000000X2.100000*%
%ADD17O,1.000000X1.800000*%
%ADD18R,2.286000X5.080000*%
%ADD19C,1.200000*%
%ADD20O,1.308000X2.616000*%
%ADD21R,2.667000X4.191000*%
%ADD22RoundRect,0.635000X0.000010X0.000010X-0.000010X0.000010X-0.000010X-0.000010X0.000010X-0.000010X0*%
%ADD23RoundRect,0.635000X-0.000010X-0.000010X0.000010X-0.000010X0.000010X0.000010X-0.000010X0.000010X0*%
G04 APERTURE END LIST*
D10*
X32623974Y61974703D02*
X31911807Y61974703D01*
X32267890Y61618619D02*
X32267890Y62330787D01*
X31555723Y62553339D02*
X30977087Y62553339D01*
X30977087Y62553339D02*
X31288660Y62197255D01*
X31288660Y62197255D02*
X31155129Y62197255D01*
X31155129Y62197255D02*
X31066108Y62152745D01*
X31066108Y62152745D02*
X31021597Y62108234D01*
X31021597Y62108234D02*
X30977087Y62019213D01*
X30977087Y62019213D02*
X30977087Y61796661D01*
X30977087Y61796661D02*
X31021597Y61707640D01*
X31021597Y61707640D02*
X31066108Y61663129D01*
X31066108Y61663129D02*
X31155129Y61618619D01*
X31155129Y61618619D02*
X31422192Y61618619D01*
X31422192Y61618619D02*
X31511213Y61663129D01*
X31511213Y61663129D02*
X31555723Y61707640D01*
X30710024Y62553339D02*
X30398450Y61618619D01*
X30398450Y61618619D02*
X30086877Y62553339D01*
X29864324Y62553339D02*
X29285688Y62553339D01*
X29285688Y62553339D02*
X29597261Y62197255D01*
X29597261Y62197255D02*
X29463730Y62197255D01*
X29463730Y62197255D02*
X29374709Y62152745D01*
X29374709Y62152745D02*
X29330198Y62108234D01*
X29330198Y62108234D02*
X29285688Y62019213D01*
X29285688Y62019213D02*
X29285688Y61796661D01*
X29285688Y61796661D02*
X29330198Y61707640D01*
X29330198Y61707640D02*
X29374709Y61663129D01*
X29374709Y61663129D02*
X29463730Y61618619D01*
X29463730Y61618619D02*
X29730793Y61618619D01*
X29730793Y61618619D02*
X29819814Y61663129D01*
X29819814Y61663129D02*
X29864324Y61707640D01*
X22508828Y36865641D02*
X22553338Y36776620D01*
X22553338Y36776620D02*
X22553338Y36643089D01*
X22553338Y36643089D02*
X22508828Y36509557D01*
X22508828Y36509557D02*
X22419807Y36420536D01*
X22419807Y36420536D02*
X22330786Y36376026D01*
X22330786Y36376026D02*
X22152744Y36331515D01*
X22152744Y36331515D02*
X22019212Y36331515D01*
X22019212Y36331515D02*
X21841170Y36376026D01*
X21841170Y36376026D02*
X21752149Y36420536D01*
X21752149Y36420536D02*
X21663129Y36509557D01*
X21663129Y36509557D02*
X21618618Y36643089D01*
X21618618Y36643089D02*
X21618618Y36732110D01*
X21618618Y36732110D02*
X21663129Y36865641D01*
X21663129Y36865641D02*
X21707639Y36910152D01*
X21707639Y36910152D02*
X22019212Y36910152D01*
X22019212Y36910152D02*
X22019212Y36732110D01*
X21618618Y37310746D02*
X22553338Y37310746D01*
X22553338Y37310746D02*
X21618618Y37844872D01*
X21618618Y37844872D02*
X22553338Y37844872D01*
X21618618Y38289976D02*
X22553338Y38289976D01*
X22553338Y38289976D02*
X22553338Y38512528D01*
X22553338Y38512528D02*
X22508828Y38646060D01*
X22508828Y38646060D02*
X22419807Y38735081D01*
X22419807Y38735081D02*
X22330786Y38779591D01*
X22330786Y38779591D02*
X22152744Y38824102D01*
X22152744Y38824102D02*
X22019212Y38824102D01*
X22019212Y38824102D02*
X21841170Y38779591D01*
X21841170Y38779591D02*
X21752149Y38735081D01*
X21752149Y38735081D02*
X21663129Y38646060D01*
X21663129Y38646060D02*
X21618618Y38512528D01*
X21618618Y38512528D02*
X21618618Y38289976D01*
X104823974Y55274703D02*
X104111807Y55274703D01*
X104467890Y54918619D02*
X104467890Y55630787D01*
X103221597Y55853339D02*
X103666702Y55853339D01*
X103666702Y55853339D02*
X103711213Y55408234D01*
X103711213Y55408234D02*
X103666702Y55452745D01*
X103666702Y55452745D02*
X103577681Y55497255D01*
X103577681Y55497255D02*
X103355129Y55497255D01*
X103355129Y55497255D02*
X103266108Y55452745D01*
X103266108Y55452745D02*
X103221597Y55408234D01*
X103221597Y55408234D02*
X103177087Y55319213D01*
X103177087Y55319213D02*
X103177087Y55096661D01*
X103177087Y55096661D02*
X103221597Y55007640D01*
X103221597Y55007640D02*
X103266108Y54963129D01*
X103266108Y54963129D02*
X103355129Y54918619D01*
X103355129Y54918619D02*
X103577681Y54918619D01*
X103577681Y54918619D02*
X103666702Y54963129D01*
X103666702Y54963129D02*
X103711213Y55007640D01*
X102910024Y55853339D02*
X102598450Y54918619D01*
X102598450Y54918619D02*
X102286877Y55853339D01*
X36915206Y85810025D02*
X36959716Y85721004D01*
X36959716Y85721004D02*
X36959716Y85587473D01*
X36959716Y85587473D02*
X36915206Y85453941D01*
X36915206Y85453941D02*
X36826185Y85364920D01*
X36826185Y85364920D02*
X36737164Y85320410D01*
X36737164Y85320410D02*
X36559122Y85275899D01*
X36559122Y85275899D02*
X36425590Y85275899D01*
X36425590Y85275899D02*
X36247548Y85320410D01*
X36247548Y85320410D02*
X36158527Y85364920D01*
X36158527Y85364920D02*
X36069507Y85453941D01*
X36069507Y85453941D02*
X36024996Y85587473D01*
X36024996Y85587473D02*
X36024996Y85676494D01*
X36024996Y85676494D02*
X36069507Y85810025D01*
X36069507Y85810025D02*
X36114017Y85854536D01*
X36114017Y85854536D02*
X36425590Y85854536D01*
X36425590Y85854536D02*
X36425590Y85676494D01*
X36024996Y86255130D02*
X36959716Y86255130D01*
X36959716Y86255130D02*
X36024996Y86789256D01*
X36024996Y86789256D02*
X36959716Y86789256D01*
X36024996Y87234360D02*
X36959716Y87234360D01*
X36959716Y87234360D02*
X36959716Y87456912D01*
X36959716Y87456912D02*
X36915206Y87590444D01*
X36915206Y87590444D02*
X36826185Y87679465D01*
X36826185Y87679465D02*
X36737164Y87723975D01*
X36737164Y87723975D02*
X36559122Y87768486D01*
X36559122Y87768486D02*
X36425590Y87768486D01*
X36425590Y87768486D02*
X36247548Y87723975D01*
X36247548Y87723975D02*
X36158527Y87679465D01*
X36158527Y87679465D02*
X36069507Y87590444D01*
X36069507Y87590444D02*
X36024996Y87456912D01*
X36024996Y87456912D02*
X36024996Y87234360D01*
X29359716Y85364919D02*
X29359716Y85899045D01*
X28424996Y85631982D02*
X29359716Y85631982D01*
X28424996Y86210619D02*
X29359716Y86210619D01*
X29359716Y86210619D02*
X28692059Y86522192D01*
X28692059Y86522192D02*
X29359716Y86833766D01*
X29359716Y86833766D02*
X28424996Y86833766D01*
X28469507Y87234359D02*
X28424996Y87367891D01*
X28424996Y87367891D02*
X28424996Y87590443D01*
X28424996Y87590443D02*
X28469507Y87679464D01*
X28469507Y87679464D02*
X28514017Y87723975D01*
X28514017Y87723975D02*
X28603038Y87768485D01*
X28603038Y87768485D02*
X28692059Y87768485D01*
X28692059Y87768485D02*
X28781080Y87723975D01*
X28781080Y87723975D02*
X28825590Y87679464D01*
X28825590Y87679464D02*
X28870101Y87590443D01*
X28870101Y87590443D02*
X28914611Y87412401D01*
X28914611Y87412401D02*
X28959122Y87323380D01*
X28959122Y87323380D02*
X29003632Y87278870D01*
X29003632Y87278870D02*
X29092653Y87234359D01*
X29092653Y87234359D02*
X29181674Y87234359D01*
X29181674Y87234359D02*
X29270695Y87278870D01*
X29270695Y87278870D02*
X29315206Y87323380D01*
X29315206Y87323380D02*
X29359716Y87412401D01*
X29359716Y87412401D02*
X29359716Y87634954D01*
X29359716Y87634954D02*
X29315206Y87768485D01*
X33381080Y37430199D02*
X33381080Y38142366D01*
X33024996Y37786283D02*
X33737164Y37786283D01*
X33024996Y39077086D02*
X33024996Y38542960D01*
X33024996Y38810023D02*
X33959716Y38810023D01*
X33959716Y38810023D02*
X33826185Y38721002D01*
X33826185Y38721002D02*
X33737164Y38631981D01*
X33737164Y38631981D02*
X33692653Y38542960D01*
X33959716Y39344149D02*
X33024996Y39655723D01*
X33024996Y39655723D02*
X33959716Y39967296D01*
X33559122Y40412401D02*
X33603632Y40323380D01*
X33603632Y40323380D02*
X33648143Y40278870D01*
X33648143Y40278870D02*
X33737164Y40234359D01*
X33737164Y40234359D02*
X33781674Y40234359D01*
X33781674Y40234359D02*
X33870695Y40278870D01*
X33870695Y40278870D02*
X33915206Y40323380D01*
X33915206Y40323380D02*
X33959716Y40412401D01*
X33959716Y40412401D02*
X33959716Y40590443D01*
X33959716Y40590443D02*
X33915206Y40679464D01*
X33915206Y40679464D02*
X33870695Y40723975D01*
X33870695Y40723975D02*
X33781674Y40768485D01*
X33781674Y40768485D02*
X33737164Y40768485D01*
X33737164Y40768485D02*
X33648143Y40723975D01*
X33648143Y40723975D02*
X33603632Y40679464D01*
X33603632Y40679464D02*
X33559122Y40590443D01*
X33559122Y40590443D02*
X33559122Y40412401D01*
X33559122Y40412401D02*
X33514611Y40323380D01*
X33514611Y40323380D02*
X33470101Y40278870D01*
X33470101Y40278870D02*
X33381080Y40234359D01*
X33381080Y40234359D02*
X33203038Y40234359D01*
X33203038Y40234359D02*
X33114017Y40278870D01*
X33114017Y40278870D02*
X33069507Y40323380D01*
X33069507Y40323380D02*
X33024996Y40412401D01*
X33024996Y40412401D02*
X33024996Y40590443D01*
X33024996Y40590443D02*
X33069507Y40679464D01*
X33069507Y40679464D02*
X33114017Y40723975D01*
X33114017Y40723975D02*
X33203038Y40768485D01*
X33203038Y40768485D02*
X33381080Y40768485D01*
X33381080Y40768485D02*
X33470101Y40723975D01*
X33470101Y40723975D02*
X33514611Y40679464D01*
X33514611Y40679464D02*
X33559122Y40590443D01*
X32723974Y63974703D02*
X32011807Y63974703D01*
X32367890Y63618619D02*
X32367890Y64330787D01*
X31077087Y63618619D02*
X31611213Y63618619D01*
X31344150Y63618619D02*
X31344150Y64553339D01*
X31344150Y64553339D02*
X31433171Y64419808D01*
X31433171Y64419808D02*
X31522192Y64330787D01*
X31522192Y64330787D02*
X31611213Y64286276D01*
X30810024Y64553339D02*
X30498450Y63618619D01*
X30498450Y63618619D02*
X30186877Y64553339D01*
X29919814Y64464318D02*
X29875303Y64508829D01*
X29875303Y64508829D02*
X29786282Y64553339D01*
X29786282Y64553339D02*
X29563730Y64553339D01*
X29563730Y64553339D02*
X29474709Y64508829D01*
X29474709Y64508829D02*
X29430198Y64464318D01*
X29430198Y64464318D02*
X29385688Y64375297D01*
X29385688Y64375297D02*
X29385688Y64286276D01*
X29385688Y64286276D02*
X29430198Y64152745D01*
X29430198Y64152745D02*
X29964324Y63618619D01*
X29964324Y63618619D02*
X29385688Y63618619D01*
X31015206Y41810025D02*
X31059716Y41721004D01*
X31059716Y41721004D02*
X31059716Y41587473D01*
X31059716Y41587473D02*
X31015206Y41453941D01*
X31015206Y41453941D02*
X30926185Y41364920D01*
X30926185Y41364920D02*
X30837164Y41320410D01*
X30837164Y41320410D02*
X30659122Y41275899D01*
X30659122Y41275899D02*
X30525590Y41275899D01*
X30525590Y41275899D02*
X30347548Y41320410D01*
X30347548Y41320410D02*
X30258527Y41364920D01*
X30258527Y41364920D02*
X30169507Y41453941D01*
X30169507Y41453941D02*
X30124996Y41587473D01*
X30124996Y41587473D02*
X30124996Y41676494D01*
X30124996Y41676494D02*
X30169507Y41810025D01*
X30169507Y41810025D02*
X30214017Y41854536D01*
X30214017Y41854536D02*
X30525590Y41854536D01*
X30525590Y41854536D02*
X30525590Y41676494D01*
X30124996Y42255130D02*
X31059716Y42255130D01*
X31059716Y42255130D02*
X30124996Y42789256D01*
X30124996Y42789256D02*
X31059716Y42789256D01*
X30124996Y43234360D02*
X31059716Y43234360D01*
X31059716Y43234360D02*
X31059716Y43456912D01*
X31059716Y43456912D02*
X31015206Y43590444D01*
X31015206Y43590444D02*
X30926185Y43679465D01*
X30926185Y43679465D02*
X30837164Y43723975D01*
X30837164Y43723975D02*
X30659122Y43768486D01*
X30659122Y43768486D02*
X30525590Y43768486D01*
X30525590Y43768486D02*
X30347548Y43723975D01*
X30347548Y43723975D02*
X30258527Y43679465D01*
X30258527Y43679465D02*
X30169507Y43590444D01*
X30169507Y43590444D02*
X30124996Y43456912D01*
X30124996Y43456912D02*
X30124996Y43234360D01*
X78523974Y28974703D02*
X77811807Y28974703D01*
X78167890Y28618619D02*
X78167890Y29330787D01*
X77455723Y29553339D02*
X76877087Y29553339D01*
X76877087Y29553339D02*
X77188660Y29197255D01*
X77188660Y29197255D02*
X77055129Y29197255D01*
X77055129Y29197255D02*
X76966108Y29152745D01*
X76966108Y29152745D02*
X76921597Y29108234D01*
X76921597Y29108234D02*
X76877087Y29019213D01*
X76877087Y29019213D02*
X76877087Y28796661D01*
X76877087Y28796661D02*
X76921597Y28707640D01*
X76921597Y28707640D02*
X76966108Y28663129D01*
X76966108Y28663129D02*
X77055129Y28618619D01*
X77055129Y28618619D02*
X77322192Y28618619D01*
X77322192Y28618619D02*
X77411213Y28663129D01*
X77411213Y28663129D02*
X77455723Y28707640D01*
X76610024Y29553339D02*
X76298450Y28618619D01*
X76298450Y28618619D02*
X75986877Y29553339D01*
X75764324Y29553339D02*
X75185688Y29553339D01*
X75185688Y29553339D02*
X75497261Y29197255D01*
X75497261Y29197255D02*
X75363730Y29197255D01*
X75363730Y29197255D02*
X75274709Y29152745D01*
X75274709Y29152745D02*
X75230198Y29108234D01*
X75230198Y29108234D02*
X75185688Y29019213D01*
X75185688Y29019213D02*
X75185688Y28796661D01*
X75185688Y28796661D02*
X75230198Y28707640D01*
X75230198Y28707640D02*
X75274709Y28663129D01*
X75274709Y28663129D02*
X75363730Y28618619D01*
X75363730Y28618619D02*
X75630793Y28618619D01*
X75630793Y28618619D02*
X75719814Y28663129D01*
X75719814Y28663129D02*
X75764324Y28707640D01*
D11*
X112782235Y89707583D02*
X113327488Y90486516D01*
X113716955Y89707583D02*
X113716955Y91343343D01*
X113716955Y91343343D02*
X113093808Y91343343D01*
X113093808Y91343343D02*
X112938022Y91265450D01*
X112938022Y91265450D02*
X112860128Y91187556D01*
X112860128Y91187556D02*
X112782235Y91031770D01*
X112782235Y91031770D02*
X112782235Y90798090D01*
X112782235Y90798090D02*
X112860128Y90642303D01*
X112860128Y90642303D02*
X112938022Y90564410D01*
X112938022Y90564410D02*
X113093808Y90486516D01*
X113093808Y90486516D02*
X113716955Y90486516D01*
X111458048Y89785476D02*
X111613835Y89707583D01*
X111613835Y89707583D02*
X111925408Y89707583D01*
X111925408Y89707583D02*
X112081195Y89785476D01*
X112081195Y89785476D02*
X112159088Y89941263D01*
X112159088Y89941263D02*
X112159088Y90564410D01*
X112159088Y90564410D02*
X112081195Y90720196D01*
X112081195Y90720196D02*
X111925408Y90798090D01*
X111925408Y90798090D02*
X111613835Y90798090D01*
X111613835Y90798090D02*
X111458048Y90720196D01*
X111458048Y90720196D02*
X111380155Y90564410D01*
X111380155Y90564410D02*
X111380155Y90408623D01*
X111380155Y90408623D02*
X112159088Y90252836D01*
X110912795Y90798090D02*
X110289648Y90798090D01*
X110679115Y89707583D02*
X110679115Y91109663D01*
X110679115Y91109663D02*
X110601222Y91265450D01*
X110601222Y91265450D02*
X110445435Y91343343D01*
X110445435Y91343343D02*
X110289648Y91343343D01*
X108498102Y89707583D02*
X108498102Y91343343D01*
X107719169Y90798090D02*
X107719169Y89707583D01*
X107719169Y90642303D02*
X107641276Y90720196D01*
X107641276Y90720196D02*
X107485489Y90798090D01*
X107485489Y90798090D02*
X107251809Y90798090D01*
X107251809Y90798090D02*
X107096022Y90720196D01*
X107096022Y90720196D02*
X107018129Y90564410D01*
X107018129Y90564410D02*
X107018129Y89707583D01*
D10*
X33569507Y83539990D02*
X33524996Y83673522D01*
X33524996Y83673522D02*
X33524996Y83896074D01*
X33524996Y83896074D02*
X33569507Y83985095D01*
X33569507Y83985095D02*
X33614017Y84029606D01*
X33614017Y84029606D02*
X33703038Y84074116D01*
X33703038Y84074116D02*
X33792059Y84074116D01*
X33792059Y84074116D02*
X33881080Y84029606D01*
X33881080Y84029606D02*
X33925590Y83985095D01*
X33925590Y83985095D02*
X33970101Y83896074D01*
X33970101Y83896074D02*
X34014611Y83718032D01*
X34014611Y83718032D02*
X34059122Y83629011D01*
X34059122Y83629011D02*
X34103632Y83584501D01*
X34103632Y83584501D02*
X34192653Y83539990D01*
X34192653Y83539990D02*
X34281674Y83539990D01*
X34281674Y83539990D02*
X34370695Y83584501D01*
X34370695Y83584501D02*
X34415206Y83629011D01*
X34415206Y83629011D02*
X34459716Y83718032D01*
X34459716Y83718032D02*
X34459716Y83940585D01*
X34459716Y83940585D02*
X34415206Y84074116D01*
X34459716Y84385690D02*
X33524996Y84608242D01*
X33524996Y84608242D02*
X34192653Y84786284D01*
X34192653Y84786284D02*
X33524996Y84964326D01*
X33524996Y84964326D02*
X34459716Y85186878D01*
X33614017Y86077088D02*
X33569507Y86032577D01*
X33569507Y86032577D02*
X33524996Y85899046D01*
X33524996Y85899046D02*
X33524996Y85810025D01*
X33524996Y85810025D02*
X33569507Y85676493D01*
X33569507Y85676493D02*
X33658527Y85587472D01*
X33658527Y85587472D02*
X33747548Y85542962D01*
X33747548Y85542962D02*
X33925590Y85498451D01*
X33925590Y85498451D02*
X34059122Y85498451D01*
X34059122Y85498451D02*
X34237164Y85542962D01*
X34237164Y85542962D02*
X34326185Y85587472D01*
X34326185Y85587472D02*
X34415206Y85676493D01*
X34415206Y85676493D02*
X34459716Y85810025D01*
X34459716Y85810025D02*
X34459716Y85899046D01*
X34459716Y85899046D02*
X34415206Y86032577D01*
X34415206Y86032577D02*
X34370695Y86077088D01*
X33524996Y86922787D02*
X33524996Y86477682D01*
X33524996Y86477682D02*
X34459716Y86477682D01*
X33524996Y87234360D02*
X34459716Y87234360D01*
X33524996Y87768486D02*
X34059122Y87367891D01*
X34459716Y87768486D02*
X33925590Y87234360D01*
X31434359Y66508829D02*
X31523380Y66553339D01*
X31523380Y66553339D02*
X31656911Y66553339D01*
X31656911Y66553339D02*
X31790443Y66508829D01*
X31790443Y66508829D02*
X31879464Y66419808D01*
X31879464Y66419808D02*
X31923974Y66330787D01*
X31923974Y66330787D02*
X31968485Y66152745D01*
X31968485Y66152745D02*
X31968485Y66019213D01*
X31968485Y66019213D02*
X31923974Y65841171D01*
X31923974Y65841171D02*
X31879464Y65752150D01*
X31879464Y65752150D02*
X31790443Y65663129D01*
X31790443Y65663129D02*
X31656911Y65618619D01*
X31656911Y65618619D02*
X31567890Y65618619D01*
X31567890Y65618619D02*
X31434359Y65663129D01*
X31434359Y65663129D02*
X31389848Y65707640D01*
X31389848Y65707640D02*
X31389848Y66019213D01*
X31389848Y66019213D02*
X31567890Y66019213D01*
X30989254Y65618619D02*
X30989254Y66553339D01*
X30989254Y66553339D02*
X30455128Y65618619D01*
X30455128Y65618619D02*
X30455128Y66553339D01*
X30010024Y65618619D02*
X30010024Y66553339D01*
X30010024Y66553339D02*
X29787472Y66553339D01*
X29787472Y66553339D02*
X29653940Y66508829D01*
X29653940Y66508829D02*
X29564919Y66419808D01*
X29564919Y66419808D02*
X29520409Y66330787D01*
X29520409Y66330787D02*
X29475898Y66152745D01*
X29475898Y66152745D02*
X29475898Y66019213D01*
X29475898Y66019213D02*
X29520409Y65841171D01*
X29520409Y65841171D02*
X29564919Y65752150D01*
X29564919Y65752150D02*
X29653940Y65663129D01*
X29653940Y65663129D02*
X29787472Y65618619D01*
X29787472Y65618619D02*
X30010024Y65618619D01*
X38569507Y83807053D02*
X38524996Y83940585D01*
X38524996Y83940585D02*
X38524996Y84163137D01*
X38524996Y84163137D02*
X38569507Y84252158D01*
X38569507Y84252158D02*
X38614017Y84296669D01*
X38614017Y84296669D02*
X38703038Y84341179D01*
X38703038Y84341179D02*
X38792059Y84341179D01*
X38792059Y84341179D02*
X38881080Y84296669D01*
X38881080Y84296669D02*
X38925590Y84252158D01*
X38925590Y84252158D02*
X38970101Y84163137D01*
X38970101Y84163137D02*
X39014611Y83985095D01*
X39014611Y83985095D02*
X39059122Y83896074D01*
X39059122Y83896074D02*
X39103632Y83851564D01*
X39103632Y83851564D02*
X39192653Y83807053D01*
X39192653Y83807053D02*
X39281674Y83807053D01*
X39281674Y83807053D02*
X39370695Y83851564D01*
X39370695Y83851564D02*
X39415206Y83896074D01*
X39415206Y83896074D02*
X39459716Y83985095D01*
X39459716Y83985095D02*
X39459716Y84207648D01*
X39459716Y84207648D02*
X39415206Y84341179D01*
X39459716Y84652753D02*
X38524996Y84875305D01*
X38524996Y84875305D02*
X39192653Y85053347D01*
X39192653Y85053347D02*
X38524996Y85231389D01*
X38524996Y85231389D02*
X39459716Y85453941D01*
X38524996Y85810025D02*
X39459716Y85810025D01*
X39459716Y85810025D02*
X39459716Y86032577D01*
X39459716Y86032577D02*
X39415206Y86166109D01*
X39415206Y86166109D02*
X39326185Y86255130D01*
X39326185Y86255130D02*
X39237164Y86299640D01*
X39237164Y86299640D02*
X39059122Y86344151D01*
X39059122Y86344151D02*
X38925590Y86344151D01*
X38925590Y86344151D02*
X38747548Y86299640D01*
X38747548Y86299640D02*
X38658527Y86255130D01*
X38658527Y86255130D02*
X38569507Y86166109D01*
X38569507Y86166109D02*
X38524996Y86032577D01*
X38524996Y86032577D02*
X38524996Y85810025D01*
X38524996Y86744745D02*
X39459716Y86744745D01*
X39459716Y87367892D02*
X39459716Y87545934D01*
X39459716Y87545934D02*
X39415206Y87634955D01*
X39415206Y87634955D02*
X39326185Y87723976D01*
X39326185Y87723976D02*
X39148143Y87768486D01*
X39148143Y87768486D02*
X38836569Y87768486D01*
X38836569Y87768486D02*
X38658527Y87723976D01*
X38658527Y87723976D02*
X38569507Y87634955D01*
X38569507Y87634955D02*
X38524996Y87545934D01*
X38524996Y87545934D02*
X38524996Y87367892D01*
X38524996Y87367892D02*
X38569507Y87278871D01*
X38569507Y87278871D02*
X38658527Y87189850D01*
X38658527Y87189850D02*
X38836569Y87145339D01*
X38836569Y87145339D02*
X39148143Y87145339D01*
X39148143Y87145339D02*
X39326185Y87189850D01*
X39326185Y87189850D02*
X39415206Y87278871D01*
X39415206Y87278871D02*
X39459716Y87367892D01*
X44659716Y86433170D02*
X44659716Y86967296D01*
X43724996Y86700233D02*
X44659716Y86700233D01*
X44659716Y87189849D02*
X43724996Y87812996D01*
X44659716Y87812996D02*
X43724996Y87189849D01*
D11*
X97682235Y89707583D02*
X98227488Y90486516D01*
X98616955Y89707583D02*
X98616955Y91343343D01*
X98616955Y91343343D02*
X97993808Y91343343D01*
X97993808Y91343343D02*
X97838022Y91265450D01*
X97838022Y91265450D02*
X97760128Y91187556D01*
X97760128Y91187556D02*
X97682235Y91031770D01*
X97682235Y91031770D02*
X97682235Y90798090D01*
X97682235Y90798090D02*
X97760128Y90642303D01*
X97760128Y90642303D02*
X97838022Y90564410D01*
X97838022Y90564410D02*
X97993808Y90486516D01*
X97993808Y90486516D02*
X98616955Y90486516D01*
X96358048Y89785476D02*
X96513835Y89707583D01*
X96513835Y89707583D02*
X96825408Y89707583D01*
X96825408Y89707583D02*
X96981195Y89785476D01*
X96981195Y89785476D02*
X97059088Y89941263D01*
X97059088Y89941263D02*
X97059088Y90564410D01*
X97059088Y90564410D02*
X96981195Y90720196D01*
X96981195Y90720196D02*
X96825408Y90798090D01*
X96825408Y90798090D02*
X96513835Y90798090D01*
X96513835Y90798090D02*
X96358048Y90720196D01*
X96358048Y90720196D02*
X96280155Y90564410D01*
X96280155Y90564410D02*
X96280155Y90408623D01*
X96280155Y90408623D02*
X97059088Y90252836D01*
X95812795Y90798090D02*
X95189648Y90798090D01*
X95579115Y89707583D02*
X95579115Y91109663D01*
X95579115Y91109663D02*
X95501222Y91265450D01*
X95501222Y91265450D02*
X95345435Y91343343D01*
X95345435Y91343343D02*
X95189648Y91343343D01*
X93086529Y91343343D02*
X92774955Y91343343D01*
X92774955Y91343343D02*
X92619169Y91265450D01*
X92619169Y91265450D02*
X92463382Y91109663D01*
X92463382Y91109663D02*
X92385489Y90798090D01*
X92385489Y90798090D02*
X92385489Y90252836D01*
X92385489Y90252836D02*
X92463382Y89941263D01*
X92463382Y89941263D02*
X92619169Y89785476D01*
X92619169Y89785476D02*
X92774955Y89707583D01*
X92774955Y89707583D02*
X93086529Y89707583D01*
X93086529Y89707583D02*
X93242315Y89785476D01*
X93242315Y89785476D02*
X93398102Y89941263D01*
X93398102Y89941263D02*
X93475995Y90252836D01*
X93475995Y90252836D02*
X93475995Y90798090D01*
X93475995Y90798090D02*
X93398102Y91109663D01*
X93398102Y91109663D02*
X93242315Y91265450D01*
X93242315Y91265450D02*
X93086529Y91343343D01*
X90983409Y90798090D02*
X90983409Y89707583D01*
X91684449Y90798090D02*
X91684449Y89941263D01*
X91684449Y89941263D02*
X91606556Y89785476D01*
X91606556Y89785476D02*
X91450769Y89707583D01*
X91450769Y89707583D02*
X91217089Y89707583D01*
X91217089Y89707583D02*
X91061302Y89785476D01*
X91061302Y89785476D02*
X90983409Y89863370D01*
X90438156Y90798090D02*
X89815009Y90798090D01*
X90204476Y91343343D02*
X90204476Y89941263D01*
X90204476Y89941263D02*
X90126583Y89785476D01*
X90126583Y89785476D02*
X89970796Y89707583D01*
X89970796Y89707583D02*
X89815009Y89707583D01*
D10*
X41024996Y84652752D02*
X41959716Y84652752D01*
X41959716Y84652752D02*
X41024996Y85186878D01*
X41024996Y85186878D02*
X41959716Y85186878D01*
X41024996Y86166108D02*
X41470101Y85854534D01*
X41024996Y85631982D02*
X41959716Y85631982D01*
X41959716Y85631982D02*
X41959716Y85988066D01*
X41959716Y85988066D02*
X41915206Y86077087D01*
X41915206Y86077087D02*
X41870695Y86121597D01*
X41870695Y86121597D02*
X41781674Y86166108D01*
X41781674Y86166108D02*
X41648143Y86166108D01*
X41648143Y86166108D02*
X41559122Y86121597D01*
X41559122Y86121597D02*
X41514611Y86077087D01*
X41514611Y86077087D02*
X41470101Y85988066D01*
X41470101Y85988066D02*
X41470101Y85631982D01*
X41069507Y86522191D02*
X41024996Y86655723D01*
X41024996Y86655723D02*
X41024996Y86878275D01*
X41024996Y86878275D02*
X41069507Y86967296D01*
X41069507Y86967296D02*
X41114017Y87011807D01*
X41114017Y87011807D02*
X41203038Y87056317D01*
X41203038Y87056317D02*
X41292059Y87056317D01*
X41292059Y87056317D02*
X41381080Y87011807D01*
X41381080Y87011807D02*
X41425590Y86967296D01*
X41425590Y86967296D02*
X41470101Y86878275D01*
X41470101Y86878275D02*
X41514611Y86700233D01*
X41514611Y86700233D02*
X41559122Y86611212D01*
X41559122Y86611212D02*
X41603632Y86566702D01*
X41603632Y86566702D02*
X41692653Y86522191D01*
X41692653Y86522191D02*
X41781674Y86522191D01*
X41781674Y86522191D02*
X41870695Y86566702D01*
X41870695Y86566702D02*
X41915206Y86611212D01*
X41915206Y86611212D02*
X41959716Y86700233D01*
X41959716Y86700233D02*
X41959716Y86922786D01*
X41959716Y86922786D02*
X41915206Y87056317D01*
X41959716Y87323380D02*
X41959716Y87857506D01*
X41024996Y87590443D02*
X41959716Y87590443D01*
X21659716Y85453940D02*
X21659716Y85988066D01*
X20724996Y85721003D02*
X21659716Y85721003D01*
X20814017Y86833766D02*
X20769507Y86789255D01*
X20769507Y86789255D02*
X20724996Y86655724D01*
X20724996Y86655724D02*
X20724996Y86566703D01*
X20724996Y86566703D02*
X20769507Y86433171D01*
X20769507Y86433171D02*
X20858527Y86344150D01*
X20858527Y86344150D02*
X20947548Y86299640D01*
X20947548Y86299640D02*
X21125590Y86255129D01*
X21125590Y86255129D02*
X21259122Y86255129D01*
X21259122Y86255129D02*
X21437164Y86299640D01*
X21437164Y86299640D02*
X21526185Y86344150D01*
X21526185Y86344150D02*
X21615206Y86433171D01*
X21615206Y86433171D02*
X21659716Y86566703D01*
X21659716Y86566703D02*
X21659716Y86655724D01*
X21659716Y86655724D02*
X21615206Y86789255D01*
X21615206Y86789255D02*
X21570695Y86833766D01*
X20724996Y87234360D02*
X21659716Y87234360D01*
X20724996Y87768486D02*
X21259122Y87367891D01*
X21659716Y87768486D02*
X21125590Y87234360D01*
X110723974Y58874703D02*
X110011807Y58874703D01*
X110367890Y58518619D02*
X110367890Y59230787D01*
X109077087Y58518619D02*
X109611213Y58518619D01*
X109344150Y58518619D02*
X109344150Y59453339D01*
X109344150Y59453339D02*
X109433171Y59319808D01*
X109433171Y59319808D02*
X109522192Y59230787D01*
X109522192Y59230787D02*
X109611213Y59186276D01*
X108810024Y59453339D02*
X108498450Y58518619D01*
X108498450Y58518619D02*
X108186877Y59453339D01*
X107741772Y59052745D02*
X107830793Y59097255D01*
X107830793Y59097255D02*
X107875303Y59141766D01*
X107875303Y59141766D02*
X107919814Y59230787D01*
X107919814Y59230787D02*
X107919814Y59275297D01*
X107919814Y59275297D02*
X107875303Y59364318D01*
X107875303Y59364318D02*
X107830793Y59408829D01*
X107830793Y59408829D02*
X107741772Y59453339D01*
X107741772Y59453339D02*
X107563730Y59453339D01*
X107563730Y59453339D02*
X107474709Y59408829D01*
X107474709Y59408829D02*
X107430198Y59364318D01*
X107430198Y59364318D02*
X107385688Y59275297D01*
X107385688Y59275297D02*
X107385688Y59230787D01*
X107385688Y59230787D02*
X107430198Y59141766D01*
X107430198Y59141766D02*
X107474709Y59097255D01*
X107474709Y59097255D02*
X107563730Y59052745D01*
X107563730Y59052745D02*
X107741772Y59052745D01*
X107741772Y59052745D02*
X107830793Y59008234D01*
X107830793Y59008234D02*
X107875303Y58963724D01*
X107875303Y58963724D02*
X107919814Y58874703D01*
X107919814Y58874703D02*
X107919814Y58696661D01*
X107919814Y58696661D02*
X107875303Y58607640D01*
X107875303Y58607640D02*
X107830793Y58563129D01*
X107830793Y58563129D02*
X107741772Y58518619D01*
X107741772Y58518619D02*
X107563730Y58518619D01*
X107563730Y58518619D02*
X107474709Y58563129D01*
X107474709Y58563129D02*
X107430198Y58607640D01*
X107430198Y58607640D02*
X107385688Y58696661D01*
X107385688Y58696661D02*
X107385688Y58874703D01*
X107385688Y58874703D02*
X107430198Y58963724D01*
X107430198Y58963724D02*
X107474709Y59008234D01*
X107474709Y59008234D02*
X107563730Y59052745D01*
D11*
X11293743Y428663D02*
X12929503Y428663D01*
X12929503Y428663D02*
X12929503Y1051810D01*
X12929503Y1051810D02*
X12851610Y1207596D01*
X12851610Y1207596D02*
X12773717Y1285490D01*
X12773717Y1285490D02*
X12617930Y1363383D01*
X12617930Y1363383D02*
X12384250Y1363383D01*
X12384250Y1363383D02*
X12228463Y1285490D01*
X12228463Y1285490D02*
X12150570Y1207596D01*
X12150570Y1207596D02*
X12072677Y1051810D01*
X12072677Y1051810D02*
X12072677Y428663D01*
X11293743Y2298103D02*
X11371637Y2142316D01*
X11371637Y2142316D02*
X11449530Y2064423D01*
X11449530Y2064423D02*
X11605317Y1986530D01*
X11605317Y1986530D02*
X12072677Y1986530D01*
X12072677Y1986530D02*
X12228463Y2064423D01*
X12228463Y2064423D02*
X12306357Y2142316D01*
X12306357Y2142316D02*
X12384250Y2298103D01*
X12384250Y2298103D02*
X12384250Y2531783D01*
X12384250Y2531783D02*
X12306357Y2687570D01*
X12306357Y2687570D02*
X12228463Y2765463D01*
X12228463Y2765463D02*
X12072677Y2843356D01*
X12072677Y2843356D02*
X11605317Y2843356D01*
X11605317Y2843356D02*
X11449530Y2765463D01*
X11449530Y2765463D02*
X11371637Y2687570D01*
X11371637Y2687570D02*
X11293743Y2531783D01*
X11293743Y2531783D02*
X11293743Y2298103D01*
X11293743Y3544396D02*
X12384250Y3544396D01*
X12072677Y3544396D02*
X12228463Y3622289D01*
X12228463Y3622289D02*
X12306357Y3700183D01*
X12306357Y3700183D02*
X12384250Y3855969D01*
X12384250Y3855969D02*
X12384250Y4011756D01*
X12384250Y4323329D02*
X12384250Y4946476D01*
X12929503Y4557009D02*
X11527423Y4557009D01*
X11527423Y4557009D02*
X11371637Y4634902D01*
X11371637Y4634902D02*
X11293743Y4790689D01*
X11293743Y4790689D02*
X11293743Y4946476D01*
X11293743Y7594849D02*
X11293743Y6660129D01*
X11293743Y7127489D02*
X12929503Y7127489D01*
X12929503Y7127489D02*
X12695823Y6971702D01*
X12695823Y6971702D02*
X12540037Y6815915D01*
X12540037Y6815915D02*
X12462143Y6660129D01*
D10*
X76723974Y53574703D02*
X76011807Y53574703D01*
X76367890Y53218619D02*
X76367890Y53930787D01*
X75655723Y54153339D02*
X75077087Y54153339D01*
X75077087Y54153339D02*
X75388660Y53797255D01*
X75388660Y53797255D02*
X75255129Y53797255D01*
X75255129Y53797255D02*
X75166108Y53752745D01*
X75166108Y53752745D02*
X75121597Y53708234D01*
X75121597Y53708234D02*
X75077087Y53619213D01*
X75077087Y53619213D02*
X75077087Y53396661D01*
X75077087Y53396661D02*
X75121597Y53307640D01*
X75121597Y53307640D02*
X75166108Y53263129D01*
X75166108Y53263129D02*
X75255129Y53218619D01*
X75255129Y53218619D02*
X75522192Y53218619D01*
X75522192Y53218619D02*
X75611213Y53263129D01*
X75611213Y53263129D02*
X75655723Y53307640D01*
X74810024Y54153339D02*
X74498450Y53218619D01*
X74498450Y53218619D02*
X74186877Y54153339D01*
X73964324Y54153339D02*
X73385688Y54153339D01*
X73385688Y54153339D02*
X73697261Y53797255D01*
X73697261Y53797255D02*
X73563730Y53797255D01*
X73563730Y53797255D02*
X73474709Y53752745D01*
X73474709Y53752745D02*
X73430198Y53708234D01*
X73430198Y53708234D02*
X73385688Y53619213D01*
X73385688Y53619213D02*
X73385688Y53396661D01*
X73385688Y53396661D02*
X73430198Y53307640D01*
X73430198Y53307640D02*
X73474709Y53263129D01*
X73474709Y53263129D02*
X73563730Y53218619D01*
X73563730Y53218619D02*
X73830793Y53218619D01*
X73830793Y53218619D02*
X73919814Y53263129D01*
X73919814Y53263129D02*
X73964324Y53307640D01*
X90079591Y57881081D02*
X89367424Y57881081D01*
X89723507Y57524997D02*
X89723507Y58237165D01*
X88477214Y58459717D02*
X88922319Y58459717D01*
X88922319Y58459717D02*
X88966830Y58014612D01*
X88966830Y58014612D02*
X88922319Y58059123D01*
X88922319Y58059123D02*
X88833298Y58103633D01*
X88833298Y58103633D02*
X88610746Y58103633D01*
X88610746Y58103633D02*
X88521725Y58059123D01*
X88521725Y58059123D02*
X88477214Y58014612D01*
X88477214Y58014612D02*
X88432704Y57925591D01*
X88432704Y57925591D02*
X88432704Y57703039D01*
X88432704Y57703039D02*
X88477214Y57614018D01*
X88477214Y57614018D02*
X88521725Y57569507D01*
X88521725Y57569507D02*
X88610746Y57524997D01*
X88610746Y57524997D02*
X88833298Y57524997D01*
X88833298Y57524997D02*
X88922319Y57569507D01*
X88922319Y57569507D02*
X88966830Y57614018D01*
X88165641Y58459717D02*
X87854067Y57524997D01*
X87854067Y57524997D02*
X87542494Y58459717D01*
X71423974Y55174703D02*
X70711807Y55174703D01*
X71067890Y54818619D02*
X71067890Y55530787D01*
X70355723Y55753339D02*
X69777087Y55753339D01*
X69777087Y55753339D02*
X70088660Y55397255D01*
X70088660Y55397255D02*
X69955129Y55397255D01*
X69955129Y55397255D02*
X69866108Y55352745D01*
X69866108Y55352745D02*
X69821597Y55308234D01*
X69821597Y55308234D02*
X69777087Y55219213D01*
X69777087Y55219213D02*
X69777087Y54996661D01*
X69777087Y54996661D02*
X69821597Y54907640D01*
X69821597Y54907640D02*
X69866108Y54863129D01*
X69866108Y54863129D02*
X69955129Y54818619D01*
X69955129Y54818619D02*
X70222192Y54818619D01*
X70222192Y54818619D02*
X70311213Y54863129D01*
X70311213Y54863129D02*
X70355723Y54907640D01*
X69510024Y55753339D02*
X69198450Y54818619D01*
X69198450Y54818619D02*
X68886877Y55753339D01*
X68664324Y55753339D02*
X68085688Y55753339D01*
X68085688Y55753339D02*
X68397261Y55397255D01*
X68397261Y55397255D02*
X68263730Y55397255D01*
X68263730Y55397255D02*
X68174709Y55352745D01*
X68174709Y55352745D02*
X68130198Y55308234D01*
X68130198Y55308234D02*
X68085688Y55219213D01*
X68085688Y55219213D02*
X68085688Y54996661D01*
X68085688Y54996661D02*
X68130198Y54907640D01*
X68130198Y54907640D02*
X68174709Y54863129D01*
X68174709Y54863129D02*
X68263730Y54818619D01*
X68263730Y54818619D02*
X68530793Y54818619D01*
X68530793Y54818619D02*
X68619814Y54863129D01*
X68619814Y54863129D02*
X68664324Y54907640D01*
X31723974Y59974703D02*
X31011807Y59974703D01*
X31367890Y59618619D02*
X31367890Y60330787D01*
X30166108Y60553339D02*
X30344150Y60553339D01*
X30344150Y60553339D02*
X30433171Y60508829D01*
X30433171Y60508829D02*
X30477681Y60464318D01*
X30477681Y60464318D02*
X30566702Y60330787D01*
X30566702Y60330787D02*
X30611213Y60152745D01*
X30611213Y60152745D02*
X30611213Y59796661D01*
X30611213Y59796661D02*
X30566702Y59707640D01*
X30566702Y59707640D02*
X30522192Y59663129D01*
X30522192Y59663129D02*
X30433171Y59618619D01*
X30433171Y59618619D02*
X30255129Y59618619D01*
X30255129Y59618619D02*
X30166108Y59663129D01*
X30166108Y59663129D02*
X30121597Y59707640D01*
X30121597Y59707640D02*
X30077087Y59796661D01*
X30077087Y59796661D02*
X30077087Y60019213D01*
X30077087Y60019213D02*
X30121597Y60108234D01*
X30121597Y60108234D02*
X30166108Y60152745D01*
X30166108Y60152745D02*
X30255129Y60197255D01*
X30255129Y60197255D02*
X30433171Y60197255D01*
X30433171Y60197255D02*
X30522192Y60152745D01*
X30522192Y60152745D02*
X30566702Y60108234D01*
X30566702Y60108234D02*
X30611213Y60019213D01*
X29810024Y60553339D02*
X29498450Y59618619D01*
X29498450Y59618619D02*
X29186877Y60553339D01*
X26759716Y85943555D02*
X26759716Y86477681D01*
X25824996Y86210618D02*
X26759716Y86210618D01*
X25824996Y86789255D02*
X26759716Y86789255D01*
X26759716Y86789255D02*
X26759716Y87011807D01*
X26759716Y87011807D02*
X26715206Y87145339D01*
X26715206Y87145339D02*
X26626185Y87234360D01*
X26626185Y87234360D02*
X26537164Y87278870D01*
X26537164Y87278870D02*
X26359122Y87323381D01*
X26359122Y87323381D02*
X26225590Y87323381D01*
X26225590Y87323381D02*
X26047548Y87278870D01*
X26047548Y87278870D02*
X25958527Y87234360D01*
X25958527Y87234360D02*
X25869507Y87145339D01*
X25869507Y87145339D02*
X25824996Y87011807D01*
X25824996Y87011807D02*
X25824996Y86789255D01*
X25824996Y87723975D02*
X26759716Y87723975D01*
X31381080Y84430199D02*
X31381080Y85142366D01*
X31024996Y84786283D02*
X31737164Y84786283D01*
X31959716Y85498450D02*
X31959716Y86077086D01*
X31959716Y86077086D02*
X31603632Y85765513D01*
X31603632Y85765513D02*
X31603632Y85899044D01*
X31603632Y85899044D02*
X31559122Y85988065D01*
X31559122Y85988065D02*
X31514611Y86032576D01*
X31514611Y86032576D02*
X31425590Y86077086D01*
X31425590Y86077086D02*
X31203038Y86077086D01*
X31203038Y86077086D02*
X31114017Y86032576D01*
X31114017Y86032576D02*
X31069507Y85988065D01*
X31069507Y85988065D02*
X31024996Y85899044D01*
X31024996Y85899044D02*
X31024996Y85631981D01*
X31024996Y85631981D02*
X31069507Y85542960D01*
X31069507Y85542960D02*
X31114017Y85498450D01*
X31959716Y86344149D02*
X31024996Y86655723D01*
X31024996Y86655723D02*
X31959716Y86967296D01*
X31959716Y87189849D02*
X31959716Y87768485D01*
X31959716Y87768485D02*
X31603632Y87456912D01*
X31603632Y87456912D02*
X31603632Y87590443D01*
X31603632Y87590443D02*
X31559122Y87679464D01*
X31559122Y87679464D02*
X31514611Y87723975D01*
X31514611Y87723975D02*
X31425590Y87768485D01*
X31425590Y87768485D02*
X31203038Y87768485D01*
X31203038Y87768485D02*
X31114017Y87723975D01*
X31114017Y87723975D02*
X31069507Y87679464D01*
X31069507Y87679464D02*
X31024996Y87590443D01*
X31024996Y87590443D02*
X31024996Y87323380D01*
X31024996Y87323380D02*
X31069507Y87234359D01*
X31069507Y87234359D02*
X31114017Y87189849D01*
X24259716Y85409430D02*
X24259716Y85943556D01*
X23324996Y85676493D02*
X24259716Y85676493D01*
X23324996Y86255130D02*
X24259716Y86255130D01*
X24259716Y86255130D02*
X24259716Y86477682D01*
X24259716Y86477682D02*
X24215206Y86611214D01*
X24215206Y86611214D02*
X24126185Y86700235D01*
X24126185Y86700235D02*
X24037164Y86744745D01*
X24037164Y86744745D02*
X23859122Y86789256D01*
X23859122Y86789256D02*
X23725590Y86789256D01*
X23725590Y86789256D02*
X23547548Y86744745D01*
X23547548Y86744745D02*
X23458527Y86700235D01*
X23458527Y86700235D02*
X23369507Y86611214D01*
X23369507Y86611214D02*
X23324996Y86477682D01*
X23324996Y86477682D02*
X23324996Y86255130D01*
X24259716Y87367892D02*
X24259716Y87545934D01*
X24259716Y87545934D02*
X24215206Y87634955D01*
X24215206Y87634955D02*
X24126185Y87723976D01*
X24126185Y87723976D02*
X23948143Y87768486D01*
X23948143Y87768486D02*
X23636569Y87768486D01*
X23636569Y87768486D02*
X23458527Y87723976D01*
X23458527Y87723976D02*
X23369507Y87634955D01*
X23369507Y87634955D02*
X23324996Y87545934D01*
X23324996Y87545934D02*
X23324996Y87367892D01*
X23324996Y87367892D02*
X23369507Y87278871D01*
X23369507Y87278871D02*
X23458527Y87189850D01*
X23458527Y87189850D02*
X23636569Y87145339D01*
X23636569Y87145339D02*
X23948143Y87145339D01*
X23948143Y87145339D02*
X24126185Y87189850D01*
X24126185Y87189850D02*
X24215206Y87278871D01*
X24215206Y87278871D02*
X24259716Y87367892D01*
X19974702Y36276026D02*
X19974702Y36988193D01*
X19618618Y36632110D02*
X20330786Y36632110D01*
X20553338Y37878403D02*
X20553338Y37433298D01*
X20553338Y37433298D02*
X20108233Y37388787D01*
X20108233Y37388787D02*
X20152744Y37433298D01*
X20152744Y37433298D02*
X20197254Y37522319D01*
X20197254Y37522319D02*
X20197254Y37744871D01*
X20197254Y37744871D02*
X20152744Y37833892D01*
X20152744Y37833892D02*
X20108233Y37878403D01*
X20108233Y37878403D02*
X20019212Y37922913D01*
X20019212Y37922913D02*
X19796660Y37922913D01*
X19796660Y37922913D02*
X19707639Y37878403D01*
X19707639Y37878403D02*
X19663129Y37833892D01*
X19663129Y37833892D02*
X19618618Y37744871D01*
X19618618Y37744871D02*
X19618618Y37522319D01*
X19618618Y37522319D02*
X19663129Y37433298D01*
X19663129Y37433298D02*
X19707639Y37388787D01*
X20553338Y38189976D02*
X19618618Y38501550D01*
X19618618Y38501550D02*
X20553338Y38813123D01*
X89573974Y19349703D02*
X88861807Y19349703D01*
X89217890Y18993619D02*
X89217890Y19705787D01*
X88505723Y19928339D02*
X87927087Y19928339D01*
X87927087Y19928339D02*
X88238660Y19572255D01*
X88238660Y19572255D02*
X88105129Y19572255D01*
X88105129Y19572255D02*
X88016108Y19527745D01*
X88016108Y19527745D02*
X87971597Y19483234D01*
X87971597Y19483234D02*
X87927087Y19394213D01*
X87927087Y19394213D02*
X87927087Y19171661D01*
X87927087Y19171661D02*
X87971597Y19082640D01*
X87971597Y19082640D02*
X88016108Y19038129D01*
X88016108Y19038129D02*
X88105129Y18993619D01*
X88105129Y18993619D02*
X88372192Y18993619D01*
X88372192Y18993619D02*
X88461213Y19038129D01*
X88461213Y19038129D02*
X88505723Y19082640D01*
X87660024Y19928339D02*
X87348450Y18993619D01*
X87348450Y18993619D02*
X87036877Y19928339D01*
X86814324Y19928339D02*
X86235688Y19928339D01*
X86235688Y19928339D02*
X86547261Y19572255D01*
X86547261Y19572255D02*
X86413730Y19572255D01*
X86413730Y19572255D02*
X86324709Y19527745D01*
X86324709Y19527745D02*
X86280198Y19483234D01*
X86280198Y19483234D02*
X86235688Y19394213D01*
X86235688Y19394213D02*
X86235688Y19171661D01*
X86235688Y19171661D02*
X86280198Y19082640D01*
X86280198Y19082640D02*
X86324709Y19038129D01*
X86324709Y19038129D02*
X86413730Y18993619D01*
X86413730Y18993619D02*
X86680793Y18993619D01*
X86680793Y18993619D02*
X86769814Y19038129D01*
X86769814Y19038129D02*
X86814324Y19082640D01*
X36381080Y38320409D02*
X36381080Y39032576D01*
X36024996Y38676493D02*
X36737164Y38676493D01*
X36959716Y39922786D02*
X36959716Y39477681D01*
X36959716Y39477681D02*
X36514611Y39433170D01*
X36514611Y39433170D02*
X36559122Y39477681D01*
X36559122Y39477681D02*
X36603632Y39566702D01*
X36603632Y39566702D02*
X36603632Y39789254D01*
X36603632Y39789254D02*
X36559122Y39878275D01*
X36559122Y39878275D02*
X36514611Y39922786D01*
X36514611Y39922786D02*
X36425590Y39967296D01*
X36425590Y39967296D02*
X36203038Y39967296D01*
X36203038Y39967296D02*
X36114017Y39922786D01*
X36114017Y39922786D02*
X36069507Y39878275D01*
X36069507Y39878275D02*
X36024996Y39789254D01*
X36024996Y39789254D02*
X36024996Y39566702D01*
X36024996Y39566702D02*
X36069507Y39477681D01*
X36069507Y39477681D02*
X36114017Y39433170D01*
X36959716Y40234359D02*
X36024996Y40545933D01*
X36024996Y40545933D02*
X36959716Y40857506D01*
X88034359Y52408829D02*
X88123380Y52453339D01*
X88123380Y52453339D02*
X88256911Y52453339D01*
X88256911Y52453339D02*
X88390443Y52408829D01*
X88390443Y52408829D02*
X88479464Y52319808D01*
X88479464Y52319808D02*
X88523974Y52230787D01*
X88523974Y52230787D02*
X88568485Y52052745D01*
X88568485Y52052745D02*
X88568485Y51919213D01*
X88568485Y51919213D02*
X88523974Y51741171D01*
X88523974Y51741171D02*
X88479464Y51652150D01*
X88479464Y51652150D02*
X88390443Y51563129D01*
X88390443Y51563129D02*
X88256911Y51518619D01*
X88256911Y51518619D02*
X88167890Y51518619D01*
X88167890Y51518619D02*
X88034359Y51563129D01*
X88034359Y51563129D02*
X87989848Y51607640D01*
X87989848Y51607640D02*
X87989848Y51919213D01*
X87989848Y51919213D02*
X88167890Y51919213D01*
X87589254Y51518619D02*
X87589254Y52453339D01*
X87589254Y52453339D02*
X87055128Y51518619D01*
X87055128Y51518619D02*
X87055128Y52453339D01*
X86610024Y51518619D02*
X86610024Y52453339D01*
X86610024Y52453339D02*
X86387472Y52453339D01*
X86387472Y52453339D02*
X86253940Y52408829D01*
X86253940Y52408829D02*
X86164919Y52319808D01*
X86164919Y52319808D02*
X86120409Y52230787D01*
X86120409Y52230787D02*
X86075898Y52052745D01*
X86075898Y52052745D02*
X86075898Y51919213D01*
X86075898Y51919213D02*
X86120409Y51741171D01*
X86120409Y51741171D02*
X86164919Y51652150D01*
X86164919Y51652150D02*
X86253940Y51563129D01*
X86253940Y51563129D02*
X86387472Y51518619D01*
X86387472Y51518619D02*
X86610024Y51518619D01*
D11*
X109293743Y428663D02*
X110929503Y428663D01*
X110929503Y428663D02*
X110929503Y1051810D01*
X110929503Y1051810D02*
X110851610Y1207596D01*
X110851610Y1207596D02*
X110773717Y1285490D01*
X110773717Y1285490D02*
X110617930Y1363383D01*
X110617930Y1363383D02*
X110384250Y1363383D01*
X110384250Y1363383D02*
X110228463Y1285490D01*
X110228463Y1285490D02*
X110150570Y1207596D01*
X110150570Y1207596D02*
X110072677Y1051810D01*
X110072677Y1051810D02*
X110072677Y428663D01*
X109293743Y2298103D02*
X109371637Y2142316D01*
X109371637Y2142316D02*
X109449530Y2064423D01*
X109449530Y2064423D02*
X109605317Y1986530D01*
X109605317Y1986530D02*
X110072677Y1986530D01*
X110072677Y1986530D02*
X110228463Y2064423D01*
X110228463Y2064423D02*
X110306357Y2142316D01*
X110306357Y2142316D02*
X110384250Y2298103D01*
X110384250Y2298103D02*
X110384250Y2531783D01*
X110384250Y2531783D02*
X110306357Y2687570D01*
X110306357Y2687570D02*
X110228463Y2765463D01*
X110228463Y2765463D02*
X110072677Y2843356D01*
X110072677Y2843356D02*
X109605317Y2843356D01*
X109605317Y2843356D02*
X109449530Y2765463D01*
X109449530Y2765463D02*
X109371637Y2687570D01*
X109371637Y2687570D02*
X109293743Y2531783D01*
X109293743Y2531783D02*
X109293743Y2298103D01*
X109293743Y3544396D02*
X110384250Y3544396D01*
X110072677Y3544396D02*
X110228463Y3622289D01*
X110228463Y3622289D02*
X110306357Y3700183D01*
X110306357Y3700183D02*
X110384250Y3855969D01*
X110384250Y3855969D02*
X110384250Y4011756D01*
X110384250Y4323329D02*
X110384250Y4946476D01*
X110929503Y4557009D02*
X109527423Y4557009D01*
X109527423Y4557009D02*
X109371637Y4634902D01*
X109371637Y4634902D02*
X109293743Y4790689D01*
X109293743Y4790689D02*
X109293743Y4946476D01*
X110773717Y6660129D02*
X110851610Y6738022D01*
X110851610Y6738022D02*
X110929503Y6893809D01*
X110929503Y6893809D02*
X110929503Y7283275D01*
X110929503Y7283275D02*
X110851610Y7439062D01*
X110851610Y7439062D02*
X110773717Y7516955D01*
X110773717Y7516955D02*
X110617930Y7594849D01*
X110617930Y7594849D02*
X110462143Y7594849D01*
X110462143Y7594849D02*
X110228463Y7516955D01*
X110228463Y7516955D02*
X109293743Y6582235D01*
X109293743Y6582235D02*
X109293743Y7594849D01*
D10*
X4781080Y47830199D02*
X4781080Y48542366D01*
X4424996Y48186283D02*
X5137164Y48186283D01*
X4424996Y49477086D02*
X4424996Y48942960D01*
X4424996Y49210023D02*
X5359716Y49210023D01*
X5359716Y49210023D02*
X5226185Y49121002D01*
X5226185Y49121002D02*
X5137164Y49031981D01*
X5137164Y49031981D02*
X5092653Y48942960D01*
X5359716Y49744149D02*
X4424996Y50055723D01*
X4424996Y50055723D02*
X5359716Y50367296D01*
X4959122Y50812401D02*
X5003632Y50723380D01*
X5003632Y50723380D02*
X5048143Y50678870D01*
X5048143Y50678870D02*
X5137164Y50634359D01*
X5137164Y50634359D02*
X5181674Y50634359D01*
X5181674Y50634359D02*
X5270695Y50678870D01*
X5270695Y50678870D02*
X5315206Y50723380D01*
X5315206Y50723380D02*
X5359716Y50812401D01*
X5359716Y50812401D02*
X5359716Y50990443D01*
X5359716Y50990443D02*
X5315206Y51079464D01*
X5315206Y51079464D02*
X5270695Y51123975D01*
X5270695Y51123975D02*
X5181674Y51168485D01*
X5181674Y51168485D02*
X5137164Y51168485D01*
X5137164Y51168485D02*
X5048143Y51123975D01*
X5048143Y51123975D02*
X5003632Y51079464D01*
X5003632Y51079464D02*
X4959122Y50990443D01*
X4959122Y50990443D02*
X4959122Y50812401D01*
X4959122Y50812401D02*
X4914611Y50723380D01*
X4914611Y50723380D02*
X4870101Y50678870D01*
X4870101Y50678870D02*
X4781080Y50634359D01*
X4781080Y50634359D02*
X4603038Y50634359D01*
X4603038Y50634359D02*
X4514017Y50678870D01*
X4514017Y50678870D02*
X4469507Y50723380D01*
X4469507Y50723380D02*
X4424996Y50812401D01*
X4424996Y50812401D02*
X4424996Y50990443D01*
X4424996Y50990443D02*
X4469507Y51079464D01*
X4469507Y51079464D02*
X4514017Y51123975D01*
X4514017Y51123975D02*
X4603038Y51168485D01*
X4603038Y51168485D02*
X4781080Y51168485D01*
X4781080Y51168485D02*
X4870101Y51123975D01*
X4870101Y51123975D02*
X4914611Y51079464D01*
X4914611Y51079464D02*
X4959122Y50990443D01*
X105334359Y53408829D02*
X105423380Y53453339D01*
X105423380Y53453339D02*
X105556911Y53453339D01*
X105556911Y53453339D02*
X105690443Y53408829D01*
X105690443Y53408829D02*
X105779464Y53319808D01*
X105779464Y53319808D02*
X105823974Y53230787D01*
X105823974Y53230787D02*
X105868485Y53052745D01*
X105868485Y53052745D02*
X105868485Y52919213D01*
X105868485Y52919213D02*
X105823974Y52741171D01*
X105823974Y52741171D02*
X105779464Y52652150D01*
X105779464Y52652150D02*
X105690443Y52563129D01*
X105690443Y52563129D02*
X105556911Y52518619D01*
X105556911Y52518619D02*
X105467890Y52518619D01*
X105467890Y52518619D02*
X105334359Y52563129D01*
X105334359Y52563129D02*
X105289848Y52607640D01*
X105289848Y52607640D02*
X105289848Y52919213D01*
X105289848Y52919213D02*
X105467890Y52919213D01*
X104889254Y52518619D02*
X104889254Y53453339D01*
X104889254Y53453339D02*
X104355128Y52518619D01*
X104355128Y52518619D02*
X104355128Y53453339D01*
X103910024Y52518619D02*
X103910024Y53453339D01*
X103910024Y53453339D02*
X103687472Y53453339D01*
X103687472Y53453339D02*
X103553940Y53408829D01*
X103553940Y53408829D02*
X103464919Y53319808D01*
X103464919Y53319808D02*
X103420409Y53230787D01*
X103420409Y53230787D02*
X103375898Y53052745D01*
X103375898Y53052745D02*
X103375898Y52919213D01*
X103375898Y52919213D02*
X103420409Y52741171D01*
X103420409Y52741171D02*
X103464919Y52652150D01*
X103464919Y52652150D02*
X103553940Y52563129D01*
X103553940Y52563129D02*
X103687472Y52518619D01*
X103687472Y52518619D02*
X103910024Y52518619D01*
%LPC*%
D12*
X100018900Y92993600D02*
X106018900Y92993600D01*
X106018900Y95993600D01*
X100018900Y95993600D01*
X100018900Y92993600D01*
G36*
X100018900Y92993600D02*
G01*
X106018900Y92993600D01*
X106018900Y95993600D01*
X100018900Y95993600D01*
X100018900Y92993600D01*
G37*
X90018900Y92993600D02*
X81018900Y92993600D01*
X7018900Y92993600D01*
X6238539Y92916741D01*
X5857761Y92821361D01*
X5488166Y92689118D01*
X5133313Y92521285D01*
X4796619Y92319478D01*
X4481327Y92085642D01*
X4190473Y91822027D01*
X3926858Y91531173D01*
X3693022Y91215881D01*
X3491215Y90879187D01*
X3323382Y90524334D01*
X3191139Y90154739D01*
X3095759Y89773961D01*
X3038161Y89385669D01*
X3018900Y88993600D01*
X3018900Y61993600D01*
X3039257Y61708970D01*
X3099914Y61430135D01*
X3199636Y61162770D01*
X3336393Y60912318D01*
X3507401Y60683879D01*
X3709179Y60482101D01*
X3937618Y60311093D01*
X4188070Y60174336D01*
X4455435Y60074614D01*
X4734270Y60013957D01*
X5018900Y59993600D01*
X9018900Y59993600D01*
X11018900Y59993600D01*
X12556292Y60017720D01*
X13323765Y59968267D01*
X14087508Y59877955D01*
X14845347Y59747040D01*
X15595127Y59575895D01*
X16334712Y59365008D01*
X17061998Y59114978D01*
X17774915Y58826517D01*
X18471433Y58500446D01*
X19149570Y58137693D01*
X19807397Y57739292D01*
X20443040Y57306374D01*
X21054691Y56840173D01*
X21640608Y56342016D01*
X22199125Y55813321D01*
X22728651Y55255592D01*
X23227679Y54670416D01*
X23694789Y54059459D01*
X24128652Y53424461D01*
X24528032Y52767228D01*
X24891794Y52089631D01*
X25218900Y51393599D01*
X25218900Y51393600D01*
X25266350Y51292325D01*
X25318900Y51193600D01*
X25456272Y50993945D01*
X25626485Y50821431D01*
X25824278Y50681391D01*
X26043537Y50578151D01*
X26277488Y50514902D01*
X26518899Y50493600D01*
X26518900Y50493600D01*
X40318900Y50493600D01*
X40642700Y50505125D01*
X40962321Y50558238D01*
X41272446Y50652055D01*
X41567913Y50785015D01*
X41843804Y50954905D01*
X42095530Y51158899D01*
X42318900Y51393600D01*
X42735682Y51861805D01*
X43180884Y52303074D01*
X43652770Y52715684D01*
X44149496Y53098027D01*
X44669125Y53448611D01*
X45209629Y53766067D01*
X45659143Y53993600D01*
X62018900Y53993600D01*
X62018900Y51993600D01*
X62018900Y46993600D01*
X62095759Y46213239D01*
X62191139Y45832461D01*
X62323382Y45462866D01*
X62491215Y45108013D01*
X62693022Y44771319D01*
X62926858Y44456027D01*
X63190473Y44165173D01*
X63481327Y43901558D01*
X63796619Y43667722D01*
X64133313Y43465915D01*
X64488166Y43298082D01*
X64857761Y43165839D01*
X65238539Y43070459D01*
X65626831Y43012861D01*
X66018900Y42993600D01*
X75018900Y42993600D01*
X75303530Y43013957D01*
X75582365Y43074614D01*
X75849730Y43174336D01*
X76100182Y43311093D01*
X76328621Y43482101D01*
X76530399Y43683879D01*
X76701407Y43912318D01*
X76838164Y44162770D01*
X76937886Y44430135D01*
X76998543Y44708970D01*
X77018900Y44993600D01*
X77037927Y45429379D01*
X77094861Y45861841D01*
X77189271Y46287695D01*
X77320437Y46703701D01*
X77487361Y47106691D01*
X77688773Y47493600D01*
X77923140Y47861482D01*
X78188678Y48207538D01*
X78483366Y48529134D01*
X78804962Y48823822D01*
X79151018Y49089360D01*
X79518900Y49323727D01*
X79905809Y49525139D01*
X80308799Y49692063D01*
X80724805Y49823229D01*
X81150659Y49917639D01*
X81583121Y49974573D01*
X82018900Y49993600D01*
X95018900Y49993600D01*
X95303530Y50013957D01*
X95582365Y50074614D01*
X95849730Y50174336D01*
X96100182Y50311093D01*
X96328621Y50482101D01*
X96530399Y50683879D01*
X96701407Y50912318D01*
X96838164Y51162770D01*
X96937886Y51430135D01*
X96998543Y51708970D01*
X97018900Y51993600D01*
X97018900Y57993600D01*
X96998543Y58278230D01*
X96937886Y58557065D01*
X96838164Y58824430D01*
X96701407Y59074882D01*
X96530399Y59303321D01*
X96328621Y59505099D01*
X96100182Y59676107D01*
X95849730Y59812864D01*
X95582365Y59912586D01*
X95303530Y59973243D01*
X95018900Y59993600D01*
X75018900Y59993600D01*
X68018900Y59993600D01*
X67523424Y59973107D01*
X67031332Y59911768D01*
X66545987Y59810002D01*
X66070703Y59668503D01*
X65608727Y59488240D01*
X65163216Y59270443D01*
X64737211Y59016599D01*
X64333624Y58728443D01*
X63955211Y58407943D01*
X63604557Y58057289D01*
X63284057Y57678876D01*
X62995901Y57275289D01*
X62742057Y56849284D01*
X62524260Y56403773D01*
X62343997Y55941797D01*
X62202498Y55466513D01*
X62100732Y54981168D01*
X62039393Y54489076D01*
X62018900Y53993600D01*
X45659143Y53993600D01*
X45768900Y54049156D01*
X46344754Y54296774D01*
X46934946Y54507955D01*
X47537171Y54681875D01*
X48149080Y54817855D01*
X48768285Y54915364D01*
X49392370Y54974022D01*
X50018900Y54993600D01*
X57018900Y54993600D01*
X57570205Y54986671D01*
X57841431Y55039476D01*
X58102943Y55128716D01*
X58349870Y55252728D01*
X58577614Y55409203D01*
X58781934Y55595228D01*
X58959026Y55807337D01*
X59105591Y56041582D01*
X59218900Y56293600D01*
X59518900Y57093600D01*
X59751478Y57651519D01*
X60018900Y58193600D01*
X60666497Y59232273D01*
X61041383Y59716468D01*
X61448097Y60174253D01*
X61884784Y60603540D01*
X62349453Y61002371D01*
X62839983Y61368927D01*
X63354138Y61701536D01*
X63889572Y61998680D01*
X64443841Y62259004D01*
X65014419Y62481321D01*
X65598702Y62664616D01*
X66194025Y62808053D01*
X66527802Y62864963D01*
X66797672Y62910977D01*
X67406890Y62972921D01*
X68018900Y62993600D01*
X75018900Y62993600D01*
X92018900Y62993600D01*
X92503391Y63012923D01*
X92984804Y63070771D01*
X93460081Y63166777D01*
X93926202Y63300330D01*
X94380206Y63470581D01*
X94819208Y63676450D01*
X95240421Y63916628D01*
X95641166Y64189589D01*
X96018900Y64493600D01*
X96797379Y65070572D01*
X97218592Y65310750D01*
X97657594Y65516618D01*
X98111598Y65686870D01*
X98577719Y65820423D01*
X99052996Y65916428D01*
X99534409Y65974276D01*
X100018900Y65993600D01*
X117018900Y65993600D01*
X117303530Y66013957D01*
X117582365Y66074614D01*
X117849730Y66174336D01*
X118100182Y66311093D01*
X118328621Y66482101D01*
X118530399Y66683879D01*
X118701407Y66912318D01*
X118838164Y67162770D01*
X118937886Y67430135D01*
X118998543Y67708970D01*
X119018900Y67993600D01*
X119018900Y89793600D01*
X118943684Y90461163D01*
X118850550Y90784437D01*
X118721807Y91095251D01*
X118559073Y91389696D01*
X118364394Y91664069D01*
X118140220Y91914920D01*
X117889369Y92139094D01*
X117614996Y92333773D01*
X117320551Y92496507D01*
X117009737Y92625250D01*
X116686463Y92718384D01*
X116354793Y92774737D01*
X116018900Y92793600D01*
X116018900Y95993600D01*
X122018900Y95993600D01*
X122018900Y65993600D01*
X122018900Y-2006400D01*
X115018900Y-2006400D01*
X115018900Y2993600D01*
X115799261Y3070459D01*
X116180039Y3165839D01*
X116549634Y3298082D01*
X116904487Y3465915D01*
X117241181Y3667722D01*
X117556473Y3901558D01*
X117847327Y4165173D01*
X118110942Y4456027D01*
X118344778Y4771319D01*
X118546585Y5108013D01*
X118714418Y5462866D01*
X118846661Y5832461D01*
X118942041Y6213239D01*
X118999639Y6601531D01*
X119018900Y6993600D01*
X119018900Y15993600D01*
X118998493Y16333047D01*
X118937566Y16667604D01*
X118836996Y16992452D01*
X118698231Y17302912D01*
X118523272Y17594511D01*
X118314638Y17863048D01*
X118075334Y18104656D01*
X117808808Y18315855D01*
X117518899Y18493600D01*
X117518900Y18493600D01*
X117228991Y18671346D01*
X116962466Y18882544D01*
X116723162Y19124152D01*
X116514528Y19392690D01*
X116339569Y19684288D01*
X116200805Y19994748D01*
X116100235Y20319596D01*
X116039307Y20654153D01*
X116018900Y20993600D01*
X116018900Y21993600D01*
X116100234Y22667604D01*
X116200804Y22992452D01*
X116339568Y23302912D01*
X116514528Y23594511D01*
X116723162Y23863048D01*
X116962465Y24104656D01*
X117228991Y24315854D01*
X117518900Y24493600D01*
X117808809Y24671345D01*
X118075335Y24882544D01*
X118314638Y25124152D01*
X118523272Y25392690D01*
X118698231Y25684289D01*
X118836995Y25994748D01*
X118937565Y26319596D01*
X118998493Y26654154D01*
X119018900Y26993601D01*
X119018900Y57993600D01*
X118999873Y58429379D01*
X118942939Y58861841D01*
X118848529Y59287695D01*
X118717363Y59703701D01*
X118550439Y60106691D01*
X118349027Y60493600D01*
X118114660Y60861482D01*
X117849122Y61207538D01*
X117554434Y61529134D01*
X117232838Y61823822D01*
X116886782Y62089360D01*
X116518900Y62323727D01*
X116131991Y62525139D01*
X115729001Y62692063D01*
X115312995Y62823229D01*
X114887141Y62917639D01*
X114454679Y62974573D01*
X114018900Y62993600D01*
X103018900Y62993600D01*
X102351337Y62918384D01*
X102028063Y62825250D01*
X101717249Y62696507D01*
X101422804Y62533773D01*
X101148431Y62339094D01*
X100897580Y62114920D01*
X100673406Y61864069D01*
X100478727Y61589696D01*
X100315993Y61295251D01*
X100187250Y60984437D01*
X100094116Y60661163D01*
X100037763Y60329493D01*
X100018900Y59993600D01*
X100018900Y49993600D01*
X100039257Y49708970D01*
X100099914Y49430135D01*
X100199636Y49162770D01*
X100336393Y48912318D01*
X100507401Y48683879D01*
X100709179Y48482101D01*
X100937618Y48311093D01*
X101188070Y48174336D01*
X101455435Y48074614D01*
X101734270Y48013957D01*
X102018900Y47993600D01*
X105018900Y47993600D01*
X105303530Y47973243D01*
X105582365Y47912586D01*
X105849730Y47812864D01*
X106100182Y47676107D01*
X106328621Y47505099D01*
X106530399Y47303321D01*
X106701407Y47074882D01*
X106838164Y46824430D01*
X106937886Y46557065D01*
X106998543Y46278230D01*
X107018900Y45993600D01*
X107018900Y40993600D01*
X107039257Y40708970D01*
X107099914Y40430135D01*
X107199636Y40162770D01*
X107336393Y39912318D01*
X107507401Y39683879D01*
X107709179Y39482101D01*
X107937618Y39311093D01*
X108188070Y39174336D01*
X108455435Y39074614D01*
X108734270Y39013957D01*
X109018900Y38993600D01*
X109303530Y38973243D01*
X109582365Y38912586D01*
X109849730Y38812864D01*
X110100182Y38676107D01*
X110328621Y38505099D01*
X110530399Y38303321D01*
X110701407Y38074882D01*
X110838164Y37824430D01*
X110937886Y37557065D01*
X110998543Y37278230D01*
X111018900Y36993600D01*
X111018900Y33993600D01*
X110998543Y33708970D01*
X110937886Y33430135D01*
X110838164Y33162770D01*
X110701407Y32912318D01*
X110530399Y32683879D01*
X110328621Y32482101D01*
X110100182Y32311093D01*
X109849730Y32174336D01*
X109582365Y32074614D01*
X109303530Y32013957D01*
X109018900Y31993600D01*
X101018900Y31993600D01*
X100734270Y31973243D01*
X100455435Y31912586D01*
X100188070Y31812864D01*
X99937618Y31676107D01*
X99709179Y31505099D01*
X99507401Y31303321D01*
X99336393Y31074882D01*
X99199636Y30824430D01*
X99099914Y30557065D01*
X99039257Y30278230D01*
X99018900Y29993600D01*
X99018900Y17993600D01*
X99018900Y15993600D01*
X99018900Y10993600D01*
X98998543Y10708970D01*
X98937886Y10430135D01*
X98838164Y10162770D01*
X98701407Y9912318D01*
X98530399Y9683879D01*
X98328621Y9482101D01*
X98100182Y9311093D01*
X97849730Y9174336D01*
X97582365Y9074614D01*
X97303530Y9013957D01*
X97018900Y8993600D01*
X96310010Y9018758D01*
X95604686Y9094105D01*
X94906479Y9219262D01*
X94218900Y9393600D01*
X93621338Y9588565D01*
X93037274Y9820862D01*
X91918900Y10393600D01*
X91018900Y10993600D01*
X90490946Y11360843D01*
X89940733Y11693812D01*
X89370481Y11991160D01*
X88782495Y12251688D01*
X88179148Y12474344D01*
X87562877Y12658228D01*
X86936171Y12802597D01*
X86301561Y12906869D01*
X85661609Y12970623D01*
X85018900Y12993600D01*
X85018899Y12993600D01*
X84733892Y12974246D01*
X84454583Y12914327D01*
X84186716Y12815076D01*
X83935798Y12678532D01*
X83706989Y12507505D01*
X83504994Y12305510D01*
X83333967Y12076702D01*
X83197423Y11825784D01*
X83098172Y11557916D01*
X83038253Y11278607D01*
X83018900Y10993600D01*
X83018900Y7493600D01*
X83018900Y4993600D01*
X83039257Y4708970D01*
X83099914Y4430135D01*
X83199636Y4162770D01*
X83336393Y3912318D01*
X83507401Y3683879D01*
X83709179Y3482101D01*
X83937618Y3311093D01*
X84188070Y3174336D01*
X84455435Y3074614D01*
X84734270Y3013957D01*
X85018900Y2993600D01*
X105018900Y2993600D01*
X105018900Y-2006400D01*
X17018900Y-2006400D01*
X17018900Y2993600D01*
X30018900Y2993600D01*
X30303530Y3013957D01*
X30582365Y3074614D01*
X30849730Y3174336D01*
X31100182Y3311093D01*
X31328621Y3482101D01*
X31530399Y3683879D01*
X31701407Y3912318D01*
X31838164Y4162770D01*
X31937886Y4430135D01*
X31998543Y4708970D01*
X32018900Y4993600D01*
X32027800Y5307200D01*
X32117800Y5287200D01*
X32207800Y5277200D01*
X32287800Y5277200D01*
X32397800Y5307200D01*
X32547800Y5377200D01*
X32677800Y5487200D01*
X32767800Y5617200D01*
X32817800Y5767200D01*
X32827800Y5907200D01*
X32817800Y6037200D01*
X32757800Y6187200D01*
X32707800Y6267200D01*
X32567800Y6397200D01*
X32437800Y6477200D01*
X32307800Y6507200D01*
X32017800Y6747200D01*
X32018900Y8993600D01*
X32000037Y9329493D01*
X31943684Y9661163D01*
X31850550Y9984437D01*
X31721807Y10295251D01*
X31559073Y10589696D01*
X31364394Y10864069D01*
X31140220Y11114920D01*
X30889369Y11339094D01*
X30614996Y11533773D01*
X30320551Y11696507D01*
X30009737Y11825250D01*
X29686463Y11918384D01*
X29018901Y11993600D01*
X29018900Y11993600D01*
X28583121Y12012627D01*
X28150659Y12069561D01*
X27724805Y12163971D01*
X27308799Y12295137D01*
X26905809Y12462061D01*
X26518900Y12663473D01*
X26151018Y12897840D01*
X25804962Y13163378D01*
X25483366Y13458066D01*
X25188678Y13779662D01*
X24923140Y14125718D01*
X24688773Y14493600D01*
X24487361Y14880509D01*
X24320437Y15283499D01*
X24189271Y15699505D01*
X24094861Y16125359D01*
X24037927Y16557821D01*
X24018900Y16993600D01*
X24018900Y22993600D01*
X23998493Y23333047D01*
X23937566Y23667604D01*
X23836996Y23992452D01*
X23698231Y24302912D01*
X23523272Y24594511D01*
X23314638Y24863048D01*
X23075334Y25104656D01*
X22808808Y25315855D01*
X22518899Y25493600D01*
X22518900Y25493600D01*
X22228991Y25671346D01*
X21962466Y25882544D01*
X21723162Y26124152D01*
X21514528Y26392690D01*
X21339569Y26684288D01*
X21200805Y26994748D01*
X21100235Y27319596D01*
X21039307Y27654153D01*
X21018900Y27993600D01*
X21018900Y28993600D01*
X21100234Y29667604D01*
X21200804Y29992452D01*
X21339568Y30302912D01*
X21514528Y30594511D01*
X21723162Y30863048D01*
X21962465Y31104656D01*
X22228991Y31315854D01*
X22518900Y31493600D01*
X22808809Y31671345D01*
X23075335Y31882544D01*
X23314638Y32124152D01*
X23523272Y32392690D01*
X23698231Y32684289D01*
X23836995Y32994748D01*
X23937565Y33319596D01*
X23998493Y33654154D01*
X24018900Y33993601D01*
X24018900Y43993600D01*
X27018900Y43993600D01*
X27018900Y16993600D01*
X27095020Y16610917D01*
X27187430Y16438030D01*
X27311793Y16286493D01*
X27463330Y16162130D01*
X27636217Y16069720D01*
X27823810Y16012815D01*
X28018900Y15993600D01*
X32018900Y15993600D01*
X32686463Y15918384D01*
X33009737Y15825250D01*
X33320551Y15696507D01*
X33614996Y15533773D01*
X33889369Y15339094D01*
X34140220Y15114920D01*
X34364394Y14864069D01*
X34559073Y14589696D01*
X34721807Y14295251D01*
X34850550Y13984437D01*
X34943684Y13661163D01*
X35000037Y13329493D01*
X35018900Y12993600D01*
X35040288Y12667285D01*
X35104085Y12346552D01*
X35209201Y12036891D01*
X35353836Y11743600D01*
X35535517Y11471696D01*
X35751133Y11225833D01*
X35996996Y11010217D01*
X36268900Y10828536D01*
X36562191Y10683901D01*
X36871852Y10578785D01*
X37192585Y10514988D01*
X37518900Y10493600D01*
X40118900Y10493600D01*
X41018900Y10493600D01*
X45518900Y10493600D01*
X46173532Y10580830D01*
X46486484Y10688436D01*
X46782481Y10836434D01*
X47056337Y11022233D01*
X47303252Y11242575D01*
X47518900Y11493600D01*
X47981464Y11964968D01*
X48255319Y12150766D01*
X48551316Y12298764D01*
X48864268Y12406370D01*
X49188692Y12471697D01*
X49518901Y12493600D01*
X53018900Y12493600D01*
X53303530Y12513957D01*
X53582365Y12574614D01*
X53849730Y12674336D01*
X54100182Y12811093D01*
X54328621Y12982101D01*
X54530399Y13183879D01*
X54701407Y13412318D01*
X54838164Y13662770D01*
X54937886Y13930135D01*
X54998543Y14208970D01*
X55018900Y14493600D01*
X55018900Y25993600D01*
X54942041Y26773961D01*
X54846661Y27154739D01*
X54714418Y27524334D01*
X54546585Y27879187D01*
X54344778Y28215881D01*
X54110942Y28531173D01*
X53847327Y28822027D01*
X53556473Y29085642D01*
X53241181Y29319478D01*
X52904487Y29521285D01*
X52549634Y29689118D01*
X52180039Y29821361D01*
X51799261Y29916741D01*
X51410969Y29974339D01*
X51018900Y29993600D01*
X50268235Y30039007D01*
X49692997Y30073802D01*
X49036095Y30173781D01*
X48386428Y30313240D01*
X47746366Y30491670D01*
X47118246Y30708421D01*
X46504359Y30962702D01*
X45906945Y31253584D01*
X45328184Y31580006D01*
X44770188Y31940777D01*
X44234992Y32334582D01*
X43724551Y32759982D01*
X43240725Y33215425D01*
X42785282Y33699251D01*
X42359882Y34209692D01*
X41966077Y34744888D01*
X41605306Y35302884D01*
X41278884Y35881645D01*
X40988002Y36479059D01*
X40733721Y37092946D01*
X40516970Y37721066D01*
X40338540Y38361128D01*
X40199081Y39010795D01*
X40099102Y39667697D01*
X40038969Y40329437D01*
X40018900Y40993600D01*
X40018900Y43993600D01*
X39998543Y44278230D01*
X39937886Y44557065D01*
X39838164Y44824430D01*
X39745790Y44993600D01*
X43018900Y44993600D01*
X43018900Y40993600D01*
X43039283Y40422887D01*
X43100328Y39855081D01*
X43201725Y39293078D01*
X43342956Y38739740D01*
X43523302Y38197887D01*
X43741844Y37670280D01*
X43997468Y37159608D01*
X44288872Y36668473D01*
X44614570Y36199379D01*
X44972903Y35754714D01*
X45362046Y35336746D01*
X45780014Y34947603D01*
X46224679Y34589270D01*
X46693773Y34263572D01*
X47184908Y33972168D01*
X47695580Y33716544D01*
X48223187Y33498002D01*
X48765040Y33317656D01*
X49318378Y33176425D01*
X49880381Y33075028D01*
X50448187Y33013983D01*
X51018900Y32993600D01*
X57018900Y32993600D01*
X57401583Y32917480D01*
X57574470Y32825070D01*
X57726007Y32700707D01*
X57850370Y32549170D01*
X57942780Y32376283D01*
X57999685Y32188690D01*
X58018900Y31993600D01*
X58018900Y9493600D01*
X58018900Y8993600D01*
X58018900Y8493600D01*
X58000491Y8298173D01*
X57944082Y8110161D01*
X57851867Y7936878D01*
X57727433Y7785066D01*
X57575622Y7660632D01*
X57498757Y7619727D01*
X57497800Y7617200D01*
X57287800Y7467200D01*
X57167800Y7397200D01*
X57117800Y7357200D01*
X57047800Y7287200D01*
X56967800Y7177200D01*
X56917800Y7037200D01*
X56897800Y6897200D01*
X56917800Y6737200D01*
X56977800Y6597200D01*
X57057800Y6477200D01*
X57167800Y6387200D01*
X57297800Y6317200D01*
X57467800Y6287200D01*
X57687800Y6297200D01*
X57857800Y6377200D01*
X58017800Y6497200D01*
X58018900Y4993600D01*
X58039257Y4708970D01*
X58099914Y4430135D01*
X58199636Y4162770D01*
X58336393Y3912318D01*
X58507401Y3683879D01*
X58709179Y3482101D01*
X58937618Y3311093D01*
X59188070Y3174336D01*
X59455435Y3074614D01*
X59734270Y3013957D01*
X60018900Y2993600D01*
X66018900Y2993600D01*
X66303530Y3013957D01*
X66582365Y3074614D01*
X66849730Y3174336D01*
X67100182Y3311093D01*
X67328621Y3482101D01*
X67530399Y3683879D01*
X67701407Y3912318D01*
X67838164Y4162770D01*
X67937886Y4430135D01*
X67998543Y4708970D01*
X68018900Y4993600D01*
X68018900Y7493600D01*
X68018900Y27993600D01*
X71018900Y27993600D01*
X71018900Y16493600D01*
X71039257Y16208970D01*
X71099914Y15930135D01*
X71199636Y15662770D01*
X71336393Y15412318D01*
X71507401Y15183879D01*
X71709179Y14982101D01*
X71937618Y14811093D01*
X72188070Y14674336D01*
X72455435Y14574614D01*
X72734270Y14513957D01*
X73018900Y14493600D01*
X74084927Y14513657D01*
X75149444Y14573799D01*
X76210946Y14673940D01*
X78318900Y14993600D01*
X79718900Y15293600D01*
X80785203Y15524258D01*
X81860262Y15709876D01*
X82942175Y15850124D01*
X84822446Y15974060D01*
X85118900Y15993600D01*
X94018900Y15993600D01*
X94303530Y16013957D01*
X94582365Y16074614D01*
X94849730Y16174336D01*
X95100182Y16311093D01*
X95328621Y16482101D01*
X95530399Y16683879D01*
X95701407Y16912318D01*
X95838164Y17162770D01*
X95937886Y17430135D01*
X95998543Y17708970D01*
X96018900Y17993600D01*
X96018900Y29993600D01*
X95998543Y30278230D01*
X95937886Y30557065D01*
X95838164Y30824430D01*
X95701407Y31074882D01*
X95530399Y31303321D01*
X95328621Y31505099D01*
X95100182Y31676107D01*
X94849730Y31812864D01*
X94582365Y31912586D01*
X94303530Y31973243D01*
X94018900Y31993600D01*
X75018900Y31993600D01*
X74238539Y31916741D01*
X73857761Y31821361D01*
X73488166Y31689118D01*
X73133313Y31521285D01*
X72796619Y31319478D01*
X72481327Y31085642D01*
X72190473Y30822027D01*
X71926858Y30531173D01*
X71693022Y30215881D01*
X71491215Y29879187D01*
X71323382Y29524334D01*
X71191139Y29154739D01*
X71095759Y28773961D01*
X71038161Y28385669D01*
X71018900Y27993600D01*
X68018900Y27993600D01*
X68018900Y33993600D01*
X68095020Y34376283D01*
X68187430Y34549170D01*
X68311793Y34700707D01*
X68463330Y34825070D01*
X68636217Y34917480D01*
X68823810Y34974385D01*
X69018900Y34993600D01*
X96018900Y34993600D01*
X99018900Y34993600D01*
X101018900Y34993600D01*
X101686463Y35068816D01*
X102009737Y35161950D01*
X102320551Y35290693D01*
X102614996Y35453427D01*
X102889369Y35648106D01*
X103140220Y35872280D01*
X103364394Y36123131D01*
X103559073Y36397504D01*
X103721807Y36691949D01*
X103850550Y37002763D01*
X103943684Y37326037D01*
X104000037Y37657707D01*
X104018900Y37993600D01*
X104018900Y42993600D01*
X103998543Y43278230D01*
X103937886Y43557065D01*
X103838164Y43824430D01*
X103701407Y44074882D01*
X103530399Y44303321D01*
X103328621Y44505099D01*
X103100182Y44676107D01*
X102849730Y44812864D01*
X102582365Y44912586D01*
X102303530Y44973243D01*
X102018900Y44993600D01*
X101559904Y45014713D01*
X101322629Y45047640D01*
X101104783Y45077871D01*
X100657383Y45182543D01*
X100221480Y45327844D01*
X99800757Y45512547D01*
X99398765Y45735092D01*
X99018901Y45993600D01*
X99018900Y45993600D01*
X98237044Y46474653D01*
X97816320Y46659356D01*
X97380417Y46804657D01*
X96933017Y46909329D01*
X96477896Y46972488D01*
X96018900Y46993600D01*
X83018900Y46993600D01*
X82351337Y46918384D01*
X82028063Y46825250D01*
X81717249Y46696507D01*
X81422804Y46533773D01*
X81148431Y46339094D01*
X80897580Y46114920D01*
X80673406Y45864069D01*
X80478727Y45589696D01*
X80315993Y45295251D01*
X80187250Y44984437D01*
X80094116Y44661163D01*
X80037763Y44329493D01*
X80018900Y43993600D01*
X79942041Y43213239D01*
X79846661Y42832461D01*
X79714418Y42462866D01*
X79546585Y42108013D01*
X79344778Y41771319D01*
X79110942Y41456027D01*
X78847327Y41165173D01*
X78556473Y40901558D01*
X78241181Y40667722D01*
X77904487Y40465915D01*
X77549634Y40298082D01*
X77180039Y40165839D01*
X76799261Y40070459D01*
X76410969Y40012861D01*
X76018900Y39993600D01*
X61018900Y39993600D01*
X60734270Y40013957D01*
X60455435Y40074614D01*
X60188070Y40174336D01*
X59937618Y40311093D01*
X59709179Y40482101D01*
X59507401Y40683879D01*
X59336393Y40912318D01*
X59199636Y41162770D01*
X59099914Y41430135D01*
X59039257Y41708970D01*
X59018900Y41993600D01*
X59018900Y49993600D01*
X58998543Y50278230D01*
X58937886Y50557065D01*
X58838164Y50824430D01*
X58701407Y51074882D01*
X58530399Y51303321D01*
X58328621Y51505099D01*
X58100182Y51676107D01*
X57849730Y51812864D01*
X57582365Y51912586D01*
X57303530Y51973243D01*
X57018900Y51993600D01*
X50018900Y51993600D01*
X49495789Y51974027D01*
X48975604Y51915416D01*
X48461253Y51818095D01*
X47955614Y51682610D01*
X47461513Y51509716D01*
X46981714Y51300382D01*
X46518900Y51055778D01*
X46075660Y50777271D01*
X45654471Y50466420D01*
X45257691Y50124963D01*
X44887537Y49754809D01*
X44546080Y49358029D01*
X44235229Y48936840D01*
X43956722Y48493600D01*
X43712118Y48030786D01*
X43502784Y47550987D01*
X43329890Y47056886D01*
X43194405Y46551247D01*
X43097084Y46036896D01*
X43038473Y45516711D01*
X43018900Y44993600D01*
X39745790Y44993600D01*
X39701407Y45074882D01*
X39530399Y45303321D01*
X39328621Y45505099D01*
X39100182Y45676107D01*
X38849730Y45812864D01*
X38582365Y45912586D01*
X38303530Y45973243D01*
X38018900Y45993600D01*
X29018900Y45993600D01*
X28734270Y45973243D01*
X28455435Y45912586D01*
X28188070Y45812864D01*
X27937618Y45676107D01*
X27709179Y45505099D01*
X27507401Y45303321D01*
X27336393Y45074882D01*
X27199636Y44824430D01*
X27099914Y44557065D01*
X27039257Y44278230D01*
X27018900Y43993600D01*
X24018900Y43993600D01*
X23937159Y45449138D01*
X23835223Y46171181D01*
X23692963Y46886372D01*
X23510825Y47592462D01*
X23289383Y48287228D01*
X23029334Y48968485D01*
X22731495Y49634089D01*
X22396804Y50281946D01*
X22026315Y50910017D01*
X21621191Y51516327D01*
X21182709Y52098967D01*
X20712248Y52656106D01*
X20211288Y53185988D01*
X19681406Y53686948D01*
X19124267Y54157409D01*
X18541627Y54595891D01*
X17935317Y55001015D01*
X17307246Y55371504D01*
X16659389Y55706195D01*
X15993785Y56004034D01*
X15312528Y56264083D01*
X14617762Y56485525D01*
X13911672Y56667663D01*
X13196481Y56809923D01*
X12474438Y56911859D01*
X11747816Y56973149D01*
X11018900Y56993600D01*
X9018900Y56993600D01*
X7018900Y56993600D01*
X6238539Y56916741D01*
X5857761Y56821361D01*
X5488166Y56689118D01*
X5133313Y56521285D01*
X4796619Y56319478D01*
X4481327Y56085642D01*
X4190473Y55822027D01*
X3926858Y55531173D01*
X3693022Y55215881D01*
X3491215Y54879187D01*
X3323382Y54524334D01*
X3191139Y54154739D01*
X3095759Y53773961D01*
X3038161Y53385669D01*
X3018900Y52993600D01*
X3018900Y33993600D01*
X3100234Y33319596D01*
X3200804Y32994748D01*
X3339569Y32684289D01*
X3514528Y32392690D01*
X3723162Y32124152D01*
X3962465Y31882544D01*
X4228991Y31671346D01*
X4518900Y31493600D01*
X4808809Y31315854D01*
X5075334Y31104656D01*
X5314638Y30863047D01*
X5523272Y30594510D01*
X5698231Y30302911D01*
X5836995Y29992451D01*
X5937565Y29667603D01*
X5998493Y29333046D01*
X6018900Y28993599D01*
X6018900Y27993600D01*
X5998493Y27654153D01*
X5937565Y27319596D01*
X5836995Y26994748D01*
X5698231Y26684288D01*
X5523272Y26392690D01*
X5314638Y26124152D01*
X5075334Y25882544D01*
X4808808Y25671346D01*
X4518900Y25493600D01*
X4228992Y25315854D01*
X3962466Y25104655D01*
X3723163Y24863047D01*
X3514529Y24594510D01*
X3339569Y24302911D01*
X3200805Y23992452D01*
X3100235Y23667604D01*
X3039307Y23333047D01*
X3018900Y22993600D01*
X3018900Y6993600D01*
X3095759Y6213239D01*
X3191139Y5832461D01*
X3323382Y5462866D01*
X3491215Y5108013D01*
X3693022Y4771319D01*
X3926858Y4456027D01*
X4190473Y4165173D01*
X4481327Y3901558D01*
X4796619Y3667722D01*
X5133313Y3465915D01*
X5488166Y3298082D01*
X5857761Y3165839D01*
X6238539Y3070459D01*
X6626831Y3012861D01*
X7018900Y2993600D01*
X7018900Y-2006400D01*
X18900Y-2006400D01*
X18900Y95993600D01*
X81018900Y95993600D01*
X90018900Y95993600D01*
X90018900Y92993600D01*
G36*
X90018900Y92993600D02*
G01*
X81018900Y92993600D01*
X7018900Y92993600D01*
X6238539Y92916741D01*
X5857761Y92821361D01*
X5488166Y92689118D01*
X5133313Y92521285D01*
X4796619Y92319478D01*
X4481327Y92085642D01*
X4190473Y91822027D01*
X3926858Y91531173D01*
X3693022Y91215881D01*
X3491215Y90879187D01*
X3323382Y90524334D01*
X3191139Y90154739D01*
X3095759Y89773961D01*
X3038161Y89385669D01*
X3018900Y88993600D01*
X3018900Y61993600D01*
X3039257Y61708970D01*
X3099914Y61430135D01*
X3199636Y61162770D01*
X3336393Y60912318D01*
X3507401Y60683879D01*
X3709179Y60482101D01*
X3937618Y60311093D01*
X4188070Y60174336D01*
X4455435Y60074614D01*
X4734270Y60013957D01*
X5018900Y59993600D01*
X9018900Y59993600D01*
X11018900Y59993600D01*
X12556292Y60017720D01*
X13323765Y59968267D01*
X14087508Y59877955D01*
X14845347Y59747040D01*
X15595127Y59575895D01*
X16334712Y59365008D01*
X17061998Y59114978D01*
X17774915Y58826517D01*
X18471433Y58500446D01*
X19149570Y58137693D01*
X19807397Y57739292D01*
X20443040Y57306374D01*
X21054691Y56840173D01*
X21640608Y56342016D01*
X22199125Y55813321D01*
X22728651Y55255592D01*
X23227679Y54670416D01*
X23694789Y54059459D01*
X24128652Y53424461D01*
X24528032Y52767228D01*
X24891794Y52089631D01*
X25218900Y51393599D01*
X25218900Y51393600D01*
X25266350Y51292325D01*
X25318900Y51193600D01*
X25456272Y50993945D01*
X25626485Y50821431D01*
X25824278Y50681391D01*
X26043537Y50578151D01*
X26277488Y50514902D01*
X26518899Y50493600D01*
X26518900Y50493600D01*
X40318900Y50493600D01*
X40642700Y50505125D01*
X40962321Y50558238D01*
X41272446Y50652055D01*
X41567913Y50785015D01*
X41843804Y50954905D01*
X42095530Y51158899D01*
X42318900Y51393600D01*
X42735682Y51861805D01*
X43180884Y52303074D01*
X43652770Y52715684D01*
X44149496Y53098027D01*
X44669125Y53448611D01*
X45209629Y53766067D01*
X45659143Y53993600D01*
X62018900Y53993600D01*
X62018900Y51993600D01*
X62018900Y46993600D01*
X62095759Y46213239D01*
X62191139Y45832461D01*
X62323382Y45462866D01*
X62491215Y45108013D01*
X62693022Y44771319D01*
X62926858Y44456027D01*
X63190473Y44165173D01*
X63481327Y43901558D01*
X63796619Y43667722D01*
X64133313Y43465915D01*
X64488166Y43298082D01*
X64857761Y43165839D01*
X65238539Y43070459D01*
X65626831Y43012861D01*
X66018900Y42993600D01*
X75018900Y42993600D01*
X75303530Y43013957D01*
X75582365Y43074614D01*
X75849730Y43174336D01*
X76100182Y43311093D01*
X76328621Y43482101D01*
X76530399Y43683879D01*
X76701407Y43912318D01*
X76838164Y44162770D01*
X76937886Y44430135D01*
X76998543Y44708970D01*
X77018900Y44993600D01*
X77037927Y45429379D01*
X77094861Y45861841D01*
X77189271Y46287695D01*
X77320437Y46703701D01*
X77487361Y47106691D01*
X77688773Y47493600D01*
X77923140Y47861482D01*
X78188678Y48207538D01*
X78483366Y48529134D01*
X78804962Y48823822D01*
X79151018Y49089360D01*
X79518900Y49323727D01*
X79905809Y49525139D01*
X80308799Y49692063D01*
X80724805Y49823229D01*
X81150659Y49917639D01*
X81583121Y49974573D01*
X82018900Y49993600D01*
X95018900Y49993600D01*
X95303530Y50013957D01*
X95582365Y50074614D01*
X95849730Y50174336D01*
X96100182Y50311093D01*
X96328621Y50482101D01*
X96530399Y50683879D01*
X96701407Y50912318D01*
X96838164Y51162770D01*
X96937886Y51430135D01*
X96998543Y51708970D01*
X97018900Y51993600D01*
X97018900Y57993600D01*
X96998543Y58278230D01*
X96937886Y58557065D01*
X96838164Y58824430D01*
X96701407Y59074882D01*
X96530399Y59303321D01*
X96328621Y59505099D01*
X96100182Y59676107D01*
X95849730Y59812864D01*
X95582365Y59912586D01*
X95303530Y59973243D01*
X95018900Y59993600D01*
X75018900Y59993600D01*
X68018900Y59993600D01*
X67523424Y59973107D01*
X67031332Y59911768D01*
X66545987Y59810002D01*
X66070703Y59668503D01*
X65608727Y59488240D01*
X65163216Y59270443D01*
X64737211Y59016599D01*
X64333624Y58728443D01*
X63955211Y58407943D01*
X63604557Y58057289D01*
X63284057Y57678876D01*
X62995901Y57275289D01*
X62742057Y56849284D01*
X62524260Y56403773D01*
X62343997Y55941797D01*
X62202498Y55466513D01*
X62100732Y54981168D01*
X62039393Y54489076D01*
X62018900Y53993600D01*
X45659143Y53993600D01*
X45768900Y54049156D01*
X46344754Y54296774D01*
X46934946Y54507955D01*
X47537171Y54681875D01*
X48149080Y54817855D01*
X48768285Y54915364D01*
X49392370Y54974022D01*
X50018900Y54993600D01*
X57018900Y54993600D01*
X57570205Y54986671D01*
X57841431Y55039476D01*
X58102943Y55128716D01*
X58349870Y55252728D01*
X58577614Y55409203D01*
X58781934Y55595228D01*
X58959026Y55807337D01*
X59105591Y56041582D01*
X59218900Y56293600D01*
X59518900Y57093600D01*
X59751478Y57651519D01*
X60018900Y58193600D01*
X60666497Y59232273D01*
X61041383Y59716468D01*
X61448097Y60174253D01*
X61884784Y60603540D01*
X62349453Y61002371D01*
X62839983Y61368927D01*
X63354138Y61701536D01*
X63889572Y61998680D01*
X64443841Y62259004D01*
X65014419Y62481321D01*
X65598702Y62664616D01*
X66194025Y62808053D01*
X66527802Y62864963D01*
X66797672Y62910977D01*
X67406890Y62972921D01*
X68018900Y62993600D01*
X75018900Y62993600D01*
X92018900Y62993600D01*
X92503391Y63012923D01*
X92984804Y63070771D01*
X93460081Y63166777D01*
X93926202Y63300330D01*
X94380206Y63470581D01*
X94819208Y63676450D01*
X95240421Y63916628D01*
X95641166Y64189589D01*
X96018900Y64493600D01*
X96797379Y65070572D01*
X97218592Y65310750D01*
X97657594Y65516618D01*
X98111598Y65686870D01*
X98577719Y65820423D01*
X99052996Y65916428D01*
X99534409Y65974276D01*
X100018900Y65993600D01*
X117018900Y65993600D01*
X117303530Y66013957D01*
X117582365Y66074614D01*
X117849730Y66174336D01*
X118100182Y66311093D01*
X118328621Y66482101D01*
X118530399Y66683879D01*
X118701407Y66912318D01*
X118838164Y67162770D01*
X118937886Y67430135D01*
X118998543Y67708970D01*
X119018900Y67993600D01*
X119018900Y89793600D01*
X118943684Y90461163D01*
X118850550Y90784437D01*
X118721807Y91095251D01*
X118559073Y91389696D01*
X118364394Y91664069D01*
X118140220Y91914920D01*
X117889369Y92139094D01*
X117614996Y92333773D01*
X117320551Y92496507D01*
X117009737Y92625250D01*
X116686463Y92718384D01*
X116354793Y92774737D01*
X116018900Y92793600D01*
X116018900Y95993600D01*
X122018900Y95993600D01*
X122018900Y65993600D01*
X122018900Y-2006400D01*
X115018900Y-2006400D01*
X115018900Y2993600D01*
X115799261Y3070459D01*
X116180039Y3165839D01*
X116549634Y3298082D01*
X116904487Y3465915D01*
X117241181Y3667722D01*
X117556473Y3901558D01*
X117847327Y4165173D01*
X118110942Y4456027D01*
X118344778Y4771319D01*
X118546585Y5108013D01*
X118714418Y5462866D01*
X118846661Y5832461D01*
X118942041Y6213239D01*
X118999639Y6601531D01*
X119018900Y6993600D01*
X119018900Y15993600D01*
X118998493Y16333047D01*
X118937566Y16667604D01*
X118836996Y16992452D01*
X118698231Y17302912D01*
X118523272Y17594511D01*
X118314638Y17863048D01*
X118075334Y18104656D01*
X117808808Y18315855D01*
X117518899Y18493600D01*
X117518900Y18493600D01*
X117228991Y18671346D01*
X116962466Y18882544D01*
X116723162Y19124152D01*
X116514528Y19392690D01*
X116339569Y19684288D01*
X116200805Y19994748D01*
X116100235Y20319596D01*
X116039307Y20654153D01*
X116018900Y20993600D01*
X116018900Y21993600D01*
X116100234Y22667604D01*
X116200804Y22992452D01*
X116339568Y23302912D01*
X116514528Y23594511D01*
X116723162Y23863048D01*
X116962465Y24104656D01*
X117228991Y24315854D01*
X117518900Y24493600D01*
X117808809Y24671345D01*
X118075335Y24882544D01*
X118314638Y25124152D01*
X118523272Y25392690D01*
X118698231Y25684289D01*
X118836995Y25994748D01*
X118937565Y26319596D01*
X118998493Y26654154D01*
X119018900Y26993601D01*
X119018900Y57993600D01*
X118999873Y58429379D01*
X118942939Y58861841D01*
X118848529Y59287695D01*
X118717363Y59703701D01*
X118550439Y60106691D01*
X118349027Y60493600D01*
X118114660Y60861482D01*
X117849122Y61207538D01*
X117554434Y61529134D01*
X117232838Y61823822D01*
X116886782Y62089360D01*
X116518900Y62323727D01*
X116131991Y62525139D01*
X115729001Y62692063D01*
X115312995Y62823229D01*
X114887141Y62917639D01*
X114454679Y62974573D01*
X114018900Y62993600D01*
X103018900Y62993600D01*
X102351337Y62918384D01*
X102028063Y62825250D01*
X101717249Y62696507D01*
X101422804Y62533773D01*
X101148431Y62339094D01*
X100897580Y62114920D01*
X100673406Y61864069D01*
X100478727Y61589696D01*
X100315993Y61295251D01*
X100187250Y60984437D01*
X100094116Y60661163D01*
X100037763Y60329493D01*
X100018900Y59993600D01*
X100018900Y49993600D01*
X100039257Y49708970D01*
X100099914Y49430135D01*
X100199636Y49162770D01*
X100336393Y48912318D01*
X100507401Y48683879D01*
X100709179Y48482101D01*
X100937618Y48311093D01*
X101188070Y48174336D01*
X101455435Y48074614D01*
X101734270Y48013957D01*
X102018900Y47993600D01*
X105018900Y47993600D01*
X105303530Y47973243D01*
X105582365Y47912586D01*
X105849730Y47812864D01*
X106100182Y47676107D01*
X106328621Y47505099D01*
X106530399Y47303321D01*
X106701407Y47074882D01*
X106838164Y46824430D01*
X106937886Y46557065D01*
X106998543Y46278230D01*
X107018900Y45993600D01*
X107018900Y40993600D01*
X107039257Y40708970D01*
X107099914Y40430135D01*
X107199636Y40162770D01*
X107336393Y39912318D01*
X107507401Y39683879D01*
X107709179Y39482101D01*
X107937618Y39311093D01*
X108188070Y39174336D01*
X108455435Y39074614D01*
X108734270Y39013957D01*
X109018900Y38993600D01*
X109303530Y38973243D01*
X109582365Y38912586D01*
X109849730Y38812864D01*
X110100182Y38676107D01*
X110328621Y38505099D01*
X110530399Y38303321D01*
X110701407Y38074882D01*
X110838164Y37824430D01*
X110937886Y37557065D01*
X110998543Y37278230D01*
X111018900Y36993600D01*
X111018900Y33993600D01*
X110998543Y33708970D01*
X110937886Y33430135D01*
X110838164Y33162770D01*
X110701407Y32912318D01*
X110530399Y32683879D01*
X110328621Y32482101D01*
X110100182Y32311093D01*
X109849730Y32174336D01*
X109582365Y32074614D01*
X109303530Y32013957D01*
X109018900Y31993600D01*
X101018900Y31993600D01*
X100734270Y31973243D01*
X100455435Y31912586D01*
X100188070Y31812864D01*
X99937618Y31676107D01*
X99709179Y31505099D01*
X99507401Y31303321D01*
X99336393Y31074882D01*
X99199636Y30824430D01*
X99099914Y30557065D01*
X99039257Y30278230D01*
X99018900Y29993600D01*
X99018900Y17993600D01*
X99018900Y15993600D01*
X99018900Y10993600D01*
X98998543Y10708970D01*
X98937886Y10430135D01*
X98838164Y10162770D01*
X98701407Y9912318D01*
X98530399Y9683879D01*
X98328621Y9482101D01*
X98100182Y9311093D01*
X97849730Y9174336D01*
X97582365Y9074614D01*
X97303530Y9013957D01*
X97018900Y8993600D01*
X96310010Y9018758D01*
X95604686Y9094105D01*
X94906479Y9219262D01*
X94218900Y9393600D01*
X93621338Y9588565D01*
X93037274Y9820862D01*
X91918900Y10393600D01*
X91018900Y10993600D01*
X90490946Y11360843D01*
X89940733Y11693812D01*
X89370481Y11991160D01*
X88782495Y12251688D01*
X88179148Y12474344D01*
X87562877Y12658228D01*
X86936171Y12802597D01*
X86301561Y12906869D01*
X85661609Y12970623D01*
X85018900Y12993600D01*
X85018899Y12993600D01*
X84733892Y12974246D01*
X84454583Y12914327D01*
X84186716Y12815076D01*
X83935798Y12678532D01*
X83706989Y12507505D01*
X83504994Y12305510D01*
X83333967Y12076702D01*
X83197423Y11825784D01*
X83098172Y11557916D01*
X83038253Y11278607D01*
X83018900Y10993600D01*
X83018900Y7493600D01*
X83018900Y4993600D01*
X83039257Y4708970D01*
X83099914Y4430135D01*
X83199636Y4162770D01*
X83336393Y3912318D01*
X83507401Y3683879D01*
X83709179Y3482101D01*
X83937618Y3311093D01*
X84188070Y3174336D01*
X84455435Y3074614D01*
X84734270Y3013957D01*
X85018900Y2993600D01*
X105018900Y2993600D01*
X105018900Y-2006400D01*
X17018900Y-2006400D01*
X17018900Y2993600D01*
X30018900Y2993600D01*
X30303530Y3013957D01*
X30582365Y3074614D01*
X30849730Y3174336D01*
X31100182Y3311093D01*
X31328621Y3482101D01*
X31530399Y3683879D01*
X31701407Y3912318D01*
X31838164Y4162770D01*
X31937886Y4430135D01*
X31998543Y4708970D01*
X32018900Y4993600D01*
X32027800Y5307200D01*
X32117800Y5287200D01*
X32207800Y5277200D01*
X32287800Y5277200D01*
X32397800Y5307200D01*
X32547800Y5377200D01*
X32677800Y5487200D01*
X32767800Y5617200D01*
X32817800Y5767200D01*
X32827800Y5907200D01*
X32817800Y6037200D01*
X32757800Y6187200D01*
X32707800Y6267200D01*
X32567800Y6397200D01*
X32437800Y6477200D01*
X32307800Y6507200D01*
X32017800Y6747200D01*
X32018900Y8993600D01*
X32000037Y9329493D01*
X31943684Y9661163D01*
X31850550Y9984437D01*
X31721807Y10295251D01*
X31559073Y10589696D01*
X31364394Y10864069D01*
X31140220Y11114920D01*
X30889369Y11339094D01*
X30614996Y11533773D01*
X30320551Y11696507D01*
X30009737Y11825250D01*
X29686463Y11918384D01*
X29018901Y11993600D01*
X29018900Y11993600D01*
X28583121Y12012627D01*
X28150659Y12069561D01*
X27724805Y12163971D01*
X27308799Y12295137D01*
X26905809Y12462061D01*
X26518900Y12663473D01*
X26151018Y12897840D01*
X25804962Y13163378D01*
X25483366Y13458066D01*
X25188678Y13779662D01*
X24923140Y14125718D01*
X24688773Y14493600D01*
X24487361Y14880509D01*
X24320437Y15283499D01*
X24189271Y15699505D01*
X24094861Y16125359D01*
X24037927Y16557821D01*
X24018900Y16993600D01*
X24018900Y22993600D01*
X23998493Y23333047D01*
X23937566Y23667604D01*
X23836996Y23992452D01*
X23698231Y24302912D01*
X23523272Y24594511D01*
X23314638Y24863048D01*
X23075334Y25104656D01*
X22808808Y25315855D01*
X22518899Y25493600D01*
X22518900Y25493600D01*
X22228991Y25671346D01*
X21962466Y25882544D01*
X21723162Y26124152D01*
X21514528Y26392690D01*
X21339569Y26684288D01*
X21200805Y26994748D01*
X21100235Y27319596D01*
X21039307Y27654153D01*
X21018900Y27993600D01*
X21018900Y28993600D01*
X21100234Y29667604D01*
X21200804Y29992452D01*
X21339568Y30302912D01*
X21514528Y30594511D01*
X21723162Y30863048D01*
X21962465Y31104656D01*
X22228991Y31315854D01*
X22518900Y31493600D01*
X22808809Y31671345D01*
X23075335Y31882544D01*
X23314638Y32124152D01*
X23523272Y32392690D01*
X23698231Y32684289D01*
X23836995Y32994748D01*
X23937565Y33319596D01*
X23998493Y33654154D01*
X24018900Y33993601D01*
X24018900Y43993600D01*
X27018900Y43993600D01*
X27018900Y16993600D01*
X27095020Y16610917D01*
X27187430Y16438030D01*
X27311793Y16286493D01*
X27463330Y16162130D01*
X27636217Y16069720D01*
X27823810Y16012815D01*
X28018900Y15993600D01*
X32018900Y15993600D01*
X32686463Y15918384D01*
X33009737Y15825250D01*
X33320551Y15696507D01*
X33614996Y15533773D01*
X33889369Y15339094D01*
X34140220Y15114920D01*
X34364394Y14864069D01*
X34559073Y14589696D01*
X34721807Y14295251D01*
X34850550Y13984437D01*
X34943684Y13661163D01*
X35000037Y13329493D01*
X35018900Y12993600D01*
X35040288Y12667285D01*
X35104085Y12346552D01*
X35209201Y12036891D01*
X35353836Y11743600D01*
X35535517Y11471696D01*
X35751133Y11225833D01*
X35996996Y11010217D01*
X36268900Y10828536D01*
X36562191Y10683901D01*
X36871852Y10578785D01*
X37192585Y10514988D01*
X37518900Y10493600D01*
X40118900Y10493600D01*
X41018900Y10493600D01*
X45518900Y10493600D01*
X46173532Y10580830D01*
X46486484Y10688436D01*
X46782481Y10836434D01*
X47056337Y11022233D01*
X47303252Y11242575D01*
X47518900Y11493600D01*
X47981464Y11964968D01*
X48255319Y12150766D01*
X48551316Y12298764D01*
X48864268Y12406370D01*
X49188692Y12471697D01*
X49518901Y12493600D01*
X53018900Y12493600D01*
X53303530Y12513957D01*
X53582365Y12574614D01*
X53849730Y12674336D01*
X54100182Y12811093D01*
X54328621Y12982101D01*
X54530399Y13183879D01*
X54701407Y13412318D01*
X54838164Y13662770D01*
X54937886Y13930135D01*
X54998543Y14208970D01*
X55018900Y14493600D01*
X55018900Y25993600D01*
X54942041Y26773961D01*
X54846661Y27154739D01*
X54714418Y27524334D01*
X54546585Y27879187D01*
X54344778Y28215881D01*
X54110942Y28531173D01*
X53847327Y28822027D01*
X53556473Y29085642D01*
X53241181Y29319478D01*
X52904487Y29521285D01*
X52549634Y29689118D01*
X52180039Y29821361D01*
X51799261Y29916741D01*
X51410969Y29974339D01*
X51018900Y29993600D01*
X50268235Y30039007D01*
X49692997Y30073802D01*
X49036095Y30173781D01*
X48386428Y30313240D01*
X47746366Y30491670D01*
X47118246Y30708421D01*
X46504359Y30962702D01*
X45906945Y31253584D01*
X45328184Y31580006D01*
X44770188Y31940777D01*
X44234992Y32334582D01*
X43724551Y32759982D01*
X43240725Y33215425D01*
X42785282Y33699251D01*
X42359882Y34209692D01*
X41966077Y34744888D01*
X41605306Y35302884D01*
X41278884Y35881645D01*
X40988002Y36479059D01*
X40733721Y37092946D01*
X40516970Y37721066D01*
X40338540Y38361128D01*
X40199081Y39010795D01*
X40099102Y39667697D01*
X40038969Y40329437D01*
X40018900Y40993600D01*
X40018900Y43993600D01*
X39998543Y44278230D01*
X39937886Y44557065D01*
X39838164Y44824430D01*
X39745790Y44993600D01*
X43018900Y44993600D01*
X43018900Y40993600D01*
X43039283Y40422887D01*
X43100328Y39855081D01*
X43201725Y39293078D01*
X43342956Y38739740D01*
X43523302Y38197887D01*
X43741844Y37670280D01*
X43997468Y37159608D01*
X44288872Y36668473D01*
X44614570Y36199379D01*
X44972903Y35754714D01*
X45362046Y35336746D01*
X45780014Y34947603D01*
X46224679Y34589270D01*
X46693773Y34263572D01*
X47184908Y33972168D01*
X47695580Y33716544D01*
X48223187Y33498002D01*
X48765040Y33317656D01*
X49318378Y33176425D01*
X49880381Y33075028D01*
X50448187Y33013983D01*
X51018900Y32993600D01*
X57018900Y32993600D01*
X57401583Y32917480D01*
X57574470Y32825070D01*
X57726007Y32700707D01*
X57850370Y32549170D01*
X57942780Y32376283D01*
X57999685Y32188690D01*
X58018900Y31993600D01*
X58018900Y9493600D01*
X58018900Y8993600D01*
X58018900Y8493600D01*
X58000491Y8298173D01*
X57944082Y8110161D01*
X57851867Y7936878D01*
X57727433Y7785066D01*
X57575622Y7660632D01*
X57498757Y7619727D01*
X57497800Y7617200D01*
X57287800Y7467200D01*
X57167800Y7397200D01*
X57117800Y7357200D01*
X57047800Y7287200D01*
X56967800Y7177200D01*
X56917800Y7037200D01*
X56897800Y6897200D01*
X56917800Y6737200D01*
X56977800Y6597200D01*
X57057800Y6477200D01*
X57167800Y6387200D01*
X57297800Y6317200D01*
X57467800Y6287200D01*
X57687800Y6297200D01*
X57857800Y6377200D01*
X58017800Y6497200D01*
X58018900Y4993600D01*
X58039257Y4708970D01*
X58099914Y4430135D01*
X58199636Y4162770D01*
X58336393Y3912318D01*
X58507401Y3683879D01*
X58709179Y3482101D01*
X58937618Y3311093D01*
X59188070Y3174336D01*
X59455435Y3074614D01*
X59734270Y3013957D01*
X60018900Y2993600D01*
X66018900Y2993600D01*
X66303530Y3013957D01*
X66582365Y3074614D01*
X66849730Y3174336D01*
X67100182Y3311093D01*
X67328621Y3482101D01*
X67530399Y3683879D01*
X67701407Y3912318D01*
X67838164Y4162770D01*
X67937886Y4430135D01*
X67998543Y4708970D01*
X68018900Y4993600D01*
X68018900Y7493600D01*
X68018900Y27993600D01*
X71018900Y27993600D01*
X71018900Y16493600D01*
X71039257Y16208970D01*
X71099914Y15930135D01*
X71199636Y15662770D01*
X71336393Y15412318D01*
X71507401Y15183879D01*
X71709179Y14982101D01*
X71937618Y14811093D01*
X72188070Y14674336D01*
X72455435Y14574614D01*
X72734270Y14513957D01*
X73018900Y14493600D01*
X74084927Y14513657D01*
X75149444Y14573799D01*
X76210946Y14673940D01*
X78318900Y14993600D01*
X79718900Y15293600D01*
X80785203Y15524258D01*
X81860262Y15709876D01*
X82942175Y15850124D01*
X84822446Y15974060D01*
X85118900Y15993600D01*
X94018900Y15993600D01*
X94303530Y16013957D01*
X94582365Y16074614D01*
X94849730Y16174336D01*
X95100182Y16311093D01*
X95328621Y16482101D01*
X95530399Y16683879D01*
X95701407Y16912318D01*
X95838164Y17162770D01*
X95937886Y17430135D01*
X95998543Y17708970D01*
X96018900Y17993600D01*
X96018900Y29993600D01*
X95998543Y30278230D01*
X95937886Y30557065D01*
X95838164Y30824430D01*
X95701407Y31074882D01*
X95530399Y31303321D01*
X95328621Y31505099D01*
X95100182Y31676107D01*
X94849730Y31812864D01*
X94582365Y31912586D01*
X94303530Y31973243D01*
X94018900Y31993600D01*
X75018900Y31993600D01*
X74238539Y31916741D01*
X73857761Y31821361D01*
X73488166Y31689118D01*
X73133313Y31521285D01*
X72796619Y31319478D01*
X72481327Y31085642D01*
X72190473Y30822027D01*
X71926858Y30531173D01*
X71693022Y30215881D01*
X71491215Y29879187D01*
X71323382Y29524334D01*
X71191139Y29154739D01*
X71095759Y28773961D01*
X71038161Y28385669D01*
X71018900Y27993600D01*
X68018900Y27993600D01*
X68018900Y33993600D01*
X68095020Y34376283D01*
X68187430Y34549170D01*
X68311793Y34700707D01*
X68463330Y34825070D01*
X68636217Y34917480D01*
X68823810Y34974385D01*
X69018900Y34993600D01*
X96018900Y34993600D01*
X99018900Y34993600D01*
X101018900Y34993600D01*
X101686463Y35068816D01*
X102009737Y35161950D01*
X102320551Y35290693D01*
X102614996Y35453427D01*
X102889369Y35648106D01*
X103140220Y35872280D01*
X103364394Y36123131D01*
X103559073Y36397504D01*
X103721807Y36691949D01*
X103850550Y37002763D01*
X103943684Y37326037D01*
X104000037Y37657707D01*
X104018900Y37993600D01*
X104018900Y42993600D01*
X103998543Y43278230D01*
X103937886Y43557065D01*
X103838164Y43824430D01*
X103701407Y44074882D01*
X103530399Y44303321D01*
X103328621Y44505099D01*
X103100182Y44676107D01*
X102849730Y44812864D01*
X102582365Y44912586D01*
X102303530Y44973243D01*
X102018900Y44993600D01*
X101559904Y45014713D01*
X101322629Y45047640D01*
X101104783Y45077871D01*
X100657383Y45182543D01*
X100221480Y45327844D01*
X99800757Y45512547D01*
X99398765Y45735092D01*
X99018901Y45993600D01*
X99018900Y45993600D01*
X98237044Y46474653D01*
X97816320Y46659356D01*
X97380417Y46804657D01*
X96933017Y46909329D01*
X96477896Y46972488D01*
X96018900Y46993600D01*
X83018900Y46993600D01*
X82351337Y46918384D01*
X82028063Y46825250D01*
X81717249Y46696507D01*
X81422804Y46533773D01*
X81148431Y46339094D01*
X80897580Y46114920D01*
X80673406Y45864069D01*
X80478727Y45589696D01*
X80315993Y45295251D01*
X80187250Y44984437D01*
X80094116Y44661163D01*
X80037763Y44329493D01*
X80018900Y43993600D01*
X79942041Y43213239D01*
X79846661Y42832461D01*
X79714418Y42462866D01*
X79546585Y42108013D01*
X79344778Y41771319D01*
X79110942Y41456027D01*
X78847327Y41165173D01*
X78556473Y40901558D01*
X78241181Y40667722D01*
X77904487Y40465915D01*
X77549634Y40298082D01*
X77180039Y40165839D01*
X76799261Y40070459D01*
X76410969Y40012861D01*
X76018900Y39993600D01*
X61018900Y39993600D01*
X60734270Y40013957D01*
X60455435Y40074614D01*
X60188070Y40174336D01*
X59937618Y40311093D01*
X59709179Y40482101D01*
X59507401Y40683879D01*
X59336393Y40912318D01*
X59199636Y41162770D01*
X59099914Y41430135D01*
X59039257Y41708970D01*
X59018900Y41993600D01*
X59018900Y49993600D01*
X58998543Y50278230D01*
X58937886Y50557065D01*
X58838164Y50824430D01*
X58701407Y51074882D01*
X58530399Y51303321D01*
X58328621Y51505099D01*
X58100182Y51676107D01*
X57849730Y51812864D01*
X57582365Y51912586D01*
X57303530Y51973243D01*
X57018900Y51993600D01*
X50018900Y51993600D01*
X49495789Y51974027D01*
X48975604Y51915416D01*
X48461253Y51818095D01*
X47955614Y51682610D01*
X47461513Y51509716D01*
X46981714Y51300382D01*
X46518900Y51055778D01*
X46075660Y50777271D01*
X45654471Y50466420D01*
X45257691Y50124963D01*
X44887537Y49754809D01*
X44546080Y49358029D01*
X44235229Y48936840D01*
X43956722Y48493600D01*
X43712118Y48030786D01*
X43502784Y47550987D01*
X43329890Y47056886D01*
X43194405Y46551247D01*
X43097084Y46036896D01*
X43038473Y45516711D01*
X43018900Y44993600D01*
X39745790Y44993600D01*
X39701407Y45074882D01*
X39530399Y45303321D01*
X39328621Y45505099D01*
X39100182Y45676107D01*
X38849730Y45812864D01*
X38582365Y45912586D01*
X38303530Y45973243D01*
X38018900Y45993600D01*
X29018900Y45993600D01*
X28734270Y45973243D01*
X28455435Y45912586D01*
X28188070Y45812864D01*
X27937618Y45676107D01*
X27709179Y45505099D01*
X27507401Y45303321D01*
X27336393Y45074882D01*
X27199636Y44824430D01*
X27099914Y44557065D01*
X27039257Y44278230D01*
X27018900Y43993600D01*
X24018900Y43993600D01*
X23937159Y45449138D01*
X23835223Y46171181D01*
X23692963Y46886372D01*
X23510825Y47592462D01*
X23289383Y48287228D01*
X23029334Y48968485D01*
X22731495Y49634089D01*
X22396804Y50281946D01*
X22026315Y50910017D01*
X21621191Y51516327D01*
X21182709Y52098967D01*
X20712248Y52656106D01*
X20211288Y53185988D01*
X19681406Y53686948D01*
X19124267Y54157409D01*
X18541627Y54595891D01*
X17935317Y55001015D01*
X17307246Y55371504D01*
X16659389Y55706195D01*
X15993785Y56004034D01*
X15312528Y56264083D01*
X14617762Y56485525D01*
X13911672Y56667663D01*
X13196481Y56809923D01*
X12474438Y56911859D01*
X11747816Y56973149D01*
X11018900Y56993600D01*
X9018900Y56993600D01*
X7018900Y56993600D01*
X6238539Y56916741D01*
X5857761Y56821361D01*
X5488166Y56689118D01*
X5133313Y56521285D01*
X4796619Y56319478D01*
X4481327Y56085642D01*
X4190473Y55822027D01*
X3926858Y55531173D01*
X3693022Y55215881D01*
X3491215Y54879187D01*
X3323382Y54524334D01*
X3191139Y54154739D01*
X3095759Y53773961D01*
X3038161Y53385669D01*
X3018900Y52993600D01*
X3018900Y33993600D01*
X3100234Y33319596D01*
X3200804Y32994748D01*
X3339569Y32684289D01*
X3514528Y32392690D01*
X3723162Y32124152D01*
X3962465Y31882544D01*
X4228991Y31671346D01*
X4518900Y31493600D01*
X4808809Y31315854D01*
X5075334Y31104656D01*
X5314638Y30863047D01*
X5523272Y30594510D01*
X5698231Y30302911D01*
X5836995Y29992451D01*
X5937565Y29667603D01*
X5998493Y29333046D01*
X6018900Y28993599D01*
X6018900Y27993600D01*
X5998493Y27654153D01*
X5937565Y27319596D01*
X5836995Y26994748D01*
X5698231Y26684288D01*
X5523272Y26392690D01*
X5314638Y26124152D01*
X5075334Y25882544D01*
X4808808Y25671346D01*
X4518900Y25493600D01*
X4228992Y25315854D01*
X3962466Y25104655D01*
X3723163Y24863047D01*
X3514529Y24594510D01*
X3339569Y24302911D01*
X3200805Y23992452D01*
X3100235Y23667604D01*
X3039307Y23333047D01*
X3018900Y22993600D01*
X3018900Y6993600D01*
X3095759Y6213239D01*
X3191139Y5832461D01*
X3323382Y5462866D01*
X3491215Y5108013D01*
X3693022Y4771319D01*
X3926858Y4456027D01*
X4190473Y4165173D01*
X4481327Y3901558D01*
X4796619Y3667722D01*
X5133313Y3465915D01*
X5488166Y3298082D01*
X5857761Y3165839D01*
X6238539Y3070459D01*
X6626831Y3012861D01*
X7018900Y2993600D01*
X7018900Y-2006400D01*
X18900Y-2006400D01*
X18900Y95993600D01*
X81018900Y95993600D01*
X90018900Y95993600D01*
X90018900Y92993600D01*
G37*
D13*
X21298900Y89803600D03*
D14*
X23838900Y89803600D03*
X26378900Y89803600D03*
X28918900Y89803600D03*
X31458900Y89803600D03*
X33998900Y89803600D03*
X36538900Y89803600D03*
X39078900Y89803600D03*
X41618900Y89803600D03*
X44158900Y89803600D03*
D15*
X66888900Y89698600D03*
X61108900Y89698600D03*
D16*
X68318900Y89198600D03*
D17*
X68318900Y93378600D03*
D16*
X59678900Y89198600D03*
D17*
X59678900Y93378600D03*
D18*
X7580400Y665400D03*
X16419600Y665400D03*
D19*
X51500000Y93000000D03*
D20*
X47750000Y88000000D03*
X55250000Y88000000D03*
X51450000Y88000000D03*
D18*
X105580400Y665400D03*
X114419600Y665400D03*
D21*
X98494600Y93784600D03*
X91505400Y93784600D03*
X114494600Y93784600D03*
X107505400Y93784600D03*
D13*
X7973900Y64978600D03*
D14*
X5433900Y64978600D03*
X7973900Y67518600D03*
X5433900Y67518600D03*
X7973900Y70058600D03*
X5433900Y70058600D03*
X7973900Y72598600D03*
X5433900Y72598600D03*
X7973900Y75138600D03*
X5433900Y75138600D03*
X7973900Y77678600D03*
X5433900Y77678600D03*
X7973900Y80218600D03*
X5433900Y80218600D03*
X7973900Y82758600D03*
X5433900Y82758600D03*
X7973900Y85298600D03*
X5433900Y85298600D03*
X7973900Y87838600D03*
X5433900Y87838600D03*
D22*
X5000000Y52500000D03*
D23*
X90000000Y52000000D03*
X22000000Y35000000D03*
X86300000Y58300000D03*
X28000000Y64000000D03*
X32000000Y42000000D03*
D22*
X73000000Y55000000D03*
D23*
X36000000Y42000000D03*
X106000000Y56000000D03*
D22*
X85525000Y20450000D03*
D23*
X28000000Y62000000D03*
D22*
X34000000Y42000000D03*
X112000000Y58700000D03*
X76000000Y52000000D03*
D23*
X107000000Y53000000D03*
X20000000Y35000000D03*
X28000000Y66000000D03*
X79900000Y29000000D03*
X28000000Y60000000D03*
%LPD*%
M02*
